<svg width="256" height="256" viewBox="0 0 256 256" fill="none" xmlns="http://www.w3.org/2000/svg">
<rect width="256" height="256" fill="#F7911A"/>
<path d="M166.099 146.473C164.136 141.908 161.235 137.769 157.395 134.015C153.555 130.303 149.374 126.804 144.766 123.519C140.158 120.233 135.891 117.076 131.88 114.004C127.87 110.932 124.755 107.86 122.494 104.745C120.232 101.631 119.55 98.3881 120.403 94.9321C121.47 90.7081 124.03 87.8921 128.126 86.4841C132.222 85.0761 137.043 85.0761 142.632 86.4841C145.875 87.2948 149.587 88.5321 152.104 90.0681C163.112 96.8095 162.216 108.372 162.216 108.372L162.643 108.5L173.95 111.316L179.198 90.2815C179.198 90.2815 170.11 84.3081 163.112 80.8521C159.102 78.8468 154.11 76.8415 149.374 75.2628L154.792 53.5028L141.395 50.1748L136.019 71.7641C130.003 70.6975 124.328 70.4415 118.995 71.0388C112.04 71.7641 106.195 73.8548 101.416 77.3108C96.6804 80.7241 93.5231 85.5028 92.0297 91.6041C90.5791 97.4068 90.7924 102.569 92.6697 107.177C94.5471 111.785 97.4484 115.967 101.331 119.807C105.214 123.604 109.438 127.103 114.046 130.345C118.654 133.545 122.92 136.745 126.931 139.86C130.899 142.975 134.014 146.132 136.232 149.375C138.451 152.575 139.091 156.073 138.152 159.871C137 164.564 134.142 167.551 129.619 168.916C125.096 170.281 119.976 170.239 114.302 168.831C112.296 168.319 109.907 167.465 107.518 166.399C100.52 163.369 95.4857 157.311 93.9497 150.271C93.6937 149.119 93.5231 148.351 93.5231 148.351L81.7897 145.407L76.7124 165.801C80.1684 168.191 83.6244 170.751 90.7924 174.377C96.8511 177.449 101.8 179.583 108.712 181.503L103.464 202.58L116.862 205.908L122.238 184.276C127.272 184.916 132.179 185.044 136.872 184.575C144.467 183.807 150.952 181.545 156.286 177.791C161.619 174.036 165.118 168.788 166.824 162.004C168.275 156.201 168.019 151.039 166.056 146.473H166.099Z" fill="white"/>
</svg>
