<svg width="130" height="151" viewBox="0 0 130 151" fill="none" xmlns="http://www.w3.org/2000/svg">
<path d="M125.553 3.82633C125.472 3.94795 125.383 4.06957 125.293 4.19119C125.123 4.43443 124.945 4.67766 124.758 4.9209C124.653 5.05874 124.539 5.19657 124.434 5.3263C124.248 5.55333 124.061 5.77224 123.866 5.99926C123.745 6.12899 123.631 6.26683 123.502 6.39655C123.291 6.62358 123.072 6.84249 122.845 7.06141C122.723 7.18303 122.61 7.29654 122.488 7.41816C122.212 7.67761 121.921 7.93707 121.621 8.19652C121.539 8.26138 121.475 8.33436 121.394 8.39922C120.988 8.73976 120.567 9.06407 120.137 9.38839C120.015 9.47758 119.885 9.56677 119.764 9.65596C119.44 9.89109 119.107 10.1181 118.767 10.337C118.612 10.4424 118.45 10.5397 118.296 10.637C117.948 10.8559 117.583 11.0667 117.218 11.2775C117.08 11.3586 116.942 11.4397 116.804 11.5127C116.294 11.7884 115.775 12.064 115.24 12.3154C115.11 12.3802 114.972 12.437 114.842 12.4937C114.477 12.664 114.113 12.8343 113.732 12.9883C113.537 13.0694 113.342 13.1424 113.148 13.2235C112.815 13.3532 112.491 13.491 112.15 13.6126C111.932 13.6937 111.713 13.7667 111.486 13.8478C111.161 13.9613 110.829 14.0748 110.496 14.1802C110.261 14.2532 110.026 14.3261 109.791 14.3991C109.459 14.4964 109.118 14.5937 108.769 14.691C108.396 14.7964 108.023 14.8937 107.634 14.991C106.84 15.1856 106.029 15.3477 105.226 15.5018C104.991 15.5423 104.756 15.5829 104.521 15.6234C103.921 15.7288 103.313 15.8099 102.713 15.891C102.478 15.9234 102.243 15.9558 102.007 15.9802C101.197 16.0694 100.394 16.1423 99.5912 16.191C98.6831 16.2477 97.7831 16.2721 96.875 16.2721C96.348 16.2721 95.8129 16.2558 95.2859 16.2396C94.9697 16.2315 94.6616 16.2153 94.3535 16.1991C94.0048 16.1829 93.6562 16.1585 93.3156 16.1342C93.0075 16.1099 92.6994 16.0856 92.3913 16.0531C92.0589 16.0207 91.7346 15.9883 91.4103 15.9477C91.0454 15.9072 90.6887 15.8585 90.3319 15.8099C90.0238 15.7613 89.7076 15.7207 89.3995 15.664C89.0427 15.6072 88.686 15.5423 88.3374 15.4775C88.0536 15.4207 87.7698 15.364 87.486 15.3072C86.9347 15.1937 86.3915 15.064 85.8482 14.9261C85.6617 14.8775 85.4752 14.8369 85.2888 14.7883C84.5753 14.6018 83.8699 14.391 83.1807 14.1721C82.6212 13.9937 82.078 13.7991 81.5348 13.5964C81.5348 13.5964 81.5267 13.5964 81.5186 13.5964V61.7983C82.0375 61.9929 82.5645 62.1794 83.0996 62.3496C83.1239 62.3577 83.1564 62.3658 83.1888 62.3739C83.878 62.601 84.5834 62.8037 85.2969 62.9902C85.4834 63.0388 85.6698 63.0793 85.8563 63.128C86.3996 63.2658 86.9428 63.3874 87.4941 63.5091C87.6076 63.5334 87.7131 63.5658 87.8266 63.582C87.9968 63.6145 88.1752 63.6388 88.3455 63.6712C88.7022 63.7361 89.0509 63.8009 89.4076 63.8577C89.7157 63.9064 90.0238 63.955 90.34 64.0036C90.6968 64.0523 91.0616 64.1009 91.4184 64.1496C91.5805 64.1658 91.7508 64.1982 91.913 64.2145C92.0751 64.2307 92.2373 64.2388 92.3995 64.255C92.7076 64.2874 93.0157 64.3117 93.3238 64.3361C93.6724 64.3604 94.021 64.3847 94.3697 64.4009C94.6778 64.4172 94.9859 64.4334 95.3021 64.4415C95.4643 64.4415 95.6183 64.4577 95.7805 64.4658C96.1534 64.4739 96.5183 64.482 96.8913 64.482C97.7912 64.482 98.6993 64.4577 99.5993 64.4009C99.6074 64.4009 99.6155 64.4009 99.6236 64.4009C100.418 64.3523 101.221 64.2793 102.024 64.1901C102.259 64.1658 102.494 64.1334 102.729 64.1009C103.045 64.0604 103.361 64.028 103.686 63.9793C103.97 63.9388 104.253 63.882 104.537 63.8334C104.772 63.7928 105.007 63.7523 105.242 63.7118C106.045 63.5658 106.848 63.3955 107.651 63.201C107.894 63.1442 108.137 63.0793 108.38 63.0145C108.518 62.982 108.648 62.9334 108.786 62.901C109.126 62.8037 109.467 62.7145 109.799 62.6091C110.034 62.5361 110.278 62.4631 110.513 62.3902C110.845 62.2848 111.177 62.1712 111.502 62.0577C111.721 61.9767 111.948 61.9037 112.167 61.8226C112.507 61.701 112.832 61.5631 113.164 61.4334C113.359 61.3523 113.553 61.2794 113.748 61.1983C114.121 61.0361 114.486 60.874 114.85 60.7037C114.972 60.6469 115.094 60.5983 115.207 60.5415C115.223 60.5415 115.24 60.5253 115.248 60.5172C115.783 60.2578 116.302 59.9902 116.813 59.7145C116.958 59.6335 117.088 59.5524 117.234 59.4713C117.599 59.2605 117.956 59.0497 118.313 58.8308C118.475 58.7335 118.629 58.6281 118.791 58.5308C119.131 58.3119 119.464 58.0848 119.788 57.8497C119.91 57.7605 120.04 57.6713 120.169 57.5821C120.607 57.2578 121.029 56.9335 121.426 56.6011C121.434 56.593 121.45 56.5849 121.458 56.5767C121.531 56.52 121.588 56.4551 121.661 56.3984C121.961 56.147 122.245 55.8876 122.529 55.6281C122.65 55.5146 122.772 55.393 122.894 55.2714C123.121 55.0525 123.339 54.8335 123.55 54.6065C123.672 54.4768 123.793 54.339 123.915 54.2092C124.11 53.9903 124.304 53.7633 124.491 53.5363C124.604 53.3984 124.71 53.2687 124.815 53.1309C125.002 52.8876 125.18 52.6444 125.35 52.4011C125.415 52.312 125.488 52.2228 125.553 52.1255C125.577 52.093 125.593 52.0606 125.61 52.0282C125.861 51.6552 126.096 51.2741 126.315 50.885V2.68311C126.096 3.06418 125.861 3.44525 125.61 3.82633H125.553Z" fill="url(#paint0_linear_4710_12147)"/>
<path d="M129.85 61.2309C129.85 61.2957 129.834 61.3606 129.834 61.4336C129.785 62.0498 129.712 62.6579 129.623 63.266C129.607 63.3795 129.59 63.493 129.574 63.6146C129.477 64.247 129.355 64.8713 129.217 65.4875C129.185 65.6335 129.153 65.7794 129.112 65.9254C128.982 66.4848 128.836 67.0362 128.666 67.5875C128.642 67.6848 128.617 67.774 128.585 67.8713C128.39 68.4875 128.18 69.1037 127.953 69.7118C127.896 69.8577 127.839 70.0037 127.782 70.1415C127.596 70.6199 127.393 71.0901 127.182 71.5604C127.101 71.7469 127.02 71.9334 126.931 72.1118C126.639 72.728 126.331 73.3361 126.007 73.9441C125.974 73.9928 125.95 74.0496 125.917 74.0982C125.609 74.6495 125.285 75.2009 124.953 75.736C124.839 75.9225 124.717 76.109 124.596 76.2955C124.304 76.7414 124.004 77.1873 123.696 77.6252C123.615 77.7468 123.526 77.8684 123.445 77.9819C123.047 78.5333 122.626 79.0765 122.196 79.6116C122.107 79.717 122.018 79.8224 121.928 79.9359C121.539 80.4062 121.134 80.8765 120.72 81.3386C120.631 81.4359 120.55 81.5332 120.461 81.6305C119.982 82.1494 119.496 82.6602 118.985 83.171C118.872 83.2845 118.758 83.398 118.645 83.5115C118.182 83.9656 117.704 84.4115 117.218 84.8575C117.145 84.9223 117.072 84.9953 116.991 85.0683C116.447 85.5548 115.888 86.025 115.32 86.4872C115.158 86.6169 114.996 86.7466 114.834 86.8764C114.355 87.2574 113.869 87.6304 113.374 88.0034C113.237 88.1088 113.099 88.2142 112.953 88.3196C112.337 88.7736 111.704 89.2196 111.056 89.6493C110.91 89.7466 110.764 89.8358 110.626 89.9331C110.091 90.2817 109.556 90.6303 109.004 90.9709C108.818 91.0844 108.631 91.206 108.437 91.3195C107.747 91.733 107.05 92.1384 106.337 92.5357C106.312 92.5438 106.296 92.56 106.272 92.5681C105.575 92.9492 104.869 93.3222 104.148 93.687C103.945 93.7924 103.734 93.8979 103.523 93.9951C103.11 94.1978 102.688 94.3924 102.275 94.587C101.577 94.9114 100.872 95.2357 100.15 95.5438C99.826 95.6816 99.5098 95.8275 99.1774 95.9573C98.2449 96.3465 97.3044 96.7113 96.3396 97.0681C96.2342 97.1086 96.1369 97.1491 96.0315 97.1897C94.9693 97.5789 93.8829 97.9437 92.7802 98.2924C92.4558 98.3978 92.1234 98.487 91.7991 98.5924C90.9964 98.8356 90.1937 99.0707 89.3748 99.2896C88.8802 99.4275 88.3857 99.5572 87.883 99.6869C87.5911 99.7599 87.2911 99.8329 86.9992 99.9059C86.2695 100.084 85.5398 100.246 84.7938 100.409C84.6073 100.449 84.429 100.49 84.2425 100.53C83.3263 100.717 82.3939 100.895 81.4534 101.057C81.202 101.098 80.9507 101.138 80.6993 101.179C79.9615 101.3 79.2237 101.414 78.4858 101.519C78.2588 101.552 78.0399 101.584 77.8129 101.609C76.8805 101.73 75.9399 101.844 74.9994 101.941C74.9021 101.949 74.8129 101.957 74.7156 101.965C73.84 102.054 72.9643 102.127 72.0805 102.192C71.8535 102.209 71.6265 102.225 71.3995 102.241C70.6779 102.29 69.9481 102.322 69.2184 102.354C68.8779 102.371 68.5374 102.387 68.1968 102.403C67.159 102.436 66.1131 102.46 65.059 102.46C64.1266 102.46 63.2023 102.436 62.278 102.411C61.2402 102.379 60.2105 102.338 59.1889 102.273C58.9781 102.257 58.7591 102.257 58.5402 102.241C57.3078 102.16 56.0916 102.054 54.8835 101.925C53.9755 101.827 53.0755 101.722 52.1836 101.6C51.9809 101.576 51.7863 101.544 51.5836 101.511C50.8052 101.398 50.0269 101.284 49.2566 101.154C49.0539 101.122 48.8431 101.09 48.6323 101.049C47.7323 100.895 46.8485 100.725 45.9648 100.538C45.6891 100.482 45.4134 100.417 45.1378 100.36C44.4729 100.214 43.8162 100.068 43.1675 99.914C42.8351 99.8329 42.5108 99.7518 42.1865 99.6707C41.5865 99.5167 40.9865 99.3626 40.3865 99.1923C40.0703 99.1032 39.746 99.014 39.4298 98.9248C38.7892 98.7383 38.1487 98.5437 37.5163 98.3491C37.273 98.268 37.0217 98.1951 36.7785 98.1221C35.9514 97.8545 35.1244 97.5708 34.3136 97.2789C34.119 97.2059 33.9326 97.1329 33.738 97.0681C33.0893 96.8248 32.4488 96.5816 31.8164 96.3302C31.5975 96.2411 31.3704 96.1519 31.1515 96.0627C30.3569 95.7384 29.5786 95.4059 28.8083 95.0573C28.7759 95.0411 28.7435 95.0249 28.711 95.0086C27.9732 94.6762 27.2435 94.3276 26.53 93.9708C26.3192 93.8654 26.1084 93.76 25.9057 93.6546C25.3138 93.3546 24.7219 93.0465 24.1462 92.7303C23.9922 92.6492 23.83 92.56 23.676 92.479C22.9706 92.0898 22.2733 91.6844 21.5922 91.2709C21.4301 91.1736 21.276 91.0763 21.122 90.979C20.5787 90.6466 20.0517 90.306 19.5247 89.9574C19.3382 89.8358 19.1517 89.7141 18.9734 89.5925C18.3247 89.1547 17.6842 88.7088 17.0599 88.2466C17.0437 88.2304 17.0193 88.2142 17.0031 88.2061C16.395 87.7601 15.8113 87.3061 15.2356 86.8439C15.0653 86.7061 14.9032 86.5764 14.741 86.4385C14.2707 86.0493 13.8086 85.6602 13.3627 85.2629C13.241 85.1575 13.1113 85.0521 12.9897 84.9386C12.4383 84.444 11.9032 83.9413 11.3843 83.4305C11.2627 83.3089 11.1492 83.1953 11.0276 83.0737C10.614 82.6602 10.2168 82.2467 9.82758 81.8251C9.68974 81.6791 9.55191 81.5332 9.42218 81.3792C8.94381 80.844 8.47355 80.3089 8.02761 79.7576C8.0195 79.7495 8.0114 79.7332 8.00329 79.7251C7.56546 79.19 7.15195 78.6387 6.74655 78.0873C6.63304 77.9252 6.51953 77.7711 6.40602 77.609C6.0817 77.1549 5.77359 76.6927 5.4736 76.2306C5.39252 76.1009 5.30333 75.9793 5.22225 75.8495C4.8574 75.2739 4.51686 74.6901 4.19254 74.1063C4.11957 73.9685 4.0466 73.8387 3.98174 73.7009C3.73039 73.2225 3.48715 72.7442 3.25202 72.2658C3.17094 72.0955 3.08986 71.9253 3.00878 71.755C2.73311 71.1469 2.46554 70.5307 2.23041 69.9145V69.8983C1.99528 69.2821 1.78447 68.6659 1.58988 68.0415C1.53313 67.8632 1.48448 67.6848 1.42773 67.5064C1.28178 67.0037 1.14395 66.4929 1.02233 65.974C0.989897 65.8281 0.949353 65.6902 0.916921 65.5443C0.770978 64.9038 0.649361 64.2632 0.552065 63.6227C0.527741 63.4768 0.511525 63.3308 0.495309 63.1849C0.422338 62.666 0.365581 62.139 0.316933 61.6119C0.300717 61.4255 0.284503 61.2471 0.268287 61.0606C0.21964 60.3957 0.195312 59.7309 0.195312 59.066V107.268C0.195312 107.941 0.227748 108.606 0.268287 109.262C0.284503 109.449 0.300717 109.635 0.316933 109.814C0.365581 110.341 0.422338 110.868 0.495309 111.387C0.519633 111.533 0.535849 111.679 0.552065 111.825C0.649361 112.473 0.770978 113.114 0.916921 113.746C0.949353 113.892 0.989897 114.03 1.02233 114.176C1.14395 114.687 1.28178 115.197 1.42773 115.708C1.47637 115.887 1.53313 116.065 1.58988 116.243C1.78447 116.868 1.99528 117.484 2.23041 118.1V118.116C2.46554 118.733 2.73311 119.349 3.00878 119.957C3.08986 120.127 3.17094 120.297 3.25202 120.468C3.47904 120.954 3.72228 121.433 3.98174 121.903C4.05471 122.041 4.11957 122.17 4.19254 122.308C4.51686 122.9 4.8574 123.476 5.22225 124.051C5.30333 124.181 5.39252 124.303 5.4736 124.432C5.77359 124.895 6.0817 125.357 6.40602 125.811C6.51953 125.973 6.63304 126.127 6.74655 126.289C7.15195 126.841 7.56546 127.392 8.00329 127.927C8.0114 127.935 8.0195 127.951 8.02761 127.959C8.47355 128.511 8.94381 129.046 9.42218 129.581C9.55191 129.727 9.68974 129.881 9.82758 130.027C10.2168 130.449 10.614 130.87 11.0276 131.276C11.1492 131.397 11.2627 131.519 11.3843 131.632C11.9032 132.143 12.4383 132.646 12.9816 133.14C13.1032 133.246 13.2329 133.359 13.3545 133.465C13.8086 133.862 14.2626 134.251 14.7329 134.64C14.8951 134.778 15.0653 134.908 15.2275 135.046C15.8031 135.508 16.395 135.97 16.995 136.416C17.0112 136.432 17.0274 136.44 17.0437 136.457C17.668 136.919 18.3085 137.365 18.9572 137.802C19.1355 137.924 19.322 138.046 19.5085 138.167C20.0355 138.516 20.5625 138.857 21.1058 139.189C21.2679 139.286 21.422 139.384 21.576 139.481C22.2571 139.894 22.9544 140.3 23.6598 140.689C23.8138 140.77 23.9679 140.859 24.1219 140.94C24.7057 141.256 25.2895 141.565 25.8895 141.865C26.1003 141.97 26.303 142.075 26.5138 142.181C27.2354 142.538 27.957 142.886 28.7029 143.219C28.7353 143.235 28.7597 143.243 28.7921 143.259C29.5624 143.608 30.3488 143.94 31.1353 144.265C31.3542 144.354 31.5812 144.443 31.8002 144.532C32.4326 144.783 33.0731 145.035 33.7217 145.27C33.9163 145.343 34.1028 145.416 34.2974 145.481C35.0434 145.748 35.7974 146.008 36.5595 146.259C36.6244 146.283 36.6974 146.3 36.7622 146.324C37.0055 146.405 37.2568 146.478 37.5001 146.551C38.1325 146.754 38.773 146.948 39.4135 147.135C39.7298 147.224 40.0541 147.313 40.3703 147.402C40.9622 147.564 41.5621 147.727 42.1702 147.881C42.4946 147.962 42.827 148.043 43.1513 148.124C43.8 148.278 44.4567 148.424 45.1215 148.57C45.3972 148.627 45.6729 148.691 45.9486 148.748C46.0296 148.764 46.1107 148.789 46.1918 148.805C46.9945 148.967 47.7972 149.113 48.6161 149.259C48.8188 149.291 49.0296 149.324 49.2404 149.364C50.0107 149.494 50.789 149.616 51.5674 149.721C51.7701 149.746 51.9647 149.778 52.1674 149.81C52.9863 149.924 53.8052 150.021 54.6322 150.11C54.7052 150.118 54.7862 150.118 54.8673 150.127C56.0754 150.256 57.2997 150.362 58.5321 150.443C58.7429 150.459 58.9618 150.459 59.1727 150.475C60.1943 150.54 61.2321 150.581 62.2699 150.613C62.4077 150.613 62.5456 150.629 62.6915 150.629C63.478 150.646 64.2645 150.654 65.0509 150.654C66.105 150.654 67.1509 150.637 68.1887 150.597C68.5293 150.589 68.8698 150.564 69.2103 150.548C69.7536 150.524 70.2887 150.508 70.8319 150.475C71.0184 150.467 71.1968 150.451 71.3832 150.435C71.6103 150.418 71.8454 150.402 72.0724 150.386C72.9562 150.321 73.8319 150.248 74.7075 150.159C74.8048 150.151 74.9021 150.143 74.9913 150.135C75.9399 150.037 76.8724 149.924 77.8048 149.794C78.0318 149.762 78.2507 149.729 78.4777 149.705C78.7372 149.664 79.0047 149.632 79.2642 149.6C79.7426 149.527 80.2209 149.446 80.6993 149.364C80.9507 149.324 81.202 149.283 81.4534 149.243C82.3939 149.081 83.3182 148.902 84.2425 148.716C84.429 148.675 84.6073 148.635 84.7938 148.594C85.5317 148.44 86.2695 148.27 86.9992 148.091C87.2992 148.019 87.5911 147.946 87.883 147.873C88.183 147.8 88.4911 147.727 88.791 147.646C88.9938 147.597 89.1802 147.532 89.3748 147.475C90.1937 147.256 90.9964 147.021 91.7991 146.778C92.1315 146.681 92.4559 146.583 92.7883 146.478C93.891 146.129 94.9774 145.765 96.0396 145.375C96.145 145.335 96.2423 145.294 96.3477 145.254C97.3125 144.897 98.2531 144.524 99.1855 144.143C99.5098 144.005 99.8341 143.867 100.15 143.729C100.864 143.421 101.577 143.105 102.275 142.773C102.461 142.683 102.656 142.602 102.842 142.513C103.069 142.4 103.296 142.286 103.523 142.173C103.734 142.067 103.937 141.97 104.148 141.865C104.869 141.5 105.583 141.127 106.272 140.746C106.288 140.738 106.312 140.721 106.329 140.713C107.042 140.316 107.739 139.911 108.429 139.497C108.615 139.384 108.81 139.27 108.996 139.148C109.547 138.808 110.083 138.467 110.618 138.119C110.764 138.021 110.91 137.932 111.047 137.835C111.696 137.397 112.328 136.951 112.945 136.497C113.083 136.392 113.22 136.286 113.358 136.181C113.853 135.808 114.339 135.435 114.818 135.054C114.98 134.924 115.142 134.794 115.304 134.665C115.418 134.576 115.531 134.486 115.637 134.397C116.091 134.016 116.537 133.635 116.974 133.238C117.047 133.173 117.12 133.1 117.201 133.027C117.688 132.589 118.166 132.135 118.628 131.681C118.742 131.567 118.855 131.454 118.969 131.34C119.472 130.838 119.966 130.327 120.445 129.8C120.534 129.703 120.615 129.605 120.704 129.508C121.118 129.046 121.523 128.576 121.912 128.105C122.001 128 122.09 127.895 122.18 127.781C122.609 127.246 123.031 126.703 123.428 126.151C123.517 126.03 123.599 125.916 123.68 125.795C123.834 125.584 123.988 125.365 124.134 125.154C124.288 124.927 124.434 124.692 124.58 124.465C124.701 124.278 124.823 124.092 124.936 123.905C125.277 123.362 125.601 122.819 125.901 122.268C125.934 122.219 125.966 122.162 125.99 122.114C126.323 121.514 126.623 120.897 126.915 120.281C127.004 120.095 127.077 119.916 127.158 119.73C127.28 119.454 127.409 119.178 127.531 118.903C127.612 118.708 127.685 118.506 127.766 118.303C127.823 118.157 127.88 118.011 127.936 117.873C128.163 117.265 128.382 116.649 128.569 116.033C128.601 115.935 128.626 115.846 128.65 115.749C128.812 115.197 128.958 114.646 129.096 114.087C129.128 113.941 129.169 113.795 129.201 113.649C129.225 113.543 129.25 113.438 129.274 113.341C129.38 112.822 129.477 112.303 129.558 111.776C129.574 111.662 129.59 111.549 129.607 111.427C129.696 110.819 129.769 110.211 129.817 109.595C129.817 109.53 129.834 109.465 129.834 109.392C129.866 108.906 129.898 108.427 129.907 107.941C129.907 107.698 129.915 107.454 129.915 107.211V59.0093C129.915 59.739 129.882 60.4687 129.834 61.1903L129.85 61.2309Z" fill="#F08215"/>
<path d="M110.894 -0.000488281C116.326 -0.000488281 121.612 0.948143 126.258 2.68325C123.129 8.20477 116.561 12.8182 107.61 14.9992C104.059 15.8668 100.426 16.2803 96.8506 16.2803C91.4264 16.2803 86.14 15.3317 81.4941 13.5885C84.6238 8.06694 91.1994 3.4535 100.142 1.27246C103.694 0.40491 107.326 -0.000488281 110.894 -0.000488281Z" fill="url(#paint1_linear_4710_12147)"/>
<path d="M65.0669 15.6479C100.888 15.6479 129.931 35.0746 129.931 59.0499C129.931 83.0251 100.888 102.452 65.0669 102.452C29.2459 102.452 0.203125 83.0251 0.203125 59.0499C0.203125 35.0746 29.2459 15.6479 65.0669 15.6479Z" fill="url(#paint2_linear_4710_12147)"/>
<path d="M76.3857 37.1097V38.9178L79.1343 31.5395V29.7314L76.3857 37.1097Z" fill="#808080"/>
<path d="M82.8972 48.0312C82.8972 47.9663 82.8972 47.9015 82.8972 47.8285C82.8972 47.8042 82.8972 47.7718 82.8972 47.7393C82.8972 47.6907 82.8972 47.6339 82.881 47.5772C82.881 47.5528 82.8729 47.5285 82.8729 47.5042C82.8648 47.4312 82.8566 47.3664 82.8404 47.2853C82.8404 47.2447 82.8242 47.2042 82.8161 47.1637C82.7999 47.0907 82.7918 47.0258 82.7675 46.9528C82.7594 46.9042 82.7431 46.8556 82.7269 46.8069C82.7026 46.7339 82.6864 46.6691 82.6621 46.588C82.6458 46.5393 82.6215 46.4826 82.6053 46.4258C82.581 46.3529 82.5486 46.2799 82.5161 46.1988C82.5161 46.1826 82.508 46.1664 82.4999 46.1502C82.4918 46.1258 82.4756 46.1015 82.4594 46.0772C82.3945 45.9394 82.3296 45.8015 82.2486 45.6637C82.2242 45.615 82.1999 45.5745 82.1756 45.5258C82.0702 45.3475 81.9486 45.1691 81.8188 44.9907C81.8188 44.9907 81.8107 44.9745 81.8026 44.9664C81.7864 44.9421 81.754 44.9096 81.7377 44.8853C81.6323 44.7556 81.5188 44.6178 81.3972 44.488C81.3486 44.4313 81.2918 44.3826 81.2432 44.3259C81.1215 44.2042 80.9999 44.0907 80.8621 43.9691C80.8215 43.9367 80.7891 43.8961 80.7486 43.8637C80.7161 43.8394 80.6837 43.8151 80.6513 43.7907C80.6026 43.7502 80.5459 43.7097 80.4891 43.661C80.3756 43.5718 80.254 43.4826 80.1243 43.3935C80.0675 43.3529 80.0108 43.3124 79.9459 43.2718C79.7837 43.1664 79.6135 43.0529 79.4351 42.9475C79.4027 42.9313 79.3783 42.9151 79.354 42.8989C79.1675 42.7935 78.9729 42.6799 78.7621 42.5745C78.7459 42.5664 78.7216 42.5583 78.6973 42.5421C78.4135 42.3962 78.1135 42.2583 77.7892 42.1286C76.5 41.6016 74.6271 41.18 72.9811 40.9043C72.3568 40.7989 71.7568 40.7259 71.1731 40.6692C71.0109 40.653 70.8569 40.6449 70.7028 40.6286C70.5325 40.6124 70.3542 40.5962 70.192 40.5881C69.8028 40.5638 69.4299 40.5557 69.0569 40.5557C68.4812 40.5557 67.9299 40.5881 67.4029 40.6367C67.3461 40.6367 67.2894 40.6449 67.2326 40.653C67.1921 40.653 67.1596 40.653 67.1191 40.6611C66.6083 40.7178 66.1218 40.807 65.6515 40.9124C65.5624 40.9367 65.4732 40.953 65.384 40.9773C65.3353 40.9854 65.3029 41.0097 65.2624 41.0178C64.9462 41.107 64.6462 41.2043 64.3705 41.3097C64.3462 41.3178 64.3218 41.3259 64.2975 41.334C64.2975 41.334 64.2894 41.334 64.2813 41.3421C63.9813 41.4638 63.7137 41.6097 63.4705 41.7637C63.4381 41.78 63.4056 41.7962 63.3813 41.8124C63.3408 41.8367 63.3083 41.8692 63.2759 41.8935C63.1705 41.9664 63.0651 42.0475 62.9678 42.1205C62.9029 42.1773 62.83 42.2259 62.7732 42.2908C62.6759 42.38 62.5948 42.4691 62.5057 42.5583C62.4489 42.6151 62.4002 42.6718 62.3516 42.7367C62.2705 42.8421 62.1894 42.9556 62.1165 43.0691C62.084 43.1259 62.0435 43.1745 62.0111 43.2313C61.9138 43.4016 61.8246 43.588 61.7516 43.7745C61.63 44.0988 61.5732 44.4151 61.5732 44.7313V46.5393C61.5732 46.2231 61.63 45.9069 61.7516 45.5826C61.8246 45.388 61.9057 45.2096 62.0111 45.0394C62.0435 44.9826 62.084 44.934 62.1165 44.8772C62.1894 44.7637 62.2624 44.6502 62.3516 44.5448C62.4002 44.4799 62.457 44.4232 62.5057 44.3664C62.5867 44.2772 62.6759 44.1799 62.7732 44.0988C62.8381 44.0421 62.9029 43.9853 62.9678 43.9286C63.0651 43.8475 63.1705 43.7745 63.2759 43.7016C63.3408 43.661 63.4056 43.6124 63.4786 43.5718C63.73 43.4178 63.9975 43.2799 64.2894 43.1502C64.3218 43.134 64.3543 43.1259 64.3786 43.1178C64.6543 43.0043 64.9543 42.907 65.2705 42.8259C65.4002 42.7935 65.5218 42.7529 65.6597 42.7205C66.1623 42.607 66.6894 42.5178 67.2407 42.461C67.2975 42.461 67.3542 42.4529 67.411 42.4448C67.9461 42.3962 68.4893 42.3637 69.065 42.3637C69.592 42.3637 70.1515 42.3962 70.7109 42.4367C70.865 42.4529 71.0271 42.461 71.1812 42.4773C71.7731 42.534 72.3649 42.607 72.9893 42.7124C74.6352 42.9881 76.5081 43.4097 77.7973 43.9367C78.1216 44.0664 78.4216 44.2124 78.7054 44.3502C78.9324 44.4637 79.1513 44.5772 79.3621 44.6988C79.3946 44.7151 79.4189 44.7313 79.4432 44.7475C79.6216 44.8529 79.7918 44.9583 79.954 45.0718C80.0189 45.1123 80.0756 45.1529 80.1324 45.1934C80.2621 45.2826 80.3756 45.3718 80.4972 45.461C80.554 45.5015 80.6026 45.5421 80.6594 45.5907C80.7324 45.6475 80.7972 45.7123 80.8621 45.7691C80.9999 45.8907 81.1215 46.0042 81.2432 46.1258C81.2999 46.1826 81.3486 46.2312 81.3972 46.288C81.5188 46.4177 81.6323 46.5556 81.7377 46.6853C81.7621 46.7177 81.7945 46.7501 81.8188 46.7907C81.9567 46.9691 82.0702 47.1474 82.1756 47.3258C82.1999 47.3745 82.2242 47.415 82.2486 47.4555C82.3296 47.5934 82.4026 47.7393 82.4594 47.869C82.4756 47.9096 82.4999 47.9501 82.5161 47.9907C82.5486 48.0636 82.5729 48.1366 82.6053 48.2096C82.6215 48.2663 82.6458 48.3231 82.6621 48.3717C82.6864 48.4447 82.7107 48.5177 82.7269 48.5825C82.7431 48.6312 82.7594 48.6798 82.7675 48.7285C82.7837 48.8015 82.7999 48.8744 82.8161 48.9393C82.8161 48.9798 82.8323 49.0204 82.8404 49.0609C82.8566 49.1339 82.8648 49.1988 82.8729 49.2717C82.8729 49.3042 82.881 49.3285 82.8891 49.3609C82.8891 49.4177 82.8972 49.4582 82.9053 49.5069C82.9053 49.5393 82.9053 49.5798 82.9134 49.6042C82.9134 49.6528 82.9134 49.6852 82.9134 49.7258C82.9134 49.7501 82.9134 49.7825 82.9134 49.8069V47.9988L82.8972 48.0312Z" fill="#919191"/>
<path d="M83.1079 48.3797V50.1877L82.8809 50.1472V48.3391L83.1079 48.3797Z" fill="#AFAFAF"/>
<path d="M88.8408 49.3366V51.1447L91.5002 44.0178V42.2097L88.8408 49.3366Z" fill="#808080"/>
<path d="M83.1074 48.3796V50.1877L88.8398 51.1445V49.3364L83.1074 48.3796Z" fill="#AFAFAF"/>
<path d="M70.5894 65.155C70.5894 65.155 70.6219 65.2198 70.6381 65.2523C70.7192 65.4306 70.784 65.609 70.8327 65.7955C70.8408 65.836 70.8489 65.8685 70.857 65.909C70.8975 66.0955 70.9219 66.282 70.9219 66.4684V64.6604C70.9219 64.555 70.9219 64.4496 70.9056 64.3442C70.8975 64.2631 70.8732 64.182 70.857 64.1009C70.857 64.0604 70.8408 64.0279 70.8327 63.9874C70.7921 63.8252 70.7435 63.6712 70.6786 63.5171C70.6705 63.4928 70.6543 63.4685 70.6381 63.4442C70.6219 63.4117 70.6057 63.3793 70.5894 63.3469C70.5003 63.1766 70.3948 63.0063 70.2732 62.8361C70.2651 62.8199 70.257 62.8117 70.2489 62.7955C70.2489 62.7955 70.2489 62.7874 70.2408 62.7793C70.0949 62.5928 69.9246 62.4063 69.7381 62.2199C69.5516 62.0415 69.3489 61.8631 69.1381 61.6847C69.0733 61.6361 69.0003 61.5793 68.9435 61.5307C68.83 61.4415 68.7084 61.3442 68.5868 61.255C68.376 61.0929 68.1571 60.9307 67.93 60.7685C67.8003 60.6794 67.6706 60.5821 67.5327 60.4929C67.2814 60.3226 67.0057 60.1523 66.7301 59.9821C66.6003 59.901 66.4787 59.8199 66.3409 59.7469C65.9193 59.5037 65.4814 59.2524 65.0112 59.0091C64.4679 58.7253 63.9166 58.4416 63.3571 58.1578C63.3247 58.1416 63.2923 58.1253 63.2679 58.1091C63.1869 58.0686 63.0896 58.0199 63.0085 57.9794C62.4328 57.6875 61.849 57.3956 61.2491 57.1037C61.0626 57.0146 60.868 56.9173 60.6734 56.8281C59.9599 56.4794 59.2383 56.1389 58.4924 55.7902C57.9167 55.5227 57.3572 55.247 56.8059 54.9713C56.0519 54.5903 55.3303 54.193 54.6168 53.7876C54.4465 53.6903 54.2681 53.5849 54.0978 53.4876C53.3924 53.0741 52.7033 52.6606 52.0384 52.2227C51.7384 52.0282 51.4628 51.8336 51.1871 51.6309C51.106 51.5741 51.033 51.5092 50.9519 51.4525C50.7492 51.2984 50.5628 51.1444 50.3763 50.9903C50.3114 50.9336 50.2466 50.8849 50.1817 50.8282C49.8493 50.5444 49.5412 50.2525 49.2574 49.9606C49.2087 49.912 49.1601 49.8633 49.1196 49.8147C48.8439 49.5228 48.5844 49.2228 48.3412 48.9147C48.3006 48.8579 48.2601 48.8012 48.2196 48.7525C48.025 48.485 47.8304 48.2174 47.6682 47.9498C47.5304 47.7309 47.4169 47.5039 47.3115 47.2769C47.2061 47.0418 47.125 46.7985 47.052 46.5553C47.0277 46.4742 47.0196 46.385 47.0034 46.3039C46.9628 46.1337 46.9304 45.9715 46.9061 45.8012C46.8736 45.5742 46.8574 45.3472 46.8574 45.1121V46.9201C46.8574 47.1309 46.8655 47.3499 46.8899 47.5526C46.8899 47.5688 46.8899 47.585 46.898 47.6012C46.9223 47.7715 46.9547 47.9336 46.9953 48.1039C47.0115 48.185 47.0277 48.2742 47.0439 48.3552C47.1088 48.5985 47.198 48.8417 47.3034 49.0769C47.4007 49.3039 47.5223 49.5309 47.6601 49.7498C47.8304 50.0255 48.0169 50.293 48.2115 50.5525C48.2358 50.5849 48.252 50.6174 48.2763 50.6498C48.2925 50.6741 48.3169 50.6903 48.3331 50.7147C48.5682 51.0228 48.8277 51.3228 49.1114 51.6146C49.1601 51.6633 49.2006 51.7119 49.2493 51.7606C49.5331 52.0525 49.8412 52.3444 50.1736 52.6281C50.1898 52.6444 50.206 52.6606 50.2303 52.6768C50.279 52.7173 50.3276 52.7498 50.3682 52.7903C50.5547 52.9444 50.7493 53.0984 50.9438 53.2525C51.0249 53.3092 51.0979 53.3741 51.179 53.4308C51.4546 53.6335 51.7303 53.8281 52.0303 54.0227C52.6952 54.4524 53.3843 54.8741 54.0897 55.2876C54.26 55.3849 54.4384 55.4903 54.6086 55.5876C55.3221 55.9929 56.0438 56.3902 56.7978 56.7713C56.7978 56.7713 56.814 56.7713 56.814 56.7794C57.3572 57.0551 57.9167 57.3227 58.4843 57.5902C59.2302 57.9389 59.9518 58.2794 60.6653 58.628C60.8599 58.7172 61.0464 58.8145 61.241 58.9037C61.8328 59.1956 62.4247 59.4875 62.9923 59.7713C63.1139 59.828 63.2355 59.8929 63.3571 59.9496C63.9166 60.2334 64.4679 60.5172 65.0112 60.801C65.4814 61.0442 65.9193 61.2956 66.3409 61.5388C66.4787 61.6199 66.6003 61.701 66.7301 61.7739C67.0057 61.9442 67.2814 62.1145 67.5327 62.2847C67.6706 62.3739 67.8003 62.4712 67.93 62.5604C68.1571 62.7226 68.376 62.8847 68.5868 63.0469C68.7084 63.1361 68.83 63.2334 68.9435 63.3225C69.2273 63.5577 69.4949 63.7847 69.7381 64.0198C69.9327 64.2063 70.103 64.4009 70.2489 64.5955C70.257 64.6117 70.2651 64.6198 70.2732 64.636C70.3948 64.8063 70.5003 64.9766 70.5894 65.1468V65.155Z" fill="#858585"/>
<path d="M46.6946 70.7007C43.0622 69.4764 41.3028 68.6089 39.5596 67.7981V69.6062C41.3028 70.4251 43.0622 71.2845 46.6946 72.5088C49.7756 73.5466 52.2729 74.2682 55.7674 74.9331V73.125C52.281 72.4602 49.7756 71.7467 46.6946 70.7007Z" fill="#98989A"/>
<path d="M85.2235 66.5256C85.1262 66.7851 85.0127 67.0445 84.891 67.2878C84.8505 67.3689 84.81 67.4418 84.7694 67.5148C84.6802 67.6851 84.5829 67.8553 84.4775 68.0175C84.4289 68.0986 84.3721 68.1797 84.3235 68.2607C84.2181 68.4229 84.0965 68.5851 83.9748 68.7391C83.9262 68.804 83.8694 68.8769 83.8208 68.9418C83.6424 69.1607 83.4559 69.3715 83.2532 69.5742C83.237 69.5904 83.2289 69.5986 83.2127 69.6067C83.0181 69.8013 82.8154 69.9796 82.6046 70.1661C82.5316 70.2229 82.4587 70.2877 82.3857 70.3445C82.2235 70.4742 82.0532 70.6039 81.8749 70.7256C81.7857 70.7904 81.6965 70.8472 81.6073 70.9039C81.4208 71.0256 81.2343 71.1391 81.0398 71.2607C80.9506 71.3093 80.8695 71.3661 80.7803 71.4147C80.4965 71.5769 80.1965 71.731 79.8884 71.8769C79.5803 72.0228 79.2722 72.1526 78.9479 72.2823C78.5182 72.4607 78.0804 72.6228 77.6263 72.7688C77.5209 72.8012 77.4074 72.8336 77.302 72.8742C76.9371 72.9877 76.5723 73.0931 76.1912 73.1985C76.0534 73.239 75.9155 73.2715 75.7777 73.3039C75.2182 73.4417 74.6426 73.5715 74.0507 73.6769C73.9777 73.6931 73.9047 73.7012 73.8318 73.7093C73.2804 73.8066 72.7129 73.8877 72.1372 73.9606C71.9994 73.9769 71.8615 73.9931 71.7156 74.0093C71.1724 74.066 70.6129 74.1228 70.0454 74.1633C69.0967 74.2282 68.14 74.2525 67.167 74.2525C66.2995 74.2525 65.4157 74.2201 64.5238 74.1796C63.8914 74.1471 63.259 74.1066 62.6104 74.0579V75.866C63.1617 75.9147 63.713 75.9471 64.2644 75.9795C64.3536 75.9795 64.4346 75.9795 64.5238 75.9795C65.4157 76.0282 66.2995 76.0525 67.167 76.0525C68.14 76.0525 69.0967 76.0201 70.0454 75.9633C70.621 75.9228 71.1724 75.8741 71.7156 75.8093C71.7723 75.8093 71.8372 75.8012 71.894 75.793C71.975 75.7849 72.048 75.7687 72.1372 75.7606C72.7129 75.6876 73.2804 75.6066 73.8318 75.5093C73.9047 75.493 73.9777 75.4849 74.0507 75.4768C74.6426 75.3714 75.2182 75.2417 75.7777 75.1039C75.8426 75.0876 75.9074 75.0795 75.9642 75.0633C76.0453 75.0471 76.1101 75.0147 76.1912 74.9985C76.5723 74.9012 76.9371 74.7877 77.302 74.6741C77.4074 74.6417 77.5209 74.6093 77.6263 74.5687C78.0804 74.4147 78.5182 74.2525 78.9479 74.0823C78.9722 74.0742 78.9966 74.066 79.0209 74.0579C79.3128 73.9363 79.6046 73.8066 79.8884 73.6769C80.1965 73.5309 80.4965 73.3769 80.7803 73.2147C80.8695 73.1661 80.9587 73.1093 81.0398 73.0607C81.1695 72.9877 81.2992 72.9147 81.4208 72.8336C81.4857 72.7931 81.5424 72.7444 81.6073 72.7039C81.6965 72.6472 81.7857 72.5823 81.8749 72.5255C82.0532 72.4039 82.2235 72.2742 82.3857 72.1445C82.4587 72.0877 82.5397 72.031 82.6046 71.9661C82.8154 71.7877 83.0262 71.6012 83.2127 71.4066C83.2289 71.3904 83.237 71.3823 83.2532 71.3742C83.4559 71.1715 83.6424 70.9607 83.8208 70.7418C83.8775 70.6769 83.9262 70.6039 83.9748 70.5391C84.0965 70.385 84.21 70.2229 84.3235 70.0607C84.3802 69.9796 84.4289 69.8986 84.4775 69.8175C84.5829 69.6553 84.6721 69.485 84.7694 69.3148C84.81 69.2418 84.8505 69.1607 84.891 69.0878C85.0127 68.8364 85.1262 68.5851 85.2235 68.3256C85.5316 67.4905 85.6856 66.6959 85.6856 65.9419V64.1338C85.6856 64.8878 85.5316 65.6824 85.2235 66.5175V66.5256Z" fill="#98989A"/>
<path d="M59.8867 81.4038V83.2119L62.6191 75.8823V74.0742L59.8867 81.4038Z" fill="#808080"/>
<path d="M53.1006 80.2683V82.0764L59.8869 83.2115V81.4034L53.1006 80.2683Z" fill="#AFAFAF"/>
<path d="M72.3563 28.6045L79.1346 29.7315L76.386 37.1178C78.7778 37.661 81.3075 38.3421 83.3426 39.0151C86.8858 40.1907 91.2722 42.1123 91.4992 42.2096L88.8398 49.3365L83.1075 48.3798L82.8804 48.3392C82.9048 48.1446 83.3345 44.4312 77.7643 42.1366C76.4751 41.6096 74.6022 41.188 72.9563 40.9123C71.5536 40.6772 70.2482 40.5556 69.0239 40.5556C67.7996 40.5556 66.6564 40.6772 65.6105 40.9123C63.5348 41.3826 62.2213 42.3393 61.6943 43.7745C61.2565 44.9501 61.6132 46.0528 62.7484 47.1068C63.8916 48.1528 65.4807 49.1987 67.4996 50.2446C69.5185 51.2824 71.6996 52.3608 74.0265 53.4635C76.3535 54.5743 78.4859 55.7661 80.4237 57.031C82.3615 58.2958 83.8291 59.6985 84.8263 61.2471C85.8155 62.7957 85.9534 64.5471 85.2236 66.5092C84.3723 68.8119 82.5885 70.5956 79.8886 71.8686C77.1805 73.1415 73.9049 73.9037 70.0455 74.1631C69.0969 74.228 68.1402 74.2523 67.1672 74.2523C65.6834 74.2523 64.1672 74.1793 62.6186 74.0496L59.8862 81.3873L53.0999 80.2522L55.7674 73.101C52.281 72.4361 49.7756 71.7226 46.6946 70.6767C43.0622 69.4524 41.3028 68.5848 39.5596 67.774L42.1379 60.866L48.081 61.8552C48.081 61.8552 48.1783 62.1147 48.3081 62.512C49.0864 64.8876 51.6486 66.947 55.1917 67.9767C56.3998 68.3254 57.5998 68.6254 58.6214 68.7956C60.0971 69.0389 61.4916 69.1605 62.8132 69.1605C64.1348 69.1605 65.2699 69.047 66.3969 68.82C68.6834 68.3578 70.1266 67.3443 70.7185 65.7551C71.1888 64.4741 70.8725 63.2822 69.7374 62.1958C68.6023 61.1093 67.0375 60.0309 65.0186 58.9769C63.0078 57.9147 60.8268 56.8445 58.4917 55.758C56.1566 54.6716 54.008 53.4797 52.0377 52.1905C50.0756 50.9014 48.6162 49.4744 47.6594 47.9095C46.7108 46.3447 46.5973 44.5853 47.327 42.6231C48.0973 40.5475 49.6864 38.934 52.0945 37.7665C54.5026 36.607 57.462 35.8935 60.9889 35.6422C61.9213 35.5773 62.87 35.5449 63.8429 35.5449C65.6916 35.5449 67.6212 35.6665 69.6239 35.8935L72.3563 28.572V28.6045Z" fill="white"/>
<defs>
<linearGradient id="paint0_linear_4710_12147" x1="103.917" y1="2.68311" x2="103.917" y2="64.482" gradientUnits="userSpaceOnUse">
<stop offset="0.173077" stop-color="#E27407"/>
<stop offset="1" stop-color="#B95F06"/>
</linearGradient>
<linearGradient id="paint1_linear_4710_12147" x1="103.88" y1="16.2722" x2="103.88" y2="-0.000488281" gradientUnits="userSpaceOnUse">
<stop offset="0.14" stop-color="#F7931A"/>
<stop offset="1" stop-color="#FB8826"/>
</linearGradient>
<linearGradient id="paint2_linear_4710_12147" x1="65.0669" y1="102.452" x2="65.0669" y2="15.6479" gradientUnits="userSpaceOnUse">
<stop offset="0.302885" stop-color="#FFA126"/>
<stop offset="0.894231" stop-color="#F78819"/>
</linearGradient>
</defs>
</svg>
