<svg width="84" height="27" viewBox="0 0 84 27" fill="none" xmlns="http://www.w3.org/2000/svg">
<path d="M7.05708 4.26855C-0.727316 0.879095 -0.402965 8.9392 1.04039 12.7098C3.89467 20.1698 11.8737 21.9294 13.6414 18.1426C13.0332 17.7696 12.2305 17.275 11.6223 16.902C10.6412 19.3103 5.15153 18.7589 2.82432 13.2368C1.17824 9.34463 1.73775 3.65229 6.84626 5.793C9.91137 7.07418 11.2736 9.51491 11.5412 10.3501C12.1494 10.4069 12.9603 10.488 13.5684 10.5528C12.6927 8.16886 10.0168 5.59029 7.04898 4.27667" fill="white"/>
<path d="M37.5371 6.73371C36.71 6.68505 35.8829 6.62829 35.0558 6.55531C35.0558 16.1399 34.7098 21.3159 34.0179 22.0836C31.3177 25.0595 24.9685 23.981 22.0169 20.9646C20.8169 19.7401 20.1925 18.3535 20.1682 16.8291V4.09025C19.3654 3.88753 18.5707 3.6767 17.7842 3.45776V16.3264C17.9382 24.4838 31.1555 28.3111 35.9559 23.4377C37.3101 22.0592 37.5128 20.6645 37.529 19.6023V6.73371" fill="white"/>
<path d="M51.8654 6.23072C42.962 7.11457 41.7619 12.3285 44.527 14.7125C45.6379 15.6693 47.4056 16.3423 49.7733 16.7153C55.8549 17.5019 56.6333 17.6073 57.6226 18.5155C58.4821 19.302 58.5794 21.3292 56.5117 22.9347C53.2844 25.4322 45.719 25.4971 45.1027 21.4346C44.4378 21.4508 43.7729 21.4589 43.108 21.4589C42.9133 21.4589 42.7187 21.4589 42.5322 21.4589C43.3755 28.8785 56.2685 26.7215 59.3741 22.7888C60.2012 21.7428 63.8258 16.4558 53.6088 15.4017C49.8463 14.9395 47.7786 14.6881 46.3758 13.4394C45.5081 12.661 45.2487 10.8527 47.0245 9.49854C49.7571 7.41459 57.201 6.77401 57.8578 10.6743C58.6443 10.5527 59.4309 10.4148 60.2093 10.2689C59.966 7.29297 56.8442 5.78474 51.8573 6.24694" fill="white"/>
<path d="M68.0503 5.2092C69.737 4.73889 71.3911 4.21993 73.0048 3.65232C85.2409 -0.515576 79.8972 13.7964 79.8161 13.9504C77.716 18.1264 73.8724 19.4968 72.6075 19.9428C71.1154 20.4536 69.591 20.924 68.0422 21.3618V5.2092M73.1426 1.94137C71.6182 2.43601 69.591 3.10093 68.0584 3.5388C67.3043 3.74963 66.534 3.95235 65.7637 4.14696C65.7637 5.95521 65.7637 8.3635 65.7637 10.1718V23.6242L67.0286 23.2998C68.9747 22.7809 70.8884 22.197 72.7534 21.5564C84.3733 17.3885 85.3787 3.75774 80.3189 1.39809C78.0079 0.319626 74.8455 1.37376 73.1426 1.94137Z" fill="white"/>
</svg>
