<svg width="212" height="132" viewBox="0 0 212 132" fill="none" xmlns="http://www.w3.org/2000/svg">
<path d="M58.7253 81.3429C45.5904 77.0781 46.0363 89.8238 49.1093 95.9697C54.1524 106.048 67.5711 107.913 69.8657 100.843C69.9305 100.632 69.9792 100.437 70.0116 100.307C69.0792 100.08 68.1468 99.8453 67.2306 99.6021C65.5522 105.124 55.6281 103.956 51.3552 96.1481C48.566 91.0482 48.2174 80.3213 58.0929 83.1429C62.6415 84.4402 66.3144 87.6996 67.2306 91.2428C68.1468 91.486 69.0792 91.7211 70.0116 91.9481C69.0062 87.4563 64.5793 83.2888 58.7253 81.3429Z" fill="white"/>
<path d="M79.9666 92.5644C79.0261 92.4023 78.0937 92.232 77.1613 92.0617V108.926C78.0856 109.105 79.0261 109.275 79.9666 109.429V92.5644ZM78.5802 86.3294C76.8289 86.0375 76.0829 87.1483 76.8288 88.1618C77.0883 88.5104 77.6964 89.1185 78.8883 89.232C79.3585 89.2807 80.5261 89.0537 80.599 88.5266C80.6396 88.2185 80.6477 87.5537 80.5099 87.4159C80.2099 87.0834 79.5531 86.5078 78.5802 86.3294Z" fill="white"/>
<path d="M91.1323 90.0348C90.2161 89.9456 89.2999 89.8483 88.3919 89.7429V93.7564C87.273 93.6266 86.1541 93.4888 85.0352 93.3347V95.1104C86.1541 95.2644 87.273 95.4023 88.3919 95.532V106.762C88.4973 111.156 93.7026 111.667 96.2079 111.229C96.0377 110.686 95.8106 109.972 95.6404 109.429C93.9782 109.575 91.1972 109.818 91.1405 106.916V95.8158C92.6891 95.9617 94.2458 96.0914 95.7863 96.1969V94.4212C94.2377 94.3158 92.6891 94.1942 91.1405 94.0401V90.0267" fill="white"/>
<path d="M110.754 94.4698C106.067 94.6563 105.183 96.2374 104.543 97.3806C104.478 97.3806 104.413 97.3806 104.348 97.3806V94.7617C103.465 94.7536 102.589 94.7374 101.705 94.7131V111.578C102.613 111.602 103.521 111.618 104.421 111.634V100.818C104.494 96.9104 109.091 96.0996 112.164 96.5131V94.4618C111.816 94.4618 111.329 94.4536 110.754 94.4698Z" fill="white"/>
<path d="M118.828 101.54C119.371 95.532 128.193 93.0509 131.379 96.7319C132.409 97.9238 132.547 99.2697 132.596 99.7805C128.087 100.567 123.49 101.159 118.828 101.54ZM125.915 93.2779C115.463 94.7374 113.509 104.905 118.853 109.048C123.409 112.575 132.312 110.515 134.736 105.367C133.982 105.318 132.977 105.253 132.223 105.197C129.92 109.721 120.912 110.532 119.136 105.18C118.869 104.37 118.836 103.648 118.82 103.299C127.998 102.343 128.542 102.286 135.255 101.054V100.162C135.166 92.6536 128.079 92.9942 125.915 93.2779Z" fill="white"/>
<path d="M147.985 104.353C143.688 105.562 142.618 102.935 143.672 101.054C143.931 100.591 144.628 99.3509 148.853 97.6969C150.15 97.1861 153.255 95.9131 154.034 95.0212V97.4212C153.993 99.9266 152.08 103.162 147.985 104.353ZM149.25 88.3322C147.012 89.0213 143.007 90.7078 141.345 94.2672C142.074 94.2834 143.055 94.3077 143.785 94.3239C145.472 90.8375 152.696 87.9835 153.855 91.1456C154.017 91.5997 154.026 92.0456 154.034 92.2645V92.6537C153.961 93.8861 152.647 94.4131 148.763 95.978C145.228 97.405 139.318 99.7887 140.98 104.426C142.196 107.824 148.228 107.11 151.674 104.11C152.015 103.81 153.199 102.716 153.888 101.264C153.944 101.248 154.001 101.224 154.066 101.208V103.883C154.861 103.616 155.647 103.332 156.426 103.048V91.5916C156.369 87.1241 152.493 87.3511 149.258 88.3322" fill="white"/>
</svg>
