<svg width="212" height="203" viewBox="0 0 212 203" fill="none" xmlns="http://www.w3.org/2000/svg">
<path d="M211.438 72.901C211.421 73.2659 211.405 73.6307 211.389 73.9956C211.373 74.3442 211.348 74.6929 211.316 75.0415C211.284 75.4064 211.251 75.7793 211.211 76.1442C211.178 76.4928 211.138 76.8415 211.089 77.1901C211.04 77.555 210.992 77.9279 210.935 78.2928C210.878 78.6414 210.829 78.9982 210.765 79.3468C210.7 79.7117 210.627 80.0847 210.554 80.4495C210.481 80.8225 210.408 81.1954 210.319 81.5684C210.262 81.8279 210.205 82.0792 210.14 82.3387C210.043 82.7603 209.929 83.1819 209.816 83.6035C209.751 83.8549 209.686 84.1062 209.613 84.3576C209.484 84.8116 209.346 85.2657 209.208 85.7197C209.143 85.9386 209.078 86.1494 209.005 86.3683C208.786 87.0332 208.559 87.7061 208.308 88.371C207.992 89.2061 207.651 90.0331 207.294 90.8601C207.124 91.2574 206.946 91.6547 206.767 92.0439C206.516 92.5872 206.265 93.1223 205.997 93.6574C205.803 94.0466 205.6 94.4358 205.397 94.8249C205.121 95.352 204.83 95.879 204.53 96.406C204.311 96.7871 204.1 97.16 203.873 97.5411C203.557 98.0681 203.224 98.5951 202.892 99.1141C202.665 99.4708 202.438 99.8276 202.203 100.184C201.667 100.987 201.116 101.782 200.54 102.56C200.524 102.584 200.5 102.609 200.484 102.633C199.908 103.403 199.316 104.165 198.7 104.919C198.513 105.146 198.319 105.382 198.132 105.609C197.646 106.192 197.151 106.768 196.649 107.336C196.462 107.546 196.276 107.757 196.081 107.968C195.4 108.722 194.703 109.46 193.981 110.19C193.9 110.271 193.811 110.36 193.722 110.441C193.073 111.09 192.416 111.73 191.735 112.362C191.508 112.573 191.273 112.792 191.038 113.003C190.454 113.538 189.854 114.065 189.246 114.584C189.035 114.762 188.824 114.949 188.614 115.127C187.819 115.792 187.016 116.449 186.189 117.098C186.141 117.138 186.092 117.179 186.043 117.211C185.176 117.892 184.284 118.549 183.376 119.206C183.092 119.408 182.8 119.611 182.516 119.814C181.884 120.26 181.243 120.706 180.587 121.143C180.238 121.37 179.889 121.597 179.541 121.824C178.917 122.23 178.292 122.627 177.652 123.024C177.295 123.243 176.938 123.462 176.573 123.681C175.884 124.095 175.187 124.5 174.49 124.897C174.181 125.076 173.873 125.254 173.557 125.433C172.544 126 171.514 126.56 170.46 127.095C170.379 127.135 170.29 127.176 170.209 127.216C169.236 127.719 168.246 128.205 167.249 128.676C166.949 128.822 166.641 128.959 166.333 129.097C165.555 129.462 164.776 129.819 163.982 130.168C163.625 130.322 163.276 130.476 162.919 130.63C162.084 130.986 161.241 131.335 160.39 131.676C160.122 131.781 159.855 131.895 159.579 132.008C158.468 132.446 157.349 132.876 156.214 133.281C155.955 133.378 155.695 133.459 155.436 133.557C154.544 133.873 153.644 134.181 152.736 134.481C152.355 134.603 151.982 134.732 151.601 134.854C150.749 135.13 149.898 135.389 149.039 135.649C148.69 135.754 148.349 135.859 148.001 135.957C146.817 136.305 145.625 136.638 144.417 136.954C144.101 137.035 143.777 137.108 143.452 137.189C142.471 137.44 141.482 137.692 140.485 137.919C139.998 138.032 139.496 138.138 139.001 138.243C138.166 138.43 137.339 138.616 136.496 138.786C135.944 138.9 135.385 138.997 134.825 139.103C134.031 139.257 133.244 139.403 132.45 139.54C131.866 139.646 131.274 139.735 130.682 139.832C129.888 139.962 129.093 140.092 128.29 140.205C127.869 140.27 127.447 140.319 127.026 140.384C126.134 140.505 125.234 140.619 124.326 140.724C123.88 140.773 123.434 140.83 122.996 140.878C122.015 140.984 121.026 141.081 120.028 141.17C119.696 141.202 119.372 141.235 119.039 141.259C117.734 141.365 116.428 141.462 115.115 141.535C114.118 141.592 113.112 141.632 112.115 141.665C111.62 141.681 111.126 141.713 110.623 141.73C109.123 141.77 107.615 141.794 106.099 141.794C104.939 141.794 103.78 141.778 102.612 141.754C102.118 141.746 101.615 141.721 101.121 141.705C100.553 141.689 99.9936 141.673 99.426 141.648C98.9152 141.624 98.4044 141.6 97.8936 141.567C97.3342 141.535 96.7666 141.511 96.2072 141.478C95.6964 141.446 95.1775 141.405 94.6666 141.365C94.1072 141.324 93.5396 141.284 92.9802 141.235C92.4613 141.194 91.9505 141.138 91.4316 141.089C90.8721 141.032 90.3127 140.984 89.7532 140.927C89.3884 140.886 89.0316 140.846 88.6667 140.805C87.6451 140.692 86.6317 140.57 85.6101 140.432C85.229 140.384 84.856 140.335 84.4749 140.278C83.1533 140.092 81.8399 139.897 80.5183 139.678C78.8399 139.394 77.1778 139.086 75.54 138.762C75.3697 138.73 75.2075 138.697 75.0454 138.657C73.8292 138.405 72.6211 138.146 71.4211 137.87C71.2752 137.838 71.1373 137.805 70.9914 137.773C69.759 137.481 68.5428 137.181 67.3428 136.865C67.2617 136.84 67.1806 136.824 67.0996 136.8C65.8509 136.467 64.6185 136.127 63.4023 135.77C63.3861 135.77 63.3699 135.762 63.3537 135.754C62.1375 135.397 60.9456 135.024 59.7538 134.635C59.6565 134.603 59.5511 134.57 59.4538 134.538C58.4646 134.213 57.4835 133.873 56.5187 133.532C56.3241 133.468 56.1376 133.395 55.9511 133.33C54.9944 132.989 54.0539 132.632 53.1214 132.276C52.9674 132.219 52.8133 132.154 52.6512 132.089C51.7269 131.724 50.8026 131.351 49.9026 130.97C49.8458 130.946 49.7891 130.922 49.7323 130.897C48.7999 130.5 47.8837 130.095 46.9675 129.689C46.7972 129.616 46.627 129.535 46.4567 129.462C45.5729 129.057 44.7054 128.643 43.8459 128.222C43.6838 128.141 43.5297 128.068 43.3676 127.987C42.4757 127.549 41.6 127.103 40.7325 126.641C40.7163 126.632 40.7 126.624 40.6838 126.616C39.8244 126.162 38.9893 125.7 38.1541 125.23C38.0082 125.149 37.8622 125.068 37.7244 124.987C36.9217 124.524 36.1271 124.062 35.3407 123.584C35.1866 123.495 35.0326 123.397 34.8866 123.3C34.092 122.814 33.3056 122.319 32.5353 121.816C32.4705 121.776 32.4056 121.727 32.3326 121.687C31.5867 121.2 30.8651 120.706 30.1435 120.203C30.03 120.122 29.9164 120.049 29.8029 119.968C29.0732 119.457 28.3597 118.938 27.6543 118.411C27.5165 118.306 27.3705 118.2 27.2327 118.095C26.5273 117.56 25.83 117.025 25.1571 116.481C25.0679 116.408 24.9787 116.335 24.8895 116.262C24.2328 115.735 23.5922 115.2 22.9598 114.657C22.8868 114.592 22.8058 114.527 22.7328 114.462C22.0842 113.903 21.4436 113.327 20.8193 112.752C20.6977 112.638 20.5761 112.525 20.4463 112.411C19.8301 111.835 19.2301 111.26 18.6464 110.676C18.5491 110.579 18.4599 110.481 18.3626 110.392C17.7869 109.808 17.2113 109.225 16.6599 108.633C16.6194 108.592 16.5869 108.552 16.5464 108.511C15.9788 107.903 15.4275 107.279 14.8843 106.663C14.7789 106.541 14.6816 106.427 14.5762 106.306C14.0573 105.698 13.5465 105.082 13.0519 104.465C12.9627 104.352 12.8735 104.238 12.7843 104.125C12.2735 103.476 11.7789 102.828 11.3006 102.171C11.3006 102.171 11.2924 102.155 11.2843 102.146C10.806 101.498 10.3519 100.841 9.90599 100.176C9.82491 100.063 9.75194 99.9411 9.67086 99.8276C9.24113 99.187 8.83573 98.5384 8.43844 97.8898C8.35736 97.76 8.28439 97.6303 8.21142 97.5087C7.81413 96.8438 7.41684 96.1709 7.05198 95.4979C7.01955 95.4411 6.99523 95.3925 6.9628 95.3357C6.60605 94.679 6.26551 94.0223 5.94119 93.3655C5.89254 93.2601 5.83579 93.1547 5.77903 93.0493C5.45472 92.3763 5.1385 91.7034 4.84662 91.0223C4.78986 90.8845 4.725 90.7466 4.66824 90.6169C4.37635 89.9277 4.09258 89.2386 3.83312 88.5494C3.80069 88.4602 3.76826 88.371 3.73583 88.2818C3.48448 87.6089 3.24935 86.944 3.03043 86.2629C3.00611 86.1737 2.97368 86.0927 2.94125 86.0035C2.71422 85.3062 2.51152 84.6008 2.31693 83.8873C2.27639 83.7495 2.24396 83.6035 2.20342 83.4657C2.01694 82.7603 1.84667 82.0549 1.69262 81.3495C1.66829 81.236 1.64397 81.1225 1.61965 81.009C1.4737 80.3117 1.34397 79.6063 1.22236 78.9009C1.21425 78.8441 1.20614 78.7955 1.19803 78.7387C1.08452 78.009 0.987225 77.2793 0.906145 76.5496C0.889929 76.4118 0.873715 76.2739 0.857499 76.1361C0.784528 75.4226 0.727769 74.701 0.68723 73.9794C0.68723 73.8496 0.671013 73.7199 0.671013 73.5821C0.638581 72.828 0.614258 72.074 0.614258 71.3199V131.57C0.614258 132.324 0.638581 133.078 0.671013 133.832C0.671013 133.962 0.679122 134.092 0.68723 134.222C0.727769 134.943 0.784528 135.657 0.857499 136.378C0.873715 136.516 0.889929 136.654 0.906145 136.792C0.987225 137.521 1.08452 138.259 1.19803 138.981C1.20614 139.038 1.21425 139.086 1.22236 139.143C1.33587 139.848 1.4737 140.546 1.61965 141.251C1.64397 141.365 1.66829 141.478 1.69262 141.592C1.84667 142.297 2.01694 143.002 2.20342 143.708C2.24396 143.846 2.27639 143.992 2.31693 144.129C2.51152 144.835 2.71422 145.54 2.94125 146.246C2.96557 146.335 2.998 146.416 3.03043 146.505C3.24935 147.178 3.48448 147.851 3.73583 148.524C3.76826 148.613 3.80069 148.702 3.83312 148.792C4.09258 149.489 4.37635 150.178 4.66824 150.859C4.725 150.997 4.78175 151.135 4.84662 151.264C5.14661 151.946 5.45472 152.619 5.77903 153.291C5.82768 153.397 5.88444 153.502 5.93308 153.608C6.2574 154.273 6.59794 154.929 6.95469 155.578C6.98712 155.635 7.01144 155.683 7.04387 155.74C7.41684 156.413 7.80603 157.086 8.20332 157.751C8.27629 157.881 8.35737 158.002 8.43034 158.132C8.82763 158.781 9.24113 159.429 9.66275 160.07C9.73572 160.183 9.8168 160.297 9.89788 160.418C10.3438 161.083 10.7979 161.74 11.2762 162.389C11.2762 162.389 11.2843 162.405 11.2924 162.405C11.7708 163.062 12.2735 163.71 12.7762 164.359C12.8654 164.472 12.9546 164.586 13.0438 164.699C13.5384 165.316 14.0492 165.932 14.5681 166.54C14.6735 166.662 14.7708 166.775 14.8762 166.897C15.4194 167.521 15.9626 168.137 16.5302 168.745C16.5707 168.786 16.6032 168.826 16.6437 168.867C17.195 169.459 17.7626 170.043 18.3464 170.626C18.4437 170.724 18.5329 170.821 18.6302 170.918C19.2139 171.502 19.822 172.078 20.4301 172.653C20.5517 172.767 20.6734 172.88 20.8031 172.994C21.4274 173.569 22.0598 174.137 22.7166 174.705C22.7976 174.769 22.8706 174.834 22.9517 174.907C23.5841 175.451 24.2247 175.986 24.8733 176.513C24.9625 176.586 25.0517 176.659 25.1409 176.732C25.8219 177.275 26.5111 177.81 27.2165 178.345C27.3543 178.45 27.5003 178.556 27.6381 178.661C28.3435 179.188 29.057 179.707 29.7948 180.218C29.9083 180.299 30.0218 180.372 30.1272 180.453C30.8489 180.956 31.5786 181.45 32.3245 181.937C32.3894 181.977 32.4542 182.026 32.5272 182.067C33.2975 182.569 34.0839 183.064 34.8785 183.55C35.0326 183.648 35.1866 183.737 35.3326 183.834C36.119 184.313 36.9136 184.775 37.7163 185.237C37.8622 185.318 38.0001 185.399 38.146 185.48C38.9812 185.95 39.8163 186.413 40.6757 186.867C40.6919 186.875 40.7081 186.883 40.7244 186.891C41.5919 187.345 42.4676 187.791 43.3595 188.237C43.5216 188.318 43.6757 188.391 43.8378 188.472C44.6973 188.894 45.5648 189.307 46.4486 189.712C46.6189 189.794 46.7891 189.867 46.9594 189.939C47.8675 190.353 48.7918 190.758 49.7242 191.156C49.781 191.18 49.8296 191.196 49.8864 191.221C50.7945 191.602 51.7188 191.975 52.6512 192.339C52.8052 192.396 52.9593 192.461 53.1133 192.518C54.0457 192.883 54.9944 193.231 55.9511 193.58C56.1376 193.645 56.3322 193.718 56.5187 193.783C57.4916 194.131 58.4727 194.464 59.4619 194.788C59.4943 194.796 59.5267 194.812 59.5511 194.82C59.6159 194.845 59.6808 194.861 59.7457 194.885C60.9294 195.275 62.1294 195.647 63.3456 196.004C63.3618 196.004 63.378 196.012 63.3942 196.02C64.6104 196.377 65.8428 196.726 67.0915 197.05C67.1725 197.074 67.2536 197.091 67.3347 197.115C68.5428 197.431 69.759 197.731 70.9914 198.023C71.1292 198.056 71.2671 198.088 71.413 198.12C72.613 198.396 73.8211 198.664 75.0373 198.907C75.1427 198.931 75.24 198.956 75.3454 198.972C75.4021 198.988 75.467 198.996 75.5237 199.004C77.1616 199.337 78.8237 199.645 80.5101 199.928C81.8317 200.147 83.1452 200.342 84.4668 200.528C84.8479 200.585 85.2209 200.634 85.6019 200.683C86.6235 200.82 87.6451 200.942 88.6586 201.055C88.8857 201.08 89.1127 201.112 89.3397 201.137C89.4694 201.153 89.5992 201.161 89.737 201.177C90.3046 201.234 90.864 201.291 91.4235 201.339C91.9343 201.388 92.4532 201.437 92.964 201.485C93.5234 201.534 94.091 201.574 94.6504 201.615C95.1612 201.656 95.6802 201.696 96.191 201.728C96.7504 201.761 97.3179 201.793 97.8774 201.818C98.3882 201.842 98.899 201.874 99.4098 201.899C99.9774 201.923 100.537 201.939 101.104 201.955C101.518 201.972 101.931 201.988 102.337 201.996C102.418 201.996 102.507 201.996 102.588 201.996C103.748 202.02 104.915 202.037 106.075 202.037C107.591 202.037 109.091 202.012 110.599 201.972C111.093 201.955 111.588 201.931 112.091 201.907C113.096 201.866 114.093 201.834 115.091 201.777C115.155 201.777 115.22 201.777 115.293 201.769C116.542 201.696 117.782 201.607 119.015 201.501C119.347 201.477 119.672 201.437 120.004 201.412C121.001 201.323 121.99 201.226 122.972 201.12C123.417 201.072 123.855 201.023 124.301 200.966C125.209 200.861 126.109 200.747 127.001 200.618C127.423 200.561 127.844 200.504 128.266 200.439C128.477 200.407 128.688 200.383 128.898 200.35C129.49 200.261 130.074 200.156 130.658 200.066C131.25 199.969 131.842 199.88 132.425 199.774C133.22 199.637 134.015 199.483 134.801 199.337C135.361 199.231 135.92 199.134 136.471 199.02C137.315 198.85 138.142 198.664 138.977 198.477C139.471 198.372 139.966 198.266 140.46 198.153C141.458 197.918 142.439 197.674 143.428 197.423C143.744 197.342 144.068 197.269 144.393 197.188C144.409 197.188 144.433 197.18 144.45 197.172C145.633 196.864 146.809 196.531 147.977 196.191C148.325 196.085 148.674 195.98 149.014 195.883C149.874 195.623 150.725 195.364 151.576 195.088C151.958 194.966 152.339 194.845 152.712 194.715C153.62 194.415 154.52 194.107 155.412 193.783C155.671 193.693 155.93 193.604 156.19 193.507C157.325 193.093 158.452 192.672 159.563 192.234C159.83 192.129 160.098 192.015 160.365 191.91C161.217 191.569 162.06 191.212 162.903 190.856C163.26 190.702 163.609 190.548 163.965 190.394C164.76 190.045 165.546 189.688 166.325 189.323C166.625 189.185 166.933 189.048 167.233 188.902C167.363 188.845 167.492 188.78 167.622 188.723C168.498 188.302 169.357 187.872 170.209 187.434C170.29 187.394 170.371 187.353 170.444 187.321C171.49 186.777 172.519 186.226 173.541 185.658C173.857 185.48 174.157 185.302 174.473 185.123C175.179 184.718 175.876 184.313 176.565 183.899C176.922 183.68 177.279 183.461 177.635 183.242C178.268 182.845 178.9 182.448 179.525 182.042C179.873 181.815 180.222 181.588 180.571 181.361C181.219 180.923 181.868 180.477 182.5 180.032C182.784 179.829 183.076 179.634 183.36 179.423C184.268 178.767 185.16 178.11 186.027 177.429C186.076 177.388 186.124 177.348 186.173 177.315C186.895 176.748 187.608 176.18 188.306 175.596C188.403 175.515 188.5 175.426 188.597 175.345C188.808 175.167 189.019 174.98 189.23 174.802C189.838 174.283 190.438 173.748 191.022 173.221C191.257 173.01 191.484 172.799 191.719 172.58C192.4 171.948 193.057 171.307 193.705 170.659C193.787 170.578 193.876 170.497 193.957 170.407C194.678 169.678 195.376 168.932 196.057 168.186C196.251 167.975 196.43 167.764 196.616 167.553C197.119 166.986 197.622 166.41 198.1 165.826C198.286 165.599 198.481 165.372 198.668 165.137C199.276 164.383 199.876 163.621 200.451 162.851C200.467 162.826 200.492 162.802 200.508 162.778C200.995 162.113 201.473 161.44 201.935 160.767C202.016 160.645 202.089 160.524 202.17 160.402C202.405 160.045 202.632 159.689 202.859 159.332C203.192 158.805 203.524 158.286 203.84 157.751C204.067 157.378 204.278 156.997 204.497 156.624C204.797 156.097 205.081 155.57 205.365 155.043C205.567 154.654 205.77 154.264 205.965 153.875C206.232 153.34 206.484 152.805 206.735 152.262C206.913 151.864 207.092 151.475 207.262 151.078C207.343 150.883 207.44 150.697 207.521 150.51C207.789 149.878 208.04 149.238 208.275 148.589C208.527 147.924 208.754 147.251 208.973 146.586C209.046 146.367 209.102 146.156 209.175 145.938C209.321 145.484 209.459 145.029 209.589 144.575C209.662 144.324 209.727 144.073 209.792 143.821C209.905 143.4 210.011 142.978 210.116 142.548C210.181 142.289 210.238 142.038 210.294 141.778C210.327 141.616 210.375 141.454 210.408 141.292C210.456 141.081 210.489 140.87 210.529 140.651C210.602 140.286 210.675 139.913 210.74 139.548C210.797 139.2 210.854 138.843 210.911 138.494C210.967 138.13 211.016 137.757 211.065 137.392C211.105 137.043 211.146 136.694 211.186 136.338C211.227 135.973 211.259 135.6 211.292 135.235C211.316 134.886 211.34 134.538 211.365 134.189C211.389 133.824 211.405 133.459 211.413 133.095C211.413 132.932 211.429 132.77 211.438 132.616C211.446 132.235 211.454 131.854 211.454 131.473V71.2227C211.454 71.7659 211.438 72.3091 211.413 72.8524L211.438 72.901Z" fill="#FFBA1A"/>
<path d="M105.987 0.797166C114.427 0.797166 122.997 1.47823 131.559 2.90524C188.031 12.3267 222.401 50.5963 208.317 88.3794C196.374 120.438 153.394 141.843 106.141 141.843C97.7003 141.843 89.122 141.162 80.5681 139.735C24.1124 130.314 -10.2573 92.0442 3.82625 54.2611C15.7693 22.2022 58.7496 0.789062 105.987 0.789062V0.797166Z" fill="url(#paint0_linear_4684_8231)"/>
<defs>
<linearGradient id="paint0_linear_4684_8231" x1="106.068" y1="141.86" x2="106.068" y2="0.797168" gradientUnits="userSpaceOnUse">
<stop offset="0.1" stop-color="#FFDA72"/>
<stop offset="0.83" stop-color="#FFD151"/>
</linearGradient>
</defs>
</svg>
