<svg width="163" height="97" viewBox="0 0 163 97" fill="none" xmlns="http://www.w3.org/2000/svg">
<g opacity="0.8">
<path d="M37.5269 2.51006L65.2318 34.6257C67.2831 37.0013 67.2831 39.8391 65.2318 42.2067C63.1805 44.5742 59.5076 46.0012 55.4131 46.0012H-0.00488281L37.535 2.50195L37.5269 2.51006Z" fill="white"/>
<path d="M118.606 0.175049L90.8851 32.2988C88.8338 34.6744 85.1609 36.0933 81.0744 36.0933C76.988 36.0933 73.307 34.6744 71.2638 32.2988L43.5508 0.175049H118.614H118.606Z" fill="white"/>
<path d="M124.615 2.51001L162.146 46.0092H106.728C102.626 46.0092 98.9528 44.5903 96.9096 42.2147C94.8583 39.8391 94.8583 37.0013 96.9096 34.6338L124.615 2.51812V2.51001Z" fill="white"/>
<path d="M81.0588 60.563C85.1533 60.563 88.8262 61.9819 90.8694 64.3575L118.591 96.4732H43.5352L71.2401 64.3575C73.2914 61.9819 76.9643 60.563 81.0507 60.563H81.0588Z" fill="white"/>
<path d="M162.146 50.647L124.615 94.1462L96.9096 62.0305C94.8583 59.6549 94.8583 56.8252 96.9096 54.4415C98.9609 52.0659 102.634 50.647 106.728 50.647H162.146Z" fill="white"/>
<path d="M55.4212 50.655C59.5238 50.655 63.1886 52.0739 65.2399 54.4496C67.2912 56.8252 67.2912 59.663 65.2399 62.0386L37.535 94.1543L-0.00488281 50.655H55.4131H55.4212Z" fill="white"/>
</g>
</svg>
