<svg width="165" height="49" viewBox="0 0 165 49" fill="none" xmlns="http://www.w3.org/2000/svg">
<path d="M4.0732 29.3777V17.945C7.04341 19.2744 10.1048 20.5278 13.2497 21.7129C21.4007 24.8578 23.2162 32.0668 19.1977 33.7304C17.177 34.566 14.222 33.4949 13.1054 33.0847C10.0136 31.9225 6.99783 30.6843 4.0732 29.3701M4.0732 15.5066V4.52215C12.1153 7.84938 16.6504 10.0751 17.6784 11.1994C20.7626 14.5722 20.2156 18.3704 17.6784 19.396C15.7261 20.186 13.4852 19.3656 12.7483 19.0921C9.77812 17.9678 6.88388 16.7676 4.06561 15.5142M12.5052 5.44891C9.01848 3.9904 4.33908 2.09888 0.913086 0.51123V30.4867C4.84044 32.3479 8.93492 34.0875 13.1813 35.6827C25.0925 40.0431 25.6927 32.082 23.9227 28.185C22.6997 25.4883 20.1093 22.9967 17.3214 21.8344V21.5913C24.2569 22.4269 24.5836 15.7497 21.0968 11.2602C18.4457 7.84178 14.5791 6.2921 12.5052 5.45649" fill="white"/>
<path d="M37.619 20.4213L34.0183 19.5857V42.0711C35.2109 42.3598 36.4112 42.6409 37.619 42.9068V20.4213ZM35.8338 12.0348C33.4637 11.5183 32.7345 13.0224 33.5169 14.2834C34.8159 16.3724 38.1128 16.4256 38.447 14.8151C38.7053 13.5769 37.3075 12.3767 35.8414 12.0348" fill="white"/>
<path d="M52.5922 17.8083C50.2981 17.4664 50.2601 17.4588 48.9307 17.2461V22.594C48.6573 22.5484 48.3838 22.5028 48.1179 22.4573C46.8645 22.2446 45.6187 22.0243 44.3729 21.7964V24.1665C45.6111 24.3944 46.8569 24.6146 48.1179 24.8273C48.3914 24.8729 48.6649 24.9185 48.9307 24.9641V39.9518C49.0751 45.8087 56.0258 46.819 59.3758 46.3936C59.148 45.6644 58.8441 44.692 58.6162 43.9628C56.398 44.0539 52.6758 44.1983 52.5998 40.3317V25.5262C54.6737 25.8225 56.7475 26.0884 58.8137 26.3238V23.9538C56.7399 23.7183 54.6737 23.4524 52.5998 23.1561V17.8083" fill="white"/>
<path d="M77.9644 24.9262C63.3641 24.7894 62.0119 38.0756 68.1423 44.2287C74.6068 50.7236 86.8599 48.5207 89.6705 42.2232C88.6146 42.0105 87.2093 41.7295 86.1534 41.5168C83.9048 46.7659 72.4342 47.9661 69.1374 39.9823C65.3999 30.9197 74.7663 25.2148 81.4816 27.9951C82.9477 28.6028 85.1659 29.522 86.0167 31.4743C87.0726 31.2084 88.4855 30.8438 89.549 30.5779C88.1209 27.5393 82.0437 25.0021 77.9644 24.9338" fill="white"/>
<path d="M110.522 43.8185C100.525 45.0643 99.1044 34.6952 103.108 29.5372C107.491 23.8931 118.817 23.2094 119.805 31.9529C120.374 36.9969 117.313 42.869 110.522 43.8109M110.522 23.0271C96.4229 25.1313 93.9616 39.0403 101.323 44.373C109.846 50.5489 125.251 42.7018 123.223 30.4412C122.304 24.911 117.442 22.0699 110.522 23.0271Z" fill="white"/>
<path d="M135.499 18.2108C134.382 18.5223 133.258 18.8185 132.126 19.1072C132.126 21.5153 132.126 24.7286 132.126 27.1442V41.6003C133.258 41.3116 134.382 41.0153 135.499 40.7039C135.499 38.2958 135.499 35.0825 135.499 32.6668V18.2108ZM133.835 10.6752C131.503 11.336 130.675 13.539 132.005 14.329C133.691 15.3318 136.699 13.3491 136.243 11.5336C136.069 10.8499 135.172 10.3181 133.835 10.6676" fill="white"/>
<path d="M156.481 10.6979C150.662 13.2047 148.976 17.0029 148.421 18.2487C148.421 17.0105 148.406 15.3697 148.398 14.1315C147.373 14.4961 146.34 14.8607 145.299 15.2102C145.299 17.6182 145.299 20.8315 145.299 23.2472V37.7032C146.378 37.3386 147.449 36.9664 148.512 36.5865C148.512 25.9363 148.829 20.0314 149.462 18.8716C151.961 14.2986 158.661 11.298 161.024 13.6985C161.943 14.6328 161.966 16.0534 161.981 16.7371V31.0867C162.968 30.6309 163.941 30.1675 164.913 29.6966C164.913 18.702 164.718 12.7692 164.328 11.8981C163.827 10.7663 162.049 8.37338 156.473 10.7131" fill="white"/>
</svg>
