<svg width="122" height="108" viewBox="0 0 122 108" fill="none" xmlns="http://www.w3.org/2000/svg">
<path d="M72.2452 80.1232C62.6306 80.1232 51.6738 77.8833 46.539 77.0262L54.1805 56.5356C63.6091 58.1124 93.8517 61.2337 89.3557 73.2822C87.3988 78.5464 80.291 80.1232 72.2452 80.1232ZM78.4797 49.6785C70.5875 49.6785 61.8382 47.851 57.6738 47.1555L64.6037 28.5734C72.4554 29.8833 97.7492 32.3254 93.6576 43.2984C91.8139 48.2391 85.4905 49.6785 78.4797 49.6785ZM60.035 0.279541L54.3342 15.5626C51.3099 15.1017 48.3341 14.6488 45.4474 14.1636L45.4635 14.1151L26.2829 10.913L22.5875 20.8591C22.5875 20.8591 32.9056 22.444 32.6873 22.541C38.3234 23.479 39.3422 25.9777 39.1724 27.9588L32.6792 45.3766C33.0673 45.4413 33.5686 45.5383 34.1266 45.6919C33.6576 45.6111 33.1643 45.5302 32.6549 45.4494L23.5579 69.8537C22.9676 70.824 21.6253 72.2068 18.8274 72.2068C18.3261 72.2068 17.7762 72.1663 17.1778 72.0612C17.1778 72.0612 17.1778 72.0612 17.1536 72.0612C16.5956 72.0612 7.06191 70.3631 7.06191 70.3631L0.15625 81.0208L18.2614 84.037C21.6333 84.603 24.9244 85.1933 28.1832 85.7512L22.4177 101.22L36.318 103.541L42.0188 88.2418C45.8193 88.9372 49.4986 89.5679 53.105 90.1663L47.4285 105.401L61.3368 107.722L67.0943 92.2849C73.636 93.1097 79.7331 93.6191 85.2883 93.6191C99.8759 93.6191 110.728 90.1178 116.162 79.7189C122.21 68.1637 115.862 61.4925 103.385 57.1502C112.474 55.7512 119.323 51.7485 121.143 43.4844C123.658 32.196 110.817 26.1313 93.2533 22.0801L98.9541 6.7809L85.0377 4.46014L79.4905 19.3469C75.8355 18.7405 72.0835 18.1663 68.3476 17.5922L73.9271 2.6003L60.0269 0.279541" fill="white"/>
</svg>
