<svg width="300" height="273" viewBox="0 0 300 273" fill="none" xmlns="http://www.w3.org/2000/svg">
<path d="M299.614 103.005C299.597 103.522 299.573 104.04 299.541 104.557C299.508 105.05 299.476 105.552 299.444 106.045C299.403 106.562 299.355 107.088 299.298 107.606C299.25 108.099 299.193 108.6 299.128 109.093C299.064 109.619 298.991 110.137 298.91 110.662C298.837 111.164 298.756 111.657 298.676 112.158C298.587 112.684 298.482 113.209 298.384 113.727C298.279 114.252 298.174 114.786 298.061 115.312C297.98 115.676 297.899 116.04 297.81 116.403C297.665 117.002 297.511 117.6 297.358 118.207C297.26 118.562 297.172 118.918 297.066 119.274C296.88 119.921 296.686 120.56 296.484 121.207C296.387 121.514 296.298 121.821 296.201 122.12C295.894 123.067 295.562 124.013 295.215 124.959C294.907 125.783 294.576 126.608 294.244 127.425C294.083 127.813 293.921 128.201 293.751 128.589C293.638 128.848 293.533 129.107 293.42 129.366C293.217 129.819 293.007 130.271 292.797 130.724C292.7 130.934 292.611 131.137 292.506 131.347C292.19 132.002 291.867 132.657 291.535 133.304C291.503 133.368 291.463 133.441 291.43 133.506C291.131 134.088 290.824 134.662 290.508 135.236C290.387 135.455 290.266 135.673 290.137 135.891C289.902 136.312 289.667 136.732 289.425 137.153C289.279 137.403 289.126 137.654 288.98 137.905C288.754 138.285 288.527 138.673 288.293 139.053C288.131 139.312 287.969 139.571 287.8 139.837C287.565 140.201 287.331 140.573 287.096 140.937C286.926 141.196 286.748 141.463 286.579 141.721C286.384 142.013 286.19 142.296 285.996 142.579C285.438 143.395 284.864 144.204 284.274 145.013C284.25 145.045 284.225 145.077 284.209 145.11C283.595 145.943 282.964 146.759 282.317 147.576C282.155 147.786 281.986 147.988 281.824 148.199C281.217 148.951 280.603 149.695 279.972 150.438C279.915 150.503 279.859 150.576 279.802 150.641C279.123 151.433 278.419 152.217 277.708 152.994C277.53 153.188 277.344 153.39 277.158 153.584C276.511 154.279 275.856 154.975 275.185 155.654C275.096 155.743 275.007 155.832 274.918 155.929C274.174 156.689 273.406 157.433 272.63 158.169C272.436 158.355 272.234 158.541 272.039 158.727C271.352 159.374 270.657 160.013 269.945 160.651C269.824 160.757 269.711 160.87 269.589 160.975C268.781 161.695 267.956 162.398 267.123 163.102C266.929 163.263 266.735 163.425 266.549 163.579C265.595 164.371 264.624 165.155 263.638 165.932C263.614 165.948 263.589 165.972 263.565 165.988C262.587 166.748 261.592 167.492 260.581 168.228C260.387 168.366 260.201 168.511 260.007 168.649C259.013 169.368 257.994 170.08 256.967 170.783C256.765 170.921 256.562 171.058 256.36 171.196C255.293 171.916 254.225 172.619 253.126 173.314C253.118 173.314 253.11 173.323 253.101 173.331C252.002 174.026 250.878 174.713 249.746 175.385C249.527 175.514 249.317 175.643 249.099 175.773C247.999 176.42 246.891 177.058 245.767 177.681C245.557 177.802 245.339 177.916 245.12 178.037C243.988 178.66 242.84 179.274 241.676 179.881C241.627 179.905 241.587 179.929 241.538 179.953C240.349 180.568 239.145 181.166 237.924 181.757C237.681 181.878 237.438 181.991 237.188 182.112C236.072 182.646 234.956 183.172 233.824 183.681C233.638 183.762 233.452 183.843 233.266 183.932C232.255 184.385 231.228 184.829 230.201 185.266C229.951 185.371 229.708 185.476 229.457 185.581C228.301 186.066 227.136 186.544 225.956 187.005C225.721 187.093 225.479 187.19 225.244 187.279C224.201 187.684 223.158 188.08 222.107 188.468C221.88 188.549 221.654 188.638 221.428 188.719C220.231 189.155 219.018 189.576 217.805 189.988C217.53 190.077 217.255 190.174 216.988 190.263C215.889 190.635 214.781 190.991 213.673 191.339C213.495 191.395 213.317 191.452 213.131 191.509C211.886 191.897 210.632 192.269 209.379 192.633C209.08 192.721 208.789 192.802 208.49 192.883C207.293 193.223 206.088 193.554 204.875 193.878C204.778 193.902 204.689 193.926 204.592 193.951C202.934 194.387 201.26 194.8 199.579 195.196C199.417 195.236 199.255 195.277 199.093 195.309C197.468 195.689 195.827 196.045 194.177 196.385C193.959 196.433 193.732 196.474 193.514 196.522C191.897 196.854 190.271 197.161 188.63 197.452C188.379 197.5 188.12 197.541 187.87 197.589C186.244 197.872 184.619 198.139 182.977 198.39C182.686 198.43 182.395 198.479 182.104 198.519C180.705 198.721 179.306 198.924 177.899 199.102C177.786 199.118 177.673 199.126 177.552 199.142C176.217 199.312 174.883 199.457 173.541 199.603C173.242 199.635 172.934 199.668 172.635 199.7C171.228 199.845 169.821 199.975 168.414 200.088C168.155 200.112 167.889 200.129 167.63 200.153C166.344 200.258 165.05 200.347 163.756 200.428C163.498 200.444 163.247 200.46 162.988 200.476C162.382 200.509 161.767 200.541 161.153 200.573C160.7 200.598 160.255 200.622 159.802 200.638C159.163 200.662 158.517 200.686 157.878 200.711C157.457 200.727 157.037 200.743 156.616 200.759C155.905 200.784 155.185 200.792 154.465 200.808C154.11 200.808 153.762 200.824 153.406 200.832C152.339 200.848 151.263 200.856 150.196 200.856C148.554 200.856 146.905 200.832 145.255 200.8C144.543 200.783 143.832 200.759 143.12 200.735C142.328 200.711 141.527 200.686 140.735 200.654C140.007 200.622 139.279 200.581 138.552 200.541C137.759 200.5 136.959 200.46 136.166 200.412C135.438 200.363 134.703 200.306 133.975 200.258C133.182 200.201 132.382 200.145 131.589 200.08C130.853 200.015 130.118 199.943 129.39 199.878C128.597 199.805 127.797 199.732 127.004 199.643C125.719 199.506 124.425 199.36 123.139 199.207C122.961 199.182 122.783 199.158 122.605 199.134C121.417 198.98 120.22 198.827 119.031 198.657C118.676 198.608 118.32 198.552 117.964 198.503C116.614 198.301 115.255 198.099 113.905 197.872C112.748 197.678 111.6 197.476 110.452 197.266C110.08 197.201 109.716 197.128 109.344 197.056C108.568 196.91 107.8 196.765 107.031 196.611C106.732 196.554 106.433 196.49 106.142 196.425C104.411 196.069 102.689 195.697 100.991 195.301C100.797 195.253 100.603 195.204 100.401 195.164C98.654 194.751 96.9155 194.323 95.2093 193.878C95.0961 193.845 94.9828 193.813 94.8696 193.789C93.0987 193.32 91.344 192.835 89.6136 192.317C89.5974 192.317 89.5731 192.309 89.557 192.301C87.8346 191.792 86.1284 191.258 84.4464 190.708C84.2847 190.659 84.123 190.603 83.9613 190.554C83.6944 190.465 83.4276 190.376 83.1526 190.288C82.5462 190.085 81.9316 189.875 81.3332 189.673C81.0098 189.56 80.6863 189.447 80.371 189.333C79.8211 189.139 79.2712 188.945 78.7214 188.743C78.3898 188.622 78.0664 188.5 77.7349 188.379C77.185 188.177 76.6432 187.975 76.1014 187.765C75.7942 187.643 75.4869 187.53 75.1796 187.409C74.565 187.174 73.9586 186.932 73.3521 186.689C73.1257 186.6 72.8912 186.511 72.6648 186.414C71.84 186.083 71.0152 185.743 70.1985 185.395C70.0287 185.323 69.8588 185.25 69.689 185.177C69.0421 184.902 68.4033 184.627 67.7645 184.344C67.4815 184.215 67.1985 184.093 66.9155 183.964C66.3898 183.73 65.8723 183.495 65.3548 183.261C65.0475 183.123 64.7483 182.978 64.4411 182.84C63.9397 182.606 63.4464 182.371 62.9532 182.137C62.654 181.991 62.3629 181.854 62.0637 181.708C61.5462 181.457 61.0287 181.199 60.5111 180.94C60.2605 180.81 60.0017 180.689 59.751 180.56C59.0556 180.204 58.3683 179.848 57.689 179.492C57.6163 179.452 57.5516 179.42 57.4788 179.387C56.7268 178.991 55.9828 178.587 55.247 178.182C55.0206 178.053 54.7942 177.932 54.5677 177.802C54.0583 177.519 53.5489 177.236 53.0475 176.945C52.7726 176.792 52.5057 176.63 52.2308 176.476C51.7699 176.209 51.3171 175.943 50.8642 175.676C50.5893 175.514 50.3144 175.352 50.0394 175.182C49.5866 174.907 49.1338 174.633 48.681 174.35C48.4303 174.196 48.1715 174.034 47.9208 173.881C47.4114 173.557 46.902 173.234 46.4006 172.91C46.2146 172.789 46.0367 172.676 45.8508 172.554C45.1715 172.11 44.5004 171.665 43.8292 171.212C43.6756 171.107 43.53 171.01 43.3845 170.905C42.8669 170.549 42.3575 170.201 41.8481 169.837C41.6136 169.676 41.3871 169.514 41.1607 169.344C40.7322 169.045 40.3117 168.738 39.8912 168.43C39.6486 168.252 39.406 168.075 39.1634 167.889C38.7591 167.589 38.3629 167.29 37.9667 166.991C37.7322 166.813 37.4896 166.627 37.2551 166.449C36.8346 166.126 36.4222 165.802 36.0098 165.479C35.8076 165.317 35.6055 165.164 35.4033 165.002C34.8373 164.549 34.2793 164.096 33.7295 163.635C33.689 163.603 33.6405 163.562 33.6001 163.53C33.0098 163.037 32.4276 162.544 31.8454 162.042C31.6594 161.881 31.4815 161.719 31.2955 161.565C30.8993 161.217 30.5111 160.87 30.123 160.522C29.9128 160.336 29.7025 160.142 29.4923 159.948C29.1365 159.624 28.7807 159.293 28.433 158.969C28.2227 158.775 28.0125 158.573 27.8022 158.371C27.4545 158.04 27.1068 157.7 26.7591 157.368C26.565 157.182 26.371 156.988 26.1769 156.802C25.7888 156.414 25.4006 156.026 25.0206 155.63C24.8831 155.492 24.7456 155.355 24.6163 155.217C24.1068 154.684 23.5974 154.158 23.096 153.616C22.9828 153.495 22.8696 153.366 22.7564 153.244C22.3764 152.832 21.9963 152.412 21.6243 151.991C21.4545 151.797 21.2847 151.603 21.1149 151.409C20.7995 151.053 20.4923 150.697 20.185 150.341C20.0071 150.131 19.8292 149.921 19.6513 149.711C19.3602 149.363 19.0691 149.007 18.778 148.659C18.6082 148.449 18.4384 148.239 18.2685 148.029C17.9694 147.657 17.6702 147.277 17.3791 146.897C17.2335 146.711 17.088 146.525 16.9505 146.339C16.5462 145.813 16.15 145.279 15.7537 144.746C15.7295 144.713 15.7052 144.673 15.6729 144.641C15.2605 144.075 14.8561 143.5 14.4599 142.926C14.3305 142.74 14.2092 142.562 14.088 142.376C13.8211 141.98 13.5462 141.584 13.2874 141.188C13.1419 140.969 13.0044 140.751 12.8588 140.533C12.6163 140.161 12.3818 139.797 12.1473 139.425C12.0098 139.199 11.8642 138.972 11.7268 138.746C11.4923 138.366 11.2659 137.986 11.0394 137.606C10.9101 137.395 10.7888 137.185 10.6675 136.967C10.4087 136.522 10.158 136.077 9.91545 135.641C9.83459 135.487 9.74564 135.341 9.66477 135.188C9.34132 134.589 9.01787 133.999 8.7106 133.401C8.63782 133.263 8.56504 133.118 8.50035 132.98C8.26585 132.519 8.03135 132.058 7.81302 131.597C7.7079 131.379 7.61087 131.169 7.50574 130.951C7.31976 130.554 7.13378 130.158 6.95588 129.762C6.85076 129.527 6.74564 129.293 6.64051 129.058C6.4707 128.67 6.30089 128.282 6.13917 127.894C6.04213 127.668 5.9451 127.433 5.84806 127.207C5.67825 126.786 5.50844 126.374 5.34671 125.953C5.26585 125.751 5.18499 125.549 5.11221 125.347C4.8858 124.748 4.66747 124.15 4.45723 123.552C4.45723 123.527 4.44105 123.511 4.43297 123.487C4.21464 122.864 4.01248 122.242 3.81033 121.619C3.74564 121.417 3.68903 121.223 3.62434 121.021C3.49496 120.592 3.3575 120.164 3.2362 119.735C3.17151 119.5 3.10682 119.266 3.03405 119.031C2.92084 118.627 2.81572 118.231 2.7106 117.827C2.64591 117.584 2.5893 117.341 2.52461 117.099C2.41949 116.686 2.32246 116.274 2.23351 115.862C2.18499 115.635 2.12839 115.409 2.07987 115.174C1.97475 114.697 1.87771 114.212 1.78068 113.727C1.74833 113.573 1.71599 113.412 1.68364 113.258C1.56235 112.619 1.44914 111.98 1.3521 111.341C1.32785 111.188 1.30359 111.026 1.27933 110.872C1.20655 110.387 1.13378 109.902 1.06909 109.409C1.03674 109.182 1.01248 108.948 0.988223 108.721C0.939706 108.301 0.891188 107.881 0.850757 107.46C0.826498 107.209 0.80224 106.967 0.777981 106.716C0.73755 106.304 0.713291 105.891 0.680946 105.479C0.664773 105.236 0.648601 104.994 0.632428 104.751C0.608169 104.306 0.583911 103.87 0.567738 103.425C0.559652 103.215 0.551566 103.004 0.543479 102.794C0.478789 102.155 0.470703 101.5 0.470703 100.845V172.959C0.470703 173.614 0.478789 174.261 0.503048 174.916C0.503048 175.126 0.519221 175.336 0.527307 175.546C0.543479 175.991 0.567738 176.436 0.591997 176.872C0.608169 177.115 0.624342 177.358 0.640514 177.6C0.672859 178.013 0.705205 178.425 0.73755 178.837C0.761808 179.088 0.786067 179.331 0.810326 179.581C0.850757 180.002 0.899275 180.422 0.947792 180.835C0.972051 181.061 1.0044 181.296 1.02865 181.522C1.09334 182.007 1.16612 182.492 1.2389 182.978C1.26316 183.131 1.27933 183.293 1.31167 183.447C1.41679 184.085 1.52192 184.724 1.64321 185.363C1.67555 185.517 1.7079 185.678 1.74025 185.832C1.83728 186.317 1.93432 186.794 2.03944 187.279C2.08795 187.506 2.14456 187.732 2.19308 187.967C2.29011 188.379 2.38715 188.792 2.48418 189.196C2.54078 189.438 2.60547 189.681 2.67016 189.924C2.77529 190.328 2.88041 190.724 2.99361 191.129C3.0583 191.363 3.12299 191.598 3.19577 191.832C3.31706 192.261 3.45453 192.689 3.58391 193.118C3.6486 193.32 3.7052 193.522 3.76989 193.716C3.97205 194.339 4.17421 194.961 4.39254 195.584C4.39254 195.608 4.40871 195.624 4.4168 195.649C4.62704 196.247 4.84537 196.845 5.07178 197.444C5.14456 197.646 5.22542 197.848 5.30628 198.05C5.46801 198.471 5.63782 198.883 5.80763 199.304C5.90467 199.538 6.0017 199.765 6.09874 199.999C6.26046 200.387 6.43027 200.775 6.60008 201.164C6.7052 201.398 6.81033 201.633 6.91545 201.867C7.09334 202.263 7.27933 202.66 7.46531 203.048C7.57043 203.266 7.66747 203.476 7.77259 203.695C7.99901 204.155 8.22542 204.616 8.45992 205.077C8.5327 205.223 8.60547 205.36 8.67825 205.506C8.98553 206.104 9.30898 206.703 9.63243 207.293C9.71329 207.447 9.80224 207.6 9.89119 207.754C10.1419 208.199 10.3844 208.635 10.6432 209.08C10.7645 209.29 10.8939 209.5 11.0152 209.719C11.2416 210.099 11.468 210.479 11.7025 210.859C11.84 211.085 11.9774 211.312 12.123 211.538C12.3575 211.91 12.592 212.282 12.8346 212.646C12.9801 212.864 13.1176 213.083 13.2632 213.301C13.5219 213.697 13.7888 214.093 14.0637 214.482C14.1931 214.668 14.3144 214.854 14.4438 215.031C14.84 215.606 15.2443 216.172 15.6567 216.738C15.6809 216.77 15.7052 216.81 15.7375 216.843C16.1257 217.376 16.53 217.91 16.9343 218.436C17.0799 218.622 17.2254 218.808 17.3629 218.994C17.654 219.374 17.9532 219.746 18.2524 220.126C18.4222 220.336 18.592 220.546 18.7618 220.757C19.0448 221.112 19.3359 221.46 19.6351 221.808C19.813 222.018 19.9909 222.228 20.1688 222.438C20.4761 222.794 20.7834 223.15 21.0907 223.506C21.2605 223.7 21.4303 223.894 21.6082 224.088C21.9801 224.509 22.3602 224.921 22.7402 225.333C22.8535 225.455 22.9667 225.584 23.0799 225.705C23.5812 226.239 24.0826 226.773 24.592 227.298C24.7295 227.436 24.8669 227.581 25.0044 227.719C25.3845 228.107 25.7726 228.495 26.1607 228.883C26.3548 229.077 26.5489 229.263 26.7429 229.449C27.0907 229.789 27.4303 230.12 27.7861 230.452C27.9963 230.654 28.2066 230.848 28.4168 231.05C28.7645 231.374 29.1203 231.705 29.4761 232.029C29.6863 232.223 29.8966 232.417 30.1068 232.603C30.495 232.951 30.8831 233.298 31.2793 233.638C31.4653 233.8 31.6432 233.961 31.8292 234.123C32.4033 234.624 32.9855 235.118 33.5839 235.611C33.6324 235.651 33.6809 235.692 33.7295 235.732C34.2793 236.185 34.8292 236.638 35.3871 237.083C35.5893 237.244 35.7915 237.406 35.9936 237.56C36.406 237.883 36.8184 238.207 37.2389 238.53C37.4734 238.708 37.716 238.894 37.9505 239.072C38.3467 239.371 38.7429 239.67 39.1473 239.969C39.3898 240.147 39.6405 240.333 39.8831 240.511C40.3036 240.819 40.7241 241.118 41.1446 241.417C41.371 241.579 41.6055 241.748 41.8319 241.91C42.3413 242.266 42.8508 242.622 43.3683 242.978C43.5219 243.083 43.6675 243.18 43.813 243.285C44.4761 243.738 45.1553 244.182 45.8346 244.627C46.0125 244.748 46.1985 244.862 46.3845 244.983C46.8858 245.306 47.3952 245.63 47.9047 245.953C48.1553 246.115 48.4141 246.269 48.6648 246.422C49.1176 246.697 49.5704 246.98 50.0233 247.255C50.2982 247.417 50.5731 247.587 50.8481 247.748C51.3009 248.015 51.7537 248.282 52.2066 248.549C52.4815 248.711 52.7483 248.864 53.0233 249.026C53.5246 249.309 54.026 249.592 54.5273 249.875C54.7618 250.005 54.9882 250.134 55.2227 250.263C55.9586 250.668 56.7025 251.072 57.4464 251.468C57.5273 251.509 57.6001 251.549 57.681 251.589C58.3521 251.945 59.0314 252.293 59.7187 252.641C59.9774 252.77 60.2362 252.899 60.495 253.029C61.0125 253.288 61.5219 253.538 62.0394 253.797C62.3305 253.943 62.6297 254.08 62.9289 254.226C63.4222 254.46 63.9235 254.703 64.4168 254.929C64.716 255.075 65.0233 255.212 65.3305 255.35C65.8481 255.584 66.3656 255.827 66.8912 256.053C67.1742 256.182 67.4572 256.312 67.7402 256.433C68.371 256.708 69.0098 256.983 69.6486 257.258C69.8265 257.331 69.9963 257.412 70.1742 257.484C70.9909 257.832 71.8076 258.172 72.6324 258.503C72.8588 258.592 73.0933 258.681 73.3198 258.778C73.9262 259.021 74.5327 259.263 75.1473 259.498C75.4545 259.619 75.7618 259.732 76.0691 259.854C76.6109 260.064 77.1526 260.266 77.7025 260.468C78.034 260.589 78.3575 260.711 78.689 260.832C79.2389 261.034 79.7807 261.228 80.3386 261.422C80.6621 261.536 80.9774 261.649 81.3009 261.762C81.9074 261.972 82.5138 262.174 83.1203 262.376C83.3872 262.465 83.654 262.554 83.9289 262.643C83.9936 262.668 84.0664 262.692 84.1311 262.708C84.2281 262.74 84.3171 262.765 84.4141 262.797C86.096 263.347 87.8022 263.881 89.5246 264.39C89.5408 264.39 89.565 264.398 89.5812 264.406C91.3117 264.916 93.0664 265.409 94.8373 265.878C94.9505 265.91 95.0637 265.943 95.1769 265.967C96.8912 266.42 98.6217 266.848 100.368 267.252C100.562 267.301 100.756 267.35 100.959 267.39C102.657 267.786 104.379 268.158 106.11 268.514C106.255 268.546 106.401 268.579 106.546 268.611C106.7 268.643 106.845 268.668 106.999 268.7C107.767 268.854 108.543 268.999 109.312 269.145C109.684 269.217 110.048 269.29 110.42 269.355C111.56 269.565 112.716 269.767 113.872 269.961C115.223 270.188 116.581 270.398 117.932 270.592C118.287 270.641 118.643 270.697 118.999 270.746C120.188 270.916 121.384 271.077 122.573 271.223C122.751 271.247 122.929 271.271 123.107 271.288C124.215 271.425 125.314 271.554 126.414 271.668C126.6 271.684 126.786 271.7 126.972 271.724C127.765 271.805 128.565 271.878 129.357 271.959C130.093 272.031 130.829 272.096 131.557 272.161C132.349 272.226 133.15 272.282 133.942 272.339C134.678 272.395 135.406 272.452 136.134 272.492C136.926 272.541 137.727 272.581 138.519 272.622C139.247 272.662 139.975 272.703 140.703 272.735C141.495 272.767 142.296 272.792 143.088 272.816C143.678 272.832 144.269 272.864 144.859 272.872C144.98 272.872 145.101 272.872 145.223 272.872C146.872 272.913 148.522 272.929 150.163 272.929C151.239 272.929 152.306 272.921 153.374 272.905C153.729 272.905 154.077 272.889 154.433 272.881C155.153 272.864 155.864 272.856 156.584 272.832C157.012 272.816 157.433 272.8 157.862 272.784C158.5 272.759 159.139 272.743 159.77 272.711C160.231 272.695 160.684 272.662 161.145 272.646C161.751 272.614 162.349 272.589 162.956 272.549C163.053 272.549 163.142 272.541 163.239 272.533C163.401 272.525 163.57 272.509 163.732 272.5C165.026 272.42 166.312 272.331 167.597 272.226C167.856 272.201 168.123 272.185 168.382 272.161C169.797 272.048 171.196 271.91 172.603 271.773C172.91 271.74 173.209 271.708 173.517 271.676C174.859 271.53 176.193 271.385 177.519 271.215C177.632 271.199 177.746 271.19 177.867 271.174C179.274 270.996 180.681 270.802 182.072 270.592C182.234 270.568 182.395 270.552 182.557 270.527C182.686 270.511 182.816 270.487 182.945 270.463C184.587 270.212 186.22 269.945 187.837 269.662C188.088 269.622 188.339 269.573 188.597 269.525C190.231 269.234 191.864 268.918 193.482 268.595C193.7 268.546 193.926 268.506 194.145 268.457C195.794 268.118 197.436 267.762 199.061 267.382C199.223 267.341 199.384 267.301 199.546 267.269C201.228 266.872 202.902 266.46 204.56 266.023C204.576 266.023 204.592 266.015 204.616 266.007C204.689 265.991 204.77 265.967 204.843 265.943C206.056 265.619 207.26 265.288 208.457 264.948C208.756 264.867 209.056 264.778 209.347 264.697C210.608 264.333 211.862 263.961 213.099 263.573C213.277 263.517 213.455 263.46 213.641 263.403C214.756 263.056 215.856 262.692 216.956 262.328C217.231 262.239 217.506 262.15 217.773 262.053C218.986 261.641 220.198 261.212 221.395 260.783C221.622 260.703 221.84 260.614 222.066 260.533C223.126 260.145 224.177 259.748 225.22 259.336C225.455 259.247 225.689 259.158 225.924 259.061C227.096 258.6 228.269 258.123 229.425 257.638C229.676 257.533 229.918 257.428 230.169 257.323C231.196 256.886 232.223 256.441 233.234 255.988C233.42 255.907 233.605 255.827 233.791 255.738C234.924 255.228 236.048 254.703 237.155 254.169C237.26 254.12 237.374 254.072 237.487 254.015C237.624 253.951 237.754 253.878 237.891 253.813C239.104 253.223 240.317 252.624 241.506 252.01C241.554 251.986 241.595 251.961 241.643 251.937C242.808 251.339 243.948 250.716 245.088 250.093C245.298 249.972 245.517 249.859 245.727 249.738C246.851 249.115 247.959 248.476 249.058 247.829C249.277 247.7 249.487 247.571 249.705 247.441C250.837 246.77 251.961 246.083 253.061 245.387C253.069 245.387 253.077 245.379 253.085 245.371C254.177 244.676 255.252 243.964 256.32 243.252C256.522 243.115 256.724 242.978 256.926 242.84C257.953 242.137 258.964 241.425 259.967 240.705C260.161 240.568 260.347 240.422 260.541 240.285C261.552 239.549 262.546 238.805 263.525 238.045C263.549 238.029 263.573 238.005 263.597 237.988C264.592 237.22 265.554 236.428 266.517 235.635C266.622 235.546 266.735 235.457 266.848 235.368C266.929 235.296 267.01 235.223 267.099 235.158C267.932 234.455 268.756 233.751 269.573 233.031C269.694 232.926 269.808 232.813 269.929 232.708C270.641 232.077 271.336 231.43 272.023 230.783C272.217 230.597 272.42 230.412 272.614 230.226C273.39 229.482 274.158 228.738 274.902 227.978C274.991 227.889 275.08 227.8 275.169 227.703C275.84 227.015 276.495 226.328 277.142 225.633C277.328 225.438 277.506 225.236 277.684 225.042C278.395 224.266 279.099 223.482 279.778 222.689C279.835 222.624 279.891 222.552 279.948 222.487C280.579 221.751 281.193 220.999 281.8 220.247C281.969 220.037 282.131 219.835 282.293 219.624C282.94 218.808 283.57 217.991 284.185 217.158C284.209 217.126 284.234 217.093 284.25 217.061C284.84 216.261 285.414 215.444 285.972 214.627C286.045 214.514 286.126 214.409 286.207 214.304C286.328 214.126 286.441 213.948 286.562 213.77C286.74 213.511 286.91 213.244 287.08 212.986C287.314 212.622 287.549 212.258 287.783 211.886C287.945 211.627 288.115 211.368 288.277 211.102C288.511 210.721 288.738 210.341 288.964 209.961C289.118 209.711 289.263 209.46 289.409 209.209C289.651 208.789 289.886 208.376 290.12 207.956C290.242 207.738 290.371 207.519 290.492 207.293C290.808 206.719 291.115 206.145 291.414 205.562C291.446 205.498 291.487 205.425 291.519 205.36C291.851 204.713 292.174 204.058 292.49 203.403C292.587 203.201 292.684 202.991 292.781 202.781C292.991 202.328 293.201 201.875 293.403 201.422C293.517 201.164 293.63 200.905 293.735 200.646C293.864 200.339 294.002 200.04 294.131 199.732C294.163 199.651 294.196 199.562 294.228 199.482C294.568 198.665 294.891 197.84 295.198 197.015C295.554 196.069 295.878 195.123 296.185 194.177C296.282 193.87 296.371 193.562 296.468 193.263C296.67 192.616 296.864 191.978 297.05 191.331C297.147 190.975 297.244 190.619 297.341 190.263C297.503 189.665 297.657 189.066 297.794 188.46C297.883 188.096 297.964 187.732 298.045 187.368C298.093 187.142 298.158 186.916 298.198 186.689C298.263 186.39 298.312 186.083 298.368 185.783C298.473 185.258 298.57 184.732 298.659 184.215C298.748 183.713 298.821 183.22 298.894 182.719C298.975 182.193 299.048 181.676 299.112 181.15C299.177 180.649 299.234 180.155 299.282 179.662C299.339 179.145 299.387 178.619 299.428 178.102C299.468 177.608 299.5 177.107 299.525 176.614C299.557 176.096 299.581 175.579 299.597 175.061C299.597 174.835 299.622 174.608 299.63 174.382C299.646 173.84 299.646 173.298 299.646 172.757V100.643C299.646 101.412 299.622 102.18 299.597 102.948L299.614 103.005Z" fill="#FF6C30"/>
<path d="M149.953 0.665039C161.937 0.665039 174.091 1.63538 186.244 3.66503C266.395 17.0316 315.171 71.3551 295.19 124.983C278.233 170.476 217.231 200.864 150.171 200.864C138.188 200.864 126.018 199.894 113.864 197.865C33.7456 184.498 -15.0388 130.183 4.95047 76.5626C21.8993 31.0613 82.91 0.673125 149.953 0.665039Z" fill="url(#paint0_linear_4684_7709)"/>
<defs>
<linearGradient id="paint0_linear_4684_7709" x1="150.066" y1="200.856" x2="150.066" y2="58.1987" gradientUnits="userSpaceOnUse">
<stop offset="0.05" stop-color="#FF923D"/>
<stop offset="1" stop-color="#FF7B34"/>
</linearGradient>
</defs>
</svg>
