<svg width="262" height="24" viewBox="0 0 262 24" fill="none" xmlns="http://www.w3.org/2000/svg">
<g clip-path="url(#clip0_4157_5748)">
<path d="M31.1719 22.4398H26.6608L15.605 4.33675L4.54879 22.4398H0.0380859L13.332 0.672137L17.8776 0.672119L31.1719 22.4398Z" fill="#121212"/>
<path d="M60.3947 22.6284L60.3614 8.36565L52.7223 20.1693H50.7959L43.1567 8.55006V22.6284H39.0382V1.11131H42.5921L51.8256 15.3741L60.8929 1.11131H64.4467L64.48 22.6284H60.3947Z" fill="#121212"/>
<path d="M95.0731 8.36565L95.1063 22.6284H99.1916L99.1584 1.11131H95.6045L86.5374 15.3741L77.3038 1.11131H73.7499V22.6284H77.8685V8.55006L85.5077 20.1693H87.4339L95.0731 8.36565Z" fill="#121212"/>
<path d="M125.898 19.2779V22.6284H108.46V1.11131H125.433V4.46183H112.778V10.0563H124.004V13.3453H112.778V19.2779H125.898Z" fill="#121212"/>
<path fill-rule="evenodd" clip-rule="evenodd" d="M144.164 16.327L148.914 22.6284H153.563L148.216 15.5585C149.81 14.9847 151.028 14.1138 151.869 12.9457C152.733 11.7776 153.165 10.3841 153.165 8.76524C153.165 7.18733 152.767 5.82458 151.969 4.677C151.172 3.52942 150.021 2.64825 148.515 2.03347C147.031 1.4187 145.282 1.11131 143.267 1.11131H133.701V22.6284H138.019V16.3577H143.267C143.666 16.3577 143.965 16.3475 144.164 16.327ZM147.353 5.59916C148.327 6.33688 148.814 7.39227 148.814 8.76524C148.814 10.1383 148.327 11.2038 147.353 11.962C146.378 12.6998 144.95 13.0687 143.068 13.0687H138.019V4.49257H143.068C144.95 4.49257 146.378 4.86143 147.353 5.59916Z" fill="#121212"/>
<path d="M212.556 22.8465H208.352L220.743 1.07882H224.979L237.369 22.8465H233.165L222.861 4.74387L212.556 22.8465Z" fill="#121212"/>
<path fill-rule="evenodd" clip-rule="evenodd" d="M195.854 1.51601C197.732 1.51601 199.363 1.8234 200.745 2.43817C202.149 3.05294 203.222 3.93412 203.965 5.0817C204.708 6.22925 205.08 7.59203 205.08 9.16994C205.08 10.7274 204.708 12.0901 203.965 13.2582C203.222 14.4058 202.149 15.287 200.745 15.9017C199.363 16.5165 197.732 16.8239 195.854 16.8239H190.963V23.0331H186.939V1.51601H195.854ZM195.669 13.4426C197.423 13.4426 198.754 13.0738 199.662 12.336C200.57 11.5983 201.024 10.5429 201.024 9.16994C201.024 7.79692 200.57 6.74158 199.662 6.00387C198.754 5.26613 197.423 4.89727 195.669 4.89727H190.963V13.4426H195.669Z" fill="#121212"/>
<path d="M251.568 23.0331V15.4406L260.05 1.51601H256.088L249.68 11.9979L243.334 1.51601H239.03L247.544 15.5021V23.0331H251.568Z" fill="#121212"/>
</g>
<defs>
<clipPath id="clip0_4157_5748">
<rect width="261" height="24" fill="white" transform="translate(0.0371094)"/>
</clipPath>
</defs>
</svg>
