<svg width="240" height="40" viewBox="0 0 240 40" fill="none" xmlns="http://www.w3.org/2000/svg">
<g clip-path="url(#clip0_4191_6087)">
<path d="M67.0664 24.8871H60.765L59.755 27.8693H55.4502L61.5588 10.9862H66.3207L72.4292 27.8693H68.0764L67.0664 24.8871ZM66.0083 21.7125L63.9159 15.5317L61.8473 21.7125H66.0083ZM87.5402 14.4494V27.8693H83.4278V26.0415C83.0107 26.6347 82.4416 27.1157 81.7202 27.4845C81.0145 27.8372 80.2288 28.0136 79.3631 28.0136C78.3369 28.0136 77.4311 27.7891 76.6454 27.3402C75.8597 26.8752 75.2507 26.2098 74.8178 25.344C74.385 24.4783 74.1683 23.4601 74.1683 22.2897V14.4494H78.2569V21.7366C78.2569 22.6344 78.4892 23.3318 78.9545 23.8289C79.4192 24.3259 80.0445 24.5745 80.8302 24.5745C81.6321 24.5745 82.2654 24.3259 82.7302 23.8289C83.195 23.3318 83.4278 22.6344 83.4278 21.7366V14.4494H87.5402ZM89.6764 21.1353C89.6764 19.7564 89.9331 18.5459 90.4459 17.5037C90.975 16.4616 91.6888 15.6599 92.5864 15.0987C93.4845 14.5376 94.4864 14.257 95.5926 14.257C96.4745 14.257 97.2764 14.4414 97.9978 14.8101C98.7354 15.1789 99.3126 15.6759 99.7292 16.3012V10.0723H103.842V27.8693H99.7292V25.9453C99.3445 26.5867 98.7916 27.0997 98.0697 27.4845C97.3645 27.8693 96.5388 28.0617 95.5926 28.0617C94.4864 28.0617 93.4845 27.7811 92.5864 27.2199C91.6888 26.6427 90.975 25.8331 90.4459 24.7909C89.9331 23.7327 89.6764 22.5142 89.6764 21.1353ZM99.7292 21.1594C99.7292 20.1332 99.4407 19.3235 98.8635 18.7303C98.3026 18.1371 97.6131 17.8405 96.7954 17.8405C95.9778 17.8405 95.2802 18.1371 94.7031 18.7303C94.1416 19.3075 93.8611 20.1092 93.8611 21.1353C93.8611 22.1614 94.1416 22.9791 94.7031 23.5884C95.2802 24.1817 95.9778 24.4783 96.7954 24.4783C97.6131 24.4783 98.3026 24.1817 98.8635 23.5884C99.4407 22.9952 99.7292 22.1855 99.7292 21.1594ZM108.885 13.0545C108.164 13.0545 107.571 12.846 107.106 12.4292C106.657 11.9963 106.433 11.4672 106.433 10.8419C106.433 10.2006 106.657 9.67146 107.106 9.25456C107.571 8.8217 108.164 8.60522 108.885 8.60522C109.591 8.60522 110.168 8.8217 110.617 9.25456C111.082 9.67146 111.314 10.2006 111.314 10.8419C111.314 11.4672 111.082 11.9963 110.617 12.4292C110.168 12.846 109.591 13.0545 108.885 13.0545ZM110.93 14.4494V27.8693H106.817V14.4494H110.93ZM121.39 24.382V27.8693H119.297C117.806 27.8693 116.644 27.5086 115.81 26.787C114.976 26.0495 114.559 24.855 114.559 23.2036V17.8645H112.924V14.4494H114.559V11.1786H118.672V14.4494H121.365V17.8645H118.672V23.2517C118.672 23.6525 118.768 23.9411 118.961 24.1175C119.153 24.2938 119.474 24.382 119.923 24.382H121.39ZM138.998 19.2113C139.976 19.4197 140.762 19.9087 141.355 20.6784C141.948 21.4319 142.245 22.2977 142.245 23.2757C142.245 24.6867 141.748 25.809 140.754 26.6427C139.776 27.4605 138.405 27.8693 136.641 27.8693H128.777V10.9862H136.377C138.092 10.9862 139.431 11.379 140.393 12.1647C141.371 12.9503 141.86 14.0165 141.86 15.3633C141.86 16.3574 141.595 17.1831 141.066 17.8405C140.554 18.4978 139.864 18.9547 138.998 19.2113ZM132.89 17.8164H135.583C136.256 17.8164 136.77 17.6721 137.122 17.3835C137.491 17.0788 137.675 16.6379 137.675 16.0607C137.675 15.4836 137.491 15.0426 137.122 14.738C136.77 14.4334 136.256 14.281 135.583 14.281H132.89V17.8164ZM135.92 24.5504C136.609 24.5504 137.138 24.3981 137.507 24.0935C137.892 23.7728 138.084 23.3158 138.084 22.7226C138.084 22.1294 137.884 21.6644 137.483 21.3277C137.098 20.991 136.561 20.8227 135.872 20.8227H132.89V24.5504H135.92ZM150.739 28.0617C149.424 28.0617 148.238 27.7811 147.18 27.2199C146.137 26.6588 145.312 25.8571 144.703 24.8149C144.109 23.7728 143.813 22.5542 143.813 21.1594C143.813 19.7805 144.117 18.5699 144.726 17.5278C145.336 16.4696 146.169 15.6599 147.228 15.0987C148.286 14.5376 149.472 14.257 150.787 14.257C152.102 14.257 153.288 14.5376 154.346 15.0987C155.404 15.6599 156.238 16.4696 156.848 17.5278C157.457 18.5699 157.762 19.7805 157.762 21.1594C157.762 22.5382 157.449 23.7567 156.824 24.8149C156.214 25.8571 155.373 26.6588 154.298 27.2199C153.24 27.7811 152.054 28.0617 150.739 28.0617ZM150.739 24.5023C151.524 24.5023 152.19 24.2137 152.735 23.6365C153.296 23.0593 153.577 22.2336 153.577 21.1594C153.577 20.0851 153.304 19.2594 152.759 18.6822C152.23 18.105 151.573 17.8164 150.787 17.8164C149.985 17.8164 149.32 18.105 148.791 18.6822C148.262 19.2434 147.997 20.0691 147.997 21.1594C147.997 22.2336 148.254 23.0593 148.767 23.6365C149.296 24.2137 149.954 24.5023 150.739 24.5023ZM173.195 14.4494V27.8693H169.083V26.0415C168.665 26.6347 168.096 27.1157 167.375 27.4845C166.669 27.8372 165.884 28.0136 165.018 28.0136C163.992 28.0136 163.086 27.7891 162.3 27.3402C161.514 26.8752 160.905 26.2098 160.473 25.344C160.04 24.4783 159.823 23.4601 159.823 22.2897V14.4494H163.912V21.7366C163.912 22.6344 164.144 23.3318 164.609 23.8289C165.074 24.3259 165.699 24.5745 166.485 24.5745C167.287 24.5745 167.92 24.3259 168.385 23.8289C168.85 23.3318 169.083 22.6344 169.083 21.7366V14.4494H173.195ZM183.628 24.382V27.8693H181.536C180.045 27.8693 178.883 27.5086 178.049 26.787C177.215 26.0495 176.798 24.855 176.798 23.2036V17.8645H175.163V14.4494H176.798V11.1786H180.911V14.4494H183.604V17.8645H180.911V23.2517C180.911 23.6525 181.007 23.9411 181.199 24.1175C181.392 24.2938 181.713 24.382 182.162 24.382H183.628ZM187.987 13.0545C187.266 13.0545 186.673 12.846 186.208 12.4292C185.759 11.9963 185.534 11.4672 185.534 10.8419C185.534 10.2006 185.759 9.67146 186.208 9.25456C186.673 8.8217 187.266 8.60522 187.987 8.60522C188.693 8.60522 189.27 8.8217 189.719 9.25456C190.184 9.67146 190.416 10.2006 190.416 10.8419C190.416 11.4672 190.184 11.9963 189.719 12.4292C189.27 12.846 188.693 13.0545 187.987 13.0545ZM190.032 14.4494V27.8693H185.919V14.4494H190.032ZM192.194 21.1834C192.194 19.8526 192.467 18.6662 193.012 17.624C193.574 16.5818 194.319 15.7721 195.249 15.1949C196.195 14.6017 197.221 14.3051 198.327 14.3051C199.177 14.3051 199.939 14.4574 200.612 14.762C201.285 15.0507 201.831 15.4595 202.247 15.9886V14.4494H206.36V34.2666H202.247V26.1858C201.783 26.747 201.213 27.1959 200.54 27.5326C199.883 27.8693 199.129 28.0376 198.279 28.0376C197.189 28.0376 196.179 27.749 195.249 27.1718C194.319 26.5947 193.574 25.785 193.012 24.7428C192.467 23.7007 192.194 22.5142 192.194 21.1834ZM202.247 21.1594C202.247 20.4378 202.103 19.8366 201.814 19.3556C201.542 18.8586 201.181 18.4898 200.732 18.2493C200.283 17.9927 199.81 17.8645 199.313 17.8645C198.832 17.8645 198.367 17.9927 197.918 18.2493C197.469 18.4898 197.101 18.8586 196.812 19.3556C196.524 19.8526 196.379 20.4619 196.379 21.1834C196.379 21.9049 196.524 22.5142 196.812 23.0112C197.101 23.4922 197.469 23.861 197.918 24.1175C198.367 24.358 198.832 24.4783 199.313 24.4783C199.794 24.4783 200.259 24.358 200.708 24.1175C201.173 23.861 201.542 23.4842 201.814 22.9871C202.103 22.4901 202.247 21.8808 202.247 21.1594ZM222.587 14.4494V27.8693H218.474V26.0415C218.057 26.6347 217.488 27.1157 216.766 27.4845C216.061 27.8372 215.275 28.0136 214.41 28.0136C213.384 28.0136 212.478 27.7891 211.692 27.3402C210.906 26.8752 210.297 26.2098 209.864 25.344C209.431 24.4783 209.215 23.4601 209.215 22.2897V14.4494H213.304V21.7366C213.304 22.6344 213.536 23.3318 214.001 23.8289C214.466 24.3259 215.091 24.5745 215.877 24.5745C216.678 24.5745 217.312 24.3259 217.777 23.8289C218.242 23.3318 218.474 22.6344 218.474 21.7366V14.4494H222.587ZM238.191 20.9429C238.191 21.3277 238.167 21.7285 238.119 22.1454H228.812C228.876 22.9791 229.14 23.6205 229.605 24.0694C230.086 24.5023 230.672 24.7187 231.361 24.7187C232.387 24.7187 233.101 24.2858 233.501 23.42H237.878C237.654 24.3019 237.245 25.0956 236.652 25.801C236.074 26.5065 235.345 27.0596 234.464 27.4605C233.582 27.8613 232.595 28.0617 231.505 28.0617C230.19 28.0617 229.02 27.7811 227.994 27.2199C226.968 26.6588 226.166 25.8571 225.589 24.8149C225.012 23.7728 224.723 22.5542 224.723 21.1594C224.723 19.7645 225.004 18.5459 225.565 17.5037C226.142 16.4616 226.944 15.6599 227.97 15.0987C228.996 14.5376 230.174 14.257 231.505 14.257C232.804 14.257 233.958 14.5296 234.968 15.0747C235.978 15.6198 236.764 16.3975 237.325 17.4076C237.903 18.4177 238.191 19.5961 238.191 20.9429ZM233.982 19.8607C233.982 19.1552 233.742 18.594 233.261 18.1771C232.78 17.7603 232.179 17.5518 231.457 17.5518C230.768 17.5518 230.183 17.7523 229.702 18.1531C229.236 18.5539 228.948 19.1231 228.835 19.8607H233.982Z" fill="#121212"/>
<path d="M37.7487 0H3.83815C2.24426 0 0.952148 1.29211 0.952148 2.886V36.7966C0.952148 38.3905 2.24426 39.6826 3.83815 39.6826H37.7487C39.3426 39.6826 40.6347 38.3905 40.6347 36.7966V2.886C40.6347 1.29211 39.3426 0 37.7487 0Z" fill="#121212"/>
<mask id="mask0_4191_6087" style="mask-type:luminance" maskUnits="userSpaceOnUse" x="8" y="6" width="15" height="26">
<path d="M9.51605 24.0268L21.5304 30.9639C21.8755 31.1632 22.1553 31.0017 22.1552 30.6032L22.1546 14.3735C22.1546 13.975 21.8749 13.4905 21.5298 13.2912L9.51538 6.35409C9.1703 6.15484 8.89057 6.31635 8.89058 6.71482L8.8912 22.9445C8.89121 23.343 9.17096 23.8276 9.51605 24.0268Z" fill="white"/>
</mask>
<g mask="url(#mask0_4191_6087)">
<path d="M9.51409 24.0268L21.5285 30.9639C21.8736 31.1632 22.1533 31.0017 22.1533 30.6032L22.1527 14.3735C22.1527 13.975 21.8729 13.4905 21.5278 13.2912L9.51343 6.35409C9.16834 6.15484 8.88861 6.31635 8.88863 6.71482L8.88924 22.9445C8.88926 23.343 9.16901 23.8276 9.51409 24.0268Z" fill="#121212" stroke="white" stroke-width="2.886"/>
</g>
<path d="M18.9775 24.3215L12.0647 20.33" stroke="white" stroke-width="1.443" stroke-linecap="round"/>
<path d="M18.9775 20.7871L12.0647 16.7956" stroke="white" stroke-width="1.443" stroke-linecap="round"/>
<path d="M18.9766 17.2527L12.0637 13.2612" stroke="white" stroke-width="1.443" stroke-linecap="round"/>
<mask id="mask1_4191_6087" style="mask-type:luminance" maskUnits="userSpaceOnUse" x="16" y="7" width="16" height="29">
<path d="M30.8358 7.87028L17.4949 15.5733C17.1499 15.7726 16.8701 16.2571 16.8701 16.6556L16.8694 34.6526C16.8694 35.0511 17.1491 35.2126 17.4942 35.0134L30.8351 27.3103C31.1802 27.1111 31.4599 26.6265 31.4599 26.228L31.4606 8.231C31.4606 7.83253 31.1809 7.67103 30.8358 7.87028Z" fill="white"/>
</mask>
<g mask="url(#mask1_4191_6087)">
<path d="M30.8358 7.87028L17.4949 15.5733C17.1499 15.7726 16.8701 16.2571 16.8701 16.6556L16.8694 34.6526C16.8694 35.0511 17.1491 35.2126 17.4942 35.0134L30.8351 27.3103C31.1802 27.1111 31.4599 26.6265 31.4599 26.228L31.4606 8.231C31.4606 7.83253 31.1809 7.67103 30.8358 7.87028Z" fill="#121212" stroke="white" stroke-width="2.886"/>
</g>
<path d="M20.3008 19.7114L28.0299 15.2486" stroke="white" stroke-width="1.443" stroke-linecap="round"/>
<path d="M20.3008 23.5994L28.0299 19.1366" stroke="white" stroke-width="1.443" stroke-linecap="round"/>
<path d="M26.5497 24.718L26.3198 24.432L26.4562 23.8833C26.4747 23.8085 26.4517 23.7513 26.401 23.7471L26.0289 23.7142L25.9605 23.2643C25.951 23.2031 25.9023 23.1814 25.8439 23.2123L25.4148 23.4407L25.1574 23.1926C25.1222 23.1587 25.0587 23.1774 25.0062 23.2369L24.6185 23.6736L24.2307 23.6844C24.1781 23.686 24.1148 23.7405 24.0795 23.8149L23.822 24.3603L23.3929 24.6274C23.3346 24.6637 23.2858 24.7417 23.2764 24.8139L23.2079 25.3427L22.8359 25.8052C22.7852 25.868 22.762 25.9518 22.7805 26.0053L22.9168 26.3965L22.687 26.9481C22.6557 27.0233 22.6637 27.0933 22.7059 27.1158L23.0157 27.28L22.9809 27.794C22.9762 27.8644 23.0131 27.9048 23.0693 27.8912L23.4817 27.7903L23.6495 28.1497C23.6725 28.1984 23.7302 28.2012 23.7874 28.1538L24.2082 27.8113L24.5402 27.9336C24.5628 27.9417 24.5905 27.9367 24.6182 27.9207C24.6459 27.9048 24.6734 27.8778 24.6961 27.8436L25.0282 27.3378L25.449 27.1945C25.5061 27.1755 25.564 27.1066 25.5869 27.0312L25.7548 26.4779L26.1673 26.1026C26.2234 26.0514 26.2604 25.9683 26.2556 25.9033L26.2209 25.4295L26.5307 24.9075C26.573 24.8363 26.581 24.7571 26.5497 24.718ZM25.5079 24.636L24.6465 26.6234C24.6139 26.6978 24.5635 26.7641 24.5134 26.793C24.4635 26.8219 24.4076 26.8218 24.372 26.8011L23.7397 26.4243C23.6965 26.3984 23.6965 26.3163 23.7397 26.2407L23.8958 25.9671C23.9389 25.8923 24.009 25.8518 24.0518 25.877L24.4633 26.1222L25.1421 24.5562C25.1762 24.4773 25.2454 24.4223 25.2956 24.4333L25.4786 24.4729C25.529 24.484 25.542 24.5574 25.5079 24.636Z" fill="white"/>
</g>
<defs>
<clipPath id="clip0_4191_6087">
<rect width="238.095" height="40" fill="white" transform="translate(0.952148)"/>
</clipPath>
</defs>
</svg>
