<svg width="164" height="40" viewBox="0 0 164 40" fill="none" xmlns="http://www.w3.org/2000/svg">
<g clip-path="url(#clip0_4157_5722)">
<mask id="mask0_4157_5722" style="mask-type:luminance" maskUnits="userSpaceOnUse" x="0" y="0" width="164" height="40">
<path d="M163.122 0H0.444336V39.8904H163.122V0Z" fill="white"/>
</mask>
<g mask="url(#mask0_4157_5722)">
<path d="M163.04 28.2813C161.787 28.626 160.682 28.7042 159.724 28.516C158.769 28.3277 158.024 27.8892 157.49 27.1991C156.973 26.5096 156.714 25.585 156.714 24.4246L156.739 17.958H154.27V15.9126H156.739V12.6912H159.067L159.042 15.9126H162.992V17.958H159.042L159.021 24.4006C159.021 24.9806 159.169 25.4431 159.467 25.7884C159.78 26.1331 160.234 26.3292 160.83 26.3761C161.426 26.4231 162.162 26.3052 163.038 26.023V28.2808H163.04V28.2813Z" fill="#121212"/>
<path d="M147.294 28.5634C146.119 28.5634 145.038 28.2733 144.051 27.6934C143.077 27.1129 142.31 26.3296 141.745 25.3418C141.182 24.3546 140.898 23.2808 140.898 22.1204C140.898 20.96 141.182 19.871 141.745 18.8988C142.325 17.9116 143.102 17.135 144.073 16.5712C145.06 15.9908 146.134 15.7014 147.294 15.7014C148.329 15.7014 149.294 15.9444 150.188 16.4305C151.095 16.9009 151.841 17.5512 152.42 18.3821C153.016 19.1971 153.393 20.1146 153.551 21.1331C153.69 21.8074 153.698 22.4266 153.572 22.9913H143.227C143.32 23.6808 143.556 24.2926 143.933 24.8251C144.324 25.3429 144.81 25.7424 145.391 26.0245C145.971 26.3067 146.606 26.4474 147.294 26.4474C148.031 26.4474 148.729 26.2911 149.388 25.9771C150.046 25.6641 150.587 25.2328 151.01 24.6842L153.103 25.2251C152.618 26.2279 151.826 27.0358 150.728 27.6465C149.647 28.2583 148.501 28.5639 147.294 28.5639V28.5634ZM151.269 21.1561C151.175 20.5448 150.939 19.9805 150.562 19.4626C150.201 18.9448 149.732 18.538 149.152 18.2397C148.588 17.9418 147.961 17.7927 147.271 17.7927C146.581 17.7927 145.922 17.9418 145.342 18.2397C144.763 18.5375 144.292 18.9448 143.932 19.4626C143.57 19.9795 143.335 20.5443 143.225 21.1561H151.269Z" fill="#121212"/>
<path d="M136.765 11.9158H139.116V28.3752H136.765V11.9158Z" fill="#121212"/>
<path d="M132.183 11.9158H134.534V28.3752H132.183V11.9158Z" fill="#121212"/>
<path d="M123.34 28.5634C122.117 28.5634 121.043 28.2578 120.118 27.646C119.193 27.0348 118.723 26.0861 118.707 24.8006C118.707 23.9854 118.895 23.2882 119.271 22.7077C119.664 22.1278 120.251 21.6802 121.035 21.3674C121.834 21.0377 122.814 20.8734 123.975 20.8734L127.878 20.8499V20.0276C127.878 19.2593 127.564 18.6788 126.938 18.2876C126.311 17.8799 125.519 17.6764 124.563 17.6764C123.763 17.6764 123.058 17.8257 122.446 18.1234C121.85 18.4212 121.483 18.9073 121.341 19.5811L119.06 19.6045C119.107 18.8056 119.374 18.115 119.859 17.5351C120.361 16.9401 121.02 16.4848 121.835 16.1713C122.65 15.8574 123.544 15.7009 124.515 15.7009C125.487 15.7009 126.467 15.8657 127.313 16.1948C128.175 16.5238 128.858 16.9938 129.359 17.6055C129.86 18.2167 130.111 18.9302 130.111 19.7449V28.3741H127.878V26.1404C127.549 26.7047 127 27.2533 126.232 27.7864C125.464 28.3032 124.499 28.5623 123.34 28.5623V28.5634ZM123.505 26.5884C124.242 26.5884 124.947 26.4079 125.621 26.0475C126.295 25.6872 126.836 25.2011 127.243 24.5899C127.667 23.9781 127.879 23.3122 127.879 22.5914H124.399C123.584 22.5914 122.918 22.7015 122.4 22.9205C121.899 23.1244 121.538 23.3981 121.319 23.7439C121.115 24.0887 121.029 24.4574 121.06 24.8486C121.123 25.4285 121.389 25.8676 121.859 26.1655C122.33 26.4475 122.878 26.5889 123.505 26.5889L123.505 26.5884Z" fill="#121212"/>
<path d="M96.7617 11.9158H99.2776L102.381 26.7763L105.814 11.9158H109.647L113.01 26.7529L116.09 11.9158H118.605L114.913 28.3752H111.033L107.741 13.2086L104.261 28.3752H100.405L96.7607 11.9158H96.7611H96.7617Z" fill="#121212"/>
<path d="M84.2902 28.5634C83.1146 28.5634 82.0324 28.2733 81.0452 27.6934C80.073 27.1129 79.3054 26.3296 78.741 25.3418C78.1767 24.3546 77.8945 23.2808 77.8945 22.1204C77.8945 20.96 78.1767 19.871 78.741 18.8988C79.3215 17.9116 80.0975 17.135 81.0686 16.5712C82.0559 15.9908 83.1298 15.7014 84.2906 15.7014C85.3253 15.7014 86.2891 15.9444 87.1825 16.4305C88.0915 16.9009 88.8364 17.5512 89.4157 18.3821C90.0118 19.1971 90.3878 20.1146 90.5448 21.1331C90.6861 21.8074 90.6934 22.4266 90.5683 22.9913H80.2221C80.3161 23.6808 80.5508 24.2926 80.9273 24.8251C81.3189 25.3429 81.8056 25.7424 82.385 26.0245C82.9654 26.3067 83.5996 26.4474 84.2902 26.4474C85.027 26.4474 85.7244 26.2911 86.3831 25.9771C87.0412 25.6641 87.5825 25.2328 88.0054 24.6842L90.0985 25.2251C89.6124 26.2279 88.8206 27.0358 87.7234 27.6465C86.6422 28.2583 85.497 28.5639 84.2902 28.5639H84.2906L84.2902 28.5634ZM88.2642 21.1561C88.1703 20.5448 87.9345 19.9805 87.5591 19.4626C87.1987 18.9448 86.7283 18.538 86.1484 18.2397C85.584 17.9418 84.9572 17.7927 84.2671 17.7927C83.5772 17.7927 82.9185 17.9418 82.3391 18.2397C81.7591 18.5375 81.2887 18.9448 80.9283 19.4626C80.5675 19.9795 80.3333 20.5443 80.2232 21.1561H88.2652H88.2642Z" fill="#121212"/>
<path d="M66.7339 11.9158H69.0855V22.4268L75.152 15.9133H77.9741L72.6596 21.5802L78.1852 28.3758H75.4107L71.2249 23.1089L69.085 25.3665V28.3769H66.7334V11.9163L66.7339 11.9158Z" fill="#121212"/>
<path d="M57.9155 28.5634C56.6926 28.5634 55.6187 28.2578 54.6941 27.646C53.7693 27.0348 53.2989 26.0861 53.2832 24.8006C53.2832 23.9854 53.4715 23.2882 53.8475 22.7077C54.2397 22.1278 54.8275 21.6802 55.6108 21.3674C56.4098 21.0377 57.3898 20.8734 58.5502 20.8734L62.4539 20.8499V20.0276C62.4539 19.2593 62.1399 18.6788 61.513 18.2876C60.8862 17.8803 60.0945 17.6764 59.138 17.6764C58.3389 17.6764 57.6328 17.8257 57.0216 18.1234C56.4265 18.4212 56.0578 18.9073 55.917 19.5811L53.6357 19.6045C53.6832 18.8056 53.9498 18.115 54.4348 17.5351C54.9365 16.9401 55.5952 16.4848 56.4104 16.1713C57.2254 15.8574 58.1194 15.7009 59.0911 15.7009C60.0626 15.7009 61.0427 15.8657 61.889 16.1948C62.7517 16.5244 63.4333 16.9938 63.9345 17.6055C64.4361 18.2167 64.687 18.9302 64.687 19.7449V28.3741H62.4534V26.1404C62.1237 26.7047 61.5751 27.2533 60.8074 27.7864C60.0391 28.3032 59.0748 28.5623 57.9155 28.5623V28.5634ZM58.0804 26.5884C58.8172 26.5884 59.5228 26.4079 60.1967 26.0475C60.871 25.6872 61.4113 25.2011 61.8192 24.5899C62.2421 23.9786 62.4543 23.3122 62.4543 22.5914H58.9747C58.1595 22.5914 57.4931 22.7015 56.9762 22.9205C56.4745 23.1244 56.1136 23.3981 55.8946 23.7439C55.6907 24.0887 55.6046 24.4574 55.6359 24.8495C55.6985 25.4295 55.965 25.8687 56.4348 26.1664C56.9053 26.4486 57.4539 26.5899 58.0808 26.5899L58.0804 26.5884Z" fill="#121212"/>
<path d="M44.6431 28.493C43.1223 28.493 41.7193 28.1169 40.4343 27.3643C39.1649 26.6118 38.1609 25.5927 37.424 24.3076C36.687 23.0221 36.3184 21.6187 36.3184 20.099C36.3184 18.5791 36.687 17.1517 37.424 15.8667C38.1609 14.5811 39.1638 13.5626 40.4343 12.81C41.7198 12.0574 43.1223 11.6814 44.6431 11.6814C46.3203 11.6814 47.8255 12.144 49.1574 13.0692C50.4899 13.9939 51.485 15.2247 52.1437 16.7611L49.8161 17.4198C49.33 16.3695 48.6405 15.5387 47.7467 14.9274C46.8533 14.3162 45.8186 14.0106 44.6426 14.0106C43.5296 14.0106 42.5184 14.277 41.6093 14.8095C40.7159 15.3425 40.0103 16.0789 39.4929 17.0198C38.9912 17.9445 38.7403 18.9714 38.7403 20.0999C38.7403 21.2286 38.9912 22.2164 39.4929 23.1566C40.0097 24.0813 40.7159 24.8183 41.6093 25.3669C42.5184 25.8999 43.5296 26.166 44.6426 26.166C45.818 26.166 46.8454 25.8681 47.7227 25.2725C48.6161 24.6765 49.306 23.8613 49.7916 22.8266L52.1432 23.4617C51.4845 24.9669 50.4899 26.1815 49.1569 27.1062C47.8244 28.0309 46.3197 28.4939 44.6426 28.4939H44.6431V28.493Z" fill="#121212"/>
<path d="M27.1428 17.7726C26.7261 18.1882 26.3783 18.6159 26.1436 19.2433C25.9089 19.8706 25.7931 20.5528 25.6258 21.6324C25.3869 23.1694 24.9191 23.7738 24.5499 24.1546C23.7946 24.9332 22.7229 24.8894 21.4164 24.6312C20.595 24.469 20.3817 24.6645 19.4054 25.5079L14.259 30.6049L14.2568 38.3428C14.2568 38.482 14.4254 38.5519 14.524 38.4534L29.7249 23.2763C29.9299 23.0713 30.0457 22.7939 30.0463 22.5039L30.0655 14.8347L27.1433 17.7726H27.1428Z" fill="#121212"/>
<path d="M21.0095 22.6143C21.9999 22.643 22.6904 23.3589 23.5055 22.8458C24.3213 22.3321 24.2982 21.7595 24.4563 20.8134C24.6148 19.8674 24.9289 18.7664 25.2089 18.102C25.4894 17.437 26.1164 16.5874 26.7542 15.9679L30.0398 12.5492L30.0612 9.10503C30.0623 8.8938 29.8072 8.78742 29.6581 8.93657L14.7161 23.8784C14.4226 24.1721 14.2578 24.57 14.2578 24.9846V28.3756L19.3046 23.3094C19.3046 23.3094 20.0181 22.586 21.0085 22.6143H21.009H21.0095Z" fill="#121212"/>
<path d="M30.0649 6.28113L14.2578 22.131V18.7468C14.2578 18.3316 14.4226 17.9338 14.7161 17.6406L29.6617 2.69456C29.8104 2.54593 30.0649 2.65127 30.0649 2.86145V6.28061V6.28113Z" fill="#121212"/>
<path d="M28.8491 0.2586L2.08611 6.08932C1.12806 6.29793 0.444336 7.14646 0.444336 8.12746V27.6692C0.444336 27.9597 0.559594 28.2382 0.765078 28.4437L12.026 39.7046C12.256 39.9346 12.6492 39.7719 12.6492 39.4464L12.6508 18.5038C12.6508 17.8128 12.9251 17.1499 13.4138 16.6612L29.1849 0.872963C29.4426 0.615326 29.2047 0.180891 28.8491 0.258078V0.2586Z" fill="#121212"/>
</g>
</g>
<defs>
<clipPath id="clip0_4157_5722">
<rect width="162.712" height="40" fill="white" transform="translate(0.428711)"/>
</clipPath>
</defs>
</svg>
