<svg width="238" height="32" viewBox="0 0 238 32" fill="none" xmlns="http://www.w3.org/2000/svg">
<g clip-path="url(#clip0_4191_6160)">
<path d="M36.0757 23.7975C34.8063 23.063 33.8275 22.0223 33.1546 20.6756C32.4816 19.3289 32.1299 17.7832 32.1299 16.0233C32.1299 14.248 32.4816 12.6871 33.1699 11.3403C33.8581 9.99362 34.8369 8.96828 36.1063 8.2337C37.3757 7.49912 38.8592 7.13184 40.5569 7.13184C41.8874 7.13184 43.0651 7.392 44.1203 7.89702C45.1756 8.40204 46.0321 9.12131 46.6897 10.0548C47.3474 10.9884 47.7603 12.0902 47.9132 13.3298L44.5333 13.5135C44.2886 12.3657 43.7992 11.4781 43.0651 10.8506C42.3309 10.2232 41.4286 9.9018 40.3427 9.9018C39.3486 9.9018 38.4922 10.162 37.7733 10.6823C37.0545 11.2026 36.504 11.9219 36.1216 12.8401C35.7393 13.7583 35.5557 14.8296 35.5557 16.0233C35.5557 17.217 35.7393 18.2729 36.1216 19.2064C36.504 20.1247 37.0545 20.8439 37.7733 21.3643C38.4922 21.8693 39.3486 22.1294 40.3427 22.1294C41.4286 22.1294 42.3309 21.8234 43.0498 21.1959C43.7686 20.5685 44.258 19.6809 44.5027 18.5178L47.8827 18.6861C47.7144 19.9563 47.3015 21.0582 46.6438 21.9917C45.9862 22.9252 45.1297 23.6598 44.0745 24.1495C43.0192 24.6546 41.8415 24.8994 40.5263 24.8994C38.8439 24.8994 37.3451 24.5321 36.0757 23.7975Z" fill="#121212"/>
<path d="M50.1924 7.25415H53.5418V14.4622H60.9746V7.25415H64.3393V24.7616H60.9746V17.3393H53.5418V24.7616H50.1924V7.25415Z" fill="#121212"/>
<path d="M78.4867 20.6294H70.9009L69.5551 24.7614H66.0527L72.4609 7.26929H77.1103L83.5031 24.7614H79.8785L78.4867 20.6294ZM71.8033 17.9513H77.5997L74.8773 9.85561H74.495L71.8033 17.9513Z" fill="#121212"/>
<path d="M91.1803 10.1311V21.8843H94.3308V24.7461H84.665V21.8843H87.8156V10.1311H84.665V7.26929H94.3308V10.1311H91.1803Z" fill="#121212"/>
<path d="M96.8857 7.26929H100.755L109.044 19.6959H109.411V7.26929H112.73V24.7614H108.846L100.541 12.3195H100.189V24.7614H96.8857V7.26929Z" fill="#121212"/>
<path d="M118.526 24.1953C117.471 23.7209 116.645 23.0628 116.048 22.2058C115.452 21.3488 115.146 20.3541 115.131 19.2216L118.419 19.1298C118.48 20.1092 118.847 20.8744 119.52 21.41C120.193 21.9609 121.095 22.2364 122.212 22.2364C123.237 22.2364 124.063 22.0222 124.659 21.609C125.255 21.1958 125.561 20.5989 125.561 19.849C125.561 19.2675 125.363 18.7931 124.98 18.4564C124.598 18.1044 124.108 17.8443 123.512 17.6759C122.915 17.5076 122.074 17.3086 121.004 17.1097C119.704 16.8495 118.664 16.5434 117.884 16.1915C117.104 15.8395 116.523 15.3651 116.11 14.7529C115.712 14.1408 115.513 13.345 115.513 12.3502C115.513 11.2943 115.804 10.3761 116.385 9.58027C116.966 8.78448 117.746 8.17233 118.74 7.74383C119.734 7.31533 120.836 7.10107 122.044 7.10107C123.298 7.10107 124.414 7.31533 125.393 7.75913C126.372 8.20294 127.152 8.81509 127.718 9.61088C128.284 10.4067 128.574 11.3402 128.62 12.3961L125.347 12.5798C125.271 11.6922 124.934 11.0035 124.353 10.5138C123.772 10.0241 123.007 9.77922 122.059 9.77922C121.095 9.77922 120.331 9.97817 119.78 10.3761C119.214 10.774 118.939 11.3402 118.939 12.0748C118.939 12.641 119.107 13.0848 119.444 13.4215C119.78 13.7429 120.224 13.9877 120.759 14.1408C121.294 14.2938 122.044 14.4774 123.023 14.6611L123.328 14.7223C124.613 14.9672 125.668 15.2732 126.464 15.6252C127.259 15.9772 127.886 16.4516 128.314 17.0485C128.742 17.6453 128.957 18.4411 128.957 19.4052C128.957 20.5071 128.666 21.4712 128.07 22.2976C127.473 23.124 126.662 23.7668 125.638 24.2106C124.613 24.6544 123.451 24.884 122.166 24.884C120.79 24.8993 119.581 24.6697 118.526 24.1953Z" fill="#121212"/>
<path d="M131.281 7.26929H142.813V10.1311H134.631V14.5844H141.314V17.2626H134.631V21.8843H143.103V24.7461H131.281V7.26929Z" fill="#121212"/>
<path d="M148.395 23.7975C147.126 23.063 146.147 22.0223 145.474 20.6756C144.801 19.3289 144.449 17.7832 144.449 16.0233C144.449 14.248 144.801 12.6871 145.489 11.3403C146.177 9.99362 147.156 8.96828 148.426 8.2337C149.695 7.49912 151.179 7.13184 152.876 7.13184C154.207 7.13184 155.384 7.392 156.44 7.89702C157.495 8.40204 158.351 9.12131 159.009 10.0548C159.667 10.9884 160.08 12.0902 160.233 13.3298L156.853 13.5135C156.608 12.3657 156.119 11.4781 155.384 10.8506C154.65 10.2232 153.748 9.9018 152.662 9.9018C151.668 9.9018 150.811 10.162 150.093 10.6823C149.374 11.2026 148.823 11.9219 148.441 12.8401C148.059 13.7583 147.875 14.8296 147.875 16.0233C147.875 17.217 148.059 18.2729 148.441 19.2064C148.823 20.1247 149.374 20.8439 150.093 21.3643C150.811 21.8693 151.668 22.1294 152.662 22.1294C153.748 22.1294 154.65 21.8234 155.369 21.1959C156.088 20.5685 156.577 19.6809 156.822 18.5178L160.202 18.6861C160.034 19.9563 159.621 21.0582 158.963 21.9917C158.306 22.9252 157.449 23.6598 156.394 24.1495C155.339 24.6546 154.161 24.8994 152.846 24.8994C151.163 24.8994 149.664 24.5321 148.395 23.7975Z" fill="#121212"/>
<path d="M164.163 22.9862C162.97 21.7007 162.374 19.8336 162.374 17.3544V7.26929H165.754V17.5381C165.754 19.0684 166.045 20.2009 166.641 20.9355C167.222 21.6701 168.155 22.0526 169.44 22.0526C170.725 22.0526 171.657 21.6854 172.254 20.9355C172.85 20.2009 173.141 19.0684 173.141 17.5381V7.26929H176.521V17.3544C176.521 19.8336 175.924 21.7007 174.732 22.9862C173.539 24.2717 171.78 24.9144 169.455 24.9144C167.115 24.8991 165.356 24.2717 164.163 22.9862Z" fill="#121212"/>
<path d="M187.242 18.6093H182.838V24.7614H179.488V7.26929H186.875C188.114 7.26929 189.2 7.49884 190.148 7.97326C191.096 8.44767 191.83 9.10573 192.35 9.94743C192.87 10.8044 193.13 11.7992 193.13 12.9316C193.13 13.758 192.947 14.5079 192.595 15.1813C192.243 15.8547 191.708 16.4056 191.02 16.8341C190.332 17.2626 189.506 17.5381 188.527 17.6605V18.0431H190.638L194.079 24.7461H190.378L187.242 18.6093ZM186.585 15.8393C187.533 15.8393 188.298 15.5792 188.848 15.0589C189.414 14.5385 189.689 13.8346 189.689 12.9316C189.689 12.3348 189.567 11.8145 189.307 11.386C189.047 10.9575 188.695 10.6055 188.221 10.3759C187.747 10.1464 187.212 10.0239 186.585 10.0239H182.822V15.8393H186.585Z" fill="#121212"/>
<path d="M201.801 10.1311V21.8843H204.952V24.7461H195.286V21.8843H198.437V10.1311H195.286V7.26929H204.952V10.1311H201.801Z" fill="#121212"/>
<path d="M211.65 10.1311H206.45V7.26929H220.23V10.1311H215.045V24.7461H211.665V10.1311H211.65Z" fill="#121212"/>
<path d="M230.829 19.038V24.7616H227.465V19.0839L221.057 7.25415H225.002L228.933 15.4263H229.3L233.491 7.25415H237.238L230.829 19.038Z" fill="#121212"/>
<path d="M19.9719 13.2223L20.079 13.2835L20.1707 13.2223L22.5107 11.8603L22.8013 11.692L22.5107 11.5083L15.7967 7.33041L15.7508 7.2998H15.6896H14.3285H14.2673L14.2367 7.33041L7.8897 10.988L7.78264 11.0492V11.1716V13.5437V13.6661L7.8897 13.7274L18.2284 19.6805L15.0473 21.5322L10.0461 18.5174L9.93909 18.4562L9.83203 18.5174L7.40029 20.0784L7.125 20.2467L7.40029 20.4151L14.2367 24.6542L14.2826 24.6848H14.3437H15.7202H15.7814L15.8273 24.6542L22.1437 20.9966L22.2507 20.9354V20.813V18.4562V18.3338L22.1437 18.2725L11.8049 12.3347L15.0167 10.483L19.9719 13.2223Z" fill="#121212"/>
<path d="M20.1701 25.9244L20.063 25.8632L19.956 25.9244L15.0007 28.8015L3.89731 22.4046V9.59541L15.0007 3.18317L19.9865 5.89192L20.0783 5.93783L20.1701 5.89192L23.0606 4.34625L23.3971 4.17791L23.0606 3.99426L15.7654 0.0153037L15.7348 0H15.6889H14.3278H14.2666L14.236 0.0306074L1.55734 7.34577L1.51145 7.37637L1.48087 7.42229L0.792638 8.60067L0.777344 8.64658V8.7078V23.3228V23.384L0.807932 23.4299L1.49616 24.6083L1.52675 24.6542L1.57263 24.6848L14.236 31.9694L14.2819 32H14.3431H15.7042H15.7654L15.8113 31.9694L22.9077 27.8374L23.2136 27.6691L22.9077 27.5007L20.1701 25.9244Z" fill="#121212"/>
</g>
<defs>
<clipPath id="clip0_4191_6160">
<rect width="236.444" height="32" fill="white" transform="translate(0.777344)"/>
</clipPath>
</defs>
</svg>
