<svg width="54" height="54" viewBox="0 0 54 54" fill="none" xmlns="http://www.w3.org/2000/svg">
<g clip-path="url(#clip0_4191_6194)">
<circle cx="27" cy="27" r="27" fill="#F7911A"/>
<path d="M20.1411 14.5506C23.0904 14.4005 33.3011 15.2593 34.9825 15.5977C35.8037 15.7629 37.5318 16.321 37.3808 18.752C37.3257 19.6282 36.5184 22.6967 35.3475 24.2142C34.3493 25.5087 32.8661 25.7115 31.2255 24.7822C30.1242 24.1589 22.287 18.2646 20.7898 17.0015C20.5997 16.8404 20.0338 16.2719 19.5368 15.7966C18.6824 14.979 19.3567 14.5909 20.1411 14.5506Z" fill="white"/>
<path d="M19.3329 17.4939C23.2114 20.5198 26.5076 23.1811 30.0829 26.5772C31.1734 27.6128 31.7895 29.0621 30.9693 30.1302C30.0748 31.2949 28.7961 32.3 27.5623 32.9324C26.769 33.3388 25.3064 33.1425 24.7217 31.9513C23.4402 29.3444 21.5946 25.0816 20.4125 22.3143C20.1253 21.6408 18.5122 17.7386 18.4263 17.4887C18.1011 16.5375 19.2047 17.3923 19.334 17.4937L19.3329 17.4939Z" fill="white"/>
<path d="M14.609 34.656C14.5206 30.6582 15.2914 21.5649 15.8323 18.1525C16.0169 16.9875 16.8579 17.4226 17.1579 18.0792C17.7088 19.2822 22.3727 29.8712 23.1688 33.1868C23.527 34.6792 23.2794 35.1676 21.6987 35.9147C21.0855 36.2044 17.9041 37.1746 16.9049 37.2183C14.9272 37.3048 14.6256 35.3624 14.6101 34.6558L14.609 34.656Z" fill="white"/>
<path d="M15.6009 41.6375C15.3758 41.6092 15.1682 41.4975 15.0205 41.3263C14.6688 40.9172 14.3479 40.4103 14.1467 40.015C14.0505 39.8269 14.1811 39.6035 14.3913 39.5893C30.6383 38.5091 39.7604 27.4123 40.9309 17.3731C40.9679 17.0513 41.3568 16.9077 41.5936 17.1291C43.6814 19.0762 45.1213 21.442 45.615 22.3152C45.7406 22.5368 45.7761 22.7975 45.7178 23.0465C43.0137 34.562 28.1941 43.2398 15.6025 41.6395L15.6009 41.6375Z" fill="white"/>
</g>
<defs>
<clipPath id="clip0_4191_6194">
<rect width="54" height="54" fill="white"/>
</clipPath>
</defs>
</svg>
