<svg width="259" height="30" viewBox="0 0 259 30" fill="none" xmlns="http://www.w3.org/2000/svg">
<path d="M6.07849 24.3655C6.99499 25.9367 8.2335 27.1863 9.80641 28.1142C11.3793 29.0173 13.138 29.4627 15.0825 29.4627C16.6058 29.4627 18.0673 29.1534 19.4792 28.5348C20.8911 27.8915 22.1048 27.0131 23.1204 25.9119L23.2566 25.7635L19.925 22.2004L19.7764 22.3612C19.0952 23.0788 18.3893 23.6231 17.6338 23.9819C16.9155 24.316 16.1476 24.4892 15.3054 24.4892C14.3517 24.4892 13.4724 24.2541 12.6921 23.7963C11.9119 23.3138 11.2926 22.6581 10.8344 21.8292C10.4009 20.9755 10.1903 20.0353 10.1903 19.0084C10.1903 17.932 10.4133 16.9794 10.8344 16.1505C11.2926 15.3216 11.8871 14.6658 12.6302 14.1833C13.3857 13.7008 14.2403 13.4534 15.2063 13.4534C16.098 13.4534 16.9031 13.6513 17.6462 14.0349C18.4141 14.3937 19.1448 14.9751 19.8507 15.7669L19.9993 15.9402L23.4176 12.2657L23.2938 12.1172C22.2534 10.9543 21.0149 10.0635 19.5783 9.45725C18.1664 8.83866 16.6678 8.52936 15.1072 8.52936C13.1628 8.52936 11.4041 8.98712 9.83118 9.92739C8.25827 10.8553 7.01976 12.1049 6.10326 13.6761C5.18676 15.2473 4.72852 17.0289 4.72852 19.0084C4.72852 20.9879 5.18676 22.7447 6.09088 24.3407L6.07849 24.3655Z" fill="#121212"/>
<path d="M25.92 8.93773V29.0669L31.4314 23.3139V16.1382C31.9144 15.2598 32.5337 14.5793 33.3016 14.1092C34.0818 13.6267 34.9612 13.3793 35.9148 13.3793C36.3731 13.3793 36.8189 13.4288 37.2524 13.5277C37.6859 13.602 38.0698 13.7257 38.429 13.8865L38.7262 14.0226V9.02433L38.6272 8.96247C38.107 8.65318 37.3639 8.50471 36.4102 8.47997C35.2832 8.47997 34.28 8.71504 33.3759 9.18517C32.6451 9.5687 32.0011 10.0883 31.4438 10.744V8.93773H25.92Z" fill="#121212"/>
<path d="M59.9916 8.93792L65.4286 29.0918H70.6551L74.2592 16.9921L77.8633 29.0918H83.0526L88.5268 8.93792H83.3251L80.266 21.1367L76.6 8.93792H72.0175L68.3144 21.0996L65.2552 8.93792H59.9792H59.9916Z" fill="#121212"/>
<path fill-rule="evenodd" clip-rule="evenodd" d="M90.534 24.254C89.6423 22.6827 89.2088 20.9259 89.2088 18.9959C89.2088 17.0659 89.6547 15.3214 90.534 13.7749C91.4505 12.2037 92.6766 10.9665 94.2248 10.0633C95.7729 9.13545 97.5068 8.67769 99.4265 8.67769C100.417 8.67769 101.359 8.81378 102.275 9.09834C103.068 9.32103 103.811 9.6427 104.504 10.0633V2.19479L110.016 1.25452V29.0914H104.579V27.6686C103.031 28.7945 101.26 29.3512 99.2779 29.3512C97.4078 29.3512 95.711 28.8935 94.1876 27.9532C92.6643 27.0253 91.4505 25.7881 90.5464 24.2416L90.534 24.254ZM97.2963 14.2203C96.4913 14.6781 95.8472 15.3338 95.3642 16.1875C94.8936 17.0164 94.6459 17.9443 94.6459 18.9959C94.6459 20.0475 94.8812 20.9878 95.3642 21.8043C95.8472 22.6333 96.4913 23.289 97.2963 23.7715C98.1261 24.254 99.0674 24.5014 100.095 24.5014C101.012 24.5014 101.842 24.353 102.585 24.056C103.328 23.7467 103.959 23.3137 104.504 22.7322V15.2101C103.972 14.6781 103.328 14.2574 102.585 13.9481C101.817 13.6265 100.987 13.4656 100.095 13.4656C99.0674 13.4656 98.1261 13.7131 97.2963 14.1956V14.2203Z" fill="#121212"/>
<path d="M51.9165 8.78947C51.9784 8.80184 52.0527 8.82658 52.1146 8.83895L45.984 15.0992C45.3152 15.7178 44.8074 16.5343 44.5597 17.4746C44.0891 19.2438 44.4978 20.8645 45.6744 22.0893L41.9836 25.8628C39.5314 23.3513 38.5034 19.751 39.4818 16.1013C40.9433 10.6081 46.4794 7.30483 51.9289 8.7771L51.9165 8.78947Z" fill="#121212"/>
<path d="M51.7675 19.6024C51.3588 21.1489 49.7859 22.0645 48.2502 21.6438C46.7144 21.2232 45.8103 19.6519 46.219 18.1054C46.6277 16.5589 48.2006 15.6434 49.7364 16.0641C51.2721 16.4723 52.1763 18.056 51.7675 19.6024Z" fill="#121212"/>
<path d="M46.0219 29.0669C45.96 29.0545 45.8857 29.0298 45.8237 29.0174L52.0039 22.7572C52.6727 22.1386 53.1929 21.322 53.4406 20.3818C53.9112 18.6126 53.5025 16.9547 52.3135 15.7423L56.0167 11.9565C58.4937 14.468 59.5588 18.1053 58.568 21.7551C57.0942 27.2482 51.5209 30.5515 46.0219 29.0793V29.0669Z" fill="#121212"/>
<path d="M206.953 13.7256L203.782 29.0916H209.195L212.402 13.7256H217.542L218.508 8.95004H213.368L213.678 7.55201C213.851 6.77258 214.149 6.22821 214.57 5.89417C215.016 5.54776 215.647 5.37455 216.452 5.37455C216.91 5.37455 217.344 5.41167 217.753 5.4859C218.161 5.56013 218.57 5.67148 218.991 5.81994L219.214 5.90654L220.155 1.19283L220.007 1.1186C219.561 0.908274 218.979 0.747439 218.273 0.648463C217.592 0.549488 216.935 0.5 216.304 0.5C214.186 0.5 212.427 1.05674 211.065 2.17021C209.702 3.29606 208.811 4.90442 208.352 6.9829L207.907 8.96242H203.696L202.73 13.738H206.94L206.953 13.7256Z" fill="#121212"/>
<path d="M115.589 26.8277C115.737 27.1494 115.936 27.434 116.171 27.7061C117.199 28.832 118.846 29.364 121.051 29.364C121.633 29.364 122.264 29.3145 122.933 29.2155C123.602 29.1413 124.172 29.0547 124.63 28.9433L124.754 28.9186L125.745 24.2667L125.435 24.341C124.989 24.44 124.593 24.5142 124.221 24.5637C123.862 24.6132 123.478 24.6379 123.094 24.6379C122.041 24.6379 121.397 24.44 121.088 24.1059C120.778 23.7471 120.667 23.1409 120.84 22.2006L122.661 13.7011H128.061L129.039 8.96264H123.639L124.952 2.69006L119.255 3.96437L118.214 8.96264H114.301L113.322 13.7011H117.236L115.316 22.9924C115.155 23.7719 115.081 24.4894 115.13 25.1328C115.13 25.1328 115.143 25.7143 115.242 26.0607C115.329 26.3823 115.564 26.8401 115.564 26.8401L115.589 26.8277Z" fill="#121212"/>
<path d="M126.908 29.0916L131.131 8.9377H136.544L136.222 10.4966C136.829 9.9522 137.473 9.51918 138.178 9.18514C139.07 8.76449 140.024 8.55417 141.015 8.55417C142.105 8.55417 142.947 8.72738 143.541 9.12328L143.665 9.19751L142.637 14.1958L142.377 14.0102C142.167 13.8617 141.795 13.7133 141.262 13.5896C140.73 13.4411 140.222 13.3669 139.751 13.3669C137.906 13.3669 136.346 14.2081 135.07 15.9402L132.37 29.0916H126.908Z" fill="#121212"/>
<path fill-rule="evenodd" clip-rule="evenodd" d="M143.665 27.7928C144.904 28.8196 146.551 29.3145 148.595 29.3145C149.486 29.3145 150.328 29.2032 151.146 28.9681C151.815 28.7578 152.483 28.4609 153.14 28.0897L152.954 29.0918H158.292L160.781 17.0663C161.165 15.3218 161.091 13.8125 160.546 12.5382C160.001 11.2515 159.06 10.2741 157.735 9.59363C156.434 8.91317 154.787 8.5915 152.805 8.5915C151.616 8.5915 150.378 8.7276 149.078 9.01215C147.777 9.27196 146.39 9.69261 144.941 10.2741L144.768 10.3483L146.117 14.6414L146.316 14.5672C147.529 14.1094 148.545 13.7877 149.375 13.5898C150.229 13.3918 151.01 13.2928 151.716 13.2928C153.288 13.2928 154.329 13.6269 154.911 14.2455C155.505 14.827 155.716 15.7425 155.443 17.0415L155.27 17.821C154.527 17.5364 153.734 17.3014 152.892 17.1405C151.988 16.9673 151.072 16.8683 150.13 16.8683C148.421 16.8683 146.935 17.1405 145.696 17.6849C144.445 18.2293 143.479 18.9963 142.774 19.9861C142.105 20.9882 141.77 22.1883 141.77 23.5863C141.77 25.306 142.39 26.704 143.628 27.768L143.665 27.7928ZM150.316 25.2194C150.997 25.2194 151.641 25.1328 152.273 24.9596C152.867 24.774 153.437 24.5142 153.97 24.1925L154.552 21.5697C153.326 21.0006 152 20.716 150.539 20.716C149.4 20.716 148.508 20.9511 147.864 21.3965C147.245 21.8419 146.947 22.4233 146.947 23.1533C146.947 23.7843 147.22 24.2791 147.777 24.6379C148.384 25.0091 149.214 25.207 150.316 25.207V25.2194Z" fill="#121212"/>
<path d="M161.648 29.0917L165.835 8.93782H171.247L170.999 10.1255C172.535 9.13577 174.195 8.64089 175.978 8.64089C177.551 8.64089 178.889 9.01205 179.966 9.77911C181.068 10.5091 181.849 11.5236 182.282 12.7979C182.716 14.0846 182.765 15.5321 182.443 17.1528L181.502 22.1139L174.628 29.1041L176.944 17.5734C177.179 16.2991 177.006 15.3217 176.461 14.6042C175.916 13.8619 175.062 13.4783 173.873 13.4783C173.105 13.4783 172.386 13.6268 171.718 13.9113C171.086 14.1959 170.504 14.6165 169.959 15.1857L167.073 29.1165H161.661L161.648 29.0917Z" fill="#121212"/>
<path d="M183.681 26.8771C185.304 27.8916 185.328 28.003 186.926 28.5845C188.586 29.2031 190.32 29.5 192.14 29.5C193.726 29.5 195.162 29.2031 196.438 28.6092C197.701 27.9906 198.717 27.1617 199.46 26.1225C200.203 25.0708 200.574 23.8955 200.574 22.5965C200.574 21.2108 200.116 20.0355 199.212 19.0828C198.308 18.1302 197.008 17.4868 195.348 17.128L191.818 16.3362C191.013 16.163 190.456 15.9403 190.121 15.6929C189.824 15.4331 189.676 15.0991 189.676 14.6784C189.676 14.1464 189.899 13.7258 190.369 13.4165C190.84 13.0948 191.509 12.9216 192.376 12.9216C193.317 12.9216 194.27 13.1195 195.236 13.5154C196.227 13.8866 197.206 14.4433 198.159 15.1857L198.308 15.3094L201.367 11.8576L201.206 11.7215C200.042 10.7194 198.729 9.96469 197.268 9.44507C195.806 8.9007 194.283 8.64089 192.698 8.64089C191.112 8.64089 189.713 8.91307 188.511 9.45744C187.335 10.0018 186.431 10.7689 185.787 11.771C185.143 12.7484 184.821 13.9237 184.821 15.297C184.821 16.6703 185.242 17.9322 186.109 18.8849C186.988 19.8375 188.251 20.4808 189.861 20.8396L193.428 21.6314C194.134 21.8046 194.63 22.0273 194.952 22.2748C195.249 22.5098 195.398 22.8191 195.398 23.2027C195.398 23.747 195.125 24.2048 194.531 24.576C193.948 24.9471 193.181 25.1451 192.177 25.1451C191.112 25.1451 190.06 24.9224 189.019 24.477C188.796 24.378 188.61 24.3038 188.449 24.2419C187.905 24.0192 187.706 23.9079 187.05 23.4377L183.694 26.8648L183.681 26.8771Z" fill="#121212"/>
<path fill-rule="evenodd" clip-rule="evenodd" d="M221.976 28.2753C220.478 27.4463 219.301 26.3081 218.434 24.8606C217.567 23.3883 217.146 21.7305 217.146 19.8995C217.146 18.353 217.419 16.9054 217.976 15.5445C218.533 14.1836 219.301 12.9835 220.292 11.9567C221.283 10.905 222.422 10.0885 223.71 9.51938C224.998 8.92553 226.385 8.6286 227.847 8.6286C229.593 8.6286 231.141 9.04925 232.504 9.91529C233.854 10.7442 234.906 11.8824 235.674 13.3299C236.442 14.7775 236.814 16.46 236.814 18.353C236.814 18.6375 236.801 18.9344 236.777 19.2685C236.777 19.6149 236.727 20.1098 236.628 20.7655L236.603 20.9387H222.608C222.769 21.6439 223.041 22.2749 223.45 22.8316C223.896 23.4378 224.466 23.908 225.159 24.242C225.878 24.576 226.67 24.7493 227.562 24.7493C228.355 24.7493 229.11 24.6255 229.804 24.3781C230.497 24.1307 231.117 23.7966 231.637 23.3512L231.798 23.2275L234.869 26.8525L234.683 26.9886C233.482 27.8546 232.281 28.4856 231.092 28.8691C229.903 29.2526 228.59 29.4506 227.153 29.4506C225.234 29.4506 223.512 29.0547 221.989 28.2505L221.976 28.2753ZM222.93 16.8559H231.649C231.5 16.2002 231.253 15.6311 230.918 15.1363C230.534 14.5795 230.064 14.1465 229.494 13.8372C228.937 13.5279 228.293 13.3671 227.587 13.3671C226.881 13.3671 226.2 13.5279 225.556 13.8372C224.936 14.1465 224.391 14.5919 223.908 15.1486C223.512 15.6435 223.19 16.2002 222.93 16.8436V16.8559Z" fill="#121212"/>
<path d="M241.607 8.9377L237.384 29.0916H242.833L245.533 15.9402C246.809 14.2205 248.369 13.3669 250.215 13.3669C250.685 13.3669 251.193 13.4411 251.726 13.5896C252.258 13.7133 252.63 13.8617 252.84 14.0102L253.101 14.1958L254.129 9.19751L254.005 9.12328C253.41 8.73975 252.556 8.55417 251.478 8.55417C250.475 8.55417 249.534 8.76449 248.642 9.18514C247.936 9.50681 247.292 9.9522 246.685 10.4966L247.007 8.9377H241.595H241.607Z" fill="#121212"/>
</svg>
