<svg width="54" height="54" viewBox="0 0 54 54" fill="none" xmlns="http://www.w3.org/2000/svg">
<g clip-path="url(#clip0_4191_5927)">
<path d="M53.1825 33.534C49.5739 47.9976 34.9238 56.7999 20.4626 53.1908C6.00143 49.5906 -2.79947 34.938 0.80908 20.4745C4.41763 6.01087 19.0678 -2.80049 33.529 0.808657C47.9901 4.4178 56.8 19.0704 53.1915 33.534H53.1825Z" fill="#F7911A"/>
<path d="M35.0366 30.8967C34.6226 29.9337 34.0106 29.0607 33.2006 28.2687C32.3906 27.4857 31.5086 26.7477 30.5366 26.0547C29.5646 25.3617 28.6646 24.6957 27.8186 24.0477C26.9726 23.3997 26.3156 22.7517 25.8386 22.0947C25.3616 21.4377 25.2176 20.7537 25.3976 20.0247C25.6226 19.1337 26.1626 18.5397 27.0266 18.2427C27.8906 17.9457 28.9076 17.9457 30.0866 18.2427C30.7706 18.4137 31.5536 18.6747 32.0846 18.9987C34.4066 20.4207 34.2176 22.8597 34.2176 22.8597L34.3076 22.8867L36.6926 23.4807L37.7996 19.0437C37.7996 19.0437 35.8826 17.7837 34.4066 17.0547C33.5606 16.6317 32.5076 16.2087 31.5086 15.8757L32.6516 11.2857L29.8256 10.5837L28.6916 15.1377C27.4226 14.9127 26.2256 14.8587 25.1006 14.9847C23.6336 15.1377 22.4006 15.5787 21.3926 16.3077C20.3936 17.0277 19.7276 18.0357 19.4126 19.3227C19.1066 20.5467 19.1516 21.6357 19.5476 22.6077C19.9436 23.5797 20.5556 24.4617 21.3746 25.2717C22.1936 26.0727 23.0846 26.8107 24.0566 27.4947C25.0286 28.1697 25.9286 28.8447 26.7746 29.5017C27.6116 30.1587 28.2686 30.8247 28.7366 31.5087C29.2046 32.1837 29.3396 32.9217 29.1416 33.7227C28.8986 34.7127 28.2956 35.3427 27.3416 35.6307C26.3876 35.9187 25.3076 35.9097 24.1106 35.6127C23.6876 35.5047 23.1836 35.3247 22.6796 35.0997C21.2036 34.4607 20.1416 33.1827 19.8176 31.6977C19.7636 31.4547 19.7276 31.2927 19.7276 31.2927L17.2526 30.6717L16.1816 34.9737C16.9106 35.4777 17.6396 36.0177 19.1516 36.7827C20.4296 37.4307 21.4736 37.8807 22.9316 38.2857L21.8246 42.7317L24.6506 43.4337L25.7846 38.8707C26.8466 39.0057 27.8816 39.0327 28.8716 38.9337C30.4736 38.7717 31.8416 38.2947 32.9666 37.5027C34.0916 36.7107 34.8296 35.6037 35.1896 34.1727C35.4956 32.9487 35.4416 31.8597 35.0276 30.8967H35.0366Z" fill="white"/>
</g>
<defs>
<clipPath id="clip0_4191_5927">
<rect width="54" height="54" fill="white"/>
</clipPath>
</defs>
</svg>
