<svg width="181" height="32" viewBox="0 0 181 32" fill="none" xmlns="http://www.w3.org/2000/svg">
<g clip-path="url(#clip0_4191_6298)">
<path d="M52.856 20.1918C52.6426 20.5491 52.376 20.8531 52.0506 21.1038C51.7253 21.3545 51.3626 21.5465 50.952 21.6745C50.5466 21.8078 50.104 21.8718 49.624 21.8718C48.7653 21.8718 48.0133 21.6638 47.3626 21.2425C46.712 20.8265 46.2053 20.2025 45.8373 19.3811C45.4693 18.5598 45.288 17.5465 45.288 16.3465C45.288 15.1465 45.4693 14.1651 45.8266 13.3385C46.184 12.5118 46.6906 11.8825 47.352 11.4505C48.008 11.0185 48.7706 10.7998 49.6346 10.7998C50.1146 10.7998 50.5573 10.8638 50.968 10.9971C51.3786 11.1305 51.7413 11.3171 52.0613 11.5678C52.376 11.8185 52.6426 12.1225 52.856 12.4745C53.0693 12.8318 53.2133 13.2318 53.288 13.6905H56.7493C56.6213 12.7571 56.36 11.9251 55.9546 11.1891C55.5493 10.4531 55.032 9.83447 54.3973 9.32247C53.7626 8.8158 53.0373 8.42647 52.2213 8.16514C51.4053 7.89847 50.52 7.76514 49.5706 7.76514C48.1093 7.76514 46.792 8.10114 45.6186 8.77314C44.4453 9.44514 43.5226 10.4211 42.84 11.7011C42.1626 12.9811 41.8213 14.5278 41.8213 16.3411C41.8213 18.1545 42.1573 19.6905 42.8346 20.9651C43.512 22.2398 44.4346 23.2158 45.6026 23.8878C46.7706 24.5598 48.0933 24.8958 49.5706 24.8958C50.6213 24.8958 51.5706 24.7358 52.4133 24.4158C53.256 24.0958 53.9866 23.6531 54.5946 23.0931C55.208 22.5331 55.6986 21.8985 56.0666 21.1891C56.4346 20.4798 56.664 19.7385 56.7546 18.9705H53.2933C53.2133 19.4185 53.064 19.8238 52.8506 20.1811L52.856 20.1918Z" fill="white"/>
<path d="M62.8297 12.1597H59.4697V24.677H62.8297V12.1597Z" fill="white"/>
<path d="M61.1496 7.07715C60.6429 7.07715 60.2109 7.24248 59.8482 7.57848C59.4856 7.91448 59.3096 8.31981 59.3096 8.79981C59.3096 9.27981 59.4909 9.68515 59.8482 10.0211C60.2056 10.3571 60.6376 10.5225 61.1496 10.5225C61.6616 10.5225 62.0936 10.3571 62.4562 10.0211C62.8189 9.68515 63.0002 9.27981 63.0002 8.79981C63.0002 8.31981 62.8189 7.90382 62.4562 7.57315C62.0936 7.24248 61.6616 7.07715 61.1496 7.07715Z" fill="white"/>
<path d="M71.8369 22.1329C71.6076 22.1649 71.4262 22.1809 71.2982 22.1809C70.8876 22.1809 70.5942 22.0849 70.4182 21.8929C70.2422 21.7009 70.1569 21.4076 70.1569 21.0129V14.7196H72.4982V12.1542H70.1569V9.17822H66.7969V12.1542H65.0742V14.7196H66.7969V21.3062C66.7969 22.4476 67.1276 23.3276 67.7942 23.9356C68.4609 24.5489 69.4156 24.8529 70.6742 24.8529C71.0102 24.8529 71.3622 24.8316 71.7302 24.7836C72.0982 24.7409 72.4716 24.6609 72.8449 24.5489L72.3649 22.0316C72.2476 22.0636 72.0716 22.0956 71.8369 22.1276V22.1329Z" fill="white"/>
<path d="M81.4747 11.9941C80.7707 11.9941 80.152 12.1915 79.608 12.5861C79.0693 12.9808 78.68 13.5675 78.4507 14.3461H78.3173V12.1648H75.0693V24.6821H78.4293V17.5621C78.4293 17.0395 78.5413 16.5808 78.7707 16.1915C79 15.8021 79.3147 15.4928 79.7253 15.2741C80.136 15.0555 80.5947 14.9435 81.1013 14.9435C81.3573 14.9435 81.624 14.9595 81.9067 14.9861C82.1893 15.0181 82.408 15.0555 82.5573 15.1088V12.1061C82.4027 12.0688 82.2213 12.0421 82.024 12.0208C81.8267 12.0048 81.64 11.9941 81.4693 11.9941H81.4747Z" fill="white"/>
<path d="M92.691 19.4077C92.691 19.9623 92.5897 20.4317 92.3817 20.8263C92.1737 21.221 91.891 21.5143 91.523 21.7223C91.155 21.9303 90.7337 22.0317 90.259 22.0317C89.555 22.0317 89.0057 21.813 88.6004 21.3703C88.195 20.9277 87.9977 20.3197 87.9977 19.5463V12.165H84.6377V20.1277C84.6377 21.1037 84.8137 21.9463 85.171 22.6503C85.5284 23.3543 86.0297 23.8983 86.675 24.2717C87.3257 24.6503 88.083 24.837 88.947 24.837C89.987 24.837 90.8404 24.5543 91.5177 23.9837C92.083 23.509 92.5204 22.8583 92.8404 22.0423L92.8777 24.677H96.0457V12.1597H92.6857V19.4023L92.691 19.4077Z" fill="white"/>
<path d="M105.763 17.4347L103.512 16.9867C102.92 16.8694 102.504 16.6987 102.264 16.4854C102.019 16.2667 101.902 16 101.902 15.68C101.902 15.3014 102.088 14.992 102.462 14.7627C102.835 14.5334 103.299 14.416 103.848 14.416C104.462 14.416 104.947 14.5547 105.31 14.8267C105.672 15.0987 105.918 15.4507 106.046 15.872L109.022 15.344C108.872 14.6667 108.574 14.0747 108.126 13.5734C107.678 13.072 107.091 12.688 106.366 12.416C105.64 12.144 104.787 12.0054 103.8 12.0054C102.739 12.0054 101.816 12.16 101.032 12.4747C100.248 12.7894 99.6349 13.232 99.1976 13.8134C98.7549 14.3894 98.5363 15.0827 98.5363 15.888C98.5363 16.8214 98.8349 17.584 99.4323 18.176C100.03 18.768 100.931 19.1894 102.142 19.4347L104.302 19.8827C104.846 19.9947 105.251 20.1547 105.518 20.3627C105.784 20.5707 105.918 20.8427 105.918 21.168C105.918 21.5414 105.731 21.8507 105.358 22.0907C104.984 22.336 104.483 22.4534 103.848 22.4534C103.16 22.4534 102.611 22.3094 102.2 22.016C101.79 21.7227 101.502 21.2907 101.336 20.704L98.2109 21.2427C98.3549 22.0214 98.6696 22.6827 99.1656 23.232C99.6616 23.7814 100.291 24.1974 101.07 24.4854C101.848 24.7734 102.739 24.9174 103.747 24.9174C104.846 24.9174 105.811 24.7467 106.654 24.4C107.496 24.0534 108.152 23.5787 108.632 22.96C109.112 22.3414 109.347 21.6267 109.347 20.8054C109.347 19.9094 109.054 19.184 108.462 18.6294C107.87 18.0747 106.974 17.6694 105.763 17.424V17.4347Z" fill="white"/>
<path d="M125.79 8.99681C124.584 8.33014 123.144 7.99414 121.475 7.99414H115.55V24.6768H121.406C123.102 24.6768 124.558 24.3408 125.774 23.6741C126.99 23.0075 127.923 22.0475 128.574 20.7995C129.224 19.5515 129.55 18.0581 129.55 16.3195C129.55 14.5808 129.224 13.0981 128.574 11.8555C127.923 10.6128 126.995 9.65814 125.79 8.98614V8.99681ZM125.592 19.3915C125.224 20.1915 124.68 20.7781 123.95 21.1621C123.224 21.5408 122.323 21.7328 121.246 21.7328H118.963V10.9381H121.272C122.339 10.9381 123.235 11.1301 123.955 11.5088C124.675 11.8875 125.219 12.4795 125.592 13.2741C125.96 14.0688 126.147 15.0875 126.147 16.3248C126.147 17.5621 125.966 18.5968 125.598 19.3915H125.592Z" fill="white"/>
<path d="M141.08 12.816C140.168 12.2774 139.08 12.0054 137.816 12.0054C136.552 12.0054 135.475 12.2774 134.558 12.816C133.64 13.36 132.931 14.112 132.435 15.0774C131.939 16.0427 131.688 17.1787 131.688 18.4747C131.688 19.7707 131.939 20.8854 132.435 21.8507C132.931 22.816 133.64 23.5734 134.558 24.112C135.475 24.656 136.563 24.9227 137.816 24.9227C139.07 24.9227 140.168 24.6507 141.08 24.112C141.992 23.5734 142.702 22.816 143.198 21.8507C143.694 20.8854 143.944 19.76 143.944 18.4747C143.944 17.1894 143.694 16.0427 143.198 15.0774C142.702 14.112 141.998 13.3547 141.08 12.816ZM140.222 20.4214C140.019 20.9974 139.72 21.456 139.315 21.7867C138.91 22.1174 138.414 22.2827 137.816 22.2827C137.219 22.2827 136.723 22.1174 136.323 21.7867C135.923 21.456 135.624 20.9974 135.422 20.4214C135.219 19.8454 135.118 19.1894 135.118 18.4694C135.118 17.7494 135.219 17.072 135.422 16.496C135.624 15.92 135.923 15.472 136.323 15.1414C136.723 14.8107 137.219 14.6507 137.816 14.6507C138.414 14.6507 138.915 14.816 139.315 15.1414C139.72 15.472 140.019 15.92 140.222 16.496C140.424 17.072 140.526 17.728 140.526 18.4694C140.526 19.2107 140.424 19.8454 140.222 20.4214Z" fill="white"/>
<path d="M149.662 7.99414H146.302V24.6768H149.662V7.99414Z" fill="white"/>
<path d="M156.083 7.99414H152.723V24.6768H156.083V7.99414Z" fill="white"/>
<path d="M168.067 12.992C167.565 12.656 166.995 12.4107 166.36 12.2454C165.725 12.0854 165.069 12.0054 164.387 12.0054C163.459 12.0054 162.627 12.1387 161.885 12.4107C161.144 12.6827 160.52 13.0667 160.019 13.5734C159.517 14.08 159.16 14.6987 158.941 15.4187L162.019 15.936C162.115 15.6694 162.264 15.424 162.467 15.2107C162.669 14.992 162.931 14.8214 163.251 14.688C163.571 14.56 163.949 14.4907 164.381 14.4907C164.813 14.4907 165.165 14.5547 165.459 14.688C165.752 14.8214 165.971 15.008 166.12 15.2534C166.269 15.4987 166.344 15.8027 166.344 16.16V16.2134C166.344 16.48 166.243 16.688 166.035 16.8214C165.827 16.96 165.507 17.0614 165.059 17.1254C164.616 17.1894 164.029 17.2587 163.304 17.3334C162.685 17.392 162.093 17.4987 161.528 17.648C160.963 17.7974 160.461 18.016 160.019 18.2987C159.576 18.5814 159.224 18.96 158.968 19.4294C158.712 19.8987 158.584 20.48 158.584 21.1787C158.584 22.0054 158.765 22.6987 159.128 23.2534C159.491 23.808 159.987 24.2294 160.616 24.5067C161.245 24.784 161.96 24.928 162.749 24.928C163.368 24.928 163.917 24.8427 164.392 24.672C164.867 24.5014 165.272 24.2667 165.608 23.9734C165.944 23.68 166.211 23.3387 166.413 22.9494H166.525V24.6827H169.704V16.2507C169.704 15.488 169.555 14.8374 169.261 14.304C168.968 13.7654 168.568 13.328 168.061 12.992H168.067ZM166.371 20.2027C166.371 20.6454 166.259 21.04 166.035 21.4027C165.811 21.7654 165.501 22.0427 165.101 22.256C164.701 22.464 164.237 22.5707 163.709 22.5707C163.336 22.5707 163.011 22.5174 162.728 22.4054C162.445 22.2934 162.227 22.128 162.061 21.9094C161.896 21.6907 161.816 21.4187 161.816 21.0987C161.816 20.7574 161.901 20.4747 162.072 20.2507C162.243 20.032 162.488 19.8507 162.797 19.7174C163.107 19.584 163.475 19.488 163.885 19.424C164.072 19.4027 164.285 19.3707 164.525 19.3334C164.765 19.296 165.005 19.2534 165.251 19.2107C165.496 19.168 165.72 19.1147 165.923 19.056C166.125 18.9974 166.275 18.928 166.371 18.8534V20.208V20.2027Z" fill="white"/>
<path d="M179.603 12.0208C179.405 12.0048 179.219 11.9941 179.048 11.9941C178.344 11.9941 177.725 12.1915 177.181 12.5861C176.637 12.9808 176.253 13.5675 176.024 14.3461H175.891V12.1648H172.643V24.6821H176.003V17.5621C176.003 17.0395 176.115 16.5808 176.344 16.1915C176.573 15.8021 176.893 15.4928 177.299 15.2741C177.709 15.0555 178.168 14.9435 178.675 14.9435C178.931 14.9435 179.197 14.9595 179.48 14.9861C179.763 15.0181 179.981 15.0555 180.131 15.1088V12.1061C179.976 12.0688 179.795 12.0421 179.597 12.0208H179.603Z" fill="white"/>
<path d="M31.5155 19.872C29.3771 28.443 20.6956 33.6592 12.126 31.5205C3.5564 29.387 -1.65894 20.704 0.479455 12.133C2.61785 3.562 11.2994 -1.65955 19.869 0.479204C28.4386 2.61796 33.6593 11.301 31.5209 19.872H31.5155Z" fill="#F7911A"/>
<path d="M20.7622 18.3093C20.5169 17.7386 20.1542 17.2213 19.6742 16.752C19.1942 16.288 18.6715 15.8506 18.0955 15.44C17.5195 15.0293 16.9862 14.6346 16.4849 14.2506C15.9835 13.8666 15.5942 13.4826 15.3115 13.0933C15.0289 12.704 14.9435 12.2986 15.0502 11.8666C15.1835 11.3386 15.5035 10.9866 16.0155 10.8106C16.5275 10.6346 17.1302 10.6346 17.8289 10.8106C18.2342 10.912 18.6982 11.0666 19.0129 11.2586C20.3889 12.1013 20.2769 13.5466 20.2769 13.5466L20.3302 13.5626L21.7435 13.9146L22.3995 11.2853C22.3995 11.2853 21.2635 10.5386 20.3889 10.1066C19.8875 9.85597 19.2635 9.6053 18.6715 9.40797L19.3489 6.68797L17.6742 6.27197L17.0022 8.97064C16.2502 8.8373 15.5409 8.80531 14.8742 8.87997C14.0049 8.97064 13.2742 9.23197 12.6769 9.66397C12.0849 10.0906 11.6902 10.688 11.5035 11.4506C11.3222 12.176 11.3489 12.8213 11.5835 13.3973C11.8182 13.9733 12.1809 14.496 12.6662 14.976C13.1515 15.4506 13.6795 15.888 14.2555 16.2933C14.8315 16.6933 15.3649 17.0933 15.8662 17.4826C16.3622 17.872 16.7515 18.2666 17.0289 18.672C17.3062 19.072 17.3862 19.5093 17.2689 19.984C17.1249 20.5706 16.7675 20.944 16.2022 21.1146C15.6369 21.2853 14.9969 21.28 14.2875 21.104C14.0369 21.04 13.7382 20.9333 13.4395 20.8C12.5649 20.4213 11.9355 19.664 11.7435 18.784C11.7115 18.64 11.6902 18.544 11.6902 18.544L10.2235 18.176L9.58887 20.7253C10.0209 21.024 10.4529 21.344 11.3489 21.7973C12.1062 22.1813 12.7249 22.448 13.5889 22.688L12.9329 25.3226L14.6075 25.7386L15.2795 23.0346C15.9089 23.1146 16.5222 23.1306 17.1089 23.072C18.0582 22.976 18.8689 22.6933 19.5355 22.224C20.2022 21.7546 20.6395 21.0986 20.8529 20.2506C21.0342 19.5253 21.0022 18.88 20.7569 18.3093H20.7622Z" fill="white"/>
</g>
<defs>
<clipPath id="clip0_4191_6298">
<rect width="180.267" height="32" fill="white"/>
</clipPath>
</defs>
</svg>
