<svg width="172" height="36" viewBox="0 0 172 36" fill="none" xmlns="http://www.w3.org/2000/svg">
<path d="M50.2505 24.7738C50.0477 25.1135 49.7941 25.4025 49.4848 25.6408C49.1755 25.8792 48.8308 26.0617 48.4403 26.1834C48.055 26.3101 47.6341 26.371 47.1778 26.371C46.3615 26.371 45.6465 26.1732 45.0279 25.7727C44.4093 25.3772 43.9277 24.7839 43.5778 24.0031C43.2279 23.2223 43.0555 22.2589 43.0555 21.118C43.0555 19.9772 43.2279 19.0442 43.5677 18.2583C43.9074 17.4724 44.3891 16.8741 45.0178 16.4634C45.6415 16.0527 46.3665 15.8448 47.1879 15.8448C47.6443 15.8448 48.0651 15.9056 48.4555 16.0324C48.846 16.1592 49.1908 16.3366 49.495 16.5749C49.7941 16.8132 50.0477 17.1022 50.2505 17.4369C50.4533 17.7766 50.5902 18.1569 50.6612 18.593H53.9519C53.8302 17.7056 53.5817 16.9146 53.1964 16.2149C52.811 15.5152 52.3192 14.927 51.7158 14.4403C51.1124 13.9586 50.4229 13.5884 49.6471 13.34C48.8713 13.0865 48.0296 12.9597 47.1271 12.9597C45.7378 12.9597 44.4854 13.2792 43.3699 13.918C42.2544 14.5569 41.3772 15.4848 40.7282 16.7017C40.0843 17.9186 39.7598 19.389 39.7598 21.113C39.7598 22.8369 40.0792 24.2972 40.7231 25.509C41.3671 26.7208 42.2443 27.6487 43.3547 28.2876C44.4651 28.9265 45.7226 29.2459 47.1271 29.2459C48.126 29.2459 49.0285 29.0938 49.8296 28.7896C50.6308 28.4854 51.3254 28.0645 51.9034 27.5321C52.4865 26.9997 52.953 26.3963 53.3029 25.722C53.6527 25.0476 53.8708 24.3428 53.9569 23.6127H50.6662C50.5902 24.0386 50.4482 24.4239 50.2454 24.7637L50.2505 24.7738Z" fill="#2A2F30"/>
<path d="M59.7325 17.1379H56.5381V29.0382H59.7325V17.1379Z" fill="#2A2F30"/>
<path d="M58.135 12.3059C57.6534 12.3059 57.2426 12.4631 56.8979 12.7825C56.5531 13.102 56.3857 13.4873 56.3857 13.9437C56.3857 14.4 56.5581 14.7853 56.8979 15.1048C57.2376 15.4242 57.6483 15.5814 58.135 15.5814C58.6218 15.5814 59.0325 15.4242 59.3773 15.1048C59.7221 14.7853 59.8945 14.4 59.8945 13.9437C59.8945 13.4873 59.7221 13.0918 59.3773 12.7775C59.0325 12.4631 58.6218 12.3059 58.135 12.3059Z" fill="#2A2F30"/>
<path d="M68.2955 26.6195C68.0775 26.6499 67.9051 26.6652 67.7834 26.6652C67.393 26.6652 67.1141 26.5739 66.9468 26.3914C66.7794 26.2088 66.6983 25.9299 66.6983 25.5547V19.5716H68.9242V17.1328H66.6983V14.3035H63.504V17.1328H61.8662V19.5716H63.504V25.8336C63.504 26.9187 63.8183 27.7553 64.4521 28.3333C65.0859 28.9164 65.9935 29.2054 67.1902 29.2054C67.5096 29.2054 67.8442 29.1852 68.1941 29.1395C68.544 29.099 68.8989 29.0229 69.2538 28.9164L68.7975 26.5232C68.6859 26.5536 68.5186 26.584 68.2955 26.6145V26.6195Z" fill="#2A2F30"/>
<path d="M77.4587 16.9807C76.7894 16.9807 76.2013 17.1683 75.6841 17.5435C75.172 17.9187 74.8018 18.4765 74.5838 19.2168H74.457V17.143H71.3691V29.0432H74.5635V22.2742C74.5635 21.7773 74.67 21.3413 74.888 20.9711C75.106 20.601 75.4052 20.3069 75.7956 20.099C76.186 19.8911 76.6221 19.7847 77.1038 19.7847C77.3472 19.7847 77.6007 19.7999 77.8694 19.8252C78.1382 19.8556 78.346 19.8911 78.488 19.9418V17.0872C78.341 17.0517 78.1686 17.0263 77.981 17.0061C77.7934 16.9909 77.6159 16.9807 77.4536 16.9807H77.4587Z" fill="#2A2F30"/>
<path d="M88.1212 24.0286C88.1212 24.556 88.0248 25.0022 87.8271 25.3774C87.6294 25.7526 87.3606 26.0315 87.0108 26.2292C86.6609 26.427 86.2603 26.5233 85.8091 26.5233C85.1398 26.5233 84.6175 26.3154 84.2322 25.8946C83.8468 25.4737 83.6592 24.8957 83.6592 24.1605V17.143H80.4648V24.7132C80.4648 25.641 80.6322 26.4422 80.9719 27.1115C81.3116 27.7808 81.7882 28.2979 82.4017 28.6529C83.0203 29.0129 83.7403 29.1903 84.5617 29.1903C85.5505 29.1903 86.3618 28.9216 87.0057 28.3791C87.5432 27.9278 87.9589 27.3092 88.2632 26.5334L88.2986 29.0382H91.3105V17.1379H88.1161V24.0236L88.1212 24.0286Z" fill="#2A2F30"/>
<path d="M100.549 22.1527L98.4091 21.7267C97.8463 21.6152 97.4508 21.4529 97.2227 21.2501C96.9894 21.0422 96.8779 20.7887 96.8779 20.4845C96.8779 20.1245 97.0553 19.8304 97.4103 19.6124C97.7652 19.3943 98.2063 19.2828 98.7286 19.2828C99.3117 19.2828 99.7731 19.4146 100.118 19.6732C100.463 19.9318 100.696 20.2665 100.818 20.667L103.647 20.1651C103.505 19.5211 103.221 18.9583 102.795 18.4817C102.369 18.0051 101.811 17.64 101.122 17.3814C100.432 17.1228 99.621 16.991 98.6829 16.991C97.6739 16.991 96.7968 17.138 96.0514 17.4372C95.306 17.7363 94.7229 18.1572 94.3072 18.7098C93.8863 19.2574 93.6784 19.9166 93.6784 20.6822C93.6784 21.5696 93.9624 22.2946 94.5303 22.8574C95.0982 23.4203 95.9551 23.8208 97.106 24.0541L99.1596 24.48C99.6768 24.5865 100.062 24.7386 100.316 24.9363C100.569 25.1341 100.696 25.3927 100.696 25.702C100.696 26.0569 100.518 26.351 100.164 26.5791C99.8086 26.8124 99.332 26.9239 98.7286 26.9239C98.0745 26.9239 97.5522 26.787 97.1618 26.5082C96.7714 26.2293 96.4976 25.8186 96.3404 25.2608L93.3691 25.7729C93.506 26.5132 93.8052 27.142 94.2768 27.6642C94.7483 28.1865 95.3466 28.582 96.0869 28.8558C96.8272 29.1296 97.6739 29.2665 98.6322 29.2665C99.6767 29.2665 100.594 29.1042 101.396 28.7746C102.197 28.4451 102.82 27.9938 103.277 27.4056C103.733 26.8174 103.956 26.138 103.956 25.3572C103.956 24.5053 103.677 23.8158 103.114 23.2884C102.552 22.7611 101.7 22.3758 100.549 22.1425V22.1527Z" fill="#2A2F30"/>
<path d="M119.589 14.1312C118.443 13.4974 117.074 13.178 115.487 13.178H109.854V29.0383H115.421C117.033 29.0383 118.417 28.7188 119.574 28.085C120.73 27.4512 121.617 26.5385 122.235 25.3521C122.854 24.1656 123.163 22.7459 123.163 21.0929C123.163 19.44 122.854 18.0304 122.235 16.849C121.617 15.6676 120.735 14.76 119.589 14.1211V14.1312ZM119.401 24.0135C119.051 24.774 118.534 25.3318 117.839 25.6968C117.15 26.0569 116.293 26.2394 115.269 26.2394H113.099V15.9769H115.294C116.308 15.9769 117.16 16.1594 117.844 16.5194C118.529 16.8794 119.046 17.4422 119.401 18.1977C119.751 18.9532 119.928 19.9216 119.928 21.098C119.928 22.2743 119.756 23.258 119.406 24.0135H119.401Z" fill="#2A2F30"/>
<path d="M134.125 17.7617C133.258 17.2496 132.224 16.991 131.022 16.991C129.821 16.991 128.796 17.2496 127.924 17.7617C127.052 18.2789 126.378 18.9938 125.906 19.9115C125.435 20.8293 125.196 21.9093 125.196 23.1414C125.196 24.3735 125.435 25.4332 125.906 26.351C126.378 27.2687 127.052 27.9887 127.924 28.5008C128.796 29.018 129.831 29.2715 131.022 29.2715C132.214 29.2715 133.258 29.0129 134.125 28.5008C134.992 27.9887 135.667 27.2687 136.138 26.351C136.61 25.4332 136.848 24.3634 136.848 23.1414C136.848 21.9194 136.61 20.8293 136.138 19.9115C135.667 18.9938 134.997 18.2738 134.125 17.7617ZM133.309 24.9921C133.116 25.5397 132.832 25.9758 132.447 26.2901C132.062 26.6045 131.59 26.7617 131.022 26.7617C130.454 26.7617 129.983 26.6045 129.602 26.2901C129.222 25.9758 128.938 25.5397 128.746 24.9921C128.553 24.4445 128.457 23.8208 128.457 23.1363C128.457 22.4518 128.553 21.8079 128.746 21.2603C128.938 20.7127 129.222 20.2867 129.602 19.9724C129.983 19.658 130.454 19.5059 131.022 19.5059C131.59 19.5059 132.067 19.6631 132.447 19.9724C132.832 20.2867 133.116 20.7127 133.309 21.2603C133.502 21.8079 133.598 22.4315 133.598 23.1363C133.598 23.8411 133.502 24.4445 133.309 24.9921Z" fill="#2A2F30"/>
<path d="M142.284 13.178H139.089V29.0383H142.284V13.178Z" fill="#2A2F30"/>
<path d="M148.389 13.178H145.194V29.0383H148.389V13.178Z" fill="#2A2F30"/>
<path d="M159.781 17.929C159.305 17.6096 158.762 17.3763 158.159 17.2191C157.555 17.067 156.932 16.991 156.283 16.991C155.4 16.991 154.609 17.1177 153.905 17.3763C153.2 17.6349 152.607 18 152.13 18.4817C151.653 18.9634 151.314 19.5515 151.106 20.236L154.031 20.7279C154.123 20.4743 154.265 20.2411 154.457 20.0383C154.65 19.8304 154.899 19.6681 155.203 19.5414C155.507 19.4197 155.867 19.3538 156.278 19.3538C156.688 19.3538 157.023 19.4146 157.302 19.5414C157.581 19.6681 157.789 19.8456 157.931 20.0789C158.073 20.3121 158.144 20.6011 158.144 20.9408V20.9915C158.144 21.2451 158.047 21.4428 157.849 21.5696C157.652 21.7014 157.348 21.7977 156.922 21.8586C156.501 21.9194 155.943 21.9853 155.253 22.0563C154.665 22.1121 154.102 22.2135 153.565 22.3555C153.028 22.4974 152.551 22.7053 152.13 22.9741C151.709 23.2428 151.375 23.6028 151.131 24.049C150.888 24.4952 150.766 25.0479 150.766 25.7121C150.766 26.498 150.939 27.1572 151.283 27.6845C151.628 28.2118 152.1 28.6124 152.698 28.876C153.296 29.1397 153.976 29.2766 154.726 29.2766C155.314 29.2766 155.837 29.1955 156.288 29.0332C156.739 28.871 157.124 28.6479 157.444 28.369C157.763 28.0901 158.017 27.7656 158.209 27.3955H158.316V29.0434H161.338V21.027C161.338 20.302 161.196 19.6834 160.917 19.1763C160.638 18.6642 160.258 18.2484 159.776 17.929H159.781ZM158.169 24.7842C158.169 25.2051 158.062 25.5803 157.849 25.9251C157.637 26.2698 157.342 26.5335 156.962 26.7363C156.582 26.9341 156.141 27.0355 155.639 27.0355C155.284 27.0355 154.975 26.9848 154.706 26.8783C154.437 26.7718 154.229 26.6146 154.072 26.4067C153.915 26.1989 153.839 25.9403 153.839 25.636C153.839 25.3115 153.92 25.0428 154.082 24.8298C154.244 24.622 154.478 24.4496 154.772 24.3228C155.066 24.196 155.416 24.1048 155.806 24.0439C155.984 24.0236 156.186 23.9932 156.415 23.9577C156.643 23.9222 156.871 23.8817 157.104 23.8411C157.337 23.8005 157.55 23.7498 157.743 23.6941C157.936 23.6383 158.078 23.5724 158.169 23.5014V24.7893V24.7842Z" fill="#2A2F30"/>
<path d="M170.749 17.0061C170.562 16.9909 170.384 16.9807 170.222 16.9807C169.553 16.9807 168.964 17.1683 168.447 17.5435C167.93 17.9187 167.565 18.4765 167.347 19.2168H167.22V17.143H164.132V29.0432H167.327V22.2742C167.327 21.7773 167.433 21.3413 167.651 20.9711C167.869 20.601 168.173 20.3069 168.559 20.099C168.949 19.8911 169.385 19.7847 169.867 19.7847C170.11 19.7847 170.364 19.7999 170.633 19.8252C170.901 19.8556 171.109 19.8911 171.251 19.9418V17.0872C171.104 17.0517 170.932 17.0263 170.744 17.0061H170.749Z" fill="#2A2F30"/>
<path d="M25.1882 5.258C27.2864 4.49385 28.8264 2.87819 29.5606 0.941732C27.7545 -0.0688753 25.5351 -0.316635 23.4369 0.44621C21.3388 1.21036 19.7987 2.82602 19.0646 4.76248C20.8706 5.77308 23.0901 6.02084 25.1882 5.258Z" fill="#F7911A"/>
<path d="M15.2113 5.48355C6.81084 5.48355 0 12.2944 0 20.6948C0 29.0952 6.81084 35.9061 15.2113 35.9061C23.6117 35.9061 30.4225 29.0952 30.4225 20.6948C30.4225 12.2944 23.6117 5.48355 15.2113 5.48355Z" fill="#F7911A"/>
<path d="M19.7387 22.9842C19.5055 22.4417 19.1607 21.9499 18.7044 21.5037C18.248 21.0625 17.7511 20.6468 17.2035 20.2563C16.6559 19.8659 16.1489 19.4907 15.6723 19.1256C15.1956 18.7606 14.8255 18.3955 14.5568 18.0254C14.288 17.6552 14.2069 17.2699 14.3083 16.8592C14.4351 16.3572 14.7393 16.0225 15.2261 15.8552C15.7128 15.6879 16.2858 15.6879 16.95 15.8552C17.3354 15.9516 17.7765 16.0986 18.0756 16.2811C19.3838 17.0823 19.2773 18.4563 19.2773 18.4563L19.328 18.4716L20.6717 18.8062L21.2954 16.3065C21.2954 16.3065 20.2154 15.5966 19.3838 15.1859C18.9072 14.9476 18.314 14.7093 17.7511 14.5217L18.3951 11.9358L16.803 11.5403L16.1641 14.1059C15.4492 13.9792 14.7748 13.9487 14.141 14.0197C13.3145 14.1059 12.6199 14.3544 12.052 14.7651C11.4892 15.1707 11.114 15.7386 10.9365 16.4637C10.7641 17.1532 10.7895 17.7668 11.0125 18.3144C11.2356 18.862 11.5804 19.3589 12.0418 19.8152C12.5033 20.2665 13.0052 20.6823 13.5528 21.0676C14.1004 21.4479 14.6075 21.8282 15.0841 22.1983C15.5556 22.5685 15.9258 22.9437 16.1895 23.329C16.4531 23.7093 16.5292 24.1251 16.4176 24.5763C16.2807 25.1341 15.941 25.489 15.4035 25.6513C14.8661 25.8135 14.2576 25.8085 13.5833 25.6411C13.3449 25.5803 13.061 25.4789 12.7771 25.3521C11.9455 24.9921 11.3472 24.2721 11.1647 23.4355C11.1342 23.2986 11.114 23.2073 11.114 23.2073L9.71959 22.8575L9.11621 25.2811C9.52692 25.5651 9.93762 25.8693 10.7895 26.3003C11.5095 26.6654 12.0976 26.9189 12.919 27.147L12.2954 29.6518L13.8875 30.0473L14.5264 27.4766C15.1247 27.5527 15.7078 27.5679 16.2655 27.5121C17.168 27.4208 17.9387 27.1521 18.5726 26.7059C19.2064 26.2597 19.6221 25.6361 19.8249 24.8299C19.9973 24.1403 19.9669 23.5268 19.7337 22.9842H19.7387Z" fill="white"/>
</svg>
