<svg width="428" height="267" viewBox="0 0 428 267" fill="none" xmlns="http://www.w3.org/2000/svg">
<g clip-path="url(#clip0_6350_24279)">
<path d="M214.296 177.563L153.637 212.814L92.5825 177.563L153.241 142.312L214.296 177.563Z" stroke="#375153" stroke-width="0.881276" stroke-miterlimit="10"/>
<path d="M336.017 177.563L275.359 212.814L214.295 177.563L274.962 142.312L336.017 177.563Z" stroke="#375153" stroke-width="0.881276" stroke-miterlimit="10"/>
<path d="M274.962 142.312L214.295 177.563L153.24 142.312L213.898 107.061L274.962 142.312Z" stroke="#375153" stroke-width="0.881276" stroke-miterlimit="10"/>
<path d="M335.621 107.061L274.963 142.312L213.899 107.061L274.558 71.8096L335.621 107.061Z" stroke="#375153" stroke-width="0.881276" stroke-miterlimit="10"/>
<path d="M274.557 71.8096L213.899 107.061L152.844 71.8096L213.502 36.5586L274.557 71.8096Z" stroke="#375153" stroke-width="0.881276" stroke-miterlimit="10"/>
<path d="M275.358 212.814L214.691 248.065L153.636 212.814L214.294 177.562L275.358 212.814Z" stroke="#375153" stroke-width="0.881276" stroke-miterlimit="10"/>
<path d="M213.898 107.061L153.239 142.312L92.1846 107.061L152.843 71.8096L213.898 107.061Z" stroke="#375153" stroke-width="0.881276" stroke-miterlimit="10"/>
<path d="M153.24 142.312L92.5821 177.563L31.5273 142.312L92.1856 107.061L153.24 142.312Z" stroke="#375153" stroke-width="0.881276" stroke-miterlimit="10"/>
<path d="M396.674 142.312L336.016 177.563L274.961 142.312L335.62 107.061L396.674 142.312Z" stroke="#375153" stroke-width="0.881276" stroke-miterlimit="10"/>
<path d="M214.101 142.312L153.443 177.563L92.3882 142.312L153.046 107.061L214.101 142.312Z" stroke="#375153" stroke-width="0.881276" stroke-miterlimit="10"/>
<path d="M335.814 142.312L275.155 177.563L214.101 142.312L274.759 107.061L335.814 142.312Z" stroke="#375153" stroke-width="0.881276" stroke-miterlimit="10"/>
<path d="M274.758 107.061L214.1 142.312L153.045 107.061L213.704 71.8096L274.758 107.061Z" stroke="#375153" stroke-width="0.881276" stroke-miterlimit="10"/>
<path d="M335.418 71.8096L274.76 107.061L213.705 71.8096L274.363 36.5586L335.418 71.8096Z" stroke="#375153" stroke-width="0.881276" stroke-miterlimit="10"/>
<path d="M274.363 36.5587L213.705 71.8097L152.65 36.5587L213.308 1.30762L274.363 36.5587Z" stroke="#375153" stroke-width="0.881276" stroke-miterlimit="10"/>
<path d="M275.156 177.563L214.498 212.814L153.443 177.563L214.102 142.312L275.156 177.563Z" stroke="#375153" stroke-width="0.881276" stroke-miterlimit="10"/>
<path d="M213.705 71.8096L153.047 107.061L91.9922 71.8096L152.65 36.5586L213.705 71.8096Z" stroke="#375153" stroke-width="0.881276" stroke-miterlimit="10"/>
<path d="M153.046 107.061L92.3878 142.312L31.3242 107.061L91.9913 71.8096L153.046 107.061Z" stroke="#375153" stroke-width="0.881276" stroke-miterlimit="10"/>
<path d="M396.473 107.061L335.815 142.312L274.76 107.061L335.418 71.8096L396.473 107.061Z" stroke="#375153" stroke-width="0.881276" stroke-miterlimit="10"/>
<path d="M427 124.686L214.692 248.065L1 124.686L213.308 1.30762L427 124.686Z" fill="#375153" fill-opacity="0.3" stroke="#FF8C24" stroke-width="1.32191" stroke-linejoin="round"/>
<path d="M274.476 51.9901L213.959 87.1618L153.045 51.9901L213.563 16.8184L274.476 51.9901Z" fill="#262B2B" stroke="#FF8C24" stroke-width="1.32191" stroke-linejoin="round"/>
<path d="M274.478 51.9893L274.417 71.8885L213.899 107.06L213.961 87.161L274.478 51.9893Z" fill="#262B2B" stroke="#FF8C24" stroke-width="1.32191" stroke-linejoin="round"/>
<path d="M213.96 87.161L213.899 107.06L152.985 71.8885L153.047 51.9893L213.96 87.161Z" fill="#262B2B" stroke="#FF8C24" stroke-width="1.32191" stroke-linejoin="round"/>
<path d="M183.486 104.866L183.433 124.765L122.916 159.937L122.968 140.038L183.486 104.866Z" fill="#262B2B" stroke="#FF8C24" stroke-width="1.32191" stroke-linejoin="round"/>
<path d="M122.968 140.038L122.915 159.937L62.0015 124.765L62.0543 104.866L122.968 140.038Z" fill="#262B2B" stroke="#FF8C24" stroke-width="1.32191" stroke-linejoin="round"/>
<path d="M365.681 104.866L305.164 140.038L244.25 104.866L304.767 69.7031L365.681 104.866Z" fill="#262B2B" stroke="#FF8C24" stroke-width="1.32191" stroke-linejoin="round"/>
<path d="M365.681 104.866L365.619 124.765L305.102 159.937L305.164 140.038L365.681 104.866Z" fill="#262B2B" stroke="#FF8C24" stroke-width="1.32191" stroke-linejoin="round"/>
<path d="M305.163 140.038L305.102 159.937L244.188 124.765L244.25 104.866L305.163 140.038Z" fill="#262B2B" stroke="#FF8C24" stroke-width="1.32191" stroke-linejoin="round"/>
<path d="M58.8379 41.8291L101.694 66.7428" stroke="#FF8C24" stroke-width="0.440638" stroke-miterlimit="10"/>
<g filter="url(#filter0_d_6350_24279)">
<path d="M71.4222 40.8155L58.8728 48.1037L46.2441 40.8155L58.7935 33.5186L71.4222 40.8155Z" fill="#FF8C24"/>
</g>
<path d="M71.4224 40.8154L71.4136 41.8289L58.8643 49.1259L58.8731 48.1036L71.4224 40.8154Z" fill="#FFAC33"/>
<path d="M58.8738 48.1036L58.865 49.1259L46.2363 41.8289L46.2451 40.8154L58.8738 48.1036Z" fill="#FFAC33"/>
<path d="M369.567 41.8291L326.702 66.7428" stroke="#FF8C24" stroke-width="0.440638" stroke-miterlimit="10"/>
<g filter="url(#filter1_d_6350_24279)">
<path d="M356.973 40.8155L369.522 48.1037L382.151 40.8155L369.601 33.5186L356.973 40.8155Z" fill="#FF8C24"/>
</g>
<path d="M356.973 40.8154L356.982 41.8289L369.531 49.1259L369.523 48.1036L356.973 40.8154Z" fill="#FFAC33"/>
<path d="M369.522 48.1036L369.531 49.1259L382.16 41.8289L382.151 40.8154L369.522 48.1036Z" fill="#FFAC33"/>
<path d="M58.8379 214.797L92.5819 195.188" stroke="#FF8C24" stroke-width="0.440638" stroke-miterlimit="10"/>
<g filter="url(#filter2_d_6350_24279)">
<path d="M71.4222 214.797L58.8728 222.094L46.2441 214.797L58.7935 207.509L71.4222 214.797Z" fill="#FF8C24"/>
</g>
<path d="M71.4224 214.796L71.4136 215.818L58.8643 223.106L58.8731 222.093L71.4224 214.796Z" fill="#FFAC33"/>
<path d="M58.8738 222.093L58.865 223.106L46.2363 215.818L46.2451 214.796L58.8738 222.093Z" fill="#FFAC33"/>
<path d="M355.449 214.797L321.705 195.188" stroke="#FF8C24" stroke-width="0.440638" stroke-miterlimit="10"/>
<g filter="url(#filter3_d_6350_24279)">
<path d="M342.865 214.797L355.406 222.094L368.043 214.797L355.494 207.509L342.865 214.797Z" fill="#FF8C24"/>
</g>
<path d="M342.865 214.796L342.874 215.818L355.423 223.106L355.405 222.093L342.865 214.796Z" fill="#FFAC33"/>
<path d="M355.405 222.093L355.423 223.106L368.052 215.818L368.043 214.796L355.405 222.093Z" fill="#FFAC33"/>
<path d="M153.84 167.357L153.778 212.892L1 124.686V142.311L214.692 265.69V248.064L214.753 202.529L153.84 167.357Z" fill="#262B2B" stroke="#FF8C24" stroke-width="1.32191" stroke-linejoin="round"/>
<path d="M275.27 167.357L214.753 202.529L153.839 167.357L214.357 132.186L275.27 167.357Z" fill="#375153" stroke="#FF8C24" stroke-width="1.32191" stroke-miterlimit="10"/>
<path d="M275.217 212.892L275.27 167.357L214.753 202.529L214.691 248.064V265.69L426.999 142.311V124.686L275.217 212.892Z" fill="#262B2B" stroke="#FF8C24" stroke-width="1.32191" stroke-linejoin="round"/>
<path d="M197.471 175.929C187.935 170.421 187.883 161.458 197.356 155.95C206.83 150.442 222.296 150.442 231.841 155.95C241.385 161.458 241.429 170.421 231.955 175.92C222.481 181.419 207.006 181.428 197.471 175.92M232.792 155.395C222.711 149.578 206.416 149.57 196.404 155.395C186.393 161.22 186.437 170.659 196.519 176.475C206.601 182.291 222.896 182.3 232.916 176.475C242.936 170.65 242.883 161.22 232.792 155.395Z" fill="#FF8C24"/>
<path d="M216.215 158.276C216.215 158.276 214.074 158.532 212.593 158.823C211.739 158.99 210.752 159.237 209.853 159.492L207.517 157.254L205.147 158.082L207.464 160.303C206.46 160.709 205.614 161.158 204.944 161.643C204.063 162.277 203.534 162.929 203.349 163.608C203.164 164.278 203.402 164.93 204.063 165.564C204.336 165.82 204.627 166.049 204.953 166.234C205.376 166.481 205.852 166.666 206.372 166.789C207.297 167.018 208.302 167.124 209.394 167.115C210.487 167.115 211.589 167.045 212.699 166.93C213.81 166.816 214.867 166.728 215.881 166.657C216.885 166.587 217.784 166.595 218.551 166.675C219.097 166.728 219.547 166.869 219.908 167.071C220.058 167.159 220.199 167.265 220.322 167.38C220.825 167.856 220.851 168.34 220.402 168.825C219.952 169.31 219.229 169.724 218.216 170.076C217.855 170.2 217.396 170.323 216.912 170.438C215.484 170.764 213.907 170.685 212.69 170.226C212.488 170.156 212.355 170.103 212.355 170.103L210.276 170.826L212.461 172.923C213.29 172.835 214.144 172.764 215.678 172.465C216.973 172.218 217.978 171.989 219.229 171.575L221.494 173.743L223.865 172.914L221.547 170.693C222.349 170.323 223.072 169.935 223.671 169.512C224.64 168.825 225.24 168.102 225.46 167.353C225.68 166.604 225.425 165.882 224.702 165.185C224.438 164.93 224.147 164.718 223.83 164.533C223.398 164.286 222.913 164.093 222.376 163.969C221.45 163.758 220.446 163.652 219.37 163.661C218.295 163.661 217.202 163.722 216.083 163.837C214.964 163.943 213.906 164.04 212.902 164.11C211.897 164.19 211.016 164.19 210.258 164.119C209.712 164.066 209.262 163.943 208.91 163.74C208.777 163.661 208.663 163.573 208.557 163.476C208.108 163.044 208.064 162.594 208.451 162.145C208.83 161.687 209.518 161.29 210.505 160.946C211.078 160.744 211.783 160.541 212.364 160.462C214.532 160.162 215.96 160.876 216.321 161.079C216.383 161.114 216.409 161.132 216.409 161.132L216.489 161.105L218.498 160.409L216.242 158.25" fill="#FF8C24"/>
<path d="M183.486 104.866L122.968 140.038L62.0547 104.866L122.572 69.7031L183.486 104.866Z" fill="#262B2B" stroke="#FF8C24" stroke-width="1.32191" stroke-linejoin="round"/>
<path d="M93.8853 106.963L93.1451 106.531L89.0295 108.928L81.0628 104.328L80.2344 104.804L88.9502 109.836L93.8853 106.963Z" fill="#FF8C24"/>
<path d="M92.3699 103.544C92.0262 103.323 91.7795 103.085 91.6208 102.812C91.4358 102.504 91.3829 102.195 91.471 101.896C91.5591 101.587 91.8147 101.323 92.2201 101.085C92.6255 100.847 93.0926 100.697 93.6037 100.653C94.1148 100.609 94.6348 100.653 95.1636 100.768C95.5954 100.865 96.0008 101.014 96.3885 101.208L92.3699 103.544ZM97.8779 101.138L97.5342 100.935C96.979 100.618 96.4238 100.38 95.8598 100.23C95.3046 100.08 94.7582 100.01 94.2206 100.01C93.6918 100.01 93.1983 100.063 92.7312 100.177C92.273 100.292 91.8676 100.45 91.5063 100.662C90.9422 100.988 90.5897 101.367 90.4575 101.781C90.3253 102.195 90.387 102.627 90.6602 103.059C90.9334 103.491 91.4005 103.896 92.0526 104.275C92.7048 104.654 93.4186 104.918 94.1677 105.068C94.9168 105.218 95.6571 105.253 96.3885 105.156C97.12 105.068 97.7898 104.839 98.3978 104.487C98.8385 104.231 99.1469 103.967 99.3496 103.685C99.5435 103.411 99.6404 103.138 99.6228 102.874C99.614 102.61 99.5171 102.372 99.3496 102.151L98.3626 102.451C98.4772 102.61 98.5388 102.777 98.5388 102.962C98.5388 103.147 98.4771 103.332 98.345 103.526C98.2128 103.72 97.9925 103.896 97.6928 104.072C97.2434 104.328 96.7587 104.495 96.2123 104.557C95.6747 104.628 95.1195 104.601 94.5643 104.478C94.0443 104.363 93.5332 104.178 93.0573 103.914L97.8779 101.111" fill="#FF8C24"/>
<path d="M107.651 98.9705L103.421 96.5294C102.901 96.2297 102.372 96.0359 101.835 95.9389C101.297 95.842 100.768 95.8332 100.248 95.9213C99.7285 96.0094 99.2526 96.1769 98.812 96.4324C98.3184 96.7144 98.01 97.0493 97.8866 97.4107C97.7809 97.7015 97.8426 98.0187 98.0717 98.3536L96.8643 97.6662L96.1064 98.1069L102.646 101.879L103.439 101.42L99.3672 99.0674C98.9882 98.8471 98.7503 98.618 98.6269 98.3712C98.5123 98.1245 98.5123 97.8777 98.6269 97.631C98.7503 97.393 98.9882 97.1727 99.3319 96.97C99.8342 96.6792 100.389 96.5382 100.989 96.5382C101.597 96.5382 102.17 96.6968 102.707 97.0141L106.876 99.42L107.66 98.9617" fill="#FF8C24"/>
<path d="M106.955 95.5959C106.452 95.3051 106.082 95.0055 105.827 94.6882C105.58 94.3709 105.483 94.0537 105.545 93.754C105.606 93.4456 105.844 93.1724 106.267 92.9256C106.69 92.6789 107.149 92.5379 107.669 92.5026C108.189 92.4674 108.717 92.5114 109.273 92.6524C109.819 92.7935 110.357 93.0138 110.876 93.3134C111.396 93.613 111.775 93.9215 112.031 94.2476C112.278 94.5736 112.375 94.8821 112.313 95.1817C112.251 95.4813 112.013 95.7545 111.59 96.0013C111.167 96.2481 110.7 96.3802 110.163 96.4155C109.634 96.4507 109.087 96.3891 108.523 96.2481C107.968 96.1071 107.44 95.8867 106.937 95.5959M114.922 94.7411L106.215 89.709L105.43 90.1673L108.858 92.1501L108.797 92.1854C108.515 92.1237 108.189 92.0708 107.818 92.0444C107.448 92.0179 107.061 92.0444 106.655 92.1149C106.25 92.1854 105.853 92.3352 105.457 92.5643C104.928 92.8728 104.611 93.2165 104.487 93.613C104.364 94.0096 104.443 94.415 104.734 94.838C105.016 95.261 105.492 95.6664 106.17 96.0542C106.849 96.4419 107.554 96.7239 108.286 96.8914C109.017 97.0588 109.722 97.1029 110.409 97.0324C111.088 96.9619 111.696 96.7768 112.225 96.4684C112.621 96.2392 112.877 96.0101 113 95.7722C113.124 95.5342 113.159 95.3139 113.106 95.0936C113.062 94.8821 112.974 94.6882 112.859 94.5208L112.947 94.4679L114.172 95.1729L114.93 94.7323" fill="#FF8C24"/>
<path d="M117.821 93.0575L111.282 89.2856L110.498 89.7439L117.037 93.5157L117.821 93.0575ZM109.713 88.1576C109.555 88.0695 109.369 88.0254 109.149 88.0254C108.929 88.0254 108.735 88.0783 108.585 88.1664C108.435 88.2545 108.347 88.3691 108.338 88.4925C108.338 88.6158 108.409 88.7304 108.568 88.8185C108.726 88.9067 108.902 88.9507 109.123 88.9419C109.343 88.9419 109.537 88.889 109.696 88.8009C109.854 88.7128 109.933 88.5982 109.942 88.466C109.942 88.3426 109.872 88.2281 109.722 88.14" fill="#FF8C24"/>
<path d="M124.943 88.9153L120.713 86.4741C120.193 86.1745 119.664 85.9806 119.126 85.8837C118.58 85.7867 118.051 85.7867 117.54 85.866C117.02 85.9542 116.544 86.1216 116.103 86.3772C115.61 86.6592 115.302 86.9941 115.178 87.3554C115.072 87.6462 115.134 87.9635 115.363 88.2984L114.156 87.611L113.398 88.0516L119.937 91.8235L120.73 91.3652L116.659 89.0122C116.28 88.7919 116.042 88.5628 115.918 88.316C115.804 88.0692 115.804 87.8225 115.918 87.5757C116.042 87.3378 116.28 87.1175 116.623 86.9148C117.126 86.6239 117.672 86.4829 118.28 86.4829C118.888 86.4829 119.461 86.6416 119.999 86.95L124.167 89.3559L124.951 88.8976" fill="#FF8C24"/>
<path d="M124.212 85.5222C123.727 85.2401 123.357 84.9405 123.119 84.6233C122.881 84.306 122.784 83.9976 122.846 83.6891C122.907 83.3895 123.154 83.1075 123.577 82.8607C124 82.6139 124.467 82.4729 124.987 82.4289C125.498 82.3936 126.027 82.4377 126.573 82.5787C127.12 82.7197 127.649 82.9312 128.151 83.222C128.653 83.5128 129.041 83.8301 129.27 84.1297C129.49 84.4382 129.552 84.729 129.464 85.0198C129.376 85.3018 129.12 85.5662 128.706 85.8042C128.292 86.0421 127.825 86.1919 127.314 86.2448C126.811 86.2977 126.291 86.2536 125.754 86.1214C125.225 85.9892 124.705 85.7865 124.212 85.5045M132.381 84.7731L125.692 80.9131L124.925 81.3625L126.186 82.0852L126.106 82.1292C125.824 82.0676 125.489 82.0147 125.128 81.9882C124.758 81.9618 124.37 81.9882 123.965 82.0587C123.559 82.1292 123.163 82.2791 122.766 82.5082C122.237 82.8166 121.911 83.1691 121.788 83.5657C121.665 83.9623 121.744 84.3677 122.017 84.7907C122.29 85.2137 122.766 85.6103 123.436 85.998C124.106 86.3858 124.784 86.6502 125.498 86.7912C126.203 86.941 126.891 86.9674 127.552 86.8793C128.213 86.7912 128.794 86.6061 129.305 86.3065C129.693 86.0774 129.957 85.857 130.09 85.6279C130.222 85.3988 130.275 85.1873 130.248 84.9758C130.213 84.7643 130.143 84.5792 130.028 84.4118L130.107 84.3677L131.57 85.2137C132.169 85.5574 132.434 85.9187 132.381 86.2889C132.319 86.659 132.002 87.0027 131.429 87.3376C131.068 87.5491 130.715 87.6989 130.372 87.7782C130.028 87.8664 129.693 87.9104 129.376 87.9104C129.059 87.9104 128.777 87.8928 128.512 87.8487L128.257 88.4568C128.644 88.5273 129.05 88.5626 129.473 88.5361C129.896 88.5185 130.336 88.448 130.786 88.3158C131.235 88.1836 131.685 87.9985 132.125 87.743C132.645 87.4433 133.015 87.1173 133.253 86.7824C133.491 86.4475 133.544 86.1038 133.412 85.7689C133.289 85.4252 132.945 85.0991 132.39 84.7731" fill="#FF8C24"/>
<path d="M112.385 117.716C113.46 117.09 116.5 114.922 118.765 116.226C121.03 117.531 117.294 119.302 116.218 119.928L112.385 117.716ZM118.157 121.056C119.453 120.307 123.136 117.733 125.622 119.17C128.107 120.606 123.683 122.748 122.387 123.506L118.157 121.065M129.208 116.834C127.173 115.662 125.128 115.751 123.057 116.491C123.542 115.618 123.339 114.728 121.955 113.926C121.806 113.838 121.647 113.759 121.462 113.671C118.968 112.481 116.254 113.177 113.575 114.481L110.42 112.657L108.507 113.768L111.583 115.539C111.081 115.83 110.578 116.138 110.076 116.438L106.983 114.649L105.07 115.759L108.225 117.584C107.82 117.83 107.423 118.068 107.027 118.297H107.018L104.383 119.822L106.436 121.003C106.436 121.003 107.793 120.183 107.82 120.192C108.595 119.743 109.3 119.857 109.759 120.042L113.354 122.122C113.407 122.087 113.478 122.052 113.566 122.008L113.363 122.122L118.404 125.03C118.615 125.189 118.862 125.497 118.325 125.815C118.342 125.823 116.932 126.617 116.932 126.617L118.853 128.159L121.339 126.714C121.797 126.449 122.264 126.185 122.713 125.929L125.904 127.771L127.807 126.661L124.652 124.836C125.19 124.537 125.701 124.246 126.194 123.955L129.341 125.771L131.253 124.66L128.063 122.818C131.085 120.844 132.522 119.073 129.764 117.152C129.578 117.02 129.393 116.905 129.2 116.799" fill="#FF8C24"/>
<path d="M218.12 64.9176C217.3 64.4505 216.419 64.1685 215.467 64.098C214.515 64.0275 213.537 64.0628 212.541 64.2126C211.545 64.3624 210.541 64.5651 209.545 64.8207C208.549 65.0762 207.597 65.3054 206.69 65.5081C205.791 65.7196 204.971 65.8341 204.222 65.8782C203.482 65.9134 202.874 65.7901 202.389 65.5169C201.79 65.1732 201.578 64.759 201.754 64.2919C201.931 63.816 202.407 63.3489 203.191 62.8995C203.649 62.6351 204.222 62.3531 204.733 62.1945C206.945 61.5247 208.769 62.2826 208.769 62.2826L208.831 62.2473L210.417 61.322L207.447 59.6035C207.447 59.6035 205.553 60.1323 204.284 60.6082C203.552 60.8814 202.733 61.2427 201.992 61.604L198.917 59.8238L197.04 60.9166L200.098 62.6792C199.322 63.1991 198.714 63.7279 198.282 64.2743C197.718 64.9881 197.48 65.6667 197.577 66.3188C197.674 66.971 198.159 67.5526 199.022 68.0461C199.842 68.522 200.723 68.7952 201.675 68.8834C202.627 68.9715 203.605 68.9362 204.627 68.7776C205.641 68.6278 206.645 68.4163 207.641 68.1607C208.628 67.9051 209.58 67.676 210.497 67.4733C211.404 67.2706 212.242 67.1561 212.991 67.1296C213.749 67.1032 214.392 67.2442 214.929 67.5526C215.59 67.9316 215.802 68.381 215.582 68.8922C215.361 69.4033 214.85 69.888 214.048 70.3551C213.766 70.5225 213.387 70.6988 212.973 70.8662C211.774 71.3597 210.268 71.5007 208.954 71.2364C208.734 71.1923 208.593 71.1659 208.593 71.1659L206.945 72.1264L209.827 73.7921C210.567 73.5982 211.334 73.4131 212.638 72.9372C213.749 72.5318 214.595 72.1793 215.599 71.6329L218.578 73.3514L220.455 72.2586L217.397 70.4961C218.005 70.0466 218.507 69.5884 218.895 69.1037C219.521 68.3281 219.794 67.5791 219.697 66.8476C219.6 66.1161 219.071 65.4816 218.111 64.9264" fill="#FF8C24"/>
<path d="M183.476 51.9367C183.115 51.734 182.736 51.593 182.339 51.5225C181.943 51.452 181.537 51.4344 181.132 51.4608C180.726 51.4873 180.321 51.549 179.916 51.6371C179.519 51.7252 179.14 51.831 178.779 51.9544L177.607 52.3245C177.254 52.4391 176.875 52.536 176.488 52.6153C176.091 52.6946 175.712 52.7211 175.342 52.7034C174.972 52.6858 174.637 52.5889 174.337 52.4214C174.038 52.254 173.835 52.0337 173.764 51.7957C173.694 51.5578 173.747 51.311 173.905 51.0555C174.073 50.7999 174.346 50.5531 174.743 50.324C175.307 49.9979 175.915 49.804 176.576 49.7512C177.228 49.6983 177.818 49.7952 178.347 50.042L179.158 49.5749C178.691 49.3282 178.171 49.1783 177.58 49.1166C176.99 49.055 176.382 49.0902 175.765 49.2136C175.148 49.337 174.566 49.5573 174.02 49.8745C173.474 50.1918 173.103 50.5267 172.874 50.888C172.645 51.2493 172.584 51.6107 172.689 51.9632C172.804 52.3157 173.086 52.6241 173.562 52.8973C174.108 53.2146 174.76 53.3732 175.492 53.3644C176.232 53.3644 177.043 53.2146 177.933 52.9326L179.255 52.5096C179.722 52.3597 180.162 52.2452 180.568 52.1659C180.973 52.0865 181.352 52.0601 181.696 52.0865C182.04 52.113 182.357 52.2099 182.648 52.3774C182.991 52.5712 183.194 52.8092 183.265 53.0648C183.335 53.3291 183.273 53.5935 183.088 53.8667C182.903 54.1399 182.595 54.4043 182.163 54.6511C181.784 54.8714 181.379 55.0388 180.938 55.1534C180.497 55.268 180.066 55.312 179.634 55.2856C179.202 55.268 178.796 55.1622 178.418 54.9771L177.58 55.4618C178.074 55.7174 178.629 55.8672 179.228 55.9289C179.836 55.9906 180.453 55.9465 181.088 55.8055C181.722 55.6645 182.33 55.4266 182.921 55.0829C183.547 54.7216 183.978 54.3426 184.216 53.9549C184.454 53.5671 184.507 53.197 184.366 52.8444C184.234 52.4919 183.934 52.1747 183.467 51.9015" fill="#FF8C24"/>
<path d="M186.235 50.9498C185.979 50.8 185.829 50.6413 185.794 50.4651C185.759 50.2888 185.821 50.0949 185.979 49.8922C186.138 49.6896 186.376 49.4692 186.693 49.2313C186.808 49.1432 186.931 49.0462 187.081 48.9405C187.231 48.8259 187.372 48.7113 187.504 48.5968C187.645 48.4822 187.759 48.3765 187.848 48.2707C187.936 48.1738 187.98 48.0856 187.98 48.0239L188.905 48.5615C189.258 48.7642 189.504 49.0022 189.645 49.2665C189.786 49.5309 189.795 49.7953 189.681 50.0685C189.566 50.3417 189.31 50.5885 188.914 50.8176C188.632 50.9762 188.341 51.0908 188.024 51.1701C187.707 51.2406 187.389 51.267 187.081 51.2318C186.772 51.1965 186.482 51.1084 186.226 50.9586M192.21 49.5574L187.777 46.9928C187.345 46.7461 186.913 46.5786 186.49 46.4993C186.067 46.42 185.653 46.4024 185.265 46.4465C184.869 46.4905 184.508 46.5698 184.164 46.6844C183.82 46.799 183.529 46.94 183.274 47.081C182.939 47.2749 182.657 47.4952 182.437 47.7419C182.216 47.9887 182.075 48.2443 182.031 48.5263C181.987 48.7995 182.075 49.0815 182.278 49.3723L183.291 49.0815C183.186 48.9317 183.133 48.7642 183.133 48.588C183.133 48.4117 183.203 48.2266 183.335 48.0328C183.468 47.8477 183.697 47.6626 183.996 47.4775C184.322 47.2925 184.657 47.1603 184.992 47.0986C185.327 47.0281 185.662 47.0281 185.997 47.081C186.323 47.1339 186.631 47.2484 186.922 47.4159L187.072 47.504C187.239 47.6009 187.284 47.7067 187.231 47.8301C187.169 47.9534 187.028 48.0944 186.816 48.2619C186.596 48.4293 186.332 48.632 186.014 48.8612C185.697 49.0991 185.424 49.3282 185.204 49.5574C184.983 49.7777 184.825 49.998 184.745 50.2095C184.666 50.421 184.675 50.6237 184.772 50.8264C184.869 51.0203 185.08 51.2142 185.406 51.3992C185.829 51.646 186.279 51.7958 186.772 51.8575C187.266 51.9192 187.742 51.9016 188.218 51.7958C188.694 51.6989 189.125 51.5314 189.522 51.3023C189.874 51.0996 190.13 50.8881 190.28 50.6678C190.43 50.4474 190.509 50.2359 190.509 50.0244C190.509 49.8129 190.456 49.6279 190.35 49.4516L190.412 49.4164L191.443 50.0156L192.219 49.5662" fill="#FF8C24"/>
<path d="M192.801 41.6436L191.946 42.1371L194.555 45.3802C194.784 45.671 195.031 45.953 195.295 46.2262C195.445 46.3848 195.595 46.5434 195.745 46.7021C195.472 46.6228 195.198 46.5346 194.916 46.4465C194.449 46.2967 193.956 46.1557 193.462 46.0235L187.857 44.5253L187.002 45.0277L196.018 47.363L196.864 46.8695L192.81 41.6524" fill="#FF8C24"/>
<path d="M201.648 44.0662L195.109 40.2944L194.316 40.7526L200.855 44.5245L201.648 44.0662ZM193.532 39.1752C193.373 39.087 193.188 39.043 192.968 39.043C192.747 39.043 192.553 39.0958 192.404 39.184C192.254 39.2721 192.166 39.3867 192.157 39.51C192.148 39.6334 192.227 39.748 192.386 39.8361C192.545 39.9242 192.73 39.9683 192.95 39.9683C193.17 39.9683 193.364 39.9154 193.523 39.8273C193.682 39.7392 193.761 39.6246 193.77 39.4924C193.77 39.3602 193.699 39.2545 193.541 39.1663" fill="#FF8C24"/>
<path d="M208.761 39.9344L204.539 37.4932C204.019 37.1936 203.491 36.9997 202.944 36.9028C202.407 36.8058 201.878 36.797 201.358 36.8852C200.847 36.9733 200.362 37.1407 199.921 37.3963C199.428 37.6783 199.119 38.0044 198.987 38.3745C198.89 38.6653 198.952 38.9826 199.172 39.3175L197.965 38.6301L197.207 39.0707L203.746 42.8426L204.539 42.3843L200.468 40.0313C200.098 39.8198 199.851 39.5819 199.727 39.3351C199.604 39.0884 199.613 38.8416 199.736 38.5948C199.86 38.3569 200.089 38.1366 200.433 37.9339C200.935 37.6431 201.49 37.5021 202.098 37.5109C202.706 37.5109 203.279 37.6695 203.808 37.9779L207.976 40.3838L208.761 39.9256" fill="#FF8C24"/>
<path d="M208.03 36.5407C207.545 36.2587 207.175 35.9591 206.937 35.6418C206.699 35.3246 206.611 35.0161 206.673 34.7077C206.734 34.3992 206.981 34.126 207.404 33.8793C207.827 33.6325 208.294 33.4915 208.805 33.4562C209.317 33.421 209.845 33.4651 210.392 33.6061C210.938 33.7471 211.467 33.9586 211.969 34.2494C212.472 34.5402 212.859 34.8575 213.08 35.1659C213.3 35.4744 213.37 35.774 213.273 36.056C213.177 36.338 212.93 36.6024 212.516 36.8492C212.101 37.0959 211.625 37.2369 211.123 37.2898C210.612 37.3427 210.092 37.2898 209.563 37.1664C209.026 37.0342 208.515 36.8315 208.021 36.5407M216.208 35.7916L209.519 31.9316L208.753 32.3811L210.013 33.1037L209.933 33.1478C209.651 33.0861 209.325 33.0332 208.955 33.0068C208.585 32.9804 208.197 33.0068 207.792 33.0773C207.387 33.1478 206.99 33.2976 206.593 33.5268C206.065 33.8352 205.739 34.1877 205.615 34.5843C205.492 34.9809 205.571 35.3862 205.844 35.8093C206.118 36.2323 206.593 36.6288 207.254 37.0166C207.915 37.4044 208.603 37.6687 209.317 37.8097C210.022 37.9508 210.709 37.986 211.37 37.8979C212.031 37.8098 212.613 37.6247 213.124 37.325C213.511 37.0959 213.776 36.8756 213.908 36.6465C214.049 36.4173 214.102 36.2058 214.067 35.9943C214.031 35.7828 213.961 35.5977 213.846 35.4303L213.926 35.3862L215.389 36.2323C215.988 36.576 216.261 36.9373 216.199 37.3074C216.138 37.6776 215.82 38.0301 215.248 38.3561C214.886 38.5676 214.534 38.7175 214.181 38.7968C213.837 38.8849 213.503 38.929 213.185 38.929C212.868 38.929 212.586 38.9113 212.322 38.8673L212.066 39.4754C212.454 39.5459 212.859 39.5811 213.282 39.5635C213.705 39.5459 214.146 39.4754 214.595 39.3432C215.045 39.211 215.494 39.0259 215.935 38.7703C216.455 38.4707 216.834 38.1534 217.063 37.8097C217.301 37.4749 217.345 37.1312 217.222 36.7963C217.098 36.4526 216.755 36.1265 216.199 35.8004" fill="#FF8C24"/>
<path d="M220.869 30.839C220.438 30.5923 219.935 30.4601 219.38 30.4513C218.816 30.4513 218.19 30.557 217.503 30.8038L216.269 31.2444C215.776 31.4207 215.344 31.5088 214.982 31.5176C214.621 31.5176 214.304 31.4471 214.022 31.2885C213.696 31.1034 213.564 30.8655 213.643 30.5834C213.713 30.3014 213.969 30.0371 214.401 29.7903C214.833 29.5435 215.256 29.4113 215.688 29.3849C216.119 29.3585 216.534 29.4113 216.939 29.5259L217.468 28.9971C217.054 28.8738 216.639 28.7945 216.216 28.7768C215.793 28.7592 215.37 28.7945 214.956 28.8914C214.533 28.9883 214.119 29.1558 213.705 29.3937C213.264 29.6493 212.956 29.9225 212.77 30.2045C212.585 30.4953 212.533 30.7773 212.612 31.0505C212.691 31.3237 212.92 31.5705 213.282 31.782C213.722 32.0376 214.225 32.1697 214.789 32.1697C215.353 32.1697 215.987 32.0552 216.683 31.8084L217.996 31.3413C218.437 31.1827 218.825 31.1034 219.186 31.1034C219.539 31.1034 219.847 31.1739 220.112 31.3325C220.446 31.5264 220.57 31.7732 220.499 32.0728C220.42 32.3724 220.138 32.6633 219.653 32.9541C219.221 33.2008 218.772 33.3506 218.305 33.4035C217.829 33.4564 217.353 33.3947 216.868 33.2185L216.296 33.7649C216.736 33.9323 217.194 34.0292 217.653 34.0469C218.12 34.0645 218.578 34.0204 219.036 33.9059C219.495 33.7913 219.935 33.6062 220.367 33.3595C220.843 33.0863 221.178 32.7866 221.381 32.487C221.583 32.1786 221.645 31.8877 221.557 31.5969C221.478 31.3149 221.248 31.0593 220.869 30.839Z" fill="#FF8C24"/>
<path d="M276.839 104.726C276.478 104.523 276.107 104.382 275.702 104.312C275.305 104.241 274.9 104.223 274.495 104.25C274.08 104.276 273.684 104.338 273.278 104.426C272.882 104.514 272.503 104.62 272.142 104.743L270.97 105.114C270.608 105.228 270.238 105.325 269.85 105.404C269.454 105.484 269.075 105.51 268.705 105.493C268.335 105.475 268 105.378 267.7 105.21C267.4 105.043 267.198 104.823 267.127 104.585C267.057 104.347 267.101 104.1 267.268 103.845C267.436 103.589 267.709 103.342 268.105 103.113C268.669 102.787 269.278 102.593 269.93 102.54C270.582 102.487 271.172 102.584 271.71 102.831L272.521 102.364C272.054 102.117 271.534 101.967 270.943 101.906C270.353 101.844 269.745 101.879 269.128 102.003C268.511 102.126 267.929 102.346 267.383 102.664C266.836 102.981 266.466 103.316 266.237 103.677C266.008 104.038 265.946 104.4 266.052 104.752C266.167 105.105 266.449 105.413 266.925 105.686C267.471 106.004 268.123 106.162 268.854 106.153C269.586 106.153 270.406 106.004 271.296 105.722L272.618 105.299C273.085 105.149 273.525 105.034 273.931 104.955C274.336 104.876 274.715 104.849 275.059 104.876C275.402 104.902 275.72 104.999 276.01 105.166C276.354 105.36 276.557 105.589 276.627 105.854C276.698 106.109 276.636 106.383 276.451 106.656C276.266 106.929 275.958 107.193 275.526 107.44C275.147 107.66 274.741 107.828 274.301 107.942C273.86 108.057 273.428 108.101 272.997 108.075C272.565 108.057 272.159 107.951 271.78 107.766L270.943 108.251C271.437 108.506 271.992 108.656 272.591 108.718C273.199 108.78 273.816 108.736 274.451 108.595C275.085 108.454 275.693 108.216 276.284 107.872C276.909 107.511 277.341 107.132 277.579 106.744C277.817 106.356 277.87 105.986 277.729 105.634C277.597 105.281 277.297 104.964 276.83 104.699" fill="#FF8C24"/>
<path d="M286.049 102.063L281.828 99.6223C281.308 99.3227 280.779 99.1288 280.241 99.0319C279.704 98.9349 279.166 98.9349 278.655 99.023C278.135 99.1112 277.659 99.2786 277.219 99.5342C276.725 99.8162 276.417 100.142 276.293 100.512C276.196 100.794 276.249 101.094 276.452 101.411L273.13 99.4901L272.345 99.9484L281.052 104.98L281.837 104.522L277.765 102.169C277.395 101.958 277.148 101.72 277.025 101.473C276.91 101.217 276.91 100.979 277.034 100.733C277.157 100.486 277.386 100.274 277.73 100.072C278.232 99.7809 278.779 99.6399 279.387 99.6487C279.995 99.6487 280.568 99.8074 281.096 100.116L285.265 102.522L286.058 102.063" fill="#FF8C24"/>
<path d="M286.719 99.5963C286.463 99.4465 286.313 99.2878 286.278 99.1116C286.243 98.9353 286.305 98.7414 286.463 98.5388C286.622 98.3361 286.86 98.1157 287.177 97.8778C287.292 97.7897 287.415 97.6927 287.565 97.587C287.715 97.4724 287.856 97.3578 287.988 97.2433C288.129 97.1287 288.243 97.023 288.332 96.9172C288.42 96.8114 288.464 96.7321 288.473 96.6704L289.398 97.208C289.75 97.4107 289.997 97.6487 290.138 97.913C290.279 98.1774 290.288 98.4418 290.173 98.715C290.059 98.9794 289.803 99.235 289.407 99.4641C289.125 99.6227 288.825 99.7461 288.508 99.8166C288.191 99.8871 287.873 99.9047 287.565 99.8783C287.256 99.843 286.966 99.7549 286.71 99.6051M292.703 98.1951L288.27 95.6305C287.838 95.3838 287.406 95.2163 286.983 95.137C286.56 95.0577 286.146 95.0401 285.758 95.0842C285.362 95.1282 285 95.2075 284.657 95.3221C284.322 95.4367 284.022 95.5777 283.767 95.7187C283.432 95.9125 283.158 96.1329 282.929 96.3796C282.7 96.6264 282.568 96.8819 282.524 97.164C282.48 97.4372 282.559 97.7192 282.771 98.01L283.784 97.7192C283.678 97.5693 283.626 97.4019 283.626 97.2256C283.626 97.0494 283.696 96.8643 283.828 96.6704C283.96 96.4854 284.19 96.3003 284.489 96.1152C284.815 95.9302 285.141 95.798 285.485 95.7363C285.82 95.6658 286.155 95.6658 286.49 95.7187C286.816 95.7715 287.124 95.8861 287.415 96.0536L287.565 96.1417C287.732 96.2386 287.776 96.3444 287.723 96.4678C287.662 96.5911 287.521 96.7321 287.309 96.8996C287.089 97.067 286.825 97.2697 286.507 97.4988C286.19 97.7368 285.917 97.9747 285.697 98.1951C285.476 98.4154 285.318 98.6357 285.238 98.8472C285.159 99.0587 285.168 99.2614 285.265 99.4641C285.362 99.658 285.573 99.8519 285.899 100.037C286.322 100.284 286.772 100.433 287.265 100.495C287.759 100.557 288.235 100.539 288.711 100.433C289.186 100.337 289.618 100.169 290.015 99.94C290.367 99.7373 290.623 99.5258 290.773 99.3055C290.923 99.0851 291.002 98.8736 291.002 98.6621C291.002 98.4506 290.949 98.2656 290.843 98.0893L290.905 98.054L291.936 98.6533L292.712 98.2039" fill="#FF8C24"/>
<path d="M291.979 91.8762L291.186 91.418C291.124 91.4444 291.063 91.4797 290.983 91.5237C290.904 91.5678 290.834 91.603 290.772 91.6471C290.367 91.885 290.102 92.1494 289.979 92.4491C289.864 92.7487 289.908 93.0395 290.102 93.3039L290.04 93.3392L289.027 92.7487L288.26 93.1981L294.799 96.97L295.592 96.5117L291.398 94.0882C291.072 93.9032 290.86 93.6917 290.763 93.4625C290.666 93.2334 290.675 92.9955 290.79 92.7663C290.904 92.5284 291.133 92.3169 291.468 92.123C291.574 92.0613 291.671 92.0084 291.777 91.9644C291.874 91.9203 291.935 91.8939 291.979 91.8762Z" fill="#FF8C24"/>
<path d="M295.752 92.1228C295.408 91.9025 295.161 91.6557 295.003 91.3913C294.818 91.0829 294.774 90.7744 294.862 90.4748C294.95 90.1664 295.205 89.902 295.611 89.6552C296.016 89.4085 296.483 89.2675 296.994 89.2234C297.497 89.1793 298.017 89.2146 298.554 89.338C298.986 89.4349 299.391 89.5847 299.788 89.7786L295.761 92.114M301.251 89.7257L300.907 89.523C300.352 89.2058 299.797 88.9678 299.233 88.818C298.669 88.6682 298.131 88.5977 297.594 88.5889C297.065 88.5889 296.571 88.6417 296.113 88.7651C295.655 88.8797 295.241 89.0383 294.888 89.2498C294.324 89.5759 293.972 89.946 293.839 90.369C293.707 90.7921 293.769 91.2151 294.042 91.6469C294.315 92.0787 294.782 92.4841 295.434 92.8631C296.087 93.242 296.8 93.5064 297.55 93.6562C298.299 93.806 299.039 93.8413 299.77 93.7443C300.502 93.6562 301.172 93.4271 301.78 93.0746C302.22 92.819 302.529 92.5546 302.723 92.2814C302.917 92.0082 303.013 91.735 302.996 91.4706C302.987 91.2063 302.89 90.9683 302.723 90.748L301.736 91.0476C301.85 91.2063 301.903 91.3737 301.912 91.5588C301.912 91.7438 301.85 91.9289 301.718 92.1228C301.586 92.3167 301.365 92.4929 301.066 92.6692C300.616 92.9247 300.132 93.0922 299.585 93.1539C299.048 93.2244 298.493 93.1979 297.937 93.0746C297.409 92.96 296.906 92.7749 296.43 92.5105L301.251 89.7081" fill="#FF8C24"/>
<path d="M306.169 86.4826L305.429 86.0596L301.815 88.157L302.556 88.5888L306.169 86.4826Z" fill="#FF8C24"/>
<path d="M292.781 114.789L288.56 112.348C288.04 112.049 287.511 111.846 286.973 111.758C286.427 111.661 285.898 111.661 285.378 111.74C284.858 111.828 284.382 111.996 283.942 112.251C283.448 112.533 283.14 112.868 283.016 113.229C282.92 113.511 282.972 113.811 283.175 114.12L279.862 112.207L279.068 112.665L287.775 117.697L288.569 117.239L284.497 114.886C284.118 114.666 283.88 114.437 283.757 114.19C283.642 113.943 283.642 113.696 283.757 113.45C283.88 113.212 284.118 112.991 284.462 112.789C284.964 112.498 285.51 112.357 286.119 112.357C286.727 112.357 287.299 112.516 287.837 112.824L292.005 115.23L292.79 114.772" fill="#FF8C24"/>
<path d="M292.111 111.431C291.626 111.149 291.256 110.849 291.018 110.514C290.78 110.188 290.692 109.862 290.754 109.545C290.816 109.228 291.071 108.937 291.512 108.681C291.953 108.426 292.446 108.276 293.001 108.241C293.557 108.205 294.112 108.249 294.676 108.39C295.24 108.531 295.769 108.743 296.253 109.016C296.738 109.289 297.099 109.598 297.337 109.924C297.584 110.25 297.663 110.576 297.593 110.893C297.522 111.21 297.267 111.501 296.826 111.757C296.385 112.012 295.883 112.162 295.337 112.206C294.79 112.25 294.235 112.198 293.671 112.057C293.107 111.916 292.587 111.713 292.102 111.431M297.055 108.567C296.385 108.179 295.672 107.906 294.922 107.756C294.173 107.606 293.433 107.571 292.719 107.659C292.005 107.747 291.362 107.95 290.798 108.276C290.234 108.602 289.882 108.981 289.732 109.395C289.591 109.809 289.652 110.232 289.917 110.673C290.181 111.105 290.648 111.519 291.318 111.907C291.988 112.294 292.684 112.55 293.433 112.7C294.182 112.85 294.922 112.885 295.636 112.806C296.35 112.717 296.993 112.515 297.558 112.189C298.122 111.863 298.474 111.493 298.624 111.069C298.774 110.655 298.703 110.223 298.439 109.792C298.174 109.36 297.707 108.946 297.055 108.567Z" fill="#FF8C24"/>
<path d="M302.846 108.946L294.131 103.914L293.346 104.372L302.053 109.404L302.846 108.946Z" fill="#FF8C24"/>
<path d="M302.149 105.571C301.647 105.28 301.276 104.98 301.03 104.663C300.783 104.346 300.686 104.028 300.748 103.729C300.809 103.42 301.047 103.147 301.47 102.9C301.893 102.653 302.352 102.512 302.872 102.477C303.392 102.433 303.929 102.486 304.475 102.627C305.031 102.768 305.559 102.988 306.079 103.288C306.599 103.588 306.978 103.896 307.225 104.222C307.481 104.548 307.569 104.857 307.507 105.156C307.445 105.456 307.207 105.729 306.784 105.976C306.361 106.223 305.894 106.355 305.357 106.39C304.819 106.425 304.282 106.364 303.718 106.223C303.162 106.073 302.634 105.861 302.131 105.571M310.116 104.716L301.409 99.6836L300.624 100.142L304.052 102.125L303.991 102.16C303.709 102.098 303.383 102.045 303.013 102.019C302.642 101.993 302.255 102.019 301.849 102.089C301.444 102.16 301.047 102.31 300.651 102.539C300.122 102.847 299.796 103.2 299.681 103.588C299.558 103.984 299.646 104.39 299.928 104.813C300.21 105.236 300.686 105.641 301.365 106.029C302.043 106.417 302.748 106.699 303.48 106.866C304.211 107.033 304.916 107.078 305.604 107.007C306.282 106.936 306.89 106.751 307.419 106.443C307.816 106.214 308.071 105.985 308.194 105.747C308.318 105.509 308.353 105.289 308.3 105.068C308.256 104.857 308.168 104.663 308.053 104.495L308.142 104.442L309.367 105.148L310.124 104.707" fill="#FF8C24"/>
<path d="M308.97 101.077C308.626 100.856 308.38 100.618 308.221 100.354C308.036 100.046 307.983 99.7372 308.08 99.4376C308.168 99.1379 308.415 98.8647 308.829 98.6268C309.243 98.3889 309.701 98.239 310.213 98.195C310.724 98.1509 311.244 98.1862 311.773 98.3095C312.204 98.4065 312.61 98.5563 312.997 98.7502L308.979 101.086M314.469 98.6797L314.126 98.477C313.57 98.1597 313.015 97.9218 312.451 97.772C311.896 97.6221 311.349 97.5516 310.812 97.5428C310.274 97.534 309.79 97.5957 309.323 97.7103C308.864 97.8248 308.45 97.9835 308.098 98.195C307.534 98.521 307.181 98.9 307.049 99.3142C306.908 99.7284 306.987 100.16 307.252 100.592C307.525 101.024 307.992 101.429 308.644 101.808C309.296 102.187 310.001 102.452 310.75 102.61C311.499 102.76 312.24 102.795 312.971 102.698C313.702 102.601 314.372 102.381 314.98 102.029C315.421 101.773 315.729 101.509 315.923 101.235C316.117 100.953 316.214 100.689 316.197 100.425C316.188 100.16 316.091 99.9223 315.923 99.702L314.936 100.002C315.051 100.16 315.113 100.328 315.113 100.513C315.113 100.698 315.051 100.883 314.919 101.077C314.786 101.271 314.566 101.447 314.267 101.623C313.817 101.879 313.332 102.046 312.786 102.117C312.248 102.187 311.693 102.161 311.138 102.037C310.609 101.923 310.107 101.738 309.631 101.473L314.452 98.6709" fill="#FF8C24"/>
<path d="M316.417 94.3176L315.624 93.8594C315.562 93.8858 315.5 93.9211 315.421 93.9651C315.342 94.0092 315.271 94.0444 315.209 94.0885C314.804 94.3265 314.54 94.5908 314.425 94.8905C314.31 95.1901 314.346 95.4809 314.548 95.7453L314.487 95.7806L313.473 95.1901L312.707 95.6396L319.246 99.4114L320.03 98.9532L315.835 96.5296C315.509 96.3446 315.297 96.1331 315.201 95.9039C315.095 95.6748 315.112 95.4369 315.227 95.2077C315.342 94.9786 315.571 94.7583 315.906 94.5644C316.011 94.5027 316.108 94.4498 316.205 94.4058C316.302 94.3617 316.373 94.3353 316.408 94.3176" fill="#FF8C24"/>
<path d="M295.134 120.835L297.099 119.698C297.549 119.434 298.007 119.267 298.474 119.196C298.941 119.117 299.391 119.126 299.84 119.214C300.281 119.302 300.686 119.452 301.065 119.663C301.444 119.875 301.708 120.122 301.858 120.377C302.008 120.633 302.017 120.897 301.893 121.17C301.77 121.435 301.479 121.708 301.03 121.963L299.065 123.109L295.152 120.844M301.876 119.179C301.365 118.888 300.801 118.685 300.193 118.57C299.576 118.456 298.941 118.456 298.289 118.562C297.637 118.667 297.002 118.897 296.394 119.249L293.574 120.888L302.281 125.911L303.11 125.436L299.805 123.523L301.805 122.36C302.413 122.007 302.81 121.637 302.986 121.258C303.163 120.879 303.145 120.509 302.951 120.157C302.748 119.795 302.396 119.469 301.885 119.179" fill="#FF8C24"/>
<path d="M306.874 119.495C306.389 119.213 306.028 118.914 305.781 118.579C305.543 118.253 305.455 117.927 305.517 117.609C305.578 117.292 305.834 117.001 306.275 116.746C306.715 116.49 307.209 116.34 307.764 116.305C308.319 116.261 308.874 116.314 309.438 116.455C310.002 116.596 310.531 116.807 311.016 117.081C311.501 117.354 311.862 117.662 312.1 117.988C312.338 118.314 312.426 118.64 312.364 118.958C312.294 119.275 312.038 119.566 311.598 119.821C311.157 120.077 310.655 120.227 310.108 120.271C309.562 120.315 308.998 120.262 308.443 120.121C307.879 119.98 307.359 119.777 306.874 119.495ZM311.818 116.622C311.148 116.235 310.434 115.97 309.685 115.812C308.936 115.662 308.196 115.626 307.473 115.715C306.759 115.803 306.116 116.005 305.561 116.332C305.006 116.658 304.635 117.028 304.494 117.442C304.353 117.856 304.415 118.288 304.68 118.72C304.944 119.152 305.411 119.566 306.081 119.954C306.751 120.341 307.447 120.597 308.196 120.756C308.945 120.905 309.685 120.941 310.399 120.852C311.113 120.773 311.756 120.562 312.32 120.236C312.884 119.909 313.237 119.531 313.387 119.116C313.536 118.702 313.475 118.279 313.201 117.838C312.937 117.407 312.47 116.992 311.818 116.614" fill="#FF8C24"/>
<path d="M319.104 116.102L318.258 115.802C318.205 115.855 318.144 115.899 318.082 115.961C318.012 116.014 317.95 116.058 317.897 116.093C317.633 116.278 317.359 116.375 317.06 116.366C316.769 116.366 316.452 116.269 316.134 116.084L311.834 113.599L313.173 112.824L312.486 112.427L311.146 113.203L309.587 112.304L308.793 112.762L310.353 113.661L309.393 114.225L310.08 114.621L311.041 114.057L315.394 116.569C315.897 116.86 316.443 117.001 317.016 117.001C317.589 117.001 318.117 116.833 318.602 116.507C318.699 116.446 318.796 116.375 318.884 116.314C318.972 116.243 319.043 116.181 319.104 116.111" fill="#FF8C24"/>
<path d="M238.972 214.99L228.846 226.729L228.854 228.28L239.007 228.306V225.909L231.34 226.147V226.006L238.98 217.414L238.972 214.99Z" fill="#FF8C24"/>
<path d="M249.159 203.701L247.37 204.732L242.276 229.725L244.065 228.703L249.159 203.701Z" fill="#FF8C24"/>
<path d="M252.427 207.227V209.65L260.094 209.403V209.562L252.453 218.146V220.543L262.588 208.813V207.253L252.427 207.235" fill="#FF8C24"/>
</g>
<defs>
<filter id="filter0_d_6350_24279" x="35.6688" y="22.9432" width="46.3288" height="35.7356" filterUnits="userSpaceOnUse" color-interpolation-filters="sRGB">
<feFlood flood-opacity="0" result="BackgroundImageFix"/>
<feColorMatrix in="SourceAlpha" type="matrix" values="0 0 0 0 0 0 0 0 0 0 0 0 0 0 0 0 0 0 127 0" result="hardAlpha"/>
<feOffset/>
<feGaussianBlur stdDeviation="5.28766"/>
<feColorMatrix type="matrix" values="0 0 0 0 1 0 0 0 0 0.639216 0 0 0 0 0 0 0 0 0.6 0"/>
<feBlend mode="normal" in2="BackgroundImageFix" result="effect1_dropShadow_6350_24279"/>
<feBlend mode="normal" in="SourceGraphic" in2="effect1_dropShadow_6350_24279" result="shape"/>
</filter>
<filter id="filter1_d_6350_24279" x="346.397" y="22.9432" width="46.3288" height="35.7356" filterUnits="userSpaceOnUse" color-interpolation-filters="sRGB">
<feFlood flood-opacity="0" result="BackgroundImageFix"/>
<feColorMatrix in="SourceAlpha" type="matrix" values="0 0 0 0 0 0 0 0 0 0 0 0 0 0 0 0 0 0 127 0" result="hardAlpha"/>
<feOffset/>
<feGaussianBlur stdDeviation="5.28766"/>
<feColorMatrix type="matrix" values="0 0 0 0 1 0 0 0 0 0.639216 0 0 0 0 0 0 0 0 0.6 0"/>
<feBlend mode="normal" in2="BackgroundImageFix" result="effect1_dropShadow_6350_24279"/>
<feBlend mode="normal" in="SourceGraphic" in2="effect1_dropShadow_6350_24279" result="shape"/>
</filter>
<filter id="filter2_d_6350_24279" x="35.6688" y="196.933" width="46.3288" height="35.7356" filterUnits="userSpaceOnUse" color-interpolation-filters="sRGB">
<feFlood flood-opacity="0" result="BackgroundImageFix"/>
<feColorMatrix in="SourceAlpha" type="matrix" values="0 0 0 0 0 0 0 0 0 0 0 0 0 0 0 0 0 0 127 0" result="hardAlpha"/>
<feOffset/>
<feGaussianBlur stdDeviation="5.28766"/>
<feColorMatrix type="matrix" values="0 0 0 0 1 0 0 0 0 0.639216 0 0 0 0 0 0 0 0 0.6 0"/>
<feBlend mode="normal" in2="BackgroundImageFix" result="effect1_dropShadow_6350_24279"/>
<feBlend mode="normal" in="SourceGraphic" in2="effect1_dropShadow_6350_24279" result="shape"/>
</filter>
<filter id="filter3_d_6350_24279" x="332.29" y="196.933" width="46.3288" height="35.7356" filterUnits="userSpaceOnUse" color-interpolation-filters="sRGB">
<feFlood flood-opacity="0" result="BackgroundImageFix"/>
<feColorMatrix in="SourceAlpha" type="matrix" values="0 0 0 0 0 0 0 0 0 0 0 0 0 0 0 0 0 0 127 0" result="hardAlpha"/>
<feOffset/>
<feGaussianBlur stdDeviation="5.28766"/>
<feColorMatrix type="matrix" values="0 0 0 0 1 0 0 0 0 0.639216 0 0 0 0 0 0 0 0 0.6 0"/>
<feBlend mode="normal" in2="BackgroundImageFix" result="effect1_dropShadow_6350_24279"/>
<feBlend mode="normal" in="SourceGraphic" in2="effect1_dropShadow_6350_24279" result="shape"/>
</filter>
<clipPath id="clip0_6350_24279">
<rect width="428" height="267" fill="white"/>
</clipPath>
</defs>
</svg>
