<svg width="91" height="28" viewBox="0 0 91 28" fill="none" xmlns="http://www.w3.org/2000/svg">
<g clip-path="url(#clip0_4157_5742)">
<g clip-path="url(#clip1_4157_5742)">
<path d="M58.9717 5.19922H44.29V12.5996H56.1553V17.7988H44.29V28H37.8096V0H58.9717V5.19922ZM75.5723 9.08008L81.8926 0H88.8936L79.1328 13.5195L89.5742 28H82.0908L75.3301 18.2783L68.6895 28H61.248L71.6094 13.7588L61.7715 0H69.1309L75.5723 9.08008Z" fill="#121212"/>
<path d="M20.9023 0C28.5454 0.000101333 34.742 6.01928 34.7422 13.8428C34.7422 21.6664 28.4007 28.0057 20.5801 28.0059H10.5674V22.3203H19.2217C23.7975 22.3203 27.54 18.5788 27.54 14.0029C27.54 9.42703 23.7976 5.68555 19.2217 5.68555H10.5674V0H20.9023ZM8.20117 6.23828C12.4894 6.23834 15.9658 9.71473 15.9658 14.0029C15.9658 18.2911 12.4893 21.7675 8.20117 21.7676C3.91296 21.7676 0.436565 18.2911 0.436523 14.0029C0.436523 9.71469 3.91293 6.23828 8.20117 6.23828ZM13.374 6.79785C14.279 6.63519 15.2284 6.64355 16.1807 6.85938C19.9816 7.71717 22.3695 11.495 21.5117 15.2959C20.7189 18.8067 17.4354 21.1105 13.9424 20.7646C15.856 19.1378 17.0713 16.7122 17.0713 14.0029C17.0713 11.0333 15.6131 8.40993 13.374 6.79785Z" fill="#121212"/>
</g>
</g>
<defs>
<clipPath id="clip0_4157_5742">
<rect width="89.6" height="28" fill="white" transform="translate(0.436523)"/>
</clipPath>
<clipPath id="clip1_4157_5742">
<rect width="89.1345" height="28" fill="white" transform="translate(0.436523)"/>
</clipPath>
</defs>
</svg>
