<svg width="80" height="80" viewBox="0 0 80 80" fill="none" xmlns="http://www.w3.org/2000/svg">
<rect width="80" height="80" fill="#003399"/>
<path d="M41.4525 17.6654L43.737 16.0052H40.9144L40.0399 13.3198L39.1681 16.0052H36.3454L38.6299 17.6654L37.7554 20.3508L40.0399 18.6906L42.3243 20.3508L41.4525 17.6654ZM41.4525 64.3048L43.737 62.6445H40.9144L40.0399 59.9591L39.1681 62.6445H36.3454L38.6299 64.3048L37.7554 66.9902L40.0399 65.3299L42.3243 66.9902L41.4525 64.3048ZM18.1342 40.9838L20.4187 39.3235H17.5934L16.7215 36.6381L15.847 39.3235H13.0244L15.3089 40.9838L14.4371 43.6692L16.7215 42.0089L19.006 43.6692L18.1342 40.9838ZM21.1129 29.4538L23.3974 27.7935H20.5721L19.7002 25.1081L18.8284 27.7935H16.0031L18.2876 29.4538L17.4158 32.1392L19.7002 30.4789L21.9847 32.1392L21.1129 29.4538ZM21.1129 52.6456L23.3974 50.9854H20.5721L19.7002 48.3L18.8284 50.9854H16.0031L18.2876 52.6456L17.4158 55.331L19.7002 53.6708L21.9847 55.331L21.1129 52.6456ZM29.7934 20.7894L32.0778 19.1292H29.2525L28.3807 16.4438L27.5089 19.1292H24.6836L26.968 20.7894L26.0962 23.4748L28.3807 21.8146L30.6652 23.4748L29.7934 20.7894ZM29.7934 61.3314L32.0778 59.6712H29.2525L28.3807 56.9858L27.5089 59.6712H24.6836L26.968 61.3314L26.0962 64.0168L28.3807 62.3593L30.6652 64.0168L29.7934 61.3314ZM61.8702 40.9838L59.5857 39.3235H62.411L63.2828 36.6381L64.1573 39.3235H66.98L64.6955 40.9838L65.5673 43.6692L63.2828 42.0089L60.9984 43.6692L61.8702 40.9838ZM58.8915 29.4538L56.607 27.7935H59.4323L60.3041 25.1081L61.176 27.7935H64.0013L61.7168 29.4538L62.5886 32.1392L60.3041 30.4789L58.0197 32.1392L58.8915 29.4538ZM58.8915 52.6456L56.607 50.9854H59.4323L60.3041 48.3L61.176 50.9854H64.0013L61.7168 52.6456L62.5886 55.331L60.3041 53.6708L58.0197 55.331L58.8915 52.6456ZM50.211 20.7894L47.9265 19.1292H50.7519L51.6237 16.4438L52.4955 19.1292H55.3208L53.0363 20.7894L53.9082 23.4748L51.6237 21.8146L49.3392 23.4748L50.211 20.7894ZM50.211 61.3314L47.9265 59.6712H50.7519L51.6237 56.9858L52.4955 59.6712H55.3208L53.0363 61.3314L53.9082 64.0168L51.6237 62.3593L49.3392 64.0168L50.211 61.3314Z" fill="#FFCC00"/>
</svg>
