<svg width="60" height="60" viewBox="0 0 60 60" fill="none" xmlns="http://www.w3.org/2000/svg">
<g clip-path="url(#clip0_4436_21672)">
<path d="M30 60C46.5685 60 60 46.5685 60 30C60 13.4315 46.5685 0 30 0C13.4315 0 0 13.4315 0 30C0 46.5685 13.4315 60 30 60Z" fill="#F7911A"/>
<path d="M48.1499 33.6262H12.1499V37.378H48.1499V33.6262Z" fill="white"/>
<path d="M38.9918 46.5592H21.3071L28.5607 37.3777H31.7382L38.9918 46.5592Z" fill="white"/>
<path d="M28.2339 21.779H32.0689C33.3245 21.8593 34.3003 22.9036 34.3003 24.1591C34.3003 25.4147 33.3245 26.459 32.0689 26.5393H25.5145V28.1667H29.3139V29.8894H30.9324V28.1667H32.0392C33.1073 28.1786 34.1367 27.7621 34.8954 27.0094C36.0438 25.8669 36.3919 24.1442 35.7731 22.6477C35.1542 21.1482 33.6904 20.1753 32.0689 20.1813H28.2369C27.264 20.1902 26.3833 19.6071 26.0144 18.7085C25.6425 17.81 25.8597 16.7747 26.5588 16.0963C27.0021 15.6471 27.6061 15.3971 28.2369 15.3971H34.7823V13.7697H30.983V12.0352H29.3645V13.7667H28.2369C27.1747 13.7667 26.1602 14.1922 25.4104 14.9449C24.262 16.0874 23.9139 17.81 24.5327 19.3066C25.1516 20.8031 26.6154 21.779 28.2369 21.773L28.2339 21.779Z" fill="white"/>
</g>
<defs>
<clipPath id="clip0_4436_21672">
<rect width="60" height="60" fill="white"/>
</clipPath>
</defs>
</svg>
