<svg width="61" height="60" viewBox="0 0 61 60" fill="none" xmlns="http://www.w3.org/2000/svg">
<g clip-path="url(#clip0_4436_21682)">
<path d="M30.6665 60C47.235 60 60.6665 46.5685 60.6665 30C60.6665 13.4315 47.235 0 30.6665 0C14.098 0 0.666504 13.4315 0.666504 30C0.666504 46.5685 14.098 60 30.6665 60Z" fill="#F7911A"/>
<path d="M47.1665 25.896V20.475L42.4715 17.763L38.4005 20.115L35.3615 18.36V13.659L30.6665 10.947L25.9715 13.659V18.36L22.9325 20.115L18.8615 17.763L14.1665 20.475V25.896L18.2375 28.245V31.755L14.1665 34.104V39.525L18.8615 42.237L22.9325 39.885L25.9715 41.64V46.341L30.6665 49.053L35.3615 46.341V41.64L38.4005 39.885L42.4715 42.237L47.1665 39.525V34.104L43.0955 31.755V28.245L47.1665 25.896ZM43.0955 26.805V23.547L45.9185 21.918V25.179L43.0955 26.808V26.805ZM42.4715 36.096L39.6485 34.467L42.4715 32.838L45.2945 34.467L42.4715 36.096ZM37.7765 34.104V38.805L34.7375 40.56L31.2905 38.571V35.061L35.3615 32.712V28.011L38.4005 26.256L41.8475 28.245V31.755L37.7765 34.104ZM30.6665 42.912L27.8435 41.283L30.6665 39.654L33.4895 41.283L30.6665 42.912ZM18.8615 36.096L16.0385 34.467L18.8615 32.838L21.6845 34.467L18.8615 36.096ZM19.4855 31.755V28.245L22.9325 26.256L25.9715 28.011V32.712L30.0425 35.061V38.571L26.5955 40.56L23.5565 38.805V34.104L19.4855 31.755ZM34.1135 15.099V18.357L31.2905 19.986V16.728L34.1135 15.099ZM30.6665 21.789L34.7375 19.44L37.7765 21.195V25.176L34.7375 26.931L30.6665 24.579L26.5955 26.928L23.5565 25.173V21.192L26.5955 19.437L30.6665 21.786V21.789ZM31.2905 30.36L34.1135 28.731V31.992L31.2905 33.621V30.36ZM30.6665 29.28L27.8435 27.651L30.6665 26.022L33.4895 27.651L30.6665 29.28ZM22.3085 21.915V25.176L19.4855 26.805V23.547L22.3085 21.918V21.915ZM42.4715 19.203L45.2945 20.832L42.4715 22.461L39.6485 20.832L42.4715 19.203ZM33.4895 14.019L30.6665 15.648L27.8435 14.019L30.6665 12.39L33.4895 14.019ZM21.6845 20.835L18.8615 22.464L16.0385 20.835L18.8615 19.206L21.6845 20.835ZM19.4855 40.437V37.176L22.3085 35.547V38.805L19.4855 40.434V40.437ZM34.1135 45.621L31.2905 47.25V43.992L34.1135 42.363V45.621ZM43.0955 40.437V37.176L45.9185 35.547V38.805L43.0955 40.434V40.437Z" fill="white"/>
</g>
<defs>
<clipPath id="clip0_4436_21682">
<rect width="60" height="60" fill="white" transform="translate(0.666504)"/>
</clipPath>
</defs>
</svg>
