<svg width="61" height="60" viewBox="0 0 61 60" fill="none" xmlns="http://www.w3.org/2000/svg">
<g clip-path="url(#clip0_4436_21677)">
<path d="M30.3335 60C46.902 60 60.3335 46.5685 60.3335 30C60.3335 13.4315 46.902 0 30.3335 0C13.765 0 0.333496 13.4315 0.333496 30C0.333496 46.5685 13.765 60 30.3335 60Z" fill="#F7911A"/>
<path d="M44.3231 47.1429H15.959L18.8957 42.2379H41.3836L44.3203 47.1429H44.3231Z" fill="white"/>
<path d="M20.5202 42.2379L22.1447 39.241H38.083L39.7075 42.2379" fill="white"/>
<path d="M43.4208 40.3899L16.0136 12.9856L17.045 12L44.4121 39.3671L43.4208 40.3899Z" fill="white"/>
<path d="M22.7437 16.0655C24.9498 14.7189 27.4853 14.0084 30.1126 14.0084C33.9088 14.0084 37.4443 15.461 40.063 18.0997C42.524 20.578 43.8649 23.827 43.842 27.2479C43.842 29.9582 43.0111 32.5454 41.4353 34.7572L42.4553 35.7772C44.2947 33.2788 45.2688 30.3364 45.2688 27.2507C45.2946 23.4517 43.8076 19.8417 41.0743 17.0912C38.1835 14.1803 34.2899 12.5787 30.1097 12.5787C27.1043 12.5787 24.202 13.4268 21.7065 15.0255L22.7408 16.0598L22.7437 16.0655Z" fill="white"/>
<path d="M38.8624 37.4675C38.3926 37.8429 37.9141 38.1752 37.4528 38.4531L36.344 39.0634C34.3958 40.0203 32.2928 40.5045 30.0953 40.5045C27.6801 40.5045 25.305 39.8942 23.2307 38.7453L22.7436 38.4703C18.7869 36.0637 16.3287 31.7661 16.3287 27.2507C16.3287 23.9989 17.5779 20.8874 19.847 18.4493L18.8385 17.4407C16.3001 20.1482 14.9048 23.6207 14.9048 27.2507C14.9048 32.2588 17.6266 37.0234 22.0245 39.6994L22.5373 39.9888C24.8265 41.2609 27.4423 41.9313 30.1011 41.9313C32.5278 41.9313 34.8456 41.3955 36.9944 40.3355L38.1691 39.688C38.7478 39.3413 39.3208 38.9344 39.8795 38.4789L38.8682 37.4675H38.8624Z" fill="white"/>
</g>
<defs>
<clipPath id="clip0_4436_21677">
<rect width="60" height="60" fill="white" transform="translate(0.333496)"/>
</clipPath>
</defs>
</svg>
