<svg width="250" height="250" viewBox="0 0 250 250" fill="none" xmlns="http://www.w3.org/2000/svg">
<path d="M72.1997 52.595L60.8344 41.2298M60.0855 64.7105L48.7203 53.3453M47.9678 76.8265L36.6025 65.4612M119.09 99.4854L107.724 88.1202M106.975 111.601L95.6102 100.236M94.8595 123.717L83.4943 112.352M112.408 66.2474H130.921M94.0728 47.9131V29.3999M89.9098 81.3471L78.5446 69.9819M77.7939 93.4631L66.4286 82.0978M106.226 54.0958L106.208 54.078C96.3976 44.2679 80.4924 44.2679 70.6824 54.078L49.453 75.3074C39.6429 85.1174 39.6429 101.023 49.453 110.833L49.4708 110.851C59.2809 120.661 75.1861 120.661 84.9961 110.851L106.226 89.6211C116.036 79.8111 116.036 63.9059 106.226 54.0958Z" stroke="#C5C5C6" stroke-width="2.27273"/>
<path d="M162.145 136.702L147.563 137.623L144.061 134.245C159.063 116.741 166.81 92.8667 162.565 67.4909C156.695 32.7422 127.691 4.99857 92.6926 0.745442C39.8144 -5.75934 -4.69147 38.7466 1.81331 91.6247C6.06644 126.624 33.819 155.627 68.5677 161.506C93.9435 165.76 117.818 158.004 135.322 143.002L138.7 146.504L137.779 161.086L220.787 244.094C227.452 250.76 238.335 250.76 245.001 244.094C251.667 237.428 251.667 226.545 245.001 219.88L162.154 136.711L162.145 136.702ZM82.444 152.536C43.0668 152.536 11.2846 120.753 11.2846 81.3761C11.2846 41.999 43.0668 10.2167 82.444 10.2167C121.821 10.2167 153.603 41.999 153.603 81.3761C153.603 120.753 121.821 152.536 82.444 152.536Z" fill="url(#paint0_linear_4191_6292)"/>
<defs>
<linearGradient id="paint0_linear_4191_6292" x1="125.59" y1="0.111816" x2="125.59" y2="249.093" gradientUnits="userSpaceOnUse">
<stop stop-color="#F0F0F0"/>
<stop offset="1" stop-color="#C4C4C4"/>
</linearGradient>
</defs>
</svg>
