<svg width="90" height="90" viewBox="0 0 90 90" fill="none" xmlns="http://www.w3.org/2000/svg">
<path d="M45 67.7842C45.3068 67.7842 45.5557 68.0331 45.5557 68.3398V71.4365C45.5552 71.7429 45.3065 71.9912 45 71.9912C44.6935 71.9912 44.4448 71.7429 44.4443 71.4365V68.3398C44.4443 68.0331 44.6932 67.7842 45 67.7842Z" fill="url(#paint0_linear_6918_13003)"/>
<path d="M35.5547 66.3535C35.6723 66.0704 35.997 65.9363 36.2803 66.0537C36.5633 66.1713 36.6975 66.4961 36.5801 66.7793L35.3955 69.6367C35.2779 69.9197 34.9531 70.0538 34.6699 69.9365C34.3867 69.819 34.2527 69.4942 34.3701 69.2109L35.5547 66.3535Z" fill="url(#paint1_linear_6918_13003)"/>
<path d="M53.7188 66.0537C54.002 65.9363 54.3268 66.0703 54.4443 66.3535L55.6289 69.2109C55.7463 69.4942 55.6123 69.819 55.3291 69.9365C55.0459 70.0538 54.7211 69.9197 54.6035 69.6367L53.4189 66.7793C53.3015 66.4961 53.4357 66.1714 53.7188 66.0537Z" fill="url(#paint2_linear_6918_13003)"/>
<path fill-rule="evenodd" clip-rule="evenodd" d="M45.001 24.1875C56.4742 24.1877 65.8125 33.5268 65.8125 45C65.8123 56.4731 56.4741 65.8113 45.001 65.8115C33.5277 65.8115 24.1887 56.4732 24.1885 45C24.1885 33.5266 33.5276 24.1875 45.001 24.1875ZM46.5557 34.0205C45.3977 33.8177 44.3087 33.7702 43.2842 33.877C41.9501 34.021 40.8237 34.4208 39.9111 35.0771C38.9987 35.7335 38.4009 36.6513 38.1074 37.8252C37.83 38.935 37.8726 39.9331 38.2354 40.8135C38.5982 41.6993 39.1484 42.5052 39.8955 43.2363C40.6426 43.9674 41.454 44.6398 42.3398 45.2588C43.2256 45.8778 44.0475 46.4863 44.8105 47.084C45.5735 47.6816 46.1708 48.2902 46.5977 48.9092C47.0246 49.5282 47.1472 50.1952 46.9658 50.9209C46.7417 51.8173 46.1978 52.3937 45.3281 52.6553C44.4583 52.9167 43.4816 52.9112 42.3877 52.6338C42.0035 52.5377 41.5497 52.3727 41.0908 52.1699C39.7514 51.5883 38.7803 50.4248 38.4814 49.0801C38.4338 48.858 38.3962 48.7145 38.3955 48.7119L36.1436 48.1514L35.167 52.0635C35.8287 52.5224 36.4905 53.0133 37.8672 53.707C39.0304 54.294 39.9805 54.6993 41.3037 55.0781L40.2959 59.123L42.8623 59.7637L43.8975 55.6123C44.8687 55.735 45.8081 55.7616 46.71 55.6709C48.172 55.5268 49.4154 55.0943 50.4346 54.374C51.4591 53.6536 52.1315 52.6448 52.457 51.3428C52.7345 50.2329 52.6811 49.2404 52.3076 48.3652L52.3135 48.3545C51.9346 47.4794 51.3794 46.6842 50.6484 45.9639C49.912 45.2488 49.1061 44.576 48.2256 43.9463C47.3451 43.3166 46.5233 42.7081 45.7549 42.1211C44.9865 41.5341 44.3883 40.9424 43.9561 40.3447C43.5239 39.7472 43.3904 39.1225 43.5557 38.4609C43.7584 37.6498 44.2502 37.1101 45.04 36.8379C45.8244 36.5712 46.7532 36.5658 47.8203 36.8379C48.4446 36.9926 49.1541 37.2334 49.6396 37.5322C51.7314 38.8191 51.5796 41.0097 51.5771 41.043L51.6621 41.0645L53.834 41.6094L54.8369 37.5742C54.8027 37.5518 53.0794 36.4208 51.748 35.7656C50.9744 35.3868 50.0242 34.9975 49.1172 34.6934L50.1572 30.5146L47.5908 29.874L46.5557 34.0205Z" fill="url(#paint3_linear_6918_13003)"/>
<path d="M28.1045 61.1104C28.3214 60.8935 28.6728 60.8935 28.8896 61.1104C29.1063 61.3272 29.1064 61.6787 28.8896 61.8955L26.6982 64.0869C26.4814 64.3035 26.1299 64.3035 25.9131 64.0869C25.6962 63.8701 25.6964 63.5187 25.9131 63.3018L28.1045 61.1104Z" fill="url(#paint4_linear_6918_13003)"/>
<path d="M61.1113 61.1104C61.3282 60.8934 61.6796 60.8934 61.8965 61.1104L64.0879 63.3018C64.3044 63.5187 64.3047 63.8701 64.0879 64.0869C63.8711 64.3037 63.5197 64.3034 63.3027 64.0869L61.1113 61.8955C60.8944 61.6786 60.8944 61.3273 61.1113 61.1104Z" fill="url(#paint5_linear_6918_13003)"/>
<path d="M23.2207 53.4209C23.504 53.3034 23.8287 53.4375 23.9463 53.7207C24.0634 54.0038 23.9294 54.3287 23.6465 54.4463L20.7891 55.6309C20.506 55.7481 20.1811 55.6139 20.0635 55.3311C19.9461 55.0479 20.0803 54.7231 20.3633 54.6055L23.2207 53.4209Z" fill="url(#paint6_linear_6918_13003)"/>
<path d="M66.0547 53.7207C66.1723 53.4375 66.497 53.3035 66.7803 53.4209L69.6377 54.6055C69.9206 54.7232 70.0549 55.0479 69.9375 55.3311C69.8199 55.6139 69.495 55.7481 69.2119 55.6309L66.3545 54.4463C66.0714 54.3288 65.9375 54.0039 66.0547 53.7207Z" fill="url(#paint7_linear_6918_13003)"/>
<path d="M21.6592 44.4443C21.9657 44.4446 22.2138 44.6935 22.2139 45C22.2139 45.3066 21.9657 45.5554 21.6592 45.5557H18.5625C18.2557 45.5557 18.0068 45.3068 18.0068 45C18.0069 44.6933 18.2558 44.4443 18.5625 44.4443H21.6592Z" fill="url(#paint8_linear_6918_13003)"/>
<path d="M71.4365 44.4443C71.7431 44.4445 71.9921 44.6934 71.9922 45C71.9922 45.3066 71.7431 45.5555 71.4365 45.5557H68.3408C68.0341 45.5557 67.7852 45.3068 67.7852 45C67.7852 44.6933 68.0341 44.4443 68.3408 44.4443H71.4365Z" fill="url(#paint9_linear_6918_13003)"/>
<path d="M20.0635 34.6699C20.181 34.3868 20.5058 34.2528 20.7891 34.3701L23.6465 35.5547C23.9296 35.6723 24.0637 35.9971 23.9463 36.2803C23.8287 36.5635 23.504 36.6975 23.2207 36.5801L20.3633 35.3955C20.0802 35.2779 19.9461 34.9531 20.0635 34.6699Z" fill="url(#paint10_linear_6918_13003)"/>
<path d="M69.2119 34.3701C69.4952 34.2527 69.82 34.3867 69.9375 34.6699C70.0549 34.9531 69.9207 35.2778 69.6377 35.3955L66.7803 36.5801C66.497 36.6975 66.1723 36.5634 66.0547 36.2803C65.9372 35.997 66.0713 35.6723 66.3545 35.5547L69.2119 34.3701Z" fill="url(#paint11_linear_6918_13003)"/>
<path d="M25.9131 25.9131C26.13 25.6963 26.4814 25.6963 26.6982 25.9131L28.8896 28.1045C29.1064 28.3214 29.1064 28.6728 28.8896 28.8896C28.6728 29.1065 28.3214 29.1064 28.1045 28.8896L25.9131 26.6982C25.6962 26.4813 25.6962 26.13 25.9131 25.9131Z" fill="url(#paint12_linear_6918_13003)"/>
<path d="M63.3027 25.9131C63.5197 25.6965 63.8711 25.6963 64.0879 25.9131C64.3046 26.1299 64.3045 26.4814 64.0879 26.6982L61.8965 28.8896C61.6796 29.1064 61.3282 29.1064 61.1113 28.8896C60.8945 28.6728 60.8945 28.3214 61.1113 28.1045L63.3027 25.9131Z" fill="url(#paint13_linear_6918_13003)"/>
<path d="M34.6699 20.0635C34.9531 19.9462 35.2779 20.0803 35.3955 20.3633L36.5801 23.2207C36.6975 23.5039 36.5634 23.8287 36.2803 23.9463C35.9971 24.0637 35.6723 23.9295 35.5547 23.6465L34.3701 20.7891C34.2528 20.5058 34.3868 20.181 34.6699 20.0635Z" fill="url(#paint14_linear_6918_13003)"/>
<path d="M54.6035 20.3633C54.7211 20.0803 55.0459 19.9463 55.3291 20.0635C55.6122 20.181 55.7463 20.5058 55.6289 20.7891L54.4443 23.6465C54.3267 23.9296 54.002 24.0637 53.7188 23.9463C53.4357 23.8286 53.3015 23.5039 53.4189 23.2207L54.6035 20.3633Z" fill="url(#paint15_linear_6918_13003)"/>
<path d="M45 18.0068C45.3067 18.0068 45.5556 18.2558 45.5557 18.5625V21.6592C45.5554 21.9657 45.3066 22.2139 45 22.2139C44.6934 22.2139 44.4446 21.9657 44.4443 21.6592V18.5625C44.4444 18.2558 44.6933 18.0068 45 18.0068Z" fill="url(#paint16_linear_6918_13003)"/>
<path fill-rule="evenodd" clip-rule="evenodd" d="M45.75 16.0098C61.4214 16.407 74.001 29.2328 74.001 45C74.001 61.0177 61.0186 74 45.001 74L44.252 73.9902C28.5805 73.593 16.001 60.7672 16.001 45C16.001 28.9823 28.9833 16 45.001 16L45.75 16.0098ZM45.001 17.125C29.6046 17.125 17.126 29.6037 17.126 45C17.126 60.3964 29.6046 72.875 45.001 72.875C60.3973 72.875 72.876 60.3964 72.876 45C72.876 29.6037 60.3973 17.125 45.001 17.125Z" fill="url(#paint17_linear_6918_13003)"/>
<path d="M7.75098 54.6592C8.51568 54.6592 9.13574 55.2792 9.13574 56.0439V65.5176C9.13574 66.2823 8.51568 66.9023 7.75098 66.9023H5.01953C4.25483 66.9023 3.63477 66.2823 3.63477 65.5176V56.0439C3.63477 55.2792 4.25483 54.6592 5.01953 54.6592H7.75098Z" fill="url(#paint18_linear_6918_13003)"/>
<path d="M7.75098 23.0967C8.51568 23.0967 9.13574 23.7167 9.13574 24.4814V33.9551C9.13574 34.7198 8.51568 35.3398 7.75098 35.3398H5.01953C4.25483 35.3398 3.63477 34.7198 3.63477 33.9551V24.4814C3.63477 23.7167 4.25483 23.0967 5.01953 23.0967H7.75098Z" fill="url(#paint19_linear_6918_13003)"/>
<path fill-rule="evenodd" clip-rule="evenodd" d="M72 0C81.9411 0 90 8.05888 90 18V72C90 81.7857 82.1911 89.7476 72.4648 89.9941L72 90H18L17.5352 89.9941C7.96334 89.7515 0.248497 82.0367 0.00585938 72.4648L0 72V18C0 8.05888 8.05888 1.44958e-07 18 0H72ZM18 6.25C11.5107 6.25 6.25 11.5107 6.25 18V22.0967H5.01953C3.70255 22.0967 2.63477 23.1645 2.63477 24.4814V33.9551C2.63477 35.2721 3.70255 36.3398 5.01953 36.3398H6.25V53.6602H5.01953C3.70255 53.6602 2.63477 54.7279 2.63477 56.0449V65.5186C2.63477 66.8355 3.70255 67.9033 5.01953 67.9033H6.25V72C6.25 78.4893 11.5107 83.75 18 83.75H72C78.4893 83.75 83.75 78.4893 83.75 72V18C83.75 11.5107 78.4893 6.25 72 6.25H18Z" fill="url(#paint20_linear_6918_13003)"/>
<defs>
<linearGradient id="paint0_linear_6918_13003" x1="45" y1="0" x2="45" y2="90" gradientUnits="userSpaceOnUse">
<stop stop-color="#F7911A"/>
<stop offset="1" stop-color="#F57F00"/>
</linearGradient>
<linearGradient id="paint1_linear_6918_13003" x1="45" y1="0" x2="45" y2="90" gradientUnits="userSpaceOnUse">
<stop stop-color="#F7911A"/>
<stop offset="1" stop-color="#F57F00"/>
</linearGradient>
<linearGradient id="paint2_linear_6918_13003" x1="45" y1="0" x2="45" y2="90" gradientUnits="userSpaceOnUse">
<stop stop-color="#F7911A"/>
<stop offset="1" stop-color="#F57F00"/>
</linearGradient>
<linearGradient id="paint3_linear_6918_13003" x1="45" y1="0" x2="45" y2="90" gradientUnits="userSpaceOnUse">
<stop stop-color="#F7911A"/>
<stop offset="1" stop-color="#F57F00"/>
</linearGradient>
<linearGradient id="paint4_linear_6918_13003" x1="45" y1="0" x2="45" y2="90" gradientUnits="userSpaceOnUse">
<stop stop-color="#F7911A"/>
<stop offset="1" stop-color="#F57F00"/>
</linearGradient>
<linearGradient id="paint5_linear_6918_13003" x1="45" y1="0" x2="45" y2="90" gradientUnits="userSpaceOnUse">
<stop stop-color="#F7911A"/>
<stop offset="1" stop-color="#F57F00"/>
</linearGradient>
<linearGradient id="paint6_linear_6918_13003" x1="45" y1="0" x2="45" y2="90" gradientUnits="userSpaceOnUse">
<stop stop-color="#F7911A"/>
<stop offset="1" stop-color="#F57F00"/>
</linearGradient>
<linearGradient id="paint7_linear_6918_13003" x1="45" y1="0" x2="45" y2="90" gradientUnits="userSpaceOnUse">
<stop stop-color="#F7911A"/>
<stop offset="1" stop-color="#F57F00"/>
</linearGradient>
<linearGradient id="paint8_linear_6918_13003" x1="45" y1="0" x2="45" y2="90" gradientUnits="userSpaceOnUse">
<stop stop-color="#F7911A"/>
<stop offset="1" stop-color="#F57F00"/>
</linearGradient>
<linearGradient id="paint9_linear_6918_13003" x1="45" y1="0" x2="45" y2="90" gradientUnits="userSpaceOnUse">
<stop stop-color="#F7911A"/>
<stop offset="1" stop-color="#F57F00"/>
</linearGradient>
<linearGradient id="paint10_linear_6918_13003" x1="45" y1="0" x2="45" y2="90" gradientUnits="userSpaceOnUse">
<stop stop-color="#F7911A"/>
<stop offset="1" stop-color="#F57F00"/>
</linearGradient>
<linearGradient id="paint11_linear_6918_13003" x1="45" y1="0" x2="45" y2="90" gradientUnits="userSpaceOnUse">
<stop stop-color="#F7911A"/>
<stop offset="1" stop-color="#F57F00"/>
</linearGradient>
<linearGradient id="paint12_linear_6918_13003" x1="45" y1="0" x2="45" y2="90" gradientUnits="userSpaceOnUse">
<stop stop-color="#F7911A"/>
<stop offset="1" stop-color="#F57F00"/>
</linearGradient>
<linearGradient id="paint13_linear_6918_13003" x1="45" y1="0" x2="45" y2="90" gradientUnits="userSpaceOnUse">
<stop stop-color="#F7911A"/>
<stop offset="1" stop-color="#F57F00"/>
</linearGradient>
<linearGradient id="paint14_linear_6918_13003" x1="45" y1="0" x2="45" y2="90" gradientUnits="userSpaceOnUse">
<stop stop-color="#F7911A"/>
<stop offset="1" stop-color="#F57F00"/>
</linearGradient>
<linearGradient id="paint15_linear_6918_13003" x1="45" y1="0" x2="45" y2="90" gradientUnits="userSpaceOnUse">
<stop stop-color="#F7911A"/>
<stop offset="1" stop-color="#F57F00"/>
</linearGradient>
<linearGradient id="paint16_linear_6918_13003" x1="45" y1="0" x2="45" y2="90" gradientUnits="userSpaceOnUse">
<stop stop-color="#F7911A"/>
<stop offset="1" stop-color="#F57F00"/>
</linearGradient>
<linearGradient id="paint17_linear_6918_13003" x1="45" y1="0" x2="45" y2="90" gradientUnits="userSpaceOnUse">
<stop stop-color="#F7911A"/>
<stop offset="1" stop-color="#F57F00"/>
</linearGradient>
<linearGradient id="paint18_linear_6918_13003" x1="45" y1="0" x2="45" y2="90" gradientUnits="userSpaceOnUse">
<stop stop-color="#F7911A"/>
<stop offset="1" stop-color="#F57F00"/>
</linearGradient>
<linearGradient id="paint19_linear_6918_13003" x1="45" y1="0" x2="45" y2="90" gradientUnits="userSpaceOnUse">
<stop stop-color="#F7911A"/>
<stop offset="1" stop-color="#F57F00"/>
</linearGradient>
<linearGradient id="paint20_linear_6918_13003" x1="45" y1="0" x2="45" y2="90" gradientUnits="userSpaceOnUse">
<stop stop-color="#F7911A"/>
<stop offset="1" stop-color="#F57F00"/>
</linearGradient>
</defs>
</svg>
