<svg width="90" height="90" viewBox="0 0 90 90" fill="none" xmlns="http://www.w3.org/2000/svg">
<path d="M45 67.7842C45.3068 67.7842 45.5557 68.0331 45.5557 68.3398V71.4365C45.5552 71.7429 45.3065 71.9912 45 71.9912C44.6935 71.9912 44.4448 71.7429 44.4443 71.4365V68.3398C44.4443 68.0331 44.6932 67.7842 45 67.7842Z" fill="url(#paint0_linear_6918_12983)"/>
<path d="M35.5547 66.3535C35.6723 66.0704 35.997 65.9363 36.2803 66.0537C36.5633 66.1713 36.6975 66.4961 36.5801 66.7793L35.3955 69.6367C35.2779 69.9197 34.9531 70.0538 34.6699 69.9365C34.3867 69.819 34.2527 69.4942 34.3701 69.2109L35.5547 66.3535Z" fill="url(#paint1_linear_6918_12983)"/>
<path d="M53.7188 66.0537C54.002 65.9363 54.3268 66.0703 54.4443 66.3535L55.6289 69.2109C55.7463 69.4942 55.6123 69.819 55.3291 69.9365C55.0459 70.0538 54.7211 69.9197 54.6035 69.6367L53.4189 66.7793C53.3015 66.4961 53.4357 66.1714 53.7188 66.0537Z" fill="url(#paint2_linear_6918_12983)"/>
<path d="M42.9932 45.4707C44.71 45.8999 50.2204 46.7502 49.4023 50.0312C48.6185 53.1793 43.3184 51.4771 41.6016 51.0508L42.9932 45.4707Z" fill="url(#paint3_linear_6918_12983)"/>
<path d="M44.8916 37.8545C46.3232 38.2117 50.9295 38.8772 50.1865 41.8643C49.4721 44.7276 45.0616 43.2732 43.6299 42.916L44.8916 37.8545Z" fill="url(#paint4_linear_6918_12983)"/>
<path fill-rule="evenodd" clip-rule="evenodd" d="M45.001 24.1875C56.4742 24.1877 65.8125 33.5268 65.8125 45C65.8123 56.4731 56.4741 65.8113 45.001 65.8115C33.5277 65.8115 24.1887 56.4732 24.1885 45C24.1885 33.5266 33.5276 24.1875 45.001 24.1875ZM43.0166 34.3115C42.4664 34.1848 41.9246 34.0603 41.3975 33.9307V33.917L37.9062 33.0439L37.2324 35.752C37.2654 35.7595 39.1122 36.1843 39.0723 36.21C40.0978 36.4663 40.2856 37.1459 40.2539 37.6846L39.0723 42.4287C39.1443 42.446 39.2341 42.4724 39.335 42.5127C39.2515 42.4926 39.1594 42.4693 39.0674 42.4463L37.4102 49.0918C37.2834 49.4029 36.9669 49.8727 36.25 49.6943C36.2608 49.7272 34.435 49.2403 34.4092 49.2334L33.1504 52.1338L36.4482 52.9551C37.0618 53.1078 37.6644 53.2692 38.2549 53.4219L37.2061 57.6328L39.7383 58.2637L40.7783 54.0957C41.4696 54.2829 42.1412 54.4559 42.7979 54.6201L41.7637 58.7676L44.2979 59.3984L45.3467 55.1963C49.6676 56.0144 52.9198 55.6825 54.2881 51.7734C55.3912 48.6252 54.2334 46.8109 51.958 45.627C53.6143 45.2438 54.8611 44.154 55.1924 41.9043V41.9102C55.6531 38.8367 53.3116 37.1834 50.1113 36.083L51.1484 31.918L48.6133 31.2871L47.6025 35.3398C46.9371 35.1728 46.2511 35.0169 45.5713 34.8613L46.5879 30.7793L44.0566 30.1484L43.0166 34.3115Z" fill="url(#paint5_linear_6918_12983)"/>
<path d="M28.1045 61.1104C28.3214 60.8935 28.6728 60.8935 28.8896 61.1104C29.1063 61.3272 29.1064 61.6787 28.8896 61.8955L26.6982 64.0869C26.4814 64.3035 26.1299 64.3035 25.9131 64.0869C25.6962 63.8701 25.6964 63.5187 25.9131 63.3018L28.1045 61.1104Z" fill="url(#paint6_linear_6918_12983)"/>
<path d="M61.1113 61.1104C61.3282 60.8934 61.6796 60.8934 61.8965 61.1104L64.0879 63.3018C64.3044 63.5187 64.3047 63.8701 64.0879 64.0869C63.8711 64.3037 63.5197 64.3034 63.3027 64.0869L61.1113 61.8955C60.8944 61.6786 60.8944 61.3273 61.1113 61.1104Z" fill="url(#paint7_linear_6918_12983)"/>
<path d="M23.2207 53.4209C23.504 53.3034 23.8287 53.4375 23.9463 53.7207C24.0634 54.0038 23.9294 54.3287 23.6465 54.4463L20.7891 55.6309C20.506 55.7481 20.1811 55.6139 20.0635 55.3311C19.9461 55.0479 20.0803 54.7231 20.3633 54.6055L23.2207 53.4209Z" fill="url(#paint8_linear_6918_12983)"/>
<path d="M66.0547 53.7207C66.1723 53.4375 66.497 53.3035 66.7803 53.4209L69.6377 54.6055C69.9206 54.7232 70.0549 55.0479 69.9375 55.3311C69.8199 55.6139 69.495 55.7481 69.2119 55.6309L66.3545 54.4463C66.0714 54.3288 65.9375 54.0039 66.0547 53.7207Z" fill="url(#paint9_linear_6918_12983)"/>
<path d="M21.6592 44.4443C21.9657 44.4446 22.2138 44.6935 22.2139 45C22.2139 45.3066 21.9657 45.5554 21.6592 45.5557H18.5625C18.2557 45.5557 18.0068 45.3068 18.0068 45C18.0069 44.6933 18.2558 44.4443 18.5625 44.4443H21.6592Z" fill="url(#paint10_linear_6918_12983)"/>
<path d="M71.4365 44.4443C71.7431 44.4445 71.9921 44.6934 71.9922 45C71.9922 45.3066 71.7431 45.5555 71.4365 45.5557H68.3408C68.0341 45.5557 67.7852 45.3068 67.7852 45C67.7852 44.6933 68.0341 44.4443 68.3408 44.4443H71.4365Z" fill="url(#paint11_linear_6918_12983)"/>
<path d="M20.0635 34.6699C20.181 34.3868 20.5058 34.2528 20.7891 34.3701L23.6465 35.5547C23.9296 35.6723 24.0637 35.9971 23.9463 36.2803C23.8287 36.5635 23.504 36.6975 23.2207 36.5801L20.3633 35.3955C20.0802 35.2779 19.9461 34.9531 20.0635 34.6699Z" fill="url(#paint12_linear_6918_12983)"/>
<path d="M69.2119 34.3701C69.4952 34.2527 69.82 34.3867 69.9375 34.6699C70.0549 34.9531 69.9207 35.2778 69.6377 35.3955L66.7803 36.5801C66.497 36.6975 66.1723 36.5634 66.0547 36.2803C65.9372 35.997 66.0713 35.6723 66.3545 35.5547L69.2119 34.3701Z" fill="url(#paint13_linear_6918_12983)"/>
<path d="M25.9131 25.9131C26.13 25.6963 26.4814 25.6963 26.6982 25.9131L28.8896 28.1045C29.1064 28.3214 29.1064 28.6728 28.8896 28.8896C28.6728 29.1065 28.3214 29.1064 28.1045 28.8896L25.9131 26.6982C25.6962 26.4813 25.6962 26.13 25.9131 25.9131Z" fill="url(#paint14_linear_6918_12983)"/>
<path d="M63.3027 25.9131C63.5197 25.6965 63.8711 25.6963 64.0879 25.9131C64.3046 26.1299 64.3045 26.4814 64.0879 26.6982L61.8965 28.8896C61.6796 29.1064 61.3282 29.1064 61.1113 28.8896C60.8945 28.6728 60.8945 28.3214 61.1113 28.1045L63.3027 25.9131Z" fill="url(#paint15_linear_6918_12983)"/>
<path d="M34.6699 20.0635C34.9531 19.9462 35.2779 20.0803 35.3955 20.3633L36.5801 23.2207C36.6975 23.5039 36.5634 23.8287 36.2803 23.9463C35.9971 24.0637 35.6723 23.9295 35.5547 23.6465L34.3701 20.7891C34.2528 20.5058 34.3868 20.181 34.6699 20.0635Z" fill="url(#paint16_linear_6918_12983)"/>
<path d="M54.6035 20.3633C54.7211 20.0803 55.0459 19.9463 55.3291 20.0635C55.6122 20.181 55.7463 20.5058 55.6289 20.7891L54.4443 23.6465C54.3267 23.9296 54.002 24.0637 53.7188 23.9463C53.4357 23.8286 53.3015 23.5039 53.4189 23.2207L54.6035 20.3633Z" fill="url(#paint17_linear_6918_12983)"/>
<path d="M45 18.0068C45.3067 18.0068 45.5556 18.2558 45.5557 18.5625V21.6592C45.5554 21.9657 45.3066 22.2139 45 22.2139C44.6934 22.2139 44.4446 21.9657 44.4443 21.6592V18.5625C44.4444 18.2558 44.6933 18.0068 45 18.0068Z" fill="url(#paint18_linear_6918_12983)"/>
<path fill-rule="evenodd" clip-rule="evenodd" d="M45.75 16.0098C61.4214 16.407 74.001 29.2328 74.001 45C74.001 61.0177 61.0186 74 45.001 74L44.252 73.9902C28.5805 73.593 16.001 60.7672 16.001 45C16.001 28.9823 28.9833 16 45.001 16L45.75 16.0098ZM45.001 17.125C29.6046 17.125 17.126 29.6037 17.126 45C17.126 60.3964 29.6046 72.875 45.001 72.875C60.3973 72.875 72.876 60.3964 72.876 45C72.876 29.6037 60.3973 17.125 45.001 17.125Z" fill="url(#paint19_linear_6918_12983)"/>
<path d="M7.75098 54.6592C8.51568 54.6592 9.13574 55.2792 9.13574 56.0439V65.5176C9.13574 66.2823 8.51568 66.9023 7.75098 66.9023H5.01953C4.25483 66.9023 3.63477 66.2823 3.63477 65.5176V56.0439C3.63477 55.2792 4.25483 54.6592 5.01953 54.6592H7.75098Z" fill="url(#paint20_linear_6918_12983)"/>
<path d="M7.75098 23.0967C8.51568 23.0967 9.13574 23.7167 9.13574 24.4814V33.9551C9.13574 34.7198 8.51568 35.3398 7.75098 35.3398H5.01953C4.25483 35.3398 3.63477 34.7198 3.63477 33.9551V24.4814C3.63477 23.7167 4.25483 23.0967 5.01953 23.0967H7.75098Z" fill="url(#paint21_linear_6918_12983)"/>
<path fill-rule="evenodd" clip-rule="evenodd" d="M72 0C81.9411 0 90 8.05888 90 18V72C90 81.7857 82.1911 89.7476 72.4648 89.9941L72 90H18L17.5352 89.9941C7.96334 89.7515 0.248497 82.0367 0.00585938 72.4648L0 72V18C0 8.05888 8.05888 1.44958e-07 18 0H72ZM18 6.25C11.5107 6.25 6.25 11.5107 6.25 18V22.0967H5.01953C3.70255 22.0967 2.63477 23.1645 2.63477 24.4814V33.9551C2.63477 35.2721 3.70255 36.3398 5.01953 36.3398H6.25V53.6602H5.01953C3.70255 53.6602 2.63477 54.7279 2.63477 56.0449V65.5186C2.63477 66.8355 3.70255 67.9033 5.01953 67.9033H6.25V72C6.25 78.4893 11.5107 83.75 18 83.75H72C78.4893 83.75 83.75 78.4893 83.75 72V18C83.75 11.5107 78.4893 6.25 72 6.25H18Z" fill="url(#paint22_linear_6918_12983)"/>
<defs>
<linearGradient id="paint0_linear_6918_12983" x1="45" y1="0" x2="45" y2="90" gradientUnits="userSpaceOnUse">
<stop stop-color="#F7911A"/>
<stop offset="1" stop-color="#F57F00"/>
</linearGradient>
<linearGradient id="paint1_linear_6918_12983" x1="45" y1="0" x2="45" y2="90" gradientUnits="userSpaceOnUse">
<stop stop-color="#F7911A"/>
<stop offset="1" stop-color="#F57F00"/>
</linearGradient>
<linearGradient id="paint2_linear_6918_12983" x1="45" y1="0" x2="45" y2="90" gradientUnits="userSpaceOnUse">
<stop stop-color="#F7911A"/>
<stop offset="1" stop-color="#F57F00"/>
</linearGradient>
<linearGradient id="paint3_linear_6918_12983" x1="45" y1="0" x2="45" y2="90" gradientUnits="userSpaceOnUse">
<stop stop-color="#F7911A"/>
<stop offset="1" stop-color="#F57F00"/>
</linearGradient>
<linearGradient id="paint4_linear_6918_12983" x1="45" y1="0" x2="45" y2="90" gradientUnits="userSpaceOnUse">
<stop stop-color="#F7911A"/>
<stop offset="1" stop-color="#F57F00"/>
</linearGradient>
<linearGradient id="paint5_linear_6918_12983" x1="45" y1="0" x2="45" y2="90" gradientUnits="userSpaceOnUse">
<stop stop-color="#F7911A"/>
<stop offset="1" stop-color="#F57F00"/>
</linearGradient>
<linearGradient id="paint6_linear_6918_12983" x1="45" y1="0" x2="45" y2="90" gradientUnits="userSpaceOnUse">
<stop stop-color="#F7911A"/>
<stop offset="1" stop-color="#F57F00"/>
</linearGradient>
<linearGradient id="paint7_linear_6918_12983" x1="45" y1="0" x2="45" y2="90" gradientUnits="userSpaceOnUse">
<stop stop-color="#F7911A"/>
<stop offset="1" stop-color="#F57F00"/>
</linearGradient>
<linearGradient id="paint8_linear_6918_12983" x1="45" y1="0" x2="45" y2="90" gradientUnits="userSpaceOnUse">
<stop stop-color="#F7911A"/>
<stop offset="1" stop-color="#F57F00"/>
</linearGradient>
<linearGradient id="paint9_linear_6918_12983" x1="45" y1="0" x2="45" y2="90" gradientUnits="userSpaceOnUse">
<stop stop-color="#F7911A"/>
<stop offset="1" stop-color="#F57F00"/>
</linearGradient>
<linearGradient id="paint10_linear_6918_12983" x1="45" y1="0" x2="45" y2="90" gradientUnits="userSpaceOnUse">
<stop stop-color="#F7911A"/>
<stop offset="1" stop-color="#F57F00"/>
</linearGradient>
<linearGradient id="paint11_linear_6918_12983" x1="45" y1="0" x2="45" y2="90" gradientUnits="userSpaceOnUse">
<stop stop-color="#F7911A"/>
<stop offset="1" stop-color="#F57F00"/>
</linearGradient>
<linearGradient id="paint12_linear_6918_12983" x1="45" y1="0" x2="45" y2="90" gradientUnits="userSpaceOnUse">
<stop stop-color="#F7911A"/>
<stop offset="1" stop-color="#F57F00"/>
</linearGradient>
<linearGradient id="paint13_linear_6918_12983" x1="45" y1="0" x2="45" y2="90" gradientUnits="userSpaceOnUse">
<stop stop-color="#F7911A"/>
<stop offset="1" stop-color="#F57F00"/>
</linearGradient>
<linearGradient id="paint14_linear_6918_12983" x1="45" y1="0" x2="45" y2="90" gradientUnits="userSpaceOnUse">
<stop stop-color="#F7911A"/>
<stop offset="1" stop-color="#F57F00"/>
</linearGradient>
<linearGradient id="paint15_linear_6918_12983" x1="45" y1="0" x2="45" y2="90" gradientUnits="userSpaceOnUse">
<stop stop-color="#F7911A"/>
<stop offset="1" stop-color="#F57F00"/>
</linearGradient>
<linearGradient id="paint16_linear_6918_12983" x1="45" y1="0" x2="45" y2="90" gradientUnits="userSpaceOnUse">
<stop stop-color="#F7911A"/>
<stop offset="1" stop-color="#F57F00"/>
</linearGradient>
<linearGradient id="paint17_linear_6918_12983" x1="45" y1="0" x2="45" y2="90" gradientUnits="userSpaceOnUse">
<stop stop-color="#F7911A"/>
<stop offset="1" stop-color="#F57F00"/>
</linearGradient>
<linearGradient id="paint18_linear_6918_12983" x1="45" y1="0" x2="45" y2="90" gradientUnits="userSpaceOnUse">
<stop stop-color="#F7911A"/>
<stop offset="1" stop-color="#F57F00"/>
</linearGradient>
<linearGradient id="paint19_linear_6918_12983" x1="45" y1="0" x2="45" y2="90" gradientUnits="userSpaceOnUse">
<stop stop-color="#F7911A"/>
<stop offset="1" stop-color="#F57F00"/>
</linearGradient>
<linearGradient id="paint20_linear_6918_12983" x1="45" y1="0" x2="45" y2="90" gradientUnits="userSpaceOnUse">
<stop stop-color="#F7911A"/>
<stop offset="1" stop-color="#F57F00"/>
</linearGradient>
<linearGradient id="paint21_linear_6918_12983" x1="45" y1="0" x2="45" y2="90" gradientUnits="userSpaceOnUse">
<stop stop-color="#F7911A"/>
<stop offset="1" stop-color="#F57F00"/>
</linearGradient>
<linearGradient id="paint22_linear_6918_12983" x1="45" y1="0" x2="45" y2="90" gradientUnits="userSpaceOnUse">
<stop stop-color="#F7911A"/>
<stop offset="1" stop-color="#F57F00"/>
</linearGradient>
</defs>
</svg>
