<svg width="516" height="290" viewBox="0 0 516 290" fill="none" xmlns="http://www.w3.org/2000/svg">
<g clip-path="url(#clip0_6843_16875)">
<g clip-path="url(#clip1_6843_16875)">
<rect width="516" height="290" fill="white"/>
<rect width="1012.08" height="745" transform="translate(-248.021 -50)" fill="#F6F6F6"/>
<g filter="url(#filter0_dd_6843_16875)">
<path d="M69.6533 37.1488C69.6533 32.4909 73.4293 28.7148 78.0873 28.7148H437.936C442.594 28.7148 446.37 32.4909 446.37 37.1488V571.602C446.37 576.26 442.594 580.036 437.936 580.036H78.0873C73.4293 580.036 69.6533 576.26 69.6533 571.602V37.1488Z" fill="white"/>
<path d="M213.4 53.96V43.737H217.493C218.246 43.737 218.873 43.8485 219.375 44.0714C219.878 44.2944 220.255 44.6039 220.508 44.9999C220.761 45.3926 220.888 45.8451 220.888 46.3576C220.888 46.7569 220.808 47.108 220.648 47.4109C220.488 47.7104 220.269 47.9566 219.989 48.1496C219.713 48.3393 219.397 48.4741 219.041 48.554V48.6538C219.43 48.6704 219.795 48.7802 220.134 48.9832C220.477 49.1862 220.755 49.4708 220.968 49.8368C221.181 50.1996 221.287 50.6322 221.287 51.1347C221.287 51.6771 221.152 52.1613 220.883 52.5872C220.617 53.0099 220.222 53.3443 219.7 53.5906C219.177 53.8368 218.533 53.96 217.768 53.96H213.4ZM215.562 52.1929H217.324C217.926 52.1929 218.365 52.0781 218.642 51.8485C218.918 51.6155 219.056 51.306 219.056 50.92C219.056 50.6372 218.988 50.3876 218.851 50.1713C218.715 49.955 218.52 49.7852 218.267 49.6621C218.018 49.539 217.72 49.4774 217.374 49.4774H215.562V52.1929ZM215.562 48.0149H217.164C217.46 48.0149 217.723 47.9633 217.953 47.8601C218.186 47.7536 218.369 47.6039 218.502 47.4109C218.638 47.2178 218.706 46.9866 218.706 46.717C218.706 46.3476 218.575 46.0498 218.312 45.8235C218.052 45.5972 217.683 45.4841 217.204 45.4841H215.562V48.0149ZM226.118 54.1097C225.342 54.1097 224.672 53.945 224.106 53.6155C223.544 53.2828 223.109 52.8202 222.803 52.2278C222.497 51.6322 222.344 50.9417 222.344 50.1563C222.344 49.3643 222.497 48.6721 222.803 48.0797C223.109 47.4841 223.544 47.0215 224.106 46.6921C224.672 46.3593 225.342 46.1929 226.118 46.1929C226.893 46.1929 227.562 46.3593 228.124 46.6921C228.69 47.0215 229.126 47.4841 229.432 48.0797C229.738 48.6721 229.892 49.3643 229.892 50.1563C229.892 50.9417 229.738 51.6322 229.432 52.2278C229.126 52.8202 228.69 53.2828 228.124 53.6155C227.562 53.945 226.893 54.1097 226.118 54.1097ZM226.128 52.4625C226.481 52.4625 226.775 52.3626 227.011 52.163C227.248 51.96 227.426 51.6837 227.545 51.3343C227.669 50.9849 227.73 50.5872 227.73 50.1413C227.73 49.6954 227.669 49.2977 227.545 48.9483C227.426 48.5989 227.248 48.3227 227.011 48.1197C226.775 47.9167 226.481 47.8152 226.128 47.8152C225.772 47.8152 225.472 47.9167 225.229 48.1197C224.99 48.3227 224.808 48.5989 224.685 48.9483C224.565 49.2977 224.506 49.6954 224.506 50.1413C224.506 50.5872 224.565 50.9849 224.685 51.3343C224.808 51.6837 224.99 51.96 225.229 52.163C225.472 52.3626 225.772 52.4625 226.128 52.4625ZM231.274 53.96V46.2927H233.336V47.6305H233.416C233.555 47.1546 233.79 46.7952 234.12 46.5523C234.449 46.306 234.828 46.1829 235.258 46.1829C235.364 46.1829 235.479 46.1896 235.602 46.2029C235.725 46.2162 235.833 46.2345 235.926 46.2578V48.1446C235.827 48.1147 235.689 48.0881 235.512 48.0648C235.336 48.0415 235.174 48.0298 235.028 48.0298C234.715 48.0298 234.436 48.0981 234.189 48.2345C233.946 48.3676 233.753 48.554 233.61 48.7936C233.471 49.0332 233.401 49.3094 233.401 49.6222V53.96H231.274ZM237.026 53.96V46.2927H239.087V47.6305H239.167C239.307 47.1546 239.542 46.7952 239.871 46.5523C240.201 46.306 240.58 46.1829 241.009 46.1829C241.116 46.1829 241.231 46.1896 241.354 46.2029C241.477 46.2162 241.585 46.2345 241.678 46.2578V48.1446C241.578 48.1147 241.44 48.0881 241.264 48.0648C241.087 48.0415 240.926 48.0298 240.78 48.0298C240.467 48.0298 240.187 48.0981 239.941 48.2345C239.698 48.3676 239.505 48.554 239.362 48.7936C239.222 49.0332 239.152 49.3094 239.152 49.6222V53.96H237.026ZM245.885 54.1097C245.11 54.1097 244.439 53.945 243.873 53.6155C243.311 53.2828 242.877 52.8202 242.57 52.2278C242.264 51.6322 242.111 50.9417 242.111 50.1563C242.111 49.3643 242.264 48.6721 242.57 48.0797C242.877 47.4841 243.311 47.0215 243.873 46.6921C244.439 46.3593 245.11 46.1929 245.885 46.1929C246.66 46.1929 247.329 46.3593 247.892 46.6921C248.457 47.0215 248.893 47.4841 249.199 48.0797C249.506 48.6721 249.659 49.3643 249.659 50.1563C249.659 50.9417 249.506 51.6322 249.199 52.2278C248.893 52.8202 248.457 53.2828 247.892 53.6155C247.329 53.945 246.66 54.1097 245.885 54.1097ZM245.895 52.4625C246.248 52.4625 246.542 52.3626 246.778 52.163C247.015 51.96 247.193 51.6837 247.313 51.3343C247.436 50.9849 247.497 50.5872 247.497 50.1413C247.497 49.6954 247.436 49.2977 247.313 48.9483C247.193 48.5989 247.015 48.3227 246.778 48.1197C246.542 47.9167 246.248 47.8152 245.895 47.8152C245.539 47.8152 245.239 47.9167 244.996 48.1197C244.757 48.3227 244.575 48.5989 244.452 48.9483C244.333 49.2977 244.273 49.6954 244.273 50.1413C244.273 50.5872 244.333 50.9849 244.452 51.3343C244.575 51.6837 244.757 51.96 244.996 52.163C245.239 52.3626 245.539 52.4625 245.895 52.4625ZM252.362 53.96L250.275 46.2927H252.427L253.615 51.4441H253.684L254.922 46.2927H257.034L258.292 51.4142H258.357L259.525 46.2927H261.671L259.59 53.96H257.338L256.021 49.138H255.926L254.608 53.96H252.362ZM270.192 43.737H272.328V50.8651C272.328 51.524 272.18 52.0964 271.884 52.5823C271.591 53.0681 271.184 53.4425 270.661 53.7054C270.139 53.9683 269.531 54.0997 268.839 54.0997C268.224 54.0997 267.665 53.9916 267.162 53.7753C266.663 53.5556 266.267 53.2229 265.974 52.7769C265.681 52.3277 265.536 51.7636 265.54 51.0847H267.691C267.698 51.3543 267.753 51.5856 267.856 51.7786C267.962 51.9683 268.107 52.1147 268.29 52.2179C268.476 52.3177 268.696 52.3676 268.949 52.3676C269.215 52.3676 269.44 52.311 269.623 52.1979C269.809 52.0814 269.951 51.9117 270.047 51.6887C270.144 51.4658 270.192 51.1912 270.192 50.8651V43.737ZM280.43 43.737H282.591V50.3759C282.591 51.1214 282.413 51.7736 282.057 52.3327C281.704 52.8917 281.21 53.3277 280.575 53.6405C279.939 53.95 279.199 54.1047 278.353 54.1047C277.505 54.1047 276.763 53.95 276.127 53.6405C275.491 53.3277 274.997 52.8917 274.645 52.3327C274.292 51.7736 274.115 51.1214 274.115 50.3759V43.737H276.277V50.1912C276.277 50.5806 276.362 50.9267 276.531 51.2295C276.704 51.5323 276.947 51.7703 277.26 51.9433C277.573 52.1164 277.937 52.2029 278.353 52.2029C278.773 52.2029 279.137 52.1164 279.447 51.9433C279.759 51.7703 280.001 51.5323 280.17 51.2295C280.343 50.9267 280.43 50.5806 280.43 50.1912V43.737ZM289.915 46.6771C289.875 46.2744 289.704 45.9616 289.401 45.7386C289.098 45.5157 288.687 45.4042 288.168 45.4042C287.816 45.4042 287.518 45.4541 287.275 45.554C287.032 45.6505 286.846 45.7852 286.716 45.9583C286.589 46.1313 286.526 46.3277 286.526 46.5473C286.519 46.7303 286.558 46.8901 286.641 47.0265C286.727 47.1629 286.846 47.2811 286.995 47.3809C287.145 47.4774 287.318 47.5623 287.514 47.6355C287.711 47.7054 287.92 47.7653 288.143 47.8152L289.062 48.0348C289.508 48.1347 289.917 48.2678 290.29 48.4342C290.662 48.6005 290.985 48.8052 291.258 49.0481C291.531 49.2911 291.742 49.5773 291.892 49.9067C292.045 50.2362 292.123 50.6139 292.127 51.0398C292.123 51.6654 291.964 52.2079 291.648 52.6671C291.335 53.123 290.882 53.4774 290.29 53.7303C289.701 53.9799 288.99 54.1047 288.158 54.1047C287.333 54.1047 286.614 53.9783 286.002 53.7254C285.393 53.4724 284.917 53.0981 284.574 52.6022C284.235 52.1031 284.057 51.4857 284.04 50.7503H286.132C286.155 51.0931 286.253 51.3793 286.426 51.6089C286.603 51.8352 286.837 52.0065 287.13 52.123C287.426 52.2362 287.761 52.2927 288.133 52.2927C288.499 52.2927 288.817 52.2395 289.087 52.133C289.36 52.0265 289.571 51.8784 289.721 51.6887C289.87 51.4991 289.945 51.2811 289.945 51.0348C289.945 50.8052 289.877 50.6122 289.741 50.4558C289.608 50.2994 289.411 50.1663 289.152 50.0565C288.895 49.9466 288.581 49.8468 288.208 49.757L287.095 49.4774C286.233 49.2678 285.553 48.94 285.053 48.4941C284.554 48.0481 284.306 47.4475 284.31 46.6921C284.306 46.0731 284.471 45.5323 284.804 45.0698C285.14 44.6072 285.601 44.2461 286.187 43.9866C286.772 43.727 287.438 43.5972 288.183 43.5972C288.942 43.5972 289.604 43.727 290.17 43.9866C290.739 44.2461 291.182 44.6072 291.498 45.0698C291.814 45.5323 291.977 46.0681 291.987 46.6771H289.915ZM297.205 53.96H293.581V43.737H297.234C298.263 43.737 299.148 43.9416 299.89 44.351C300.632 44.7569 301.203 45.341 301.602 46.103C302.005 46.8651 302.206 47.7769 302.206 48.8385C302.206 49.9034 302.005 50.8185 301.602 51.5839C301.203 52.3493 300.629 52.9367 299.88 53.346C299.135 53.7553 298.243 53.96 297.205 53.96ZM295.742 52.108H297.115C297.754 52.108 298.291 51.9949 298.727 51.7686C299.166 51.539 299.496 51.1846 299.715 50.7054C299.938 50.2228 300.05 49.6006 300.05 48.8385C300.05 48.0831 299.938 47.4658 299.715 46.9866C299.496 46.5074 299.168 46.1546 298.732 45.9283C298.296 45.702 297.759 45.5889 297.12 45.5889H295.742V52.108Z" fill="#2D2D2D"/>
<path d="M81.8059 92.4512V83.2505H87.79V84.6477H83.4727V87.1455H87.48V88.5427H83.4727V91.054H87.8259V92.4512H81.8059ZM91.0448 88.4079V92.4512H89.4185V85.5507H90.9729V86.7232H91.0538C91.2125 86.3368 91.4656 86.0299 91.813 85.8022C92.1634 85.5746 92.5962 85.4608 93.1114 85.4608C93.5876 85.4608 94.0024 85.5626 94.3558 85.7663C94.7122 85.97 94.9877 86.265 95.1824 86.6513C95.3801 87.0377 95.4774 87.5064 95.4744 88.0575V92.4512H93.8481V88.3091C93.8481 87.8478 93.7283 87.4869 93.4887 87.2264C93.2521 86.9658 92.9242 86.8355 92.5049 86.8355C92.2203 86.8355 91.9673 86.8984 91.7456 87.0242C91.527 87.147 91.3548 87.3252 91.229 87.5588C91.1062 87.7924 91.0448 88.0755 91.0448 88.4079ZM100.573 85.5507V86.8086H96.6065V85.5507H100.573ZM97.5859 83.8974H99.2122V90.3756C99.2122 90.5943 99.2452 90.762 99.311 90.8788C99.3799 90.9926 99.4698 91.0705 99.5806 91.1124C99.6914 91.1543 99.8142 91.1753 99.949 91.1753C100.051 91.1753 100.144 91.1678 100.228 91.1528C100.314 91.1379 100.38 91.1244 100.425 91.1124L100.699 92.3838C100.612 92.4137 100.488 92.4467 100.326 92.4826C100.168 92.5186 99.9729 92.5395 99.7423 92.5455C99.335 92.5575 98.9681 92.4961 98.6417 92.3613C98.3152 92.2236 98.0561 92.0109 97.8645 91.7234C97.6758 91.4359 97.5829 91.0765 97.5859 90.6452V83.8974ZM104.914 92.5859C104.222 92.5859 103.625 92.4422 103.122 92.1547C102.622 91.8641 102.237 91.4538 101.967 90.9237C101.698 90.3906 101.563 89.7631 101.563 89.0413C101.563 88.3315 101.698 87.7086 101.967 87.1725C102.24 86.6334 102.62 86.2141 103.108 85.9145C103.597 85.6121 104.17 85.4608 104.829 85.4608C105.254 85.4608 105.656 85.5297 106.033 85.6675C106.413 85.8022 106.749 86.0119 107.039 86.2964C107.333 86.5809 107.563 86.9433 107.731 87.3836C107.899 87.8209 107.983 88.342 107.983 88.947V89.4457H102.327V88.3495H106.424C106.421 88.038 106.353 87.761 106.222 87.5184C106.09 87.2728 105.906 87.0796 105.669 86.9388C105.435 86.7981 105.163 86.7277 104.851 86.7277C104.519 86.7277 104.227 86.8086 103.975 86.9703C103.724 87.129 103.528 87.3387 103.387 87.5992C103.249 87.8568 103.179 88.1398 103.176 88.4483V89.4052C103.176 89.8066 103.249 90.151 103.396 90.4385C103.543 90.723 103.748 90.9417 104.011 91.0944C104.275 91.2442 104.583 91.3191 104.937 91.3191C105.173 91.3191 105.388 91.2861 105.579 91.2202C105.771 91.1513 105.937 91.051 106.078 90.9192C106.219 90.7874 106.325 90.6242 106.397 90.4295L107.915 90.6003C107.82 91.0016 107.637 91.352 107.367 91.6515C107.101 91.948 106.759 92.1786 106.343 92.3434C105.927 92.5051 105.45 92.5859 104.914 92.5859ZM109.359 92.4512V85.5507H110.935V86.7007H111.007C111.133 86.3024 111.349 85.9954 111.654 85.7798C111.963 85.5611 112.315 85.4518 112.71 85.4518C112.8 85.4518 112.9 85.4563 113.011 85.4653C113.125 85.4713 113.219 85.4818 113.294 85.4967V86.9928C113.225 86.9688 113.116 86.9478 112.966 86.9299C112.819 86.9089 112.677 86.8984 112.539 86.8984C112.243 86.8984 111.976 86.9628 111.74 87.0916C111.506 87.2174 111.322 87.3926 111.187 87.6172C111.052 87.8418 110.985 88.1009 110.985 88.3944V92.4512H109.359ZM120.522 92.5859C119.834 92.5859 119.242 92.4347 118.748 92.1322C118.257 91.8297 117.878 91.4119 117.611 90.8788C117.348 90.3427 117.216 89.7257 117.216 89.0279C117.216 88.327 117.351 87.7086 117.62 87.1725C117.89 86.6334 118.27 86.2141 118.761 85.9145C119.256 85.6121 119.84 85.4608 120.514 85.4608C121.074 85.4608 121.569 85.5641 122.001 85.7708C122.435 85.9744 122.781 86.2635 123.038 86.6378C123.296 87.0092 123.443 87.4435 123.479 87.9407H121.924C121.861 87.6082 121.712 87.3312 121.475 87.1096C121.241 86.8849 120.928 86.7726 120.536 86.7726C120.204 86.7726 119.912 86.8625 119.66 87.0422C119.408 87.2189 119.212 87.4735 119.071 87.8059C118.934 88.1383 118.865 88.5367 118.865 89.0009C118.865 89.4711 118.934 89.8755 119.071 90.2139C119.209 90.5493 119.402 90.8084 119.651 90.9911C119.903 91.1708 120.198 91.2607 120.536 91.2607C120.776 91.2607 120.99 91.2157 121.178 91.1259C121.37 91.033 121.53 90.8998 121.659 90.726C121.788 90.5523 121.876 90.3412 121.924 90.0926H123.479C123.44 90.5808 123.296 91.0136 123.047 91.3909C122.799 91.7653 122.46 92.0588 122.032 92.2715C121.604 92.4811 121.101 92.5859 120.522 92.5859ZM127.824 92.5859C127.15 92.5859 126.566 92.4377 126.072 92.1412C125.578 91.8447 125.194 91.4299 124.922 90.8968C124.652 90.3636 124.517 89.7407 124.517 89.0279C124.517 88.3151 124.652 87.6906 124.922 87.1545C125.194 86.6184 125.578 86.2021 126.072 85.9056C126.566 85.6091 127.15 85.4608 127.824 85.4608C128.498 85.4608 129.082 85.6091 129.576 85.9056C130.07 86.2021 130.452 86.6184 130.722 87.1545C130.994 87.6906 131.13 88.3151 131.13 89.0279C131.13 89.7407 130.994 90.3636 130.722 90.8968C130.452 91.4299 130.07 91.8447 129.576 92.1412C129.082 92.4377 128.498 92.5859 127.824 92.5859ZM127.833 91.2831C128.198 91.2831 128.504 91.1828 128.749 90.9821C128.995 90.7785 129.178 90.5059 129.298 90.1645C129.42 89.823 129.482 89.4427 129.482 89.0234C129.482 88.6011 129.42 88.2192 129.298 87.8778C129.178 87.5334 128.995 87.2593 128.749 87.0557C128.504 86.852 128.198 86.7502 127.833 86.7502C127.459 86.7502 127.147 86.852 126.899 87.0557C126.653 87.2593 126.469 87.5334 126.346 87.8778C126.226 88.2192 126.166 88.6011 126.166 89.0234C126.166 89.4427 126.226 89.823 126.346 90.1645C126.469 90.5059 126.653 90.7785 126.899 90.9821C127.147 91.1828 127.459 91.2831 127.833 91.2831ZM134.137 83.2505V92.4512H132.511V83.2505H134.137ZM137.436 83.2505V92.4512H135.809V83.2505H137.436ZM141.094 92.5904C140.656 92.5904 140.263 92.5126 139.912 92.3568C139.565 92.1981 139.289 91.9645 139.086 91.656C138.885 91.3475 138.785 90.9671 138.785 90.5149C138.785 90.1255 138.856 89.8036 139 89.549C139.144 89.2944 139.34 89.0908 139.589 88.938C139.837 88.7853 140.117 88.67 140.429 88.5921C140.743 88.5112 141.068 88.4528 141.404 88.4169C141.808 88.375 142.136 88.3375 142.388 88.3046C142.639 88.2686 142.822 88.2147 142.936 88.1428C143.053 88.068 143.111 87.9527 143.111 87.7969V87.77C143.111 87.4315 143.011 87.1695 142.81 86.9838C142.609 86.7981 142.32 86.7052 141.943 86.7052C141.545 86.7052 141.229 86.7921 140.995 86.9658C140.764 87.1395 140.609 87.3447 140.528 87.5813L139.009 87.3656C139.129 86.9463 139.327 86.5959 139.602 86.3144C139.878 86.0299 140.215 85.8172 140.613 85.6764C141.011 85.5327 141.452 85.4608 141.934 85.4608C142.266 85.4608 142.597 85.4997 142.927 85.5776C143.256 85.6555 143.557 85.7843 143.83 85.964C144.102 86.1407 144.321 86.3818 144.486 86.6873C144.653 86.9928 144.737 87.3746 144.737 87.8329V92.4512H143.174V91.5032H143.12C143.021 91.6949 142.882 91.8746 142.702 92.0424C142.525 92.2071 142.302 92.3404 142.033 92.4422C141.766 92.541 141.453 92.5904 141.094 92.5904ZM141.516 91.3954C141.843 91.3954 142.126 91.331 142.365 91.2023C142.605 91.0705 142.789 90.8968 142.918 90.6811C143.05 90.4655 143.115 90.2304 143.115 89.9758V89.1626C143.064 89.2046 142.978 89.2435 142.855 89.2794C142.735 89.3154 142.6 89.3468 142.451 89.3738C142.301 89.4007 142.153 89.4247 142.006 89.4457C141.859 89.4666 141.732 89.4846 141.624 89.4996C141.381 89.5325 141.164 89.5864 140.972 89.6613C140.781 89.7362 140.63 89.841 140.519 89.9758C140.408 90.1076 140.352 90.2783 140.352 90.4879C140.352 90.7874 140.462 91.0136 140.68 91.1663C140.899 91.3191 141.178 91.3954 141.516 91.3954ZM149.818 85.5507V86.8086H145.851V85.5507H149.818ZM146.831 83.8974H148.457V90.3756C148.457 90.5943 148.49 90.762 148.556 90.8788C148.625 90.9926 148.715 91.0705 148.825 91.1124C148.936 91.1543 149.059 91.1753 149.194 91.1753C149.296 91.1753 149.388 91.1678 149.472 91.1528C149.559 91.1379 149.625 91.1244 149.67 91.1124L149.944 92.3838C149.857 92.4137 149.733 92.4467 149.571 92.4826C149.412 92.5186 149.218 92.5395 148.987 92.5455C148.58 92.5575 148.213 92.4961 147.886 92.3613C147.56 92.2236 147.301 92.0109 147.109 91.7234C146.921 91.4359 146.828 91.0765 146.831 90.6452V83.8974ZM154.159 92.5859C153.467 92.5859 152.87 92.4422 152.367 92.1547C151.866 91.8641 151.482 91.4538 151.212 90.9237C150.943 90.3906 150.808 89.7631 150.808 89.0413C150.808 88.3315 150.943 87.7086 151.212 87.1725C151.485 86.6334 151.865 86.2141 152.353 85.9145C152.841 85.6121 153.415 85.4608 154.074 85.4608C154.499 85.4608 154.9 85.5297 155.278 85.6675C155.658 85.8022 155.994 86.0119 156.284 86.2964C156.578 86.5809 156.808 86.9433 156.976 87.3836C157.144 87.8209 157.228 88.342 157.228 88.947V89.4457H151.571V88.3495H155.669C155.666 88.038 155.598 87.761 155.466 87.5184C155.335 87.2728 155.15 87.0796 154.914 86.9388C154.68 86.7981 154.408 86.7277 154.096 86.7277C153.764 86.7277 153.472 86.8086 153.22 86.9703C152.969 87.129 152.772 87.3387 152.632 87.5992C152.494 87.8568 152.424 88.1398 152.421 88.4483V89.4052C152.421 89.8066 152.494 90.151 152.641 90.4385C152.787 90.723 152.993 90.9417 153.256 91.0944C153.52 91.2442 153.828 91.3191 154.182 91.3191C154.418 91.3191 154.632 91.2861 154.824 91.2202C155.016 91.1513 155.182 91.051 155.323 90.9192C155.463 90.7874 155.57 90.6242 155.642 90.4295L157.16 90.6003C157.064 91.0016 156.882 91.352 156.612 91.6515C156.346 91.948 156.004 92.1786 155.588 92.3434C155.171 92.5051 154.695 92.5859 154.159 92.5859ZM158.603 92.4512V85.5507H160.18V86.7007H160.252C160.378 86.3024 160.594 85.9954 160.899 85.7798C161.208 85.5611 161.559 85.4518 161.955 85.4518C162.045 85.4518 162.145 85.4563 162.256 85.4653C162.37 85.4713 162.464 85.4818 162.539 85.4967V86.9928C162.47 86.9688 162.361 86.9478 162.211 86.9299C162.064 86.9089 161.922 86.8984 161.784 86.8984C161.488 86.8984 161.221 86.9628 160.984 87.0916C160.751 87.2174 160.567 87.3926 160.432 87.6172C160.297 87.8418 160.23 88.1009 160.23 88.3944V92.4512H158.603ZM165.481 92.5904C165.044 92.5904 164.65 92.5126 164.3 92.3568C163.952 92.1981 163.677 91.9645 163.473 91.656C163.273 91.3475 163.172 90.9671 163.172 90.5149C163.172 90.1255 163.244 89.8036 163.388 89.549C163.532 89.2944 163.728 89.0908 163.976 88.938C164.225 88.7853 164.505 88.67 164.817 88.5921C165.131 88.5112 165.456 88.4528 165.791 88.4169C166.196 88.375 166.524 88.3375 166.775 88.3046C167.027 88.2686 167.21 88.2147 167.323 88.1428C167.44 88.068 167.499 87.9527 167.499 87.7969V87.77C167.499 87.4315 167.398 87.1695 167.198 86.9838C166.997 86.7981 166.708 86.7052 166.331 86.7052C165.932 86.7052 165.616 86.7921 165.383 86.9658C165.152 87.1395 164.996 87.3447 164.915 87.5813L163.397 87.3656C163.517 86.9463 163.714 86.5959 163.99 86.3144C164.265 86.0299 164.602 85.8172 165.001 85.6764C165.399 85.5327 165.839 85.4608 166.322 85.4608C166.654 85.4608 166.985 85.4997 167.314 85.5776C167.644 85.6555 167.945 85.7843 168.217 85.964C168.49 86.1407 168.709 86.3818 168.873 86.6873C169.041 86.9928 169.125 87.3746 169.125 87.8329V92.4512H167.561V91.5032H167.508C167.409 91.6949 167.269 91.8746 167.09 92.0424C166.913 92.2071 166.69 92.3404 166.42 92.4422C166.154 92.541 165.841 92.5904 165.481 92.5904ZM165.904 91.3954C166.23 91.3954 166.513 91.331 166.753 91.2023C166.992 91.0705 167.177 90.8968 167.305 90.6811C167.437 90.4655 167.503 90.2304 167.503 89.9758V89.1626C167.452 89.2046 167.365 89.2435 167.243 89.2794C167.123 89.3154 166.988 89.3468 166.838 89.3738C166.688 89.4007 166.54 89.4247 166.393 89.4457C166.247 89.4666 166.119 89.4846 166.012 89.4996C165.769 89.5325 165.552 89.5864 165.36 89.6613C165.168 89.7362 165.017 89.841 164.906 89.9758C164.796 90.1076 164.74 90.2783 164.74 90.4879C164.74 90.7874 164.849 91.0136 165.068 91.1663C165.287 91.3191 165.565 91.3954 165.904 91.3954ZM172.386 83.2505V92.4512H170.76V83.2505H172.386ZM179.183 92.5904C178.745 92.5904 178.351 92.5126 178.001 92.3568C177.654 92.1981 177.378 91.9645 177.174 91.656C176.974 91.3475 176.873 90.9671 176.873 90.5149C176.873 90.1255 176.945 89.8036 177.089 89.549C177.233 89.2944 177.429 89.0908 177.678 88.938C177.926 88.7853 178.206 88.67 178.518 88.5921C178.832 88.5112 179.157 88.4528 179.492 88.4169C179.897 88.375 180.225 88.3375 180.476 88.3046C180.728 88.2686 180.911 88.2147 181.024 88.1428C181.141 88.068 181.2 87.9527 181.2 87.7969V87.77C181.2 87.4315 181.099 87.1695 180.899 86.9838C180.698 86.7981 180.409 86.7052 180.032 86.7052C179.633 86.7052 179.317 86.7921 179.084 86.9658C178.853 87.1395 178.697 87.3447 178.616 87.5813L177.098 87.3656C177.218 86.9463 177.415 86.5959 177.691 86.3144C177.967 86.0299 178.303 85.8172 178.702 85.6764C179.1 85.5327 179.54 85.4608 180.023 85.4608C180.355 85.4608 180.686 85.4997 181.015 85.5776C181.345 85.6555 181.646 85.7843 181.918 85.964C182.191 86.1407 182.41 86.3818 182.574 86.6873C182.742 86.9928 182.826 87.3746 182.826 87.8329V92.4512H181.263V91.5032H181.209C181.11 91.6949 180.971 91.8746 180.791 92.0424C180.614 92.2071 180.391 92.3404 180.121 92.4422C179.855 92.541 179.542 92.5904 179.183 92.5904ZM179.605 91.3954C179.931 91.3954 180.214 91.331 180.454 91.2023C180.693 91.0705 180.878 90.8968 181.006 90.6811C181.138 90.4655 181.204 90.2304 181.204 89.9758V89.1626C181.153 89.2046 181.066 89.2435 180.944 89.2794C180.824 89.3154 180.689 89.3468 180.539 89.3738C180.39 89.4007 180.241 89.4247 180.094 89.4457C179.948 89.4666 179.82 89.4846 179.713 89.4996C179.47 89.5325 179.253 89.5864 179.061 89.6613C178.87 89.7362 178.718 89.841 178.607 89.9758C178.497 90.1076 178.441 90.2783 178.441 90.4879C178.441 90.7874 178.551 91.0136 178.769 91.1663C178.988 91.3191 179.266 91.3954 179.605 91.3954ZM184.461 92.4512V85.5507H186.016V86.7232H186.097C186.24 86.3279 186.478 86.0194 186.811 85.7977C187.143 85.5731 187.54 85.4608 188.001 85.4608C188.469 85.4608 188.862 85.5746 189.183 85.8022C189.506 86.0269 189.734 86.3339 189.866 86.7232H189.938C190.09 86.3398 190.348 86.0344 190.71 85.8067C191.076 85.5761 191.509 85.4608 192.009 85.4608C192.644 85.4608 193.162 85.6615 193.563 86.0628C193.964 86.4641 194.165 87.0497 194.165 87.8194V92.4512H192.534V88.071C192.534 87.6427 192.42 87.3297 192.193 87.132C191.965 86.9314 191.687 86.831 191.357 86.831C190.965 86.831 190.658 86.9538 190.436 87.1994C190.218 87.442 190.108 87.758 190.108 88.1473V92.4512H188.513V88.0036C188.513 87.6472 188.406 87.3626 188.19 87.15C187.977 86.9373 187.699 86.831 187.354 86.831C187.121 86.831 186.908 86.8909 186.716 87.0107C186.525 87.1275 186.372 87.2938 186.258 87.5094C186.144 87.722 186.088 87.9706 186.088 88.2552V92.4512H184.461ZM198.825 92.5859C198.151 92.5859 197.567 92.4377 197.073 92.1412C196.579 91.8447 196.195 91.4299 195.923 90.8968C195.653 90.3636 195.518 89.7407 195.518 89.0279C195.518 88.3151 195.653 87.6906 195.923 87.1545C196.195 86.6184 196.579 86.2021 197.073 85.9056C197.567 85.6091 198.151 85.4608 198.825 85.4608C199.499 85.4608 200.083 85.6091 200.577 85.9056C201.071 86.2021 201.453 86.6184 201.723 87.1545C201.995 87.6906 202.131 88.3151 202.131 89.0279C202.131 89.7407 201.995 90.3636 201.723 90.8968C201.453 91.4299 201.071 91.8447 200.577 92.1412C200.083 92.4377 199.499 92.5859 198.825 92.5859ZM198.834 91.2831C199.199 91.2831 199.505 91.1828 199.75 90.9821C199.996 90.7785 200.179 90.5059 200.298 90.1645C200.421 89.823 200.483 89.4427 200.483 89.0234C200.483 88.6011 200.421 88.2192 200.298 87.8778C200.179 87.5334 199.996 87.2593 199.75 87.0557C199.505 86.852 199.199 86.7502 198.834 86.7502C198.46 86.7502 198.148 86.852 197.899 87.0557C197.654 87.2593 197.47 87.5334 197.347 87.8778C197.227 88.2192 197.167 88.6011 197.167 89.0234C197.167 89.4427 197.227 89.823 197.347 90.1645C197.47 90.5059 197.654 90.7785 197.899 90.9821C198.148 91.1828 198.46 91.2831 198.834 91.2831ZM207.91 89.549V85.5507H209.536V92.4512H207.959V91.2247H207.887C207.732 91.6111 207.476 91.927 207.119 92.1726C206.766 92.4182 206.33 92.541 205.812 92.541C205.36 92.541 204.96 92.4407 204.612 92.24C204.268 92.0364 203.998 91.7414 203.804 91.355C203.609 90.9656 203.512 90.4954 203.512 89.9443V85.5507H205.138V89.6928C205.138 90.13 205.258 90.4775 205.497 90.735C205.737 90.9926 206.052 91.1214 206.441 91.1214C206.68 91.1214 206.913 91.063 207.137 90.9462C207.362 90.8294 207.546 90.6557 207.69 90.425C207.837 90.1914 207.91 89.8994 207.91 89.549ZM212.835 88.4079V92.4512H211.209V85.5507H212.763V86.7232H212.844C213.003 86.3368 213.256 86.0299 213.603 85.8022C213.954 85.5746 214.386 85.4608 214.901 85.4608C215.378 85.4608 215.792 85.5626 216.146 85.7663C216.502 85.97 216.778 86.265 216.973 86.6513C217.17 87.0377 217.268 87.5064 217.265 88.0575V92.4512H215.638V88.3091C215.638 87.8478 215.518 87.4869 215.279 87.2264C215.042 86.9658 214.714 86.8355 214.295 86.8355C214.01 86.8355 213.757 86.8984 213.536 87.0242C213.317 87.147 213.145 87.3252 213.019 87.5588C212.896 87.7924 212.835 88.0755 212.835 88.4079ZM222.364 85.5507V86.8086H218.397V85.5507H222.364ZM219.376 83.8974H221.002V90.3756C221.002 90.5943 221.035 90.762 221.101 90.8788C221.17 90.9926 221.26 91.0705 221.371 91.1124C221.481 91.1543 221.604 91.1753 221.739 91.1753C221.841 91.1753 221.934 91.1678 222.018 91.1528C222.104 91.1379 222.17 91.1244 222.215 91.1124L222.489 92.3838C222.402 92.4137 222.278 92.4467 222.116 92.4826C221.958 92.5186 221.763 92.5395 221.532 92.5455C221.125 92.5575 220.758 92.4961 220.432 92.3613C220.105 92.2236 219.846 92.0109 219.655 91.7234C219.466 91.4359 219.373 91.0765 219.376 90.6452V83.8974Z" fill="#2D2D2D"/>
<path d="M232.738 83.2646C230.151 83.2646 228.052 85.3638 228.052 87.9502C228.052 90.5366 230.151 92.6357 232.738 92.6357C235.324 92.6357 237.423 90.5366 237.423 87.9502C237.423 85.3638 235.324 83.2646 232.738 83.2646ZM233.206 91.2301H232.269V90.293H233.206V91.2301ZM234.176 87.5988L233.755 88.0298C233.417 88.3719 233.206 88.653 233.206 89.3558H232.269V89.1216C232.269 88.6062 232.48 88.1376 232.817 87.7956L233.398 87.2052C233.572 87.0365 233.675 86.8022 233.675 86.5445C233.675 86.0291 233.253 85.6074 232.738 85.6074C232.222 85.6074 231.801 86.0291 231.801 86.5445H230.864C230.864 85.509 231.702 84.6703 232.738 84.6703C233.773 84.6703 234.612 85.509 234.612 86.5445C234.612 86.9568 234.443 87.3317 234.176 87.5988Z" fill="#C5C5C5"/>
<path d="M89.332 101.371H426.69C430.96 101.371 434.422 104.832 434.422 109.102V159.706C434.422 163.976 430.96 167.437 426.69 167.437H89.332C85.0625 167.436 81.6018 163.976 81.6016 159.706V109.102C81.6018 104.832 85.0625 101.371 89.332 101.371Z" stroke="#FFA33B" stroke-width="1.40566"/>
<path d="M86.521 117.536C86.521 111.326 91.5557 106.291 97.7663 106.291H344.46C350.67 106.291 355.705 111.326 355.705 117.536V125.97C355.705 132.181 350.67 137.216 344.46 137.216H97.7663C91.5557 137.216 86.521 132.181 86.521 125.97V117.536Z" fill="white"/>
<path d="M97.1402 127.44C96.2727 127.436 95.5314 127.207 94.9164 126.753C94.3015 126.299 93.8311 125.639 93.5053 124.771C93.1795 123.904 93.0166 122.858 93.0166 121.636C93.0166 120.417 93.1795 119.375 93.5053 118.511C93.8347 117.648 94.307 116.989 94.9219 116.535C95.5406 116.081 96.28 115.854 97.1402 115.854C98.0005 115.854 98.7381 116.083 99.3531 116.54C99.968 116.994 100.438 117.653 100.764 118.517C101.094 119.377 101.258 120.417 101.258 121.636C101.258 122.862 101.095 123.909 100.77 124.777C100.444 125.64 99.9735 126.301 99.3585 126.759C98.7436 127.213 98.0041 127.44 97.1402 127.44ZM97.1402 125.974C97.9016 125.974 98.4965 125.602 98.9248 124.859C99.3567 124.116 99.5727 123.041 99.5727 121.636C99.5727 120.702 99.4739 119.913 99.2762 119.269C99.0822 118.621 98.8021 118.131 98.4361 117.798C98.0737 117.461 97.6417 117.293 97.1402 117.293C96.3825 117.293 95.7877 117.666 95.3557 118.413C94.9238 119.159 94.706 120.234 94.7023 121.636C94.7023 122.573 94.7993 123.365 94.9933 124.013C95.191 124.658 95.471 125.146 95.8334 125.479C96.1958 125.809 96.6314 125.974 97.1402 125.974ZM103.902 127.357C103.602 127.357 103.344 127.251 103.128 127.039C102.912 126.823 102.804 126.563 102.804 126.259C102.804 125.959 102.912 125.703 103.128 125.49C103.344 125.274 103.602 125.166 103.902 125.166C104.202 125.166 104.46 125.274 104.676 125.49C104.892 125.703 105 125.959 105 126.259C105 126.46 104.949 126.645 104.847 126.814C104.748 126.978 104.616 127.11 104.451 127.209C104.287 127.308 104.104 127.357 103.902 127.357ZM110.708 127.407C110.02 127.407 109.401 127.275 108.852 127.011C108.307 126.744 107.871 126.378 107.545 125.913C107.22 125.448 107.046 124.917 107.024 124.321H108.671C108.711 124.804 108.925 125.201 109.313 125.512C109.701 125.823 110.166 125.979 110.708 125.979C111.14 125.979 111.523 125.88 111.856 125.683C112.193 125.481 112.456 125.205 112.646 124.853C112.84 124.502 112.937 124.101 112.937 123.651C112.937 123.193 112.839 122.785 112.641 122.426C112.443 122.068 112.171 121.786 111.823 121.581C111.479 121.376 111.083 121.272 110.637 121.268C110.296 121.268 109.954 121.326 109.61 121.444C109.266 121.561 108.988 121.714 108.775 121.905L107.221 121.674L107.853 116.008H114.036V117.463H109.264L108.907 120.609H108.973C109.193 120.397 109.484 120.219 109.846 120.076C110.212 119.934 110.604 119.862 111.021 119.862C111.706 119.862 112.315 120.025 112.85 120.351C113.388 120.677 113.81 121.121 114.118 121.685C114.429 122.245 114.583 122.89 114.579 123.618C114.583 124.346 114.418 124.996 114.085 125.567C113.756 126.138 113.298 126.589 112.712 126.918C112.13 127.244 111.462 127.407 110.708 127.407ZM120.851 116.008V127.253H119.149V117.71H119.083L116.393 119.467V117.842L119.198 116.008H120.851Z" fill="#0F172A"/>
<rect x="123.144" y="114.725" width="0.70283" height="14.0566" fill="black"/>
<g clip-path="url(#clip2_6843_16875)">
<mask id="mask0_6843_16875" style="mask-type:alpha" maskUnits="userSpaceOnUse" x="369" y="113" width="18" height="18">
<path d="M378.195 113.319C382.853 113.319 386.629 117.095 386.629 121.753C386.629 122.621 386.497 123.458 386.253 124.246C385.528 123.368 384.431 122.808 383.203 122.808C381.019 122.808 379.25 124.578 379.25 126.761C379.25 127.989 379.809 129.086 380.688 129.812C379.9 130.055 379.063 130.188 378.195 130.188C373.537 130.187 369.761 126.411 369.761 121.753C369.761 117.095 373.537 113.32 378.195 113.319Z" fill="#D9D9D9"/>
</mask>
<g mask="url(#mask0_6843_16875)">
<circle cx="378.195" cy="121.753" r="8.43396" fill="#F7911A"/>
<path d="M380.047 118.224L380.469 116.642L379.52 116.379L379.151 117.907C378.888 117.855 378.624 117.802 378.361 117.749L378.73 116.168L377.728 115.957L377.359 117.538C377.148 117.486 376.937 117.433 376.727 117.38L375.409 117.064L375.145 118.118C375.145 118.118 375.883 118.276 375.831 118.276C376.199 118.382 376.305 118.645 376.305 118.856L375.198 123.178C375.145 123.284 375.04 123.495 374.724 123.389L374.038 123.231L373.564 124.338L374.829 124.654L375.514 124.812L375.093 126.394L376.041 126.657L376.463 125.076C376.727 125.129 376.99 125.234 377.254 125.287L376.885 126.868L377.834 127.132L378.255 125.55C379.889 125.867 381.154 125.761 381.681 124.233C382.103 123.02 381.681 122.335 380.785 121.913C381.418 121.755 381.892 121.334 381.998 120.49C382.156 119.278 381.312 118.645 380.047 118.224ZM379.784 123.547C379.468 124.76 377.465 124.074 376.832 123.916L377.359 121.808C377.992 121.966 380.1 122.282 379.784 123.547ZM380.1 120.437C379.837 121.544 378.15 120.965 377.623 120.859L378.097 118.909C378.624 119.014 380.364 119.278 380.1 120.437Z" fill="white"/>
</g>
<circle cx="383.203" cy="126.761" r="3.4263" fill="#F17D00"/>
<path d="M383.203 126.18C383.072 126.18 382.956 126.113 382.89 126L382.009 124.477H384.397L383.515 126C383.45 126.113 383.333 126.18 383.203 126.18Z" fill="white"/>
<path d="M384.019 126.65C383.888 126.65 383.772 126.583 383.706 126.47C383.641 126.358 383.641 126.223 383.706 126.111L384.588 124.587L385.782 126.65H384.019H384.019Z" fill="white"/>
<path d="M382.009 129.045L382.89 127.521C382.956 127.409 383.072 127.341 383.203 127.341C383.333 127.341 383.45 127.409 383.515 127.521L384.397 129.045H382.009Z" fill="white"/>
<path d="M383.706 127.411C383.641 127.298 383.641 127.164 383.706 127.051C383.772 126.938 383.888 126.871 384.019 126.871H385.782L384.588 128.935L383.707 127.411L383.706 127.411Z" fill="white"/>
<path d="M380.624 126.65L381.817 124.587L382.699 126.111C382.764 126.223 382.764 126.358 382.699 126.47C382.634 126.583 382.517 126.65 382.387 126.65H380.624Z" fill="white"/>
<path d="M380.624 126.871H382.387C382.517 126.871 382.634 126.938 382.699 127.051C382.764 127.164 382.764 127.298 382.699 127.411L381.817 128.935L380.624 126.871Z" fill="white"/>
</g>
<path d="M394.692 125.388C394.003 125.388 393.411 125.236 392.917 124.934C392.426 124.631 392.047 124.214 391.781 123.681C391.517 123.144 391.385 122.527 391.385 121.83C391.385 121.129 391.52 120.51 391.79 119.974C392.059 119.435 392.44 119.016 392.931 118.716C393.425 118.414 394.009 118.263 394.683 118.263C395.243 118.263 395.739 118.366 396.17 118.573C396.604 118.776 396.95 119.065 397.208 119.44C397.465 119.811 397.612 120.245 397.648 120.742H396.093C396.031 120.41 395.881 120.133 395.644 119.911C395.411 119.687 395.098 119.574 394.705 119.574C394.373 119.574 394.081 119.664 393.829 119.844C393.578 120.021 393.381 120.275 393.241 120.608C393.103 120.94 393.034 121.338 393.034 121.803C393.034 122.273 393.103 122.677 393.241 123.016C393.378 123.351 393.572 123.61 393.82 123.793C394.072 123.973 394.367 124.062 394.705 124.062C394.945 124.062 395.159 124.017 395.348 123.928C395.539 123.835 395.7 123.702 395.828 123.528C395.957 123.354 396.046 123.143 396.093 122.894H397.648C397.609 123.383 397.465 123.815 397.217 124.193C396.968 124.567 396.63 124.861 396.201 125.073C395.773 125.283 395.27 125.388 394.692 125.388ZM399.055 125.253V116.052H402.577C403.242 116.052 403.795 116.157 404.235 116.367C404.678 116.573 405.009 116.856 405.228 117.216C405.45 117.575 405.56 117.983 405.56 118.438C405.56 118.812 405.488 119.133 405.345 119.399C405.201 119.663 405.008 119.877 404.765 120.042C404.523 120.206 404.252 120.325 403.952 120.397V120.486C404.278 120.504 404.591 120.605 404.891 120.787C405.193 120.967 405.441 121.222 405.632 121.551C405.824 121.881 405.92 122.279 405.92 122.746C405.92 123.222 405.804 123.651 405.574 124.031C405.343 124.408 404.996 124.706 404.532 124.925C404.067 125.144 403.483 125.253 402.779 125.253H399.055ZM400.722 123.86H402.514C403.119 123.86 403.555 123.745 403.822 123.514C404.091 123.281 404.226 122.981 404.226 122.616C404.226 122.343 404.159 122.098 404.024 121.879C403.889 121.657 403.697 121.484 403.449 121.358C403.2 121.229 402.904 121.165 402.559 121.165H400.722V123.86ZM400.722 119.965H402.371C402.658 119.965 402.917 119.913 403.148 119.808C403.378 119.7 403.56 119.549 403.691 119.354C403.826 119.157 403.894 118.923 403.894 118.653C403.894 118.297 403.768 118.003 403.516 117.773C403.268 117.542 402.898 117.427 402.407 117.427H400.722V119.965ZM406.965 117.449V116.052H414.306V117.449H411.462V125.253H409.809V117.449H406.965ZM423.189 119.157H421.509C421.461 118.881 421.373 118.637 421.244 118.424C421.115 118.209 420.955 118.026 420.763 117.876C420.571 117.726 420.353 117.614 420.107 117.539C419.865 117.461 419.602 117.422 419.321 117.422C418.821 117.422 418.378 117.548 417.991 117.8C417.605 118.048 417.302 118.414 417.084 118.896C416.865 119.375 416.756 119.961 416.756 120.653C416.756 121.356 416.865 121.949 417.084 122.432C417.305 122.911 417.608 123.273 417.991 123.519C418.378 123.761 418.819 123.883 419.316 123.883C419.592 123.883 419.85 123.847 420.089 123.775C420.332 123.7 420.549 123.591 420.741 123.447C420.935 123.303 421.098 123.126 421.23 122.917C421.365 122.707 421.458 122.468 421.509 122.198L423.189 122.207C423.126 122.644 422.99 123.055 422.78 123.438C422.574 123.821 422.302 124.16 421.967 124.453C421.632 124.744 421.239 124.971 420.79 125.136C420.341 125.298 419.842 125.379 419.294 125.379C418.485 125.379 417.764 125.192 417.129 124.817C416.494 124.443 415.993 123.902 415.628 123.195C415.263 122.489 415.08 121.641 415.08 120.653C415.08 119.661 415.264 118.814 415.633 118.11C416.001 117.403 416.503 116.862 417.138 116.488C417.773 116.114 418.491 115.926 419.294 115.926C419.806 115.926 420.282 115.998 420.723 116.142C421.163 116.286 421.555 116.497 421.9 116.776C422.244 117.051 422.527 117.39 422.749 117.791C422.973 118.189 423.12 118.644 423.189 119.157Z" fill="#2D2D2D"/>
<path d="M94.5875 156.444V148.777H95.0787V156.444H94.5875ZM96.2407 151.077C96.2048 150.774 96.059 150.538 95.8035 150.371C95.5479 150.203 95.2344 150.119 94.863 150.119C94.5915 150.119 94.3539 150.163 94.1502 150.251C93.9486 150.339 93.7908 150.459 93.677 150.613C93.5652 150.767 93.5093 150.942 93.5093 151.137C93.5093 151.301 93.5482 151.442 93.6261 151.56C93.706 151.675 93.8078 151.772 93.9316 151.85C94.0554 151.926 94.1852 151.989 94.3209 152.039C94.4567 152.087 94.5815 152.126 94.6953 152.156L95.3183 152.323C95.478 152.365 95.6557 152.423 95.8514 152.497C96.0491 152.571 96.2377 152.672 96.4174 152.8C96.5991 152.925 96.7489 153.087 96.8667 153.285C96.9845 153.482 97.0434 153.725 97.0434 154.013C97.0434 154.344 96.9565 154.643 96.7828 154.911C96.6111 155.179 96.3595 155.391 96.0281 155.549C95.6986 155.707 95.2983 155.786 94.8271 155.786C94.3878 155.786 94.0075 155.715 93.686 155.573C93.3665 155.431 93.1149 155.233 92.9312 154.98C92.7495 154.726 92.6467 154.432 92.6228 154.096H93.3895C93.4094 154.328 93.4873 154.52 93.6231 154.671C93.7609 154.821 93.9346 154.933 94.1442 155.007C94.3559 155.079 94.5835 155.115 94.8271 155.115C95.1106 155.115 95.3652 155.069 95.5908 154.977C95.8164 154.883 95.9951 154.753 96.1269 154.588C96.2587 154.42 96.3246 154.224 96.3246 154.001C96.3246 153.797 96.2677 153.631 96.1539 153.503C96.0401 153.376 95.8903 153.272 95.7046 153.192C95.5189 153.112 95.3183 153.042 95.1026 152.982L94.3479 152.767C93.8687 152.629 93.4893 152.432 93.2098 152.177C92.9302 151.921 92.7905 151.587 92.7905 151.173C92.7905 150.83 92.8833 150.53 93.069 150.275C93.2567 150.017 93.5083 149.817 93.8238 149.676C94.1412 149.532 94.4956 149.46 94.887 149.46C95.2823 149.46 95.6337 149.531 95.9412 149.673C96.2487 149.812 96.4923 150.004 96.672 150.248C96.8537 150.491 96.9496 150.768 96.9595 151.077H96.2407ZM100.074 155.762C99.7222 155.762 99.4057 155.692 99.1242 155.552C98.8427 155.412 98.617 155.22 98.4473 154.977C98.2776 154.733 98.1848 154.456 98.1688 154.144H98.8876C98.9155 154.422 99.0413 154.651 99.265 154.833C99.4906 155.013 99.7601 155.103 100.074 155.103C100.325 155.103 100.549 155.044 100.744 154.926C100.942 154.808 101.097 154.646 101.209 154.441C101.323 154.233 101.379 153.999 101.379 153.737C101.379 153.469 101.321 153.231 101.203 153.021C101.087 152.81 100.927 152.643 100.724 152.521C100.52 152.399 100.287 152.337 100.026 152.335C99.838 152.333 99.6453 152.362 99.4476 152.422C99.25 152.48 99.0872 152.555 98.9595 152.647L98.2646 152.563L98.636 149.544H101.823V150.203H99.259L99.0433 152.012H99.0793C99.2051 151.912 99.3628 151.829 99.5525 151.763C99.7422 151.697 99.9398 151.664 100.145 151.664C100.521 151.664 100.855 151.754 101.149 151.934C101.444 152.112 101.676 152.355 101.844 152.665C102.013 152.974 102.098 153.328 102.098 153.725C102.098 154.116 102.01 154.466 101.835 154.773C101.661 155.079 101.421 155.32 101.116 155.498C100.81 155.674 100.463 155.762 100.074 155.762ZM105.253 155.762C104.841 155.762 104.478 155.689 104.163 155.543C103.849 155.395 103.604 155.193 103.429 154.935C103.253 154.675 103.166 154.38 103.168 154.048C103.166 153.789 103.217 153.549 103.321 153.33C103.425 153.108 103.567 152.923 103.746 152.776C103.928 152.626 104.131 152.531 104.354 152.491V152.455C104.061 152.379 103.827 152.214 103.653 151.961C103.48 151.705 103.394 151.415 103.396 151.089C103.394 150.778 103.473 150.499 103.632 150.254C103.792 150.008 104.012 149.814 104.291 149.673C104.573 149.531 104.893 149.46 105.253 149.46C105.608 149.46 105.926 149.531 106.205 149.673C106.485 149.814 106.704 150.008 106.864 150.254C107.026 150.499 107.108 150.778 107.11 151.089C107.108 151.415 107.019 151.705 106.843 151.961C106.669 152.214 106.439 152.379 106.151 152.455V152.491C106.373 152.531 106.573 152.626 106.75 152.776C106.928 152.923 107.07 153.108 107.176 153.33C107.281 153.549 107.335 153.789 107.337 154.048C107.335 154.38 107.245 154.675 107.068 154.935C106.892 155.193 106.647 155.395 106.334 155.543C106.022 155.689 105.662 155.762 105.253 155.762ZM105.253 155.103C105.53 155.103 105.77 155.058 105.972 154.968C106.173 154.878 106.329 154.751 106.439 154.588C106.549 154.424 106.604 154.232 106.606 154.013C106.604 153.781 106.545 153.576 106.427 153.399C106.309 153.221 106.148 153.081 105.945 152.979C105.743 152.877 105.512 152.826 105.253 152.826C104.991 152.826 104.758 152.877 104.552 152.979C104.348 153.081 104.188 153.221 104.07 153.399C103.954 153.576 103.897 153.781 103.899 154.013C103.897 154.232 103.95 154.424 104.058 154.588C104.168 154.751 104.324 154.878 104.528 154.968C104.732 155.058 104.973 155.103 105.253 155.103ZM105.253 152.192C105.472 152.192 105.667 152.148 105.837 152.06C106.008 151.972 106.143 151.849 106.241 151.691C106.339 151.534 106.389 151.349 106.391 151.137C106.389 150.93 106.34 150.749 106.244 150.595C106.148 150.439 106.015 150.32 105.846 150.236C105.676 150.15 105.478 150.107 105.253 150.107C105.023 150.107 104.822 150.15 104.651 150.236C104.479 150.32 104.346 150.439 104.252 150.595C104.159 150.749 104.113 150.93 104.115 151.137C104.113 151.349 104.16 151.534 104.255 151.691C104.353 151.849 104.488 151.972 104.66 152.06C104.831 152.148 105.029 152.192 105.253 152.192ZM109.362 154.839L109.314 155.163C109.28 155.39 109.228 155.634 109.158 155.893C109.09 156.153 109.019 156.398 108.946 156.627C108.872 156.857 108.811 157.039 108.763 157.175H108.224C108.25 157.047 108.284 156.879 108.326 156.669C108.368 156.459 108.409 156.225 108.451 155.965C108.495 155.708 108.531 155.444 108.559 155.175L108.595 154.839H109.362ZM112.083 149.544V155.678H111.34V150.323H111.304L109.807 151.317V150.562L111.34 149.544H112.083ZM115.764 155.762C115.412 155.762 115.096 155.692 114.814 155.552C114.533 155.412 114.307 155.22 114.137 154.977C113.968 154.733 113.875 154.456 113.859 154.144H114.578C114.606 154.422 114.731 154.651 114.955 154.833C115.181 155.013 115.45 155.103 115.764 155.103C116.015 155.103 116.239 155.044 116.435 154.926C116.632 154.808 116.787 154.646 116.899 154.441C117.013 154.233 117.07 153.999 117.07 153.737C117.07 153.469 117.011 153.231 116.893 153.021C116.777 152.81 116.617 152.643 116.414 152.521C116.21 152.399 115.977 152.337 115.716 152.335C115.528 152.333 115.335 152.362 115.138 152.422C114.94 152.48 114.777 152.555 114.65 152.647L113.955 152.563L114.326 149.544H117.513V150.203H114.949L114.733 152.012H114.769C114.895 151.912 115.053 151.829 115.243 151.763C115.432 151.697 115.63 151.664 115.836 151.664C116.211 151.664 116.545 151.754 116.839 151.934C117.134 152.112 117.366 152.355 117.534 152.665C117.704 152.974 117.788 153.328 117.788 153.725C117.788 154.116 117.701 154.466 117.525 154.773C117.351 155.079 117.112 155.32 116.806 155.498C116.501 155.674 116.153 155.762 115.764 155.762ZM118.978 155.678V155.139L121.003 152.922C121.24 152.663 121.436 152.437 121.59 152.245C121.744 152.052 121.857 151.87 121.931 151.7C122.007 151.529 122.045 151.349 122.045 151.161C122.045 150.946 121.993 150.759 121.889 150.601C121.787 150.443 121.648 150.322 121.47 150.236C121.292 150.15 121.093 150.107 120.871 150.107C120.635 150.107 120.43 150.156 120.254 150.254C120.08 150.35 119.946 150.484 119.85 150.658C119.756 150.832 119.709 151.035 119.709 151.269H119.002C119.002 150.91 119.085 150.594 119.251 150.323C119.416 150.051 119.642 149.839 119.928 149.688C120.215 149.536 120.538 149.46 120.895 149.46C121.254 149.46 121.573 149.536 121.85 149.688C122.128 149.839 122.346 150.044 122.503 150.302C122.661 150.559 122.74 150.846 122.74 151.161C122.74 151.387 122.699 151.608 122.617 151.823C122.537 152.037 122.397 152.275 122.198 152.539C122 152.801 121.726 153.12 121.374 153.497L119.996 154.971V155.019H122.848V155.678H118.978ZM124.612 155.726C124.464 155.726 124.337 155.673 124.231 155.567C124.126 155.461 124.073 155.334 124.073 155.187C124.073 155.039 124.126 154.912 124.231 154.806C124.337 154.7 124.464 154.647 124.612 154.647C124.76 154.647 124.886 154.7 124.992 154.806C125.098 154.912 125.151 155.039 125.151 155.187C125.151 155.284 125.126 155.374 125.076 155.456C125.028 155.538 124.963 155.604 124.881 155.654C124.801 155.702 124.712 155.726 124.612 155.726ZM128.249 155.762C127.854 155.762 127.501 155.694 127.192 155.558C126.884 155.422 126.64 155.233 126.458 154.992C126.278 154.748 126.181 154.466 126.165 154.144H126.919C126.935 154.342 127.003 154.513 127.123 154.656C127.243 154.798 127.4 154.908 127.593 154.986C127.787 155.064 128.002 155.103 128.237 155.103C128.501 155.103 128.734 155.057 128.938 154.965C129.142 154.873 129.301 154.745 129.417 154.582C129.533 154.418 129.591 154.228 129.591 154.013C129.591 153.787 129.535 153.588 129.423 153.416C129.311 153.243 129.148 153.107 128.932 153.009C128.716 152.911 128.453 152.862 128.141 152.862H127.65V152.204H128.141C128.385 152.204 128.599 152.16 128.782 152.072C128.968 151.984 129.113 151.86 129.217 151.7C129.322 151.541 129.375 151.353 129.375 151.137C129.375 150.93 129.329 150.749 129.238 150.595C129.146 150.441 129.016 150.322 128.848 150.236C128.682 150.15 128.487 150.107 128.261 150.107C128.05 150.107 127.85 150.146 127.662 150.224C127.477 150.3 127.325 150.411 127.207 150.556C127.089 150.7 127.025 150.874 127.015 151.077H126.296C126.308 150.756 126.405 150.474 126.587 150.233C126.769 149.989 127.006 149.8 127.3 149.664C127.595 149.528 127.92 149.46 128.273 149.46C128.653 149.46 128.978 149.537 129.25 149.691C129.521 149.842 129.73 150.043 129.876 150.293C130.021 150.542 130.094 150.812 130.094 151.101C130.094 151.447 130.003 151.741 129.822 151.985C129.642 152.228 129.397 152.397 129.088 152.491V152.539C129.475 152.603 129.778 152.768 129.995 153.033C130.213 153.297 130.322 153.623 130.322 154.013C130.322 154.346 130.231 154.645 130.049 154.911C129.87 155.175 129.624 155.382 129.312 155.534C129.001 155.686 128.647 155.762 128.249 155.762ZM133.619 155.762C133.224 155.762 132.872 155.694 132.562 155.558C132.255 155.422 132.01 155.233 131.828 154.992C131.649 154.748 131.551 154.466 131.535 154.144H132.289C132.305 154.342 132.373 154.513 132.493 154.656C132.613 154.798 132.77 154.908 132.963 154.986C133.157 155.064 133.372 155.103 133.607 155.103C133.871 155.103 134.104 155.057 134.308 154.965C134.512 154.873 134.672 154.745 134.787 154.582C134.903 154.418 134.961 154.228 134.961 154.013C134.961 153.787 134.905 153.588 134.793 153.416C134.682 153.243 134.518 153.107 134.302 153.009C134.087 152.911 133.823 152.862 133.511 152.862H133.02V152.204H133.511C133.755 152.204 133.969 152.16 134.152 152.072C134.338 151.984 134.483 151.86 134.587 151.7C134.692 151.541 134.745 151.353 134.745 151.137C134.745 150.93 134.699 150.749 134.608 150.595C134.516 150.441 134.386 150.322 134.218 150.236C134.053 150.15 133.857 150.107 133.631 150.107C133.42 150.107 133.22 150.146 133.032 150.224C132.847 150.3 132.695 150.411 132.577 150.556C132.459 150.7 132.395 150.874 132.385 151.077H131.667C131.679 150.756 131.775 150.474 131.957 150.233C132.139 149.989 132.376 149.8 132.67 149.664C132.965 149.528 133.29 149.46 133.643 149.46C134.023 149.46 134.348 149.537 134.62 149.691C134.891 149.842 135.1 150.043 135.246 150.293C135.391 150.542 135.464 150.812 135.464 151.101C135.464 151.447 135.373 151.741 135.192 151.985C135.012 152.228 134.767 152.397 134.458 152.491V152.539C134.845 152.603 135.148 152.768 135.365 153.033C135.583 153.297 135.692 153.623 135.692 154.013C135.692 154.346 135.601 154.645 135.419 154.911C135.24 155.175 134.994 155.382 134.683 155.534C134.371 155.686 134.017 155.762 133.619 155.762Z" fill="#B7B7B7"/>
<path d="M352.02 149.544V155.678H351.277V150.323H351.241L349.744 151.317V150.562L351.277 149.544H352.02ZM353.949 155.726C353.801 155.726 353.674 155.673 353.568 155.567C353.462 155.461 353.41 155.334 353.41 155.187C353.41 155.039 353.462 154.912 353.568 154.806C353.674 154.7 353.801 154.647 353.949 154.647C354.096 154.647 354.223 154.7 354.329 154.806C354.435 154.912 354.488 155.039 354.488 155.187C354.488 155.284 354.463 155.374 354.413 155.456C354.365 155.538 354.3 155.604 354.218 155.654C354.138 155.702 354.048 155.726 353.949 155.726ZM357.531 155.762C357.079 155.762 356.695 155.639 356.378 155.393C356.06 155.146 355.818 154.787 355.65 154.318C355.482 153.847 355.398 153.278 355.398 152.611C355.398 151.948 355.482 151.382 355.65 150.913C355.82 150.441 356.063 150.082 356.381 149.834C356.7 149.585 357.083 149.46 357.531 149.46C357.978 149.46 358.36 149.585 358.678 149.834C358.997 150.082 359.241 150.441 359.409 150.913C359.578 151.382 359.663 151.948 359.663 152.611C359.663 153.278 359.579 153.847 359.412 154.318C359.244 154.787 359.001 155.146 358.684 155.393C358.366 155.639 357.982 155.762 357.531 155.762ZM357.531 155.103C357.978 155.103 358.325 154.887 358.573 154.456C358.821 154.024 358.944 153.41 358.944 152.611C358.944 152.08 358.887 151.627 358.774 151.254C358.662 150.881 358.5 150.596 358.288 150.401C358.079 150.205 357.826 150.107 357.531 150.107C357.087 150.107 356.741 150.326 356.491 150.763C356.242 151.198 356.117 151.814 356.117 152.611C356.117 153.142 356.173 153.593 356.285 153.965C356.397 154.336 356.557 154.618 356.767 154.812C356.979 155.006 357.233 155.103 357.531 155.103ZM362.802 155.762C362.351 155.762 361.966 155.639 361.649 155.393C361.331 155.146 361.089 154.787 360.921 154.318C360.753 153.847 360.669 153.278 360.669 152.611C360.669 151.948 360.753 151.382 360.921 150.913C361.091 150.441 361.334 150.082 361.652 149.834C361.971 149.585 362.355 149.46 362.802 149.46C363.249 149.46 363.632 149.585 363.949 149.834C364.268 150.082 364.512 150.441 364.68 150.913C364.85 151.382 364.934 151.948 364.934 152.611C364.934 153.278 364.851 153.847 364.683 154.318C364.515 154.787 364.272 155.146 363.955 155.393C363.638 155.639 363.253 155.762 362.802 155.762ZM362.802 155.103C363.249 155.103 363.597 154.887 363.844 154.456C364.092 154.024 364.216 153.41 364.216 152.611C364.216 152.08 364.159 151.627 364.045 151.254C363.933 150.881 363.771 150.596 363.56 150.401C363.35 150.205 363.097 150.107 362.802 150.107C362.359 150.107 362.012 150.326 361.763 150.763C361.513 151.198 361.388 151.814 361.388 152.611C361.388 153.142 361.444 153.593 361.556 153.965C361.668 154.336 361.829 154.618 362.038 154.812C362.25 155.006 362.504 155.103 362.802 155.103ZM368.073 155.762C367.622 155.762 367.238 155.639 366.92 155.393C366.603 155.146 366.36 154.787 366.192 154.318C366.025 153.847 365.941 153.278 365.941 152.611C365.941 151.948 366.025 151.382 366.192 150.913C366.362 150.441 366.606 150.082 366.923 149.834C367.243 149.585 367.626 149.46 368.073 149.46C368.52 149.46 368.903 149.585 369.22 149.834C369.54 150.082 369.783 150.441 369.951 150.913C370.121 151.382 370.206 151.948 370.206 152.611C370.206 153.278 370.122 153.847 369.954 154.318C369.786 154.787 369.544 155.146 369.226 155.393C368.909 155.639 368.524 155.762 368.073 155.762ZM368.073 155.103C368.52 155.103 368.868 154.887 369.115 154.456C369.363 154.024 369.487 153.41 369.487 152.611C369.487 152.08 369.43 151.627 369.316 151.254C369.204 150.881 369.043 150.596 368.831 150.401C368.621 150.205 368.369 150.107 368.073 150.107C367.63 150.107 367.283 150.326 367.034 150.763C366.784 151.198 366.66 151.814 366.66 152.611C366.66 153.142 366.715 153.593 366.827 153.965C366.939 154.336 367.1 154.618 367.309 154.812C367.521 155.006 367.776 155.103 368.073 155.103ZM373.824 155.678V149.544H375.968C376.395 149.544 376.748 149.618 377.025 149.766C377.303 149.911 377.509 150.108 377.645 150.356C377.781 150.601 377.849 150.874 377.849 151.173C377.849 151.437 377.802 151.654 377.708 151.826C377.616 151.998 377.494 152.134 377.343 152.233C377.193 152.333 377.03 152.407 376.855 152.455V152.515C377.042 152.527 377.231 152.593 377.421 152.713C377.61 152.832 377.769 153.004 377.897 153.228C378.025 153.451 378.088 153.725 378.088 154.048C378.088 154.356 378.019 154.632 377.879 154.878C377.739 155.124 377.518 155.318 377.217 155.462C376.915 155.606 376.523 155.678 376.04 155.678H373.824ZM374.566 155.019H376.04C376.525 155.019 376.87 154.925 377.073 154.737C377.279 154.548 377.382 154.318 377.382 154.048C377.382 153.841 377.329 153.649 377.223 153.473C377.117 153.296 376.966 153.154 376.771 153.048C376.575 152.94 376.343 152.886 376.076 152.886H374.566V155.019ZM374.566 152.239H375.944C376.168 152.239 376.369 152.196 376.549 152.108C376.731 152.02 376.875 151.896 376.98 151.736C377.088 151.577 377.142 151.389 377.142 151.173C377.142 150.904 377.048 150.675 376.861 150.487C376.673 150.298 376.375 150.203 375.968 150.203H374.566V152.239ZM378.974 150.203V149.544H383.574V150.203H381.645V155.678H380.902V150.203H378.974ZM389.401 151.461H388.658C388.614 151.247 388.537 151.059 388.427 150.898C388.319 150.736 388.188 150.6 388.032 150.49C387.878 150.379 387.707 150.295 387.52 150.239C387.332 150.183 387.136 150.155 386.933 150.155C386.561 150.155 386.225 150.249 385.923 150.436C385.624 150.624 385.385 150.901 385.208 151.266C385.032 151.631 384.944 152.08 384.944 152.611C384.944 153.142 385.032 153.59 385.208 153.956C385.385 154.321 385.624 154.598 385.923 154.785C386.225 154.973 386.561 155.067 386.933 155.067C387.136 155.067 387.332 155.039 387.52 154.983C387.707 154.927 387.878 154.844 388.032 154.734C388.188 154.622 388.319 154.486 388.427 154.324C388.537 154.16 388.614 153.973 388.658 153.761H389.401C389.345 154.074 389.243 154.355 389.095 154.603C388.947 154.85 388.764 155.061 388.544 155.234C388.324 155.406 388.078 155.537 387.804 155.627C387.533 155.717 387.242 155.762 386.933 155.762C386.41 155.762 385.944 155.634 385.537 155.378C385.13 155.123 384.809 154.759 384.576 154.288C384.342 153.817 384.225 153.258 384.225 152.611C384.225 151.964 384.342 151.405 384.576 150.934C384.809 150.462 385.13 150.099 385.537 149.843C385.944 149.588 386.41 149.46 386.933 149.46C387.242 149.46 387.533 149.505 387.804 149.595C388.078 149.685 388.324 149.816 388.544 149.99C388.764 150.162 388.947 150.372 389.095 150.619C389.243 150.865 389.345 151.145 389.401 151.461Z" fill="#B7B7B7"/>
<path d="M397.257 151.272C397.257 146.614 401.033 142.838 405.691 142.838H421.068C425.726 142.838 429.502 146.614 429.502 151.272V154.083C429.502 158.741 425.726 162.517 421.068 162.517H405.691C401.033 162.517 397.257 158.741 397.257 154.083V151.272Z" fill="#FDF2E2"/>
<path d="M403.413 149.544H405.012L406.701 153.665H406.773L408.462 149.544H410.061V155.678H408.804V151.685H408.753L407.165 155.648H406.309L404.721 151.67H404.67V155.678H403.413V149.544ZM412.187 155.678H410.797L412.915 149.544H414.586L416.701 155.678H415.311L413.775 150.946H413.727L412.187 155.678ZM412.1 153.267H415.383V154.279H412.1V153.267ZM418.655 149.544L419.892 151.634H419.94L421.183 149.544H422.647L420.775 152.611L422.689 155.678H421.198L419.94 153.584H419.892L418.634 155.678H417.148L419.068 152.611L417.184 149.544H418.655Z" fill="#FF6D01"/>
<path d="M86.8061 196.958C86.7642 196.566 86.5875 196.261 86.276 196.042C85.9675 195.823 85.5662 195.714 85.072 195.714C84.7246 195.714 84.4266 195.766 84.178 195.871C83.9294 195.976 83.7392 196.118 83.6074 196.298C83.4756 196.478 83.4083 196.683 83.4053 196.914C83.4053 197.105 83.4487 197.271 83.5355 197.412C83.6254 197.553 83.7467 197.673 83.8994 197.772C84.0522 197.867 84.2214 197.948 84.4071 198.014C84.5928 198.08 84.78 198.136 84.9687 198.18L85.8312 198.396C86.1787 198.477 86.5126 198.586 86.8331 198.724C87.1565 198.862 87.4455 199.036 87.7001 199.245C87.9577 199.455 88.1614 199.708 88.3111 200.004C88.4609 200.301 88.5357 200.648 88.5357 201.047C88.5357 201.586 88.398 202.06 88.1224 202.471C87.8469 202.878 87.4485 203.197 86.9274 203.428C86.4093 203.655 85.7818 203.769 85.045 203.769C84.3292 203.769 83.7078 203.658 83.1806 203.437C82.6565 203.215 82.2462 202.892 81.9497 202.466C81.6562 202.041 81.4974 201.523 81.4735 200.912H83.1133C83.1372 201.232 83.236 201.499 83.4098 201.712C83.5835 201.924 83.8096 202.083 84.0881 202.188C84.3697 202.293 84.6841 202.345 85.0316 202.345C85.394 202.345 85.7114 202.291 85.984 202.183C86.2595 202.072 86.4752 201.92 86.6309 201.725C86.7866 201.527 86.866 201.297 86.869 201.033C86.866 200.794 86.7956 200.596 86.6579 200.44C86.5201 200.281 86.3269 200.15 86.0783 200.045C85.8327 199.937 85.5452 199.841 85.2158 199.757L84.169 199.488C83.4113 199.293 82.8123 198.998 82.372 198.603C81.9347 198.204 81.7161 197.676 81.7161 197.017C81.7161 196.475 81.8628 196 82.1563 195.593C82.4529 195.185 82.8557 194.869 83.3648 194.645C83.874 194.417 84.4505 194.303 85.0945 194.303C85.7474 194.303 86.3194 194.417 86.8106 194.645C87.3048 194.869 87.6926 195.182 87.9742 195.584C88.2557 195.982 88.401 196.44 88.4099 196.958H86.8061ZM93.0047 203.765C92.3128 203.765 91.7153 203.621 91.2121 203.333C90.712 203.043 90.3271 202.633 90.0576 202.102C89.788 201.569 89.6532 200.942 89.6532 200.22C89.6532 199.51 89.788 198.887 90.0576 198.351C90.3301 197.812 90.7105 197.393 91.1987 197.093C91.6869 196.791 92.2604 196.64 92.9193 196.64C93.3446 196.64 93.7459 196.708 94.1233 196.846C94.5037 196.981 94.8391 197.191 95.1296 197.475C95.4231 197.76 95.6538 198.122 95.8215 198.562C95.9892 199 96.0731 199.521 96.0731 200.126V200.624H90.417V199.528H94.5142C94.5112 199.217 94.4438 198.94 94.312 198.697C94.1802 198.452 93.996 198.258 93.7594 198.118C93.5258 197.977 93.2533 197.906 92.9418 197.906C92.6093 197.906 92.3173 197.987 92.0657 198.149C91.8141 198.308 91.618 198.517 91.4772 198.778C91.3394 199.036 91.2691 199.319 91.2661 199.627V200.584C91.2661 200.985 91.3394 201.33 91.4862 201.617C91.6329 201.902 91.8381 202.12 92.1017 202.273C92.3652 202.423 92.6737 202.498 93.0271 202.498C93.2637 202.498 93.4779 202.465 93.6696 202.399C93.8612 202.33 94.0275 202.23 94.1682 202.098C94.309 201.966 94.4153 201.803 94.4872 201.608L96.0057 201.779C95.9098 202.18 95.7271 202.531 95.4576 202.83C95.191 203.127 94.8496 203.357 94.4333 203.522C94.017 203.684 93.5408 203.765 93.0047 203.765ZM99.0752 194.429V203.63H97.4489V194.429H99.0752ZM103.802 203.765C103.111 203.765 102.513 203.621 102.01 203.333C101.51 203.043 101.125 202.633 100.855 202.102C100.586 201.569 100.451 200.942 100.451 200.22C100.451 199.51 100.586 198.887 100.855 198.351C101.128 197.812 101.508 197.393 101.996 197.093C102.485 196.791 103.058 196.64 103.717 196.64C104.142 196.64 104.544 196.708 104.921 196.846C105.301 196.981 105.637 197.191 105.927 197.475C106.221 197.76 106.452 198.122 106.619 198.562C106.787 199 106.871 199.521 106.871 200.126V200.624H101.215V199.528H105.312C105.309 199.217 105.242 198.94 105.11 198.697C104.978 198.452 104.794 198.258 104.557 198.118C104.324 197.977 104.051 197.906 103.74 197.906C103.407 197.906 103.115 197.987 102.864 198.149C102.612 198.308 102.416 198.517 102.275 198.778C102.137 199.036 102.067 199.319 102.064 199.627V200.584C102.064 200.985 102.137 201.33 102.284 201.617C102.431 201.902 102.636 202.12 102.899 202.273C103.163 202.423 103.471 202.498 103.825 202.498C104.062 202.498 104.276 202.465 104.467 202.399C104.659 202.33 104.825 202.23 104.966 202.098C105.107 201.966 105.213 201.803 105.285 201.608L106.803 201.779C106.708 202.18 106.525 202.531 106.255 202.83C105.989 203.127 105.647 203.357 105.231 203.522C104.815 203.684 104.339 203.765 103.802 203.765ZM111.257 203.765C110.568 203.765 109.976 203.613 109.482 203.311C108.991 203.008 108.612 202.591 108.346 202.057C108.082 201.521 107.95 200.904 107.95 200.207C107.95 199.506 108.085 198.887 108.354 198.351C108.624 197.812 109.004 197.393 109.496 197.093C109.99 196.791 110.574 196.64 111.248 196.64C111.808 196.64 112.303 196.743 112.735 196.949C113.169 197.153 113.515 197.442 113.772 197.817C114.03 198.188 114.177 198.622 114.213 199.119H112.658C112.595 198.787 112.446 198.51 112.209 198.288C111.975 198.064 111.662 197.951 111.27 197.951C110.938 197.951 110.646 198.041 110.394 198.221C110.143 198.398 109.946 198.652 109.806 198.985C109.668 199.317 109.599 199.715 109.599 200.18C109.599 200.65 109.668 201.054 109.806 201.393C109.943 201.728 110.137 201.987 110.385 202.17C110.637 202.35 110.932 202.439 111.27 202.439C111.51 202.439 111.724 202.394 111.913 202.305C112.104 202.212 112.264 202.078 112.393 201.905C112.522 201.731 112.61 201.52 112.658 201.271H114.213C114.174 201.759 114.03 202.192 113.781 202.57C113.533 202.944 113.194 203.238 112.766 203.45C112.338 203.66 111.835 203.765 111.257 203.765ZM118.994 196.729V197.987H115.027V196.729H118.994ZM116.006 195.076H117.633V201.554C117.633 201.773 117.666 201.941 117.732 202.057C117.8 202.171 117.89 202.249 118.001 202.291C118.112 202.333 118.235 202.354 118.369 202.354C118.471 202.354 118.564 202.347 118.648 202.332C118.735 202.317 118.801 202.303 118.846 202.291L119.12 203.562C119.033 203.592 118.909 203.625 118.747 203.661C118.588 203.697 118.393 203.718 118.163 203.724C117.755 203.736 117.389 203.675 117.062 203.54C116.736 203.402 116.477 203.19 116.285 202.902C116.096 202.615 116.003 202.255 116.006 201.824V195.076ZM124.503 206.218C124.281 206.218 124.076 206.2 123.887 206.164C123.702 206.131 123.553 206.092 123.443 206.047L123.82 204.78C124.057 204.849 124.268 204.882 124.453 204.879C124.639 204.876 124.802 204.817 124.943 204.704C125.087 204.593 125.208 204.407 125.307 204.147L125.446 203.774L122.944 196.729H124.669L126.259 201.941H126.331L127.926 196.729H129.656L126.893 204.465C126.764 204.831 126.593 205.144 126.381 205.404C126.168 205.668 125.908 205.869 125.599 206.006C125.294 206.147 124.928 206.218 124.503 206.218ZM133.556 203.765C132.883 203.765 132.299 203.616 131.804 203.32C131.31 203.023 130.927 202.609 130.654 202.075C130.385 201.542 130.25 200.919 130.25 200.207C130.25 199.494 130.385 198.869 130.654 198.333C130.927 197.797 131.31 197.381 131.804 197.084C132.299 196.788 132.883 196.64 133.556 196.64C134.23 196.64 134.814 196.788 135.309 197.084C135.803 197.381 136.185 197.797 136.454 198.333C136.727 198.869 136.863 199.494 136.863 200.207C136.863 200.919 136.727 201.542 136.454 202.075C136.185 202.609 135.803 203.023 135.309 203.32C134.814 203.616 134.23 203.765 133.556 203.765ZM133.565 202.462C133.931 202.462 134.236 202.361 134.482 202.161C134.727 201.957 134.91 201.685 135.03 201.343C135.153 201.002 135.214 200.621 135.214 200.202C135.214 199.78 135.153 199.398 135.03 199.056C134.91 198.712 134.727 198.438 134.482 198.234C134.236 198.031 133.931 197.929 133.565 197.929C133.191 197.929 132.88 198.031 132.631 198.234C132.385 198.438 132.201 198.712 132.078 199.056C131.959 199.398 131.899 199.78 131.899 200.202C131.899 200.621 131.959 201.002 132.078 201.343C132.201 201.685 132.385 201.957 132.631 202.161C132.88 202.361 133.191 202.462 133.565 202.462ZM142.641 200.728V196.729H144.268V203.63H142.691V202.403H142.619C142.463 202.79 142.207 203.106 141.851 203.351C141.497 203.597 141.062 203.72 140.543 203.72C140.091 203.72 139.691 203.619 139.344 203.419C139 203.215 138.73 202.92 138.535 202.534C138.341 202.144 138.243 201.674 138.243 201.123V196.729H139.87V200.871C139.87 201.309 139.989 201.656 140.229 201.914C140.469 202.171 140.783 202.3 141.172 202.3C141.412 202.3 141.644 202.242 141.869 202.125C142.093 202.008 142.278 201.834 142.421 201.604C142.568 201.37 142.641 201.078 142.641 200.728ZM145.94 203.63V196.729H147.517V197.879H147.589C147.715 197.481 147.93 197.174 148.236 196.958C148.544 196.74 148.896 196.631 149.292 196.631C149.381 196.631 149.482 196.635 149.593 196.644C149.706 196.65 149.801 196.66 149.876 196.675V198.171C149.807 198.148 149.697 198.127 149.548 198.109C149.401 198.088 149.259 198.077 149.121 198.077C148.824 198.077 148.558 198.142 148.321 198.27C148.088 198.396 147.903 198.571 147.769 198.796C147.634 199.021 147.566 199.28 147.566 199.573V203.63H145.94ZM155.72 194.429V203.63H154.094V194.429H155.72ZM157.393 203.63V196.729H159.019V203.63H157.393ZM158.21 195.75C157.953 195.75 157.731 195.665 157.545 195.494C157.36 195.32 157.267 195.112 157.267 194.869C157.267 194.624 157.36 194.416 157.545 194.245C157.731 194.071 157.953 193.984 158.21 193.984C158.471 193.984 158.692 194.071 158.875 194.245C159.061 194.416 159.154 194.624 159.154 194.869C159.154 195.112 159.061 195.32 158.875 195.494C158.692 195.665 158.471 195.75 158.21 195.75ZM165.296 206.218V202.543H165.229C165.145 202.71 165.024 202.889 164.865 203.077C164.706 203.263 164.496 203.422 164.236 203.554C163.975 203.685 163.647 203.751 163.252 203.751C162.71 203.751 162.225 203.612 161.796 203.333C161.368 203.055 161.03 202.651 160.781 202.12C160.533 201.59 160.408 200.946 160.408 200.189C160.408 199.422 160.534 198.775 160.786 198.248C161.04 197.718 161.383 197.318 161.814 197.048C162.246 196.776 162.726 196.64 163.257 196.64C163.661 196.64 163.993 196.708 164.254 196.846C164.514 196.981 164.721 197.144 164.874 197.336C165.027 197.525 165.145 197.703 165.229 197.87H165.328V196.729H166.927V206.218H165.296ZM163.706 202.417C164.05 202.417 164.344 202.324 164.586 202.138C164.829 201.95 165.013 201.688 165.139 201.352C165.265 201.017 165.328 200.626 165.328 200.18C165.328 199.733 165.265 199.346 165.139 199.016C165.016 198.687 164.833 198.431 164.591 198.248C164.351 198.065 164.056 197.974 163.706 197.974C163.343 197.974 163.041 198.068 162.798 198.257C162.556 198.446 162.373 198.706 162.25 199.039C162.127 199.371 162.066 199.751 162.066 200.18C162.066 200.611 162.127 200.996 162.25 201.334C162.376 201.67 162.56 201.935 162.803 202.129C163.048 202.321 163.349 202.417 163.706 202.417ZM172.996 200.728V196.729H174.623V203.63H173.046V202.403H172.974C172.818 202.79 172.562 203.106 172.206 203.351C171.852 203.597 171.416 203.72 170.898 203.72C170.446 203.72 170.046 203.619 169.699 203.419C169.354 203.215 169.085 202.92 168.89 202.534C168.695 202.144 168.598 201.674 168.598 201.123V196.729H170.224V200.871C170.224 201.309 170.344 201.656 170.584 201.914C170.823 202.171 171.138 202.3 171.527 202.3C171.767 202.3 171.999 202.242 172.224 202.125C172.448 202.008 172.632 201.834 172.776 201.604C172.923 201.37 172.996 201.078 172.996 200.728ZM176.295 203.63V196.729H177.921V203.63H176.295ZM177.113 195.75C176.855 195.75 176.633 195.665 176.448 195.494C176.262 195.32 176.169 195.112 176.169 194.869C176.169 194.624 176.262 194.416 176.448 194.245C176.633 194.071 176.855 193.984 177.113 193.984C177.373 193.984 177.595 194.071 177.777 194.245C177.963 194.416 178.056 194.624 178.056 194.869C178.056 195.112 177.963 195.32 177.777 195.494C177.595 195.665 177.373 195.75 177.113 195.75ZM182.154 203.751C181.612 203.751 181.127 203.612 180.699 203.333C180.27 203.055 179.932 202.651 179.683 202.12C179.435 201.59 179.311 200.946 179.311 200.189C179.311 199.422 179.436 198.775 179.688 198.248C179.942 197.718 180.285 197.318 180.717 197.048C181.148 196.776 181.629 196.64 182.159 196.64C182.563 196.64 182.896 196.708 183.156 196.846C183.417 196.981 183.623 197.144 183.776 197.336C183.929 197.525 184.047 197.703 184.131 197.87H184.198V194.429H185.829V203.63H184.23V202.543H184.131C184.047 202.71 183.926 202.889 183.767 203.077C183.608 203.263 183.399 203.422 183.138 203.554C182.878 203.685 182.55 203.751 182.154 203.751ZM182.608 202.417C182.952 202.417 183.246 202.324 183.489 202.138C183.731 201.95 183.915 201.688 184.041 201.352C184.167 201.017 184.23 200.626 184.23 200.18C184.23 199.733 184.167 199.346 184.041 199.016C183.918 198.687 183.736 198.431 183.493 198.248C183.253 198.065 182.958 197.974 182.608 197.974C182.246 197.974 181.943 198.068 181.701 198.257C181.458 198.446 181.275 198.706 181.152 199.039C181.03 199.371 180.968 199.751 180.968 200.18C180.968 200.611 181.03 200.996 181.152 201.334C181.278 201.67 181.462 201.935 181.705 202.129C181.951 202.321 182.252 202.417 182.608 202.417ZM189.548 203.769C189.111 203.769 188.717 203.691 188.366 203.536C188.019 203.377 187.743 203.143 187.54 202.835C187.339 202.526 187.239 202.146 187.239 201.694C187.239 201.304 187.311 200.982 187.454 200.728C187.598 200.473 187.794 200.269 188.043 200.117C188.291 199.964 188.572 199.849 188.883 199.771C189.197 199.69 189.522 199.632 189.858 199.596C190.262 199.554 190.59 199.516 190.842 199.483C191.093 199.447 191.276 199.393 191.39 199.322C191.507 199.247 191.565 199.131 191.565 198.976V198.949C191.565 198.61 191.465 198.348 191.264 198.162C191.063 197.977 190.774 197.884 190.397 197.884C189.999 197.884 189.683 197.971 189.449 198.145C189.218 198.318 189.063 198.523 188.982 198.76L187.463 198.544C187.583 198.125 187.781 197.775 188.056 197.493C188.332 197.209 188.669 196.996 189.067 196.855C189.466 196.711 189.906 196.64 190.388 196.64C190.72 196.64 191.051 196.678 191.381 196.756C191.71 196.834 192.011 196.963 192.284 197.143C192.556 197.319 192.775 197.56 192.94 197.866C193.107 198.171 193.191 198.553 193.191 199.012V203.63H191.628V202.682H191.574C191.475 202.874 191.336 203.053 191.156 203.221C190.98 203.386 190.756 203.519 190.487 203.621C190.22 203.72 189.907 203.769 189.548 203.769ZM189.97 202.574C190.297 202.574 190.58 202.51 190.819 202.381C191.059 202.249 191.243 202.075 191.372 201.86C191.504 201.644 191.57 201.409 191.57 201.155V200.341C191.519 200.383 191.432 200.422 191.309 200.458C191.189 200.494 191.054 200.526 190.905 200.553C190.755 200.579 190.607 200.603 190.46 200.624C190.313 200.645 190.186 200.663 190.078 200.678C189.835 200.711 189.618 200.765 189.427 200.84C189.235 200.915 189.084 201.02 188.973 201.155C188.862 201.286 188.807 201.457 188.807 201.667C188.807 201.966 188.916 202.192 189.135 202.345C189.353 202.498 189.632 202.574 189.97 202.574ZM198.272 196.729V197.987H194.305V196.729H198.272ZM195.285 195.076H196.911V201.554C196.911 201.773 196.944 201.941 197.01 202.057C197.079 202.171 197.169 202.249 197.28 202.291C197.39 202.333 197.513 202.354 197.648 202.354C197.75 202.354 197.843 202.347 197.926 202.332C198.013 202.317 198.079 202.303 198.124 202.291L198.398 203.562C198.311 203.592 198.187 203.625 198.025 203.661C197.867 203.697 197.672 203.718 197.441 203.724C197.034 203.736 196.667 203.675 196.341 203.54C196.014 203.402 195.755 203.19 195.563 202.902C195.375 202.615 195.282 202.255 195.285 201.824V195.076ZM199.632 203.63V196.729H201.259V203.63H199.632ZM200.45 195.75C200.193 195.75 199.971 195.665 199.785 195.494C199.6 195.32 199.507 195.112 199.507 194.869C199.507 194.624 199.6 194.416 199.785 194.245C199.971 194.071 200.193 193.984 200.45 193.984C200.711 193.984 200.932 194.071 201.115 194.245C201.301 194.416 201.394 194.624 201.394 194.869C201.394 195.112 201.301 195.32 201.115 195.494C200.932 195.665 200.711 195.75 200.45 195.75ZM205.941 203.765C205.267 203.765 204.683 203.616 204.189 203.32C203.695 203.023 203.311 202.609 203.039 202.075C202.769 201.542 202.635 200.919 202.635 200.207C202.635 199.494 202.769 198.869 203.039 198.333C203.311 197.797 203.695 197.381 204.189 197.084C204.683 196.788 205.267 196.64 205.941 196.64C206.615 196.64 207.199 196.788 207.693 197.084C208.187 197.381 208.569 197.797 208.839 198.333C209.111 198.869 209.248 199.494 209.248 200.207C209.248 200.919 209.111 201.542 208.839 202.075C208.569 202.609 208.187 203.023 207.693 203.32C207.199 203.616 206.615 203.765 205.941 203.765ZM205.95 202.462C206.315 202.462 206.621 202.361 206.867 202.161C207.112 201.957 207.295 201.685 207.415 201.343C207.537 201.002 207.599 200.621 207.599 200.202C207.599 199.78 207.537 199.398 207.415 199.056C207.295 198.712 207.112 198.438 206.867 198.234C206.621 198.031 206.315 197.929 205.95 197.929C205.576 197.929 205.264 198.031 205.016 198.234C204.77 198.438 204.586 198.712 204.463 199.056C204.343 199.398 204.283 199.78 204.283 200.202C204.283 200.621 204.343 201.002 204.463 201.343C204.586 201.685 204.77 201.957 205.016 202.161C205.264 202.361 205.576 202.462 205.95 202.462ZM212.254 199.587V203.63H210.628V196.729H212.182V197.902H212.263C212.422 197.516 212.675 197.209 213.022 196.981C213.373 196.753 213.806 196.64 214.321 196.64C214.797 196.64 215.212 196.741 215.565 196.945C215.922 197.149 216.197 197.444 216.392 197.83C216.59 198.216 216.687 198.685 216.684 199.236V203.63H215.058V199.488C215.058 199.027 214.938 198.666 214.698 198.405C214.462 198.145 214.134 198.014 213.714 198.014C213.43 198.014 213.177 198.077 212.955 198.203C212.736 198.326 212.564 198.504 212.438 198.738C212.316 198.971 212.254 199.254 212.254 199.587ZM221.475 206.218V196.729H223.074V197.87H223.169C223.253 197.703 223.371 197.525 223.524 197.336C223.676 197.144 223.883 196.981 224.144 196.846C224.404 196.708 224.737 196.64 225.141 196.64C225.674 196.64 226.155 196.776 226.583 197.048C227.014 197.318 227.356 197.718 227.607 198.248C227.862 198.775 227.989 199.422 227.989 200.189C227.989 200.946 227.865 201.59 227.616 202.12C227.368 202.651 227.029 203.055 226.601 203.333C226.173 203.612 225.688 203.751 225.146 203.751C224.75 203.751 224.422 203.685 224.162 203.554C223.901 203.422 223.691 203.263 223.533 203.077C223.377 202.889 223.256 202.71 223.169 202.543H223.101V206.218H221.475ZM223.07 200.18C223.07 200.626 223.133 201.017 223.259 201.352C223.387 201.688 223.572 201.95 223.811 202.138C224.054 202.324 224.347 202.417 224.692 202.417C225.051 202.417 225.352 202.321 225.595 202.129C225.837 201.935 226.02 201.67 226.143 201.334C226.269 200.996 226.332 200.611 226.332 200.18C226.332 199.751 226.27 199.371 226.147 199.039C226.025 198.706 225.842 198.446 225.599 198.257C225.357 198.068 225.054 197.974 224.692 197.974C224.344 197.974 224.049 198.065 223.807 198.248C223.564 198.431 223.38 198.687 223.254 199.016C223.131 199.346 223.07 199.733 223.07 200.18ZM229.382 203.63V196.729H230.959V197.879H231.031C231.157 197.481 231.372 197.174 231.678 196.958C231.986 196.74 232.338 196.631 232.733 196.631C232.823 196.631 232.924 196.635 233.034 196.644C233.148 196.65 233.243 196.66 233.317 196.675V198.171C233.249 198.148 233.139 198.127 232.989 198.109C232.843 198.088 232.7 198.077 232.563 198.077C232.266 198.077 232 198.142 231.763 198.27C231.529 198.396 231.345 198.571 231.21 198.796C231.076 199.021 231.008 199.28 231.008 199.573V203.63H229.382ZM234.398 203.63V196.729H236.024V203.63H234.398ZM235.216 195.75C234.958 195.75 234.736 195.665 234.551 195.494C234.365 195.32 234.272 195.112 234.272 194.869C234.272 194.624 234.365 194.416 234.551 194.245C234.736 194.071 234.958 193.984 235.216 193.984C235.476 193.984 235.698 194.071 235.88 194.245C236.066 194.416 236.159 194.624 236.159 194.869C236.159 195.112 236.066 195.32 235.88 195.494C235.698 195.665 235.476 195.75 235.216 195.75ZM240.707 203.765C240.018 203.765 239.426 203.613 238.932 203.311C238.441 203.008 238.062 202.591 237.795 202.057C237.532 201.521 237.4 200.904 237.4 200.207C237.4 199.506 237.535 198.887 237.804 198.351C238.074 197.812 238.454 197.393 238.945 197.093C239.44 196.791 240.024 196.64 240.698 196.64C241.258 196.64 241.753 196.743 242.185 196.949C242.619 197.153 242.965 197.442 243.222 197.817C243.48 198.188 243.627 198.622 243.663 199.119H242.108C242.045 198.787 241.896 198.51 241.659 198.288C241.425 198.064 241.112 197.951 240.72 197.951C240.388 197.951 240.096 198.041 239.844 198.221C239.592 198.398 239.396 198.652 239.255 198.985C239.118 199.317 239.049 199.715 239.049 200.18C239.049 200.65 239.118 201.054 239.255 201.393C239.393 201.728 239.586 201.987 239.835 202.17C240.087 202.35 240.382 202.439 240.72 202.439C240.96 202.439 241.174 202.394 241.362 202.305C241.554 202.212 241.714 202.078 241.843 201.905C241.972 201.731 242.06 201.52 242.108 201.271H243.663C243.624 201.759 243.48 202.192 243.231 202.57C242.983 202.944 242.644 203.238 242.216 203.45C241.788 203.66 241.285 203.765 240.707 203.765ZM248.053 203.765C247.361 203.765 246.764 203.621 246.26 203.333C245.76 203.043 245.375 202.633 245.106 202.102C244.836 201.569 244.701 200.942 244.701 200.22C244.701 199.51 244.836 198.887 245.106 198.351C245.378 197.812 245.759 197.393 246.247 197.093C246.735 196.791 247.309 196.64 247.968 196.64C248.393 196.64 248.794 196.708 249.172 196.846C249.552 196.981 249.887 197.191 250.178 197.475C250.471 197.76 250.702 198.122 250.87 198.562C251.037 199 251.121 199.521 251.121 200.126V200.624H245.465V199.528H249.562C249.559 199.217 249.492 198.94 249.36 198.697C249.228 198.452 249.044 198.258 248.808 198.118C248.574 197.977 248.301 197.906 247.99 197.906C247.658 197.906 247.366 197.987 247.114 198.149C246.862 198.308 246.666 198.517 246.525 198.778C246.388 199.036 246.317 199.319 246.314 199.627V200.584C246.314 200.985 246.388 201.33 246.534 201.617C246.681 201.902 246.886 202.12 247.15 202.273C247.413 202.423 247.722 202.498 248.075 202.498C248.312 202.498 248.526 202.465 248.718 202.399C248.909 202.33 249.076 202.23 249.216 202.098C249.357 201.966 249.464 201.803 249.535 201.608L251.054 201.779C250.958 202.18 250.775 202.531 250.506 202.83C250.239 203.127 249.898 203.357 249.482 203.522C249.065 203.684 248.589 203.765 248.053 203.765Z" fill="#2D2D2D"/>
<path d="M261.738 194.443C259.151 194.443 257.052 196.542 257.052 199.129C257.052 201.715 259.151 203.814 261.738 203.814C264.324 203.814 266.423 201.715 266.423 199.129C266.423 196.542 264.324 194.443 261.738 194.443ZM262.206 202.409H261.269V201.472H262.206V202.409ZM263.176 198.777L262.755 199.209C262.417 199.551 262.206 199.832 262.206 200.535H261.269V200.3C261.269 199.785 261.48 199.316 261.817 198.974L262.398 198.384C262.572 198.215 262.675 197.981 262.675 197.723C262.675 197.208 262.253 196.786 261.738 196.786C261.222 196.786 260.801 197.208 260.801 197.723H259.864C259.864 196.688 260.702 195.849 261.738 195.849C262.773 195.849 263.612 196.688 263.612 197.723C263.612 198.136 263.443 198.51 263.176 198.777Z" fill="#C5C5C5"/>
<path d="M89.332 212.198H426.69C431.154 212.198 434.773 215.817 434.773 220.28V259.639C434.773 264.103 431.154 267.722 426.69 267.722H89.332C84.8683 267.721 81.25 264.102 81.25 259.639V220.28C81.2502 215.817 84.8685 212.198 89.332 212.198Z" stroke="#B7B7B7" stroke-width="0.70283"/>
<path d="M86.521 232.932C86.521 228.274 90.297 224.498 94.955 224.498H249.578C254.236 224.498 258.012 228.274 258.012 232.932V246.989C258.012 251.647 254.236 255.423 249.578 255.423H94.955C90.297 255.423 86.521 251.647 86.521 246.989V232.932Z" fill="white"/>
<g clip-path="url(#clip3_6843_16875)">
<path d="M96.2168 245.738V232.959H97.0354V245.738H96.2168ZM98.9722 236.793C98.9123 236.287 98.6694 235.894 98.2434 235.615C97.8174 235.335 97.295 235.195 96.676 235.195C96.2234 235.195 95.8274 235.269 95.488 235.415C95.1519 235.561 94.889 235.763 94.6993 236.019C94.5129 236.275 94.4198 236.566 94.4198 236.893C94.4198 237.165 94.4847 237.4 94.6144 237.596C94.7476 237.789 94.9173 237.951 95.1236 238.081C95.3299 238.207 95.5462 238.312 95.7725 238.395C95.9988 238.475 96.2068 238.54 96.3965 238.59L97.4347 238.869C97.701 238.939 97.9971 239.036 98.3233 239.159C98.6527 239.282 98.9672 239.45 99.2667 239.663C99.5695 239.873 99.8191 240.142 100.015 240.472C100.212 240.801 100.31 241.205 100.31 241.685C100.31 242.237 100.165 242.736 99.8757 243.182C99.5895 243.628 99.1702 243.982 98.6178 244.245C98.0687 244.508 97.4015 244.64 96.6161 244.64C95.884 244.64 95.2501 244.522 94.7143 244.285C94.1818 244.049 93.7625 243.72 93.4564 243.297C93.1535 242.874 92.9822 242.383 92.9422 241.824H94.2201C94.2534 242.21 94.3832 242.53 94.6095 242.783C94.8391 243.032 95.1286 243.219 95.478 243.342C95.8308 243.462 96.2101 243.522 96.6161 243.522C97.0887 243.522 97.513 243.445 97.889 243.292C98.265 243.135 98.5629 242.919 98.7825 242.643C99.0021 242.363 99.112 242.037 99.112 241.665C99.112 241.325 99.0171 241.049 98.8274 240.836C98.6377 240.623 98.3882 240.45 98.0787 240.317C97.7692 240.184 97.4347 240.067 97.0753 239.967L95.8174 239.608C95.0188 239.378 94.3865 239.051 93.9206 238.625C93.4547 238.199 93.2218 237.641 93.2218 236.952C93.2218 236.38 93.3765 235.881 93.686 235.455C93.9988 235.026 94.4181 234.693 94.9439 234.457C95.473 234.217 96.0637 234.097 96.7159 234.097C97.3748 234.097 97.9605 234.215 98.473 234.452C98.9855 234.685 99.3915 235.004 99.691 235.41C99.9938 235.816 100.154 236.277 100.17 236.793H98.9722Z" fill="#C5C5C5"/>
<path d="M105.416 245.46L110.324 235.752V235.67H104.647V234.215H112.082V235.719L107.189 245.46H105.416ZM117.664 245.647C116.797 245.643 116.056 245.414 115.441 244.96C114.826 244.506 114.355 243.846 114.029 242.978C113.704 242.111 113.541 241.065 113.541 239.843C113.541 238.624 113.704 237.582 114.029 236.719C114.359 235.855 114.831 235.196 115.446 234.742C116.065 234.288 116.804 234.061 117.664 234.061C118.525 234.061 119.262 234.29 119.877 234.747C120.492 235.201 120.963 235.86 121.288 236.724C121.618 237.584 121.783 238.624 121.783 239.843C121.783 241.069 121.62 242.116 121.294 242.984C120.968 243.847 120.498 244.508 119.883 244.966C119.268 245.42 118.528 245.647 117.664 245.647ZM117.664 244.181C118.426 244.181 119.021 243.809 119.449 243.066C119.881 242.323 120.097 241.248 120.097 239.843C120.097 238.909 119.998 238.121 119.8 237.476C119.606 236.828 119.326 236.338 118.96 236.005C118.598 235.668 118.166 235.5 117.664 235.5C116.907 235.5 116.312 235.873 115.88 236.62C115.448 237.366 115.23 238.441 115.226 239.843C115.226 240.78 115.323 241.572 115.517 242.22C115.715 242.865 115.995 243.353 116.358 243.686C116.72 244.016 117.156 244.181 117.664 244.181ZM125.481 243.923L125.398 244.521C125.343 244.96 125.25 245.418 125.118 245.894C124.99 246.373 124.857 246.818 124.717 247.228C124.582 247.638 124.47 247.964 124.382 248.205H123.218C123.266 247.978 123.332 247.671 123.416 247.283C123.5 246.899 123.583 246.468 123.663 245.993C123.744 245.517 123.804 245.032 123.844 244.537L123.899 243.923H125.481ZM131.284 245.647C130.417 245.643 129.676 245.414 129.061 244.96C128.446 244.506 127.975 243.846 127.65 242.978C127.324 242.111 127.161 241.065 127.161 239.843C127.161 238.624 127.324 237.582 127.65 236.719C127.979 235.855 128.451 235.196 129.066 234.742C129.685 234.288 130.424 234.061 131.284 234.061C132.145 234.061 132.882 234.29 133.497 234.747C134.112 235.201 134.583 235.86 134.908 236.724C135.238 237.584 135.403 238.624 135.403 239.843C135.403 241.069 135.24 242.116 134.914 242.984C134.588 243.847 134.118 244.508 133.503 244.966C132.888 245.42 132.148 245.647 131.284 245.647ZM131.284 244.181C132.046 244.181 132.641 243.809 133.069 243.066C133.501 242.323 133.717 241.248 133.717 239.843C133.717 238.909 133.618 238.121 133.42 237.476C133.226 236.828 132.946 236.338 132.58 236.005C132.218 235.668 131.786 235.5 131.284 235.5C130.527 235.5 129.932 235.873 129.5 236.62C129.068 237.366 128.85 238.441 128.847 239.843C128.847 240.78 128.944 241.572 129.138 242.22C129.335 242.865 129.615 243.353 129.978 243.686C130.34 244.016 130.776 244.181 131.284 244.181ZM141.265 245.647C140.398 245.643 139.657 245.414 139.042 244.96C138.427 244.506 137.956 243.846 137.631 242.978C137.305 242.111 137.142 241.065 137.142 239.843C137.142 238.624 137.305 237.582 137.631 236.719C137.96 235.855 138.432 235.196 139.047 234.742C139.666 234.288 140.405 234.061 141.265 234.061C142.126 234.061 142.863 234.29 143.478 234.747C144.093 235.201 144.564 235.86 144.889 236.724C145.219 237.584 145.384 238.624 145.384 239.843C145.384 241.069 145.221 242.116 144.895 242.984C144.569 243.847 144.099 244.508 143.484 244.966C142.869 245.42 142.129 245.647 141.265 245.647ZM141.265 244.181C142.027 244.181 142.622 243.809 143.05 243.066C143.482 242.323 143.698 241.248 143.698 239.843C143.698 238.909 143.599 238.121 143.401 237.476C143.207 236.828 142.927 236.338 142.561 236.005C142.199 235.668 141.767 235.5 141.265 235.5C140.508 235.5 139.913 235.873 139.481 236.62C139.049 237.366 138.831 238.441 138.828 239.843C138.828 240.78 138.925 241.572 139.119 242.22C139.316 242.865 139.596 243.353 139.959 243.686C140.321 244.016 140.757 244.181 141.265 244.181ZM151.247 245.647C150.379 245.643 149.638 245.414 149.023 244.96C148.408 244.506 147.937 243.846 147.612 242.978C147.286 242.111 147.123 241.065 147.123 239.843C147.123 238.624 147.286 237.582 147.612 236.719C147.941 235.855 148.413 235.196 149.028 234.742C149.647 234.288 150.386 234.061 151.247 234.061C152.107 234.061 152.844 234.29 153.459 234.747C154.074 235.201 154.545 235.86 154.87 236.724C155.2 237.584 155.365 238.624 155.365 239.843C155.365 241.069 155.202 242.116 154.876 242.984C154.55 243.847 154.08 244.508 153.465 244.966C152.85 245.42 152.11 245.647 151.247 245.647ZM151.247 244.181C152.008 244.181 152.603 243.809 153.031 243.066C153.463 242.323 153.679 241.248 153.679 239.843C153.679 238.909 153.58 238.121 153.382 237.476C153.188 236.828 152.908 236.338 152.542 236.005C152.18 235.668 151.748 235.5 151.247 235.5C150.489 235.5 149.894 235.873 149.462 236.62C149.03 237.366 148.812 238.441 148.809 239.843C148.809 240.78 148.906 241.572 149.1 242.22C149.297 242.865 149.577 243.353 149.94 243.686C150.302 244.016 150.738 244.181 151.247 244.181ZM158.009 245.564C157.708 245.564 157.45 245.458 157.234 245.246C157.018 245.03 156.91 244.77 156.91 244.466C156.91 244.166 157.018 243.91 157.234 243.697C157.45 243.481 157.708 243.373 158.009 243.373C158.309 243.373 158.567 243.481 158.783 243.697C158.999 243.91 159.107 244.166 159.107 244.466C159.107 244.667 159.055 244.852 158.953 245.021C158.854 245.185 158.722 245.317 158.558 245.416C158.393 245.515 158.21 245.564 158.009 245.564ZM164.791 245.647C163.924 245.643 163.182 245.414 162.567 244.96C161.952 244.506 161.482 243.846 161.156 242.978C160.83 242.111 160.667 241.065 160.667 239.843C160.667 238.624 160.83 237.582 161.156 236.719C161.486 235.855 161.958 235.196 162.573 234.742C163.191 234.288 163.931 234.061 164.791 234.061C165.651 234.061 166.389 234.29 167.004 234.747C167.619 235.201 168.089 235.86 168.415 236.724C168.745 237.584 168.909 238.624 168.909 239.843C168.909 241.069 168.746 242.116 168.421 242.984C168.095 243.847 167.624 244.508 167.009 244.966C166.394 245.42 165.655 245.647 164.791 245.647ZM164.791 244.181C165.552 244.181 166.147 243.809 166.576 243.066C167.008 242.323 167.224 241.248 167.224 239.843C167.224 238.909 167.125 238.121 166.927 237.476C166.733 236.828 166.453 236.338 166.087 236.005C165.725 235.668 165.293 235.5 164.791 235.5C164.033 235.5 163.439 235.873 163.007 236.62C162.575 237.366 162.357 238.441 162.353 239.843C162.353 240.78 162.45 241.572 162.644 242.22C162.842 242.865 163.122 243.353 163.484 243.686C163.847 244.016 164.282 244.181 164.791 244.181ZM174.772 245.647C173.905 245.643 173.163 245.414 172.548 244.96C171.933 244.506 171.463 243.846 171.137 242.978C170.811 242.111 170.648 241.065 170.648 239.843C170.648 238.624 170.811 237.582 171.137 236.719C171.467 235.855 171.939 235.196 172.554 234.742C173.172 234.288 173.912 234.061 174.772 234.061C175.632 234.061 176.37 234.29 176.985 234.747C177.6 235.201 178.07 235.86 178.396 236.724C178.726 237.584 178.89 238.624 178.89 239.843C178.89 241.069 178.727 242.116 178.402 242.984C178.076 243.847 177.605 244.508 176.99 244.966C176.375 245.42 175.636 245.647 174.772 245.647ZM174.772 244.181C175.534 244.181 176.128 243.809 176.557 243.066C176.989 242.323 177.205 241.248 177.205 239.843C177.205 238.909 177.106 238.121 176.908 237.476C176.714 236.828 176.434 236.338 176.068 236.005C175.706 235.668 175.274 235.5 174.772 235.5C174.014 235.5 173.42 235.873 172.988 236.62C172.556 237.366 172.338 238.441 172.334 239.843C172.334 240.78 172.431 241.572 172.625 242.22C172.823 242.865 173.103 243.353 173.465 243.686C173.828 244.016 174.263 244.181 174.772 244.181Z" fill="#2D2D2D"/>
</g>
<path d="M258.012 223.092C258.012 219.987 260.529 217.47 263.634 217.47H423.88C426.985 217.47 429.502 219.987 429.502 223.092V256.828C429.502 259.933 426.985 262.451 423.88 262.451H263.634C260.529 262.451 258.012 259.933 258.012 256.828V223.092Z" fill="#F6F6F6"/>
<path d="M267.022 229.456H268.372L269.7 232.942L271.042 229.456H272.378V234.432H271.534V230.299H271.52L270.009 234.432H269.391L267.88 230.299H267.866V234.432H267.022V229.456ZM273.487 229.456H274.372V234.432H273.487V229.456ZM275.464 229.456H276.638L279.048 233.152H279.062V229.456H279.948V234.432H278.823L276.363 230.615H276.349V234.432H275.464V229.456Z" fill="#6D6D6D"/>
<path d="M405.254 229.456H406.604L407.932 232.942L409.275 229.456H410.61V234.432H409.767V230.299H409.753L408.241 234.432H407.623L406.112 230.299H406.098V234.432H405.254V229.456ZM413.35 229.456H414.116L416.259 234.432H415.247L414.783 233.293H412.626L412.176 234.432H411.185L413.35 229.456ZM414.474 232.534L413.708 230.51L412.928 232.534H414.474ZM418.028 231.831L416.369 229.456H417.487L418.661 231.297L419.82 229.456H420.896L419.265 231.831L421.071 234.432H419.947L418.633 232.33L417.325 234.432H416.257L418.028 231.831Z" fill="#6D6D6D"/>
<g clip-path="url(#clip4_6843_16875)">
<rect x="266.446" y="243.46" width="154.623" height="2.81132" fill="#FFA33B"/>
</g>
<g filter="url(#filter1_dd_6843_16875)">
<circle cx="415.823" cy="245.244" r="5.62264" fill="white"/>
<circle cx="415.823" cy="245.244" r="5.27123" stroke="#6D6D6D" stroke-width="0.70283"/>
</g>
</g>
</g>
</g>
<path d="M26.667 0.5H489.333C503.784 0.5 515.5 12.2155 515.5 26.667V263.333C515.5 277.784 503.784 289.5 489.333 289.5H26.667C12.2155 289.5 0.5 277.784 0.5 263.333V26.667C0.5 12.4414 11.8519 0.867056 25.9912 0.508789L26.667 0.5Z" stroke="#ECECEC"/>
<defs>
<filter id="filter0_dd_6843_16875" x="58.408" y="17.4696" width="399.207" height="573.811" filterUnits="userSpaceOnUse" color-interpolation-filters="sRGB">
<feFlood flood-opacity="0" result="BackgroundImageFix"/>
<feColorMatrix in="SourceAlpha" type="matrix" values="0 0 0 0 0 0 0 0 0 0 0 0 0 0 0 0 0 0 127 0" result="hardAlpha"/>
<feOffset/>
<feGaussianBlur stdDeviation="5.62264"/>
<feColorMatrix type="matrix" values="0 0 0 0 0 0 0 0 0 0 0 0 0 0 0 0 0 0 0.08 0"/>
<feBlend mode="normal" in2="BackgroundImageFix" result="effect1_dropShadow_6843_16875"/>
<feColorMatrix in="SourceAlpha" type="matrix" values="0 0 0 0 0 0 0 0 0 0 0 0 0 0 0 0 0 0 127 0" result="hardAlpha"/>
<feOffset dy="0.70283"/>
<feGaussianBlur stdDeviation="1.40566"/>
<feComposite in2="hardAlpha" operator="out"/>
<feColorMatrix type="matrix" values="0 0 0 0 0 0 0 0 0 0 0 0 0 0 0 0 0 0 0.03 0"/>
<feBlend mode="normal" in2="effect1_dropShadow_6843_16875" result="effect2_dropShadow_6843_16875"/>
<feBlend mode="normal" in="SourceGraphic" in2="effect2_dropShadow_6843_16875" result="shape"/>
</filter>
<filter id="filter1_dd_6843_16875" x="407.201" y="237.621" width="17.2451" height="17.2451" filterUnits="userSpaceOnUse" color-interpolation-filters="sRGB">
<feFlood flood-opacity="0" result="BackgroundImageFix"/>
<feColorMatrix in="SourceAlpha" type="matrix" values="0 0 0 0 0 0 0 0 0 0 0 0 0 0 0 0 0 0 127 0" result="hardAlpha"/>
<feOffset dy="1"/>
<feGaussianBlur stdDeviation="1"/>
<feColorMatrix type="matrix" values="0 0 0 0 0 0 0 0 0 0 0 0 0 0 0 0 0 0 0.06 0"/>
<feBlend mode="normal" in2="BackgroundImageFix" result="effect1_dropShadow_6843_16875"/>
<feColorMatrix in="SourceAlpha" type="matrix" values="0 0 0 0 0 0 0 0 0 0 0 0 0 0 0 0 0 0 127 0" result="hardAlpha"/>
<feOffset dy="1"/>
<feGaussianBlur stdDeviation="1.5"/>
<feColorMatrix type="matrix" values="0 0 0 0 0 0 0 0 0 0 0 0 0 0 0 0 0 0 0.1 0"/>
<feBlend mode="normal" in2="effect1_dropShadow_6843_16875" result="effect2_dropShadow_6843_16875"/>
<feBlend mode="normal" in="SourceGraphic" in2="effect2_dropShadow_6843_16875" result="shape"/>
</filter>
<clipPath id="clip0_6843_16875">
<path d="M0 26.6667C0 11.9391 11.9391 0 26.6667 0H489.333C504.061 0 516 11.9391 516 26.6667V263.333C516 278.061 504.061 290 489.333 290H26.6666C11.9391 290 0 278.061 0 263.333V26.6667Z" fill="white"/>
</clipPath>
<clipPath id="clip1_6843_16875">
<rect width="516" height="290" fill="white"/>
</clipPath>
<clipPath id="clip2_6843_16875">
<rect width="16.8679" height="16.8679" fill="white" transform="translate(369.761 113.319)"/>
</clipPath>
<clipPath id="clip3_6843_16875">
<rect width="160.245" height="19" fill="white" transform="translate(92.1436 230.46)"/>
</clipPath>
<clipPath id="clip4_6843_16875">
<rect x="266.446" y="243.46" width="154.623" height="2.81132" rx="1.40566" fill="white"/>
</clipPath>
</defs>
</svg>
