<svg width="200" height="240" viewBox="0 0 200 240" fill="none" xmlns="http://www.w3.org/2000/svg">
<mask id="mask0_6312_14018" style="mask-type:alpha" maskUnits="userSpaceOnUse" x="0" y="0" width="200" height="240">
<path d="M190.736 185.276L200 0H0L9.26382 185.276C10.2261 204.522 10.7073 214.145 14.7598 221.455C18.3269 227.889 23.7796 233.076 30.3839 236.318C37.887 240 47.522 240 66.792 240H133.208C152.478 240 162.113 240 169.616 236.318C176.22 233.076 181.673 227.889 185.24 221.455C189.293 214.145 189.774 204.522 190.736 185.277V185.276Z" fill="#2E696D"/>
</mask>
<g mask="url(#mask0_6312_14018)">
<g filter="url(#filter0_i_6312_14018)">
<path d="M-2 138.582V240C19.9205 240 114.825 240 202 240V136.974C133.626 107.477 66.0009 165.773 -2 138.582Z" fill="url(#paint0_linear_6312_14018)"/>
</g>
<path d="M-2 49.826C66.0008 77.135 133.626 18.5852 202 48.211V137.31C133.626 107.684 66.0008 166.234 -2 138.925V49.826Z" fill="url(#paint1_linear_6312_14018)"/>
<path d="M202 48.28C133.626 18.7728 66.0008 77.0882 -2 49.8886V0H202V48.28Z" fill="url(#paint2_linear_6312_14018)"/>
<path d="M202 48.28C133.626 18.7728 66.0008 77.0882 -2 49.8886V0H202V48.28Z" fill="url(#paint3_linear_6312_14018)" style="mix-blend-mode:color"/>
<g filter="url(#filter1_iii_6312_14018)">
<path d="M190.736 185.276L200 0H0L9.26382 185.276C10.2261 204.522 10.7073 214.145 14.7598 221.455C18.3269 227.889 23.7796 233.076 30.3839 236.318C37.887 240 47.522 240 66.792 240H133.208C152.478 240 162.113 240 169.616 236.318C176.22 233.076 181.673 227.889 185.24 221.455C189.293 214.145 189.774 204.522 190.736 185.277V185.276Z" fill="#2E696D" fill-opacity="0.01"/>
</g>
<path d="M34.4004 0L42.0996 184.798C42.9079 204.197 43.3122 213.897 47.3447 221.271C50.8939 227.762 56.3565 233.002 62.9893 236.278C70.5256 240 80.2344 240 99.6504 240H66.792C47.522 240 37.8869 240 30.3838 236.317C23.7796 233.076 18.3268 227.889 14.7598 221.455C10.7073 214.145 10.226 204.522 9.26367 185.276L0 0H34.4004Z" fill="url(#paint4_linear_6312_14018)"/>
<g filter="url(#filter2_f_6312_14018)">
<path d="M0 0C0.177057 10.4831 0.371424 20.9654 0.583105 31.4468C1.62055 82.8161 3.07382 134.165 4.94291 185.492C5.85444 197.776 4.14885 210.161 10.6013 223.761C14.5354 231.032 20.7676 237.059 28.2067 240.754C42.1439 246.757 54.4872 244.633 66.792 245.142C77.8613 245.181 88.9307 245.2 100 245.2C111.069 245.2 122.139 245.181 133.208 245.142C145.513 244.633 157.856 246.757 171.793 240.754C179.232 237.059 185.465 231.032 189.399 223.761C195.851 210.161 194.146 197.776 195.057 185.492C196.926 134.165 198.379 82.8161 199.417 31.4468C199.629 20.9654 199.823 10.4831 200 0C199.13 10.4485 198.278 20.8979 197.443 31.3481C193.352 82.5647 189.675 133.802 186.415 185.06C185.402 197.095 185.789 210.418 181.082 219.15C177.956 224.664 173.123 229.164 167.439 231.881C158.515 235.908 145.287 234.659 133.208 234.858C122.139 234.819 111.069 234.8 100 234.8C88.9307 234.8 77.8613 234.819 66.792 234.858C54.7129 234.659 41.4848 235.908 32.5611 231.881C26.877 229.164 22.0445 224.664 18.9183 219.15C14.2111 210.418 14.5978 197.095 13.5847 185.06C10.3245 133.802 6.64849 82.5647 2.55664 31.3481C1.72174 20.8979 0.869525 10.4485 0 0Z" fill="#2E696D"/>
</g>
<g filter="url(#filter3_f_6312_14018)">
<path d="M0 0L9.26382 185.276C10.2261 204.522 10.7073 214.145 14.7598 221.455C18.3269 227.889 23.7796 233.076 30.3839 236.318C37.887 240 47.522 240 66.792 240H133.208C152.478 240 162.113 240 169.616 236.318C176.22 233.076 181.673 227.889 185.24 221.455C189.293 214.145 189.774 204.522 190.736 185.276L200 0" stroke="#2E696D" stroke-opacity="0.7" stroke-width="5.6"/>
</g>
<g filter="url(#filter4_i_6312_14018)">
<path d="M190.736 185.276L200 0H0L9.26382 185.276C10.2261 204.522 10.7073 214.145 14.7598 221.455C18.3269 227.889 23.7796 233.076 30.3839 236.318C37.887 240 47.522 240 66.792 240H133.208C152.478 240 162.113 240 169.616 236.318C176.22 233.076 181.673 227.889 185.24 221.455C189.293 214.145 189.774 204.522 190.736 185.277V185.276Z" fill="#2E696D" fill-opacity="0.01"/>
</g>
</g>
<path d="M91.3699 190.128C89.9011 190.128 88.5399 189.864 87.2865 189.335C86.0527 188.787 84.9854 188.032 84.0843 187.073C83.203 186.094 82.5079 184.948 81.9986 183.636C81.5091 182.304 81.264 180.845 81.264 179.258C81.264 177.672 81.4993 176.272 81.9692 174.94C82.4391 173.589 83.1049 172.423 83.9669 171.444C84.8482 170.445 85.9057 169.672 87.1395 169.123C88.3929 168.555 89.7933 168.271 91.3405 168.271C92.6331 168.271 93.7887 168.457 94.8071 168.829C95.8254 169.182 96.6969 169.681 97.4217 170.328C98.1657 170.954 98.7532 171.699 99.1841 172.56C99.6149 173.422 99.8894 174.352 100.007 175.351H95.7765C95.5806 174.294 95.1005 173.451 94.3366 172.825C93.573 172.178 92.5742 171.855 91.3403 171.855C90.3609 171.855 89.509 172.051 88.7843 172.443C88.0794 172.815 87.4917 173.334 87.0219 174C86.5516 174.666 86.1993 175.449 85.9641 176.35C85.729 177.251 85.6118 178.22 85.6118 179.258C85.6118 180.296 85.739 181.325 85.9937 182.225C86.2677 183.126 86.6498 183.91 87.1392 184.576C87.6486 185.222 88.2558 185.731 88.9607 186.103C89.6854 186.456 90.4885 186.632 91.3697 186.632C92.623 186.632 93.6512 186.299 94.4543 185.633C95.2768 184.948 95.7566 184.047 95.8937 182.93H100.065C100.006 183.871 99.7814 184.772 99.3896 185.633C98.9979 186.475 98.4497 187.229 97.7445 187.895C97.02 188.581 96.1385 189.129 95.1005 189.54C94.0822 189.932 92.8387 190.128 91.3699 190.128ZM101.493 174.617H105.488V189.687H101.493V174.617ZM101.493 168.682H105.488V172.266H101.493V168.682ZM106.741 174.617H108.827V169.916H112.734V174.617H115.319V177.261H112.734V185.251C112.734 185.819 112.871 186.211 113.145 186.426C113.419 186.642 113.781 186.75 114.232 186.75H114.996C115.133 186.75 115.27 186.74 115.407 186.72V189.658C115.212 189.677 114.996 189.687 114.761 189.687C114.545 189.707 114.281 189.717 113.968 189.717H112.91C112.421 189.717 111.931 189.668 111.441 189.57C110.971 189.452 110.54 189.256 110.149 188.982C109.757 188.708 109.434 188.336 109.179 187.866C108.944 187.396 108.826 186.808 108.826 186.103V177.261H106.741L106.741 174.617ZM120.784 177.026H120.872C121.323 176.164 121.832 175.518 122.4 175.087C122.968 174.656 123.693 174.44 124.574 174.44C124.985 174.44 125.299 174.48 125.514 174.558V178.054H125.426C124.114 177.917 123.036 178.201 122.194 178.906C121.352 179.611 120.931 180.757 120.931 182.343V189.687H116.936V174.617H120.784V177.026ZM133.444 190.128C132.191 190.128 131.074 189.922 130.095 189.511C129.135 189.1 128.323 188.542 127.656 187.837C126.991 187.112 126.482 186.26 126.129 185.281C125.796 184.302 125.63 183.254 125.63 182.137C125.63 181.021 125.806 179.983 126.158 179.023C126.531 178.044 127.04 177.202 127.686 176.497C128.352 175.792 129.135 175.234 130.036 174.822C130.957 174.411 131.966 174.205 133.062 174.205C134.277 174.205 135.344 174.431 136.264 174.881C137.185 175.312 137.958 175.929 138.585 176.732C139.212 177.535 139.682 178.495 139.995 179.611C140.328 180.708 140.495 181.932 140.495 183.283H129.566C129.723 184.458 130.115 185.379 130.742 186.044C131.388 186.71 132.279 187.043 133.415 187.043C134.198 187.043 134.825 186.877 135.295 186.544C135.765 186.211 136.108 185.761 136.323 185.193H140.26C140.123 185.858 139.868 186.495 139.496 187.102C139.143 187.69 138.673 188.209 138.086 188.659C137.518 189.11 136.842 189.462 136.059 189.717C135.275 189.991 134.404 190.128 133.444 190.128ZM133.121 177.29C132.063 177.29 131.26 177.584 130.712 178.171C130.164 178.739 129.801 179.523 129.625 180.522H136.323C136.264 179.562 135.941 178.788 135.354 178.201C134.785 177.594 134.042 177.29 133.121 177.29ZM151.392 189.687C151.275 189.531 151.177 189.296 151.098 188.982C151.02 188.669 150.961 188.346 150.922 188.013H150.864C150.668 188.307 150.442 188.581 150.188 188.835C149.953 189.07 149.659 189.276 149.306 189.452C148.974 189.629 148.572 189.766 148.102 189.864C147.632 189.981 147.074 190.04 146.427 190.04C144.88 190.04 143.617 189.648 142.638 188.865C141.659 188.081 141.169 186.936 141.169 185.428C141.169 184.605 141.326 183.91 141.639 183.342C141.952 182.774 142.383 182.304 142.932 181.932C143.48 181.56 144.117 181.276 144.841 181.08C145.585 180.864 146.379 180.698 147.221 180.58C148.474 180.404 149.395 180.218 149.982 180.022C150.57 179.826 150.864 179.445 150.864 178.877C150.864 178.309 150.648 177.897 150.217 177.584C149.806 177.251 149.179 177.085 148.337 177.085C147.397 177.085 146.692 177.261 146.222 177.613C145.752 177.946 145.488 178.475 145.429 179.2H141.874C141.894 178.534 142.041 177.907 142.315 177.32C142.589 176.713 142.99 176.184 143.519 175.733C144.048 175.283 144.714 174.92 145.517 174.646C146.32 174.372 147.27 174.235 148.367 174.235C150.619 174.235 152.235 174.725 153.214 175.704C154.213 176.664 154.712 178.025 154.712 179.787V187.455C154.712 188.591 154.888 189.286 155.241 189.541V189.688H151.393L151.392 189.687ZM147.397 187.249C147.965 187.249 148.464 187.171 148.895 187.014C149.345 186.838 149.717 186.622 150.011 186.368C150.325 186.094 150.56 185.79 150.716 185.457C150.873 185.105 150.951 184.742 150.951 184.37V182.108C150.599 182.323 150.168 182.5 149.659 182.637C149.169 182.754 148.67 182.872 148.161 182.989C147.103 183.224 146.32 183.498 145.81 183.812C145.301 184.125 145.046 184.634 145.046 185.339C145.046 186.045 145.262 186.544 145.693 186.838C146.124 187.112 146.691 187.249 147.397 187.249Z" fill="white" fill-opacity="0.9"/>
<path d="M59.7249 175.743C58.9502 175.743 58.2566 175.343 57.8693 174.672L52.6313 165.6H66.8185L61.5805 174.672C61.1931 175.343 60.4995 175.743 59.7249 175.743Z" fill="white" fill-opacity="0.9"/>
<path d="M64.5734 178.543C63.7987 178.543 63.105 178.142 62.7177 177.471C62.3304 176.801 62.3304 176 62.7177 175.329L67.9556 166.257L75.0492 178.543H64.5734Z" fill="white" fill-opacity="0.9"/>
<path d="M52.6313 192.8L57.8693 183.727C58.2566 183.057 58.9502 182.656 59.7249 182.656C60.4995 182.656 61.1931 183.057 61.5805 183.727L66.8185 192.8H52.6313Z" fill="white" fill-opacity="0.9"/>
<path d="M62.7178 183.071C62.3303 182.4 62.3303 181.599 62.7178 180.928C63.1051 180.257 63.7989 179.857 64.5735 179.857H75.0494L67.9558 192.143L62.7178 183.071Z" fill="white" fill-opacity="0.9"/>
<path d="M44.4004 178.543L51.4941 166.257L56.7319 175.329C57.1194 175.999 57.1194 176.8 56.7319 177.471C56.3446 178.142 55.6509 178.543 54.8762 178.543H44.4004Z" fill="white" fill-opacity="0.9"/>
<path d="M44.4004 179.857H54.8763C55.651 179.857 56.3447 180.257 56.7321 180.928C57.1194 181.599 57.1194 182.4 56.7321 183.071L51.4943 192.142L44.4004 179.857Z" fill="white" fill-opacity="0.9"/>
<g filter="url(#filter5_f_6312_14018)">
<path d="M114.839 101.832C114.083 100.073 112.965 98.4784 111.485 97.0318C110.006 95.6017 108.395 94.2538 106.62 92.988C104.844 91.7223 103.2 90.5058 101.655 89.3222C100.11 88.1387 98.91 86.9551 98.0387 85.7551C97.1675 84.5551 96.9045 83.3058 97.2333 81.9743C97.6442 80.3469 98.6305 79.262 100.209 78.7195C101.787 78.177 103.644 78.177 105.798 78.7195C107.047 79.0318 108.477 79.5085 109.447 80.1003C113.688 82.6976 113.343 87.1524 113.343 87.1524L113.507 87.2017L117.863 88.2866L119.885 80.1825C119.885 80.1825 116.384 77.8812 113.688 76.5497C112.143 75.777 110.22 75.0044 108.395 74.3962L110.483 66.0127L105.321 64.7305L103.25 73.0483C100.932 72.6373 98.7456 72.5387 96.6908 72.7688C94.0113 73.0483 91.7593 73.8538 89.9182 75.1853C88.0935 76.5003 86.8771 78.3414 86.3018 80.6921C85.7429 82.9277 85.825 84.9168 86.5483 86.6921C87.2716 88.4675 88.3894 90.0784 89.8853 91.5579C91.3812 93.0209 93.0086 94.3688 94.784 95.6181C96.5593 96.851 98.2031 98.0839 99.7483 99.2839C101.277 100.484 102.477 101.7 103.332 102.95C104.187 104.183 104.433 105.53 104.072 106.993C103.628 108.802 102.526 109.952 100.784 110.478C99.0415 111.004 97.0689 110.988 94.8826 110.446C94.11 110.248 93.1894 109.92 92.2689 109.509C89.573 108.341 87.6333 106.007 87.0415 103.295C86.9429 102.851 86.8771 102.555 86.8771 102.555L82.3566 101.421L80.4004 109.278C81.7319 110.199 83.0634 111.185 85.825 112.583C88.1593 113.766 90.0661 114.588 92.7292 115.328L90.7072 123.448L95.8689 124.73L97.9401 116.396C99.8798 116.643 101.77 116.692 103.578 116.511C106.505 116.215 109.003 115.344 111.058 113.898C113.113 112.451 114.461 110.429 115.118 107.815C115.677 105.58 115.578 103.591 114.822 101.832H114.839Z" fill="url(#paint5_linear_6312_14018)"/>
</g>
<defs>
<filter id="filter0_i_6312_14018" x="-2" y="128.4" width="204" height="113.6" filterUnits="userSpaceOnUse" color-interpolation-filters="sRGB">
<feFlood flood-opacity="0" result="BackgroundImageFix"/>
<feBlend mode="normal" in="SourceGraphic" in2="BackgroundImageFix" result="shape"/>
<feColorMatrix in="SourceAlpha" type="matrix" values="0 0 0 0 0 0 0 0 0 0 0 0 0 0 0 0 0 0 127 0" result="hardAlpha"/>
<feOffset dy="2"/>
<feGaussianBlur stdDeviation="1.8"/>
<feComposite in2="hardAlpha" operator="arithmetic" k2="-1" k3="1"/>
<feColorMatrix type="matrix" values="0 0 0 0 1 0 0 0 0 1 0 0 0 0 1 0 0 0 0.1 0"/>
<feBlend mode="normal" in2="shape" result="effect1_innerShadow_6312_14018"/>
</filter>
<filter id="filter1_iii_6312_14018" x="-12.4" y="-25.2" width="244.4" height="265.2" filterUnits="userSpaceOnUse" color-interpolation-filters="sRGB">
<feFlood flood-opacity="0" result="BackgroundImageFix"/>
<feBlend mode="normal" in="SourceGraphic" in2="BackgroundImageFix" result="shape"/>
<feColorMatrix in="SourceAlpha" type="matrix" values="0 0 0 0 0 0 0 0 0 0 0 0 0 0 0 0 0 0 127 0" result="hardAlpha"/>
<feOffset dy="-25.2"/>
<feGaussianBlur stdDeviation="13.6"/>
<feComposite in2="hardAlpha" operator="arithmetic" k2="-1" k3="1"/>
<feColorMatrix type="matrix" values="0 0 0 0 1 0 0 0 0 1 0 0 0 0 1 0 0 0 0.29 0"/>
<feBlend mode="plus-lighter" in2="shape" result="effect1_innerShadow_6312_14018"/>
<feColorMatrix in="SourceAlpha" type="matrix" values="0 0 0 0 0 0 0 0 0 0 0 0 0 0 0 0 0 0 127 0" result="hardAlpha"/>
<feOffset dx="32" dy="-10.8"/>
<feGaussianBlur stdDeviation="18"/>
<feComposite in2="hardAlpha" operator="arithmetic" k2="-1" k3="1"/>
<feColorMatrix type="matrix" values="0 0 0 0 1 0 0 0 0 1 0 0 0 0 1 0 0 0 0.4 0"/>
<feBlend mode="lighten" in2="effect1_innerShadow_6312_14018" result="effect2_innerShadow_6312_14018"/>
<feColorMatrix in="SourceAlpha" type="matrix" values="0 0 0 0 0 0 0 0 0 0 0 0 0 0 0 0 0 0 127 0" result="hardAlpha"/>
<feOffset dx="-12.4" dy="-8"/>
<feGaussianBlur stdDeviation="18"/>
<feComposite in2="hardAlpha" operator="arithmetic" k2="-1" k3="1"/>
<feColorMatrix type="matrix" values="0 0 0 0 1 0 0 0 0 1 0 0 0 0 1 0 0 0 0.25 0"/>
<feBlend mode="normal" in2="effect2_innerShadow_6312_14018" result="effect3_innerShadow_6312_14018"/>
</filter>
<filter id="filter2_f_6312_14018" x="-1.6" y="-1.6" width="203.2" height="248.4" filterUnits="userSpaceOnUse" color-interpolation-filters="sRGB">
<feFlood flood-opacity="0" result="BackgroundImageFix"/>
<feBlend mode="normal" in="SourceGraphic" in2="BackgroundImageFix" result="shape"/>
<feGaussianBlur stdDeviation="0.8" result="effect1_foregroundBlur_6312_14018"/>
</filter>
<filter id="filter3_f_6312_14018" x="-3.99688" y="-1.33965" width="207.994" height="245.339" filterUnits="userSpaceOnUse" color-interpolation-filters="sRGB">
<feFlood flood-opacity="0" result="BackgroundImageFix"/>
<feBlend mode="normal" in="SourceGraphic" in2="BackgroundImageFix" result="shape"/>
<feGaussianBlur stdDeviation="0.6" result="effect1_foregroundBlur_6312_14018"/>
</filter>
<filter id="filter4_i_6312_14018" x="0" y="-2" width="200" height="242" filterUnits="userSpaceOnUse" color-interpolation-filters="sRGB">
<feFlood flood-opacity="0" result="BackgroundImageFix"/>
<feBlend mode="normal" in="SourceGraphic" in2="BackgroundImageFix" result="shape"/>
<feColorMatrix in="SourceAlpha" type="matrix" values="0 0 0 0 0 0 0 0 0 0 0 0 0 0 0 0 0 0 127 0" result="hardAlpha"/>
<feOffset dy="-7.2"/>
<feGaussianBlur stdDeviation="1"/>
<feComposite in2="hardAlpha" operator="arithmetic" k2="-1" k3="1"/>
<feColorMatrix type="matrix" values="0 0 0 0 0.180392 0 0 0 0 0.411765 0 0 0 0 0.427451 0 0 0 1 0"/>
<feBlend mode="normal" in2="shape" result="effect1_innerShadow_6312_14018"/>
</filter>
<filter id="filter5_f_6312_14018" x="78.0004" y="62.3305" width="44.2854" height="64.8" filterUnits="userSpaceOnUse" color-interpolation-filters="sRGB">
<feFlood flood-opacity="0" result="BackgroundImageFix"/>
<feBlend mode="normal" in="SourceGraphic" in2="BackgroundImageFix" result="shape"/>
<feGaussianBlur stdDeviation="1.2" result="effect1_foregroundBlur_6312_14018"/>
</filter>
<linearGradient id="paint0_linear_6312_14018" x1="196.8" y1="183.978" x2="3.5943" y2="181.819" gradientUnits="userSpaceOnUse">
<stop stop-color="#FFDA7C"/>
<stop offset="0.324197" stop-color="#FFB438"/>
<stop offset="0.430896" stop-color="#FFB032"/>
<stop offset="0.514698" stop-color="#FFAC2D"/>
<stop offset="0.626478" stop-color="#FFAF39"/>
<stop offset="1" stop-color="#FFD670"/>
</linearGradient>
<linearGradient id="paint1_linear_6312_14018" x1="4.8" y1="100.12" x2="196.8" y2="100.12" gradientUnits="userSpaceOnUse">
<stop stop-color="#FB8F4C"/>
<stop offset="0.35" stop-color="#FF7029"/>
<stop offset="0.5" stop-color="#FF691F"/>
<stop offset="0.65" stop-color="#FF7029"/>
<stop offset="1" stop-color="#FB8F4C"/>
</linearGradient>
<linearGradient id="paint2_linear_6312_14018" x1="1.4" y1="37.8889" x2="197" y2="37.8872" gradientUnits="userSpaceOnUse">
<stop stop-color="#C4E3E5"/>
<stop offset="0.375" stop-color="#A1D2D5"/>
<stop offset="0.591346" stop-color="#96CED1"/>
<stop offset="1" stop-color="#BADEE0"/>
</linearGradient>
<linearGradient id="paint3_linear_6312_14018" x1="100" y1="6" x2="100.001" y2="53.7778" gradientUnits="userSpaceOnUse">
<stop offset="0.19213" stop-color="#9DD0D3" stop-opacity="0"/>
<stop offset="0.447043" stop-color="#9DD0D3" stop-opacity="0"/>
<stop offset="0.686962" stop-color="#E7DCCE"/>
<stop offset="1" stop-color="#E38756"/>
</linearGradient>
<linearGradient id="paint4_linear_6312_14018" x1="17.2474" y1="120" x2="6.23133" y2="120" gradientUnits="userSpaceOnUse">
<stop offset="0.105769" stop-color="white" stop-opacity="0.18"/>
<stop offset="1" stop-color="white" stop-opacity="0.2"/>
</linearGradient>
<linearGradient id="paint5_linear_6312_14018" x1="100.143" y1="64.7305" x2="100.143" y2="124.73" gradientUnits="userSpaceOnUse">
<stop stop-color="white" stop-opacity="0.2"/>
<stop offset="1" stop-color="white" stop-opacity="0.2"/>
</linearGradient>
</defs>
</svg>
