<svg width="200" height="240" viewBox="0 0 200 240" fill="none" xmlns="http://www.w3.org/2000/svg">
<mask id="mask0_6312_13975" style="mask-type:alpha" maskUnits="userSpaceOnUse" x="0" y="0" width="200" height="240">
<path d="M190.736 185.276L200 0H0L9.26382 185.276C10.2261 204.522 10.7073 214.145 14.7598 221.455C18.3269 227.889 23.7796 233.076 30.3839 236.318C37.887 240 47.522 240 66.792 240H133.208C152.478 240 162.113 240 169.616 236.318C176.22 233.076 181.673 227.889 185.24 221.455C189.293 214.145 189.774 204.522 190.736 185.277V185.276Z" fill="#2E696D"/>
</mask>
<g mask="url(#mask0_6312_13975)">
<g filter="url(#filter0_i_6312_13975)">
<path d="M-2 138.582V240C19.9205 240 114.825 240 202 240V136.974C133.626 107.477 66.0009 165.773 -2 138.582Z" fill="url(#paint0_linear_6312_13975)"/>
</g>
<path d="M-2 49.826C66.0008 77.135 133.626 18.5852 202 48.211V137.31C133.626 107.684 66.0008 166.234 -2 138.925V49.826Z" fill="url(#paint1_linear_6312_13975)"/>
<path d="M202 48.28C133.626 18.7728 66.0008 77.0882 -2 49.8886V0H202V48.28Z" fill="url(#paint2_linear_6312_13975)"/>
<path d="M202 48.28C133.626 18.7728 66.0008 77.0882 -2 49.8886V0H202V48.28Z" fill="url(#paint3_linear_6312_13975)" style="mix-blend-mode:color"/>
<g filter="url(#filter1_iii_6312_13975)">
<path d="M190.736 185.276L200 0H0L9.26382 185.276C10.2261 204.522 10.7073 214.145 14.7598 221.455C18.3269 227.889 23.7796 233.076 30.3839 236.318C37.887 240 47.522 240 66.792 240H133.208C152.478 240 162.113 240 169.616 236.318C176.22 233.076 181.673 227.889 185.24 221.455C189.293 214.145 189.774 204.522 190.736 185.277V185.276Z" fill="#2E696D" fill-opacity="0.01"/>
</g>
<path d="M34.4004 0L42.0996 184.798C42.9079 204.197 43.3122 213.897 47.3447 221.271C50.8939 227.762 56.3565 233.002 62.9893 236.278C70.5256 240 80.2344 240 99.6504 240H66.792C47.522 240 37.8869 240 30.3838 236.317C23.7796 233.076 18.3268 227.889 14.7598 221.455C10.7073 214.145 10.226 204.522 9.26367 185.276L0 0H34.4004Z" fill="url(#paint4_linear_6312_13975)"/>
<g filter="url(#filter2_f_6312_13975)">
<path d="M0 0C0.177057 10.4831 0.371424 20.9654 0.583105 31.4468C1.62055 82.8161 3.07382 134.165 4.94291 185.492C5.85444 197.776 4.14885 210.161 10.6013 223.761C14.5354 231.032 20.7676 237.059 28.2067 240.754C42.1439 246.757 54.4872 244.633 66.792 245.142C77.8613 245.181 88.9307 245.2 100 245.2C111.069 245.2 122.139 245.181 133.208 245.142C145.513 244.633 157.856 246.757 171.793 240.754C179.232 237.059 185.465 231.032 189.399 223.761C195.851 210.161 194.146 197.776 195.057 185.492C196.926 134.165 198.379 82.8161 199.417 31.4468C199.629 20.9654 199.823 10.4831 200 0C199.13 10.4485 198.278 20.8979 197.443 31.3481C193.352 82.5647 189.675 133.802 186.415 185.06C185.402 197.095 185.789 210.418 181.082 219.15C177.956 224.664 173.123 229.164 167.439 231.881C158.515 235.908 145.287 234.659 133.208 234.858C122.139 234.819 111.069 234.8 100 234.8C88.9307 234.8 77.8613 234.819 66.792 234.858C54.7129 234.659 41.4848 235.908 32.5611 231.881C26.877 229.164 22.0445 224.664 18.9183 219.15C14.2111 210.418 14.5978 197.095 13.5847 185.06C10.3245 133.802 6.64849 82.5647 2.55664 31.3481C1.72174 20.8979 0.869525 10.4485 0 0Z" fill="#2E696D"/>
</g>
<g filter="url(#filter3_f_6312_13975)">
<path d="M0 0L9.26382 185.276C10.2261 204.522 10.7073 214.145 14.7598 221.455C18.3269 227.889 23.7796 233.076 30.3839 236.318C37.887 240 47.522 240 66.792 240H133.208C152.478 240 162.113 240 169.616 236.318C176.22 233.076 181.673 227.889 185.24 221.455C189.293 214.145 189.774 204.522 190.736 185.276L200 0" stroke="#2E696D" stroke-opacity="0.7" stroke-width="5.6"/>
</g>
<g filter="url(#filter4_i_6312_13975)">
<path d="M190.736 185.276L200 0H0L9.26382 185.276C10.2261 204.522 10.7073 214.145 14.7598 221.455C18.3269 227.889 23.7796 233.076 30.3839 236.318C37.887 240 47.522 240 66.792 240H133.208C152.478 240 162.113 240 169.616 236.318C176.22 233.076 181.673 227.889 185.24 221.455C189.293 214.145 189.774 204.522 190.736 185.277V185.276Z" fill="#2E696D" fill-opacity="0.01"/>
</g>
</g>
<path d="M46.999 79.3994C54.8408 79.3994 61.199 85.7569 61.1992 93.5986C61.1992 101.441 54.841 107.799 46.999 107.799C39.1573 107.799 32.7998 101.44 32.7998 93.5986C32.8 85.757 39.1574 79.3996 46.999 79.3994ZM47.8896 87.4473C47.2223 87.3289 46.5926 87.3009 46.001 87.3672C45.2295 87.4477 44.5809 87.6792 44.0508 88.0625C43.5254 88.4411 43.1755 88.9717 43.0098 89.6484C42.8488 90.2921 42.8728 90.8648 43.0811 91.376C43.2893 91.8871 43.6104 92.3514 44.041 92.7773C44.4717 93.1986 44.9409 93.5866 45.4521 93.9463C45.9633 94.3013 46.4369 94.6564 46.8818 95.002C47.3219 95.3474 47.667 95.698 47.9131 96.0576C48.1592 96.4126 48.2301 96.8005 48.126 97.2217C47.9982 97.7423 47.6814 98.0741 47.1797 98.2256C46.678 98.377 46.11 98.372 45.4805 98.2158C45.258 98.159 44.9926 98.0646 44.7275 97.9463C43.9515 97.6102 43.3931 96.938 43.2227 96.1572C43.1952 96.0338 43.1761 95.95 43.1748 95.9443L41.874 95.6172L41.3105 97.8799C41.6938 98.1449 42.0772 98.4289 42.8721 98.8311C43.5442 99.1719 44.0936 99.4091 44.8604 99.6221L44.2783 101.96L45.7646 102.329L46.3604 99.9297C46.9189 100.001 47.4637 100.015 47.9844 99.9629C48.8268 99.8777 49.5461 99.6264 50.1377 99.21C50.7292 98.7935 51.1173 98.2113 51.3066 97.459C51.4676 96.8153 51.4394 96.2418 51.2217 95.7354H51.2266C51.0088 95.229 50.6867 94.77 50.2607 94.3535C49.8349 93.9419 49.3713 93.5538 48.8604 93.1895C48.3492 92.825 47.8755 92.4745 47.4307 92.1338C46.9858 91.7931 46.6405 91.4519 46.3896 91.1064C46.1388 90.7609 46.0626 90.401 46.1572 90.0176C46.2755 89.5492 46.5596 89.2373 47.0137 89.0811C47.468 88.9249 48.0031 88.9249 48.623 89.0811C48.9827 89.171 49.3946 89.3081 49.6738 89.4785C50.895 90.2264 50.7959 91.5088 50.7959 91.5088L50.8438 91.5234L52.0977 91.835L52.6797 89.502C52.6733 89.4977 51.6693 88.8382 50.8955 88.4561C50.4506 88.2336 49.8965 88.0111 49.3711 87.8359L49.9727 85.4219L48.4863 85.0527L47.8896 87.4473Z" fill="white" fill-opacity="0.9"/>
<path d="M71.3338 86.7221H74.7457V96.6224C74.7411 97.55 74.5197 98.361 74.0815 99.0555C73.6434 99.7454 73.0374 100.281 72.2637 100.664C71.4946 101.046 70.6043 101.237 69.5928 101.237C68.6979 101.237 67.8845 101.081 67.1527 100.769C66.4255 100.456 65.8452 99.9715 65.4117 99.3142C64.9829 98.657 64.7708 97.8157 64.7755 96.7902H68.2224C68.2364 97.1584 68.3063 97.4731 68.4322 97.7341C68.5627 97.9905 68.7421 98.1839 68.9705 98.3144C69.1989 98.4449 69.4716 98.5102 69.7886 98.5102C70.1195 98.5102 70.3992 98.4403 70.6276 98.3004C70.856 98.1559 71.0284 97.9439 71.145 97.6642C71.2662 97.3845 71.3291 97.0373 71.3338 96.6224V86.7221Z" fill="white" fill-opacity="0.9"/>
<path d="M82.8628 96.4057V90.3018H86.2748V101.041H83.0167V99.0416H82.9048C82.6671 99.6988 82.2616 100.221 81.6882 100.608C81.1196 100.99 80.432 101.181 79.6257 101.181C78.8938 101.181 78.2506 101.013 77.6959 100.678C77.1412 100.342 76.7101 99.8736 76.4024 99.2723C76.0948 98.6663 75.9387 97.9578 75.934 97.1468V90.3018H79.353V96.4756C79.3576 97.0582 79.5115 97.5174 79.8144 97.853C80.1174 98.1886 80.5299 98.3564 81.052 98.3564C81.3922 98.3564 81.6975 98.2818 81.9679 98.1326C82.2429 97.9788 82.4597 97.7574 82.6181 97.4684C82.7813 97.1748 82.8628 96.8205 82.8628 96.4057Z" fill="white" fill-opacity="0.9"/>
<path d="M87.4666 101.041V90.3018H90.8856V101.041H87.4666ZM89.1796 89.0503C88.6995 89.0503 88.2869 88.8918 87.942 88.5749C87.5971 88.2533 87.4246 87.8664 87.4246 87.4142C87.4246 86.9668 87.5971 86.5845 87.942 86.2676C88.2869 85.946 88.6995 85.7852 89.1796 85.7852C89.6643 85.7852 90.0768 85.946 90.4171 86.2676C90.762 86.5845 90.9345 86.9668 90.9345 87.4142C90.9345 87.8664 90.762 88.2533 90.4171 88.5749C90.0768 88.8918 89.6643 89.0503 89.1796 89.0503Z" fill="white" fill-opacity="0.9"/>
<path d="M97.0904 101.244C95.9577 101.244 94.9859 101.011 94.1748 100.545C93.3685 100.079 92.7485 99.4308 92.315 98.6011C91.8815 97.7667 91.6648 96.8019 91.6648 95.7065C91.6648 94.6064 91.8815 93.6416 92.315 92.8119C92.7532 91.9775 93.3754 91.3273 94.1818 90.8612C94.9929 90.3951 95.9601 90.162 97.0834 90.162C98.0762 90.162 98.9409 90.3415 99.6774 90.7004C100.418 91.0593 100.996 91.5674 101.411 92.2246C101.831 92.8771 102.052 93.6439 102.076 94.5249H98.8803C98.815 93.9749 98.6286 93.5437 98.321 93.2314C98.018 92.9191 97.6218 92.7629 97.1324 92.7629C96.7362 92.7629 96.3889 92.8748 96.0906 93.0986C95.7923 93.3176 95.5592 93.6439 95.3914 94.0774C95.2283 94.5062 95.1467 95.0376 95.1467 95.6715C95.1467 96.3055 95.2283 96.8415 95.3914 97.2796C95.5592 97.7131 95.7923 98.0417 96.0906 98.2655C96.3889 98.4846 96.7362 98.5941 97.1324 98.5941C97.4493 98.5941 97.729 98.5265 97.9714 98.3913C98.2184 98.2562 98.4212 98.0581 98.5797 97.797C98.7381 97.5313 98.8384 97.2097 98.8803 96.8322H102.076C102.043 97.7178 101.822 98.4915 101.411 99.1534C101.006 99.8153 100.435 100.33 99.6983 100.699C98.9665 101.062 98.0972 101.244 97.0904 101.244Z" fill="white" fill-opacity="0.9"/>
<path d="M107.861 101.244C106.738 101.244 105.768 101.023 104.952 100.58C104.141 100.132 103.517 99.496 103.079 98.671C102.645 97.8413 102.428 96.8555 102.428 95.7135C102.428 94.6041 102.647 93.6346 103.086 92.8049C103.524 91.9705 104.141 91.3226 104.938 90.8612C105.735 90.3951 106.675 90.162 107.756 90.162C108.52 90.162 109.22 90.2809 109.854 90.5186C110.487 90.7563 111.035 91.1082 111.497 91.5743C111.958 92.0405 112.317 92.6161 112.573 93.3013C112.83 93.9818 112.958 94.7626 112.958 95.6436V96.4966H103.624V94.5109H109.777C109.772 94.1473 109.686 93.8234 109.518 93.539C109.35 93.2547 109.119 93.0333 108.826 92.8748C108.537 92.7117 108.203 92.6301 107.826 92.6301C107.444 92.6301 107.101 92.7163 106.798 92.8888C106.495 93.0566 106.255 93.2873 106.078 93.581C105.901 93.87 105.808 94.1986 105.798 94.5668V96.5875C105.798 97.0256 105.885 97.4101 106.057 97.7411C106.229 98.0674 106.474 98.3214 106.791 98.5032C107.108 98.685 107.486 98.7759 107.924 98.7759C108.227 98.7759 108.502 98.7339 108.749 98.65C108.996 98.5661 109.208 98.4426 109.385 98.2795C109.562 98.1163 109.695 97.9159 109.784 97.6782L112.923 97.7691C112.792 98.4729 112.506 99.0858 112.063 99.6079C111.625 100.125 111.049 100.528 110.336 100.817C109.623 101.102 108.798 101.244 107.861 101.244Z" fill="white" fill-opacity="0.9"/>
<path d="M120.878 101.041H115.585V86.7221H120.871C122.33 86.7221 123.586 87.0087 124.639 87.582C125.697 88.1507 126.513 88.9711 127.086 90.0431C127.66 91.1106 127.946 92.3877 127.946 93.8746C127.946 95.3662 127.66 96.648 127.086 97.7201C126.518 98.7922 125.704 99.6149 124.646 100.188C123.588 100.757 122.332 101.041 120.878 101.041ZM119.046 98.0907H120.745C121.547 98.0907 122.225 97.9555 122.78 97.6852C123.339 97.4102 123.761 96.965 124.045 96.3497C124.334 95.7298 124.479 94.9048 124.479 93.8746C124.479 92.8445 124.334 92.0242 124.045 91.4135C123.756 90.7983 123.33 90.3554 122.766 90.0851C122.206 89.8101 121.516 89.6726 120.696 89.6726H119.046V98.0907Z" fill="white" fill-opacity="0.9"/>
<path d="M133.996 101.244C132.868 101.244 131.898 101.013 131.087 100.552C130.281 100.086 129.659 99.4378 129.22 98.6081C128.787 97.7737 128.57 96.8065 128.57 95.7065C128.57 94.6018 128.787 93.6346 129.22 92.8049C129.659 91.9705 130.281 91.3226 131.087 90.8612C131.898 90.3951 132.868 90.162 133.996 90.162C135.124 90.162 136.091 90.3951 136.897 90.8612C137.708 91.3226 138.331 91.9705 138.764 92.8049C139.202 93.6346 139.421 94.6018 139.421 95.7065C139.421 96.8065 139.202 97.7737 138.764 98.6081C138.331 99.4378 137.708 100.086 136.897 100.552C136.091 101.013 135.124 101.244 133.996 101.244ZM134.017 98.664C134.427 98.664 134.774 98.5382 135.058 98.2865C135.343 98.0348 135.56 97.6852 135.709 97.2377C135.863 96.7902 135.939 96.2728 135.939 95.6855C135.939 95.0889 135.863 94.5668 135.709 94.1194C135.56 93.6719 135.343 93.3223 135.058 93.0706C134.774 92.8189 134.427 92.693 134.017 92.693C133.593 92.693 133.234 92.8189 132.94 93.0706C132.651 93.3223 132.43 93.6719 132.276 94.1194C132.127 94.5668 132.052 95.0889 132.052 95.6855C132.052 96.2728 132.127 96.7902 132.276 97.2377C132.43 97.6852 132.651 98.0348 132.94 98.2865C133.234 98.5382 133.593 98.664 134.017 98.664Z" fill="white" fill-opacity="0.9"/>
<path d="M143.607 86.7221V101.041H140.188V86.7221H143.607Z" fill="white" fill-opacity="0.9"/>
<path d="M148.218 86.7221V101.041H144.799V86.7221H148.218Z" fill="white" fill-opacity="0.9"/>
<path d="M152.437 101.223C151.752 101.223 151.144 101.109 150.612 100.88C150.086 100.647 149.668 100.298 149.361 99.8316C149.058 99.3609 148.906 98.7712 148.906 98.0627C148.906 97.4661 149.011 96.9627 149.221 96.5525C149.431 96.1423 149.72 95.809 150.088 95.5527C150.456 95.2963 150.88 95.1029 151.361 94.9724C151.841 94.8372 152.353 94.7463 152.899 94.6997C153.509 94.6437 154.001 94.5855 154.374 94.5249C154.747 94.4596 155.017 94.3687 155.185 94.2522C155.357 94.131 155.444 93.9609 155.444 93.7418V93.7068C155.444 93.3479 155.32 93.0706 155.073 92.8748C154.826 92.679 154.493 92.5812 154.073 92.5812C153.621 92.5812 153.258 92.679 152.983 92.8748C152.708 93.0706 152.533 93.3409 152.458 93.6859L149.305 93.574C149.398 92.9214 149.638 92.3388 150.025 91.8261C150.417 91.3087 150.953 90.9031 151.633 90.6095C152.318 90.3112 153.141 90.162 154.101 90.162C154.786 90.162 155.418 90.2436 155.996 90.4067C156.574 90.5652 157.077 90.7983 157.506 91.1059C157.935 91.4089 158.266 91.7818 158.499 92.2246C158.737 92.6674 158.856 93.1731 158.856 93.7418V101.041H155.639V99.545H155.556C155.364 99.9085 155.12 100.216 154.821 100.468C154.528 100.72 154.181 100.908 153.78 101.034C153.383 101.16 152.936 101.223 152.437 101.223ZM153.493 98.9856C153.861 98.9856 154.192 98.9111 154.486 98.7619C154.784 98.6127 155.022 98.4076 155.199 98.1466C155.376 97.8809 155.465 97.5733 155.465 97.2237V96.2029C155.367 96.2542 155.248 96.3008 155.108 96.3427C154.973 96.3847 154.824 96.4243 154.661 96.4616C154.497 96.4989 154.33 96.5315 154.157 96.5595C153.985 96.5875 153.819 96.6131 153.661 96.6364C153.339 96.6877 153.064 96.7669 152.836 96.8741C152.612 96.9813 152.44 97.1212 152.318 97.2936C152.202 97.4614 152.144 97.6619 152.144 97.8949C152.144 98.2492 152.269 98.5195 152.521 98.706C152.777 98.8924 153.101 98.9856 153.493 98.9856Z" fill="white" fill-opacity="0.9"/>
<path d="M159.962 101.041V90.3018H163.283V92.2595H163.395C163.591 91.551 163.91 91.0243 164.353 90.6794C164.795 90.3298 165.311 90.155 165.898 90.155C166.056 90.155 166.219 90.1667 166.387 90.19C166.555 90.2086 166.711 90.2389 166.856 90.2809V93.2524C166.693 93.1964 166.478 93.1522 166.212 93.1195C165.951 93.0869 165.718 93.0706 165.513 93.0706C165.108 93.0706 164.742 93.1615 164.416 93.3433C164.094 93.5204 163.84 93.7698 163.653 94.0914C163.472 94.4083 163.381 94.7812 163.381 95.2101V101.041H159.962Z" fill="white" fill-opacity="0.9"/>
<g filter="url(#filter5_f_6312_13975)">
<path d="M100.097 174.592C98.6157 174.592 97.2897 173.827 96.5492 172.544L86.5353 155.2H113.658L103.644 172.544C102.904 173.827 101.578 174.592 100.097 174.592Z" fill="url(#paint5_linear_6312_13975)"/>
<path d="M109.366 179.944C107.885 179.944 106.559 179.179 105.818 177.896C105.078 176.614 105.078 175.082 105.818 173.8L115.832 156.456L129.393 179.944H109.366Z" fill="url(#paint6_linear_6312_13975)"/>
<path d="M86.5353 207.2L96.5492 189.856C97.2897 188.574 98.6157 187.808 100.097 187.808C101.578 187.808 102.904 188.574 103.644 189.856L113.658 207.2H86.5353Z" fill="url(#paint7_linear_6312_13975)"/>
<path d="M105.818 188.601C105.078 187.319 105.078 185.787 105.818 184.505C106.559 183.222 107.885 182.457 109.366 182.457H129.394L115.832 205.944L105.818 188.601Z" fill="url(#paint8_linear_6312_13975)"/>
<path d="M70.7998 179.944L84.3614 156.456L94.3748 173.8C95.1155 175.082 95.1155 176.613 94.3748 177.896C93.6343 179.179 92.308 179.944 90.8271 179.944H70.7998Z" fill="url(#paint9_linear_6312_13975)"/>
<path d="M70.7998 182.456H90.8273C92.3083 182.456 93.6346 183.222 94.375 184.504C95.1155 185.787 95.1155 187.318 94.375 188.601L84.3617 205.944L70.7998 182.456Z" fill="url(#paint10_linear_6312_13975)"/>
</g>
<defs>
<filter id="filter0_i_6312_13975" x="-2" y="128.4" width="204" height="113.6" filterUnits="userSpaceOnUse" color-interpolation-filters="sRGB">
<feFlood flood-opacity="0" result="BackgroundImageFix"/>
<feBlend mode="normal" in="SourceGraphic" in2="BackgroundImageFix" result="shape"/>
<feColorMatrix in="SourceAlpha" type="matrix" values="0 0 0 0 0 0 0 0 0 0 0 0 0 0 0 0 0 0 127 0" result="hardAlpha"/>
<feOffset dy="2"/>
<feGaussianBlur stdDeviation="1.8"/>
<feComposite in2="hardAlpha" operator="arithmetic" k2="-1" k3="1"/>
<feColorMatrix type="matrix" values="0 0 0 0 1 0 0 0 0 1 0 0 0 0 1 0 0 0 0.1 0"/>
<feBlend mode="normal" in2="shape" result="effect1_innerShadow_6312_13975"/>
</filter>
<filter id="filter1_iii_6312_13975" x="-12.4" y="-25.2" width="244.4" height="265.2" filterUnits="userSpaceOnUse" color-interpolation-filters="sRGB">
<feFlood flood-opacity="0" result="BackgroundImageFix"/>
<feBlend mode="normal" in="SourceGraphic" in2="BackgroundImageFix" result="shape"/>
<feColorMatrix in="SourceAlpha" type="matrix" values="0 0 0 0 0 0 0 0 0 0 0 0 0 0 0 0 0 0 127 0" result="hardAlpha"/>
<feOffset dy="-25.2"/>
<feGaussianBlur stdDeviation="13.6"/>
<feComposite in2="hardAlpha" operator="arithmetic" k2="-1" k3="1"/>
<feColorMatrix type="matrix" values="0 0 0 0 1 0 0 0 0 1 0 0 0 0 1 0 0 0 0.29 0"/>
<feBlend mode="plus-lighter" in2="shape" result="effect1_innerShadow_6312_13975"/>
<feColorMatrix in="SourceAlpha" type="matrix" values="0 0 0 0 0 0 0 0 0 0 0 0 0 0 0 0 0 0 127 0" result="hardAlpha"/>
<feOffset dx="32" dy="-10.8"/>
<feGaussianBlur stdDeviation="18"/>
<feComposite in2="hardAlpha" operator="arithmetic" k2="-1" k3="1"/>
<feColorMatrix type="matrix" values="0 0 0 0 1 0 0 0 0 1 0 0 0 0 1 0 0 0 0.4 0"/>
<feBlend mode="lighten" in2="effect1_innerShadow_6312_13975" result="effect2_innerShadow_6312_13975"/>
<feColorMatrix in="SourceAlpha" type="matrix" values="0 0 0 0 0 0 0 0 0 0 0 0 0 0 0 0 0 0 127 0" result="hardAlpha"/>
<feOffset dx="-12.4" dy="-8"/>
<feGaussianBlur stdDeviation="18"/>
<feComposite in2="hardAlpha" operator="arithmetic" k2="-1" k3="1"/>
<feColorMatrix type="matrix" values="0 0 0 0 1 0 0 0 0 1 0 0 0 0 1 0 0 0 0.25 0"/>
<feBlend mode="normal" in2="effect2_innerShadow_6312_13975" result="effect3_innerShadow_6312_13975"/>
</filter>
<filter id="filter2_f_6312_13975" x="-1.6" y="-1.6" width="203.2" height="248.4" filterUnits="userSpaceOnUse" color-interpolation-filters="sRGB">
<feFlood flood-opacity="0" result="BackgroundImageFix"/>
<feBlend mode="normal" in="SourceGraphic" in2="BackgroundImageFix" result="shape"/>
<feGaussianBlur stdDeviation="0.8" result="effect1_foregroundBlur_6312_13975"/>
</filter>
<filter id="filter3_f_6312_13975" x="-3.99688" y="-1.33965" width="207.994" height="245.339" filterUnits="userSpaceOnUse" color-interpolation-filters="sRGB">
<feFlood flood-opacity="0" result="BackgroundImageFix"/>
<feBlend mode="normal" in="SourceGraphic" in2="BackgroundImageFix" result="shape"/>
<feGaussianBlur stdDeviation="0.6" result="effect1_foregroundBlur_6312_13975"/>
</filter>
<filter id="filter4_i_6312_13975" x="0" y="-2" width="200" height="242" filterUnits="userSpaceOnUse" color-interpolation-filters="sRGB">
<feFlood flood-opacity="0" result="BackgroundImageFix"/>
<feBlend mode="normal" in="SourceGraphic" in2="BackgroundImageFix" result="shape"/>
<feColorMatrix in="SourceAlpha" type="matrix" values="0 0 0 0 0 0 0 0 0 0 0 0 0 0 0 0 0 0 127 0" result="hardAlpha"/>
<feOffset dy="-7.2"/>
<feGaussianBlur stdDeviation="1"/>
<feComposite in2="hardAlpha" operator="arithmetic" k2="-1" k3="1"/>
<feColorMatrix type="matrix" values="0 0 0 0 0.180392 0 0 0 0 0.411765 0 0 0 0 0.427451 0 0 0 1 0"/>
<feBlend mode="normal" in2="shape" result="effect1_innerShadow_6312_13975"/>
</filter>
<filter id="filter5_f_6312_13975" x="67.1998" y="151.6" width="65.7938" height="59.2" filterUnits="userSpaceOnUse" color-interpolation-filters="sRGB">
<feFlood flood-opacity="0" result="BackgroundImageFix"/>
<feBlend mode="normal" in="SourceGraphic" in2="BackgroundImageFix" result="shape"/>
<feGaussianBlur stdDeviation="1.8" result="effect1_foregroundBlur_6312_13975"/>
</filter>
<linearGradient id="paint0_linear_6312_13975" x1="196.8" y1="183.978" x2="3.5943" y2="181.819" gradientUnits="userSpaceOnUse">
<stop stop-color="#FFDA7C"/>
<stop offset="0.324197" stop-color="#FFB438"/>
<stop offset="0.430896" stop-color="#FFB032"/>
<stop offset="0.514698" stop-color="#FFAC2D"/>
<stop offset="0.626478" stop-color="#FFAF39"/>
<stop offset="1" stop-color="#FFD670"/>
</linearGradient>
<linearGradient id="paint1_linear_6312_13975" x1="4.8" y1="100.12" x2="196.8" y2="100.12" gradientUnits="userSpaceOnUse">
<stop stop-color="#FB8F4C"/>
<stop offset="0.35" stop-color="#FF7029"/>
<stop offset="0.5" stop-color="#FF691F"/>
<stop offset="0.65" stop-color="#FF7029"/>
<stop offset="1" stop-color="#FB8F4C"/>
</linearGradient>
<linearGradient id="paint2_linear_6312_13975" x1="1.4" y1="37.8889" x2="197" y2="37.8872" gradientUnits="userSpaceOnUse">
<stop stop-color="#C4E3E5"/>
<stop offset="0.375" stop-color="#A1D2D5"/>
<stop offset="0.591346" stop-color="#96CED1"/>
<stop offset="1" stop-color="#BADEE0"/>
</linearGradient>
<linearGradient id="paint3_linear_6312_13975" x1="100" y1="6" x2="100.001" y2="53.7778" gradientUnits="userSpaceOnUse">
<stop offset="0.19213" stop-color="#9DD0D3" stop-opacity="0"/>
<stop offset="0.447043" stop-color="#9DD0D3" stop-opacity="0"/>
<stop offset="0.686962" stop-color="#E7DCCE"/>
<stop offset="1" stop-color="#E38756"/>
</linearGradient>
<linearGradient id="paint4_linear_6312_13975" x1="17.2474" y1="120" x2="6.23133" y2="120" gradientUnits="userSpaceOnUse">
<stop offset="0.105769" stop-color="white" stop-opacity="0.18"/>
<stop offset="1" stop-color="white" stop-opacity="0.2"/>
</linearGradient>
<linearGradient id="paint5_linear_6312_13975" x1="100.097" y1="155.2" x2="100.097" y2="207.2" gradientUnits="userSpaceOnUse">
<stop stop-color="white" stop-opacity="0.4"/>
<stop offset="1" stop-color="white" stop-opacity="0.15"/>
</linearGradient>
<linearGradient id="paint6_linear_6312_13975" x1="100.097" y1="155.2" x2="100.097" y2="207.2" gradientUnits="userSpaceOnUse">
<stop stop-color="white" stop-opacity="0.4"/>
<stop offset="1" stop-color="white" stop-opacity="0.15"/>
</linearGradient>
<linearGradient id="paint7_linear_6312_13975" x1="100.097" y1="155.2" x2="100.097" y2="207.2" gradientUnits="userSpaceOnUse">
<stop stop-color="white" stop-opacity="0.4"/>
<stop offset="1" stop-color="white" stop-opacity="0.15"/>
</linearGradient>
<linearGradient id="paint8_linear_6312_13975" x1="100.097" y1="155.2" x2="100.097" y2="207.2" gradientUnits="userSpaceOnUse">
<stop stop-color="white" stop-opacity="0.4"/>
<stop offset="1" stop-color="white" stop-opacity="0.15"/>
</linearGradient>
<linearGradient id="paint9_linear_6312_13975" x1="100.097" y1="155.2" x2="100.097" y2="207.2" gradientUnits="userSpaceOnUse">
<stop stop-color="white" stop-opacity="0.4"/>
<stop offset="1" stop-color="white" stop-opacity="0.15"/>
</linearGradient>
<linearGradient id="paint10_linear_6312_13975" x1="100.097" y1="155.2" x2="100.097" y2="207.2" gradientUnits="userSpaceOnUse">
<stop stop-color="white" stop-opacity="0.4"/>
<stop offset="1" stop-color="white" stop-opacity="0.15"/>
</linearGradient>
</defs>
</svg>
