<svg width="516" height="290" viewBox="0 0 516 290" fill="none" xmlns="http://www.w3.org/2000/svg">
<g clip-path="url(#clip0_6843_16983)">
<g clip-path="url(#clip1_6843_16983)">
<rect width="516" height="290" fill="white"/>
<g clip-path="url(#clip2_6843_16983)">
<rect width="671.02" height="548" transform="translate(-77.5103 -129)" fill="white"/>
<g clip-path="url(#clip3_6843_16983)">
<rect width="671.02" height="393.759" transform="translate(-77.5112 -99.1768)" fill="url(#paint0_linear_6843_16983)"/>
<g clip-path="url(#clip4_6843_16983)">
<path d="M58.8037 36.7415C58.8037 37.2809 58.6751 37.6881 58.4143 37.9631C58.1536 38.2381 57.8035 38.3739 57.357 38.3739C56.9105 38.3739 56.5569 38.2381 56.2962 37.9631C56.0318 37.6881 55.9032 37.2844 55.9032 36.7486V36.0592H53.6172V36.7129C53.6172 37.8381 53.9494 38.7025 54.6173 39.3133C55.2853 39.9205 56.1997 40.2242 57.357 40.2242C58.5143 40.2242 59.4181 39.9205 60.0789 39.3133C60.7397 38.7061 61.0683 37.8381 61.0683 36.7058V28.8975H58.8037V36.7415Z" fill="#F57F00"/>
<path d="M68.6944 36.5379C68.6944 36.9094 68.6266 37.2237 68.4873 37.488C68.348 37.7488 68.1586 37.9488 67.9122 38.0881C67.6657 38.2274 67.3835 38.2953 67.0656 38.2953C66.5941 38.2953 66.2262 38.1488 65.9547 37.8524C65.6833 37.5559 65.5511 37.1487 65.5511 36.6308V31.6872H63.3008V37.0201C63.3008 37.6738 63.4187 38.2381 63.658 38.7096C63.8937 39.1811 64.2331 39.5455 64.6653 39.7955C65.101 40.0491 65.6083 40.1741 66.1869 40.1741C66.8835 40.1741 67.455 39.9848 67.9086 39.6026C68.2872 39.2847 68.5801 38.8489 68.7945 38.3024L68.8195 40.067H70.9412V31.6836H68.6909V36.5343L68.6944 36.5379Z" fill="#F57F00"/>
<path d="M74.2558 28.2832C73.9164 28.2832 73.6271 28.3939 73.3842 28.619C73.1413 28.844 73.0234 29.1155 73.0234 29.4369C73.0234 29.7584 73.1449 30.0299 73.3842 30.2549C73.6235 30.48 73.9129 30.5907 74.2558 30.5907C74.5987 30.5907 74.888 30.48 75.1309 30.2549C75.3738 30.0299 75.4952 29.7584 75.4952 29.4369C75.4952 29.1155 75.3738 28.8369 75.1309 28.6154C74.888 28.3939 74.5987 28.2832 74.2558 28.2832Z" fill="#F57F00"/>
<path d="M75.3812 31.6865H73.1309V40.0699H75.3812V31.6865Z" fill="#F57F00"/>
<path d="M82.6753 37.6095C82.5789 37.7881 82.461 37.9417 82.3217 38.0703C82.1824 38.1989 82.0217 38.2954 81.8431 38.3632C81.6645 38.4311 81.4644 38.4632 81.2501 38.4632C80.8501 38.4632 80.5143 38.3525 80.2428 38.1346C79.9714 37.9132 79.7642 37.6131 79.6285 37.2309C79.4891 36.8487 79.4213 36.4058 79.4213 35.9057C79.4213 35.4056 79.4891 34.9556 79.6285 34.5698C79.7642 34.184 79.9714 33.884 80.2428 33.6697C80.5143 33.4554 80.8501 33.3482 81.2501 33.3482C81.4644 33.3482 81.6609 33.3803 81.8395 33.4446C82.0181 33.5089 82.1717 33.6018 82.3074 33.7268C82.4432 33.8483 82.5575 33.9983 82.6539 34.1697C82.7503 34.3412 82.8182 34.5377 82.8647 34.7591L84.9578 34.3698C84.8792 33.9411 84.7328 33.5518 84.522 33.2089C84.3113 32.866 84.0434 32.5731 83.7183 32.3302C83.3933 32.0873 83.0218 31.9051 82.6003 31.7765C82.1788 31.6479 81.7216 31.5801 81.2287 31.5801C80.3821 31.5801 79.6535 31.7622 79.0427 32.123C78.4318 32.4838 77.9568 32.991 77.6246 33.6375C77.2924 34.2841 77.1245 35.0449 77.1245 35.9129C77.1245 36.7809 77.2888 37.5274 77.6246 38.1739C77.9568 38.8204 78.4283 39.3277 79.0427 39.6884C79.6535 40.0492 80.3821 40.2314 81.2287 40.2314C81.7288 40.2314 82.1896 40.1671 82.611 40.0349C83.0325 39.9063 83.4076 39.7134 83.7326 39.4634C84.0577 39.2134 84.3256 38.9133 84.5363 38.5668C84.7471 38.2204 84.89 37.8239 84.9721 37.3774L82.8789 36.9952C82.8396 37.2202 82.7718 37.4238 82.6753 37.6024V37.6095Z" fill="#F57F00"/>
<path d="M93.0874 32.6338C92.7267 32.2802 92.3087 32.0194 91.8337 31.8408C91.3586 31.6658 90.8478 31.5801 90.2977 31.5801C89.4833 31.5801 88.7725 31.7622 88.1688 32.1266C87.5652 32.4909 87.0972 32.9981 86.7651 33.6482C86.4364 34.2983 86.2686 35.0556 86.2686 35.92C86.2686 36.7844 86.4364 37.5703 86.7686 38.2132C87.1008 38.8597 87.5759 39.3562 88.1974 39.7063C88.8189 40.0563 89.5548 40.2314 90.4085 40.2314C91.0621 40.2314 91.6408 40.1349 92.1444 39.9456C92.6481 39.7563 93.066 39.4884 93.4018 39.1383C93.7375 38.7919 93.9733 38.3882 94.1054 37.9275L92.0659 37.5453C91.9873 37.7596 91.8694 37.9417 91.7158 38.0882C91.5622 38.2346 91.38 38.3454 91.1657 38.4204C90.9514 38.4954 90.7121 38.5311 90.4442 38.5311C90.0548 38.5311 89.7119 38.449 89.419 38.2847C89.1261 38.1203 88.8975 37.8739 88.7368 37.5417C88.5903 37.2452 88.5117 36.8773 88.4975 36.4558H94.2269V35.8271C94.2269 35.1056 94.1269 34.4805 93.9233 33.9519C93.7197 33.4232 93.4411 32.9803 93.0803 32.6267L93.0874 32.6338ZM89.3262 33.5447C89.5976 33.3661 89.9262 33.2732 90.312 33.2732C90.6978 33.2732 91.0264 33.3625 91.2907 33.5411C91.5515 33.7197 91.7515 33.9697 91.8837 34.2912C91.9765 34.5162 92.0337 34.7734 92.0623 35.052H88.5118C88.5368 34.7698 88.601 34.5091 88.7082 34.2769C88.8475 33.9697 89.0547 33.7268 89.3262 33.5447Z" fill="#F57F00"/>
<path d="M105.453 34.7129C105.15 34.4521 104.793 34.2307 104.389 34.0485C103.985 33.8663 103.546 33.727 103.078 33.6199L102.067 33.3734C101.753 33.2984 101.46 33.2055 101.185 33.0912C100.913 32.9805 100.692 32.8305 100.524 32.6483C100.356 32.4661 100.274 32.2375 100.274 31.9625C100.274 31.7124 100.346 31.491 100.492 31.2945C100.638 31.0981 100.846 30.948 101.121 30.8373C101.396 30.7266 101.724 30.673 102.11 30.673C102.682 30.673 103.135 30.7944 103.478 31.0409C103.821 31.2874 104.01 31.6339 104.053 32.0839H106.264C106.254 31.4303 106.079 30.8516 105.732 30.3479C105.386 29.8443 104.907 29.4514 104.293 29.1692C103.678 28.887 102.957 28.7441 102.132 28.7441C101.306 28.7441 100.599 28.8834 99.9669 29.1656C99.3347 29.4442 98.8382 29.8372 98.4738 30.3444C98.1095 30.848 97.9309 31.441 97.9309 32.1161C97.9309 32.9269 98.1988 33.577 98.7346 34.0699C99.2704 34.5629 100.01 34.9236 100.953 35.1522L102.182 35.4594C102.592 35.5559 102.939 35.663 103.225 35.788C103.51 35.9131 103.728 36.0631 103.882 36.2345C104.035 36.406 104.11 36.6203 104.11 36.8775C104.11 37.1632 104.025 37.4133 103.857 37.6276C103.685 37.8419 103.45 38.0098 103.15 38.1277C102.846 38.2456 102.492 38.3027 102.082 38.3027C101.671 38.3027 101.303 38.242 100.978 38.117C100.653 37.9919 100.392 37.8026 100.199 37.549C100.003 37.2954 99.8919 36.9811 99.8598 36.606H97.6309C97.6523 37.3954 97.8452 38.0598 98.2167 38.5992C98.5881 39.1385 99.1025 39.5457 99.7669 39.8208C100.428 40.0958 101.206 40.2316 102.103 40.2316C103 40.2316 103.782 40.0923 104.428 39.8208C105.075 39.5493 105.564 39.1564 105.907 38.6563C106.25 38.1563 106.418 37.5669 106.418 36.8918C106.418 36.4203 106.336 36.0059 106.168 35.6452C106 35.2844 105.764 34.9736 105.461 34.7129H105.453Z" fill="#F57F00"/>
<path d="M116.891 34.7834C116.762 35.3549 116.626 35.9657 116.49 36.6158C116.398 37.0552 116.308 37.5267 116.226 38.0232C116.13 37.5231 116.03 37.0516 115.926 36.6087C115.772 35.955 115.63 35.3478 115.497 34.7834L114.754 31.6865H112.686L111.922 34.7834C111.786 35.3549 111.643 35.9657 111.486 36.6194C111.383 37.0588 111.286 37.5231 111.193 38.0125C111.107 37.5088 111.015 37.0338 110.918 36.5944C110.772 35.9407 110.64 35.3371 110.515 34.7834L109.786 31.6865H107.425L109.9 40.0699H112.186L113.115 36.8373C113.204 36.5158 113.294 36.1586 113.386 35.7657C113.476 35.3692 113.565 34.9692 113.654 34.562C113.676 34.4655 113.697 34.3726 113.715 34.2798C113.736 34.3726 113.758 34.4655 113.776 34.562C113.861 34.9692 113.947 35.3692 114.037 35.7621C114.126 36.155 114.215 36.5122 114.308 36.8373L115.237 40.0699H117.523L120.012 31.6865H117.619L116.891 34.7834Z" fill="#F57F00"/>
<path d="M127.01 32.2409C126.674 32.0159 126.292 31.848 125.867 31.7408C125.442 31.6337 125.003 31.5801 124.545 31.5801C123.924 31.5801 123.367 31.6694 122.87 31.8516C122.374 32.0301 121.956 32.2909 121.62 32.6302C121.284 32.9696 121.045 33.3839 120.898 33.8661L122.96 34.2126C123.024 34.034 123.124 33.8697 123.26 33.7268C123.395 33.5804 123.57 33.4661 123.785 33.3768C123.999 33.291 124.253 33.2446 124.542 33.2446C124.831 33.2446 125.067 33.2875 125.263 33.3768C125.46 33.4661 125.606 33.5911 125.706 33.7554C125.806 33.9197 125.856 34.1233 125.856 34.3626V34.3984C125.856 34.577 125.789 34.7163 125.649 34.8056C125.51 34.8984 125.296 34.9663 124.996 35.0092C124.699 35.052 124.306 35.0985 123.82 35.1485C123.406 35.1878 123.01 35.2592 122.631 35.3592C122.252 35.4592 121.917 35.6057 121.62 35.795C121.324 35.9843 121.088 36.2379 120.916 36.5523C120.745 36.8666 120.659 37.2559 120.659 37.7239C120.659 38.2775 120.781 38.7419 121.024 39.1133C121.266 39.4848 121.599 39.767 122.02 39.9528C122.442 40.1385 122.92 40.2349 123.449 40.2349C123.863 40.2349 124.231 40.1778 124.549 40.0635C124.867 39.9492 125.138 39.792 125.363 39.5956C125.588 39.3991 125.767 39.1705 125.903 38.9097H125.978V40.0706H128.107V34.4234C128.107 33.9126 128.007 33.4768 127.81 33.1196C127.614 32.7588 127.346 32.4659 127.007 32.2409H127.01ZM125.874 37.0702C125.874 37.3667 125.799 37.631 125.649 37.8739C125.499 38.1168 125.292 38.3025 125.024 38.4454C124.756 38.5847 124.445 38.6561 124.092 38.6561C123.842 38.6561 123.624 38.6204 123.435 38.5454C123.245 38.4704 123.099 38.3597 122.988 38.2132C122.877 38.0668 122.824 37.8846 122.824 37.6703C122.824 37.4417 122.881 37.2524 122.995 37.1023C123.11 36.9559 123.274 36.8344 123.481 36.7451C123.688 36.6558 123.935 36.5915 124.21 36.5487C124.335 36.5344 124.478 36.513 124.638 36.488C124.799 36.463 124.96 36.4344 125.128 36.4058C125.296 36.3772 125.442 36.3415 125.578 36.3022C125.714 36.2629 125.814 36.2165 125.878 36.1665V37.0738L125.874 37.0702Z" fill="#F57F00"/>
<path d="M137.522 33.5011C137.215 32.8618 136.804 32.3796 136.29 32.0616C135.776 31.7402 135.208 31.583 134.586 31.583C134.111 31.583 133.715 31.6616 133.4 31.8223C133.086 31.9831 132.832 32.1795 132.64 32.4153C132.447 32.651 132.297 32.8761 132.193 33.0975H132.089V31.6866H129.878V43.2062H132.129V38.7305H132.197C132.3 38.9555 132.454 39.1806 132.65 39.4092C132.847 39.6378 133.104 39.8271 133.418 39.9843C133.733 40.1414 134.118 40.2164 134.572 40.2164C135.218 40.2164 135.797 40.0486 136.312 39.7164C136.826 39.3842 137.233 38.8948 137.533 38.2554C137.833 37.6125 137.983 36.8266 137.983 35.8979C137.983 34.9692 137.83 34.1441 137.522 33.5047V33.5011ZM135.476 37.191C135.34 37.5696 135.136 37.8697 134.868 38.084C134.601 38.2983 134.272 38.4054 133.883 38.4054C133.493 38.4054 133.179 38.3019 132.907 38.0911C132.636 37.8804 132.432 37.5875 132.289 37.2088C132.147 36.8302 132.075 36.3909 132.075 35.8836C132.075 35.3764 132.147 34.9335 132.286 34.5585C132.425 34.187 132.632 33.8976 132.9 33.6869C133.172 33.4797 133.497 33.3761 133.883 33.3761C134.268 33.3761 134.608 33.4833 134.872 33.6976C135.136 33.9119 135.34 34.2084 135.476 34.5835C135.611 34.9585 135.683 35.3907 135.683 35.8801C135.683 36.3694 135.615 36.8052 135.476 37.1838V37.191Z" fill="#F57F00"/>
<path d="M27.4559 31.2015C26.5165 32.1409 25.9985 33.3911 25.9985 34.7199C25.9985 40.6279 30.8064 45.4358 36.7144 45.4358C40.6043 45.4358 44.0191 43.3497 45.8979 40.2386C44.8978 40.8637 43.719 41.2244 42.4581 41.2244C38.8719 41.2244 35.9536 38.3061 35.9536 34.7199C35.9536 31.7909 33.9069 29.7441 30.9778 29.7441C29.6491 29.7441 28.3989 30.2621 27.4595 31.2015H27.4559Z" fill="url(#paint1_linear_6843_16983)"/>
<path d="M47.4311 34.7159C47.4311 28.8079 42.6232 24 36.7152 24C33.8541 24 31.1608 25.1145 29.1391 27.1398C28.5104 27.7684 27.9675 28.4614 27.521 29.2043C28.5211 28.5757 29.707 28.2113 30.9751 28.2113C34.5613 28.2113 37.4796 31.1296 37.4796 34.7159C37.4796 37.6449 39.5264 39.6916 42.4554 39.6916C45.1986 39.6916 47.4311 37.4591 47.4311 34.7159Z" fill="url(#paint2_linear_6843_16983)"/>
</g>
<path d="M593.508 316.438V294.581H-77.5122V344.112C201.529 414.029 325.205 261.943 593.508 316.438Z" fill="url(#paint3_linear_6843_16983)"/>
<path d="M593.508 140.004V294.583H-77.5122V140.004C143.549 90.5256 369.835 190.307 593.508 140.004Z" fill="url(#paint4_linear_6843_16983)"/>
<path d="M-77.5122 140.003V294.581H593.508V140.003C369.835 74.4807 146.161 205.53 -77.5122 140.003Z" fill="url(#paint5_linear_6843_16983)"/>
</g>
<g filter="url(#filter0_d_6843_16983)">
<rect x="145.231" y="68.5781" width="225.537" height="169.619" rx="13.9796" fill="white"/>
<path d="M149.891 82.558C149.891 77.4109 154.063 73.2383 159.21 73.2383H356.789C361.936 73.2383 366.108 77.4109 366.108 82.558V129.157C366.108 134.304 361.936 138.476 356.789 138.476H159.21C154.063 138.476 149.891 134.304 149.891 129.157V82.558Z" fill="#D5EAEE"/>
<path d="M162.764 84.628C162.735 84.3774 162.619 84.1832 162.414 84.0455C162.209 83.9061 161.952 83.8364 161.641 83.8364C161.419 83.8364 161.226 83.8717 161.064 83.9423C160.901 84.0111 160.775 84.1064 160.685 84.2282C160.597 84.3483 160.553 84.4851 160.553 84.6386C160.553 84.7675 160.583 84.8787 160.643 84.9722C160.705 85.0658 160.785 85.1443 160.884 85.2079C160.984 85.2696 161.092 85.3217 161.207 85.3641C161.322 85.4047 161.432 85.4382 161.538 85.4647L162.067 85.6024C162.24 85.6447 162.418 85.7021 162.599 85.7745C162.781 85.8468 162.95 85.9421 163.105 86.0604C163.26 86.1787 163.386 86.3252 163.481 86.4999C163.578 86.6747 163.627 86.8838 163.627 87.1274C163.627 87.4345 163.547 87.7072 163.388 87.9455C163.231 88.1838 163.003 88.3718 162.703 88.5095C162.404 88.6472 162.043 88.716 161.62 88.716C161.214 88.716 160.863 88.6516 160.566 88.5227C160.27 88.3939 160.037 88.2112 159.87 87.9747C159.702 87.7364 159.609 87.454 159.592 87.1274H160.412C160.428 87.3233 160.492 87.4866 160.603 87.6172C160.716 87.7461 160.86 87.8423 161.035 87.9058C161.211 87.9676 161.404 87.9985 161.615 87.9985C161.846 87.9985 162.051 87.9623 162.231 87.8899C162.413 87.8158 162.556 87.7134 162.66 87.5828C162.764 87.4504 162.817 87.296 162.817 87.1195C162.817 86.9588 162.771 86.8273 162.679 86.725C162.589 86.6226 162.466 86.5379 162.311 86.4708C162.157 86.4037 161.983 86.3446 161.789 86.2934L161.149 86.1187C160.714 86.0004 160.37 85.8265 160.116 85.5971C159.864 85.3676 159.737 85.064 159.737 84.6863C159.737 84.3739 159.822 84.1011 159.992 83.8681C160.161 83.6352 160.39 83.4542 160.68 83.3254C160.969 83.1948 161.296 83.1295 161.66 83.1295C162.027 83.1295 162.351 83.1939 162.631 83.3227C162.914 83.4516 163.136 83.629 163.298 83.8549C163.461 84.0791 163.546 84.3368 163.553 84.628H162.764ZM166.294 88.7081C165.893 88.7081 165.548 88.6224 165.258 88.4512C164.971 88.2783 164.748 88.0356 164.591 87.7231C164.436 87.4089 164.358 87.0409 164.358 86.6191C164.358 86.2025 164.436 85.8354 164.591 85.5176C164.748 85.1999 164.967 84.9519 165.248 84.7736C165.53 84.5954 165.86 84.5062 166.238 84.5062C166.467 84.5062 166.69 84.5442 166.905 84.6201C167.121 84.696 167.314 84.8151 167.485 84.9775C167.656 85.1399 167.791 85.3508 167.89 85.6103C167.989 85.868 168.038 86.1813 168.038 86.5502V86.8309H164.806V86.2378H167.263C167.263 86.0295 167.22 85.8451 167.136 85.6844C167.051 85.522 166.932 85.3941 166.778 85.3005C166.626 85.207 166.448 85.1602 166.243 85.1602C166.021 85.1602 165.827 85.2149 165.661 85.3244C165.497 85.432 165.37 85.5732 165.28 85.748C165.191 85.921 165.147 86.1089 165.147 86.3119V86.7753C165.147 87.0471 165.195 87.2783 165.29 87.469C165.387 87.6596 165.522 87.8052 165.695 87.9058C165.868 88.0047 166.07 88.0541 166.302 88.0541C166.452 88.0541 166.588 88.0329 166.712 87.9905C166.835 87.9464 166.942 87.8811 167.032 87.7946C167.122 87.7081 167.191 87.6013 167.239 87.4742L167.988 87.6093C167.928 87.8299 167.82 88.0232 167.665 88.1891C167.511 88.3533 167.318 88.4812 167.085 88.573C166.854 88.663 166.59 88.7081 166.294 88.7081ZM169.708 83.2036V88.626H168.917V83.2036H169.708ZM171.565 83.2036V88.626H170.773V83.2036H171.565Z" fill="#6D6D6D"/>
<g clip-path="url(#clip5_6843_16983)">
<path d="M164.632 112.024C163.813 112.024 163.083 111.883 162.439 111.601C161.8 111.319 161.293 110.928 160.92 110.428C160.551 109.923 160.352 109.34 160.324 108.676H162.195C162.219 109.038 162.34 109.351 162.558 109.618C162.781 109.88 163.071 110.082 163.428 110.225C163.786 110.368 164.183 110.44 164.62 110.44C165.1 110.44 165.525 110.356 165.894 110.189C166.268 110.023 166.56 109.79 166.77 109.492C166.981 109.191 167.086 108.843 167.086 108.45C167.086 108.041 166.981 107.681 166.77 107.372C166.564 107.058 166.26 106.812 165.859 106.633C165.462 106.454 164.981 106.365 164.417 106.365H163.386V104.864H164.417C164.87 104.864 165.267 104.782 165.608 104.619C165.954 104.457 166.224 104.23 166.419 103.94C166.613 103.646 166.711 103.303 166.711 102.91C166.711 102.532 166.625 102.205 166.454 101.927C166.288 101.645 166.049 101.424 165.74 101.265C165.434 101.107 165.072 101.027 164.655 101.027C164.258 101.027 163.887 101.101 163.541 101.248C163.2 101.391 162.922 101.597 162.707 101.867C162.493 102.133 162.378 102.453 162.362 102.826H160.581C160.6 102.167 160.795 101.587 161.164 101.087C161.538 100.586 162.03 100.195 162.642 99.9132C163.253 99.6312 163.933 99.4902 164.679 99.4902C165.462 99.4902 166.137 99.6431 166.705 99.949C167.277 100.251 167.717 100.654 168.027 101.158C168.341 101.663 168.496 102.215 168.492 102.814C168.496 103.497 168.305 104.077 167.92 104.554C167.539 105.03 167.03 105.35 166.395 105.513V105.608C167.205 105.731 167.833 106.053 168.277 106.573C168.726 107.094 168.949 107.739 168.945 108.509C168.949 109.181 168.762 109.782 168.385 110.315C168.011 110.847 167.501 111.266 166.854 111.571C166.206 111.873 165.466 112.024 164.632 112.024ZM171.607 111.857L176.933 101.325V101.236H170.773V99.6571H178.839V101.289L173.532 111.857H171.607ZM179.672 109.475V107.985L184.944 99.6571H186.118V101.849H185.373L181.602 107.818V107.914H188.828V109.475H179.672ZM185.456 111.857V109.022L185.468 108.343V99.6571H187.214V111.857H185.456ZM191.315 111.857L196.641 101.325V101.236H190.481V99.6571H198.547V101.289L193.24 111.857H191.315ZM200.619 111.857V110.523L204.747 106.246C205.188 105.781 205.552 105.374 205.838 105.024C206.127 104.671 206.344 104.335 206.487 104.018C206.63 103.7 206.701 103.362 206.701 103.005C206.701 102.6 206.606 102.25 206.415 101.957C206.225 101.659 205.965 101.43 205.635 101.271C205.305 101.109 204.934 101.027 204.521 101.027C204.084 101.027 203.703 101.117 203.377 101.295C203.052 101.474 202.801 101.726 202.627 102.052C202.452 102.378 202.364 102.759 202.364 103.196H200.607C200.607 102.453 200.778 101.804 201.119 101.248C201.461 100.692 201.93 100.261 202.525 99.9549C203.121 99.6451 203.798 99.4902 204.557 99.4902C205.323 99.4902 205.998 99.6431 206.582 99.949C207.17 100.251 207.629 100.664 207.958 101.188C208.288 101.708 208.453 102.296 208.453 102.951C208.453 103.404 208.367 103.847 208.197 104.28C208.03 104.713 207.738 105.195 207.321 105.727C206.904 106.256 206.324 106.897 205.581 107.652L203.157 110.189V110.279H208.649V111.857H200.619Z" fill="#131313"/>
<line x1="210.56" y1="95.1396" x2="210.56" y2="116.575" stroke="#1C1C1C" stroke-width="0.69898"/>
</g>
<g filter="url(#filter1_d_6843_16983)">
<path d="M305.031 105.857C305.031 101.224 308.787 97.4678 313.42 97.4678H352.128C356.761 97.4678 360.517 101.224 360.517 105.857C360.517 110.49 356.761 114.246 352.128 114.246H313.42C308.787 114.246 305.031 110.49 305.031 105.857Z" fill="white"/>
<path d="M313.42 99.332C309.817 99.332 306.895 102.254 306.895 105.857C306.895 109.46 309.817 112.382 313.42 112.382C317.023 112.382 319.945 109.46 319.945 105.857C319.945 102.254 317.023 99.332 313.42 99.332Z" fill="url(#paint6_linear_6843_16983)"/>
<path d="M315.362 106.799C315.262 106.566 315.114 106.355 314.919 106.164C314.723 105.974 314.51 105.796 314.275 105.628C314.04 105.461 313.822 105.3 313.618 105.143C313.413 104.987 313.255 104.83 313.139 104.671C313.024 104.513 312.989 104.347 313.033 104.171C313.087 103.956 313.218 103.812 313.427 103.741C313.635 103.669 313.881 103.669 314.166 103.741C314.331 103.782 314.521 103.845 314.649 103.923C315.21 104.267 315.164 104.856 315.164 104.856L315.186 104.863L315.762 105.006L316.03 103.934C316.03 103.934 315.567 103.63 315.21 103.453C315.006 103.351 314.751 103.249 314.51 103.169L314.786 102.059L314.103 101.89L313.829 102.99C313.522 102.936 313.233 102.923 312.961 102.953C312.607 102.99 312.309 103.097 312.065 103.273C311.824 103.447 311.663 103.691 311.586 104.002C311.513 104.297 311.523 104.561 311.619 104.795C311.715 105.03 311.863 105.243 312.061 105.439C312.259 105.633 312.474 105.811 312.709 105.976C312.944 106.14 313.161 106.303 313.366 106.461C313.568 106.62 313.727 106.781 313.84 106.947C313.953 107.11 313.986 107.288 313.938 107.482C313.879 107.721 313.733 107.873 313.503 107.943C313.272 108.012 313.011 108.01 312.722 107.938C312.62 107.912 312.498 107.869 312.376 107.814C312.019 107.66 311.763 107.351 311.684 106.992C311.671 106.933 311.663 106.894 311.663 106.894L311.064 106.744L310.806 107.784C310.982 107.906 311.158 108.036 311.523 108.221C311.832 108.378 312.085 108.486 312.437 108.584L312.169 109.659L312.852 109.828L313.126 108.726C313.383 108.758 313.633 108.765 313.872 108.741C314.26 108.702 314.59 108.586 314.862 108.395C315.134 108.204 315.312 107.936 315.399 107.59C315.473 107.295 315.46 107.031 315.36 106.799H315.362Z" fill="white"/>
<path d="M325.383 102.959H326.516V106.74C326.516 107.09 326.438 107.393 326.281 107.651C326.125 107.909 325.909 108.107 325.632 108.247C325.355 108.386 325.033 108.456 324.666 108.456C324.339 108.456 324.042 108.399 323.776 108.284C323.511 108.167 323.301 107.991 323.146 107.754C322.99 107.516 322.914 107.217 322.915 106.857H324.057C324.06 107 324.089 107.122 324.144 107.225C324.2 107.325 324.277 107.403 324.374 107.458C324.473 107.511 324.59 107.537 324.724 107.537C324.865 107.537 324.984 107.507 325.081 107.447C325.18 107.385 325.255 107.295 325.306 107.177C325.357 107.059 325.383 106.913 325.383 106.74V102.959ZM330.813 102.959H331.96V106.481C331.96 106.876 331.865 107.222 331.677 107.519C331.489 107.815 331.227 108.046 330.89 108.212C330.553 108.377 330.16 108.459 329.712 108.459C329.262 108.459 328.868 108.377 328.531 108.212C328.194 108.046 327.932 107.815 327.745 107.519C327.558 107.222 327.464 106.876 327.464 106.481V102.959H328.611V106.383C328.611 106.589 328.656 106.773 328.746 106.934C328.837 107.094 328.966 107.22 329.132 107.312C329.298 107.404 329.491 107.45 329.712 107.45C329.934 107.45 330.128 107.404 330.292 107.312C330.458 107.22 330.586 107.094 330.676 106.934C330.768 106.773 330.813 106.589 330.813 106.383V102.959ZM335.845 104.519C335.823 104.305 335.733 104.139 335.572 104.021C335.411 103.903 335.193 103.844 334.918 103.844C334.731 103.844 334.573 103.87 334.444 103.923C334.315 103.974 334.216 104.046 334.147 104.138C334.08 104.229 334.047 104.334 334.047 104.45C334.043 104.547 334.064 104.632 334.108 104.704C334.154 104.777 334.216 104.839 334.296 104.892C334.375 104.943 334.467 104.988 334.571 105.027C334.675 105.064 334.786 105.096 334.905 105.123L335.392 105.239C335.628 105.292 335.845 105.363 336.043 105.451C336.241 105.539 336.412 105.648 336.557 105.777C336.702 105.905 336.814 106.057 336.893 106.232C336.974 106.407 337.016 106.607 337.018 106.833C337.016 107.165 336.931 107.453 336.763 107.696C336.597 107.938 336.357 108.126 336.043 108.26C335.731 108.392 335.354 108.459 334.913 108.459C334.475 108.459 334.094 108.392 333.769 108.257C333.446 108.123 333.193 107.925 333.012 107.662C332.832 107.397 332.737 107.069 332.728 106.679H333.838C333.85 106.861 333.902 107.013 333.994 107.135C334.087 107.255 334.212 107.346 334.367 107.408C334.524 107.468 334.702 107.498 334.899 107.498C335.094 107.498 335.262 107.469 335.405 107.413C335.55 107.356 335.662 107.278 335.741 107.177C335.821 107.077 335.86 106.961 335.86 106.83C335.86 106.709 335.824 106.606 335.752 106.523C335.681 106.44 335.577 106.37 335.44 106.311C335.304 106.253 335.137 106.2 334.939 106.153L334.349 106.004C333.892 105.893 333.531 105.719 333.266 105.483C333.001 105.246 332.87 104.928 332.871 104.527C332.87 104.199 332.957 103.912 333.133 103.666C333.312 103.421 333.556 103.23 333.867 103.092C334.177 102.954 334.53 102.885 334.926 102.885C335.328 102.885 335.68 102.954 335.98 103.092C336.281 103.23 336.516 103.421 336.684 103.666C336.852 103.912 336.938 104.196 336.943 104.519H335.845ZM339.711 108.382H337.789V102.959H339.727C340.272 102.959 340.742 103.068 341.135 103.285C341.529 103.5 341.832 103.81 342.043 104.214C342.257 104.619 342.364 105.102 342.364 105.665C342.364 106.23 342.257 106.716 342.043 107.122C341.832 107.528 341.527 107.839 341.13 108.056C340.735 108.273 340.262 108.382 339.711 108.382ZM338.935 107.4H339.663C340.002 107.4 340.287 107.34 340.518 107.22C340.751 107.098 340.926 106.91 341.043 106.656C341.161 106.4 341.22 106.07 341.22 105.665C341.22 105.265 341.161 104.937 341.043 104.683C340.926 104.429 340.752 104.242 340.521 104.122C340.29 104.002 340.005 103.942 339.666 103.942H338.935V107.4Z" fill="#2D2D2D"/>
<path d="M352.512 107.488L355.007 104.993C355.22 104.781 355.22 104.439 355.007 104.227C354.795 104.015 354.453 104.015 354.241 104.227L352.126 106.336L350.017 104.227C349.805 104.015 349.462 104.015 349.25 104.227C349.038 104.439 349.038 104.781 349.25 104.993L351.746 107.488C351.952 107.7 352.3 107.7 352.512 107.488Z" fill="#6D6D6D"/>
</g>
<path d="M161.131 128.488V122.557H161.511V128.488H161.131ZM162.319 124.396C162.295 124.177 162.193 124.007 162.014 123.887C161.834 123.765 161.609 123.704 161.337 123.704C161.143 123.704 160.974 123.735 160.832 123.796C160.69 123.857 160.58 123.94 160.501 124.047C160.424 124.152 160.385 124.271 160.385 124.406C160.385 124.518 160.411 124.616 160.464 124.697C160.518 124.779 160.588 124.848 160.675 124.904C160.763 124.958 160.857 125.003 160.957 125.04C161.058 125.076 161.154 125.105 161.247 125.128L161.71 125.249C161.862 125.286 162.017 125.336 162.176 125.399C162.335 125.463 162.482 125.546 162.618 125.65C162.754 125.753 162.864 125.881 162.947 126.034C163.032 126.187 163.075 126.37 163.075 126.583C163.075 126.852 163.005 127.091 162.866 127.299C162.729 127.508 162.529 127.672 162.266 127.793C162.005 127.913 161.689 127.973 161.319 127.973C160.963 127.973 160.656 127.917 160.397 127.804C160.137 127.691 159.934 127.532 159.787 127.325C159.641 127.116 159.559 126.869 159.544 126.583H160.262C160.276 126.755 160.332 126.898 160.429 127.012C160.528 127.125 160.654 127.209 160.807 127.264C160.961 127.318 161.13 127.345 161.314 127.345C161.516 127.345 161.696 127.314 161.854 127.25C162.013 127.186 162.138 127.096 162.229 126.982C162.32 126.866 162.366 126.731 162.366 126.576C162.366 126.436 162.326 126.321 162.245 126.231C162.167 126.142 162.059 126.067 161.923 126.009C161.789 125.95 161.637 125.898 161.467 125.854L160.906 125.701C160.526 125.597 160.225 125.445 160.003 125.244C159.782 125.043 159.671 124.778 159.671 124.447C159.671 124.174 159.746 123.935 159.894 123.731C160.042 123.528 160.243 123.369 160.496 123.257C160.75 123.142 161.035 123.085 161.353 123.085C161.675 123.085 161.958 123.141 162.204 123.254C162.451 123.367 162.645 123.522 162.787 123.72C162.93 123.916 163.004 124.141 163.01 124.396H162.319ZM165.517 127.959C165.199 127.959 164.915 127.905 164.665 127.795C164.416 127.685 164.219 127.533 164.074 127.339C163.93 127.142 163.853 126.915 163.842 126.657H164.57C164.579 126.798 164.626 126.92 164.711 127.023C164.797 127.125 164.91 127.204 165.049 127.26C165.188 127.315 165.343 127.343 165.512 127.343C165.699 127.343 165.865 127.311 166.008 127.246C166.153 127.181 166.267 127.091 166.349 126.975C166.431 126.857 166.472 126.722 166.472 126.569C166.472 126.41 166.431 126.271 166.349 126.15C166.268 126.028 166.15 125.932 165.994 125.863C165.84 125.793 165.653 125.759 165.434 125.759H165.033V125.175H165.434C165.61 125.175 165.764 125.143 165.897 125.08C166.031 125.016 166.136 124.928 166.212 124.816C166.288 124.701 166.326 124.568 166.326 124.415C166.326 124.268 166.292 124.141 166.226 124.033C166.161 123.923 166.068 123.837 165.948 123.775C165.829 123.714 165.689 123.683 165.526 123.683C165.372 123.683 165.227 123.711 165.093 123.768C164.96 123.824 164.852 123.904 164.769 124.009C164.685 124.113 164.641 124.237 164.634 124.382H163.942C163.949 124.126 164.025 123.901 164.169 123.706C164.314 123.511 164.505 123.359 164.743 123.25C164.981 123.14 165.245 123.085 165.536 123.085C165.84 123.085 166.102 123.145 166.323 123.263C166.546 123.381 166.717 123.538 166.838 123.734C166.96 123.93 167.02 124.145 167.018 124.378C167.02 124.643 166.946 124.869 166.796 125.054C166.648 125.24 166.45 125.364 166.203 125.427V125.464C166.518 125.512 166.762 125.637 166.935 125.84C167.109 126.042 167.196 126.293 167.194 126.593C167.196 126.854 167.123 127.088 166.977 127.295C166.831 127.501 166.633 127.664 166.381 127.783C166.129 127.901 165.841 127.959 165.517 127.959ZM168.23 127.895L170.301 123.799V123.764H167.906V123.15H171.042V123.785L168.978 127.895H168.23ZM171.943 127.246L171.908 127.498C171.885 127.684 171.846 127.877 171.79 128.078C171.736 128.28 171.68 128.468 171.621 128.641C171.564 128.813 171.517 128.951 171.48 129.053H170.989C171.009 128.957 171.036 128.827 171.072 128.664C171.107 128.502 171.142 128.32 171.176 128.119C171.21 127.918 171.236 127.714 171.253 127.505L171.276 127.246H171.943ZM172.812 126.968V126.389L174.863 123.15H175.319V124.002H175.029L173.563 126.324V126.361H176.373V126.968H172.812ZM175.062 127.895V126.792L175.066 126.528V123.15H175.745V127.895H175.062ZM177.34 127.895L179.411 123.799V123.764H177.016V123.15H180.153V123.785L178.089 127.895H177.34ZM180.958 127.895V127.376L182.564 125.712C182.735 125.532 182.877 125.373 182.988 125.237C183.101 125.1 183.185 124.969 183.24 124.846C183.296 124.722 183.324 124.591 183.324 124.452C183.324 124.294 183.287 124.158 183.213 124.044C183.138 123.928 183.037 123.84 182.909 123.778C182.781 123.714 182.636 123.683 182.476 123.683C182.306 123.683 182.158 123.718 182.031 123.787C181.904 123.857 181.807 123.955 181.739 124.081C181.671 124.208 181.637 124.356 181.637 124.526H180.954C180.954 124.237 181.02 123.985 181.153 123.768C181.286 123.552 181.468 123.385 181.7 123.266C181.931 123.145 182.195 123.085 182.49 123.085C182.788 123.085 183.05 123.145 183.277 123.263C183.506 123.381 183.684 123.541 183.813 123.745C183.941 123.948 184.005 124.176 184.005 124.431C184.005 124.607 183.972 124.779 183.905 124.948C183.84 125.116 183.727 125.304 183.565 125.511C183.403 125.716 183.177 125.965 182.888 126.259L181.945 127.246V127.281H184.081V127.895H180.958ZM185.425 127.939C185.298 127.939 185.189 127.894 185.098 127.804C185.007 127.713 184.962 127.603 184.962 127.475C184.962 127.349 185.007 127.24 185.098 127.151C185.189 127.06 185.298 127.014 185.425 127.014C185.552 127.014 185.661 127.06 185.752 127.151C185.843 127.24 185.888 127.349 185.888 127.475C185.888 127.56 185.867 127.638 185.823 127.709C185.782 127.779 185.726 127.834 185.657 127.876C185.587 127.918 185.51 127.939 185.425 127.939ZM186.807 127.895V127.376L188.412 125.712C188.584 125.532 188.725 125.373 188.836 125.237C188.949 125.1 189.033 124.969 189.089 124.846C189.144 124.722 189.172 124.591 189.172 124.452C189.172 124.294 189.135 124.158 189.061 124.044C188.987 123.928 188.886 123.84 188.758 123.778C188.629 123.714 188.485 123.683 188.324 123.683C188.154 123.683 188.006 123.718 187.88 123.787C187.753 123.857 187.656 123.955 187.588 124.081C187.52 124.208 187.486 124.356 187.486 124.526H186.802C186.802 124.237 186.869 123.985 187.002 123.768C187.134 123.552 187.317 123.385 187.548 123.266C187.78 123.145 188.043 123.085 188.338 123.085C188.636 123.085 188.899 123.145 189.126 123.263C189.354 123.381 189.533 123.541 189.661 123.745C189.789 123.948 189.853 124.176 189.853 124.431C189.853 124.607 189.82 124.779 189.754 124.948C189.689 125.116 189.575 125.304 189.413 125.511C189.251 125.716 189.026 125.965 188.737 126.259L187.794 127.246V127.281H189.93V127.895H186.807ZM192.608 123.15V127.895H191.89V123.868H191.862L190.727 124.609V123.924L191.911 123.15H192.608Z" fill="#6D6D6D"/>
<path d="M149.891 149.66C149.891 144.512 154.063 140.34 159.21 140.34H356.789C361.936 140.34 366.108 144.512 366.108 149.66V196.258C366.108 201.405 361.936 205.578 356.789 205.578H159.21C154.063 205.578 149.891 201.405 149.891 196.258V149.66Z" fill="url(#paint7_linear_6843_16983)"/>
<path d="M159.806 155.728V150.305H161.792C162.177 150.305 162.495 150.369 162.748 150.496C163 150.621 163.189 150.791 163.314 151.007C163.44 151.22 163.502 151.461 163.502 151.73C163.502 151.956 163.461 152.146 163.378 152.301C163.295 152.455 163.184 152.579 163.044 152.672C162.907 152.764 162.755 152.831 162.589 152.873V152.926C162.769 152.935 162.945 152.993 163.116 153.101C163.289 153.207 163.432 153.358 163.545 153.554C163.658 153.75 163.714 153.988 163.714 154.269C163.714 154.546 163.649 154.795 163.518 155.015C163.389 155.234 163.19 155.408 162.92 155.537C162.65 155.664 162.305 155.728 161.885 155.728H159.806ZM160.624 155.026H161.805C162.197 155.026 162.478 154.95 162.647 154.798C162.817 154.646 162.901 154.457 162.901 154.229C162.901 154.058 162.858 153.901 162.772 153.758C162.685 153.615 162.561 153.501 162.401 153.416C162.242 153.331 162.053 153.289 161.834 153.289H160.624V155.026ZM160.624 152.651H161.72C161.904 152.651 162.069 152.616 162.216 152.545C162.364 152.474 162.481 152.376 162.568 152.249C162.656 152.12 162.7 151.968 162.7 151.793C162.7 151.569 162.622 151.381 162.464 151.229C162.307 151.077 162.066 151.001 161.742 151.001H160.624V152.651ZM167.197 154.041V151.661H167.991V155.728H167.213V155.023H167.171C167.077 155.24 166.927 155.421 166.721 155.566C166.516 155.709 166.261 155.78 165.955 155.78C165.694 155.78 165.463 155.723 165.262 155.608C165.062 155.492 164.905 155.32 164.79 155.092C164.677 154.864 164.621 154.583 164.621 154.248V151.661H165.413V154.152C165.413 154.429 165.489 154.65 165.643 154.814C165.796 154.978 165.996 155.06 166.241 155.06C166.39 155.06 166.537 155.023 166.683 154.949C166.832 154.875 166.954 154.763 167.051 154.613C167.15 154.463 167.199 154.272 167.197 154.041ZM169.555 157.253C169.437 157.253 169.33 157.243 169.232 157.223C169.135 157.206 169.063 157.186 169.015 157.165L169.206 156.517C169.351 156.555 169.48 156.572 169.593 156.567C169.706 156.562 169.805 156.519 169.892 156.44C169.98 156.36 170.058 156.231 170.125 156.051L170.223 155.78L168.735 151.661H169.582L170.612 154.817H170.654L171.684 151.661H172.534L170.858 156.27C170.78 156.482 170.682 156.661 170.562 156.808C170.442 156.956 170.299 157.067 170.133 157.141C169.967 157.216 169.774 157.253 169.555 157.253Z" fill="white"/>
<path d="M164.632 179.162C163.69 179.158 162.886 178.909 162.219 178.417C161.552 177.924 161.041 177.208 160.688 176.266C160.334 175.325 160.158 174.191 160.158 172.865C160.158 171.542 160.334 170.412 160.688 169.475C161.045 168.538 161.558 167.823 162.225 167.331C162.896 166.838 163.698 166.592 164.632 166.592C165.565 166.592 166.365 166.84 167.032 167.336C167.699 167.829 168.21 168.544 168.563 169.481C168.921 170.414 169.099 171.542 169.099 172.865C169.099 174.195 168.923 175.331 168.569 176.272C168.216 177.21 167.705 177.926 167.038 178.423C166.371 178.915 165.569 179.162 164.632 179.162ZM164.632 177.571C165.458 177.571 166.103 177.168 166.568 176.362C167.036 175.555 167.271 174.39 167.271 172.865C167.271 171.852 167.163 170.996 166.949 170.297C166.738 169.594 166.435 169.062 166.037 168.701C165.644 168.335 165.176 168.153 164.632 168.153C163.809 168.153 163.164 168.558 162.695 169.368C162.227 170.178 161.99 171.344 161.987 172.865C161.987 173.881 162.092 174.741 162.302 175.444C162.517 176.143 162.821 176.673 163.214 177.035C163.607 177.392 164.079 177.571 164.632 177.571ZM171.968 179.072C171.642 179.072 171.362 178.957 171.128 178.727C170.894 178.492 170.776 178.21 170.776 177.881C170.776 177.555 170.894 177.277 171.128 177.047C171.362 176.812 171.642 176.695 171.968 176.695C172.293 176.695 172.573 176.812 172.808 177.047C173.042 177.277 173.159 177.555 173.159 177.881C173.159 178.099 173.104 178.3 172.992 178.482C172.885 178.661 172.742 178.804 172.564 178.911C172.385 179.019 172.186 179.072 171.968 179.072ZM179.326 179.126C178.508 179.126 177.778 178.985 177.134 178.703C176.495 178.421 175.988 178.03 175.615 177.529C175.246 177.025 175.047 176.441 175.019 175.778H176.89C176.914 176.139 177.035 176.453 177.253 176.719C177.476 176.981 177.766 177.184 178.123 177.327C178.481 177.47 178.878 177.541 179.315 177.541C179.795 177.541 180.22 177.458 180.589 177.291C180.963 177.124 181.255 176.892 181.465 176.594C181.676 176.292 181.781 175.945 181.781 175.551C181.781 175.142 181.676 174.783 181.465 174.473C181.259 174.159 180.955 173.913 180.554 173.735C180.157 173.556 179.676 173.466 179.112 173.466H178.081V171.965H179.112C179.565 171.965 179.962 171.884 180.303 171.721C180.649 171.558 180.919 171.332 181.114 171.042C181.308 170.748 181.406 170.404 181.406 170.011C181.406 169.634 181.32 169.306 181.149 169.028C180.983 168.746 180.744 168.526 180.435 168.367C180.129 168.208 179.767 168.129 179.35 168.129C178.953 168.129 178.582 168.202 178.236 168.349C177.895 168.492 177.617 168.699 177.402 168.969C177.188 169.235 177.073 169.555 177.057 169.928H175.276C175.295 169.269 175.49 168.689 175.859 168.188C176.233 167.688 176.725 167.297 177.337 167.015C177.948 166.733 178.627 166.592 179.374 166.592C180.157 166.592 180.832 166.745 181.4 167.051C181.971 167.352 182.412 167.755 182.722 168.26C183.036 168.764 183.191 169.316 183.187 169.916C183.191 170.599 183 171.179 182.615 171.655C182.234 172.132 181.725 172.452 181.09 172.615V172.71C181.9 172.833 182.527 173.155 182.972 173.675C183.421 174.195 183.643 174.841 183.639 175.611C183.643 176.282 183.457 176.884 183.08 177.416C182.706 177.948 182.196 178.367 181.549 178.673C180.901 178.975 180.16 179.126 179.326 179.126ZM190.139 179.126C189.321 179.126 188.59 178.985 187.947 178.703C187.307 178.421 186.801 178.03 186.427 177.529C186.058 177.025 185.86 176.441 185.832 175.778H187.702C187.726 176.139 187.847 176.453 188.066 176.719C188.288 176.981 188.578 177.184 188.935 177.327C189.293 177.47 189.69 177.541 190.127 177.541C190.607 177.541 191.032 177.458 191.402 177.291C191.775 177.124 192.067 176.892 192.277 176.594C192.488 176.292 192.593 175.945 192.593 175.551C192.593 175.142 192.488 174.783 192.277 174.473C192.071 174.159 191.767 173.913 191.366 173.735C190.969 173.556 190.488 173.466 189.924 173.466H188.894V171.965H189.924C190.377 171.965 190.774 171.884 191.116 171.721C191.461 171.558 191.731 171.332 191.926 171.042C192.121 170.748 192.218 170.404 192.218 170.011C192.218 169.634 192.132 169.306 191.962 169.028C191.795 168.746 191.557 168.526 191.247 168.367C190.941 168.208 190.58 168.129 190.163 168.129C189.765 168.129 189.394 168.202 189.049 168.349C188.707 168.492 188.429 168.699 188.215 168.969C188 169.235 187.885 169.555 187.869 169.928H186.088C186.108 169.269 186.302 168.689 186.672 168.188C187.045 167.688 187.537 167.297 188.149 167.015C188.761 166.733 189.44 166.592 190.186 166.592C190.969 166.592 191.644 166.745 192.212 167.051C192.784 167.352 193.225 167.755 193.534 168.26C193.848 168.764 194.003 169.316 193.999 169.916C194.003 170.599 193.812 171.179 193.427 171.655C193.046 172.132 192.538 172.452 191.902 172.615V172.71C192.712 172.833 193.34 173.155 193.785 173.675C194.233 174.195 194.456 174.841 194.452 175.611C194.456 176.282 194.269 176.884 193.892 177.416C193.519 177.948 193.008 178.367 192.361 178.673C191.713 178.975 190.973 179.126 190.139 179.126Z" fill="white"/>
<g filter="url(#filter2_d_6843_16983)">
<path d="M302.734 172.958C302.734 168.326 306.49 164.57 311.122 164.57H352.129C356.761 164.57 360.517 168.326 360.517 172.958C360.517 177.59 356.761 181.346 352.129 181.346H311.122C306.49 181.346 302.734 177.59 302.734 172.958Z" fill="white"/>
<g clip-path="url(#clip6_6843_16983)">
<mask id="mask0_6843_16983" style="mask-type:alpha" maskUnits="userSpaceOnUse" x="304" y="166" width="14" height="14">
<path d="M311.075 166.387C314.677 166.387 317.598 169.307 317.598 172.91C317.598 173.582 317.497 174.23 317.308 174.84C316.747 174.16 315.898 173.727 314.948 173.727C313.259 173.727 311.89 175.095 311.89 176.784C311.89 177.734 312.323 178.583 313.002 179.144C312.393 179.332 311.746 179.435 311.075 179.435C307.472 179.435 304.55 176.513 304.55 172.91C304.551 169.307 307.472 166.387 311.075 166.387Z" fill="#D9D9D9"/>
</mask>
<g mask="url(#mask0_6843_16983)">
<circle cx="311.122" cy="172.958" r="6.52381" fill="#F7911A"/>
<path d="M312.555 170.228L312.881 169.005L312.147 168.801L311.861 169.983C311.658 169.942 311.454 169.902 311.25 169.861L311.535 168.638L310.761 168.475L310.475 169.698C310.312 169.657 310.149 169.616 309.986 169.575L308.967 169.331L308.763 170.146C308.763 170.146 309.334 170.269 309.293 170.269C309.578 170.35 309.66 170.554 309.66 170.717L308.803 174.06C308.763 174.142 308.681 174.305 308.437 174.224L307.907 174.101L307.54 174.957L308.518 175.202L309.048 175.324L308.722 176.548L309.456 176.751L309.782 175.528C309.986 175.569 310.19 175.651 310.394 175.691L310.108 176.915L310.842 177.118L311.168 175.895C312.432 176.14 313.411 176.058 313.819 174.876C314.145 173.938 313.819 173.408 313.125 173.082C313.615 172.96 313.982 172.633 314.063 171.981C314.185 171.043 313.533 170.554 312.555 170.228ZM312.351 174.346C312.106 175.284 310.557 174.754 310.067 174.631L310.475 173C310.964 173.123 312.595 173.367 312.351 174.346ZM312.595 171.94C312.391 172.796 311.087 172.348 310.679 172.266L311.046 170.758C311.454 170.839 312.799 171.043 312.595 171.94Z" fill="white"/>
</g>
<g clip-path="url(#clip7_6843_16983)">
<circle cx="314.996" cy="177.309" r="2.6503" fill="#F17D00"/>
<path d="M314.996 176.859C314.895 176.859 314.804 176.807 314.754 176.72L314.072 175.541H315.919L315.237 176.72C315.187 176.807 315.096 176.859 314.996 176.859Z" fill="white"/>
<path d="M315.627 177.223C315.526 177.223 315.436 177.171 315.385 177.083C315.335 176.996 315.335 176.892 315.385 176.805L316.067 175.626L316.991 177.223H315.627H315.627Z" fill="white"/>
<path d="M314.072 179.075L314.754 177.896C314.804 177.809 314.895 177.757 314.996 177.757C315.096 177.757 315.187 177.809 315.237 177.896L315.919 179.075H314.072Z" fill="white"/>
<path d="M315.385 177.811C315.335 177.724 315.335 177.62 315.385 177.532C315.436 177.445 315.526 177.393 315.627 177.393H316.991L316.067 178.989L315.385 177.811L315.385 177.811Z" fill="white"/>
<path d="M313 177.223L313.924 175.626L314.606 176.805C314.656 176.892 314.656 176.996 314.606 177.083C314.555 177.171 314.465 177.223 314.364 177.223H313Z" fill="white"/>
<path d="M313 177.393H314.364C314.465 177.393 314.556 177.445 314.606 177.532C314.656 177.62 314.656 177.724 314.606 177.811L313.924 178.989L313 177.393Z" fill="white"/>
</g>
</g>
<path d="M322.729 175.562C322.313 175.562 321.955 175.474 321.655 175.297C321.356 175.119 321.127 174.872 320.966 174.556C320.807 174.24 320.728 173.876 320.728 173.465C320.728 173.048 320.808 172.683 320.969 172.369C321.131 172.053 321.362 171.807 321.66 171.63C321.958 171.452 322.313 171.363 322.724 171.363C323.079 171.363 323.39 171.427 323.656 171.556C323.923 171.685 324.134 171.866 324.289 172.099C324.444 172.332 324.53 172.605 324.546 172.919H323.481C323.451 172.717 323.372 172.553 323.243 172.43C323.116 172.304 322.949 172.242 322.743 172.242C322.568 172.242 322.415 172.289 322.285 172.385C322.156 172.478 322.055 172.615 321.983 172.795C321.91 172.975 321.874 173.193 321.874 173.449C321.874 173.708 321.91 173.929 321.98 174.111C322.053 174.293 322.154 174.431 322.285 174.527C322.415 174.622 322.568 174.67 322.743 174.67C322.872 174.67 322.987 174.643 323.09 174.59C323.194 174.537 323.279 174.46 323.346 174.36C323.415 174.257 323.46 174.135 323.481 173.992H324.546C324.528 174.302 324.443 174.576 324.292 174.813C324.142 175.047 323.934 175.231 323.669 175.363C323.405 175.496 323.091 175.562 322.729 175.562ZM325.289 175.482V170.06H327.46C327.859 170.06 328.192 170.119 328.458 170.237C328.725 170.356 328.925 170.52 329.059 170.73C329.193 170.938 329.261 171.178 329.261 171.45C329.261 171.662 329.218 171.848 329.133 172.009C329.049 172.168 328.932 172.298 328.784 172.401C328.637 172.501 328.47 172.573 328.281 172.615V172.668C328.487 172.677 328.681 172.735 328.861 172.843C329.043 172.95 329.19 173.101 329.303 173.295C329.416 173.488 329.472 173.717 329.472 173.984C329.472 174.272 329.401 174.528 329.258 174.754C329.117 174.978 328.908 175.156 328.63 175.286C328.353 175.417 328.012 175.482 327.606 175.482H325.289ZM326.436 174.545H327.37C327.69 174.545 327.923 174.484 328.069 174.362C328.216 174.239 328.289 174.075 328.289 173.87C328.289 173.72 328.253 173.588 328.18 173.473C328.108 173.358 328.005 173.268 327.871 173.203C327.738 173.137 327.58 173.105 327.397 173.105H326.436V174.545ZM326.436 172.329H327.285C327.443 172.329 327.582 172.302 327.704 172.247C327.827 172.191 327.924 172.111 327.995 172.009C328.067 171.906 328.104 171.784 328.104 171.641C328.104 171.445 328.034 171.287 327.894 171.167C327.757 171.047 327.561 170.987 327.307 170.987H326.436V172.329ZM330.012 171.005V170.06H334.465V171.005H332.805V175.482H331.672V171.005H330.012ZM339.735 171.958H338.576C338.554 171.808 338.511 171.675 338.446 171.559C338.381 171.44 338.297 171.34 338.194 171.257C338.092 171.174 337.974 171.11 337.84 171.066C337.707 171.022 337.563 171 337.408 171C337.127 171 336.883 171.07 336.675 171.209C336.466 171.347 336.305 171.548 336.19 171.813C336.075 172.076 336.018 172.395 336.018 172.771C336.018 173.158 336.075 173.483 336.19 173.746C336.307 174.009 336.469 174.207 336.677 174.341C336.886 174.475 337.127 174.543 337.4 174.543C337.554 174.543 337.696 174.522 337.826 174.482C337.959 174.441 338.076 174.382 338.179 174.304C338.281 174.225 338.366 174.129 338.433 174.016C338.502 173.903 338.549 173.774 338.576 173.629L339.735 173.634C339.705 173.883 339.63 174.123 339.51 174.355C339.392 174.584 339.232 174.79 339.031 174.971C338.832 175.151 338.593 175.294 338.316 175.4C338.041 175.504 337.729 175.557 337.382 175.557C336.898 175.557 336.465 175.447 336.084 175.228C335.705 175.009 335.405 174.693 335.184 174.278C334.965 173.863 334.856 173.361 334.856 172.771C334.856 172.18 334.967 171.677 335.189 171.262C335.412 170.847 335.714 170.531 336.095 170.314C336.476 170.095 336.905 169.986 337.382 169.986C337.696 169.986 337.987 170.03 338.255 170.118C338.525 170.207 338.765 170.335 338.973 170.505C339.181 170.673 339.351 170.878 339.481 171.122C339.614 171.365 339.698 171.644 339.735 171.958Z" fill="#2D2D2D"/>
<path d="M352.512 174.589L355.007 172.094C355.22 171.882 355.22 171.539 355.007 171.327C354.795 171.115 354.453 171.115 354.241 171.327L352.126 173.436L350.017 171.327C349.805 171.115 349.462 171.115 349.25 171.327C349.038 171.539 349.038 171.882 349.25 172.094L351.746 174.589C351.952 174.801 352.3 174.801 352.512 174.589Z" fill="#6D6D6D"/>
</g>
<path d="M161.131 195.589V189.658H161.511V195.589H161.131ZM162.319 191.498C162.295 191.279 162.193 191.109 162.014 190.988C161.834 190.866 161.609 190.805 161.337 190.805C161.143 190.805 160.974 190.836 160.832 190.898C160.69 190.958 160.58 191.041 160.501 191.148C160.424 191.253 160.385 191.373 160.385 191.507C160.385 191.62 160.411 191.717 160.464 191.799C160.518 191.881 160.588 191.95 160.675 192.005C160.763 192.059 160.857 192.105 160.957 192.142C161.058 192.177 161.154 192.207 161.247 192.23L161.71 192.35C161.862 192.387 162.017 192.438 162.176 192.501C162.335 192.564 162.482 192.648 162.618 192.751C162.754 192.855 162.864 192.983 162.947 193.136C163.032 193.289 163.075 193.472 163.075 193.685C163.075 193.954 163.005 194.192 162.866 194.401C162.729 194.609 162.529 194.774 162.266 194.894C162.005 195.015 161.689 195.075 161.319 195.075C160.963 195.075 160.656 195.018 160.397 194.906C160.137 194.793 159.934 194.633 159.787 194.426C159.641 194.218 159.559 193.971 159.544 193.685H160.262C160.276 193.856 160.332 193.999 160.429 194.113C160.528 194.226 160.654 194.31 160.807 194.366C160.961 194.42 161.13 194.447 161.314 194.447C161.516 194.447 161.696 194.415 161.854 194.352C162.013 194.287 162.138 194.198 162.229 194.083C162.32 193.967 162.366 193.832 162.366 193.678C162.366 193.537 162.326 193.422 162.245 193.333C162.167 193.243 162.059 193.169 161.923 193.11C161.789 193.052 161.637 193 161.467 192.955L160.906 192.802C160.526 192.699 160.225 192.547 160.003 192.346C159.782 192.145 159.671 191.879 159.671 191.549C159.671 191.275 159.746 191.037 159.894 190.833C160.042 190.629 160.243 190.471 160.496 190.358C160.75 190.244 161.035 190.187 161.353 190.187C161.675 190.187 161.958 190.243 162.204 190.356C162.451 190.469 162.645 190.624 162.787 190.821C162.93 191.018 163.004 191.243 163.01 191.498H162.319ZM165.517 195.061C165.199 195.061 164.915 195.006 164.665 194.896C164.416 194.787 164.219 194.635 164.074 194.44C163.93 194.244 163.853 194.017 163.842 193.759H164.57C164.579 193.9 164.626 194.022 164.711 194.125C164.797 194.227 164.91 194.306 165.049 194.361C165.188 194.417 165.343 194.445 165.512 194.445C165.699 194.445 165.865 194.412 166.008 194.347C166.153 194.283 166.267 194.192 166.349 194.076C166.431 193.959 166.472 193.824 166.472 193.671C166.472 193.512 166.431 193.372 166.349 193.252C166.268 193.13 166.15 193.034 165.994 192.964C165.84 192.895 165.653 192.86 165.434 192.86H165.033V192.276H165.434C165.61 192.276 165.764 192.245 165.897 192.181C166.031 192.118 166.136 192.03 166.212 191.917C166.288 191.803 166.326 191.669 166.326 191.516C166.326 191.37 166.292 191.242 166.226 191.134C166.161 191.025 166.068 190.939 165.948 190.877C165.829 190.815 165.689 190.784 165.526 190.784C165.372 190.784 165.227 190.813 165.093 190.87C164.96 190.926 164.852 191.006 164.769 191.111C164.685 191.214 164.641 191.339 164.634 191.484H163.942C163.949 191.228 164.025 191.002 164.169 190.808C164.314 190.613 164.505 190.461 164.743 190.351C164.981 190.241 165.245 190.187 165.536 190.187C165.84 190.187 166.102 190.246 166.323 190.365C166.546 190.482 166.717 190.639 166.838 190.835C166.96 191.031 167.02 191.246 167.018 191.479C167.02 191.745 166.946 191.97 166.796 192.156C166.648 192.341 166.45 192.465 166.203 192.529V192.566C166.518 192.614 166.762 192.739 166.935 192.941C167.109 193.144 167.196 193.394 167.194 193.694C167.196 193.955 167.123 194.189 166.977 194.396C166.831 194.603 166.633 194.766 166.381 194.885C166.129 195.002 165.841 195.061 165.517 195.061ZM168.23 194.996L170.301 190.9V190.865H167.906V190.252H171.042V190.886L168.978 194.996H168.23ZM171.943 194.347L171.908 194.6C171.885 194.785 171.846 194.978 171.79 195.179C171.736 195.381 171.68 195.569 171.621 195.742C171.564 195.915 171.517 196.053 171.48 196.154H170.989C171.009 196.059 171.036 195.929 171.072 195.765C171.107 195.603 171.142 195.422 171.176 195.221C171.21 195.02 171.236 194.815 171.253 194.607L171.276 194.347H171.943ZM172.812 194.069V193.49L174.863 190.252H175.319V191.104H175.029L173.563 193.425V193.462H176.373V194.069H172.812ZM175.062 194.996V193.893L175.066 193.629V190.252H175.745V194.996H175.062ZM177.34 194.996L179.411 190.9V190.865H177.016V190.252H180.153V190.886L178.089 194.996H177.34ZM180.958 194.996V194.477L182.564 192.814C182.735 192.633 182.877 192.475 182.988 192.339C183.101 192.201 183.185 192.071 183.24 191.947C183.296 191.824 183.324 191.692 183.324 191.553C183.324 191.396 183.287 191.26 183.213 191.146C183.138 191.03 183.037 190.941 182.909 190.879C182.781 190.816 182.636 190.784 182.476 190.784C182.306 190.784 182.158 190.819 182.031 190.889C181.904 190.958 181.807 191.056 181.739 191.183C181.671 191.309 181.637 191.458 181.637 191.628H180.954C180.954 191.339 181.02 191.086 181.153 190.87C181.286 190.654 181.468 190.486 181.7 190.367C181.931 190.247 182.195 190.187 182.49 190.187C182.788 190.187 183.05 190.246 183.277 190.365C183.506 190.482 183.684 190.643 183.813 190.847C183.941 191.049 184.005 191.278 184.005 191.533C184.005 191.709 183.972 191.881 183.905 192.049C183.84 192.218 183.727 192.405 183.565 192.612C183.403 192.818 183.177 193.067 182.888 193.361L181.945 194.347V194.382H184.081V194.996H180.958ZM185.425 195.04C185.298 195.04 185.189 194.995 185.098 194.906C185.007 194.815 184.962 194.705 184.962 194.577C184.962 194.45 185.007 194.342 185.098 194.252C185.189 194.161 185.298 194.116 185.425 194.116C185.552 194.116 185.661 194.161 185.752 194.252C185.843 194.342 185.888 194.45 185.888 194.577C185.888 194.662 185.867 194.74 185.823 194.811C185.782 194.88 185.726 194.936 185.657 194.978C185.587 195.019 185.51 195.04 185.425 195.04ZM186.807 194.996V194.477L188.412 192.814C188.584 192.633 188.725 192.475 188.836 192.339C188.949 192.201 189.033 192.071 189.089 191.947C189.144 191.824 189.172 191.692 189.172 191.553C189.172 191.396 189.135 191.26 189.061 191.146C188.987 191.03 188.886 190.941 188.758 190.879C188.629 190.816 188.485 190.784 188.324 190.784C188.154 190.784 188.006 190.819 187.88 190.889C187.753 190.958 187.656 191.056 187.588 191.183C187.52 191.309 187.486 191.458 187.486 191.628H186.802C186.802 191.339 186.869 191.086 187.002 190.87C187.134 190.654 187.317 190.486 187.548 190.367C187.78 190.247 188.043 190.187 188.338 190.187C188.636 190.187 188.899 190.246 189.126 190.365C189.354 190.482 189.533 190.643 189.661 190.847C189.789 191.049 189.853 191.278 189.853 191.533C189.853 191.709 189.82 191.881 189.754 192.049C189.689 192.218 189.575 192.405 189.413 192.612C189.251 192.818 189.026 193.067 188.737 193.361L187.794 194.347V194.382H189.93V194.996H186.807ZM192.608 190.252V194.996H191.89V190.97H191.862L190.727 191.711V191.025L191.911 190.252H192.608Z" fill="white"/>
<path d="M262.192 128.457C265.667 128.457 268.483 131.274 268.483 134.748V143.136C268.483 146.61 265.667 149.427 262.192 149.427H253.805C250.33 149.427 247.514 146.61 247.514 143.136V134.748C247.514 131.274 250.33 128.457 253.805 128.457H262.192Z" fill="#F57F00"/>
<path d="M262.192 128.457C265.667 128.457 268.483 131.274 268.483 134.748V143.136C268.483 146.61 265.667 149.427 262.192 149.427H253.805C250.33 149.427 247.514 146.61 247.514 143.136V134.748C247.514 131.274 250.33 128.457 253.805 128.457H262.192Z" stroke="white" stroke-width="1.39796"/>
<path d="M257.416 134.987L257.416 141.493L254.573 138.651C254.346 138.423 253.973 138.423 253.746 138.651C253.519 138.878 253.519 139.245 253.746 139.472L257.585 143.31C257.812 143.538 258.179 143.538 258.406 143.31L262.251 139.478C262.478 139.251 262.478 138.884 262.251 138.656C262.023 138.429 261.656 138.429 261.429 138.656L258.581 141.493L258.581 134.987C258.581 134.666 258.319 134.404 257.998 134.404C257.678 134.404 257.416 134.666 257.416 134.987Z" fill="white"/>
<rect x="149.891" y="207.442" width="216.218" height="26.0952" rx="9.31973" fill="#F7911A" fill-opacity="0.15"/>
<path d="M238.761 218.633C238.717 218.48 238.655 218.344 238.575 218.227C238.496 218.107 238.398 218.007 238.283 217.925C238.17 217.841 238.04 217.777 237.893 217.733C237.749 217.689 237.588 217.667 237.412 217.667C237.083 217.667 236.794 217.749 236.544 217.913C236.297 218.076 236.104 218.314 235.966 218.626C235.828 218.936 235.758 219.316 235.758 219.764C235.758 220.213 235.826 220.594 235.963 220.909C236.099 221.223 236.292 221.463 236.541 221.629C236.791 221.792 237.085 221.874 237.425 221.874C237.733 221.874 237.996 221.82 238.214 221.711C238.434 221.6 238.602 221.443 238.717 221.242C238.834 221.041 238.893 220.803 238.893 220.528L239.17 220.569H237.51V219.544H240.204V220.355C240.204 220.921 240.085 221.408 239.846 221.814C239.607 222.219 239.278 222.531 238.858 222.751C238.439 222.969 237.959 223.078 237.418 223.078C236.815 223.078 236.284 222.945 235.828 222.679C235.371 222.411 235.014 222.03 234.759 221.538C234.505 221.043 234.378 220.456 234.378 219.777C234.378 219.255 234.454 218.79 234.604 218.381C234.757 217.97 234.971 217.622 235.246 217.337C235.52 217.052 235.84 216.835 236.205 216.686C236.57 216.538 236.965 216.463 237.39 216.463C237.755 216.463 238.094 216.517 238.409 216.623C238.723 216.728 239.002 216.877 239.245 217.07C239.49 217.263 239.691 217.492 239.846 217.758C240.001 218.023 240.1 218.314 240.144 218.633H238.761ZM243.402 223.085C242.906 223.085 242.478 222.984 242.12 222.783C241.763 222.579 241.489 222.292 241.296 221.921C241.103 221.548 241.007 221.107 241.007 220.598C241.007 220.101 241.103 219.665 241.296 219.29C241.489 218.914 241.76 218.622 242.11 218.412C242.462 218.203 242.875 218.098 243.349 218.098C243.668 218.098 243.964 218.149 244.239 218.252C244.515 218.353 244.756 218.505 244.962 218.708C245.169 218.911 245.331 219.167 245.446 219.475C245.561 219.781 245.619 220.14 245.619 220.55V220.918H241.541V220.088H244.358C244.358 219.895 244.316 219.725 244.232 219.576C244.149 219.427 244.032 219.311 243.883 219.227C243.737 219.141 243.566 219.098 243.371 219.098C243.168 219.098 242.987 219.145 242.83 219.239C242.675 219.332 242.554 219.456 242.465 219.613C242.377 219.769 242.332 219.942 242.33 220.132V220.921C242.33 221.16 242.374 221.367 242.462 221.541C242.552 221.715 242.679 221.849 242.843 221.943C243.006 222.038 243.2 222.085 243.424 222.085C243.573 222.085 243.709 222.064 243.833 222.022C243.957 221.98 244.063 221.917 244.151 221.833C244.239 221.749 244.306 221.647 244.352 221.525L245.591 221.607C245.528 221.904 245.399 222.164 245.204 222.387C245.011 222.607 244.762 222.779 244.456 222.902C244.152 223.024 243.801 223.085 243.402 223.085ZM249.062 218.161V219.167H246.153V218.161H249.062ZM246.814 217.004H248.153V221.506C248.153 221.63 248.172 221.726 248.21 221.795C248.247 221.863 248.3 221.91 248.367 221.937C248.436 221.964 248.516 221.978 248.606 221.978C248.669 221.978 248.732 221.973 248.795 221.962C248.857 221.95 248.906 221.94 248.939 221.934L249.15 222.93C249.083 222.951 248.988 222.976 248.867 223.003C248.745 223.032 248.597 223.05 248.424 223.056C248.101 223.069 247.818 223.026 247.575 222.927C247.334 222.829 247.146 222.676 247.012 222.468C246.878 222.261 246.812 221.999 246.814 221.682V217.004ZM256.002 219.538L254.775 219.613C254.754 219.509 254.709 219.414 254.64 219.331C254.571 219.245 254.48 219.176 254.367 219.126C254.256 219.074 254.122 219.048 253.967 219.048C253.76 219.048 253.585 219.092 253.442 219.18C253.3 219.266 253.228 219.381 253.228 219.525C253.228 219.641 253.275 219.738 253.367 219.818C253.459 219.898 253.617 219.961 253.842 220.01L254.716 220.186C255.185 220.282 255.535 220.437 255.766 220.651C255.996 220.865 256.112 221.146 256.112 221.494C256.112 221.81 256.018 222.088 255.832 222.327C255.647 222.566 255.394 222.752 255.071 222.886C254.75 223.019 254.38 223.085 253.961 223.085C253.322 223.085 252.812 222.951 252.433 222.685C252.056 222.417 251.835 222.052 251.77 221.591L253.087 221.522C253.127 221.717 253.223 221.866 253.376 221.968C253.529 222.069 253.725 222.119 253.964 222.119C254.199 222.119 254.388 222.074 254.53 221.984C254.675 221.892 254.748 221.773 254.75 221.629C254.748 221.507 254.697 221.408 254.596 221.33C254.496 221.251 254.34 221.19 254.131 221.148L253.294 220.981C252.823 220.887 252.472 220.723 252.241 220.491C252.013 220.258 251.899 219.961 251.899 219.601C251.899 219.291 251.982 219.023 252.15 218.799C252.32 218.575 252.558 218.402 252.864 218.28C253.172 218.159 253.532 218.098 253.945 218.098C254.555 218.098 255.035 218.227 255.385 218.485C255.737 218.743 255.943 219.094 256.002 219.538ZM259.524 218.161V219.167H256.615V218.161H259.524ZM257.276 217.004H258.615V221.506C258.615 221.63 258.634 221.726 258.672 221.795C258.709 221.863 258.762 221.91 258.829 221.937C258.898 221.964 258.978 221.978 259.068 221.978C259.131 221.978 259.194 221.973 259.256 221.962C259.319 221.95 259.368 221.94 259.401 221.934L259.612 222.93C259.545 222.951 259.45 222.976 259.329 223.003C259.207 223.032 259.059 223.05 258.885 223.056C258.563 223.069 258.28 223.026 258.037 222.927C257.796 222.829 257.608 222.676 257.474 222.468C257.34 222.261 257.274 221.999 257.276 221.682V217.004ZM261.773 223.081C261.465 223.081 261.191 223.028 260.95 222.921C260.708 222.812 260.518 222.652 260.377 222.44C260.239 222.226 260.17 221.96 260.17 221.641C260.17 221.373 260.219 221.148 260.318 220.965C260.416 220.783 260.55 220.636 260.72 220.525C260.89 220.414 261.083 220.33 261.299 220.274C261.517 220.217 261.745 220.177 261.984 220.154C262.265 220.125 262.491 220.098 262.663 220.073C262.835 220.045 262.96 220.005 263.037 219.953C263.115 219.901 263.154 219.823 263.154 219.72V219.702C263.154 219.502 263.091 219.348 262.965 219.239C262.841 219.13 262.665 219.076 262.437 219.076C262.196 219.076 262.004 219.129 261.861 219.236C261.719 219.341 261.624 219.473 261.578 219.632L260.34 219.532C260.402 219.238 260.526 218.985 260.711 218.771C260.895 218.555 261.133 218.389 261.424 218.274C261.718 218.157 262.057 218.098 262.443 218.098C262.711 218.098 262.968 218.129 263.213 218.192C263.461 218.255 263.68 218.353 263.87 218.485C264.063 218.617 264.215 218.787 264.326 218.994C264.437 219.2 264.493 219.446 264.493 219.733V222.99H263.223V222.321H263.185C263.107 222.471 263.004 222.605 262.874 222.72C262.744 222.833 262.588 222.922 262.405 222.987C262.223 223.05 262.012 223.081 261.773 223.081ZM262.157 222.157C262.354 222.157 262.528 222.118 262.679 222.041C262.83 221.961 262.948 221.854 263.034 221.72C263.12 221.586 263.163 221.434 263.163 221.264V220.752C263.121 220.779 263.063 220.804 262.99 220.827C262.919 220.848 262.838 220.868 262.748 220.887C262.658 220.904 262.568 220.919 262.478 220.934C262.387 220.947 262.306 220.958 262.232 220.969C262.075 220.992 261.938 221.028 261.82 221.079C261.703 221.129 261.612 221.197 261.547 221.283C261.482 221.367 261.449 221.472 261.449 221.597C261.449 221.78 261.515 221.919 261.648 222.016C261.782 222.11 261.951 222.157 262.157 222.157ZM265.532 222.99V218.161H266.831V219.004H266.881C266.969 218.704 267.117 218.477 267.324 218.324C267.532 218.169 267.771 218.092 268.041 218.092C268.108 218.092 268.18 218.096 268.258 218.104C268.336 218.113 268.404 218.124 268.462 218.139V219.327C268.399 219.309 268.312 219.292 268.201 219.277C268.09 219.262 267.989 219.255 267.896 219.255C267.699 219.255 267.523 219.298 267.368 219.384C267.215 219.468 267.094 219.585 267.003 219.736C266.915 219.887 266.871 220.061 266.871 220.258V222.99H265.532ZM271.966 218.161V219.167H269.057V218.161H271.966ZM269.718 217.004H271.057V221.506C271.057 221.63 271.076 221.726 271.114 221.795C271.151 221.863 271.204 221.91 271.271 221.937C271.34 221.964 271.42 221.978 271.51 221.978C271.573 221.978 271.636 221.973 271.698 221.962C271.761 221.95 271.809 221.94 271.843 221.934L272.054 222.93C271.987 222.951 271.892 222.976 271.771 223.003C271.649 223.032 271.501 223.05 271.327 223.056C271.005 223.069 270.722 223.026 270.478 222.927C270.237 222.829 270.05 222.676 269.916 222.468C269.782 222.261 269.716 221.999 269.718 221.682V217.004ZM274.987 223.085C274.49 223.085 274.063 222.984 273.704 222.783C273.348 222.579 273.073 222.292 272.881 221.921C272.688 221.548 272.591 221.107 272.591 220.598C272.591 220.101 272.688 219.665 272.881 219.29C273.073 218.914 273.345 218.622 273.695 218.412C274.047 218.203 274.46 218.098 274.934 218.098C275.252 218.098 275.549 218.149 275.823 218.252C276.1 218.353 276.341 218.505 276.547 218.708C276.754 218.911 276.915 219.167 277.031 219.475C277.146 219.781 277.204 220.14 277.204 220.55V220.918H273.126V220.088H275.943C275.943 219.895 275.901 219.725 275.817 219.576C275.733 219.427 275.617 219.311 275.468 219.227C275.321 219.141 275.151 219.098 274.956 219.098C274.752 219.098 274.572 219.145 274.415 219.239C274.26 219.332 274.138 219.456 274.05 219.613C273.962 219.769 273.917 219.942 273.915 220.132V220.921C273.915 221.16 273.959 221.367 274.047 221.541C274.137 221.715 274.264 221.849 274.427 221.943C274.591 222.038 274.785 222.085 275.009 222.085C275.158 222.085 275.294 222.064 275.418 222.022C275.541 221.98 275.647 221.917 275.735 221.833C275.823 221.749 275.89 221.647 275.937 221.525L277.175 221.607C277.112 221.904 276.984 222.164 276.789 222.387C276.596 222.607 276.346 222.779 276.04 222.902C275.736 223.024 275.385 223.085 274.987 223.085ZM279.857 223.069C279.49 223.069 279.158 222.975 278.861 222.786C278.565 222.595 278.33 222.315 278.156 221.946C277.984 221.575 277.899 221.121 277.899 220.582C277.899 220.029 277.988 219.568 278.166 219.202C278.344 218.833 278.581 218.557 278.876 218.375C279.174 218.19 279.5 218.098 279.854 218.098C280.125 218.098 280.35 218.144 280.53 218.236C280.712 218.327 280.859 218.44 280.97 218.576C281.083 218.71 281.169 218.842 281.228 218.972H281.269V216.551H282.605V222.99H281.285V222.217H281.228C281.165 222.351 281.076 222.484 280.961 222.616C280.848 222.746 280.7 222.854 280.518 222.94C280.337 223.026 280.117 223.069 279.857 223.069ZM280.282 222.003C280.498 222.003 280.68 221.944 280.829 221.827C280.98 221.707 281.095 221.541 281.175 221.327C281.256 221.113 281.297 220.863 281.297 220.576C281.297 220.288 281.257 220.039 281.178 219.827C281.098 219.616 280.983 219.452 280.832 219.337C280.681 219.222 280.498 219.164 280.282 219.164C280.062 219.164 279.876 219.224 279.725 219.343C279.574 219.463 279.46 219.628 279.383 219.84C279.305 220.052 279.266 220.297 279.266 220.576C279.266 220.856 279.305 221.105 279.383 221.321C279.462 221.535 279.576 221.702 279.725 221.824C279.876 221.943 280.062 222.003 280.282 222.003Z" fill="#F7911A"/>
</g>
<path d="M182.066 255.327H182.738L184.626 258.351H184.682L186.57 255.327H187.242L184.943 258.938V261.697H184.365V258.938L182.066 255.327ZM189.4 261.797C188.987 261.797 188.623 261.692 188.305 261.483C187.99 261.273 187.743 260.984 187.565 260.615C187.387 260.244 187.298 259.816 187.298 259.33C187.298 258.841 187.387 258.411 187.565 258.04C187.743 257.666 187.99 257.376 188.305 257.169C188.623 256.959 188.987 256.855 189.4 256.855C189.813 256.855 190.177 256.959 190.492 257.169C190.807 257.378 191.054 257.668 191.232 258.04C191.412 258.411 191.503 258.841 191.503 259.33C191.503 259.816 191.413 260.244 191.235 260.615C191.057 260.984 190.809 261.273 190.492 261.483C190.177 261.692 189.813 261.797 189.4 261.797ZM189.4 261.29C189.732 261.29 190.013 261.201 190.243 261.022C190.473 260.844 190.647 260.607 190.766 260.31C190.886 260.014 190.946 259.687 190.946 259.33C190.946 258.974 190.886 258.646 190.766 258.348C190.647 258.049 190.473 257.809 190.243 257.629C190.013 257.449 189.732 257.358 189.4 257.358C189.07 257.358 188.789 257.449 188.557 257.629C188.327 257.809 188.152 258.049 188.032 258.348C187.913 258.646 187.854 258.974 187.854 259.33C187.854 259.687 187.913 260.014 188.032 260.31C188.152 260.607 188.327 260.844 188.557 261.022C188.787 261.201 189.068 261.29 189.4 261.29ZM195.754 259.872V256.92H196.307V261.697H195.754V260.904H195.71C195.598 261.149 195.421 261.353 195.178 261.517C194.936 261.679 194.639 261.759 194.289 261.759C193.984 261.759 193.713 261.693 193.477 261.56C193.24 261.426 193.055 261.229 192.92 260.969C192.785 260.71 192.718 260.392 192.718 260.015V256.92H193.272V259.98C193.272 260.354 193.381 260.654 193.601 260.882C193.821 261.108 194.103 261.221 194.447 261.221C194.663 261.221 194.87 261.17 195.069 261.066C195.268 260.962 195.432 260.811 195.561 260.612C195.689 260.411 195.754 260.164 195.754 259.872ZM197.773 261.697V256.92H198.311V257.654H198.351C198.447 257.413 198.613 257.22 198.849 257.072C199.087 256.923 199.357 256.848 199.658 256.848C199.703 256.848 199.754 256.849 199.81 256.852C199.866 256.854 199.913 256.856 199.95 256.858V257.421C199.925 257.417 199.882 257.41 199.819 257.402C199.757 257.394 199.69 257.39 199.617 257.39C199.368 257.39 199.147 257.442 198.952 257.548C198.759 257.652 198.606 257.796 198.494 257.981C198.382 258.165 198.327 258.376 198.327 258.612V261.697H197.773ZM206.932 256.92C206.897 256.565 206.74 256.283 206.462 256.074C206.184 255.865 205.835 255.76 205.414 255.76C205.117 255.76 204.856 255.811 204.63 255.912C204.406 256.014 204.23 256.155 204.101 256.335C203.975 256.514 203.912 256.717 203.912 256.945C203.912 257.113 203.948 257.26 204.021 257.386C204.093 257.513 204.191 257.622 204.313 257.713C204.437 257.802 204.574 257.879 204.723 257.943C204.875 258.007 205.027 258.061 205.181 258.105L205.853 258.298C206.056 258.354 206.259 258.425 206.462 258.512C206.665 258.599 206.851 258.709 207.019 258.842C207.189 258.973 207.325 259.133 207.426 259.324C207.53 259.513 207.582 259.74 207.582 260.005C207.582 260.345 207.494 260.651 207.317 260.923C207.141 261.194 206.888 261.41 206.559 261.57C206.229 261.727 205.834 261.806 205.374 261.806C204.94 261.806 204.564 261.735 204.245 261.592C203.925 261.446 203.674 261.246 203.492 260.991C203.309 260.736 203.207 260.441 203.184 260.105H203.781C203.802 260.356 203.885 260.568 204.03 260.742C204.175 260.917 204.364 261.049 204.596 261.141C204.828 261.23 205.087 261.274 205.374 261.274C205.691 261.274 205.973 261.221 206.22 261.116C206.468 261.008 206.663 260.859 206.804 260.668C206.947 260.475 207.019 260.251 207.019 259.996C207.019 259.78 206.963 259.6 206.851 259.455C206.739 259.308 206.582 259.184 206.381 259.085C206.182 258.985 205.951 258.897 205.688 258.82L204.926 258.596C204.426 258.447 204.038 258.241 203.762 257.977C203.487 257.714 203.349 257.378 203.349 256.97C203.349 256.628 203.44 256.327 203.622 256.068C203.807 255.806 204.056 255.603 204.369 255.458C204.684 255.311 205.038 255.237 205.43 255.237C205.826 255.237 206.176 255.31 206.481 255.455C206.786 255.6 207.027 255.8 207.205 256.055C207.386 256.308 207.482 256.596 207.495 256.92H206.932ZM209.927 261.697L208.484 256.92H209.069L210.201 260.861H210.241L211.37 256.92H211.958L213.078 260.851H213.121L214.253 256.92H214.838L213.395 261.697H212.823L211.69 257.781H211.631L210.499 261.697H209.927ZM217.248 261.806C216.96 261.806 216.697 261.75 216.458 261.638C216.22 261.524 216.03 261.36 215.889 261.147C215.748 260.931 215.678 260.67 215.678 260.363C215.678 260.127 215.722 259.928 215.812 259.766C215.901 259.604 216.027 259.471 216.191 259.368C216.355 259.264 216.549 259.182 216.773 259.122C216.997 259.062 217.243 259.015 217.513 258.982C217.78 258.949 218.006 258.92 218.191 258.895C218.377 258.87 218.519 258.831 218.617 258.777C218.714 258.723 218.763 258.636 218.763 258.515V258.404C218.763 258.078 218.666 257.822 218.471 257.635C218.278 257.447 218 257.352 217.637 257.352C217.293 257.352 217.012 257.428 216.794 257.579C216.579 257.731 216.427 257.909 216.34 258.114L215.815 257.925C215.922 257.663 216.072 257.455 216.262 257.299C216.453 257.142 216.667 257.029 216.903 256.96C217.14 256.89 217.379 256.855 217.622 256.855C217.804 256.855 217.994 256.878 218.191 256.926C218.39 256.974 218.574 257.057 218.744 257.175C218.914 257.291 219.052 257.454 219.158 257.663C219.264 257.871 219.317 258.134 219.317 258.453V261.697H218.763V260.941H218.729C218.663 261.082 218.564 261.219 218.433 261.352C218.303 261.485 218.139 261.594 217.942 261.679C217.745 261.764 217.514 261.806 217.248 261.806ZM217.323 261.299C217.618 261.299 217.873 261.234 218.088 261.103C218.304 260.973 218.47 260.799 218.586 260.584C218.704 260.366 218.763 260.127 218.763 259.865V259.175C218.722 259.214 218.652 259.25 218.555 259.281C218.459 259.312 218.348 259.34 218.222 259.365C218.098 259.387 217.973 259.407 217.849 259.424C217.724 259.44 217.612 259.455 217.513 259.467C217.243 259.5 217.013 259.552 216.822 259.623C216.632 259.693 216.485 259.791 216.384 259.915C216.282 260.037 216.231 260.195 216.231 260.388C216.231 260.678 216.335 260.903 216.542 261.063C216.75 261.22 217.01 261.299 217.323 261.299ZM220.789 263.489V256.92H221.328V257.831H221.393C221.459 257.688 221.55 257.542 221.667 257.393C221.783 257.241 221.936 257.114 222.127 257.01C222.32 256.906 222.562 256.855 222.855 256.855C223.249 256.855 223.593 256.958 223.887 257.166C224.184 257.371 224.414 257.659 224.578 258.03C224.744 258.399 224.827 258.83 224.827 259.321C224.827 259.815 224.744 260.247 224.578 260.618C224.414 260.989 224.184 261.278 223.887 261.486C223.593 261.693 223.251 261.797 222.861 261.797C222.573 261.797 222.331 261.745 222.136 261.641C221.943 261.538 221.787 261.41 221.667 261.259C221.548 261.105 221.457 260.956 221.393 260.811H221.343V263.489H220.789ZM221.337 259.312C221.337 259.697 221.394 260.04 221.508 260.338C221.624 260.635 221.79 260.868 222.006 261.038C222.223 261.206 222.487 261.29 222.796 261.29C223.113 261.29 223.38 261.203 223.598 261.029C223.818 260.852 223.985 260.615 224.099 260.316C224.215 260.018 224.273 259.683 224.273 259.312C224.273 258.945 224.216 258.614 224.102 258.32C223.99 258.025 223.824 257.792 223.604 257.62C223.384 257.446 223.115 257.358 222.796 257.358C222.485 257.358 222.22 257.442 222.002 257.61C221.785 257.776 221.619 258.006 221.505 258.301C221.393 258.593 221.337 258.93 221.337 259.312ZM228.619 261.697V255.327H229.201V258.248H232.815V255.327H233.397V261.697H232.815V258.771H229.201V261.697H228.619ZM238.006 259.872V256.92H238.56V261.697H238.006V260.904H237.963C237.851 261.149 237.673 261.353 237.431 261.517C237.188 261.679 236.892 261.759 236.541 261.759C236.236 261.759 235.966 261.693 235.73 261.56C235.493 261.426 235.308 261.229 235.173 260.969C235.038 260.71 234.971 260.392 234.971 260.015V256.92H235.524V259.98C235.524 260.354 235.634 260.654 235.854 260.882C236.074 261.108 236.356 261.221 236.7 261.221C236.916 261.221 237.123 261.17 237.322 261.066C237.521 260.962 237.685 260.811 237.813 260.612C237.942 260.411 238.006 260.164 238.006 259.872ZM240.141 261.697V255.327H240.697V257.831H240.747C240.809 257.688 240.898 257.541 241.015 257.39C241.133 257.238 241.287 257.112 241.478 257.01C241.671 256.906 241.913 256.855 242.206 256.855C242.598 256.855 242.942 256.958 243.238 257.166C243.535 257.371 243.766 257.659 243.932 258.03C244.098 258.399 244.181 258.83 244.181 259.321C244.181 259.815 244.098 260.247 243.932 260.618C243.768 260.989 243.538 261.278 243.242 261.486C242.947 261.693 242.605 261.797 242.215 261.797C241.925 261.797 241.682 261.745 241.487 261.641C241.295 261.538 241.139 261.41 241.021 261.259C240.903 261.105 240.811 260.956 240.747 260.811H240.679V261.697H240.141ZM240.688 259.312C240.688 259.697 240.745 260.04 240.859 260.338C240.975 260.635 241.141 260.868 241.357 261.038C241.574 261.206 241.838 261.29 242.147 261.29C242.464 261.29 242.732 261.203 242.952 261.029C243.172 260.852 243.339 260.615 243.453 260.316C243.567 260.018 243.624 259.683 243.624 259.312C243.624 258.945 243.567 258.614 243.453 258.32C243.341 258.025 243.175 257.792 242.955 257.62C242.736 257.446 242.466 257.358 242.147 257.358C241.836 257.358 241.571 257.442 241.354 257.61C241.138 257.776 240.973 258.006 240.859 258.301C240.745 258.593 240.688 258.93 240.688 259.312ZM249.717 261.797C249.304 261.797 248.939 261.692 248.622 261.483C248.307 261.273 248.06 260.984 247.882 260.615C247.704 260.244 247.615 259.816 247.615 259.33C247.615 258.841 247.704 258.411 247.882 258.04C248.06 257.666 248.307 257.376 248.622 257.169C248.939 256.959 249.304 256.855 249.717 256.855C250.13 256.855 250.494 256.959 250.809 257.169C251.124 257.378 251.371 257.668 251.549 258.04C251.729 258.411 251.82 258.841 251.82 259.33C251.82 259.816 251.73 260.244 251.552 260.615C251.374 260.984 251.126 261.273 250.809 261.483C250.494 261.692 250.13 261.797 249.717 261.797ZM249.717 261.29C250.049 261.29 250.33 261.201 250.56 261.022C250.79 260.844 250.964 260.607 251.082 260.31C251.203 260.014 251.263 259.687 251.263 259.33C251.263 258.974 251.203 258.646 251.082 258.348C250.964 258.049 250.79 257.809 250.56 257.629C250.33 257.449 250.049 257.358 249.717 257.358C249.387 257.358 249.106 257.449 248.874 257.629C248.644 257.809 248.469 258.049 248.349 258.348C248.23 258.646 248.171 258.974 248.171 259.33C248.171 259.687 248.23 260.014 248.349 260.31C248.469 260.607 248.644 260.844 248.874 261.022C249.104 261.201 249.385 261.29 249.717 261.29ZM253.589 258.711V261.697H253.035V256.92H253.573V257.67H253.623C253.735 257.425 253.909 257.229 254.145 257.082C254.384 256.932 254.678 256.858 255.029 256.858C255.35 256.858 255.632 256.925 255.875 257.06C256.119 257.193 256.309 257.389 256.444 257.648C256.581 257.907 256.649 258.225 256.649 258.603V261.697H256.095V258.637C256.095 258.245 255.985 257.935 255.766 257.707C255.548 257.479 255.256 257.365 254.889 257.365C254.638 257.365 254.415 257.419 254.22 257.526C254.025 257.634 253.871 257.79 253.756 257.993C253.645 258.194 253.589 258.434 253.589 258.711Z" fill="white" fill-opacity="0.4"/>
<path d="M293.025 266.277C292.073 266.277 291.191 266.105 290.379 265.763C289.58 265.408 288.889 264.919 288.305 264.297C287.734 263.663 287.284 262.921 286.954 262.071C286.637 261.208 286.478 260.263 286.478 259.235C286.478 258.208 286.63 257.3 286.935 256.437C287.239 255.562 287.671 254.807 288.229 254.173C288.8 253.526 289.485 253.024 290.284 252.669C291.096 252.301 292.003 252.117 293.006 252.117C293.843 252.117 294.592 252.238 295.251 252.479C295.911 252.707 296.476 253.031 296.945 253.45C297.427 253.855 297.808 254.338 298.087 254.896C298.366 255.454 298.544 256.057 298.62 256.704H295.879C295.753 256.019 295.442 255.473 294.947 255.067C294.452 254.649 293.805 254.439 293.006 254.439C292.371 254.439 291.819 254.566 291.35 254.82C290.893 255.061 290.512 255.397 290.208 255.828C289.903 256.26 289.675 256.767 289.523 257.351C289.371 257.935 289.295 258.563 289.295 259.235C289.295 259.907 289.377 260.574 289.542 261.157C289.719 261.741 289.967 262.248 290.284 262.68C290.614 263.098 291.007 263.428 291.464 263.669C291.934 263.898 292.454 264.012 293.025 264.012C293.837 264.012 294.503 263.796 295.023 263.365C295.556 262.921 295.867 262.337 295.955 261.614H298.658C298.62 262.223 298.474 262.807 298.22 263.365C297.966 263.91 297.611 264.399 297.154 264.83C296.685 265.274 296.114 265.63 295.442 265.896C294.782 266.15 293.976 266.277 293.025 266.277ZM299.583 256.228H302.171V265.991H299.583V256.228ZM299.583 252.384H302.171V254.706H299.583V252.384ZM302.983 256.228H304.334V253.183H306.865V256.228H308.54V257.941H306.865V263.117C306.865 263.485 306.954 263.739 307.131 263.879C307.309 264.018 307.544 264.088 307.836 264.088H308.33C308.419 264.088 308.508 264.082 308.597 264.069V265.972C308.47 265.985 308.33 265.991 308.178 265.991C308.039 266.004 307.867 266.01 307.664 266.01H306.979C306.662 266.01 306.345 265.978 306.028 265.915C305.723 265.839 305.444 265.712 305.19 265.534C304.936 265.357 304.727 265.116 304.562 264.811C304.41 264.507 304.334 264.126 304.334 263.669V257.941H302.982L302.983 256.228ZM312.08 257.789H312.137C312.429 257.23 312.759 256.812 313.127 256.533C313.495 256.253 313.964 256.114 314.535 256.114C314.802 256.114 315.005 256.139 315.144 256.19V258.455H315.087C314.237 258.366 313.539 258.55 312.994 259.007C312.448 259.463 312.175 260.206 312.175 261.233V265.991H309.587V256.228H312.08V257.789ZM320.282 266.277C319.47 266.277 318.746 266.144 318.112 265.877C317.49 265.611 316.964 265.249 316.532 264.792C316.101 264.323 315.771 263.771 315.543 263.137C315.327 262.502 315.219 261.823 315.219 261.1C315.219 260.377 315.333 259.704 315.562 259.083C315.803 258.448 316.133 257.903 316.552 257.446C316.983 256.989 317.49 256.628 318.074 256.361C318.67 256.095 319.324 255.962 320.034 255.962C320.821 255.962 321.512 256.108 322.109 256.399C322.705 256.678 323.206 257.078 323.612 257.598C324.018 258.119 324.323 258.74 324.526 259.463C324.741 260.174 324.849 260.967 324.849 261.842H317.769C317.871 262.604 318.125 263.2 318.531 263.631C318.949 264.063 319.527 264.278 320.263 264.278C320.77 264.278 321.176 264.17 321.481 263.955C321.785 263.739 322.007 263.447 322.147 263.079H324.697C324.608 263.511 324.443 263.923 324.202 264.316C323.974 264.697 323.669 265.033 323.289 265.325C322.921 265.617 322.483 265.845 321.975 266.01C321.468 266.188 320.903 266.277 320.282 266.277ZM320.072 257.96C319.387 257.96 318.867 258.15 318.512 258.531C318.156 258.899 317.922 259.406 317.807 260.053H322.147C322.109 259.432 321.899 258.93 321.519 258.55C321.151 258.157 320.669 257.96 320.072 257.96ZM331.909 265.991C331.833 265.89 331.769 265.738 331.718 265.535C331.668 265.332 331.63 265.122 331.604 264.907H331.566C331.439 265.097 331.294 265.274 331.129 265.439C330.976 265.592 330.786 265.725 330.558 265.839C330.342 265.953 330.082 266.042 329.777 266.105C329.473 266.182 329.111 266.22 328.692 266.22C327.69 266.22 326.872 265.966 326.238 265.458C325.603 264.951 325.286 264.209 325.286 263.232C325.286 262.699 325.387 262.249 325.59 261.88C325.793 261.513 326.073 261.208 326.428 260.967C326.783 260.726 327.195 260.542 327.665 260.415C328.147 260.275 328.661 260.168 329.206 260.092C330.018 259.977 330.615 259.857 330.996 259.73C331.376 259.603 331.566 259.356 331.566 258.988C331.566 258.62 331.427 258.353 331.148 258.15C330.881 257.935 330.475 257.827 329.93 257.827C329.321 257.827 328.864 257.941 328.559 258.169C328.255 258.385 328.084 258.728 328.046 259.197H325.743C325.756 258.766 325.851 258.36 326.028 257.979C326.206 257.586 326.466 257.243 326.809 256.951C327.151 256.66 327.583 256.425 328.103 256.247C328.623 256.07 329.238 255.981 329.949 255.981C331.408 255.981 332.455 256.298 333.089 256.932C333.736 257.554 334.06 258.436 334.06 259.578V264.545C334.06 265.281 334.174 265.731 334.402 265.896V265.991L331.909 265.991ZM329.32 264.412C329.688 264.412 330.012 264.361 330.291 264.259C330.583 264.145 330.824 264.006 331.014 263.841C331.217 263.663 331.37 263.466 331.471 263.251C331.573 263.022 331.623 262.788 331.623 262.547V261.081C331.395 261.221 331.116 261.335 330.786 261.424C330.469 261.5 330.145 261.576 329.815 261.652C329.13 261.804 328.623 261.982 328.293 262.185C327.963 262.388 327.798 262.718 327.798 263.175C327.798 263.631 327.937 263.955 328.217 264.145C328.496 264.323 328.864 264.412 329.32 264.412Z" fill="white" fill-opacity="0.3"/>
<path d="M272.524 256.958C272.022 256.958 271.573 256.699 271.322 256.264L267.929 250.387H277.12L273.726 256.264C273.475 256.699 273.026 256.958 272.524 256.958Z" fill="white" fill-opacity="0.3"/>
<path d="M275.666 258.772C275.164 258.772 274.714 258.512 274.463 258.077C274.212 257.643 274.212 257.124 274.463 256.689L277.857 250.812L282.452 258.772H275.666Z" fill="white" fill-opacity="0.3"/>
<path d="M267.929 268.007L271.322 262.13C271.573 261.696 272.022 261.436 272.524 261.436C273.026 261.436 273.475 261.696 273.726 262.13L277.12 268.007H267.929Z" fill="white" fill-opacity="0.3"/>
<path d="M274.463 261.705C274.212 261.27 274.212 260.751 274.463 260.317C274.714 259.882 275.164 259.623 275.666 259.623H282.452L277.857 267.582L274.463 261.705Z" fill="white" fill-opacity="0.3"/>
<path d="M262.597 258.772L267.192 250.812L270.585 256.689C270.836 257.124 270.836 257.643 270.585 258.077C270.334 258.512 269.885 258.772 269.383 258.772H262.597Z" fill="white" fill-opacity="0.3"/>
<path d="M262.597 259.623H269.383C269.885 259.623 270.335 259.882 270.585 260.317C270.836 260.751 270.836 261.27 270.585 261.705L267.192 267.582L262.597 259.623Z" fill="white" fill-opacity="0.3"/>
</g>
</g>
</g>
<path d="M26.667 0.5H489.333C503.784 0.5 515.5 12.2155 515.5 26.667V263.333C515.5 277.784 503.784 289.5 489.333 289.5H26.667C12.2155 289.5 0.5 277.784 0.5 263.333V26.667C0.5 12.4414 11.8519 0.867056 25.9912 0.508789L26.667 0.5Z" stroke="#ECECEC"/>
<defs>
<filter id="filter0_d_6843_16983" x="134.979" y="62.9863" width="246.041" height="190.123" filterUnits="userSpaceOnUse" color-interpolation-filters="sRGB">
<feFlood flood-opacity="0" result="BackgroundImageFix"/>
<feColorMatrix in="SourceAlpha" type="matrix" values="0 0 0 0 0 0 0 0 0 0 0 0 0 0 0 0 0 0 127 0" result="hardAlpha"/>
<feMorphology radius="1.39796" operator="erode" in="SourceAlpha" result="effect1_dropShadow_6843_16983"/>
<feOffset dy="4.65986"/>
<feGaussianBlur stdDeviation="5.82483"/>
<feColorMatrix type="matrix" values="0 0 0 0 0 0 0 0 0 0 0 0 0 0 0 0 0 0 0.1 0"/>
<feBlend mode="normal" in2="BackgroundImageFix" result="effect1_dropShadow_6843_16983"/>
<feBlend mode="normal" in="SourceGraphic" in2="effect1_dropShadow_6843_16983" result="shape"/>
</filter>
<filter id="filter1_d_6843_16983" x="302.235" y="95.1378" width="61.0772" height="22.3702" filterUnits="userSpaceOnUse" color-interpolation-filters="sRGB">
<feFlood flood-opacity="0" result="BackgroundImageFix"/>
<feColorMatrix in="SourceAlpha" type="matrix" values="0 0 0 0 0 0 0 0 0 0 0 0 0 0 0 0 0 0 127 0" result="hardAlpha"/>
<feOffset dy="0.465986"/>
<feGaussianBlur stdDeviation="1.39796"/>
<feColorMatrix type="matrix" values="0 0 0 0 0 0 0 0 0 0 0 0 0 0 0 0 0 0 0.06 0"/>
<feBlend mode="normal" in2="BackgroundImageFix" result="effect1_dropShadow_6843_16983"/>
<feBlend mode="normal" in="SourceGraphic" in2="effect1_dropShadow_6843_16983" result="shape"/>
</filter>
<filter id="filter2_d_6843_16983" x="299.938" y="162.24" width="63.3741" height="22.3672" filterUnits="userSpaceOnUse" color-interpolation-filters="sRGB">
<feFlood flood-opacity="0" result="BackgroundImageFix"/>
<feColorMatrix in="SourceAlpha" type="matrix" values="0 0 0 0 0 0 0 0 0 0 0 0 0 0 0 0 0 0 127 0" result="hardAlpha"/>
<feOffset dy="0.465986"/>
<feGaussianBlur stdDeviation="1.39796"/>
<feColorMatrix type="matrix" values="0 0 0 0 0 0 0 0 0 0 0 0 0 0 0 0 0 0 0.06 0"/>
<feBlend mode="normal" in2="BackgroundImageFix" result="effect1_dropShadow_6843_16983"/>
<feBlend mode="normal" in="SourceGraphic" in2="effect1_dropShadow_6843_16983" result="shape"/>
</filter>
<linearGradient id="paint0_linear_6843_16983" x1="335.51" y1="0" x2="335.51" y2="393.759" gradientUnits="userSpaceOnUse">
<stop offset="0.336538" stop-color="white"/>
<stop offset="0.605769" stop-color="#BADEE0"/>
</linearGradient>
<linearGradient id="paint1_linear_6843_16983" x1="35.9482" y1="29.7441" x2="35.9482" y2="45.4358" gradientUnits="userSpaceOnUse">
<stop offset="0.307692" stop-color="#FFCD44"/>
<stop offset="0.822115" stop-color="#FFB62E"/>
</linearGradient>
<linearGradient id="paint2_linear_6843_16983" x1="37.4761" y1="24" x2="37.4761" y2="39.6916" gradientUnits="userSpaceOnUse">
<stop offset="0.0865385" stop-color="#F77A1A"/>
<stop offset="0.721154" stop-color="#F7911A"/>
</linearGradient>
<linearGradient id="paint3_linear_6843_16983" x1="257.998" y1="288.407" x2="257.998" y2="371.17" gradientUnits="userSpaceOnUse">
<stop stop-color="#FF7D14"/>
<stop offset="0.187579" stop-color="#FF7D14"/>
<stop offset="0.38146" stop-color="#FF7D14" stop-opacity="0.9"/>
<stop offset="0.701589" stop-color="#FF7D14" stop-opacity="0.7"/>
<stop offset="1" stop-color="#FF7D14" stop-opacity="0.3"/>
</linearGradient>
<linearGradient id="paint4_linear_6843_16983" x1="257.998" y1="307.648" x2="257.998" y2="125.484" gradientUnits="userSpaceOnUse">
<stop stop-color="#F77D1A"/>
<stop offset="0.18" stop-color="#F8831D"/>
<stop offset="0.43" stop-color="#FB9628"/>
<stop offset="0.6" stop-color="#FFA833"/>
<stop offset="0.95" stop-color="#FFD652"/>
</linearGradient>
<linearGradient id="paint5_linear_6843_16983" x1="257.998" y1="307.646" x2="257.998" y2="121.089" gradientUnits="userSpaceOnUse">
<stop offset="0.21" stop-color="#FF7D14"/>
<stop offset="0.38" stop-color="#FF8318"/>
<stop offset="0.62" stop-color="#FF9626"/>
<stop offset="0.78" stop-color="#FFA833"/>
<stop offset="1" stop-color="#FFC533"/>
</linearGradient>
<linearGradient id="paint6_linear_6843_16983" x1="313.42" y1="99.332" x2="313.42" y2="112.382" gradientUnits="userSpaceOnUse">
<stop stop-color="#F7911A"/>
<stop offset="1" stop-color="#F57F00"/>
</linearGradient>
<linearGradient id="paint7_linear_6843_16983" x1="257.999" y1="140.34" x2="257.999" y2="205.578" gradientUnits="userSpaceOnUse">
<stop stop-color="#FFA833"/>
<stop offset="1" stop-color="#F57F00"/>
</linearGradient>
<clipPath id="clip0_6843_16983">
<path d="M0 26.6667C0 11.9391 11.9391 0 26.6667 0H489.333C504.061 0 516 11.9391 516 26.6667V263.333C516 278.061 504.061 290 489.333 290H26.6666C11.9391 290 0 278.061 0 263.333V26.6667Z" fill="white"/>
</clipPath>
<clipPath id="clip1_6843_16983">
<rect width="516" height="290" fill="white"/>
</clipPath>
<clipPath id="clip2_6843_16983">
<rect width="671.02" height="548" fill="white" transform="translate(-77.5103 -129)"/>
</clipPath>
<clipPath id="clip3_6843_16983">
<rect width="671.02" height="466.452" fill="white" transform="translate(-77.5107 -99.1768)"/>
</clipPath>
<clipPath id="clip4_6843_16983">
<rect width="112.178" height="21.4354" fill="white" transform="translate(25.9985 24)"/>
</clipPath>
<clipPath id="clip5_6843_16983">
<path d="M155.482 99.3334C155.482 97.2745 157.151 95.6055 159.21 95.6055H295.711C297.77 95.6055 299.439 97.2745 299.439 99.3334V112.381C299.439 114.44 297.77 116.109 295.711 116.109H159.21C157.151 116.109 155.482 114.44 155.482 112.381V99.3334Z" fill="white"/>
</clipPath>
<clipPath id="clip6_6843_16983">
<rect width="13.0476" height="13.0476" fill="white" transform="translate(304.598 166.435)"/>
</clipPath>
<clipPath id="clip7_6843_16983">
<rect width="5.30059" height="5.30059" fill="white" transform="translate(312.345 174.658)"/>
</clipPath>
</defs>
</svg>
