<svg width="28" height="28" viewBox="0 0 28 28" fill="none" xmlns="http://www.w3.org/2000/svg">
<path d="M1.90368 9.40646C0.676553 10.6336 0 12.2666 0 14.0024C0 21.7197 6.28028 28 13.9976 28C19.0788 28 23.5394 25.2751 25.9936 21.2111C24.6872 22.0277 23.1474 22.4989 21.5004 22.4989C16.8158 22.4989 13.0038 18.6869 13.0038 14.0024C13.0038 10.1763 10.3303 7.50278 6.50424 7.50278C4.76853 7.50278 3.13547 8.17933 1.90835 9.40646H1.90368Z" fill="#FFB833"/>
<path d="M27.9959 13.9976C27.9959 6.28028 21.7156 0 13.9983 0C10.2609 0 6.74282 1.45576 4.10193 4.10131C3.28073 4.92251 2.57152 5.82769 1.98828 6.79819C3.29473 5.977 4.8438 5.50108 6.50019 5.50108C11.1847 5.50108 14.9968 9.3131 14.9968 13.9976C14.9968 17.8237 17.6703 20.4972 21.4963 20.4972C25.0797 20.4972 27.9959 17.581 27.9959 13.9976Z" fill="#F7911A"/>
</svg>
