<svg width="90" height="90" viewBox="0 0 90 90" fill="none" xmlns="http://www.w3.org/2000/svg">
<path d="M45 0C20.1487 0 0 20.1487 0 45C0 69.8512 20.1487 90 45 90C69.8513 90 90 69.8512 90 45C90 20.1487 69.8513 0 45 0Z" fill="url(#paint0_linear_6918_13032)"/>
<path d="M62.6544 27.0389C66.2904 25.7159 68.9634 22.9124 70.2347 19.5577C67.1027 17.8049 63.2552 17.3752 59.6169 18.6982C55.9809 20.0212 53.3079 22.8247 52.0367 26.1794C55.1687 27.9322 59.0162 28.3619 62.6544 27.0389Z" fill="white"/>
<path d="M45.3564 30.8414C58.4087 30.8414 69.0286 41.4614 69.0286 54.5137C69.0286 67.5659 58.4087 78.1859 45.3564 78.1859C32.3042 78.1859 21.6842 67.5659 21.6842 54.5137C21.6842 41.4614 32.3042 30.8414 45.3564 30.8414ZM45.3564 28.1414C30.7922 28.1414 18.9842 39.9494 18.9842 54.5137C18.9842 69.0779 30.7922 80.8859 45.3564 80.8859C59.9207 80.8859 71.7286 69.0779 71.7286 54.5137C71.7286 39.9494 59.9207 28.1414 45.3564 28.1414Z" fill="white"/>
<path d="M45.6332 58.5771L31.0914 27.3944C30.2814 25.6552 28.8414 24.3367 27.0369 23.6797L15.2852 19.4024L16.3629 16.4414L28.1147 20.7187C30.7089 21.6637 32.7789 23.5604 33.9467 26.0624L48.4884 57.2452L45.6332 58.5771Z" fill="white"/>
<path d="M23.7677 53.1952C23.7407 53.6317 23.7272 54.0704 23.7272 54.5114C23.7272 66.4567 33.4112 76.1406 45.3564 76.1406C57.3017 76.1406 66.9857 66.4567 66.9857 54.5114C66.9857 54.0457 66.9699 53.5844 66.9406 53.1277C52.5496 41.6279 38.1587 64.7039 23.7677 53.1952Z" fill="white"/>
<defs>
<linearGradient id="paint0_linear_6918_13032" x1="45" y1="0" x2="45" y2="90" gradientUnits="userSpaceOnUse">
<stop stop-color="#F7911A"/>
<stop offset="1" stop-color="#F57F00"/>
</linearGradient>
</defs>
</svg>
