<svg width="52" height="52" viewBox="0 0 52 52" fill="none" xmlns="http://www.w3.org/2000/svg">
<g clip-path="url(#clip0_6912_5825)">
<mask id="mask0_6912_5825" style="mask-type:alpha" maskUnits="userSpaceOnUse" x="0" y="0" width="48" height="48">
<path d="M24 0C37.2548 0 48 10.7452 48 24C48 26.7682 47.5293 29.4262 46.667 31.9004C45.3109 31.3209 43.8179 31 42.25 31C36.0368 31 31 36.0368 31 42.25C31 43.8179 31.3209 45.3109 31.9004 46.667C29.4262 47.5293 26.7682 48 24 48C10.7452 48 0 37.2548 0 24C0 10.7452 10.7452 0 24 0Z" fill="#D9D9D9"/>
</mask>
<g mask="url(#mask0_6912_5825)">
<path d="M24 0C10.746 0 0 10.746 0 24C0 37.254 10.746 48 24 48C37.254 48 48 37.254 48 24C48 10.746 37.254 0 24 0Z" fill="url(#paint0_linear_6912_5825)"/>
<path d="M33.4159 14.4206C35.3551 13.715 36.7807 12.2198 37.4587 10.4306C35.7883 9.49575 33.7363 9.26655 31.7959 9.97215C29.8567 10.6778 28.4311 12.173 27.7531 13.9622C29.4235 14.897 31.4755 15.1262 33.4159 14.4206Z" fill="white"/>
<path d="M24.1903 16.4486C31.1515 16.4486 36.8155 22.1126 36.8155 29.0737C36.8155 36.0349 31.1515 41.6989 24.1903 41.6989C17.2291 41.6989 11.5651 36.0349 11.5651 29.0737C11.5651 22.1126 17.2291 16.4486 24.1903 16.4486ZM24.1903 15.0086C16.4227 15.0086 10.1251 21.3062 10.1251 29.0737C10.1251 36.8413 16.4227 43.1389 24.1903 43.1389C31.9579 43.1389 38.2555 36.8413 38.2555 29.0737C38.2555 21.3062 31.9579 15.0086 24.1903 15.0086Z" fill="white"/>
<path d="M24.3379 31.2409L16.5823 14.6102C16.1503 13.6826 15.3823 12.9794 14.4199 12.629L8.15234 10.3478L8.72714 8.76855L14.9947 11.0498C16.3783 11.5538 17.4823 12.5654 18.1051 13.8998L25.8607 30.5306L24.3379 31.2409Z" fill="white"/>
<path d="M12.6763 28.3705C12.6619 28.6033 12.6547 28.8374 12.6547 29.0726C12.6547 35.4433 17.8195 40.6081 24.1903 40.6081C30.5611 40.6081 35.7259 35.4433 35.7259 29.0726C35.7259 28.8242 35.7175 28.5781 35.7019 28.3345C28.0267 22.2014 20.3515 34.5085 12.6763 28.3705Z" fill="white"/>
</g>
<g clip-path="url(#clip1_6912_5825)">
<circle cx="42.25" cy="42.25" r="9.75" fill="#F17D00"/>
<path d="M42.2497 40.598C41.8787 40.598 41.5465 40.4066 41.361 40.086L38.8523 35.75H45.6471L43.1384 40.086C42.9529 40.4066 42.6207 40.598 42.2497 40.598Z" fill="white"/>
<path d="M44.5719 41.936C44.2009 41.936 43.8686 41.7446 43.6831 41.424C43.4976 41.1034 43.4976 40.7206 43.6831 40.3999L46.1917 36.064L49.5892 41.936H44.5718H44.5719Z" fill="white"/>
<path d="M38.8523 48.75L41.361 44.414C41.5465 44.0935 41.8787 43.902 42.2497 43.902C42.6207 43.902 42.9529 44.0935 43.1384 44.414L45.6471 48.75H38.8523Z" fill="white"/>
<path d="M43.6832 44.1002C43.4976 43.7796 43.4976 43.3967 43.6832 43.0761C43.8687 42.7555 44.2009 42.5641 44.5719 42.5641H49.5893L46.1919 48.436L43.6832 44.1002L43.6832 44.1002Z" fill="white"/>
<path d="M34.9102 41.936L38.3077 36.064L40.8163 40.3999C41.0018 40.7205 41.0018 41.1033 40.8163 41.424C40.6307 41.7446 40.2985 41.936 39.9275 41.936H34.9102Z" fill="white"/>
<path d="M34.9102 42.564H39.9275C40.2985 42.564 40.6308 42.7554 40.8163 43.076C41.0018 43.3967 41.0018 43.7795 40.8163 44.1001L38.3077 48.4359L34.9102 42.564Z" fill="white"/>
</g>
</g>
<defs>
<linearGradient id="paint0_linear_6912_5825" x1="24" y1="0" x2="24" y2="48" gradientUnits="userSpaceOnUse">
<stop stop-color="#F7911A"/>
<stop offset="1" stop-color="#F57F00"/>
</linearGradient>
<clipPath id="clip0_6912_5825">
<rect width="52" height="52" fill="white"/>
</clipPath>
<clipPath id="clip1_6912_5825">
<rect width="19.5" height="19.5" fill="white" transform="translate(32.5 32.5)"/>
</clipPath>
</defs>
</svg>
