<svg width="300" height="360" viewBox="0 0 300 360" fill="none" xmlns="http://www.w3.org/2000/svg">
<mask id="mask0_6343_21472" style="mask-type:alpha" maskUnits="userSpaceOnUse" x="0" y="0" width="300" height="360">
<path d="M286.104 277.915L300 0H0L13.8957 277.915C15.3392 306.784 16.0609 321.218 22.1397 332.183C27.4903 341.834 35.6694 349.614 45.5758 354.476C56.8304 360 71.2829 360 100.188 360H199.812C228.717 360 243.17 360 254.424 354.476C264.331 349.614 272.51 341.834 277.86 332.183C283.939 321.218 284.661 306.784 286.104 277.915V277.915Z" fill="#2E696D"/>
</mask>
<g mask="url(#mask0_6343_21472)">
<g filter="url(#filter0_i_6343_21472)">
<path d="M-3 207.872V360C29.8807 360 172.237 360 303 360V205.461C200.438 161.215 99.0013 248.658 -3 207.872Z" fill="url(#paint0_linear_6343_21472)"/>
</g>
<path d="M-3 74.74C99.0013 115.703 200.438 27.8787 303 72.3175V205.966C200.438 161.527 99.0013 249.352 -3 208.388V74.74Z" fill="url(#paint1_linear_6343_21472)"/>
<path d="M303 72.4199C200.438 28.1592 99.0012 115.632 -3 74.8329V0H303V72.4199Z" fill="url(#paint2_linear_6343_21472)"/>
<path d="M303 72.4199C200.438 28.1592 99.0012 115.632 -3 74.8329V0H303V72.4199Z" fill="url(#paint3_linear_6343_21472)" style="mix-blend-mode:color"/>
<g filter="url(#filter1_iii_6343_21472)">
<path d="M286.104 277.915L300 0H0L13.8957 277.915C15.3392 306.784 16.0609 321.218 22.1397 332.183C27.4903 341.834 35.6694 349.614 45.5758 354.476C56.8304 360 71.2829 360 100.188 360H199.812C228.717 360 243.17 360 254.424 354.476C264.331 349.614 272.51 341.834 277.86 332.183C283.939 321.218 284.661 306.784 286.104 277.915V277.915Z" fill="#2E696D" fill-opacity="0.01"/>
</g>
<path d="M51.5996 0L63.1494 277.197C64.3619 306.296 64.9687 320.845 71.0176 331.907C76.3413 341.643 84.5351 349.503 94.4844 354.417C105.789 360 120.351 360 149.475 360H100.188C71.2831 360 56.8307 360 45.5762 354.477C35.6697 349.615 27.4903 341.834 22.1396 332.183C16.061 321.218 15.3389 306.784 13.8955 277.915L0 0H51.5996Z" fill="url(#paint4_linear_6343_21472)"/>
<g filter="url(#filter2_f_6343_21472)">
<path d="M0 0C0.265585 15.7247 0.557137 31.4481 0.874657 47.1702C2.43082 124.224 4.61073 201.247 7.41437 278.239C8.78167 296.664 6.22328 315.241 15.9019 335.641C21.8031 346.549 31.1514 355.588 42.31 361.13C63.2158 370.136 81.7309 366.949 100.188 367.713C116.792 367.771 133.396 367.8 150 367.8C166.604 367.8 183.208 367.771 199.812 367.713C218.269 366.949 236.784 370.136 257.69 361.13C268.849 355.588 278.197 346.549 284.098 335.641C293.777 315.241 291.218 296.664 292.586 278.239C295.389 201.247 297.569 124.224 299.125 47.1702C299.443 31.448 299.734 15.7247 300 0C298.696 15.6728 297.417 31.3468 296.165 47.0222C290.027 123.847 284.513 200.703 279.623 277.591C278.103 295.642 278.683 315.627 271.623 328.725C266.933 336.997 259.685 343.745 251.158 347.822C237.773 353.863 217.931 351.989 199.812 352.287C183.208 352.229 166.604 352.2 150 352.2C133.396 352.2 116.792 352.229 100.188 352.287C82.0693 351.989 62.2271 353.863 48.8416 347.822C40.3155 343.745 33.0667 336.997 28.3774 328.725C21.3166 315.627 21.8967 295.642 20.3771 277.591C15.4868 200.703 9.97274 123.847 3.83496 47.0222C2.58261 31.3468 1.30429 15.6728 0 0Z" fill="#2E696D"/>
</g>
<g filter="url(#filter3_f_6343_21472)">
<path d="M0 0L13.8957 277.915C15.3392 306.784 16.0609 321.218 22.1397 332.183C27.4903 341.834 35.6694 349.614 45.5758 354.476C56.8304 360 71.2829 360 100.188 360H199.812C228.717 360 243.17 360 254.424 354.476C264.331 349.614 272.51 341.834 277.86 332.183C283.939 321.218 284.661 306.784 286.104 277.915L300 0" stroke="#2E696D" stroke-opacity="0.7" stroke-width="8.4"/>
</g>
<g filter="url(#filter4_i_6343_21472)">
<path d="M286.104 277.915L300 0H0L13.8957 277.915C15.3392 306.784 16.0609 321.218 22.1397 332.183C27.4903 341.834 35.6694 349.614 45.5758 354.476C56.8304 360 71.2829 360 100.188 360H199.812C228.717 360 243.17 360 254.424 354.476C264.331 349.614 272.51 341.834 277.86 332.183C283.939 321.218 284.661 306.784 286.104 277.915V277.915Z" fill="#2E696D" fill-opacity="0.01"/>
</g>
</g>
<path d="M70.502 119.101C82.2647 119.101 91.8018 128.639 91.8018 140.401C91.8015 152.164 82.2645 161.701 70.502 161.701C58.7392 161.701 49.2014 152.164 49.2012 140.401C49.2012 128.638 58.7391 119.101 70.502 119.101ZM71.8369 131.174C70.8358 130.996 69.8914 130.953 69.0039 131.053C67.8468 131.173 66.8742 131.522 66.0791 132.097C65.291 132.665 64.7651 133.46 64.5166 134.476C64.2753 135.441 64.3109 136.3 64.623 137.066C64.9354 137.833 65.4185 138.529 66.0645 139.168C66.7106 139.8 67.4139 140.382 68.1807 140.922C68.9474 141.454 69.6568 141.988 70.3242 142.506C70.9845 143.024 71.5029 143.549 71.8721 144.089C72.2412 144.621 72.3484 145.203 72.1924 145.835C72.0007 146.616 71.5241 147.114 70.7715 147.341C70.019 147.568 69.1667 147.56 68.2227 147.326C67.889 147.241 67.4912 147.099 67.0938 146.922C65.9296 146.418 65.0916 145.41 64.8359 144.238C64.7933 144.047 64.7656 143.918 64.7656 143.918L62.8125 143.429L61.9678 146.822C62.5428 147.22 63.1181 147.646 64.3105 148.249C65.3187 148.76 66.1428 149.115 67.293 149.435L66.4199 152.942L68.6494 153.496L69.5439 149.896C70.3815 150.003 71.1977 150.024 71.9785 149.946C73.2421 149.819 74.3216 149.442 75.209 148.817C76.0964 148.193 76.6789 147.319 76.9629 146.19C77.2043 145.225 77.1616 144.365 76.835 143.605H76.8428C76.5162 142.846 76.0325 142.158 75.3936 141.533C74.7546 140.916 74.0588 140.333 73.292 139.786C72.5254 139.24 71.8157 138.714 71.1484 138.203C70.481 137.692 69.9622 137.18 69.5859 136.662C69.2098 136.144 69.0964 135.604 69.2383 135.029C69.4158 134.326 69.8418 133.857 70.5234 133.623C71.205 133.389 72.0074 133.389 72.9375 133.623C73.4771 133.758 74.0948 133.964 74.5137 134.22C76.3454 135.342 76.1963 137.266 76.1963 137.266L76.2676 137.287L78.1484 137.756L79.0225 134.255C79.0225 134.255 77.5101 133.262 76.3457 132.687C75.6784 132.353 74.8476 132.019 74.0596 131.756L74.9609 128.135L72.7314 127.581L71.8369 131.174Z" fill="white" fill-opacity="0.9"/>
<path d="M107.002 130.083H112.12V144.934C112.113 146.325 111.78 147.542 111.123 148.583C110.466 149.618 109.557 150.422 108.396 150.995C107.243 151.569 105.907 151.855 104.39 151.855C103.048 151.855 101.828 151.621 100.73 151.153C99.6393 150.684 98.7688 149.957 98.1186 148.971C97.4753 147.986 97.1572 146.724 97.1642 145.185H102.335C102.356 145.738 102.46 146.21 102.649 146.601C102.845 146.986 103.114 147.276 103.457 147.472C103.799 147.667 104.208 147.765 104.684 147.765C105.18 147.765 105.6 147.66 105.942 147.451C106.285 147.234 106.544 146.916 106.718 146.496C106.9 146.077 106.995 145.556 107.002 144.934V130.083Z" fill="white" fill-opacity="0.9"/>
<path d="M124.295 144.608V135.453H129.413V151.562H124.526V148.562H124.358C124.002 149.548 123.393 150.331 122.533 150.912C121.68 151.485 120.649 151.772 119.439 151.772C118.342 151.772 117.377 151.52 116.545 151.016C115.713 150.513 115.066 149.81 114.605 148.908C114.143 148 113.909 146.937 113.902 145.72V135.453H119.03V144.713C119.037 145.587 119.268 146.276 119.723 146.779C120.177 147.283 120.796 147.535 121.579 147.535C122.089 147.535 122.547 147.423 122.953 147.199C123.365 146.968 123.69 146.636 123.928 146.203C124.173 145.762 124.295 145.231 124.295 144.608Z" fill="white" fill-opacity="0.9"/>
<path d="M131.201 151.562V135.453H136.329V151.562H131.201ZM133.77 133.575C133.05 133.575 132.431 133.338 131.914 132.862C131.397 132.38 131.138 131.8 131.138 131.121C131.138 130.45 131.397 129.877 131.914 129.401C132.431 128.919 133.05 128.678 133.77 128.678C134.497 128.678 135.116 128.919 135.627 129.401C136.144 129.877 136.403 130.45 136.403 131.121C136.403 131.8 136.144 132.38 135.627 132.862C135.116 133.338 134.497 133.575 133.77 133.575Z" fill="white" fill-opacity="0.9"/>
<path d="M145.637 151.866C143.938 151.866 142.48 151.516 141.263 150.817C140.054 150.118 139.124 149.146 138.474 147.902C137.823 146.65 137.498 145.203 137.498 143.56C137.498 141.91 137.823 140.462 138.474 139.218C139.131 137.966 140.064 136.991 141.274 136.292C142.49 135.593 143.941 135.243 145.626 135.243C147.115 135.243 148.412 135.512 149.517 136.051C150.629 136.589 151.496 137.351 152.118 138.337C152.747 139.316 153.079 140.466 153.114 141.787H148.321C148.224 140.962 147.944 140.316 147.482 139.847C147.028 139.379 146.434 139.144 145.7 139.144C145.105 139.144 144.584 139.312 144.137 139.648C143.689 139.976 143.34 140.466 143.088 141.116C142.843 141.759 142.721 142.556 142.721 143.507C142.721 144.458 142.843 145.262 143.088 145.919C143.34 146.57 143.689 147.063 144.137 147.398C144.584 147.727 145.105 147.891 145.7 147.891C146.175 147.891 146.594 147.79 146.958 147.587C147.329 147.384 147.633 147.087 147.87 146.696C148.108 146.297 148.259 145.815 148.321 145.248H153.114C153.065 146.577 152.733 147.737 152.118 148.73C151.51 149.723 150.653 150.496 149.548 151.048C148.451 151.593 147.147 151.866 145.637 151.866Z" fill="white" fill-opacity="0.9"/>
<path d="M161.792 151.866C160.107 151.866 158.653 151.534 157.429 150.87C156.213 150.198 155.276 149.244 154.619 148.007C153.969 146.762 153.643 145.283 153.643 143.57C153.643 141.906 153.972 140.452 154.629 139.207C155.286 137.956 156.213 136.984 157.408 136.292C158.604 135.593 160.013 135.243 161.635 135.243C162.782 135.243 163.83 135.421 164.781 135.778C165.732 136.134 166.554 136.662 167.246 137.362C167.938 138.061 168.476 138.924 168.861 139.952C169.246 140.973 169.438 142.144 169.438 143.465V144.745H155.437V141.766H164.666C164.659 141.221 164.53 140.735 164.278 140.309C164.026 139.882 163.68 139.55 163.24 139.312C162.806 139.068 162.306 138.945 161.74 138.945C161.167 138.945 160.653 139.075 160.198 139.333C159.744 139.585 159.384 139.931 159.118 140.371C158.852 140.805 158.712 141.298 158.698 141.85V144.881C158.698 145.538 158.828 146.115 159.086 146.612C159.345 147.101 159.712 147.482 160.188 147.755C160.663 148.027 161.229 148.164 161.887 148.164C162.341 148.164 162.754 148.101 163.124 147.975C163.495 147.849 163.813 147.664 164.079 147.419C164.344 147.174 164.544 146.874 164.676 146.517L169.385 146.654C169.19 147.709 168.76 148.629 168.095 149.412C167.438 150.188 166.575 150.793 165.505 151.226C164.435 151.653 163.198 151.866 161.792 151.866Z" fill="white" fill-opacity="0.9"/>
<path d="M181.318 151.562H173.378V130.083H181.307C183.496 130.083 185.38 130.513 186.96 131.373C188.547 132.226 189.771 133.457 190.631 135.065C191.491 136.666 191.921 138.582 191.921 140.812C191.921 143.049 191.491 144.972 190.631 146.58C189.778 148.188 188.558 149.422 186.97 150.282C185.383 151.135 183.499 151.562 181.318 151.562ZM178.57 147.136H181.118C182.321 147.136 183.338 146.933 184.17 146.528C185.009 146.115 185.642 145.448 186.069 144.525C186.502 143.595 186.719 142.357 186.719 140.812C186.719 139.267 186.502 138.036 186.069 137.12C185.635 136.197 184.995 135.533 184.149 135.128C183.31 134.715 182.275 134.509 181.045 134.509H178.57V147.136Z" fill="white" fill-opacity="0.9"/>
<path d="M200.995 151.866C199.303 151.866 197.848 151.52 196.632 150.828C195.422 150.129 194.489 149.157 193.831 147.912C193.181 146.661 192.856 145.21 192.856 143.56C192.856 141.903 193.181 140.452 193.831 139.207C194.489 137.956 195.422 136.984 196.632 136.292C197.848 135.593 199.303 135.243 200.995 135.243C202.687 135.243 204.137 135.593 205.347 136.292C206.564 136.984 207.497 137.956 208.147 139.207C208.804 140.452 209.133 141.903 209.133 143.56C209.133 145.21 208.804 146.661 208.147 147.912C207.497 149.157 206.564 150.129 205.347 150.828C204.137 151.52 202.687 151.866 200.995 151.866ZM201.026 147.996C201.641 147.996 202.162 147.807 202.589 147.43C203.015 147.052 203.34 146.528 203.564 145.857C203.795 145.185 203.91 144.409 203.91 143.528C203.91 142.633 203.795 141.85 203.564 141.179C203.34 140.508 203.015 139.983 202.589 139.606C202.162 139.228 201.641 139.04 201.026 139.04C200.39 139.04 199.851 139.228 199.411 139.606C198.977 139.983 198.645 140.508 198.415 141.179C198.191 141.85 198.079 142.633 198.079 143.528C198.079 144.409 198.191 145.185 198.415 145.857C198.645 146.528 198.977 147.052 199.411 147.43C199.851 147.807 200.39 147.996 201.026 147.996Z" fill="white" fill-opacity="0.9"/>
<path d="M215.412 130.083V151.562H210.283V130.083H215.412Z" fill="white" fill-opacity="0.9"/>
<path d="M222.328 130.083V151.562H217.2V130.083H222.328Z" fill="white" fill-opacity="0.9"/>
<path d="M228.657 151.834C227.629 151.834 226.717 151.663 225.92 151.321C225.129 150.971 224.504 150.447 224.042 149.747C223.588 149.041 223.361 148.157 223.361 147.094C223.361 146.199 223.518 145.444 223.833 144.829C224.147 144.213 224.581 143.714 225.133 143.329C225.685 142.944 226.322 142.654 227.042 142.459C227.762 142.256 228.531 142.119 229.349 142.05C230.265 141.966 231.003 141.878 231.562 141.787C232.121 141.689 232.527 141.553 232.778 141.378C233.037 141.197 233.167 140.941 233.167 140.613V140.56C233.167 140.022 232.981 139.606 232.611 139.312C232.24 139.019 231.74 138.872 231.111 138.872C230.433 138.872 229.887 139.019 229.475 139.312C229.062 139.606 228.8 140.011 228.688 140.529L223.958 140.361C224.098 139.382 224.458 138.508 225.039 137.739C225.626 136.963 226.43 136.355 227.451 135.914C228.479 135.467 229.713 135.243 231.153 135.243C232.181 135.243 233.128 135.365 233.995 135.61C234.862 135.848 235.617 136.197 236.26 136.659C236.904 137.113 237.4 137.673 237.75 138.337C238.106 139.001 238.285 139.76 238.285 140.613V151.562H233.46V149.317H233.334C233.048 149.863 232.681 150.324 232.233 150.702C231.793 151.079 231.272 151.363 230.67 151.551C230.076 151.74 229.405 151.834 228.657 151.834ZM230.24 148.478C230.793 148.478 231.289 148.367 231.73 148.143C232.177 147.919 232.534 147.611 232.799 147.22C233.065 146.821 233.198 146.36 233.198 145.836V144.304C233.051 144.381 232.873 144.451 232.663 144.514C232.46 144.577 232.237 144.636 231.992 144.692C231.747 144.748 231.495 144.797 231.237 144.839C230.978 144.881 230.73 144.92 230.492 144.955C230.01 145.032 229.597 145.15 229.255 145.311C228.919 145.472 228.66 145.682 228.479 145.94C228.304 146.192 228.216 146.493 228.216 146.842C228.216 147.374 228.405 147.779 228.783 148.059C229.167 148.339 229.653 148.478 230.24 148.478Z" fill="white" fill-opacity="0.9"/>
<path d="M239.944 151.562V135.453H244.925V138.389H245.093C245.387 137.327 245.866 136.536 246.53 136.019C247.194 135.495 247.967 135.233 248.848 135.233C249.085 135.233 249.33 135.25 249.582 135.285C249.834 135.313 250.068 135.358 250.285 135.421V139.879C250.04 139.795 249.718 139.728 249.32 139.679C248.928 139.63 248.579 139.606 248.271 139.606C247.663 139.606 247.114 139.742 246.624 140.015C246.142 140.281 245.761 140.655 245.481 141.137C245.208 141.613 245.072 142.172 245.072 142.815V151.562H239.944Z" fill="white" fill-opacity="0.9"/>
<g filter="url(#filter5_f_6343_21472)">
<path d="M137.054 285.193C134.851 285.193 132.809 284.796 130.929 284.003C129.078 283.181 127.477 282.05 126.125 280.61C124.804 279.141 123.761 277.423 122.997 275.454C122.263 273.457 121.895 271.268 121.895 268.889C121.895 266.509 122.248 264.409 122.953 262.411C123.658 260.384 124.656 258.636 125.949 257.167C127.271 255.669 128.858 254.508 130.708 253.686C132.588 252.834 134.689 252.408 137.01 252.408C138.949 252.408 140.682 252.687 142.21 253.245C143.737 253.774 145.044 254.523 146.132 255.492C147.248 256.432 148.129 257.549 148.775 258.842C149.421 260.134 149.833 261.53 150.009 263.028H143.664C143.37 261.441 142.65 260.178 141.504 259.238C140.359 258.269 138.86 257.784 137.009 257.784C135.54 257.784 134.263 258.078 133.175 258.665C132.118 259.223 131.237 260.002 130.532 261.001C129.826 261.999 129.298 263.175 128.945 264.526C128.593 265.877 128.417 267.332 128.417 268.889C128.417 270.445 128.608 271.988 128.99 273.339C129.401 274.691 129.974 275.866 130.708 276.864C131.472 277.834 132.383 278.598 133.44 279.156C134.527 279.685 135.732 279.949 137.054 279.949C138.934 279.949 140.476 279.45 141.68 278.451C142.914 277.423 143.634 276.071 143.84 274.397H150.097C150.009 275.807 149.671 277.158 149.083 278.451C148.496 279.714 147.674 280.845 146.616 281.844C145.529 282.872 144.207 283.695 142.65 284.312C141.122 284.899 139.257 285.193 137.054 285.193ZM152.239 261.926H158.232V284.532H152.239V261.926ZM152.239 253.025H158.232V258.401H152.239V253.025ZM160.11 261.926H163.239V254.875H169.1V261.926H172.978V265.892H169.1V277.878C169.1 278.73 169.306 279.317 169.717 279.641C170.128 279.964 170.671 280.125 171.347 280.125H172.493C172.699 280.125 172.904 280.111 173.11 280.081V284.488C172.816 284.517 172.493 284.532 172.14 284.532C171.817 284.561 171.421 284.576 170.95 284.576H169.364C168.63 284.576 167.895 284.502 167.161 284.356C166.456 284.179 165.81 283.886 165.222 283.474C164.635 283.063 164.15 282.505 163.768 281.8C163.415 281.095 163.239 280.214 163.239 279.156V265.892H160.11L160.11 261.926ZM181.175 265.539H181.307C181.983 264.247 182.747 263.277 183.599 262.631C184.451 261.985 185.538 261.662 186.86 261.662C187.477 261.662 187.947 261.72 188.27 261.838V267.082H188.138C186.169 266.876 184.554 267.302 183.291 268.36C182.027 269.417 181.396 271.136 181.396 273.515V284.532H175.403V261.926H181.175V265.539ZM200.165 285.193C198.285 285.193 196.61 284.885 195.141 284.268C193.702 283.651 192.483 282.814 191.484 281.756C190.485 280.669 189.721 279.391 189.193 277.922C188.693 276.453 188.444 274.881 188.444 273.207C188.444 271.533 188.708 269.975 189.237 268.536C189.795 267.067 190.559 265.804 191.528 264.746C192.527 263.689 193.702 262.852 195.054 262.234C196.434 261.618 197.948 261.309 199.592 261.309C201.414 261.309 203.015 261.647 204.396 262.323C205.776 262.969 206.937 263.894 207.877 265.099C208.817 266.303 209.522 267.743 209.992 269.417C210.492 271.062 210.741 272.899 210.741 274.925H194.349C194.584 276.688 195.171 278.069 196.111 279.068C197.081 280.066 198.417 280.566 200.121 280.566C201.297 280.566 202.237 280.316 202.941 279.817C203.646 279.317 204.161 278.642 204.484 277.79H210.388C210.183 278.789 209.801 279.744 209.243 280.654C208.714 281.535 208.009 282.314 207.128 282.99C206.276 283.665 205.262 284.194 204.087 284.576C202.912 284.987 201.605 285.193 200.165 285.193ZM199.68 265.936C198.094 265.936 196.89 266.377 196.067 267.258C195.245 268.11 194.701 269.285 194.436 270.783H204.484C204.396 269.344 203.911 268.183 203.029 267.302C202.177 266.391 201.061 265.936 199.68 265.936ZM227.087 284.532C226.911 284.297 226.764 283.945 226.647 283.474C226.529 283.004 226.441 282.52 226.382 282.02H226.294C226.001 282.461 225.663 282.872 225.281 283.254C224.928 283.607 224.488 283.915 223.959 284.18C223.459 284.444 222.857 284.65 222.152 284.796C221.447 284.973 220.609 285.061 219.64 285.061C217.32 285.061 215.424 284.473 213.956 283.298C212.487 282.123 211.752 280.405 211.752 278.143C211.752 276.909 211.987 275.866 212.458 275.014C212.927 274.162 213.574 273.457 214.396 272.899C215.219 272.34 216.174 271.914 217.261 271.621C218.377 271.298 219.567 271.048 220.83 270.872C222.71 270.607 224.091 270.328 224.973 270.034C225.853 269.741 226.295 269.168 226.295 268.316C226.295 267.464 225.971 266.847 225.325 266.377C224.708 265.878 223.768 265.628 222.505 265.628C221.095 265.628 220.037 265.892 219.332 266.421C218.627 266.921 218.231 267.714 218.142 268.801H212.81C212.84 267.802 213.06 266.862 213.471 265.98C213.882 265.07 214.485 264.277 215.278 263.601C216.071 262.925 217.07 262.382 218.275 261.97C219.479 261.559 220.904 261.354 222.549 261.354C225.928 261.354 228.351 262.088 229.82 263.557C231.318 264.996 232.067 267.038 232.067 269.682V281.183C232.067 282.887 232.332 283.93 232.86 284.312V284.532H227.088L227.087 284.532ZM221.094 280.875C221.946 280.875 222.695 280.757 223.341 280.522C224.017 280.258 224.575 279.934 225.016 279.553C225.486 279.141 225.839 278.686 226.074 278.187C226.309 277.658 226.426 277.114 226.426 276.556V273.163C225.898 273.486 225.251 273.75 224.487 273.956C223.753 274.132 223.004 274.309 222.24 274.485C220.654 274.837 219.478 275.249 218.715 275.719C217.951 276.189 217.569 276.952 217.569 278.01C217.569 279.068 217.892 279.817 218.538 280.257C219.185 280.669 220.036 280.875 221.094 280.875Z" fill="white" fill-opacity="0.9"/>
<path d="M89.5863 263.616C88.4244 263.616 87.384 263.015 86.803 262.009L78.9459 248.4H100.227L92.3697 262.009C91.7887 263.015 90.7483 263.616 89.5863 263.616Z" fill="white" fill-opacity="0.9"/>
<path d="M96.8591 267.815C95.6972 267.815 94.6565 267.214 94.0756 266.208C93.4946 265.202 93.4946 264 94.0756 262.994L101.932 249.386L112.573 267.815H96.8591Z" fill="white" fill-opacity="0.9"/>
<path d="M78.9459 289.2L86.803 275.592C87.384 274.586 88.4244 273.985 89.5863 273.985C90.7483 273.985 91.7887 274.586 92.3697 275.592L100.227 289.2H78.9459Z" fill="white" fill-opacity="0.9"/>
<path d="M94.0757 274.607C93.4945 273.601 93.4945 272.399 94.0757 271.393C94.6567 270.387 95.6973 269.786 96.8593 269.786H112.573L101.933 288.215L94.0757 274.607Z" fill="white" fill-opacity="0.9"/>
<path d="M66.5996 267.815L77.2402 249.386L85.0969 262.994C85.6781 264 85.6781 265.202 85.0969 266.208C84.5159 267.214 83.4753 267.815 82.3133 267.815H66.5996Z" fill="white" fill-opacity="0.9"/>
<path d="M66.5996 269.786H82.3135C83.4755 269.786 84.5161 270.387 85.0971 271.393C85.6781 272.399 85.6781 273.601 85.0971 274.607L77.2405 288.215L66.5996 269.786Z" fill="white" fill-opacity="0.9"/>
</g>
<defs>
<filter id="filter0_i_6343_21472" x="-3" y="192.6" width="306" height="170.4" filterUnits="userSpaceOnUse" color-interpolation-filters="sRGB">
<feFlood flood-opacity="0" result="BackgroundImageFix"/>
<feBlend mode="normal" in="SourceGraphic" in2="BackgroundImageFix" result="shape"/>
<feColorMatrix in="SourceAlpha" type="matrix" values="0 0 0 0 0 0 0 0 0 0 0 0 0 0 0 0 0 0 127 0" result="hardAlpha"/>
<feOffset dy="3"/>
<feGaussianBlur stdDeviation="2.7"/>
<feComposite in2="hardAlpha" operator="arithmetic" k2="-1" k3="1"/>
<feColorMatrix type="matrix" values="0 0 0 0 1 0 0 0 0 1 0 0 0 0 1 0 0 0 0.1 0"/>
<feBlend mode="normal" in2="shape" result="effect1_innerShadow_6343_21472"/>
</filter>
<filter id="filter1_iii_6343_21472" x="-18.6" y="-37.8" width="366.6" height="397.8" filterUnits="userSpaceOnUse" color-interpolation-filters="sRGB">
<feFlood flood-opacity="0" result="BackgroundImageFix"/>
<feBlend mode="normal" in="SourceGraphic" in2="BackgroundImageFix" result="shape"/>
<feColorMatrix in="SourceAlpha" type="matrix" values="0 0 0 0 0 0 0 0 0 0 0 0 0 0 0 0 0 0 127 0" result="hardAlpha"/>
<feOffset dy="-37.8"/>
<feGaussianBlur stdDeviation="20.4"/>
<feComposite in2="hardAlpha" operator="arithmetic" k2="-1" k3="1"/>
<feColorMatrix type="matrix" values="0 0 0 0 1 0 0 0 0 1 0 0 0 0 1 0 0 0 0.29 0"/>
<feBlend mode="plus-lighter" in2="shape" result="effect1_innerShadow_6343_21472"/>
<feColorMatrix in="SourceAlpha" type="matrix" values="0 0 0 0 0 0 0 0 0 0 0 0 0 0 0 0 0 0 127 0" result="hardAlpha"/>
<feOffset dx="48" dy="-16.2"/>
<feGaussianBlur stdDeviation="27"/>
<feComposite in2="hardAlpha" operator="arithmetic" k2="-1" k3="1"/>
<feColorMatrix type="matrix" values="0 0 0 0 1 0 0 0 0 1 0 0 0 0 1 0 0 0 0.4 0"/>
<feBlend mode="lighten" in2="effect1_innerShadow_6343_21472" result="effect2_innerShadow_6343_21472"/>
<feColorMatrix in="SourceAlpha" type="matrix" values="0 0 0 0 0 0 0 0 0 0 0 0 0 0 0 0 0 0 127 0" result="hardAlpha"/>
<feOffset dx="-18.6" dy="-12"/>
<feGaussianBlur stdDeviation="27"/>
<feComposite in2="hardAlpha" operator="arithmetic" k2="-1" k3="1"/>
<feColorMatrix type="matrix" values="0 0 0 0 1 0 0 0 0 1 0 0 0 0 1 0 0 0 0.25 0"/>
<feBlend mode="normal" in2="effect2_innerShadow_6343_21472" result="effect3_innerShadow_6343_21472"/>
</filter>
<filter id="filter2_f_6343_21472" x="-2.4" y="-2.4" width="304.8" height="372.6" filterUnits="userSpaceOnUse" color-interpolation-filters="sRGB">
<feFlood flood-opacity="0" result="BackgroundImageFix"/>
<feBlend mode="normal" in="SourceGraphic" in2="BackgroundImageFix" result="shape"/>
<feGaussianBlur stdDeviation="1.2" result="effect1_foregroundBlur_6343_21472"/>
</filter>
<filter id="filter3_f_6343_21472" x="-5.99434" y="-2.00996" width="311.989" height="368.01" filterUnits="userSpaceOnUse" color-interpolation-filters="sRGB">
<feFlood flood-opacity="0" result="BackgroundImageFix"/>
<feBlend mode="normal" in="SourceGraphic" in2="BackgroundImageFix" result="shape"/>
<feGaussianBlur stdDeviation="0.9" result="effect1_foregroundBlur_6343_21472"/>
</filter>
<filter id="filter4_i_6343_21472" x="0" y="-3" width="300" height="363" filterUnits="userSpaceOnUse" color-interpolation-filters="sRGB">
<feFlood flood-opacity="0" result="BackgroundImageFix"/>
<feBlend mode="normal" in="SourceGraphic" in2="BackgroundImageFix" result="shape"/>
<feColorMatrix in="SourceAlpha" type="matrix" values="0 0 0 0 0 0 0 0 0 0 0 0 0 0 0 0 0 0 127 0" result="hardAlpha"/>
<feOffset dy="-10.8"/>
<feGaussianBlur stdDeviation="1.5"/>
<feComposite in2="hardAlpha" operator="arithmetic" k2="-1" k3="1"/>
<feColorMatrix type="matrix" values="0 0 0 0 0.180392 0 0 0 0 0.411765 0 0 0 0 0.427451 0 0 0 1 0"/>
<feBlend mode="normal" in2="shape" result="effect1_innerShadow_6343_21472"/>
</filter>
<filter id="filter5_f_6343_21472" x="64.3828" y="246.184" width="170.694" height="45.2334" filterUnits="userSpaceOnUse" color-interpolation-filters="sRGB">
<feFlood flood-opacity="0" result="BackgroundImageFix"/>
<feBlend mode="normal" in="SourceGraphic" in2="BackgroundImageFix" result="shape"/>
<feGaussianBlur stdDeviation="1.1084" result="effect1_foregroundBlur_6343_21472"/>
</filter>
<linearGradient id="paint0_linear_6343_21472" x1="295.2" y1="275.966" x2="5.39146" y2="272.727" gradientUnits="userSpaceOnUse">
<stop stop-color="#FFDA7C"/>
<stop offset="0.324197" stop-color="#FFB438"/>
<stop offset="0.430896" stop-color="#FFB032"/>
<stop offset="0.514698" stop-color="#FFAC2D"/>
<stop offset="0.626478" stop-color="#FFAF39"/>
<stop offset="1" stop-color="#FFD670"/>
</linearGradient>
<linearGradient id="paint1_linear_6343_21472" x1="7.2" y1="150.18" x2="295.2" y2="150.18" gradientUnits="userSpaceOnUse">
<stop stop-color="#FB8F4C"/>
<stop offset="0.35" stop-color="#FF7029"/>
<stop offset="0.5" stop-color="#FF691F"/>
<stop offset="0.65" stop-color="#FF7029"/>
<stop offset="1" stop-color="#FB8F4C"/>
</linearGradient>
<linearGradient id="paint2_linear_6343_21472" x1="2.1" y1="56.8333" x2="295.5" y2="56.8307" gradientUnits="userSpaceOnUse">
<stop stop-color="#C4E3E5"/>
<stop offset="0.375" stop-color="#A1D2D5"/>
<stop offset="0.591346" stop-color="#96CED1"/>
<stop offset="1" stop-color="#BADEE0"/>
</linearGradient>
<linearGradient id="paint3_linear_6343_21472" x1="150" y1="9" x2="150.001" y2="80.6667" gradientUnits="userSpaceOnUse">
<stop offset="0.19213" stop-color="#9DD0D3" stop-opacity="0"/>
<stop offset="0.447043" stop-color="#9DD0D3" stop-opacity="0"/>
<stop offset="0.686962" stop-color="#E7DCCE"/>
<stop offset="1" stop-color="#E38756"/>
</linearGradient>
<linearGradient id="paint4_linear_6343_21472" x1="25.871" y1="180" x2="9.34693" y2="180" gradientUnits="userSpaceOnUse">
<stop offset="0.105769" stop-color="white" stop-opacity="0.18"/>
<stop offset="1" stop-color="white" stop-opacity="0.2"/>
</linearGradient>
</defs>
</svg>
