<svg width="152" height="32" viewBox="0 0 152 32" fill="none" xmlns="http://www.w3.org/2000/svg">
<path d="M16 0C7.164 0 0 7.16399 0 16C0 24.836 7.164 32 16 32C24.836 32 32 24.836 32 16C32 7.16399 24.836 0 16 0Z" fill="url(#paint0_linear_6325_18156)"/>
<path d="M20.7632 18.4084C20.5178 17.8378 20.1552 17.3204 19.6752 16.8511C19.1952 16.3871 18.6725 15.9498 18.0965 15.5391C17.5205 15.1284 16.9872 14.7338 16.4858 14.3498C15.9845 13.9658 15.5952 13.5818 15.3125 13.1924C15.0298 12.8031 14.9445 12.3978 15.0512 11.9658C15.1845 11.4378 15.5045 11.0858 16.0165 10.9098C16.5285 10.7338 17.1312 10.7338 17.8298 10.9098C18.2352 11.0111 18.6992 11.1658 19.0138 11.3578C20.3898 12.2004 20.2778 13.6458 20.2778 13.6458L20.3312 13.6618L21.7445 14.0138L22.4005 11.3844C22.4005 11.3844 21.2645 10.6378 20.3898 10.2058C19.8885 9.9551 19.2645 9.70443 18.6725 9.50709L19.3498 6.78709L17.6752 6.37109L17.0032 9.06976C16.2512 8.93643 15.5418 8.90443 14.8752 8.97909C14.0058 9.06976 13.2752 9.33109 12.6778 9.7631C12.0858 10.1898 11.6912 10.7871 11.5045 11.5498C11.3232 12.2751 11.3498 12.9204 11.5845 13.4964C11.8192 14.0724 12.1818 14.5951 12.6672 15.0751C13.1525 15.5498 13.6805 15.9871 14.2565 16.3924C14.8325 16.7924 15.3658 17.1924 15.8672 17.5818C16.3632 17.9711 16.7525 18.3658 17.0298 18.7711C17.3072 19.1711 17.3872 19.6084 17.2698 20.0831C17.1258 20.6698 16.7685 21.0431 16.2032 21.2138C15.6378 21.3844 14.9978 21.3791 14.2885 21.2031C14.0378 21.1391 13.7392 21.0324 13.4405 20.8991C12.5658 20.5204 11.9365 19.7631 11.7445 18.8831C11.7125 18.7391 11.6912 18.6431 11.6912 18.6431L10.2245 18.2751L9.58984 20.8244C10.0218 21.1231 10.4538 21.4431 11.3498 21.8964C12.1072 22.2804 12.7258 22.5471 13.5898 22.7871L12.9338 25.4218L14.6085 25.8378L15.2805 23.1338C15.9098 23.2138 16.5232 23.2298 17.1098 23.1711C18.0592 23.0751 18.8698 22.7924 19.5365 22.3231C20.2032 21.8538 20.6405 21.1978 20.8538 20.3498C21.0352 19.6244 21.0032 18.9791 20.7578 18.4084H20.7632Z" fill="white"/>
<path d="M43.4191 8.25099H47.2637V19.4065C47.2584 20.4517 47.0089 21.3655 46.5152 22.1481C46.0215 22.9254 45.3388 23.5294 44.4669 23.9601C43.6003 24.3908 42.5972 24.6061 41.4575 24.6061C40.449 24.6061 39.5325 24.4302 38.708 24.0783C37.8886 23.7264 37.2347 23.1802 36.7463 22.4396C36.2631 21.6991 36.0241 20.751 36.0294 19.5956H39.9133C39.9291 20.0105 40.0079 20.365 40.1497 20.6591C40.2967 20.948 40.4989 21.166 40.7563 21.313C41.0136 21.4601 41.3209 21.5336 41.678 21.5336C42.0509 21.5336 42.3661 21.4548 42.6234 21.2973C42.8808 21.1345 43.0751 20.8955 43.2064 20.5804C43.343 20.2652 43.4139 19.8739 43.4191 19.4065V8.25099Z" fill="#F57F00"/>
<path d="M56.4099 19.1623V12.2846H60.2544V24.3855H56.5832V22.1324H56.4571C56.1893 22.8729 55.7323 23.4611 55.0863 23.8971C54.4456 24.3277 53.6709 24.5431 52.7623 24.5431C51.9377 24.5431 51.2129 24.354 50.5879 23.9759C49.9629 23.5977 49.4771 23.0699 49.1304 22.3923C48.7838 21.7096 48.6078 20.9112 48.6026 19.9974V12.2846H52.455V19.2411C52.4603 19.8976 52.6336 20.4149 52.975 20.7931C53.3164 21.1712 53.7812 21.3603 54.3694 21.3603C54.7528 21.3603 55.0968 21.2763 55.4014 21.1082C55.7113 20.9349 55.9555 20.6854 56.1341 20.3598C56.3179 20.0289 56.4099 19.6297 56.4099 19.1623Z" fill="#F57F00"/>
<path d="M61.5972 24.3855V12.2846H65.4497V24.3855H61.5972ZM63.5274 10.8744C62.9864 10.8744 62.5216 10.6959 62.133 10.3387C61.7443 9.97631 61.55 9.54039 61.55 9.03093C61.55 8.52673 61.7443 8.09605 62.133 7.73891C62.5216 7.37651 62.9864 7.19531 63.5274 7.19531C64.0736 7.19531 64.5384 7.37651 64.9218 7.73891C65.3105 8.09605 65.5048 8.52673 65.5048 9.03093C65.5048 9.54039 65.3105 9.97631 64.9218 10.3387C64.5384 10.6959 64.0736 10.8744 63.5274 10.8744Z" fill="#F57F00"/>
<path d="M72.4412 24.614C71.1649 24.614 70.0698 24.3514 69.156 23.8262C68.2474 23.301 67.5488 22.5709 67.0604 21.636C66.5719 20.6959 66.3277 19.6087 66.3277 18.3745C66.3277 17.135 66.5719 16.0478 67.0604 15.1129C67.5541 14.1728 68.2552 13.4401 69.1639 12.9149C70.0777 12.3897 71.1675 12.1271 72.4333 12.1271C73.552 12.1271 74.5263 12.3293 75.3561 12.7337C76.1912 13.1381 76.8425 13.7106 77.3099 14.4511C77.7826 15.1864 78.0321 16.0504 78.0583 17.043H74.458C74.3845 16.4233 74.1744 15.9375 73.8277 15.5856C73.4863 15.2337 73.0399 15.0577 72.4884 15.0577C72.042 15.0577 71.6507 15.1838 71.3146 15.4359C70.9785 15.6827 70.7159 16.0504 70.5268 16.5388C70.343 17.022 70.251 17.6208 70.251 18.3351C70.251 19.0494 70.343 19.6534 70.5268 20.1471C70.7159 20.6355 70.9785 21.0058 71.3146 21.2579C71.6507 21.5047 72.042 21.6282 72.4884 21.6282C72.8456 21.6282 73.1607 21.552 73.4338 21.3997C73.7122 21.2474 73.9407 21.0242 74.1192 20.73C74.2978 20.4307 74.4107 20.0683 74.458 19.6428H78.0583C78.0216 20.6408 77.7721 21.5126 77.3099 22.2584C76.853 23.0042 76.2096 23.5846 75.3797 23.9995C74.5552 24.4091 73.5756 24.614 72.4412 24.614Z" fill="#F57F00"/>
<path d="M84.5771 24.614C83.3114 24.614 82.2189 24.3645 81.2998 23.8656C80.3859 23.3614 79.6821 22.6444 79.1884 21.7148C78.7 20.7799 78.4558 19.6691 78.4558 18.3823C78.4558 17.1323 78.7026 16.0399 79.1963 15.105C79.69 14.1649 80.3859 13.4348 81.284 12.9149C82.1822 12.3897 83.2405 12.1271 84.459 12.1271C85.3203 12.1271 86.1081 12.261 86.8224 12.5288C87.5367 12.7967 88.1538 13.1932 88.6738 13.7185C89.1937 14.2437 89.5982 14.8923 89.887 15.6644C90.1759 16.4312 90.3203 17.3109 90.3203 18.3036V19.2647H79.8029V17.0273H86.7358C86.7305 16.6176 86.6333 16.2526 86.4443 15.9322C86.2552 15.6118 85.9952 15.3624 85.6643 15.1838C85.3387 15 84.9632 14.9081 84.5377 14.9081C84.1071 14.9081 83.721 15.0052 83.3796 15.1996C83.0383 15.3886 82.7678 15.6486 82.5682 15.9795C82.3686 16.3051 82.2636 16.6754 82.2531 17.0903V19.3671C82.2531 19.8608 82.3502 20.2941 82.5446 20.667C82.7389 21.0347 83.0146 21.3209 83.3718 21.5257C83.7289 21.7306 84.1543 21.833 84.648 21.833C84.9894 21.833 85.2993 21.7857 85.5777 21.6912C85.856 21.5966 86.095 21.4575 86.2946 21.2736C86.4942 21.0898 86.6438 20.864 86.7436 20.5961L90.2809 20.6985C90.1339 21.4916 89.8109 22.1822 89.3119 22.7705C88.8182 23.3535 88.1696 23.8078 87.366 24.1334C86.5624 24.4538 85.6328 24.614 84.5771 24.614Z" fill="#F57F00"/>
<path d="M99.2443 24.3855H93.2805V8.25099H99.2364C100.88 8.25099 102.296 8.574 103.483 9.22001C104.675 9.86077 105.594 10.7851 106.24 11.9931C106.886 13.1959 107.209 14.6349 107.209 16.3104C107.209 17.9911 106.886 19.4354 106.24 20.6434C105.599 21.8514 104.683 22.7784 103.491 23.4244C102.298 24.0651 100.883 24.3855 99.2443 24.3855ZM97.1802 21.0609H99.0946C99.9979 21.0609 100.762 20.9086 101.387 20.604C102.017 20.2941 102.493 19.7925 102.813 19.0993C103.139 18.4007 103.302 17.4711 103.302 16.3104C103.302 15.1497 103.139 14.2253 102.813 13.5373C102.487 12.844 102.007 12.345 101.371 12.0404C100.741 11.7305 99.9638 11.5756 99.0394 11.5756H97.1802V21.0609Z" fill="#F57F00"/>
<path d="M114.025 24.614C112.754 24.614 111.662 24.354 110.748 23.834C109.839 23.3088 109.138 22.5788 108.645 21.6439C108.156 20.7038 107.912 19.614 107.912 18.3745C107.912 17.1297 108.156 16.0399 108.645 15.105C109.138 14.1649 109.839 13.4348 110.748 12.9149C111.662 12.3897 112.754 12.1271 114.025 12.1271C115.296 12.1271 116.386 12.3897 117.295 12.9149C118.209 13.4348 118.91 14.1649 119.398 15.105C119.892 16.0399 120.139 17.1297 120.139 18.3745C120.139 19.614 119.892 20.7038 119.398 21.6439C118.91 22.5788 118.209 23.3088 117.295 23.834C116.386 24.354 115.296 24.614 114.025 24.614ZM114.049 21.7069C114.511 21.7069 114.902 21.5651 115.223 21.2815C115.543 20.9979 115.787 20.604 115.955 20.0998C116.129 19.5956 116.215 19.0126 116.215 18.3508C116.215 17.6786 116.129 17.0903 115.955 16.5861C115.787 16.0819 115.543 15.688 115.223 15.4044C114.902 15.1208 114.511 14.979 114.049 14.979C113.571 14.979 113.167 15.1208 112.836 15.4044C112.51 15.688 112.261 16.0819 112.087 16.5861C111.919 17.0903 111.835 17.6786 111.835 18.3508C111.835 19.0126 111.919 19.5956 112.087 20.0998C112.261 20.604 112.51 20.9979 112.836 21.2815C113.167 21.5651 113.571 21.7069 114.049 21.7069Z" fill="#F57F00"/>
<path d="M124.855 8.25099V24.3855H121.003V8.25099H124.855Z" fill="#F57F00"/>
<path d="M130.051 8.25099V24.3855H126.198V8.25099H130.051Z" fill="#F57F00"/>
<path d="M134.805 24.5903C134.033 24.5903 133.347 24.4617 132.749 24.2043C132.155 23.9417 131.685 23.5478 131.338 23.0226C130.997 22.4921 130.826 21.8277 130.826 21.0294C130.826 20.3571 130.945 19.7899 131.181 19.3277C131.417 18.8655 131.743 18.49 132.158 18.2011C132.573 17.9123 133.051 17.6943 133.592 17.5473C134.133 17.3949 134.71 17.2925 135.325 17.24C136.013 17.177 136.567 17.1113 136.987 17.043C137.407 16.9695 137.712 16.8671 137.901 16.7358C138.095 16.5992 138.192 16.4075 138.192 16.1607V16.1213C138.192 15.7169 138.053 15.4044 137.775 15.1838C137.497 14.9632 137.121 14.8529 136.648 14.8529C136.139 14.8529 135.729 14.9632 135.419 15.1838C135.109 15.4044 134.912 15.709 134.828 16.0977L131.275 15.9716C131.38 15.2363 131.651 14.5798 132.087 14.0021C132.528 13.4191 133.132 12.9621 133.899 12.6313C134.671 12.2951 135.598 12.1271 136.68 12.1271C137.452 12.1271 138.164 12.219 138.815 12.4028C139.466 12.5814 140.033 12.844 140.517 13.1906C141 13.532 141.373 13.9522 141.635 14.4511C141.903 14.9501 142.037 15.5199 142.037 16.1607V24.3855H138.413V22.6996H138.318C138.103 23.1092 137.827 23.4559 137.491 23.7395C137.16 24.0231 136.769 24.2358 136.317 24.3776C135.871 24.5194 135.367 24.5903 134.805 24.5903ZM135.994 22.0693C136.409 22.0693 136.782 21.9853 137.113 21.8172C137.449 21.6492 137.717 21.4181 137.917 21.1239C138.116 20.8246 138.216 20.4779 138.216 20.084V18.9338C138.106 18.9916 137.972 19.0441 137.814 19.0914C137.662 19.1386 137.494 19.1833 137.31 19.2253C137.126 19.2673 136.937 19.3041 136.743 19.3356C136.549 19.3671 136.362 19.396 136.184 19.4223C135.821 19.48 135.511 19.5693 135.254 19.6901C135.002 19.8109 134.807 19.9685 134.671 20.1628C134.54 20.3519 134.474 20.5777 134.474 20.8403C134.474 21.2395 134.616 21.5441 134.899 21.7542C135.188 21.9643 135.553 22.0693 135.994 22.0693Z" fill="#F57F00"/>
<path d="M143.283 24.3855V12.2846H147.025V14.4905H147.152C147.372 13.6922 147.732 13.0987 148.231 12.71C148.73 12.3161 149.31 12.1192 149.972 12.1192C150.15 12.1192 150.334 12.1323 150.523 12.1586C150.712 12.1796 150.888 12.2137 151.051 12.261V15.6092C150.867 15.5462 150.626 15.4963 150.326 15.4595C150.032 15.4228 149.77 15.4044 149.539 15.4044C149.082 15.4044 148.669 15.5068 148.302 15.7116C147.939 15.9112 147.653 16.1922 147.443 16.5546C147.238 16.9117 147.136 17.3319 147.136 17.8151V24.3855H143.283Z" fill="#F57F00"/>
<defs>
<linearGradient id="paint0_linear_6325_18156" x1="16" y1="0" x2="16" y2="32" gradientUnits="userSpaceOnUse">
<stop stop-color="#F7911A"/>
<stop offset="1" stop-color="#F57F00"/>
</linearGradient>
</defs>
</svg>
