<svg width="52" height="52" viewBox="0 0 52 52" fill="none" xmlns="http://www.w3.org/2000/svg">
<g clip-path="url(#clip0_6912_5030)">
<mask id="mask0_6912_5030" style="mask-type:alpha" maskUnits="userSpaceOnUse" x="0" y="0" width="48" height="48">
<path d="M24 0C37.2548 0 48 10.7452 48 24C48 26.7682 47.5293 29.4262 46.667 31.9004C45.3109 31.3209 43.8179 31 42.25 31C36.0368 31 31 36.0368 31 42.25C31 43.8179 31.3209 45.3109 31.9004 46.667C29.4262 47.5293 26.7682 48 24 48C10.7452 48 0 37.2548 0 24C0 10.7452 10.7452 0 24 0Z" fill="#D9D9D9"/>
</mask>
<g mask="url(#mask0_6912_5030)">
<g clip-path="url(#clip1_6912_5030)">
<path d="M24 0C10.746 0 0 10.746 0 24C0 37.254 10.746 48 24 48C37.254 48 48 37.254 48 24C48 10.746 37.254 0 24 0Z" fill="url(#paint0_linear_6912_5030)"/>
<path d="M31.1438 27.4642C30.7758 26.6082 30.2318 25.8322 29.5118 25.1282C28.7918 24.4322 28.0078 23.7762 27.1438 23.1602C26.2798 22.5442 25.4798 21.9522 24.7278 21.3762C23.9758 20.8002 23.3918 20.2242 22.9678 19.6402C22.5438 19.0562 22.4158 18.4482 22.5758 17.8002C22.7758 17.0082 23.2558 16.4802 24.0238 16.2162C24.7918 15.9522 25.6958 15.9522 26.7438 16.2162C27.3518 16.3682 28.0478 16.6002 28.5198 16.8882C30.5838 18.1522 30.4158 20.3202 30.4158 20.3202L30.4958 20.3442L32.6158 20.8722L33.5998 16.9282C33.5998 16.9282 31.8958 15.8082 30.5838 15.1602C29.8318 14.7842 28.8958 14.4082 28.0078 14.1122L29.0238 10.0322L26.5118 9.4082L25.5038 13.4562C24.3758 13.2562 23.3118 13.2082 22.3118 13.3202C21.0078 13.4562 19.9118 13.8482 19.0158 14.4962C18.1278 15.1362 17.5358 16.0322 17.2558 17.1762C16.9838 18.2642 17.0238 19.2322 17.3758 20.0962C17.7278 20.9602 18.2718 21.7442 18.9998 22.4642C19.7278 23.1762 20.5198 23.8322 21.3838 24.4402C22.2478 25.0402 23.0478 25.6402 23.7998 26.2242C24.5438 26.8082 25.1278 27.4002 25.5438 28.0082C25.9598 28.6082 26.0798 29.2642 25.9038 29.9762C25.6878 30.8562 25.1518 31.4162 24.3038 31.6722C23.4558 31.9282 22.4958 31.9202 21.4318 31.6562C21.0558 31.5602 20.6078 31.4002 20.1598 31.2002C18.8478 30.6322 17.9038 29.4962 17.6158 28.1762C17.5678 27.9602 17.5358 27.8162 17.5358 27.8162L15.3358 27.2642L14.3838 31.0882C15.0318 31.5362 15.6798 32.0162 17.0238 32.6962C18.1598 33.2722 19.0878 33.6722 20.3838 34.0322L19.3998 37.9842L21.9118 38.6082L22.9198 34.5522C23.8638 34.6722 24.7838 34.6962 25.6638 34.6082C27.0878 34.4642 28.3038 34.0402 29.3038 33.3362C30.3038 32.6322 30.9598 31.6482 31.2798 30.3762C31.5518 29.2882 31.5038 28.3202 31.1358 27.4642H31.1438Z" fill="white"/>
</g>
</g>
<g clip-path="url(#clip2_6912_5030)">
<circle cx="42.25" cy="42.25" r="9.75" fill="#F17D00"/>
<path d="M42.2497 40.598C41.8787 40.598 41.5465 40.4066 41.361 40.086L38.8523 35.75H45.6471L43.1384 40.086C42.9529 40.4066 42.6207 40.598 42.2497 40.598Z" fill="white"/>
<path d="M44.5719 41.936C44.2009 41.936 43.8686 41.7446 43.6831 41.424C43.4976 41.1034 43.4976 40.7206 43.6831 40.3999L46.1917 36.064L49.5892 41.936H44.5718H44.5719Z" fill="white"/>
<path d="M38.8523 48.75L41.361 44.414C41.5465 44.0935 41.8787 43.902 42.2497 43.902C42.6207 43.902 42.9529 44.0935 43.1384 44.414L45.6471 48.75H38.8523Z" fill="white"/>
<path d="M43.6832 44.1002C43.4976 43.7796 43.4976 43.3967 43.6832 43.0761C43.8687 42.7555 44.2009 42.5641 44.5719 42.5641H49.5893L46.1919 48.436L43.6832 44.1002L43.6832 44.1002Z" fill="white"/>
<path d="M34.9102 41.936L38.3077 36.064L40.8163 40.3999C41.0018 40.7205 41.0018 41.1033 40.8163 41.424C40.6307 41.7446 40.2985 41.936 39.9275 41.936H34.9102Z" fill="white"/>
<path d="M34.9102 42.564H39.9275C40.2985 42.564 40.6308 42.7554 40.8163 43.076C41.0018 43.3967 41.0018 43.7795 40.8163 44.1001L38.3077 48.4359L34.9102 42.564Z" fill="white"/>
</g>
</g>
<defs>
<linearGradient id="paint0_linear_6912_5030" x1="24" y1="0" x2="24" y2="48" gradientUnits="userSpaceOnUse">
<stop stop-color="#F7911A"/>
<stop offset="1" stop-color="#F57F00"/>
</linearGradient>
<clipPath id="clip0_6912_5030">
<rect width="52" height="52" fill="white"/>
</clipPath>
<clipPath id="clip1_6912_5030">
<rect width="48" height="48" fill="white"/>
</clipPath>
<clipPath id="clip2_6912_5030">
<rect width="19.5" height="19.5" fill="white" transform="translate(32.5 32.5)"/>
</clipPath>
</defs>
</svg>
