<svg width="90" height="107" viewBox="0 0 90 107" fill="none" xmlns="http://www.w3.org/2000/svg">
<g clip-path="url(#clip0_6013_2416)">
<path d="M74.5152 15.555C80.7222 13.2944 85.2781 8.51475 87.45 2.78608C82.1071 -0.203634 75.5413 -0.936591 69.3343 1.32016C63.1272 3.58077 58.5713 8.36044 56.3994 14.0891C61.7423 17.0788 68.3081 17.8118 74.5152 15.555Z" fill="black"/>
<path d="M45 27.4714C63.6095 27.4714 78.751 42.6128 78.751 61.2223C78.751 79.8318 63.6095 94.9733 45 94.9733C26.3905 94.9733 11.249 79.8318 11.249 61.2223C11.249 42.6128 26.3905 27.4714 45 27.4714ZM45 16.2224C20.1487 16.2224 0 36.3711 0 61.2223C0 86.0736 20.1487 106.222 45 106.222C69.8513 106.222 90 86.0736 90 61.2223C90 36.3711 69.8513 16.2224 45 16.2224Z" fill="black"/>
<path d="M54.5098 65.2875C54.0162 64.1393 53.2865 63.0983 52.3206 62.1539C51.3548 61.2203 50.3031 60.3403 49.1441 59.514C47.9851 58.6877 46.9119 57.8935 45.9032 57.1209C44.8944 56.3482 44.111 55.5755 43.5422 54.7921C42.9735 54.0087 42.8018 53.1931 43.0164 52.3239C43.2847 51.2615 43.9286 50.5532 44.9588 50.199C45.989 49.8449 47.2017 49.8449 48.6075 50.199C49.4231 50.4029 50.3568 50.7142 50.9899 51.1005C53.7586 52.7961 53.5333 55.7043 53.5333 55.7043L53.6406 55.7365L56.4844 56.4448L57.8044 51.1541C57.8044 51.1541 55.5186 49.6517 53.7586 48.7825C52.7499 48.2781 51.4943 47.7737 50.3031 47.3767L51.666 41.9036L48.2963 41.0665L46.9441 46.4967C45.431 46.2284 44.0037 46.164 42.6623 46.3142C40.913 46.4967 39.4428 47.0225 38.2409 47.8918C37.0497 48.7503 36.2556 49.9522 35.88 51.4868C35.5151 52.9463 35.5687 54.2448 36.0409 55.4038C36.5131 56.5628 37.2429 57.6145 38.2194 58.5803C39.196 59.5354 40.2584 60.4154 41.4174 61.231C42.5764 62.0359 43.6496 62.8408 44.6583 63.6242C45.6564 64.4076 46.4398 65.2017 46.9978 66.0173C47.5558 66.8221 47.7168 67.7021 47.4807 68.6572C47.191 69.8377 46.472 70.5889 45.3344 70.9323C44.1969 71.2757 42.9091 71.265 41.4818 70.9108C40.9774 70.7821 40.3765 70.5674 39.7755 70.2991C38.0155 69.5372 36.7492 68.0133 36.3629 66.2426C36.2985 65.9529 36.2556 65.7597 36.2556 65.7597L33.3044 65.0193L32.0273 70.1489C32.8966 70.7499 33.7658 71.3938 35.5687 72.3059C37.0926 73.0786 38.3375 73.6152 40.076 74.0981L38.756 79.3995L42.1257 80.2365L43.4779 74.7957C44.7442 74.9566 45.9783 74.9888 47.1588 74.8708C49.069 74.6776 50.7002 74.1088 52.0416 73.1645C53.383 72.2201 54.263 70.9001 54.6923 69.1938C55.0572 67.7343 54.9928 66.4358 54.4991 65.2875H54.5098Z" fill="black"/>
</g>
<defs>
<clipPath id="clip0_6013_2416">
<rect width="90" height="106.222" fill="white"/>
</clipPath>
</defs>
</svg>
