<svg width="90" height="107" viewBox="0 0 90 107" fill="none" xmlns="http://www.w3.org/2000/svg">
<g clip-path="url(#clip0_6013_1455)">
<path d="M74.5152 15.555C80.7222 13.2944 85.2781 8.51469 87.45 2.78602C82.1071 -0.203695 75.5413 -0.936652 69.3343 1.3201C63.1272 3.58071 58.5713 8.36038 56.3994 14.0891C61.7423 17.0788 68.3081 17.8117 74.5152 15.555Z" fill="black"/>
<path d="M45 27.4713C63.6095 27.4713 78.751 42.6128 78.751 61.2223C78.751 79.8318 63.6095 94.9733 45 94.9733C26.3905 94.9733 11.249 79.8318 11.249 61.2223C11.249 42.6128 26.3905 27.4713 45 27.4713ZM45 16.2223C20.1487 16.2223 0 36.371 0 61.2223C0 86.0736 20.1487 106.222 45 106.222C69.8513 106.222 90 86.0736 90 61.2223C90 36.371 69.8513 16.2223 45 16.2223Z" fill="black"/>
<path d="M36.6003 47.8936C39.847 47.7245 51.0891 48.6566 52.9406 49.0269C53.8448 49.2077 55.7479 49.8198 55.585 52.4963C55.5255 53.461 54.6407 56.8401 53.3536 58.5122C52.2565 59.9387 50.6239 60.1639 48.8165 59.1431C47.6033 58.4582 38.9676 51.9795 37.3176 50.5909C37.1082 50.4139 36.4844 49.7888 35.9366 49.2661C34.995 48.3671 35.7368 47.9389 36.6003 47.8936Z" fill="black"/>
<path d="M35.7144 51.1349C39.9882 54.4611 43.6205 57.3865 47.561 61.1206C48.7629 62.2593 49.443 63.854 48.5415 65.0309C47.5582 66.3143 46.1518 67.4225 44.7944 68.1203C43.9216 68.5688 42.3112 68.3546 41.6659 67.044C40.2516 64.1758 38.2143 59.4853 36.9093 56.4402C36.5922 55.6993 34.8112 51.4054 34.7163 51.1303C34.3571 50.0836 35.5731 51.0233 35.7156 51.1347L35.7144 51.1349Z" fill="black"/>
<path d="M30.5364 70.0349C30.4339 65.6337 31.2704 55.622 31.8615 51.8645C32.0632 50.5818 32.9896 51.0596 33.3208 51.7821C33.9288 53.1058 39.0771 64.7571 39.9579 68.4062C40.3542 70.0487 40.0823 70.5867 38.3431 71.4113C37.6684 71.7309 34.1673 72.8032 33.0673 72.8527C30.8902 72.9505 30.5556 70.8125 30.5376 70.0346L30.5364 70.0349Z" fill="black"/>
<path d="M31.6375 77.7194C31.3897 77.6886 31.161 77.5659 30.9982 77.3776C30.6105 76.9277 30.2565 76.3701 30.0345 75.9351C29.9284 75.7282 30.0718 75.4821 30.3032 75.4662C48.1881 74.2557 58.216 62.0273 59.4915 50.9736C59.5318 50.6193 59.9597 50.4607 60.2207 50.7042C62.5217 52.8449 64.11 55.4476 64.6547 56.4082C64.7932 56.652 64.8326 56.939 64.7687 57.2132C61.807 69.8941 45.5035 79.4669 31.6393 77.7216L31.6375 77.7194Z" fill="black"/>
</g>
<defs>
<clipPath id="clip0_6013_1455">
<rect width="90" height="106.222" fill="white"/>
</clipPath>
</defs>
</svg>
