<svg width="90" height="107" viewBox="0 0 90 107" fill="none" xmlns="http://www.w3.org/2000/svg">
<g clip-path="url(#clip0_6013_1712)">
<path d="M74.5152 15.5549C80.7222 13.2943 85.2781 8.51463 87.45 2.78596C82.1071 -0.203756 75.5413 -0.936713 69.3343 1.32004C63.1272 3.58065 58.5713 8.36032 56.3994 14.089C61.7423 17.0787 68.3081 17.8117 74.5152 15.5549Z" fill="black"/>
<path d="M45 27.4713C63.6095 27.4713 78.751 42.6128 78.751 61.2223C78.751 79.8318 63.6095 94.9732 45 94.9732C26.3905 94.9732 11.249 79.8318 11.249 61.2223C11.249 42.6128 26.3905 27.4713 45 27.4713ZM45 16.2223C20.1487 16.2223 0 36.371 0 61.2223C0 86.0735 20.1487 106.222 45 106.222C69.8513 106.222 90 86.0735 90 61.2223C90 36.371 69.8513 16.2223 45 16.2223Z" fill="black"/>
<path d="M58.6363 56.8169C59.2535 52.7007 56.1172 50.4864 51.8313 49.0128L53.22 43.4345L49.8253 42.5897L48.4713 48.0175C47.5801 47.7937 46.662 47.5854 45.7516 47.3771L47.1133 41.9108L43.7224 41.0659L42.3298 46.6403C41.593 46.4706 40.8677 46.3047 40.1618 46.1311V46.1118L35.4862 44.9429L34.5836 48.5691C34.5836 48.5691 37.1026 49.1478 37.0486 49.1825C38.422 49.5259 38.6727 50.4363 38.6303 51.1577L37.0486 57.5113C37.1451 57.5344 37.2646 57.5691 37.3996 57.6232C37.2878 57.5961 37.1644 57.5653 37.0409 57.5344L34.8227 66.4341C34.653 66.8507 34.2286 67.4796 33.2681 67.2404C33.3028 67.2905 30.803 66.6231 30.803 66.6231L29.1172 70.5078L33.5343 71.6073C34.356 71.8117 35.1622 72.0278 35.953 72.2322L34.5489 77.8722L37.9397 78.717L39.3324 73.1349C40.2582 73.3857 41.157 73.6171 42.0366 73.837L40.6517 79.3921L44.0465 80.2369L45.4507 74.6086C51.2372 75.7041 55.5925 75.2605 57.4249 70.0256C58.9024 65.8092 57.3517 63.3788 54.3041 61.7933C56.5223 61.2802 58.1926 59.822 58.6363 56.8092V56.8169ZM50.8823 67.6917C49.833 71.9082 42.7349 69.6283 40.4357 69.0573L42.2989 61.585C44.5981 62.1598 51.9779 63.2978 50.8823 67.6917ZM51.9316 56.7552C50.9749 60.5897 45.0688 58.6416 43.1515 58.1632L44.8411 51.3852C46.7584 51.8636 52.9269 52.7547 51.9316 56.7552Z" fill="black"/>
</g>
<defs>
<clipPath id="clip0_6013_1712">
<rect width="90" height="106.222" fill="white"/>
</clipPath>
</defs>
</svg>
