<svg width="91" height="28" viewBox="0 0 91 28" fill="none" xmlns="http://www.w3.org/2000/svg">
<g clip-path="url(#clip0_4157_5743)">
<path d="M4.34498 -9.44831e-05V27.9309H0.139648V-9.44831e-05H4.34498ZM6.7301 27.3095L16.961 22.9786V27.9999H6.7301V27.3095ZM21.7312 -9.44831e-05H25.9366V27.9309H21.7312V-9.44831e-05ZM37.8621 5.02748L28.3217 0.69661V-9.44831e-05H37.8621V5.0212V5.02748ZM28.3217 13.6892L35.9791 11.6179V16.3882L28.3217 14.3796V13.752V13.6892ZM28.3217 27.3095L38.4898 22.9786V27.9999H28.3217V27.3095ZM47.4654 -9.44831e-05C47.4654 7.28078 52.5494 10.2308 57.6962 13.9968C63.5335 18.3276 65.7931 22.533 65.7303 27.9936H61.525C61.525 20.7127 56.4409 17.7627 51.2941 13.9968C45.5196 9.67218 43.3228 5.46684 43.3228 -9.44831e-05H47.5281H47.4654ZM47.4654 27.9371H43.26C43.26 22.8531 46.7122 17.769 51.2313 16.2626L51.9845 16.7648C49.0973 19.3382 47.4654 23.2924 47.4654 27.9371ZM61.5878 -9.44831e-05H65.7931C65.7931 5.08397 62.3409 10.0425 57.9473 11.6117L57.1941 11.1095C60.0186 8.53611 61.5878 4.6446 61.5878 -9.44831e-05ZM75.5846 -9.44831e-05V27.9309H71.3793V-9.44831e-05H75.5846ZM77.9697 12.936C82.2378 12.936 84.6229 10.5509 84.6229 6.72217C84.6229 2.89343 81.7985 0.69661 77.9697 0.69661V-9.44831e-05C83.9325 -0.125627 88.7655 1.88289 88.7655 6.71589C88.7655 11.5489 86.2549 12.4276 82.8655 13.4946C88.0751 17.1978 90.9623 22.3447 90.9623 27.9936H86.757C86.757 22.3447 83.6187 17.3234 77.907 13.8712V12.9297H77.9697V12.936Z" fill="#121212"/>
</g>
<defs>
<clipPath id="clip0_4157_5743">
<rect width="90.8227" height="28" fill="white" transform="translate(0.140625)"/>
</clipPath>
</defs>
</svg>
