<svg width="211" height="30" viewBox="0 0 211 30" fill="none" xmlns="http://www.w3.org/2000/svg">
<g clip-path="url(#clip0_4157_5745)">
<path d="M17.9534 11.5903C17.0408 10.6808 15.9539 9.96498 14.7578 9.48584C12.1366 8.47368 9.23252 8.47368 6.61134 9.48584C5.41313 9.96429 4.32566 10.6832 3.41607 11.5983C2.50648 12.5133 1.79406 13.605 1.32279 14.8062C0.310371 17.4403 0.310371 20.356 1.32279 22.9901C1.79536 24.1922 2.50955 25.2848 3.42119 26.1999C4.33284 27.115 5.42254 27.8333 6.62289 28.3104C9.24318 29.3275 12.1491 29.3275 14.7693 28.3104C15.9697 27.8333 17.0594 27.115 17.9711 26.1999C18.8827 25.2848 19.5969 24.1922 20.0694 22.9901C21.0855 20.3568 21.0855 17.4395 20.0694 14.8062C19.5903 13.6015 18.8703 12.5071 17.9534 11.5903ZM15.3034 21.1975C15.0534 21.8386 14.6752 22.422 14.192 22.9122C13.7308 23.3752 13.181 23.7404 12.5754 23.9861C11.9748 24.2297 11.3328 24.3553 10.6846 24.3556C10.0304 24.359 9.38197 24.2335 8.77642 23.9861C8.17724 23.7381 7.63352 23.3729 7.17715 22.9122C6.69488 22.4214 6.31683 21.838 6.06574 21.1975C5.51795 19.7137 5.51795 18.0826 6.06574 16.5988C6.31683 15.9583 6.69488 15.3748 7.17715 14.8841C7.63288 14.4234 8.17681 14.0591 8.77642 13.8131C9.38128 13.5631 10.0301 13.4364 10.6846 13.4407C11.3331 13.4406 11.9754 13.5672 12.5754 13.8131C13.1814 14.0565 13.7315 14.4211 14.192 14.8841C14.6752 15.3743 15.0534 15.9577 15.3034 16.5988C15.8512 18.0826 15.8512 19.7137 15.3034 21.1975ZM41.8442 13.5389C42.1534 14.622 42.3041 15.7441 42.2917 16.8702V28.4606H37.185V17.4908C37.185 16.1147 36.8802 15.0948 36.2699 14.4309C35.6599 13.7669 34.7699 13.4398 33.5996 13.4494C32.9533 13.4358 32.3144 13.5911 31.7463 13.8997C31.2117 14.2005 30.7469 14.6119 30.3838 15.1064C29.9874 15.6456 29.6938 16.2533 29.5178 16.8991C29.3198 17.6164 29.2226 18.3577 29.2292 19.1017V28.4606H24.1282V9.35016H28.9232V11.8443H29.2349C29.8287 10.8872 30.6615 10.1012 31.6511 9.56378C32.7151 8.9924 33.9079 8.70413 35.1152 8.72662C36.1963 8.70272 37.2707 8.89916 38.2733 9.30397C39.1445 9.66453 39.9139 10.2335 40.5134 10.961C41.1243 11.7232 41.5766 12.5996 41.8442 13.5389ZM59.9472 21.5496L64.6237 23.5704C63.8111 25.1601 62.6119 26.5201 61.1365 27.5252C59.6412 28.5529 57.7763 29.0668 55.542 29.0668C54.1474 29.0829 52.7632 28.824 51.4687 28.3047C50.2704 27.8223 49.183 27.1003 48.2731 26.1829C47.3704 25.2603 46.6556 24.1711 46.1686 22.9757C45.6516 21.6807 45.3938 20.2968 45.4094 18.9025C45.3947 17.5015 45.6525 16.1113 46.1686 14.809C46.6412 13.607 47.3554 12.5144 48.267 11.5993C49.1787 10.6842 50.2684 9.96588 51.4687 9.48873C52.7634 8.97032 54.1476 8.71233 55.542 8.72951C57.7515 8.72951 59.6094 9.23567 61.1163 10.2479C62.5805 11.2102 63.7323 12.5786 64.4303 14.1855L59.7537 16.1341C59.3782 15.3214 58.7922 14.6237 58.0563 14.1133C57.2778 13.6315 56.3731 13.3933 55.4582 13.4292C54.8021 13.4254 54.1523 13.5582 53.5501 13.8189C52.9404 14.0813 52.3908 14.4655 51.9352 14.9479C51.4794 15.4306 51.1272 16.0013 50.9 16.6248C50.3804 18.0878 50.3804 19.6854 50.9 21.1484C51.1272 21.7722 51.4794 22.3426 51.9352 22.8253C52.3908 23.3077 52.9404 23.6919 53.5501 23.9543C54.1523 24.2153 54.8021 24.3478 55.4582 24.344C56.4132 24.3746 57.356 24.1238 58.1689 23.6223C58.9417 23.1088 59.5572 22.3914 59.9472 21.5496ZM84.1325 10.909C85.3143 12.3639 85.905 14.3509 85.905 16.8702V28.4606H80.8012V17.4908C80.8012 16.1629 80.4894 15.1583 79.8659 14.4684C79.2423 13.7785 78.3705 13.4494 77.2447 13.4494C76.5931 13.4372 75.9491 13.5923 75.374 13.8997C74.8264 14.1991 74.3536 14.6185 73.9913 15.1266C73.5964 15.6742 73.3031 16.2882 73.1253 16.9395C72.9269 17.6565 72.8299 18.3982 72.8366 19.1421V28.4606H67.7443V0.539748H72.8481V8.37443L72.5364 11.8386H72.8481C73.4255 10.8982 74.2387 10.125 75.2066 9.59554C76.2606 9.00883 77.4505 8.71011 78.6563 8.72951C81.1256 8.7276 82.9509 9.45408 84.1325 10.909ZM98.448 8.72662C94.9397 8.72662 92.1721 9.99969 90.1456 12.5458L93.8493 15.0775C95.0716 13.5975 96.5658 12.8576 98.3325 12.8576C99.4185 12.822 100.482 13.174 101.332 13.8506C101.715 14.1474 102.023 14.529 102.233 14.9652C102.443 15.4017 102.549 15.8809 102.541 16.365V16.9424C101.893 16.695 101.229 16.4923 100.552 16.3361C99.5403 16.1225 98.5069 16.0255 97.4723 16.0475C96.4232 16.0382 95.3785 16.1889 94.3747 16.4949C93.4744 16.7694 92.6349 17.2131 91.9008 17.8026C91.2132 18.3569 90.6546 19.0543 90.264 19.8464C89.8679 20.6801 89.6705 21.5941 89.6866 22.5167C89.6762 23.4289 89.8622 24.3328 90.2322 25.1668C90.5844 25.9574 91.1032 26.6627 91.7536 27.2337C92.425 27.818 93.1981 28.2741 94.0341 28.5789C94.9261 28.9071 95.8695 29.0723 96.8198 29.0668C98.144 29.0668 99.2286 28.807 100.073 28.2874C100.894 27.7882 101.625 27.156 102.238 26.4167H102.55V28.4375H107.579V16.977C107.579 14.2499 106.799 12.1907 105.238 10.7993C103.677 9.4079 101.414 8.71701 98.448 8.72662ZM102.201 22.3493C101.983 22.8732 101.666 23.3498 101.265 23.7522C100.825 24.1841 100.304 24.5247 99.732 24.7551C99.1599 24.9855 98.5481 25.1009 97.9312 25.0946C97.1411 25.1079 96.3684 24.8613 95.7315 24.3931C95.4293 24.1853 95.1836 23.9055 95.0168 23.5787C94.8499 23.2523 94.7673 22.8891 94.776 22.5225C94.7757 22.1394 94.8652 21.7615 95.0378 21.4197C95.2102 21.0777 95.4607 20.7809 95.7691 20.5537C96.433 20.0225 97.3753 19.757 98.5952 19.757C99.2978 19.7506 99.9985 19.8352 100.679 20.0081C101.317 20.1784 101.938 20.4073 102.533 20.6923C102.535 21.2604 102.425 21.8236 102.209 22.3493H102.201ZM112.348 9.35882H117.454V28.4606H112.356L112.348 9.35882ZM117.221 1.19216C117.53 1.49434 117.775 1.85516 117.943 2.25348C118.11 2.65179 118.197 3.07955 118.197 3.51167C118.197 3.94379 118.11 4.37159 117.943 4.76987C117.775 5.16819 117.53 5.52903 117.221 5.83119C116.915 6.13912 116.551 6.38222 116.149 6.5459C115.747 6.70958 115.316 6.79052 114.882 6.78383C114.243 6.78051 113.618 6.58981 113.085 6.23528C112.553 5.88079 112.136 5.378 111.886 4.78907C111.547 3.96513 111.547 3.0409 111.886 2.21696C112.1 1.72384 112.431 1.29034 112.85 0.953999C113.27 0.617662 113.765 0.388684 114.292 0.286867C114.82 0.18508 115.365 0.213515 115.879 0.369747C116.393 0.526008 116.862 0.80533 117.244 1.1835L117.221 1.19216ZM140.271 13.5475C140.581 14.6306 140.731 15.7527 140.719 16.8788V28.4606H135.624V17.4908C135.624 16.1147 135.318 15.0948 134.706 14.4309C134.094 13.7669 133.204 13.4398 132.036 13.4494C131.39 13.4354 130.752 13.5905 130.185 13.8997C129.65 14.2005 129.184 14.6119 128.82 15.1064C128.425 15.6468 128.132 16.2542 127.954 16.8991C127.757 17.6167 127.66 18.3577 127.665 19.1017V28.4606H122.567V9.35016H127.359V11.8443H127.671C128.265 10.8872 129.097 10.1012 130.087 9.56378C131.151 8.9929 132.344 8.70465 133.551 8.72662C134.632 8.70295 135.707 8.89939 136.709 9.30397C137.58 9.66514 138.349 10.234 138.949 10.961C139.56 11.7231 140.013 12.5996 140.28 13.5389L140.271 13.5475ZM145.756 28.0622V0.932348H148.548V28.068L145.756 28.0622ZM159.858 28.6857C157.861 28.6857 156.172 28.0911 154.835 26.9133C154.196 26.3792 153.685 25.7077 153.341 24.9491C152.996 24.1905 152.827 23.364 152.846 22.5311C152.846 20.6663 153.527 19.2258 154.936 18.1259C156.345 17.0261 158.282 16.4545 160.675 16.4545C162.728 16.4545 164.428 16.8327 165.744 17.5746L166.322 17.9065V16.4112C166.325 15.7504 166.182 15.0971 165.903 14.4984C165.624 13.8994 165.216 13.3697 164.708 12.9471C163.685 12.0273 162.354 11.5255 160.978 11.5412C160.035 11.52 159.102 11.7271 158.256 12.1448C157.411 12.5625 156.679 13.1784 156.123 13.9401L153.634 12.3726C155.306 10.1787 157.65 9.11922 160.793 9.11922C163.328 9.11922 165.349 9.79761 166.801 11.14C168.253 12.4823 168.975 14.3356 168.975 16.6768V28.0535H166.33V24.1304C165.733 25.4889 164.788 26.6659 163.591 27.5426C162.496 28.3015 161.19 28.6984 159.858 28.6771V28.6857ZM161.261 18.5532C159.883 18.5067 158.526 18.901 157.387 19.679C156.307 20.4556 155.762 21.4428 155.762 22.6091C155.759 23.1252 155.879 23.635 156.112 24.0958C156.345 24.5565 156.684 24.9552 157.101 25.2591C157.964 25.9364 159.033 26.2961 160.13 26.2782C161.742 26.2698 163.285 25.6255 164.425 24.4855C165.022 23.9555 165.499 23.3051 165.826 22.577C166.153 21.849 166.322 21.06 166.322 20.2621V20.0716L166.174 19.9533C165.002 19.0179 163.342 18.5445 161.25 18.5445L161.261 18.5532ZM190.036 11.9483C188.385 10.0719 186.33 9.11922 183.94 9.11922C182.669 9.1088 181.414 9.40593 180.282 9.98525C179.051 10.6215 178.053 11.6323 177.433 12.872L177.037 13.6717V0.932348H174.24V28.068H176.884V24.1304C177.354 25.2277 178.053 26.2121 178.934 27.0172C180.276 28.2123 182.182 28.6771 183.942 28.6771C186.333 28.6771 188.385 27.7273 190.045 25.8451C191.768 23.9477 192.698 21.4619 192.643 18.8996C192.688 16.3356 191.756 13.8506 190.036 11.9483ZM187.975 24.1131C187.403 24.775 186.694 25.3042 185.896 25.6633C185.098 26.0221 184.231 26.2025 183.356 26.1916C182.478 26.2069 181.607 26.0322 180.802 25.6794C179.997 25.3267 179.278 24.8042 178.694 24.1477C177.491 22.7823 176.881 21.0156 176.881 18.8996C176.881 16.7836 177.491 15.0544 178.697 13.6861C179.28 13.0314 179.995 12.5073 180.794 12.1485C181.594 11.7897 182.46 11.6042 183.336 11.6042C184.213 11.6042 185.079 11.7897 185.879 12.1485C186.678 12.5073 187.393 13.0314 187.975 13.6861C189.205 15.0544 189.829 16.8067 189.829 18.8996C189.829 20.9925 189.205 22.7736 187.975 24.1131ZM203.038 28.6771C201.317 28.7097 199.628 28.2106 198.2 27.2481C196.949 26.4003 195.966 25.2124 195.368 23.8244L197.854 22.765C198.299 23.7531 198.996 24.607 199.875 25.2418C200.797 25.9124 201.909 26.2721 203.05 26.2695C204.133 26.3044 205.202 26.0256 206.13 25.467C207.011 24.8896 207.458 24.1968 207.458 23.3798C207.458 21.9711 206.422 20.9405 204.375 20.3141L201.081 19.4914C197.53 18.5965 195.804 16.9626 195.804 14.4944C195.783 13.736 195.952 12.9845 196.296 12.3079C196.639 11.6314 197.146 11.0513 197.77 10.6203C199.11 9.6244 200.862 9.11922 202.966 9.11922C204.504 9.10037 206.017 9.49946 207.345 10.2739C208.444 10.894 209.33 11.8305 209.889 12.9615L207.403 13.995C206.989 13.2623 206.375 12.6618 205.634 12.2629C204.733 11.7708 203.721 11.5183 202.695 11.5297C201.73 11.5172 200.782 11.7828 199.964 12.2947C199.098 12.8374 198.671 13.5273 198.671 14.3443C198.671 15.6375 199.808 16.5555 202.057 17.0665L204.929 17.8055C208.561 18.7004 210.325 20.4498 210.325 23.1518C210.325 24.702 209.661 25.9779 208.304 27.0518C206.947 28.1257 205.146 28.6771 203.038 28.6771Z" fill="#121212"/>
</g>
<defs>
<clipPath id="clip0_4157_5745">
<rect width="210" height="30" fill="white" transform="translate(0.563477)"/>
</clipPath>
</defs>
</svg>
