<svg width="165" height="36" viewBox="0 0 165 36" fill="none" xmlns="http://www.w3.org/2000/svg">
<g clip-path="url(#clip0_4157_5719)">
<path d="M137.789 9.48622C136.371 9.48622 135.224 9.82349 134.279 10.5989H134.043V2.87769H130.364V26.5128H133.975L134.043 16.4652C134.043 14.6448 135.628 13.1603 137.383 13.1603C139.24 13.1603 140.724 14.6434 140.724 16.4652V26.5128H144.335V16.4652C144.335 12.6212 141.231 9.48622 137.789 9.48622ZM155.338 23.4111C152.435 23.4111 150.039 21.1178 150.039 18.1847C150.039 15.2515 152.435 12.9253 155.338 12.9253C158.24 12.9253 160.569 15.2184 160.569 18.1847C160.569 21.1511 158.273 23.4111 155.338 23.4111ZM155.338 9.4185C150.512 9.4185 146.564 13.3635 146.564 18.1847C146.564 23.0061 150.343 26.9178 155.068 26.9178C157.194 26.9178 159.285 26.1755 160.805 24.5914H161.041V26.5128H164.077V18.1847C164.077 13.3635 160.13 9.4185 155.338 9.4185ZM87.9475 23.4111C85.0451 23.4111 82.6491 21.1178 82.6491 18.1847C82.6491 15.2515 85.0451 12.9253 87.9475 12.9253C90.8499 12.9253 93.1781 15.2184 93.1781 18.1847C93.1781 21.1511 90.8831 23.4111 87.9475 23.4111ZM104.786 13.3289H108.16V9.65348H104.786V4.19221H101.108V9.65487H98.442V13.3303H101.108V19.8047C101.108 23.0074 103.537 26.9192 108.16 26.9192V23.2438C104.853 23.2438 104.786 19.8724 104.786 19.8724V13.3289ZM69.6575 9.48485C67.6322 9.48485 65.7425 10.3612 64.5625 11.8789H64.3606C63.179 10.3612 61.2893 9.48485 59.2987 9.48485C55.4515 9.48485 52.2793 12.6212 52.2793 16.4639V26.5115H55.9231V16.4652C55.9231 14.6448 57.4075 13.1603 59.2972 13.1603C61.1869 13.1603 62.6714 14.6434 62.6714 16.4652V26.5128H66.3153V16.4652C66.3153 14.6448 67.7996 13.1603 69.6562 13.1603C71.5127 13.1603 73.0649 14.6434 73.0649 16.4652V26.5128H76.6756V16.4652C76.6756 12.6212 73.5367 9.48622 69.6562 9.48622L69.6575 9.48485ZM87.9475 9.41711C83.1222 9.41711 79.174 13.3621 79.174 18.1834C79.174 23.0046 82.9534 26.9165 87.6777 26.9165C89.8041 26.9165 91.8958 26.1742 93.4479 24.5901H93.6844V26.5115H96.6879V18.1834C96.6879 13.2943 92.7396 9.41711 87.9475 9.41711ZM119.331 23.241C116.497 23.241 114.168 21.0156 114.168 18.1834C114.168 15.3511 116.497 13.0925 119.331 13.0925C121.357 13.0925 123.111 14.273 123.955 15.958H127.767C126.823 12.1816 123.381 9.41711 119.331 9.41711C114.438 9.41711 110.523 13.3621 110.523 18.1834C110.523 23.0046 114.438 26.9165 119.331 26.9165C123.381 26.9165 126.823 24.051 127.767 20.2748H123.955C123.111 22.062 121.357 23.241 119.331 23.241Z" fill="#121212"/>
<path d="M26.8293 4.56105C26.763 4.69376 26.6038 4.75043 26.4682 4.6896C24.4527 3.77317 22.0027 3.46355 20.3924 3.46355C14.6028 3.46355 8.81192 6.28473 8.81192 10.9222C8.81192 13.4088 10.6781 15.5127 13.4062 15.5127C16.4206 15.5127 18.6701 13.3135 20.4879 11.3051C22.1147 9.48879 24.0293 7.48037 26.7561 7.48037C29.7234 7.48037 31.876 9.67954 31.876 12.6445C31.876 17.3303 26.2289 22.5898 18.4293 22.5898C10.6297 22.5898 4.98404 18.4292 4.98404 12.6445C4.98404 7.24125 11.3961 2.36465 18.4308 2.36465C22.0206 2.36465 24.7238 3.1166 26.7131 4.19476C26.8446 4.26664 26.8958 4.42697 26.8293 4.56105ZM18.4308 0.5C8.81192 0.5 0.963867 8.34152 0.963867 17.9523C0.963867 27.5632 8.81192 35.5 18.4308 35.5C28.0495 35.5 35.993 27.6585 35.993 17.9523C35.993 8.24614 28.1436 0.5 18.4308 0.5Z" fill="#121212"/>
</g>
<defs>
<clipPath id="clip0_4157_5719">
<rect width="163.333" height="35" fill="white" transform="translate(0.963867 0.5)"/>
</clipPath>
</defs>
</svg>
