<svg width="427" height="300" viewBox="0 0 427 300" fill="none" xmlns="http://www.w3.org/2000/svg">
<g clip-path="url(#clip0_5382_11370)">
<path d="M0.000488281 299.803H426.544M0.000488281 257.003H426.544M0.000488281 214.203H426.544M0.000488281 171.402H426.544M0.000488281 128.598H426.544M0.000488281 85.7978H426.544M0.000488281 42.9976H426.544M0.000526137 0.197266H426.545" stroke="#4F5051" stroke-width="0.5" stroke-miterlimit="10"/>
<path d="M213.272 287.977C289.474 287.977 351.249 226.202 351.249 150C351.249 73.7979 289.474 12.0238 213.272 12.0238C137.07 12.0238 75.2959 73.7979 75.2959 150C75.2959 226.202 137.07 287.977 213.272 287.977Z" fill="#262B2B"/>
<path d="M263.121 52.3522L269.503 92.4875H275.338L279.446 46.3759" stroke="#FF0000" stroke-width="0.788436" stroke-miterlimit="10"/>
<path opacity="0.66" d="M35.4443 108.594L110.752 75.0986L134.775 83.3259L150.777 63.0592L182.996 72.6741L207.99 46.3759L263.121 52.3522" stroke="url(#paint0_linear_5382_11370)" stroke-width="1.18265" stroke-miterlimit="10"/>
<path opacity="0.66" d="M279.446 46.3759L343.191 25.2183L384.268 35.7951" stroke="url(#paint1_linear_5382_11370)" stroke-width="1.18265" stroke-miterlimit="10"/>
<path opacity="0.14" d="M263.121 52.3522L269.503 92.4875H275.338L279.446 46.3759" stroke="#FF0000" stroke-width="3.15374" stroke-miterlimit="10"/>
<path d="M213.272 287.977C289.474 287.977 351.249 226.202 351.249 150C351.249 73.7979 289.474 12.0238 213.272 12.0238C137.07 12.0238 75.2959 73.7979 75.2959 150C75.2959 226.202 137.07 287.977 213.272 287.977Z" stroke="#FF7B03" stroke-width="1.5" stroke-miterlimit="10"/>
<path d="M260.031 180.213L212.819 207.651L165.3 180.213L212.512 152.779L260.031 180.213Z" fill="#9BB4B7"/>
<path d="M260.031 180.213L259.987 202.352L212.776 229.786L212.819 207.651L260.031 180.213Z" fill="#5B7072"/>
<path d="M212.819 207.651L212.776 229.786L165.257 202.352L165.3 180.213L212.819 207.651Z" fill="#698285"/>
<g filter="url(#filter0_d_5382_11370)">
<path d="M162.048 238.001L147.391 246.521L132.639 238.001L147.296 229.486L162.048 238.001Z" fill="#BCD5D8"/>
</g>
<path d="M162.048 238.001L162.036 239.192L147.379 247.711L147.391 246.521L162.048 238.001Z" fill="#A3BDC1"/>
<path d="M147.39 246.521L147.379 247.711L132.623 239.192L132.639 238.001L147.39 246.521Z" fill="#A9C3C4"/>
<g filter="url(#filter1_d_5382_11370)">
<path d="M293.921 238.001L279.26 246.521L264.509 238.001L279.166 229.486L293.921 238.001Z" fill="#BCD5D8"/>
</g>
<path d="M293.921 238.001L293.906 239.192L279.249 247.711L279.26 246.521L293.921 238.001Z" fill="#A3BDC1"/>
<path d="M279.261 246.521L279.249 247.711L264.497 239.192L264.509 238.001L279.261 246.521Z" fill="#A9C3C4"/>
<path d="M226.27 164.393C218.661 168.662 206.496 168.54 199.1 164.117C191.705 159.694 191.878 152.649 199.487 148.38C207.095 144.111 219.261 144.233 226.656 148.656C234.052 153.079 233.878 160.124 226.27 164.393Z" stroke="black" stroke-width="0.394218" stroke-miterlimit="10"/>
<path d="M233.153 186.39C221.602 192.871 203.141 192.686 191.918 185.973C186.399 182.673 183.655 178.408 183.667 174.158L183.655 177.627C183.643 181.881 186.387 186.142 191.906 189.442C203.133 196.151 221.594 196.34 233.141 189.86C239.011 186.568 241.964 182.184 241.975 177.789L241.987 174.319C241.975 178.715 239.019 183.095 233.153 186.39Z" fill="#698285"/>
<path d="M240.442 168.856C237.32 163.518 234.198 158.18 231.071 152.839C233.378 156.781 231.761 161.31 226.266 164.393C218.658 168.662 206.492 168.54 199.096 164.117C193.877 160.995 192.426 156.568 194.701 152.732L185.24 168.694C181.79 174.517 183.99 181.238 191.914 185.973C203.141 192.682 221.602 192.871 233.149 186.39C241.487 181.711 243.943 174.84 240.438 168.852L240.442 168.856Z" fill="url(#paint2_linear_5382_11370)"/>
<path d="M212.819 173.567C236.977 173.567 256.562 153.982 256.562 129.824C256.562 105.666 236.977 86.0817 212.819 86.0817C188.661 86.0817 169.077 105.666 169.077 129.824C169.077 153.982 188.661 173.567 212.819 173.567Z" fill="url(#paint3_radial_5382_11370)" stroke="url(#paint4_linear_5382_11370)" stroke-width="0.788436" stroke-miterlimit="10"/>
<mask id="mask0_5382_11370" style="mask-type:luminance" maskUnits="userSpaceOnUse" x="238" y="213" width="41" height="25">
<path d="M238.254 214.825L239.799 213.927L278.586 236.322L277.045 237.221L238.254 214.825Z" fill="white"/>
</mask>
<g mask="url(#mask0_5382_11370)">
<path d="M278.586 236.322L239.799 213.927L238.254 214.825L277.045 237.221L278.586 236.322Z" fill="#BCD5D8"/>
</g>
<mask id="mask1_5382_11370" style="mask-type:luminance" maskUnits="userSpaceOnUse" x="147" y="213" width="41" height="25">
<path d="M187.668 214.825L186.127 213.927L147.335 236.322L148.881 237.221L187.668 214.825Z" fill="white"/>
</mask>
<g mask="url(#mask1_5382_11370)">
<path d="M147.335 236.322L186.127 213.927L187.668 214.825L148.881 237.221L147.335 236.322Z" fill="#BCD5D8"/>
</g>
<path d="M212.669 147.84C197.5 147.84 185.863 133.884 185.378 133.293C184.55 132.288 184.55 130.825 185.378 129.82C185.863 129.229 197.5 115.273 212.669 115.273C227.839 115.273 239.468 129.229 239.957 129.824C240.785 130.829 240.785 132.292 239.957 133.297L239.354 133.995C236.733 136.932 226.085 147.844 212.669 147.844V147.84ZM188.949 131.555C191.433 134.275 201.135 144.008 212.669 144.008C224.204 144.008 233.902 134.271 236.382 131.555C233.898 128.831 224.2 119.101 212.669 119.101C201.135 119.101 191.437 128.835 188.949 131.555Z" fill="url(#paint5_linear_5382_11370)"/>
<path d="M212.669 122.744C207.82 122.744 203.87 126.706 203.87 131.563C203.87 136.419 207.82 140.373 212.669 140.373C217.518 140.373 221.468 136.419 221.468 131.563C221.468 126.706 217.522 122.744 212.669 122.744Z" fill="url(#paint6_linear_5382_11370)"/>
<path d="M212.819 125.614C227.894 125.614 240.115 116.764 240.115 105.848C240.115 94.9312 227.894 86.0817 212.819 86.0817C197.744 86.0817 185.523 94.9312 185.523 105.848C185.523 116.764 197.744 125.614 212.819 125.614Z" fill="url(#paint7_linear_5382_11370)"/>
<path d="M349.081 154.526C334.479 154.526 322.601 142.648 322.601 128.046C322.601 113.444 334.479 101.567 349.081 101.567C363.683 101.567 375.56 113.444 375.56 128.046C375.56 142.648 363.683 154.526 349.081 154.526Z" fill="#FF6D01"/>
<path d="M349.081 103.534C362.618 103.534 373.589 114.509 373.589 128.042C373.589 141.576 362.614 152.551 349.081 152.551C335.547 152.551 324.572 141.576 324.572 128.042C324.572 114.509 335.547 103.534 349.081 103.534ZM349.081 99.5914C333.391 99.5914 320.63 112.356 320.63 128.042C320.63 143.728 333.395 156.493 349.081 156.493C364.767 156.493 377.531 143.728 377.531 128.042C377.531 112.356 364.767 99.5914 349.081 99.5914Z" fill="#262B2B"/>
<path d="M339.816 118.191L358.936 137.31" stroke="white" stroke-width="5.12484" stroke-miterlimit="10" stroke-linecap="round"/>
<path d="M358.349 118.782L339.225 137.902" stroke="white" stroke-width="5.12484" stroke-miterlimit="10" stroke-linecap="round"/>
</g>
<defs>
<filter id="filter0_d_5382_11370" x="123.178" y="220.025" width="48.3312" height="35.9566" filterUnits="userSpaceOnUse" color-interpolation-filters="sRGB">
<feFlood flood-opacity="0" result="BackgroundImageFix"/>
<feColorMatrix in="SourceAlpha" type="matrix" values="0 0 0 0 0 0 0 0 0 0 0 0 0 0 0 0 0 0 127 0" result="hardAlpha"/>
<feOffset/>
<feGaussianBlur stdDeviation="4.73062"/>
<feColorMatrix type="matrix" values="0 0 0 0 0.772549 0 0 0 0 0.984314 0 0 0 0 1 0 0 0 0.5 0"/>
<feBlend mode="normal" in2="BackgroundImageFix" result="effect1_dropShadow_5382_11370"/>
<feBlend mode="normal" in="SourceGraphic" in2="effect1_dropShadow_5382_11370" result="shape"/>
</filter>
<filter id="filter1_d_5382_11370" x="255.048" y="220.025" width="48.3351" height="35.9566" filterUnits="userSpaceOnUse" color-interpolation-filters="sRGB">
<feFlood flood-opacity="0" result="BackgroundImageFix"/>
<feColorMatrix in="SourceAlpha" type="matrix" values="0 0 0 0 0 0 0 0 0 0 0 0 0 0 0 0 0 0 127 0" result="hardAlpha"/>
<feOffset/>
<feGaussianBlur stdDeviation="4.73062"/>
<feColorMatrix type="matrix" values="0 0 0 0 0.772549 0 0 0 0 0.984314 0 0 0 0 1 0 0 0 0.5 0"/>
<feBlend mode="normal" in2="BackgroundImageFix" result="effect1_dropShadow_5382_11370"/>
<feBlend mode="normal" in="SourceGraphic" in2="effect1_dropShadow_5382_11370" result="shape"/>
</filter>
<linearGradient id="paint0_linear_5382_11370" x1="35.2669" y1="72.4573" x2="263.184" y2="72.4573" gradientUnits="userSpaceOnUse">
<stop offset="0.12" stop-color="#29E2D9" stop-opacity="0.1"/>
<stop offset="0.87" stop-color="#29E2D9"/>
</linearGradient>
<linearGradient id="paint1_linear_5382_11370" x1="279.261" y1="35.7715" x2="384.414" y2="35.7715" gradientUnits="userSpaceOnUse">
<stop offset="0.23" stop-color="#29E2D9"/>
<stop offset="1" stop-color="#29E2D9"/>
</linearGradient>
<linearGradient id="paint2_linear_5382_11370" x1="183.663" y1="171.934" x2="241.987" y2="171.934" gradientUnits="userSpaceOnUse">
<stop stop-color="#8BA4A7"/>
<stop offset="0.04" stop-color="#8EA7AA"/>
<stop offset="0.32" stop-color="#A3BCBF"/>
<stop offset="0.51" stop-color="#ABC4C7"/>
<stop offset="0.68" stop-color="#A5BEC1"/>
<stop offset="0.9" stop-color="#94ADB0"/>
<stop offset="1" stop-color="#8BA4A7"/>
</linearGradient>
<radialGradient id="paint3_radial_5382_11370" cx="0" cy="0" r="1" gradientUnits="userSpaceOnUse" gradientTransform="translate(213.403 126.465) scale(45.339 45.339)">
<stop offset="0.16" stop-color="#3C5254"/>
<stop offset="0.3" stop-color="#415759"/>
<stop offset="0.48" stop-color="#51686A"/>
<stop offset="0.68" stop-color="#6C8284"/>
<stop offset="0.76" stop-color="#788F91"/>
<stop offset="0.8" stop-color="#809799"/>
<stop offset="0.86" stop-color="#98AEB0"/>
<stop offset="0.95" stop-color="#BFD3D5"/>
<stop offset="0.97" stop-color="#CFE3E5"/>
</radialGradient>
<linearGradient id="paint4_linear_5382_11370" x1="212.819" y1="173.961" x2="212.819" y2="85.6874" gradientUnits="userSpaceOnUse">
<stop offset="0.11" stop-color="#6F9499"/>
<stop offset="0.99" stop-color="#B4D3D6"/>
</linearGradient>
<linearGradient id="paint5_linear_5382_11370" x1="212.666" y1="147.84" x2="212.666" y2="115.273" gradientUnits="userSpaceOnUse">
<stop offset="0.03" stop-color="white" stop-opacity="0.3"/>
<stop offset="0.88" stop-color="#CB9EFF" stop-opacity="0.05"/>
</linearGradient>
<linearGradient id="paint6_linear_5382_11370" x1="212.665" y1="140.369" x2="212.665" y2="122.744" gradientUnits="userSpaceOnUse">
<stop offset="0.03" stop-color="white" stop-opacity="0.3"/>
<stop offset="0.88" stop-color="#CB9EFF" stop-opacity="0.05"/>
</linearGradient>
<linearGradient id="paint7_linear_5382_11370" x1="212.819" y1="125.618" x2="212.819" y2="86.0817" gradientUnits="userSpaceOnUse">
<stop offset="0.11" stop-color="#EBFCFC" stop-opacity="0"/>
<stop offset="0.22" stop-color="#EBFCFC" stop-opacity="0.03"/>
<stop offset="0.39" stop-color="#EBFCFC" stop-opacity="0.11"/>
<stop offset="0.6" stop-color="#EBFCFC" stop-opacity="0.25"/>
<stop offset="0.83" stop-color="#EBFCFC" stop-opacity="0.44"/>
<stop offset="1" stop-color="#EBFCFC" stop-opacity="0.6"/>
</linearGradient>
<clipPath id="clip0_5382_11370">
<rect width="426.544" height="300" fill="white"/>
</clipPath>
</defs>
</svg>
