<svg width="180" height="253" viewBox="0 0 180 253" fill="none" xmlns="http://www.w3.org/2000/svg">
<path d="M179.767 150.089C179.758 150.4 179.743 150.71 179.724 151.021C179.704 151.317 179.685 151.617 179.666 151.913C179.641 152.224 179.612 152.539 179.578 152.85C179.549 153.146 179.515 153.446 179.476 153.742C179.438 154.058 179.394 154.368 179.345 154.684C179.302 154.985 179.253 155.28 179.205 155.581C179.151 155.897 179.088 156.212 179.03 156.523C178.967 156.838 178.904 157.158 178.836 157.473C178.787 157.692 178.739 157.91 178.686 158.128C178.598 158.487 178.506 158.846 178.414 159.21C178.356 159.424 178.302 159.637 178.239 159.851C178.128 160.239 178.011 160.622 177.89 161.01C177.832 161.195 177.778 161.379 177.72 161.559C177.536 162.126 177.337 162.694 177.128 163.262C176.944 163.756 176.745 164.251 176.546 164.741C176.449 164.974 176.352 165.207 176.25 165.44C176.182 165.595 176.119 165.751 176.051 165.906C175.93 166.177 175.804 166.449 175.677 166.721C175.619 166.847 175.566 166.968 175.503 167.094C175.314 167.487 175.12 167.88 174.921 168.269C174.901 168.307 174.877 168.351 174.858 168.39C174.678 168.739 174.494 169.084 174.304 169.428C174.232 169.559 174.159 169.69 174.081 169.821C173.941 170.073 173.8 170.326 173.654 170.578C173.567 170.728 173.475 170.879 173.387 171.029C173.252 171.257 173.116 171.49 172.975 171.718C172.878 171.873 172.781 172.029 172.679 172.189C172.538 172.407 172.398 172.63 172.257 172.849C172.155 173.004 172.048 173.164 171.946 173.319C171.83 173.494 171.714 173.664 171.597 173.834C171.262 174.324 170.918 174.809 170.564 175.294C170.549 175.313 170.535 175.333 170.525 175.352C170.156 175.852 169.778 176.342 169.39 176.832C169.293 176.958 169.191 177.079 169.094 177.206C168.73 177.657 168.361 178.103 167.983 178.549C167.949 178.588 167.915 178.632 167.881 178.671C167.473 179.146 167.051 179.617 166.624 180.083C166.517 180.199 166.406 180.32 166.294 180.437C165.906 180.854 165.513 181.271 165.11 181.679C165.057 181.732 165.004 181.786 164.95 181.844C164.504 182.3 164.043 182.746 163.577 183.188C163.461 183.299 163.339 183.411 163.223 183.523C162.811 183.911 162.393 184.294 161.966 184.677C161.894 184.74 161.826 184.808 161.753 184.871C161.268 185.303 160.773 185.725 160.273 186.147C160.157 186.244 160.04 186.341 159.929 186.434C159.356 186.909 158.774 187.38 158.182 187.845C158.167 187.855 158.153 187.87 158.138 187.879C157.551 188.335 156.955 188.782 156.348 189.223C156.232 189.306 156.12 189.393 156.004 189.476C155.407 189.907 154.796 190.334 154.179 190.756C154.058 190.839 153.937 190.921 153.815 191.004C153.175 191.436 152.535 191.858 151.875 192.275C151.87 192.275 151.865 192.28 151.86 192.285C151.2 192.702 150.526 193.114 149.847 193.517C149.716 193.595 149.59 193.672 149.459 193.75C148.799 194.138 148.134 194.521 147.46 194.895C147.334 194.968 147.203 195.036 147.072 195.108C146.392 195.482 145.703 195.851 145.005 196.215C144.976 196.229 144.951 196.244 144.922 196.258C144.209 196.627 143.486 196.986 142.753 197.34C142.608 197.413 142.462 197.481 142.312 197.554C141.642 197.874 140.973 198.189 140.294 198.495C140.182 198.544 140.07 198.592 139.959 198.645C139.352 198.917 138.736 199.184 138.12 199.446C137.97 199.509 137.824 199.572 137.674 199.635C136.98 199.926 136.281 200.213 135.573 200.489C135.432 200.542 135.287 200.601 135.146 200.654C134.52 200.897 133.894 201.134 133.263 201.367C133.128 201.416 132.992 201.469 132.856 201.518C132.138 201.78 131.41 202.032 130.682 202.279C130.517 202.333 130.352 202.391 130.192 202.444C129.532 202.668 128.868 202.881 128.203 203.09C128.096 203.124 127.99 203.158 127.878 203.192C127.131 203.424 126.379 203.648 125.627 203.866C125.447 203.919 125.273 203.968 125.093 204.016C124.375 204.22 123.652 204.419 122.924 204.613C122.866 204.628 122.813 204.642 122.755 204.657C121.76 204.919 120.756 205.166 119.746 205.404C119.649 205.428 119.552 205.452 119.455 205.472C118.48 205.7 117.495 205.913 116.505 206.117C116.374 206.146 116.239 206.17 116.108 206.2C115.137 206.399 114.162 206.583 113.177 206.758C113.027 206.787 112.872 206.811 112.721 206.84C111.746 207.01 110.771 207.17 109.786 207.32C109.611 207.345 109.436 207.374 109.262 207.398C108.422 207.519 107.583 207.641 106.739 207.747C106.671 207.757 106.603 207.762 106.53 207.772C105.73 207.873 104.929 207.961 104.124 208.048C103.944 208.068 103.76 208.087 103.58 208.106C102.736 208.194 101.892 208.271 101.048 208.339C100.893 208.354 100.732 208.363 100.577 208.378C99.8057 208.441 99.0295 208.494 98.2532 208.543C98.0979 208.553 97.9475 208.562 97.7923 208.572C97.4284 208.592 97.0597 208.611 96.6909 208.63C96.4192 208.645 96.1524 208.659 95.8807 208.669C95.4974 208.684 95.1092 208.698 94.726 208.713C94.4737 208.723 94.2214 208.732 93.9691 208.742C93.5421 208.756 93.1103 208.761 92.6785 208.771C92.465 208.771 92.2564 208.781 92.0429 208.786C91.4025 208.795 90.7572 208.8 90.1168 208.8C89.1319 208.8 88.1421 208.786 87.1524 208.766C86.7254 208.756 86.2985 208.742 85.8715 208.727C85.396 208.713 84.9157 208.698 84.4402 208.679C84.0036 208.659 83.5669 208.635 83.1303 208.611C82.6548 208.587 82.1745 208.562 81.699 208.533C81.2623 208.504 80.8208 208.47 80.3842 208.441C79.9087 208.407 79.4284 208.373 78.9529 208.334C78.5114 208.296 78.0699 208.252 77.6332 208.213C77.1578 208.169 76.6774 208.126 76.202 208.072C75.4305 207.99 74.6543 207.903 73.8828 207.81C73.7761 207.796 73.6693 207.781 73.5626 207.767C72.8494 207.675 72.1313 207.582 71.4181 207.48C71.2047 207.451 70.9912 207.417 70.7777 207.388C69.9675 207.267 69.1524 207.146 68.3421 207.01C67.6483 206.893 66.9594 206.772 66.2704 206.646C66.0472 206.607 65.8289 206.563 65.6057 206.52C65.14 206.432 64.6791 206.345 64.2181 206.253C64.0386 206.219 63.8591 206.18 63.6844 206.141C62.6462 205.928 61.6127 205.705 60.5939 205.467C60.4774 205.438 60.361 205.409 60.2397 205.385C59.1917 205.137 58.1486 204.88 57.1249 204.613C57.057 204.594 56.989 204.574 56.9211 204.56C55.8586 204.278 54.8057 203.987 53.7675 203.677C53.7578 203.677 53.7432 203.672 53.7335 203.667C52.7001 203.361 51.6764 203.041 50.6672 202.711C50.5702 202.682 50.4731 202.648 50.3761 202.619C50.216 202.566 50.0559 202.512 49.8909 202.459C49.527 202.338 49.1583 202.211 48.7993 202.09C48.6052 202.022 48.4111 201.954 48.2219 201.886C47.892 201.77 47.5621 201.654 47.2321 201.532C47.0332 201.459 46.8392 201.387 46.6402 201.314C46.3103 201.193 45.9852 201.071 45.6602 200.945C45.4758 200.872 45.2914 200.804 45.1071 200.732C44.7383 200.591 44.3745 200.445 44.0106 200.3C43.8747 200.246 43.734 200.193 43.5982 200.135C43.1033 199.936 42.6084 199.732 42.1184 199.524C42.0165 199.48 41.9146 199.436 41.8127 199.393C41.4246 199.228 41.0413 199.063 40.658 198.893C40.4882 198.815 40.3184 198.742 40.1486 198.665C39.8332 198.524 39.5227 198.383 39.2122 198.243C39.0278 198.16 38.8483 198.073 38.664 197.99C38.3631 197.85 38.0672 197.709 37.7712 197.568C37.5917 197.481 37.4171 197.399 37.2375 197.311C36.927 197.161 36.6165 197.006 36.306 196.85C36.1556 196.773 36.0003 196.7 35.8499 196.622C35.4327 196.409 35.0203 196.195 34.6127 195.982C34.5691 195.958 34.5303 195.938 34.4866 195.919C34.0354 195.681 33.589 195.438 33.1475 195.196C33.0117 195.118 32.8758 195.045 32.74 194.968C32.4343 194.798 32.1286 194.628 31.8278 194.454C31.6629 194.361 31.5028 194.264 31.3378 194.172C31.0613 194.012 30.7896 193.852 30.5179 193.692C30.3529 193.595 30.1879 193.498 30.023 193.396C29.7513 193.231 29.4796 193.066 29.2079 192.896C29.0575 192.804 28.9022 192.707 28.7518 192.615C28.4462 192.421 28.1405 192.227 27.8397 192.032C27.7281 191.96 27.6214 191.892 27.5098 191.819C27.1022 191.552 26.6995 191.285 26.2968 191.014C26.2047 190.951 26.1173 190.892 26.03 190.829C25.7195 190.616 25.4138 190.407 25.1082 190.189C24.9675 190.092 24.8316 189.995 24.6958 189.893C24.4386 189.713 24.1863 189.529 23.934 189.345C23.7885 189.238 23.6429 189.131 23.4974 189.02C23.2548 188.84 23.0171 188.661 22.7793 188.481C22.6386 188.374 22.4931 188.263 22.3524 188.156C22.1001 187.962 21.8526 187.768 21.6052 187.574C21.4839 187.477 21.3626 187.385 21.2413 187.287C20.9017 187.016 20.5669 186.744 20.237 186.468C20.2127 186.448 20.1836 186.424 20.1594 186.404C19.8052 186.108 19.4559 185.813 19.1065 185.512C18.9949 185.415 18.8882 185.318 18.7766 185.225C18.5389 185.017 18.306 184.808 18.0731 184.6C17.947 184.488 17.8208 184.372 17.6947 184.255C17.4812 184.061 17.2677 183.862 17.0591 183.668C16.933 183.552 16.8068 183.43 16.6807 183.309C16.472 183.11 16.2634 182.906 16.0548 182.707C15.9383 182.596 15.8219 182.479 15.7055 182.368C15.4726 182.135 15.2397 181.902 15.0117 181.664C14.9292 181.582 14.8467 181.499 14.7691 181.417C14.4634 181.097 14.1578 180.781 13.8569 180.456C13.789 180.383 13.7211 180.306 13.6532 180.233C13.4251 179.986 13.1971 179.733 12.9739 179.481C12.872 179.365 12.7702 179.248 12.6683 179.132C12.479 178.918 12.2947 178.705 12.1103 178.491C12.0036 178.365 11.8968 178.239 11.7901 178.113C11.6154 177.904 11.4408 177.691 11.2661 177.482C11.1642 177.356 11.0623 177.23 10.9604 177.104C10.7809 176.88 10.6014 176.652 10.4268 176.424C10.3394 176.313 10.2521 176.201 10.1696 176.09C9.92702 175.774 9.68929 175.454 9.45155 175.134C9.437 175.114 9.42244 175.09 9.40303 175.071C9.15559 174.731 8.91301 174.387 8.67527 174.042C8.59764 173.931 8.52487 173.824 8.45209 173.712C8.29198 173.475 8.12702 173.237 7.97177 172.999C7.88444 172.868 7.80196 172.737 7.71462 172.606C7.56907 172.383 7.42837 172.165 7.28767 171.941C7.20519 171.806 7.11786 171.67 7.03538 171.534C6.89468 171.306 6.75883 171.078 6.62298 170.85C6.54535 170.724 6.47257 170.597 6.3998 170.466C6.24454 170.2 6.09414 169.933 5.94859 169.671C5.90007 169.579 5.8467 169.491 5.79818 169.399C5.60411 169.04 5.41004 168.686 5.22567 168.327C5.18201 168.244 5.13834 168.157 5.09953 168.075C4.95883 167.798 4.81813 167.521 4.68713 167.245C4.62406 167.114 4.56584 166.988 4.50276 166.857C4.39117 166.619 4.27958 166.381 4.17284 166.144C4.10977 166.003 4.0467 165.862 3.98363 165.721C3.88174 165.489 3.77985 165.256 3.68282 165.023C3.6246 164.887 3.56637 164.746 3.50815 164.61C3.40627 164.358 3.30438 164.111 3.20735 163.858C3.15883 163.737 3.11031 163.616 3.06664 163.494C2.9308 163.135 2.7998 162.776 2.67365 162.417C2.67365 162.403 2.66395 162.393 2.6591 162.379C2.5281 162.005 2.40681 161.631 2.28551 161.258C2.2467 161.137 2.21274 161.02 2.17392 160.899C2.09629 160.642 2.01381 160.385 1.94104 160.127C1.90222 159.987 1.86341 159.846 1.81974 159.705C1.75182 159.463 1.68875 159.225 1.62567 158.982C1.58686 158.837 1.5529 158.691 1.51408 158.546C1.45101 158.298 1.39279 158.051 1.33942 157.803C1.31031 157.668 1.27635 157.532 1.24724 157.391C1.18416 157.105 1.12594 156.814 1.06772 156.523C1.04832 156.43 1.02891 156.333 1.0095 156.241C0.936725 155.858 0.8688 155.475 0.810579 155.091C0.796024 154.999 0.781469 154.902 0.766914 154.81C0.723248 154.519 0.679582 154.228 0.640768 153.932C0.621361 153.796 0.606806 153.655 0.59225 153.519C0.56314 153.267 0.534029 153.015 0.509771 152.762C0.495215 152.612 0.48066 152.466 0.466105 152.316C0.441846 152.069 0.427291 151.821 0.407884 151.574C0.39818 151.428 0.388477 151.283 0.378773 151.137C0.364218 150.87 0.349663 150.608 0.339959 150.341C0.335108 150.215 0.330256 150.089 0.325404 149.963C0.28659 149.58 0.281738 149.187 0.281738 148.794V192.062C0.281738 192.455 0.28659 192.843 0.301145 193.236C0.301145 193.362 0.310849 193.488 0.315701 193.614C0.325404 193.881 0.339959 194.148 0.354515 194.41C0.364218 194.555 0.373922 194.701 0.383625 194.846C0.403032 195.094 0.422439 195.341 0.441846 195.589C0.456401 195.739 0.470957 195.885 0.485512 196.035C0.509771 196.287 0.538881 196.54 0.567992 196.787C0.582547 196.923 0.601954 197.064 0.616509 197.2C0.655323 197.491 0.698989 197.782 0.742655 198.073C0.75721 198.165 0.766914 198.262 0.786321 198.354C0.849393 198.738 0.912466 199.121 0.985242 199.504C1.00465 199.596 1.02406 199.693 1.04346 199.786C1.10168 200.077 1.15991 200.363 1.22298 200.654C1.25209 200.79 1.28605 200.926 1.31516 201.066C1.37338 201.314 1.4316 201.561 1.48982 201.804C1.52379 201.949 1.5626 202.095 1.60142 202.241C1.66449 202.483 1.72756 202.721 1.79549 202.963C1.8343 203.104 1.87311 203.245 1.91678 203.386C1.98956 203.643 2.07204 203.9 2.14966 204.157C2.18848 204.278 2.22244 204.4 2.26125 204.516C2.38255 204.89 2.50384 205.263 2.63484 205.637C2.63484 205.651 2.64454 205.661 2.64939 205.676C2.77554 206.035 2.90654 206.394 3.04239 206.753C3.08605 206.874 3.13457 206.995 3.18309 207.117C3.28012 207.369 3.38201 207.616 3.4839 207.869C3.54212 208.009 3.60034 208.145 3.65856 208.286C3.75559 208.519 3.85748 208.752 3.95937 208.985C4.02244 209.125 4.08551 209.266 4.14859 209.407C4.25532 209.644 4.36691 209.882 4.4785 210.115C4.54158 210.246 4.5998 210.372 4.66287 210.503C4.79872 210.78 4.93457 211.056 5.07527 211.333C5.11894 211.42 5.1626 211.503 5.20627 211.59C5.39063 211.949 5.5847 212.308 5.77877 212.662C5.82729 212.754 5.88066 212.847 5.93403 212.939C6.08443 213.206 6.22999 213.468 6.38524 213.734C6.45802 213.861 6.53565 213.987 6.60842 214.118C6.74427 214.346 6.88012 214.574 7.02082 214.802C7.1033 214.938 7.18578 215.073 7.27311 215.209C7.41381 215.432 7.55452 215.656 7.70007 215.874C7.7874 216.005 7.86988 216.136 7.95721 216.267C8.11247 216.505 8.27257 216.742 8.43753 216.975C8.51516 217.087 8.58794 217.199 8.66557 217.305C8.9033 217.65 9.14589 217.989 9.39333 218.329C9.40789 218.348 9.42244 218.373 9.44185 218.392C9.67473 218.712 9.91732 219.032 10.1599 219.348C10.2472 219.459 10.3346 219.571 10.417 219.683C10.5917 219.911 10.7712 220.134 10.9507 220.362C11.0526 220.488 11.1545 220.614 11.2564 220.74C11.4262 220.954 11.6009 221.162 11.7804 221.371C11.8871 221.497 11.9939 221.623 12.1006 221.749C12.285 221.963 12.4693 222.176 12.6537 222.39C12.7556 222.506 12.8575 222.623 12.9642 222.739C13.1874 222.992 13.4154 223.239 13.6435 223.486C13.7114 223.559 13.7793 223.637 13.8472 223.71C14.148 224.03 14.4489 224.35 14.7545 224.665C14.837 224.748 14.9195 224.835 15.002 224.918C15.23 225.151 15.4629 225.383 15.6958 225.616C15.8122 225.733 15.9286 225.844 16.0451 225.956C16.2537 226.16 16.4575 226.359 16.671 226.558C16.7971 226.679 16.9233 226.795 17.0494 226.917C17.258 227.111 17.4715 227.31 17.685 227.504C17.8111 227.62 17.9373 227.737 18.0634 227.848C18.2963 228.057 18.5292 228.265 18.7669 228.469C18.8785 228.566 18.9852 228.663 19.0968 228.76C19.4413 229.061 19.7906 229.357 20.1497 229.653C20.1788 229.677 20.2079 229.701 20.237 229.726C20.5669 229.997 20.8968 230.269 21.2316 230.536C21.3529 230.633 21.4742 230.73 21.5955 230.822C21.8429 231.016 22.0904 231.21 22.3427 231.404C22.4834 231.511 22.6289 231.623 22.7696 231.73C23.0073 231.909 23.2451 232.089 23.4877 232.268C23.6332 232.375 23.7836 232.486 23.9292 232.593C24.1815 232.777 24.4338 232.957 24.6861 233.137C24.8219 233.234 24.9626 233.335 25.0985 233.432C25.4041 233.646 25.7098 233.859 26.0203 234.073C26.1125 234.136 26.1998 234.194 26.2871 234.257C26.685 234.529 27.0925 234.796 27.5001 235.063C27.6068 235.135 27.7184 235.203 27.83 235.276C28.1308 235.47 28.4365 235.664 28.7421 235.858C28.8925 235.955 29.0478 236.048 29.1982 236.14C29.4699 236.305 29.7416 236.475 30.0133 236.639C30.1782 236.737 30.3432 236.838 30.5082 236.935C30.7799 237.096 31.0516 237.256 31.3233 237.416C31.4882 237.513 31.6483 237.605 31.8133 237.702C32.1141 237.872 32.4149 238.042 32.7157 238.211C32.8564 238.289 32.9923 238.367 33.133 238.444C33.5745 238.687 34.0208 238.93 34.4672 239.167C34.5157 239.192 34.5594 239.216 34.6079 239.24C35.0106 239.454 35.4181 239.662 35.8305 239.871C35.9858 239.948 36.141 240.026 36.2963 240.104C36.6068 240.259 36.9125 240.409 37.223 240.565C37.3976 240.652 37.5772 240.734 37.7567 240.822C38.0526 240.962 38.3534 241.108 38.6494 241.244C38.8289 241.331 39.0133 241.414 39.1976 241.496C39.5082 241.637 39.8187 241.782 40.134 241.918C40.3038 241.996 40.4737 242.073 40.6435 242.146C41.0219 242.311 41.4052 242.476 41.7885 242.641C41.8952 242.685 41.9971 242.733 42.1038 242.777C42.5939 242.986 43.0839 243.189 43.5788 243.388C43.7146 243.442 43.8553 243.495 43.9912 243.553C44.3551 243.699 44.7189 243.844 45.0877 243.985C45.272 244.058 45.4564 244.126 45.6408 244.199C45.9658 244.325 46.2909 244.446 46.6208 244.567C46.8198 244.64 47.0138 244.713 47.2127 244.786C47.5427 244.907 47.8677 245.023 48.2025 245.14C48.3966 245.208 48.5858 245.276 48.7799 245.344C49.1437 245.47 49.5076 245.591 49.8715 245.712C50.0316 245.766 50.1917 245.819 50.3567 245.872C50.3955 245.887 50.4392 245.901 50.478 245.911C50.5362 245.931 50.5896 245.945 50.6478 245.965C51.6569 246.294 52.6807 246.615 53.7141 246.92C53.7238 246.92 53.7383 246.925 53.7481 246.93C54.7863 247.236 55.8392 247.532 56.9017 247.813C56.9696 247.832 57.0375 247.852 57.1055 247.866C58.134 248.138 59.1723 248.395 60.2203 248.638C60.3367 248.667 60.4532 248.696 60.5745 248.72C61.5933 248.958 62.6268 249.181 63.665 249.395C63.7524 249.414 63.8397 249.434 63.927 249.453C64.0192 249.472 64.1065 249.487 64.1987 249.506C64.6596 249.599 65.1254 249.686 65.5863 249.773C65.8095 249.817 66.0278 249.86 66.251 249.899C66.9351 250.025 67.6289 250.147 68.3227 250.263C69.133 250.399 69.9481 250.525 70.7583 250.642C70.9718 250.671 71.1853 250.705 71.3987 250.734C72.1119 250.836 72.83 250.933 73.5432 251.02C73.6499 251.035 73.7567 251.049 73.8634 251.059C74.5281 251.141 75.188 251.219 75.8478 251.287C75.9594 251.297 76.071 251.306 76.1826 251.321C76.658 251.369 77.1384 251.413 77.6138 251.462C78.0553 251.505 78.4968 251.544 78.9335 251.583C79.409 251.622 79.8893 251.656 80.3648 251.69C80.8063 251.724 81.2429 251.758 81.6796 251.782C82.1551 251.811 82.6354 251.835 83.1109 251.859C83.5475 251.884 83.9842 251.908 84.4208 251.927C84.8963 251.947 85.3766 251.961 85.8521 251.976C86.2063 251.986 86.5605 252.005 86.9146 252.01C86.9874 252.01 87.0602 252.01 87.133 252.01C88.1227 252.034 89.1125 252.044 90.0974 252.044C90.7427 252.044 91.3831 252.039 92.0235 252.029C92.237 252.029 92.4456 252.02 92.6591 252.015C93.0909 252.005 93.5179 252 93.9497 251.986C94.2068 251.976 94.4591 251.966 94.7163 251.956C95.0995 251.942 95.4828 251.932 95.8613 251.913C96.1378 251.903 96.4095 251.884 96.6861 251.874C97.0499 251.855 97.409 251.84 97.7729 251.816C97.8311 251.816 97.8844 251.811 97.9427 251.806C98.0397 251.801 98.1416 251.792 98.2386 251.787C99.0149 251.738 99.7863 251.685 100.558 251.622C100.713 251.607 100.873 251.597 101.028 251.583C101.877 251.515 102.717 251.432 103.561 251.35C103.745 251.331 103.925 251.311 104.109 251.292C104.915 251.204 105.715 251.117 106.511 251.015C106.579 251.006 106.647 251.001 106.719 250.991C107.564 250.884 108.408 250.768 109.242 250.642C109.339 250.627 109.436 250.617 109.534 250.603C109.611 250.593 109.689 250.579 109.766 250.564C110.751 250.414 111.731 250.253 112.702 250.084C112.852 250.059 113.003 250.03 113.158 250.001C114.138 249.827 115.118 249.637 116.088 249.443C116.219 249.414 116.355 249.39 116.486 249.361C117.476 249.157 118.461 248.944 119.436 248.716C119.533 248.691 119.63 248.667 119.727 248.648C120.736 248.41 121.741 248.162 122.735 247.9C122.745 247.9 122.755 247.896 122.769 247.891C122.813 247.881 122.861 247.866 122.905 247.852C123.633 247.658 124.356 247.459 125.074 247.255C125.253 247.207 125.433 247.153 125.607 247.105C126.364 246.886 127.116 246.663 127.859 246.43C127.965 246.396 128.072 246.362 128.184 246.328C128.853 246.12 129.513 245.901 130.173 245.683C130.338 245.63 130.503 245.576 130.663 245.518C131.391 245.271 132.118 245.014 132.836 244.756C132.972 244.708 133.103 244.655 133.239 244.606C133.875 244.373 134.505 244.135 135.131 243.888C135.272 243.835 135.413 243.781 135.553 243.723C136.257 243.446 136.96 243.16 137.654 242.869C137.805 242.806 137.95 242.743 138.101 242.68C138.717 242.418 139.333 242.151 139.939 241.879C140.051 241.831 140.163 241.782 140.274 241.729C140.953 241.423 141.628 241.108 142.293 240.788C142.356 240.759 142.424 240.73 142.491 240.696C142.574 240.657 142.652 240.613 142.734 240.574C143.462 240.22 144.19 239.861 144.903 239.492C144.932 239.478 144.956 239.463 144.985 239.449C145.684 239.09 146.368 238.716 147.052 238.342C147.178 238.27 147.309 238.202 147.435 238.129C148.11 237.755 148.774 237.372 149.434 236.984C149.565 236.906 149.691 236.829 149.822 236.751C150.502 236.348 151.176 235.936 151.836 235.519C151.841 235.519 151.846 235.514 151.85 235.509C152.505 235.092 153.151 234.665 153.791 234.238C153.912 234.155 154.034 234.073 154.155 233.99C154.771 233.568 155.378 233.141 155.979 232.71C156.096 232.627 156.207 232.54 156.324 232.457C156.93 232.016 157.527 231.569 158.114 231.113C158.129 231.104 158.143 231.089 158.158 231.079C158.755 230.618 159.332 230.143 159.909 229.668C159.972 229.614 160.04 229.561 160.108 229.507C160.157 229.464 160.205 229.42 160.259 229.381C160.758 228.959 161.253 228.537 161.743 228.105C161.816 228.042 161.884 227.974 161.957 227.911C162.384 227.533 162.801 227.145 163.213 226.756C163.33 226.645 163.451 226.533 163.567 226.422C164.033 225.975 164.494 225.529 164.941 225.073C164.994 225.02 165.047 224.966 165.101 224.908C165.503 224.496 165.896 224.083 166.284 223.666C166.396 223.549 166.503 223.428 166.61 223.312C167.036 222.846 167.459 222.375 167.866 221.9C167.9 221.861 167.934 221.817 167.968 221.779C168.346 221.337 168.715 220.886 169.079 220.435C169.181 220.308 169.278 220.187 169.375 220.061C169.763 219.571 170.142 219.081 170.51 218.581C170.525 218.562 170.539 218.542 170.549 218.523C170.903 218.043 171.248 217.553 171.583 217.063C171.626 216.995 171.675 216.932 171.723 216.869C171.796 216.762 171.864 216.655 171.937 216.548C172.043 216.393 172.145 216.233 172.247 216.078C172.388 215.859 172.529 215.641 172.669 215.418C172.766 215.263 172.868 215.107 172.965 214.947C173.106 214.719 173.242 214.491 173.378 214.263C173.47 214.113 173.557 213.962 173.645 213.812C173.79 213.56 173.931 213.312 174.072 213.06C174.144 212.929 174.222 212.798 174.295 212.662C174.484 212.318 174.668 211.973 174.848 211.624C174.867 211.585 174.891 211.541 174.911 211.503C175.11 211.114 175.304 210.721 175.493 210.328C175.551 210.207 175.61 210.081 175.668 209.955C175.794 209.683 175.92 209.411 176.041 209.14C176.109 208.984 176.177 208.829 176.24 208.674C176.318 208.49 176.4 208.31 176.478 208.126C176.497 208.077 176.517 208.024 176.536 207.975C176.74 207.485 176.934 206.99 177.118 206.496C177.332 205.928 177.526 205.36 177.71 204.793C177.769 204.608 177.822 204.424 177.88 204.244C178.001 203.856 178.118 203.473 178.229 203.085C178.288 202.871 178.346 202.658 178.404 202.444C178.501 202.085 178.593 201.726 178.676 201.362C178.729 201.144 178.778 200.926 178.826 200.707C178.855 200.572 178.894 200.436 178.918 200.3C178.957 200.12 178.986 199.936 179.02 199.756C179.083 199.441 179.142 199.126 179.195 198.815C179.248 198.514 179.292 198.218 179.336 197.918C179.384 197.602 179.428 197.292 179.467 196.976C179.505 196.676 179.539 196.38 179.569 196.084C179.603 195.773 179.632 195.458 179.656 195.147C179.68 194.851 179.7 194.551 179.714 194.255C179.734 193.944 179.748 193.634 179.758 193.323C179.758 193.187 179.772 193.051 179.777 192.915C179.787 192.59 179.787 192.265 179.787 191.94V148.672C179.787 149.133 179.772 149.594 179.758 150.055L179.767 150.089Z" fill="#FF6C30"/>
<path d="M43.2442 227.873V221.014C45.0263 221.811 46.8631 222.563 48.75 223.274C53.6405 225.161 54.7299 229.487 52.3188 230.485C51.1064 230.986 49.3334 230.344 48.6634 230.097C46.8084 229.4 44.9989 228.657 43.2442 227.869M43.2442 219.551V212.96C48.0694 214.956 50.7904 216.292 51.4072 216.966C53.2577 218.99 52.9295 221.269 51.4072 221.884C50.2359 222.358 48.8913 221.866 48.4492 221.702C46.6671 221.027 44.9306 220.307 43.2396 219.555M48.3034 213.516C46.2113 212.641 43.4037 211.506 41.3481 210.554V228.539C43.7045 229.655 46.1612 230.699 48.709 231.656C55.8556 234.272 56.2157 229.496 55.1537 227.158C54.4199 225.54 52.8657 224.045 51.193 223.347V223.202C55.3543 223.703 55.5503 219.697 53.4582 217.003C51.8676 214.952 49.5476 214.022 48.3034 213.521" fill="white"/>
<path d="M63.3714 222.5L61.211 221.998V235.489C61.9266 235.662 62.6467 235.831 63.3714 235.991V222.5ZM62.3003 217.468C60.8783 217.158 60.4408 218.06 60.9102 218.817C61.6896 220.07 63.6677 220.102 63.8682 219.136C64.0232 218.393 63.1846 217.673 62.3049 217.468" fill="white"/>
<path d="M72.3553 220.932C70.9788 220.727 70.956 220.722 70.1584 220.594V223.803C69.9943 223.776 69.8303 223.748 69.6707 223.721C68.9187 223.593 68.1712 223.461 67.4237 223.325V224.747C68.1666 224.883 68.9141 225.015 69.6707 225.143C69.8348 225.17 69.9989 225.198 70.1584 225.225V234.218C70.245 237.732 74.4154 238.338 76.4254 238.083C76.2887 237.645 76.1063 237.062 75.9696 236.624C74.6387 236.679 72.4054 236.766 72.3598 234.446V225.562C73.6041 225.74 74.8484 225.9 76.0881 226.041V224.619C74.8438 224.478 73.6041 224.318 72.3598 224.14V220.932" fill="white"/>
<path d="M87.5784 225.202C78.8183 225.12 78.007 233.092 81.6852 236.784C85.5639 240.681 92.9156 239.359 94.602 235.58C93.9685 235.453 93.1253 235.284 92.4917 235.157C91.1426 238.306 84.2603 239.026 82.2823 234.236C80.0398 228.798 85.6596 225.376 89.6887 227.044C90.5683 227.408 91.8992 227.96 92.4097 229.131C93.0432 228.972 93.891 228.753 94.5291 228.593C93.6722 226.77 90.026 225.248 87.5784 225.207" fill="white"/>
<path d="M107.113 236.538C101.115 237.285 100.262 231.064 102.664 227.969C105.294 224.583 112.09 224.172 112.682 229.418C113.024 232.445 111.187 235.968 107.113 236.533M107.113 224.063C98.6534 225.325 97.1766 233.671 101.593 236.87C106.707 240.576 115.95 235.868 114.733 228.511C114.182 225.193 111.265 223.489 107.113 224.063Z" fill="white"/>
<path d="M122.099 221.173C121.429 221.36 120.754 221.538 120.075 221.711C120.075 223.156 120.075 225.084 120.075 226.533V235.207C120.754 235.034 121.429 234.856 122.099 234.669C122.099 233.224 122.099 231.296 122.099 229.847V221.173ZM121.101 216.652C119.701 217.048 119.204 218.37 120.002 218.844C121.014 219.446 122.819 218.256 122.545 217.167C122.441 216.757 121.903 216.438 121.101 216.647" fill="white"/>
<path d="M134.688 216.666C131.197 218.17 130.185 220.448 129.852 221.196C129.852 220.453 129.843 219.469 129.838 218.726C129.223 218.944 128.603 219.163 127.979 219.373C127.979 220.818 127.979 222.746 127.979 224.195V232.869C128.626 232.65 129.269 232.426 129.907 232.199C129.907 225.808 130.097 222.266 130.476 221.57C131.976 218.826 135.996 217.026 137.413 218.466C137.965 219.026 137.979 219.879 137.988 220.289V228.899C138.58 228.625 139.164 228.347 139.747 228.065C139.747 221.468 139.63 217.908 139.396 217.386C139.095 216.707 138.029 215.271 134.683 216.675" fill="white"/>
<path d="M89.9707 88.6854C97.161 88.6854 104.453 89.2676 111.745 90.4854C159.836 98.5054 189.102 131.099 177.113 163.276C166.939 190.572 130.337 208.805 90.1017 208.805C82.9114 208.805 75.6095 208.223 68.3174 207.005C20.2462 198.985 -9.02442 166.396 2.96911 134.224C13.1384 106.923 49.7448 88.6903 89.9707 88.6854Z" fill="url(#paint0_linear_4832_14011)"/>
<path d="M153.263 89.4272C153.253 89.6461 153.243 89.865 153.233 90.0839C153.224 90.2931 153.209 90.5023 153.19 90.7115C153.17 90.9304 153.151 91.1542 153.126 91.3731C153.107 91.5823 153.083 91.7915 153.053 92.0006C153.024 92.2196 152.995 92.4433 152.961 92.6623C152.927 92.8714 152.898 93.0855 152.859 93.2947C152.82 93.5136 152.776 93.7374 152.732 93.9563C152.688 94.1801 152.645 94.4038 152.591 94.6276C152.557 94.7833 152.523 94.9341 152.484 95.0898C152.426 95.3428 152.358 95.5957 152.29 95.8487C152.251 95.9995 152.212 96.1503 152.168 96.3011C152.09 96.5735 152.007 96.846 151.925 97.1184C151.886 97.2497 151.847 97.3762 151.803 97.5076C151.672 97.9065 151.536 98.3103 151.385 98.7092C151.195 99.2102 150.991 99.7065 150.777 100.203C150.674 100.441 150.567 100.679 150.46 100.913C150.31 101.239 150.159 101.56 149.998 101.881C149.882 102.115 149.76 102.348 149.638 102.582C149.473 102.898 149.298 103.214 149.118 103.53C148.986 103.759 148.86 103.983 148.724 104.211C148.534 104.527 148.335 104.844 148.135 105.155C147.999 105.369 147.863 105.583 147.722 105.797C147.4 106.279 147.07 106.756 146.724 107.223C146.715 107.237 146.7 107.252 146.69 107.266C146.345 107.728 145.99 108.186 145.62 108.638C145.508 108.774 145.391 108.915 145.279 109.052C144.988 109.402 144.691 109.747 144.389 110.088C144.277 110.214 144.165 110.341 144.049 110.467C143.64 110.92 143.222 111.362 142.789 111.8C142.74 111.849 142.686 111.902 142.633 111.951C142.244 112.34 141.85 112.725 141.441 113.104C141.305 113.231 141.164 113.362 141.023 113.488C140.672 113.809 140.312 114.126 139.948 114.437C139.821 114.544 139.695 114.656 139.568 114.763C139.091 115.162 138.61 115.556 138.114 115.945C138.084 115.969 138.055 115.994 138.026 116.013C137.506 116.422 136.97 116.816 136.426 117.21C136.255 117.332 136.08 117.453 135.91 117.575C135.53 117.842 135.146 118.11 134.752 118.373C134.543 118.509 134.334 118.645 134.124 118.781C133.75 119.024 133.375 119.263 132.991 119.501C132.777 119.633 132.563 119.764 132.344 119.895C131.93 120.143 131.512 120.387 131.094 120.625C130.909 120.732 130.724 120.839 130.534 120.946C129.926 121.287 129.308 121.622 128.676 121.943C128.627 121.968 128.574 121.992 128.525 122.016C127.941 122.318 127.348 122.61 126.749 122.892C126.569 122.98 126.385 123.062 126.2 123.145C125.733 123.364 125.266 123.578 124.789 123.787C124.575 123.88 124.366 123.972 124.152 124.064C123.651 124.278 123.145 124.488 122.634 124.692C122.473 124.755 122.313 124.823 122.147 124.891C121.481 125.154 120.81 125.412 120.129 125.655C119.973 125.714 119.817 125.762 119.662 125.821C119.126 126.01 118.586 126.195 118.042 126.375C117.813 126.448 117.589 126.526 117.36 126.599C116.85 126.764 116.339 126.92 115.823 127.076C115.614 127.139 115.41 127.202 115.201 127.261C114.49 127.47 113.775 127.669 113.05 127.859C112.861 127.908 112.666 127.951 112.471 128C111.883 128.151 111.289 128.302 110.691 128.438C110.399 128.506 110.097 128.569 109.801 128.632C109.3 128.744 108.803 128.856 108.297 128.958C107.967 129.026 107.631 129.085 107.295 129.148C106.818 129.241 106.347 129.328 105.87 129.411C105.52 129.474 105.164 129.528 104.809 129.586C104.333 129.664 103.856 129.742 103.374 129.81C103.121 129.849 102.868 129.878 102.615 129.917C102.08 129.99 101.54 130.058 100.995 130.121C100.728 130.15 100.46 130.184 100.198 130.213C99.6089 130.277 99.0154 130.335 98.417 130.389C98.2176 130.408 98.023 130.428 97.8235 130.442C97.0403 130.505 96.2571 130.564 95.469 130.608C94.8706 130.642 94.2674 130.666 93.669 130.685C93.3722 130.695 93.0755 130.715 92.7739 130.724C91.8739 130.749 90.969 130.763 90.0593 130.763C89.3637 130.763 88.668 130.753 87.9675 130.739C87.6707 130.734 87.3691 130.719 87.0723 130.71C86.7318 130.7 86.3961 130.69 86.0556 130.676C85.7491 130.661 85.4426 130.646 85.1362 130.627C84.8005 130.608 84.46 130.593 84.1243 130.573C83.8178 130.554 83.5065 130.53 83.2 130.505C82.8643 130.481 82.5238 130.457 82.1881 130.428C81.8768 130.403 81.5703 130.369 81.2589 130.34C80.9233 130.306 80.5876 130.277 80.2519 130.243C80.033 130.218 79.819 130.194 79.6 130.17C78.9871 130.102 78.379 130.029 77.766 129.946C77.5374 129.917 77.3136 129.888 77.085 129.853C76.292 129.742 75.5039 129.625 74.711 129.493C73.7039 129.323 72.7067 129.138 71.724 128.944C71.6218 128.924 71.5245 128.905 71.4272 128.881C70.6975 128.73 69.9727 128.574 69.2527 128.409C69.1651 128.389 69.0824 128.37 68.9948 128.35C68.2554 128.175 67.5257 127.995 66.8057 127.805C66.757 127.791 66.7084 127.781 66.6597 127.767C65.9106 127.567 65.1711 127.363 64.4414 127.149C64.4317 127.149 64.4219 127.144 64.4122 127.139C63.6825 126.925 62.9674 126.701 62.2523 126.468C62.1939 126.448 62.1306 126.429 62.0723 126.409C61.4788 126.215 60.8901 126.01 60.3112 125.806C60.1944 125.767 60.0826 125.723 59.9707 125.684C59.3966 125.48 58.8323 125.266 58.2729 125.052C58.1804 125.018 58.088 124.979 57.9907 124.94C57.4361 124.721 56.8815 124.497 56.3415 124.269C56.3075 124.254 56.2734 124.24 56.2394 124.225C55.6799 123.987 55.1302 123.743 54.5805 123.5C54.4783 123.456 54.3762 123.408 54.274 123.364C53.7438 123.121 53.2232 122.873 52.7076 122.62C52.6103 122.571 52.5178 122.527 52.4205 122.478C51.8854 122.216 51.36 121.948 50.8395 121.671C50.8298 121.666 50.82 121.661 50.8103 121.656C50.2946 121.384 49.7936 121.107 49.2925 120.824C49.2049 120.776 49.1173 120.727 49.0346 120.679C48.553 120.401 48.0763 120.124 47.6044 119.837C47.512 119.783 47.4195 119.725 47.332 119.667C46.8552 119.375 46.3833 119.078 45.9212 118.776C45.8823 118.752 45.8434 118.723 45.7996 118.699C45.352 118.407 44.919 118.11 44.4861 117.808C44.418 117.76 44.3499 117.716 44.2818 117.667C43.8439 117.361 43.4158 117.049 42.9926 116.733C42.9099 116.67 42.8223 116.607 42.7396 116.543C42.3164 116.222 41.898 115.901 41.4942 115.575C41.4407 115.532 41.3872 115.488 41.3337 115.444C40.9397 115.128 40.5553 114.807 40.1759 114.481C40.1321 114.442 40.0835 114.403 40.0397 114.364C39.6505 114.028 39.2662 113.683 38.8916 113.338C38.8186 113.269 38.7456 113.201 38.6678 113.133C38.2981 112.788 37.9381 112.442 37.5878 112.092C37.5294 112.034 37.4759 111.975 37.4176 111.922C37.0722 111.572 36.7268 111.221 36.396 110.866C36.3716 110.842 36.3522 110.818 36.3278 110.793C35.9873 110.428 35.6565 110.054 35.3306 109.684C35.2673 109.611 35.2089 109.543 35.1457 109.47C34.8344 109.105 34.5279 108.735 34.2311 108.366C34.1776 108.298 34.1241 108.23 34.0706 108.161C33.7641 107.772 33.4674 107.383 33.1803 106.989C33.1803 106.989 33.1755 106.979 33.1706 106.974C32.8836 106.585 32.6112 106.191 32.3436 105.792C32.2949 105.724 32.2512 105.651 32.2025 105.583C31.9447 105.199 31.7014 104.81 31.4631 104.42C31.4144 104.343 31.3706 104.265 31.3269 104.192C31.0885 103.793 30.8501 103.389 30.6312 102.985C30.6117 102.951 30.5971 102.922 30.5777 102.888C30.3636 102.494 30.1593 102.1 29.9647 101.706C29.9355 101.643 29.9015 101.579 29.8674 101.516C29.6728 101.112 29.4831 100.709 29.308 100.3C29.2739 100.217 29.235 100.135 29.2009 100.057C29.0258 99.6432 28.8555 99.2297 28.6999 98.8162C28.6804 98.7627 28.661 98.7092 28.6415 98.6557C28.4907 98.2519 28.3496 97.853 28.2183 97.4443C28.2037 97.3908 28.1842 97.3422 28.1647 97.2887C28.0285 96.8703 27.9069 96.447 27.7902 96.0189C27.7658 95.9362 27.7464 95.8487 27.7221 95.766C27.6102 95.3428 27.508 94.9195 27.4156 94.4963C27.401 94.4282 27.3864 94.3601 27.3718 94.292C27.2842 93.8736 27.2064 93.4503 27.1334 93.0271C27.1285 92.9931 27.1237 92.9639 27.1188 92.9298C27.0507 92.492 26.9923 92.0542 26.9437 91.6163C26.934 91.5336 26.9242 91.4509 26.9145 91.3682C26.8707 90.9401 26.8367 90.5072 26.8123 90.0742C26.8123 89.9964 26.8026 89.9185 26.8026 89.8358C26.7831 89.3834 26.7686 88.931 26.7686 88.4785V124.629C26.7686 125.081 26.7831 125.534 26.8026 125.986C26.8026 126.064 26.8075 126.142 26.8123 126.22C26.8367 126.652 26.8707 127.081 26.9145 127.514C26.9242 127.596 26.934 127.679 26.9437 127.762C26.9923 128.199 27.0507 128.642 27.1188 129.075C27.1237 129.109 27.1285 129.138 27.1334 129.172C27.2015 129.596 27.2842 130.014 27.3718 130.437C27.3864 130.505 27.401 130.573 27.4156 130.642C27.508 131.065 27.6102 131.488 27.7221 131.911C27.7464 131.994 27.7658 132.082 27.7902 132.164C27.9069 132.588 28.0285 133.011 28.1647 133.434C28.1793 133.487 28.1988 133.536 28.2183 133.59C28.3496 133.993 28.4907 134.397 28.6415 134.801C28.661 134.854 28.6804 134.908 28.6999 134.962C28.8555 135.38 29.0258 135.793 29.2009 136.202C29.235 136.285 29.2691 136.367 29.308 136.445C29.488 136.854 29.6728 137.258 29.8674 137.661C29.8966 137.725 29.9307 137.788 29.9599 137.851C30.1544 138.25 30.3588 138.644 30.5728 139.033C30.5923 139.067 30.6069 139.097 30.6263 139.131C30.8501 139.534 31.0836 139.938 31.322 140.337C31.3658 140.415 31.4144 140.488 31.4582 140.566C31.6966 140.955 31.9447 141.344 32.1976 141.728C32.2414 141.797 32.2901 141.865 32.3387 141.938C32.6063 142.337 32.8787 142.731 33.1657 143.12C33.1657 143.12 33.1706 143.129 33.1755 143.129C33.4625 143.524 33.7641 143.913 34.0657 144.302C34.1192 144.37 34.1727 144.438 34.2263 144.506C34.523 144.876 34.8295 145.246 35.1408 145.611C35.2041 145.683 35.2625 145.752 35.3257 145.825C35.6516 146.199 35.9776 146.569 36.3181 146.934C36.3424 146.958 36.3619 146.982 36.3862 147.007C36.717 147.362 37.0576 147.712 37.4078 148.062C37.4662 148.121 37.5197 148.179 37.5781 148.237C37.9284 148.588 38.2932 148.933 38.6581 149.279C38.731 149.347 38.804 149.415 38.8819 149.483C39.2564 149.828 39.6359 150.169 40.0299 150.509C40.0786 150.548 40.1224 150.587 40.171 150.631C40.5505 150.957 40.9348 151.278 41.324 151.594C41.3775 151.638 41.431 151.682 41.4845 151.726C41.8932 152.051 42.3067 152.373 42.7299 152.694C42.8126 152.757 42.9002 152.82 42.9829 152.883C43.4061 153.2 43.8342 153.511 44.2769 153.817C44.345 153.866 44.4131 153.91 44.4763 153.958C44.9093 154.26 45.3471 154.557 45.7947 154.849C45.8336 154.873 45.8725 154.902 45.9163 154.927C46.3785 155.228 46.8504 155.525 47.3271 155.817C47.4195 155.875 47.512 155.929 47.5995 155.987C48.0714 156.274 48.5482 156.551 49.0298 156.829C49.1173 156.877 49.2001 156.926 49.2876 156.975C49.7887 157.257 50.2898 157.534 50.8054 157.807C50.8152 157.811 50.8249 157.816 50.8346 157.821C51.3551 158.094 51.8805 158.361 52.4157 158.629C52.513 158.677 52.6054 158.721 52.7027 158.77C53.2184 159.023 53.7389 159.271 54.2692 159.514C54.3713 159.563 54.4735 159.606 54.5756 159.65C55.1205 159.898 55.6751 160.142 56.2345 160.38C56.2686 160.395 56.2978 160.404 56.3318 160.419C56.8767 160.648 57.4313 160.871 57.9907 161.09C58.0831 161.124 58.1756 161.163 58.268 161.197C58.8274 161.416 59.3966 161.625 59.9707 161.835C60.0826 161.873 60.1993 161.917 60.3112 161.956C60.895 162.165 61.4836 162.365 62.0771 162.559C62.0966 162.564 62.116 162.574 62.1306 162.579C62.1696 162.593 62.2085 162.603 62.2474 162.618C62.9576 162.851 63.6776 163.075 64.4073 163.289C64.4171 163.289 64.4268 163.294 64.4365 163.299C65.1663 163.513 65.9057 163.722 66.6549 163.917C66.7035 163.931 66.7522 163.941 66.8008 163.956C67.5257 164.145 68.2554 164.325 68.9948 164.5C69.0775 164.52 69.1602 164.539 69.2478 164.559C69.9678 164.724 70.6926 164.885 71.4224 165.031C71.4856 165.045 71.544 165.06 71.6072 165.07C71.6413 165.079 71.6802 165.084 71.7142 165.089C72.6969 165.289 73.6942 165.473 74.7061 165.644C75.499 165.775 76.2871 165.892 77.0801 166.004C77.3087 166.038 77.5325 166.067 77.7612 166.096C78.3741 166.179 78.9871 166.252 79.5952 166.32C79.7314 166.334 79.8676 166.354 80.0038 166.369C80.0817 166.378 80.1595 166.383 80.2422 166.393C80.5827 166.427 80.9184 166.461 81.2541 166.49C81.5606 166.519 81.8719 166.549 82.1784 166.578C82.5141 166.607 82.8546 166.631 83.1903 166.656C83.4967 166.68 83.8081 166.704 84.1146 166.724C84.4502 166.743 84.7908 166.763 85.1264 166.777C85.4329 166.792 85.7394 166.811 86.0459 166.826C86.3864 166.84 86.7221 166.85 87.0626 166.86C87.3107 166.87 87.5588 166.879 87.8021 166.884C87.8507 166.884 87.9042 166.884 87.9529 166.884C88.6485 166.899 89.3491 166.909 90.0447 166.909C90.9544 166.909 91.8544 166.894 92.7593 166.87C93.056 166.86 93.3528 166.845 93.6544 166.831C94.2576 166.806 94.856 166.787 95.4544 166.753C95.4933 166.753 95.5322 166.753 95.576 166.748C96.3252 166.704 97.0695 166.651 97.8089 166.587C98.0084 166.573 98.203 166.549 98.4024 166.534C99.0008 166.48 99.5943 166.422 100.183 166.359C100.45 166.33 100.713 166.3 100.981 166.266C101.526 166.203 102.066 166.135 102.601 166.057C102.854 166.023 103.107 165.989 103.36 165.95C103.486 165.931 103.613 165.916 103.739 165.897C104.094 165.843 104.444 165.78 104.795 165.726C105.15 165.668 105.505 165.614 105.855 165.551C106.332 165.469 106.809 165.376 107.281 165.289C107.616 165.225 107.952 165.167 108.283 165.099C108.789 164.997 109.285 164.885 109.786 164.773C110.083 164.71 110.38 164.646 110.676 164.578C111.275 164.437 111.863 164.291 112.457 164.14C112.646 164.092 112.841 164.048 113.036 163.999C113.045 163.999 113.06 163.995 113.07 163.99C113.78 163.805 114.485 163.605 115.186 163.401C115.395 163.338 115.604 163.275 115.809 163.216C116.324 163.06 116.835 162.905 117.346 162.739C117.575 162.666 117.803 162.593 118.027 162.516C118.572 162.336 119.112 162.151 119.647 161.956C119.803 161.903 119.958 161.849 120.114 161.791C120.795 161.543 121.471 161.29 122.138 161.027C122.298 160.964 122.459 160.896 122.619 160.832C123.13 160.628 123.636 160.414 124.142 160.2C124.356 160.108 124.565 160.015 124.779 159.923C125.256 159.714 125.728 159.499 126.195 159.281C126.375 159.198 126.56 159.115 126.74 159.028C126.818 158.994 126.895 158.955 126.973 158.921C127.499 158.668 128.014 158.41 128.525 158.147C128.574 158.123 128.622 158.098 128.666 158.079C129.294 157.753 129.912 157.422 130.525 157.082C130.714 156.975 130.894 156.868 131.084 156.761C131.507 156.517 131.926 156.274 132.339 156.026C132.553 155.895 132.767 155.763 132.981 155.632C133.361 155.394 133.74 155.155 134.115 154.912C134.324 154.776 134.533 154.64 134.742 154.503C135.132 154.241 135.521 153.973 135.9 153.706C136.07 153.584 136.246 153.467 136.416 153.341C136.961 152.947 137.496 152.553 138.016 152.144C138.046 152.12 138.075 152.095 138.104 152.076C138.537 151.735 138.965 151.395 139.383 151.044C139.442 150.996 139.5 150.942 139.558 150.894C139.685 150.787 139.811 150.675 139.938 150.568C140.303 150.256 140.663 149.935 141.013 149.619C141.154 149.493 141.29 149.366 141.431 149.235C141.84 148.855 142.234 148.471 142.623 148.082C142.672 148.033 142.725 147.985 142.774 147.931C143.207 147.493 143.625 147.046 144.034 146.598C144.151 146.472 144.258 146.345 144.37 146.219C144.671 145.878 144.973 145.533 145.26 145.182C145.372 145.046 145.489 144.91 145.601 144.769C145.965 144.316 146.325 143.859 146.671 143.397C146.68 143.382 146.695 143.368 146.705 143.353C146.997 142.954 147.284 142.551 147.561 142.147C147.61 142.074 147.653 142.001 147.702 141.928C147.843 141.714 147.979 141.5 148.116 141.286C148.315 140.97 148.515 140.658 148.704 140.337C148.84 140.113 148.967 139.885 149.098 139.661C149.278 139.345 149.449 139.028 149.619 138.712C149.74 138.479 149.862 138.245 149.979 138.012C150.139 137.691 150.29 137.37 150.441 137.044C150.548 136.805 150.655 136.572 150.757 136.333C150.806 136.217 150.864 136.105 150.913 135.993C151.073 135.613 151.224 135.229 151.365 134.84C151.516 134.441 151.652 134.037 151.784 133.638C151.827 133.507 151.861 133.38 151.905 133.249C151.993 132.977 152.076 132.704 152.153 132.432C152.197 132.281 152.236 132.13 152.275 131.979C152.343 131.726 152.406 131.473 152.47 131.216C152.508 131.06 152.543 130.909 152.577 130.753C152.596 130.656 152.625 130.559 152.645 130.462C152.674 130.335 152.693 130.209 152.718 130.077C152.761 129.858 152.805 129.635 152.844 129.416C152.878 129.206 152.912 128.992 152.946 128.783C152.98 128.564 153.01 128.341 153.039 128.122C153.063 127.912 153.087 127.703 153.112 127.489C153.136 127.27 153.156 127.047 153.175 126.828C153.19 126.618 153.204 126.409 153.219 126.2C153.233 125.981 153.243 125.762 153.248 125.543C153.248 125.446 153.258 125.349 153.263 125.256C153.267 125.028 153.272 124.799 153.272 124.57V88.4202C153.272 88.7461 153.263 89.072 153.248 89.398L153.263 89.4272Z" fill="#FFBA1A"/>
<path d="M89.9918 46.1648C95.056 46.1648 100.198 46.5734 105.335 47.4296C139.218 53.0825 159.84 76.0443 151.39 98.7141C144.224 117.949 118.436 130.792 90.0842 130.792C85.02 130.792 79.873 130.384 74.7407 129.528C40.8672 123.875 20.2454 100.913 28.6956 78.2431C35.8614 59.0078 61.6496 46.1599 89.9918 46.1599V46.1648Z" fill="url(#paint1_linear_4832_14011)"/>
<path d="M61.6354 137.092C53.7544 134.533 54.022 142.181 55.8658 145.868C58.8916 151.915 66.9429 153.034 68.3196 148.792C68.3585 148.666 68.3877 148.549 68.4072 148.471C67.8477 148.335 67.2883 148.194 66.7385 148.048C65.7315 151.361 59.777 150.66 57.2133 145.975C55.5398 142.916 55.3306 136.479 61.2559 138.172C63.9851 138.951 66.1888 140.906 66.7385 143.032C67.2883 143.178 67.8477 143.319 68.4072 143.456C67.8039 140.76 65.1478 138.26 61.6354 137.092Z" fill="white"/>
<path d="M74.3801 143.825C73.8158 143.728 73.2563 143.626 72.6969 143.524V153.642C73.2514 153.749 73.8158 153.852 74.3801 153.944V143.825ZM73.5482 140.084C72.4974 139.909 72.0498 140.576 72.4974 141.184C72.6531 141.393 73.0179 141.758 73.7331 141.826C74.0152 141.855 74.7157 141.719 74.7595 141.403C74.7838 141.218 74.7887 140.819 74.706 140.736C74.526 140.537 74.132 140.191 73.5482 140.084Z" fill="white"/>
<path d="M81.0792 142.307C80.5295 142.254 79.9798 142.195 79.4349 142.132V144.54C78.7636 144.462 78.0922 144.38 77.4209 144.287V145.353C78.0922 145.445 78.7636 145.528 79.4349 145.606V152.343C79.4982 154.98 82.6213 155.287 84.1246 155.024C84.0224 154.698 83.8862 154.27 83.784 153.944C82.7868 154.031 81.1181 154.177 81.0841 152.436V145.776C82.0132 145.863 82.9473 145.941 83.8716 146.005V144.939C82.9424 144.876 82.0132 144.803 81.0841 144.711V142.302" fill="white"/>
<path d="M92.8519 144.968C90.0401 145.08 89.5098 146.029 89.1255 146.715C89.0866 146.715 89.0477 146.715 89.0088 146.715V145.143C88.4785 145.139 87.9531 145.129 87.4229 145.114V155.233C87.9677 155.248 88.5126 155.257 89.0526 155.267V148.777C89.0963 146.433 91.8547 145.946 93.6984 146.194V144.964C93.4892 144.964 93.1973 144.959 92.8519 144.968Z" fill="white"/>
<path d="M97.697 149.211C98.023 145.606 103.316 144.117 105.228 146.326C105.846 147.041 105.928 147.848 105.957 148.155C103.253 148.627 100.494 148.982 97.697 149.211ZM101.949 144.253C95.6781 145.129 94.5057 151.229 97.7116 153.715C100.446 155.832 105.787 154.596 107.242 151.507C106.789 151.478 106.186 151.439 105.734 151.405C104.352 154.119 98.9473 154.606 97.8819 151.395C97.7213 150.908 97.7019 150.475 97.6921 150.266C103.199 149.692 103.525 149.658 107.553 148.919V148.384C107.5 143.879 103.248 144.083 101.949 144.253Z" fill="white"/>
<path d="M115.191 150.899C112.613 151.623 111.971 150.047 112.603 148.919C112.759 148.641 113.177 147.897 115.712 146.905C116.49 146.598 118.353 145.834 118.82 145.299V146.739C118.796 148.242 117.648 150.183 115.191 150.899ZM115.95 141.286C114.607 141.699 112.204 142.711 111.207 144.847C111.645 144.857 112.233 144.871 112.671 144.881C113.683 142.789 118.018 141.077 118.713 142.974C118.811 143.246 118.815 143.514 118.82 143.645V143.879C118.777 144.618 117.988 144.934 115.658 145.873C113.537 146.729 109.991 148.16 110.988 150.942C111.718 152.981 115.337 152.553 117.405 150.753C117.609 150.573 118.319 149.916 118.733 149.045C118.767 149.035 118.801 149.021 118.84 149.011V150.616C119.317 150.456 119.788 150.286 120.255 150.115V143.241C120.221 140.561 117.896 140.697 115.955 141.286" fill="white"/>
<path d="M126.331 3.09705C126.282 3.17002 126.228 3.24299 126.175 3.31596C126.073 3.4619 125.966 3.60784 125.854 3.75378C125.791 3.83648 125.723 3.91918 125.659 3.99701C125.547 4.13322 125.435 4.26457 125.319 4.40078C125.246 4.47861 125.178 4.56131 125.1 4.63915C124.973 4.77536 124.842 4.9067 124.706 5.03805C124.633 5.11102 124.565 5.17912 124.492 5.25209C124.326 5.40776 124.151 5.56343 123.971 5.7191C123.923 5.75802 123.884 5.8018 123.835 5.84072C123.592 6.04503 123.339 6.23962 123.081 6.4342C123.008 6.48772 122.93 6.54123 122.857 6.59474C122.663 6.73581 122.463 6.87202 122.259 7.00337C122.166 7.06661 122.069 7.12499 121.977 7.18336C121.768 7.31471 121.549 7.44119 121.33 7.56767C121.247 7.61632 121.164 7.66496 121.082 7.70874C120.775 7.87414 120.464 8.03954 120.143 8.19034C120.065 8.22926 119.982 8.26332 119.904 8.29737C119.685 8.39953 119.467 8.50168 119.238 8.59411C119.121 8.64276 119.004 8.68654 118.888 8.73519C118.688 8.81302 118.494 8.89572 118.289 8.96869C118.158 9.01734 118.027 9.06112 117.89 9.10977C117.696 9.17787 117.496 9.24598 117.297 9.30922C117.156 9.353 117.015 9.39678 116.874 9.44056C116.674 9.49894 116.47 9.55731 116.261 9.61569C116.037 9.67893 115.813 9.73731 115.58 9.79568C115.103 9.91243 114.617 10.0097 114.135 10.1022C113.994 10.1265 113.853 10.1508 113.712 10.1751C113.352 10.2384 112.987 10.287 112.627 10.3357C112.486 10.3551 112.345 10.3746 112.204 10.3892C111.717 10.4427 111.236 10.4865 110.754 10.5157C110.209 10.5497 109.669 10.5643 109.124 10.5643C108.808 10.5643 108.487 10.5546 108.171 10.5448C107.981 10.54 107.796 10.5302 107.611 10.5205C107.402 10.5108 107.193 10.4962 106.989 10.4816C106.804 10.467 106.619 10.4524 106.434 10.433C106.235 10.4135 106.04 10.394 105.846 10.3697C105.627 10.3454 105.413 10.3162 105.199 10.287C105.014 10.2578 104.824 10.2335 104.639 10.1994C104.425 10.1654 104.211 10.1265 104.002 10.0876C103.832 10.0535 103.661 10.0195 103.491 9.9854C103.16 9.9173 102.834 9.83946 102.508 9.75676C102.396 9.72758 102.285 9.70325 102.173 9.67407C101.745 9.56218 101.321 9.4357 100.908 9.30435C100.572 9.19733 100.246 9.08058 99.9204 8.95896C99.9204 8.95896 99.9155 8.95896 99.9106 8.95896V37.8793C100.222 37.9961 100.538 38.108 100.859 38.2101C100.874 38.215 100.893 38.2199 100.913 38.2247C101.326 38.3609 101.749 38.4826 102.178 38.5945C102.289 38.6236 102.401 38.648 102.513 38.6772C102.839 38.7599 103.165 38.8328 103.496 38.9058C103.564 38.9204 103.627 38.9398 103.695 38.9496C103.798 38.969 103.905 38.9836 104.007 39.0031C104.221 39.042 104.43 39.0809 104.644 39.115C104.829 39.1442 105.014 39.1733 105.203 39.2025C105.417 39.2317 105.636 39.2609 105.85 39.2901C105.948 39.2998 106.05 39.3193 106.147 39.329C106.244 39.3387 106.342 39.3436 106.439 39.3533C106.624 39.3728 106.809 39.3874 106.994 39.402C107.203 39.4166 107.412 39.4312 107.621 39.4409C107.806 39.4506 107.991 39.4604 108.181 39.4652C108.278 39.4652 108.37 39.475 108.468 39.4798C108.691 39.4847 108.91 39.4895 109.134 39.4895C109.674 39.4895 110.219 39.475 110.759 39.4409C110.764 39.4409 110.769 39.4409 110.773 39.4409C111.25 39.4117 111.732 39.3679 112.213 39.3144C112.354 39.2998 112.496 39.2804 112.637 39.2609C112.826 39.2366 113.016 39.2171 113.211 39.1879C113.381 39.1636 113.551 39.1296 113.721 39.1004C113.862 39.0761 114.004 39.0517 114.145 39.0274C114.626 38.9398 115.108 38.8377 115.589 38.7209C115.735 38.6869 115.881 38.648 116.027 38.609C116.11 38.5896 116.188 38.5604 116.27 38.5409C116.475 38.4826 116.679 38.4291 116.879 38.3658C117.02 38.322 117.166 38.2782 117.307 38.2345C117.506 38.1712 117.706 38.1031 117.9 38.035C118.031 37.9864 118.168 37.9426 118.299 37.8939C118.503 37.821 118.698 37.7383 118.897 37.6604C119.014 37.6118 119.131 37.568 119.248 37.5194C119.471 37.4221 119.69 37.3248 119.909 37.2226C119.982 37.1886 120.055 37.1594 120.123 37.1253C120.133 37.1253 120.143 37.1156 120.148 37.1107C120.469 36.9551 120.78 36.7945 121.087 36.6291C121.174 36.5805 121.252 36.5318 121.339 36.4832C121.558 36.3567 121.772 36.2302 121.986 36.0989C122.084 36.0405 122.176 35.9773 122.273 35.9189C122.478 35.7875 122.677 35.6513 122.872 35.5103C122.945 35.4567 123.023 35.4032 123.1 35.3497C123.363 35.1551 123.616 34.9606 123.854 34.7611C123.859 34.7562 123.869 34.7514 123.874 34.7465C123.918 34.7125 123.952 34.6735 123.996 34.6395C124.176 34.4887 124.346 34.333 124.516 34.1773C124.589 34.1092 124.662 34.0363 124.735 33.9633C124.871 33.832 125.003 33.7006 125.129 33.5644C125.202 33.4866 125.275 33.4039 125.348 33.326C125.465 33.1947 125.581 33.0585 125.693 32.9223C125.761 32.8396 125.825 32.7617 125.888 32.679C126 32.5331 126.107 32.3871 126.209 32.2412C126.248 32.1877 126.292 32.1342 126.331 32.0758C126.345 32.0564 126.355 32.0369 126.365 32.0174C126.515 31.7937 126.657 31.565 126.788 31.3315V2.41113C126.657 2.63977 126.515 2.86841 126.365 3.09705H126.331Z" fill="url(#paint2_linear_4832_14011)"/>
<path d="M128.908 37.5387C128.908 37.5776 128.899 37.6166 128.899 37.6603C128.869 38.0301 128.826 38.3949 128.772 38.7598C128.762 38.8279 128.753 38.896 128.743 38.9689C128.685 39.3484 128.612 39.723 128.529 40.0927C128.51 40.1802 128.49 40.2678 128.466 40.3554C128.388 40.691 128.3 41.0218 128.198 41.3526C128.184 41.411 128.169 41.4645 128.15 41.5229C128.033 41.8926 127.906 42.2623 127.77 42.6272C127.736 42.7147 127.702 42.8023 127.668 42.885C127.556 43.172 127.434 43.4541 127.308 43.7363C127.259 43.8482 127.211 43.9601 127.157 44.0671C126.982 44.4368 126.797 44.8017 126.603 45.1665C126.583 45.1957 126.569 45.2297 126.549 45.2589C126.364 45.5897 126.17 45.9205 125.97 46.2416C125.902 46.3535 125.829 46.4654 125.756 46.5773C125.581 46.8448 125.401 47.1124 125.216 47.3751C125.167 47.448 125.114 47.521 125.065 47.5891C124.827 47.9199 124.574 48.2458 124.316 48.5669C124.263 48.6301 124.209 48.6934 124.156 48.7615C123.922 49.0436 123.679 49.3258 123.431 49.6031C123.377 49.6614 123.329 49.7198 123.275 49.7782C122.988 50.0895 122.696 50.396 122.39 50.7025C122.322 50.7706 122.254 50.8387 122.185 50.9068C121.908 51.1792 121.621 51.4468 121.329 51.7143C121.285 51.7533 121.242 51.797 121.193 51.8408C120.867 52.1327 120.531 52.4148 120.191 52.6921C120.094 52.77 119.996 52.8478 119.899 52.9256C119.612 53.1543 119.32 53.378 119.023 53.6018C118.941 53.6651 118.858 53.7283 118.77 53.7915C118.401 54.064 118.021 54.3315 117.632 54.5893C117.545 54.6477 117.457 54.7012 117.374 54.7596C117.053 54.9688 116.732 55.178 116.401 55.3823C116.289 55.4504 116.178 55.5234 116.061 55.5915C115.647 55.8396 115.229 56.0828 114.801 56.3212C114.786 56.326 114.777 56.3358 114.762 56.3406C114.344 56.5693 113.92 56.793 113.487 57.0119C113.366 57.0752 113.239 57.1384 113.113 57.1968C112.865 57.3184 112.612 57.4352 112.364 57.5519C111.945 57.7465 111.522 57.9411 111.089 58.1259C110.895 58.2086 110.705 58.2962 110.505 58.374C109.946 58.6076 109.382 58.8265 108.803 59.0405C108.74 59.0648 108.681 59.0892 108.618 59.1135C107.981 59.347 107.329 59.5659 106.667 59.7751C106.473 59.8383 106.273 59.8918 106.079 59.9551C105.597 60.101 105.115 60.2421 104.624 60.3734C104.327 60.4561 104.031 60.534 103.729 60.6118C103.554 60.6556 103.374 60.6994 103.199 60.7431C102.761 60.8502 102.323 60.9474 101.876 61.0447C101.764 61.0691 101.657 61.0934 101.545 61.1177C100.995 61.2296 100.436 61.3366 99.8713 61.4339C99.7205 61.4582 99.5697 61.4826 99.4189 61.5069C98.9762 61.5799 98.5335 61.648 98.0908 61.7112C97.9546 61.7307 97.8232 61.7501 97.687 61.7647C97.1276 61.8377 96.5633 61.9058 95.999 61.9642C95.9406 61.969 95.8871 61.9739 95.8287 61.9788C95.3034 62.0323 94.778 62.0761 94.2477 62.115C94.1115 62.1247 93.9753 62.1344 93.8391 62.1442C93.4061 62.1733 92.9683 62.1928 92.5305 62.2123C92.3262 62.222 92.1219 62.2317 91.9176 62.2415C91.2949 62.2609 90.6673 62.2755 90.0349 62.2755C89.4755 62.2755 88.9209 62.2609 88.3664 62.2463C87.7437 62.2269 87.1259 62.2025 86.5129 62.1636C86.3864 62.1539 86.2551 62.1539 86.1237 62.1442C85.3843 62.0955 84.6546 62.0323 83.9298 61.9544C83.3849 61.8961 82.845 61.8328 82.3099 61.7598C82.1882 61.7453 82.0715 61.7258 81.9499 61.7063C81.4829 61.6382 81.0159 61.5701 80.5537 61.4923C80.4321 61.4728 80.3056 61.4534 80.1791 61.4291C79.6392 61.3366 79.1089 61.2345 78.5787 61.1226C78.4133 61.0885 78.2479 61.0496 78.0825 61.0156C77.6836 60.928 77.2895 60.8404 76.9004 60.748C76.7009 60.6994 76.5063 60.6507 76.3117 60.6021C75.9517 60.5096 75.5918 60.4172 75.2318 60.315C75.0421 60.2615 74.8475 60.208 74.6578 60.1545C74.2734 60.0426 73.8891 59.9259 73.5097 59.8091C73.3638 59.7605 73.2129 59.7167 73.067 59.6729C72.5708 59.5124 72.0746 59.3421 71.5882 59.167C71.4714 59.1232 71.3595 59.0794 71.2428 59.0405C70.8536 58.8946 70.4693 58.7486 70.0898 58.5978C69.9585 58.5443 69.8223 58.4908 69.6909 58.4373C69.2142 58.2427 68.7472 58.0433 68.2851 57.8341C68.2656 57.8243 68.2461 57.8146 68.2267 57.8049C67.784 57.6054 67.3462 57.3963 66.9181 57.1822C66.7916 57.119 66.6651 57.0557 66.5435 56.9925C66.1884 56.8125 65.8333 56.6276 65.4879 56.4379C65.3954 56.3893 65.2982 56.3358 65.2057 56.2871C64.7825 56.0536 64.3641 55.8104 63.9555 55.5623C63.8582 55.5039 63.7658 55.4455 63.6734 55.3871C63.3474 55.1877 63.0312 54.9834 62.715 54.7742C62.6031 54.7012 62.4912 54.6283 62.3842 54.5553C61.995 54.2926 61.6107 54.025 61.2362 53.7478C61.2264 53.738 61.2118 53.7283 61.2021 53.7234C60.8373 53.4559 60.487 53.1835 60.1416 52.9062C60.0395 52.8235 59.9422 52.7456 59.8449 52.6629C59.5627 52.4294 59.2854 52.1959 59.0179 51.9576C58.9449 51.8943 58.8671 51.8311 58.7941 51.763C58.4633 51.4662 58.1422 51.1646 57.8309 50.8582C57.7579 50.7852 57.6898 50.7171 57.6169 50.6441C57.3688 50.396 57.1304 50.1479 56.8969 49.895C56.8142 49.8074 56.7315 49.7198 56.6537 49.6274C56.3666 49.3063 56.0845 48.9853 55.8169 48.6545C55.8121 48.6496 55.8072 48.6399 55.8023 48.635C55.5397 48.3139 55.2916 47.9831 55.0483 47.6523C54.9802 47.5551 54.9121 47.4626 54.844 47.3653C54.6494 47.0929 54.4646 46.8156 54.2846 46.5383C54.2359 46.4605 54.1824 46.3875 54.1338 46.3097C53.9149 45.9643 53.7105 45.6141 53.516 45.2638C53.4722 45.1811 53.4284 45.1033 53.3895 45.0206C53.2387 44.7336 53.0927 44.4465 52.9517 44.1595C52.903 44.0574 52.8544 43.9552 52.8057 43.8531C52.6403 43.4882 52.4798 43.1185 52.3387 42.7488V42.739C52.1976 42.3693 52.0711 41.9996 51.9544 41.625C51.9203 41.518 51.8912 41.411 51.8571 41.304C51.7695 41.0024 51.6868 40.6959 51.6139 40.3846C51.5944 40.297 51.5701 40.2143 51.5506 40.1267C51.4631 39.7424 51.3901 39.3581 51.3317 38.9738C51.3171 38.8862 51.3074 38.7987 51.2977 38.7111C51.2539 38.3998 51.2198 38.0836 51.1906 37.7674C51.1809 37.6555 51.1712 37.5485 51.1615 37.4366C51.1323 37.0377 51.1177 36.6388 51.1177 36.2399V65.1602C51.1177 65.564 51.1371 65.9629 51.1615 66.3569C51.1712 66.4688 51.1809 66.5807 51.1906 66.6877C51.2198 67.0039 51.2539 67.3202 51.2977 67.6315C51.3123 67.7191 51.322 67.8066 51.3317 67.8942C51.3901 68.2834 51.4631 68.6677 51.5506 69.0471C51.5701 69.1347 51.5944 69.2174 51.6139 69.3049C51.6868 69.6114 51.7695 69.9179 51.8571 70.2244C51.8863 70.3314 51.9203 70.4384 51.9544 70.5454C52.0711 70.92 52.1976 71.2897 52.3387 71.6594V71.6692C52.4798 72.0389 52.6403 72.4086 52.8057 72.7734C52.8544 72.8756 52.903 72.9777 52.9517 73.0799C53.0879 73.3718 53.2338 73.6588 53.3895 73.941C53.4333 74.0237 53.4722 74.1015 53.516 74.1842C53.7105 74.5393 53.9149 74.8847 54.1338 75.2301C54.1824 75.3079 54.2359 75.3809 54.2846 75.4587C54.4646 75.736 54.6494 76.0133 54.844 76.2857C54.9121 76.383 54.9802 76.4754 55.0483 76.5727C55.2916 76.9035 55.5397 77.2343 55.8023 77.5554C55.8072 77.5603 55.8121 77.57 55.8169 77.5748C56.0845 77.9056 56.3666 78.2267 56.6537 78.5478C56.7315 78.6353 56.8142 78.7278 56.8969 78.8153C57.1304 79.0683 57.3688 79.3213 57.6169 79.5645C57.6898 79.6375 57.7579 79.7104 57.8309 79.7785C58.1422 80.085 58.4633 80.3866 58.7892 80.6834C58.8622 80.7466 58.94 80.8147 59.013 80.8779C59.2854 81.1163 59.5579 81.3498 59.84 81.5833C59.9373 81.666 60.0395 81.7439 60.1368 81.8266C60.4821 82.1038 60.8373 82.3811 61.1972 82.6487C61.207 82.6584 61.2167 82.6633 61.2264 82.673C61.601 82.9503 61.9853 83.2179 62.3745 83.4805C62.4815 83.5535 62.5934 83.6265 62.7053 83.6994C63.0215 83.9086 63.3377 84.1129 63.6636 84.3124C63.7609 84.3708 63.8533 84.4291 63.9458 84.4875C64.3544 84.7356 64.7728 84.9789 65.196 85.2124C65.2884 85.261 65.3809 85.3145 65.4733 85.3632C65.8235 85.5529 66.1738 85.7377 66.5338 85.9177C66.6603 85.981 66.7819 86.0442 66.9084 86.1075C67.3413 86.3215 67.7743 86.5307 68.2218 86.7301C68.2413 86.7399 68.2559 86.7447 68.2753 86.7545C68.7375 86.9636 69.2093 87.1631 69.6812 87.3577C69.8126 87.4112 69.9488 87.4647 70.0801 87.5182C70.4596 87.669 70.8439 87.8198 71.233 87.9609C71.3498 88.0047 71.4617 88.0484 71.5784 88.0874C72.026 88.2479 72.4784 88.4036 72.9357 88.5544C72.9746 88.569 73.0184 88.5787 73.0573 88.5933C73.2032 88.6419 73.354 88.6857 73.5 88.7295C73.8794 88.8511 74.2637 88.9679 74.648 89.0798C74.8377 89.1333 75.0323 89.1868 75.222 89.2403C75.5772 89.3376 75.9372 89.4349 76.302 89.5273C76.4966 89.576 76.696 89.6246 76.8906 89.6732C77.2798 89.7657 77.6738 89.8532 78.0727 89.9408C78.2381 89.9749 78.4035 90.0138 78.5689 90.0478C78.6176 90.0576 78.6662 90.0721 78.7149 90.0819C79.1965 90.1792 79.6781 90.2667 80.1694 90.3543C80.291 90.3738 80.4175 90.3932 80.544 90.4175C81.0061 90.4954 81.4731 90.5683 81.9401 90.6316C82.0618 90.6462 82.1785 90.6656 82.3001 90.6851C82.7915 90.7532 83.2828 90.8116 83.779 90.8651C83.8228 90.87 83.8714 90.87 83.9201 90.8748C84.6449 90.9527 85.3795 91.0159 86.1189 91.0645C86.2454 91.0743 86.3767 91.0743 86.5032 91.084C87.1161 91.1229 87.7388 91.1472 88.3615 91.1667C88.4442 91.1667 88.5269 91.1764 88.6145 91.1764C89.0863 91.1862 89.5582 91.191 90.0301 91.191C90.6625 91.191 91.29 91.1813 91.9127 91.157C92.117 91.1521 92.3213 91.1375 92.5256 91.1278C92.8516 91.1132 93.1726 91.1035 93.4986 91.084C93.6105 91.0791 93.7175 91.0694 93.8294 91.0597C93.9656 91.0499 94.1066 91.0402 94.2429 91.0305C94.7731 90.9916 95.2985 90.9478 95.8239 90.8943C95.8822 90.8894 95.9406 90.8845 95.9941 90.8797C96.5633 90.8213 97.1227 90.7532 97.6822 90.6754C97.8184 90.6559 97.9497 90.6364 98.0859 90.6219C98.2416 90.5975 98.4021 90.5781 98.5578 90.5586C98.8448 90.5148 99.1318 90.4662 99.4189 90.4175C99.5697 90.3932 99.7205 90.3689 99.8713 90.3446C100.436 90.2473 100.99 90.1403 101.545 90.0284C101.657 90.004 101.764 89.9797 101.876 89.9554C102.318 89.863 102.761 89.7608 103.199 89.6538C103.379 89.61 103.554 89.5662 103.729 89.5224C103.909 89.4787 104.094 89.4349 104.274 89.3862C104.395 89.357 104.507 89.3181 104.624 89.2841C105.115 89.1527 105.597 89.0117 106.079 88.8657C106.278 88.8073 106.473 88.749 106.672 88.6857C107.334 88.4765 107.986 88.2576 108.623 88.0241C108.686 87.9998 108.744 87.9755 108.808 87.9512C109.387 87.7371 109.951 87.5133 110.51 87.2847C110.705 87.202 110.899 87.1193 111.089 87.0366C111.517 86.8517 111.945 86.662 112.364 86.4626C112.476 86.4091 112.592 86.3604 112.704 86.3069C112.84 86.2388 112.977 86.1707 113.113 86.1026C113.239 86.0394 113.361 85.981 113.487 85.9177C113.92 85.6988 114.348 85.475 114.762 85.2464C114.772 85.2415 114.786 85.2318 114.796 85.227C115.224 84.9886 115.642 84.7454 116.056 84.4973C116.168 84.4291 116.285 84.361 116.397 84.2881C116.727 84.0838 117.048 83.8794 117.369 83.6703C117.457 83.6119 117.545 83.5584 117.627 83.5C118.016 83.2373 118.396 82.9698 118.766 82.6973C118.848 82.6341 118.931 82.5709 119.014 82.5076C119.31 82.2838 119.602 82.0601 119.889 81.8314C119.987 81.7536 120.084 81.6757 120.181 81.5979C120.249 81.5444 120.317 81.4909 120.381 81.4374C120.653 81.2087 120.921 80.9801 121.183 80.7417C121.227 80.7028 121.271 80.659 121.32 80.6153C121.611 80.3526 121.898 80.0801 122.176 79.8077C122.244 79.7396 122.312 79.6715 122.38 79.6034C122.682 79.3018 122.978 78.9953 123.265 78.6791C123.319 78.6207 123.368 78.5624 123.421 78.504C123.669 78.2267 123.912 77.9446 124.146 77.6624C124.199 77.5992 124.253 77.5359 124.306 77.4678C124.564 77.1468 124.817 76.8208 125.056 76.49C125.109 76.4171 125.158 76.3489 125.206 76.276C125.299 76.1495 125.391 76.0182 125.479 75.8917C125.571 75.7555 125.659 75.6144 125.746 75.4782C125.819 75.3663 125.892 75.2544 125.96 75.1425C126.165 74.8166 126.359 74.4907 126.539 74.1599C126.559 74.1307 126.578 74.0966 126.593 74.0674C126.792 73.7074 126.972 73.3377 127.147 72.968C127.201 72.8561 127.245 72.7491 127.293 72.6372C127.366 72.4718 127.444 72.3064 127.517 72.141C127.566 72.0243 127.61 71.9027 127.658 71.781C127.692 71.6935 127.726 71.6059 127.76 71.5232C127.897 71.1584 128.028 70.7887 128.14 70.4189C128.159 70.3606 128.174 70.307 128.188 70.2487C128.286 69.9179 128.373 69.5871 128.456 69.2514C128.475 69.1639 128.5 69.0763 128.519 68.9887C128.534 68.9255 128.548 68.8622 128.563 68.8039C128.626 68.4925 128.685 68.1812 128.733 67.865C128.743 67.7969 128.753 67.7288 128.762 67.6558C128.816 67.291 128.86 66.9261 128.889 66.5564C128.889 66.5175 128.899 66.4786 128.899 66.4348C128.918 66.1429 128.938 65.8559 128.942 65.564C128.942 65.4181 128.947 65.2721 128.947 65.1262V36.2058C128.947 36.6436 128.928 37.0814 128.899 37.5144L128.908 37.5387Z" fill="#F08215"/>
<path d="M68.435 68.7607C63.7645 66.727 63.9591 71.563 64.8251 73.8253C66.5376 78.3012 71.3249 79.3569 72.3855 77.0849C72.0206 76.8611 71.539 76.5643 71.1741 76.3405C70.5854 77.7855 67.2917 77.4546 65.8954 74.1415C64.9078 71.8062 65.2435 68.3909 68.3085 69.6753C70.1476 70.444 70.9649 71.9084 71.1254 72.4095C71.4903 72.4436 71.9768 72.4922 72.3417 72.5311C71.8163 71.1008 70.2108 69.5537 68.4302 68.7655" fill="white"/>
<path d="M86.7225 70.2397C86.2263 70.2105 85.7301 70.1764 85.2338 70.1327C85.2338 75.8832 85.0262 78.9888 84.6111 79.4494C82.991 81.2349 79.1816 80.5878 77.4107 78.778C76.6907 78.0433 76.316 77.2114 76.3014 76.2968V68.6536C75.8198 68.532 75.343 68.4055 74.8711 68.2742V75.9951C74.9635 80.8895 82.8937 83.1858 85.7738 80.2618C86.5863 79.4348 86.7079 78.598 86.7177 77.9606V70.2397" fill="white"/>
<path d="M95.319 69.9379C89.9771 70.4682 89.2571 73.5964 90.9161 75.0268C91.5826 75.6009 92.6432 76.0047 94.0638 76.2285C97.7126 76.7004 98.1797 76.7636 98.7732 77.3085C99.2889 77.7805 99.3473 78.9967 98.1067 79.96C96.1704 81.4585 91.6312 81.4974 91.2615 79.06C90.8625 79.0697 90.4636 79.0746 90.0647 79.0746C89.9479 79.0746 89.8311 79.0746 89.7192 79.0746C90.2252 83.5262 97.9608 82.232 99.8241 79.8725C100.32 79.2449 102.495 76.0728 96.365 75.4403C94.1076 75.163 92.867 75.0122 92.0253 74.263C91.5047 73.7959 91.3491 72.711 92.4145 71.8985C94.0541 70.6482 98.5203 70.2638 98.9143 72.604C99.3862 72.531 99.8582 72.4483 100.325 72.3607C100.179 70.5752 98.3062 69.6703 95.3141 69.9476" fill="white"/>
<path d="M105.03 69.325C106.042 69.0428 107.035 68.7314 108.003 68.3909C115.344 65.8902 112.138 74.4772 112.089 74.5696C110.829 77.0751 108.523 77.8973 107.764 78.1649C106.869 78.4714 105.955 78.7536 105.025 79.0163V69.325M108.085 67.3643C107.171 67.6611 105.955 68.0601 105.035 68.3228C104.583 68.4493 104.12 68.5709 103.658 68.6877C103.658 69.7726 103.658 71.2175 103.658 72.3024V80.3737L104.417 80.1791C105.585 79.8677 106.733 79.5174 107.852 79.1331C114.824 76.6324 115.427 68.4541 112.391 67.0384C111.005 66.3913 109.107 67.0238 108.085 67.3643Z" fill="white"/>
<path d="M117.535 0.801025C120.795 0.801025 123.966 1.37019 126.754 2.41123C124.876 5.72406 120.936 8.49205 115.565 9.80064C113.434 10.3212 111.255 10.5693 109.11 10.5693C105.855 10.5693 102.683 10.0001 99.896 8.95419C101.774 5.64136 105.719 2.87337 111.085 1.56478C113.215 1.04426 115.395 0.801025 117.535 0.801025Z" fill="url(#paint3_linear_4832_14011)"/>
<path d="M90.04 10.1907C111.531 10.1907 128.956 21.846 128.956 36.2303C128.956 50.6147 111.531 62.27 90.04 62.27C68.5487 62.27 51.124 50.6147 51.124 36.2303C51.124 21.846 68.5487 10.1907 90.04 10.1907Z" fill="url(#paint4_linear_4832_14011)"/>
<path d="M96.8306 23.0673V24.152L98.4796 19.7255V18.6407L96.8306 23.0673Z" fill="#808080"/>
<path d="M100.737 29.6196C100.737 29.5807 100.737 29.5417 100.737 29.498C100.737 29.4834 100.737 29.4639 100.737 29.4445C100.737 29.4153 100.737 29.3812 100.727 29.3472C100.727 29.3326 100.722 29.318 100.722 29.3034C100.718 29.2596 100.713 29.2207 100.703 29.172C100.703 29.1477 100.693 29.1234 100.688 29.0991C100.679 29.0553 100.674 29.0164 100.659 28.9726C100.654 28.9434 100.645 28.9142 100.635 28.8851C100.62 28.8413 100.611 28.8024 100.596 28.7537C100.586 28.7245 100.572 28.6905 100.562 28.6564C100.547 28.6126 100.528 28.5689 100.508 28.5202C100.508 28.5105 100.504 28.5008 100.499 28.491C100.494 28.4764 100.484 28.4619 100.474 28.4473C100.435 28.3646 100.397 28.2819 100.348 28.1992C100.333 28.17 100.319 28.1457 100.304 28.1165C100.241 28.0095 100.168 27.9025 100.09 27.7954C100.09 27.7954 100.085 27.7857 100.08 27.7808C100.071 27.7663 100.051 27.7468 100.041 27.7322C99.9782 27.6544 99.9101 27.5717 99.8372 27.4938C99.808 27.4598 99.7739 27.4306 99.7447 27.3966C99.6718 27.3236 99.5988 27.2555 99.5161 27.1825C99.4918 27.1631 99.4723 27.1388 99.448 27.1193C99.4286 27.1047 99.4091 27.0901 99.3896 27.0755C99.3605 27.0512 99.3264 27.0269 99.2924 26.9977C99.2243 26.9442 99.1513 26.8907 99.0735 26.8372C99.0394 26.8128 99.0054 26.7885 98.9665 26.7642C98.8692 26.701 98.767 26.6329 98.66 26.5696C98.6405 26.5599 98.6259 26.5502 98.6113 26.5404C98.4995 26.4772 98.3827 26.4091 98.2563 26.3459C98.2465 26.341 98.2319 26.3361 98.2173 26.3264C98.0471 26.2388 97.8671 26.1562 97.6725 26.0783C96.8991 25.7621 95.7754 25.5092 94.788 25.3438C94.4134 25.2806 94.0535 25.2368 93.7032 25.2027C93.6059 25.193 93.5135 25.1882 93.4211 25.1784C93.3189 25.1687 93.2119 25.159 93.1146 25.1541C92.8812 25.1395 92.6574 25.1346 92.4336 25.1346C92.0883 25.1346 91.7575 25.1541 91.4413 25.1833C91.4073 25.1833 91.3732 25.1882 91.3392 25.193C91.3148 25.193 91.2954 25.193 91.2711 25.1979C90.9646 25.2319 90.6727 25.2854 90.3906 25.3487C90.3371 25.3633 90.2836 25.373 90.2301 25.3876C90.2009 25.3925 90.1814 25.407 90.1571 25.4119C89.9674 25.4654 89.7874 25.5238 89.622 25.587C89.6075 25.5919 89.5929 25.5968 89.5783 25.6016C89.5783 25.6016 89.5734 25.6016 89.5685 25.6065C89.3886 25.6795 89.228 25.767 89.0821 25.8594C89.0626 25.8692 89.0432 25.8789 89.0286 25.8886C89.0043 25.9032 88.9848 25.9227 88.9654 25.9373C88.9021 25.981 88.8389 26.0297 88.7805 26.0735C88.7416 26.1075 88.6978 26.1367 88.6638 26.1756C88.6054 26.2291 88.5568 26.2826 88.5032 26.3361C88.4692 26.3702 88.44 26.4042 88.4108 26.4432C88.3622 26.5064 88.3135 26.5745 88.2698 26.6426C88.2503 26.6766 88.226 26.7058 88.2065 26.7399C88.1481 26.842 88.0946 26.9539 88.0509 27.0658C87.9779 27.2604 87.9438 27.4501 87.9438 27.6398V28.7245C87.9438 28.5348 87.9779 28.3451 88.0509 28.1505C88.0946 28.0338 88.1433 27.9268 88.2065 27.8246C88.226 27.7906 88.2503 27.7614 88.2698 27.7273C88.3135 27.6592 88.3573 27.5911 88.4108 27.5279C88.44 27.489 88.4741 27.4549 88.5032 27.4209C88.5519 27.3674 88.6054 27.309 88.6638 27.2604C88.7027 27.2263 88.7416 27.1923 88.7805 27.1582C88.8389 27.1096 88.9021 27.0658 88.9654 27.022C89.0043 26.9977 89.0432 26.9685 89.087 26.9442C89.2378 26.8518 89.3983 26.7691 89.5734 26.6912C89.5929 26.6815 89.6123 26.6766 89.6269 26.6718C89.7923 26.6037 89.9723 26.5453 90.162 26.4967C90.2398 26.4772 90.3128 26.4529 90.3955 26.4334C90.6971 26.3653 91.0132 26.3118 91.344 26.2778C91.3781 26.2778 91.4121 26.2729 91.4462 26.268C91.7672 26.2388 92.0931 26.2194 92.4385 26.2194C92.7547 26.2194 93.0903 26.2388 93.426 26.2632C93.5184 26.2729 93.6157 26.2778 93.7081 26.2875C94.0632 26.3215 94.4183 26.3653 94.7928 26.4286C95.7803 26.5939 96.904 26.8469 97.6774 27.1631C97.872 27.2409 98.052 27.3285 98.2222 27.4112C98.3584 27.4793 98.4897 27.5474 98.6162 27.6203C98.6357 27.6301 98.6503 27.6398 98.6649 27.6495C98.7719 27.7127 98.874 27.776 98.9713 27.8441C99.0102 27.8684 99.0443 27.8927 99.0783 27.917C99.1562 27.9706 99.2243 28.0241 99.2972 28.0776C99.3313 28.1019 99.3605 28.1262 99.3945 28.1554C99.4383 28.1895 99.4772 28.2284 99.5161 28.2624C99.5988 28.3354 99.6718 28.4035 99.7447 28.4764C99.7788 28.5105 99.808 28.5397 99.8372 28.5737C99.9101 28.6516 99.9782 28.7343 100.041 28.8121C100.056 28.8315 100.076 28.851 100.09 28.8753C100.173 28.9823 100.241 29.0894 100.304 29.1964C100.319 29.2256 100.333 29.2499 100.348 29.2742C100.397 29.3569 100.44 29.4445 100.474 29.5223C100.484 29.5466 100.499 29.5709 100.508 29.5952C100.528 29.639 100.542 29.6828 100.562 29.7266C100.572 29.7606 100.586 29.7947 100.596 29.8239C100.611 29.8676 100.625 29.9114 100.635 29.9503C100.645 29.9795 100.654 30.0087 100.659 30.0379C100.669 30.0817 100.679 30.1255 100.688 30.1644C100.688 30.1887 100.698 30.213 100.703 30.2373C100.713 30.2811 100.718 30.32 100.722 30.3638C100.722 30.3833 100.727 30.3979 100.732 30.4173C100.732 30.4514 100.737 30.4757 100.742 30.5049C100.742 30.5243 100.742 30.5487 100.747 30.5632C100.747 30.5924 100.747 30.6119 100.747 30.6362C100.747 30.6508 100.747 30.6703 100.747 30.6849V29.6001L100.737 29.6196Z" fill="#919191"/>
<path d="M100.863 29.8286V30.9134L100.727 30.8891V29.8043L100.863 29.8286Z" fill="#AFAFAF"/>
<path d="M104.303 30.4027V31.4875L105.898 27.2117V26.127L104.303 30.4027Z" fill="#808080"/>
<path d="M100.863 29.8286V30.9134L104.302 31.4874V30.4026L100.863 29.8286Z" fill="#AFAFAF"/>
<path d="M93.3527 39.8929C93.3527 39.8929 93.3721 39.9319 93.3819 39.9513C93.4305 40.0583 93.4694 40.1653 93.4986 40.2772C93.5035 40.3015 93.5083 40.321 93.5132 40.3453C93.5375 40.4572 93.5521 40.5691 93.5521 40.681V39.5962C93.5521 39.533 93.5521 39.4697 93.5424 39.4065C93.5375 39.3579 93.5229 39.3092 93.5132 39.2606C93.5132 39.2363 93.5035 39.2168 93.4986 39.1925C93.4743 39.0952 93.4451 39.0028 93.4062 38.9103C93.4013 38.8957 93.3916 38.8812 93.3819 38.8666C93.3721 38.8471 93.3624 38.8276 93.3527 38.8082C93.2992 38.706 93.2359 38.6039 93.163 38.5017C93.1581 38.492 93.1532 38.4871 93.1484 38.4774C93.1484 38.4774 93.1484 38.4726 93.1435 38.4677C93.056 38.3558 92.9538 38.2439 92.8419 38.132C92.73 38.025 92.6084 37.918 92.482 37.811C92.4431 37.7818 92.3993 37.7478 92.3652 37.7186C92.2971 37.6651 92.2242 37.6067 92.1512 37.5532C92.0247 37.4559 91.8934 37.3586 91.7572 37.2613C91.6793 37.2078 91.6015 37.1495 91.5188 37.0959C91.368 36.9938 91.2026 36.8916 91.0373 36.7895C90.9594 36.7408 90.8865 36.6922 90.8038 36.6484C90.5508 36.5025 90.2881 36.3517 90.006 36.2058C89.6801 36.0355 89.3493 35.8653 89.0137 35.695C88.9942 35.6853 88.9748 35.6756 88.9602 35.6658C88.9115 35.6415 88.8532 35.6123 88.8045 35.588C88.4592 35.4129 88.1089 35.2378 87.749 35.0626C87.6371 35.0091 87.5203 34.9508 87.4036 34.8973C86.9755 34.6881 86.5426 34.4838 86.0951 34.2746C85.7497 34.1141 85.4141 33.9487 85.0833 33.7833C84.6309 33.5547 84.198 33.3163 83.7699 33.0731C83.6678 33.0148 83.5608 32.9515 83.4586 32.8932C83.0354 32.6451 82.6219 32.397 82.2231 32.1343C82.0431 32.0176 81.8777 31.9008 81.7123 31.7792C81.6637 31.7452 81.6199 31.7063 81.5712 31.6722C81.4496 31.5798 81.3378 31.4874 81.2259 31.3949C81.187 31.3609 81.148 31.3317 81.1091 31.2976C80.9097 31.1274 80.7248 30.9523 80.5546 30.7772C80.5254 30.748 80.4962 30.7188 80.4719 30.6896C80.3065 30.5145 80.1509 30.3345 80.0049 30.1497C79.9806 30.1156 79.9563 30.0816 79.932 30.0524C79.8152 29.8919 79.6985 29.7313 79.6012 29.5708C79.5185 29.4395 79.4504 29.3033 79.3872 29.1671C79.3239 29.026 79.2753 28.8801 79.2315 28.7341C79.2169 28.6855 79.212 28.632 79.2023 28.5833C79.178 28.4812 79.1585 28.3839 79.1439 28.2818C79.1245 28.1456 79.1147 28.0094 79.1147 27.8683V28.953C79.1147 29.0795 79.1196 29.2108 79.1342 29.3325C79.1342 29.3422 79.1342 29.3519 79.1391 29.3616C79.1537 29.4638 79.1731 29.5611 79.1974 29.6632C79.2072 29.7119 79.2169 29.7654 79.2266 29.814C79.2655 29.96 79.319 30.1059 79.3823 30.2469C79.4407 30.3832 79.5136 30.5194 79.5963 30.6507C79.6985 30.8161 79.8104 30.9766 79.9271 31.1323C79.9417 31.1517 79.9514 31.1712 79.966 31.1906C79.9757 31.2052 79.9903 31.215 80.0001 31.2295C80.1411 31.4144 80.2968 31.5944 80.467 31.7695C80.4962 31.7987 80.5205 31.8279 80.5497 31.857C80.72 32.0322 80.9048 32.2073 81.1043 32.3775C81.114 32.3873 81.1237 32.397 81.1383 32.4067C81.1675 32.431 81.1967 32.4505 81.221 32.4748C81.3329 32.5672 81.4496 32.6597 81.5664 32.7521C81.615 32.7861 81.6588 32.8251 81.7074 32.8591C81.8728 32.9807 82.0382 33.0975 82.2182 33.2142C82.6171 33.472 83.0305 33.725 83.4537 33.973C83.5559 34.0314 83.6629 34.0946 83.7651 34.153C84.1931 34.3962 84.6261 34.6346 85.0784 34.8632C85.0784 34.8632 85.0882 34.8632 85.0882 34.8681C85.4141 35.0335 85.7497 35.194 86.0902 35.3545C86.5377 35.5637 86.9707 35.768 87.3987 35.9771C87.5155 36.0307 87.6273 36.089 87.7441 36.1425C88.0992 36.3177 88.4543 36.4928 88.7948 36.663C88.8678 36.6971 88.9407 36.736 89.0137 36.77C89.3493 36.9403 89.6801 37.1105 90.006 37.2808C90.2881 37.4267 90.5508 37.5775 90.8038 37.7234C90.8865 37.7721 90.9594 37.8207 91.0373 37.8645C91.2026 37.9667 91.368 38.0688 91.5188 38.171C91.6015 38.2245 91.6793 38.2828 91.7572 38.3364C91.8934 38.4336 92.0247 38.5309 92.1512 38.6282C92.2242 38.6817 92.2971 38.7401 92.3652 38.7936C92.5355 38.9347 92.696 39.0709 92.8419 39.2119C92.9587 39.3238 93.0608 39.4406 93.1484 39.5573C93.1532 39.567 93.1581 39.5719 93.163 39.5816C93.2359 39.6838 93.2992 39.7859 93.3527 39.8881V39.8929Z" fill="#858585"/>
<path d="M79.0174 43.2201C76.8382 42.4856 75.7827 41.9651 74.7368 41.4786V42.5634C75.7827 43.0547 76.8382 43.5703 79.0174 44.3048C80.8659 44.9275 82.3641 45.3604 84.4606 45.7593V44.6745C82.369 44.2756 80.8659 43.8476 79.0174 43.2201Z" fill="#98989A"/>
<path d="M102.133 40.7153C102.074 40.8709 102.006 41.0266 101.933 41.1725C101.909 41.2211 101.884 41.2649 101.86 41.3087C101.807 41.4109 101.748 41.513 101.685 41.6103C101.656 41.6589 101.622 41.7076 101.593 41.7562C101.529 41.8535 101.456 41.9508 101.383 42.0432C101.354 42.0821 101.32 42.1259 101.291 42.1648C101.184 42.2962 101.072 42.4226 100.951 42.5442C100.941 42.554 100.936 42.5588 100.926 42.5637C100.809 42.6804 100.688 42.7875 100.561 42.8993C100.518 42.9334 100.474 42.9723 100.43 43.0064C100.333 43.0842 100.231 43.162 100.124 43.235C100.07 43.2739 100.017 43.3079 99.9631 43.342C99.8512 43.415 99.7393 43.4831 99.6226 43.556C99.5691 43.5852 99.5204 43.6193 99.4669 43.6485C99.2967 43.7457 99.1167 43.8382 98.9318 43.9257C98.747 44.0133 98.5621 44.0911 98.3676 44.1689C98.1098 44.276 97.8471 44.3732 97.5747 44.4608C97.5114 44.4803 97.4433 44.4997 97.3801 44.524C97.1612 44.5921 96.9423 44.6554 96.7137 44.7186C96.631 44.7429 96.5483 44.7624 96.4656 44.7818C96.13 44.8645 95.7846 44.9424 95.4295 45.0056C95.3857 45.0153 95.3419 45.0202 95.2982 45.0251C94.9674 45.0834 94.6269 45.1321 94.2815 45.1759C94.1988 45.1856 94.1161 45.1953 94.0286 45.205C93.7027 45.2391 93.367 45.2731 93.0265 45.2975C92.4574 45.3364 91.8834 45.351 91.2997 45.351C90.7792 45.351 90.249 45.3315 89.7139 45.3072C89.3345 45.2877 88.9551 45.2634 88.5659 45.2342V46.319C88.8967 46.3482 89.2275 46.3676 89.5582 46.3871C89.6117 46.3871 89.6604 46.3871 89.7139 46.3871C90.249 46.4163 90.7792 46.4309 91.2997 46.4309C91.8834 46.4309 92.4574 46.4114 93.0265 46.3774C93.3719 46.353 93.7027 46.3238 94.0286 46.2849C94.0626 46.2849 94.1015 46.2801 94.1356 46.2752C94.1842 46.2703 94.228 46.2606 94.2815 46.2557C94.6269 46.212 94.9674 46.1633 95.2982 46.1049C95.3419 46.0952 95.3857 46.0904 95.4295 46.0855C95.7846 46.0223 96.13 45.9444 96.4656 45.8617C96.5045 45.852 96.5434 45.8471 96.5775 45.8374C96.6261 45.8277 96.665 45.8082 96.7137 45.7985C96.9423 45.7401 97.1612 45.672 97.3801 45.6039C97.4433 45.5845 97.5114 45.565 97.5747 45.5407C97.8471 45.4483 98.1098 45.351 98.3676 45.2488C98.3822 45.244 98.3968 45.2391 98.4114 45.2342C98.5865 45.1613 98.7616 45.0834 98.9318 45.0056C99.1167 44.918 99.2967 44.8256 99.4669 44.7283C99.5204 44.6992 99.5739 44.6651 99.6226 44.6359C99.7004 44.5921 99.7782 44.5484 99.8512 44.4997C99.8901 44.4754 99.9242 44.4462 99.9631 44.4219C100.017 44.3878 100.07 44.3489 100.124 44.3149C100.231 44.2419 100.333 44.1641 100.43 44.0862C100.474 44.0522 100.522 44.0181 100.561 43.9792C100.688 43.8722 100.814 43.7603 100.926 43.6436C100.936 43.6339 100.941 43.629 100.951 43.6241C101.072 43.5025 101.184 43.3761 101.291 43.2447C101.325 43.2058 101.354 43.162 101.383 43.1231C101.456 43.0307 101.525 42.9334 101.593 42.8361C101.627 42.7875 101.656 42.7388 101.685 42.6902C101.748 42.5929 101.802 42.4907 101.86 42.3886C101.884 42.3448 101.909 42.2962 101.933 42.2524C102.006 42.1016 102.074 41.9508 102.133 41.7951C102.317 41.2941 102.41 40.8174 102.41 40.365V39.2803C102.41 39.7327 102.317 40.2094 102.133 40.7104V40.7153Z" fill="#98989A"/>
<path d="M86.9321 49.6414V50.7261L88.5714 46.3288V45.244L86.9321 49.6414Z" fill="#808080"/>
<path d="M82.8604 48.9601V50.0448L86.9318 50.7258V49.6411L82.8604 48.9601Z" fill="#AFAFAF"/>
<path d="M94.4131 17.9646L98.4797 18.6408L96.8307 23.0722C98.2656 23.3981 99.7833 23.8067 101.004 24.2105C103.13 24.9158 105.762 26.0686 105.898 26.127L104.302 30.4028L100.863 29.8288L100.727 29.8045C100.742 29.6877 100.999 27.4598 97.6576 26.0832C96.8842 25.7671 95.7605 25.5141 94.773 25.3487C93.9315 25.2077 93.1484 25.1347 92.4138 25.1347C91.6793 25.1347 90.9935 25.2077 90.366 25.3487C89.1207 25.6309 88.3327 26.2048 88.0165 27.0658C87.7538 27.7712 87.9678 28.4327 88.6488 29.0651C89.3347 29.6926 90.2881 30.3201 91.4993 30.9476C92.7106 31.5702 94.0191 32.2172 95.4151 32.8787C96.8112 33.5451 98.0905 34.2602 99.2531 35.019C100.416 35.7779 101.296 36.6194 101.894 37.5485C102.488 38.4776 102.571 39.5283 102.133 40.7054C101.622 42.0869 100.552 43.1571 98.9321 43.9208C97.3074 44.6845 95.3422 45.1417 93.0267 45.2974C92.4576 45.3363 91.8836 45.3509 91.2999 45.3509C90.4097 45.3509 89.5001 45.3071 88.571 45.2293L86.9317 49.6315L82.8603 48.9505L84.4606 44.6602C82.369 44.2613 80.8659 43.8332 79.0174 43.2057C76.8382 42.4712 75.7827 41.9507 74.7368 41.4643L76.2837 37.3199L79.8492 37.9133C79.8492 37.9133 79.9076 38.069 79.9854 38.3073C80.4524 39.7326 81.9896 40.9681 84.1153 41.5859C84.8401 41.7951 85.56 41.975 86.1729 42.0772C87.0582 42.2231 87.8949 42.2961 88.6878 42.2961C89.4806 42.2961 90.1617 42.228 90.8378 42.0918C92.2095 41.8145 93.0754 41.2065 93.4305 40.2531C93.7126 39.4845 93.5229 38.7694 92.8419 38.1176C92.1609 37.4658 91.2221 36.8188 90.0109 36.1865C88.8045 35.5492 87.496 34.9072 86.0951 34.2553C84.6941 33.6035 83.4051 32.8885 82.223 32.115C81.0459 31.3416 80.1703 30.4855 79.5963 29.5466C79.0272 28.6078 78.9591 27.5523 79.3969 26.3751C79.859 25.1298 80.8124 24.1618 82.2571 23.4614C83.7018 22.7658 85.4773 22.3377 87.5933 22.1869C88.1527 22.148 88.7218 22.1285 89.3055 22.1285C90.4146 22.1285 91.5723 22.2015 92.7738 22.3377L94.4131 17.9452V17.9646Z" fill="white"/>
<defs>
<linearGradient id="paint0_linear_4832_14011" x1="90.0387" y1="208.8" x2="90.0387" y2="123.206" gradientUnits="userSpaceOnUse">
<stop offset="0.05" stop-color="#FF923D"/>
<stop offset="1" stop-color="#FF7B34"/>
</linearGradient>
<linearGradient id="paint1_linear_4832_14011" x1="90.0404" y1="130.802" x2="90.0404" y2="46.1648" gradientUnits="userSpaceOnUse">
<stop offset="0.1" stop-color="#FFDA72"/>
<stop offset="0.83" stop-color="#FFD151"/>
</linearGradient>
<linearGradient id="paint2_linear_4832_14011" x1="113.349" y1="2.41113" x2="113.349" y2="39.4895" gradientUnits="userSpaceOnUse">
<stop offset="0.173077" stop-color="#E27407"/>
<stop offset="1" stop-color="#B95F06"/>
</linearGradient>
<linearGradient id="paint3_linear_4832_14011" x1="113.327" y1="10.5644" x2="113.327" y2="0.801025" gradientUnits="userSpaceOnUse">
<stop offset="0.14" stop-color="#F7931A"/>
<stop offset="1" stop-color="#FB8826"/>
</linearGradient>
<linearGradient id="paint4_linear_4832_14011" x1="90.04" y1="62.27" x2="90.04" y2="10.1907" gradientUnits="userSpaceOnUse">
<stop offset="0.302885" stop-color="#FFA126"/>
<stop offset="0.894231" stop-color="#F78819"/>
</linearGradient>
</defs>
</svg>
