<svg width="250" height="441" viewBox="0 0 250 441" fill="none" xmlns="http://www.w3.org/2000/svg">
<path d="M249.677 299.254C249.663 299.685 249.643 300.116 249.616 300.548C249.589 300.959 249.562 301.376 249.535 301.787C249.502 302.219 249.461 302.657 249.414 303.088C249.374 303.499 249.326 303.917 249.273 304.328C249.219 304.766 249.158 305.197 249.091 305.635C249.03 306.053 248.963 306.464 248.895 306.882C248.821 307.32 248.733 307.758 248.653 308.189C248.565 308.627 248.477 309.072 248.383 309.51C248.316 309.813 248.248 310.116 248.174 310.42C248.053 310.918 247.925 311.417 247.797 311.922C247.716 312.219 247.642 312.515 247.554 312.812C247.399 313.351 247.238 313.883 247.069 314.422C246.988 314.678 246.914 314.934 246.833 315.184C246.577 315.972 246.301 316.761 246.011 317.549C245.755 318.236 245.479 318.924 245.202 319.604C245.068 319.928 244.933 320.251 244.791 320.575C244.697 320.79 244.609 321.006 244.515 321.221C244.347 321.599 244.171 321.976 243.996 322.354C243.915 322.529 243.841 322.697 243.754 322.872C243.491 323.418 243.221 323.964 242.945 324.503C242.918 324.557 242.884 324.618 242.857 324.672C242.608 325.157 242.352 325.635 242.089 326.114C241.988 326.296 241.887 326.478 241.779 326.659C241.584 327.01 241.388 327.36 241.186 327.711C241.065 327.92 240.937 328.128 240.816 328.337C240.627 328.654 240.438 328.978 240.243 329.294C240.108 329.51 239.973 329.725 239.832 329.948C239.636 330.251 239.441 330.561 239.246 330.864C239.104 331.08 238.956 331.302 238.814 331.518C238.653 331.761 238.491 331.996 238.329 332.232C237.864 332.913 237.386 333.587 236.894 334.261C236.874 334.287 236.853 334.314 236.84 334.341C236.328 335.035 235.802 335.716 235.263 336.397C235.128 336.572 234.987 336.74 234.852 336.916C234.347 337.542 233.835 338.162 233.309 338.782C233.262 338.836 233.215 338.897 233.167 338.951C232.601 339.611 232.015 340.265 231.422 340.911C231.274 341.073 231.119 341.242 230.964 341.403C230.425 341.983 229.879 342.562 229.32 343.128C229.246 343.203 229.171 343.277 229.097 343.358C228.477 343.991 227.837 344.611 227.19 345.224C227.029 345.379 226.86 345.534 226.698 345.689C226.126 346.228 225.546 346.761 224.953 347.293C224.852 347.38 224.758 347.475 224.657 347.562C223.983 348.162 223.295 348.748 222.601 349.335C222.44 349.469 222.278 349.604 222.123 349.732C221.328 350.393 220.519 351.046 219.697 351.693C219.677 351.707 219.657 351.727 219.636 351.74C218.821 352.374 217.992 352.994 217.15 353.607C216.988 353.721 216.833 353.843 216.671 353.957C215.843 354.557 214.994 355.15 214.138 355.736C213.969 355.851 213.801 355.965 213.632 356.08C212.743 356.68 211.853 357.266 210.937 357.845C210.93 357.845 210.923 357.852 210.917 357.859C210 358.438 209.064 359.011 208.12 359.571C207.938 359.678 207.763 359.786 207.581 359.894C206.665 360.433 205.742 360.965 204.805 361.484C204.63 361.585 204.448 361.68 204.266 361.781C203.322 362.3 202.366 362.812 201.395 363.317C201.355 363.337 201.321 363.358 201.281 363.378C200.29 363.89 199.286 364.389 198.268 364.88C198.066 364.982 197.864 365.076 197.655 365.177C196.725 365.622 195.795 366.06 194.852 366.484C194.697 366.552 194.542 366.619 194.387 366.693C193.545 367.07 192.689 367.441 191.833 367.805C191.624 367.893 191.422 367.98 191.213 368.068C190.25 368.472 189.279 368.87 188.295 369.254C188.1 369.328 187.898 369.409 187.702 369.483C186.833 369.82 185.964 370.15 185.088 370.473C184.899 370.541 184.711 370.615 184.522 370.682C183.525 371.046 182.514 371.397 181.503 371.74C181.274 371.814 181.045 371.895 180.822 371.969C179.906 372.279 178.983 372.576 178.06 372.866C177.911 372.913 177.763 372.96 177.608 373.007C176.57 373.331 175.526 373.641 174.481 373.944C174.232 374.018 173.99 374.085 173.74 374.153C172.743 374.436 171.739 374.712 170.728 374.982C170.647 375.002 170.573 375.022 170.492 375.042C169.111 375.406 167.716 375.75 166.314 376.08C166.18 376.114 166.045 376.147 165.91 376.174C164.556 376.491 163.188 376.787 161.813 377.071C161.631 377.111 161.442 377.145 161.26 377.185C159.913 377.461 158.558 377.717 157.19 377.96C156.981 378 156.766 378.034 156.557 378.075C155.202 378.31 153.848 378.533 152.48 378.742C152.237 378.775 151.995 378.816 151.752 378.849C150.587 379.018 149.421 379.186 148.248 379.335C148.154 379.348 148.06 379.355 147.959 379.368C146.847 379.51 145.735 379.631 144.616 379.752C144.367 379.779 144.111 379.806 143.861 379.833C142.689 379.955 141.516 380.062 140.344 380.157C140.128 380.177 139.906 380.19 139.69 380.211C138.619 380.298 137.541 380.372 136.463 380.44C136.247 380.453 136.038 380.467 135.822 380.48C135.317 380.507 134.805 380.534 134.293 380.561C133.915 380.581 133.545 380.601 133.167 380.615C132.635 380.635 132.096 380.655 131.564 380.676C131.213 380.689 130.863 380.703 130.512 380.716C129.919 380.736 129.32 380.743 128.72 380.756C128.423 380.756 128.134 380.77 127.837 380.777C126.948 380.79 126.052 380.797 125.162 380.797C123.794 380.797 122.419 380.777 121.045 380.75C120.452 380.736 119.859 380.716 119.266 380.696C118.605 380.676 117.938 380.655 117.278 380.628C116.671 380.602 116.065 380.568 115.459 380.534C114.798 380.5 114.131 380.467 113.471 380.426C112.864 380.386 112.251 380.339 111.645 380.298C110.984 380.251 110.317 380.204 109.657 380.15C109.043 380.096 108.43 380.035 107.824 379.982C107.163 379.921 106.496 379.86 105.836 379.786C104.764 379.672 103.686 379.55 102.615 379.422C102.467 379.402 102.318 379.382 102.17 379.362C101.18 379.234 100.182 379.106 99.1917 378.964C98.8952 378.924 98.5987 378.876 98.3022 378.836C97.1768 378.668 96.0448 378.499 94.9194 378.31C93.9558 378.149 92.9989 377.98 92.0421 377.805C91.7321 377.751 91.4289 377.69 91.1189 377.63C90.472 377.509 89.8318 377.387 89.1917 377.259C88.9423 377.212 88.693 377.158 88.4504 377.104C87.0084 376.808 85.5731 376.498 84.158 376.168C83.9962 376.127 83.8345 376.087 83.6661 376.053C82.2105 375.709 80.7617 375.352 79.3399 374.982C79.2456 374.955 79.1512 374.928 79.0569 374.907C77.5811 374.517 76.1189 374.112 74.6768 373.681C74.6634 373.681 74.6431 373.674 74.6297 373.668C73.1944 373.243 71.7725 372.798 70.3709 372.34C70.2361 372.3 70.1014 372.252 69.9666 372.212C69.7442 372.138 69.5219 372.064 69.2927 371.99C68.7873 371.821 68.2752 371.646 67.7766 371.478C67.507 371.383 67.2375 371.289 66.9747 371.195C66.5165 371.033 66.0582 370.871 65.6 370.703C65.3237 370.602 65.0542 370.5 64.7779 370.399C64.3197 370.231 63.8682 370.062 63.4167 369.887C63.1607 369.786 62.9046 369.692 62.6485 369.591C62.1364 369.395 61.631 369.193 61.1256 368.991C60.9369 368.917 60.7415 368.843 60.5528 368.762C59.8655 368.486 59.1782 368.203 58.4976 367.913C58.3561 367.852 58.2146 367.792 58.0731 367.731C57.534 367.502 57.0016 367.273 56.4693 367.037C56.2334 366.929 55.9976 366.828 55.7617 366.72C55.3237 366.525 54.8925 366.329 54.4612 366.134C54.2051 366.019 53.9558 365.898 53.6997 365.783C53.282 365.588 52.8709 365.393 52.4599 365.197C52.2105 365.076 51.9679 364.961 51.7186 364.84C51.2873 364.631 50.8561 364.416 50.4248 364.2C50.2159 364.092 50.0003 363.991 49.7914 363.883C49.2119 363.587 48.6391 363.29 48.0731 362.994C48.0124 362.96 47.9585 362.933 47.8979 362.906C47.2712 362.576 46.6512 362.239 46.038 361.902C45.8493 361.794 45.6607 361.693 45.472 361.585C45.0475 361.349 44.6229 361.114 44.2051 360.871C43.976 360.743 43.7537 360.608 43.5245 360.48C43.1404 360.258 42.7631 360.035 42.3857 359.813C42.1566 359.678 41.9275 359.544 41.6984 359.402C41.321 359.173 40.9437 358.944 40.5663 358.708C40.3574 358.58 40.1418 358.445 39.9329 358.317C39.5084 358.048 39.0838 357.778 38.666 357.509C38.5111 357.407 38.3628 357.313 38.2078 357.212C37.6418 356.841 37.0825 356.471 36.5232 356.093C36.3952 356.006 36.2739 355.925 36.1526 355.837C35.7213 355.541 35.2968 355.251 34.8722 354.948C34.6768 354.813 34.4882 354.678 34.2995 354.537C33.9423 354.287 33.5919 354.031 33.2415 353.775C33.0394 353.627 32.8372 353.479 32.6351 353.324C32.2981 353.075 31.9679 352.825 31.6377 352.576C31.4423 352.428 31.2402 352.273 31.0448 352.124C30.6944 351.855 30.3507 351.585 30.007 351.316C29.8386 351.181 29.6701 351.053 29.5016 350.918C29.0299 350.541 28.565 350.164 28.1068 349.779C28.0731 349.752 28.0326 349.719 27.9989 349.692C27.507 349.281 27.0218 348.87 26.5367 348.452C26.3817 348.317 26.2334 348.182 26.0784 348.054C25.7483 347.765 25.4248 347.475 25.1014 347.185C24.9262 347.03 24.751 346.868 24.5758 346.707C24.2793 346.437 23.9828 346.161 23.693 345.891C23.5178 345.73 23.3426 345.561 23.1674 345.393C22.8776 345.116 22.5879 344.833 22.2981 344.557C22.1364 344.402 21.9747 344.24 21.813 344.085C21.4895 343.762 21.166 343.438 20.8493 343.108C20.7348 342.994 20.6202 342.879 20.5124 342.765C20.0879 342.32 19.6634 341.882 19.2456 341.43C19.1512 341.329 19.0569 341.221 18.9625 341.12C18.6458 340.777 18.3291 340.426 18.0191 340.076C17.8776 339.914 17.7361 339.752 17.5946 339.591C17.3318 339.294 17.0758 338.998 16.8197 338.701C16.6714 338.526 16.5232 338.351 16.3749 338.176C16.1324 337.886 15.8898 337.589 15.6472 337.3C15.5057 337.124 15.3642 336.949 15.2227 336.774C14.9733 336.464 14.724 336.147 14.4814 335.831C14.3601 335.676 14.2388 335.521 14.1243 335.366C13.7873 334.928 13.4572 334.483 13.127 334.038C13.1067 334.011 13.0865 333.978 13.0596 333.951C12.7159 333.479 12.379 333 12.0488 332.522C11.941 332.367 11.8399 332.219 11.7388 332.064C11.5165 331.734 11.2873 331.403 11.0717 331.073C10.9504 330.891 10.8359 330.709 10.7146 330.527C10.5124 330.217 10.317 329.914 10.1216 329.604C10.007 329.416 9.88572 329.227 9.77117 329.038C9.57575 328.721 9.38707 328.405 9.19839 328.088C9.09058 327.913 8.9895 327.738 8.88842 327.556C8.67278 327.185 8.46389 326.814 8.26173 326.451C8.19435 326.323 8.12022 326.201 8.05284 326.073C7.7833 325.575 7.51376 325.083 7.25769 324.584C7.19704 324.469 7.1364 324.348 7.08249 324.234C6.88707 323.849 6.69165 323.465 6.50971 323.081C6.42211 322.899 6.34125 322.724 6.25365 322.542C6.09866 322.212 5.94368 321.882 5.79543 321.552C5.70783 321.356 5.62022 321.161 5.53262 320.965C5.39111 320.642 5.2496 320.318 5.11483 319.995C5.03397 319.806 4.95311 319.611 4.87225 319.422C4.73074 319.072 4.58923 318.728 4.45446 318.378C4.38707 318.209 4.31968 318.041 4.25904 317.872C4.07036 317.374 3.88842 316.875 3.71322 316.376C3.71322 316.356 3.69974 316.343 3.693 316.323C3.51106 315.804 3.3426 315.285 3.17413 314.766C3.12022 314.597 3.07305 314.436 3.01915 314.267C2.91133 313.91 2.79677 313.553 2.6957 313.196C2.64179 313 2.58788 312.805 2.52723 312.61C2.43289 312.273 2.34529 311.942 2.25769 311.606C2.20378 311.403 2.15661 311.201 2.1027 310.999C2.0151 310.655 1.93424 310.312 1.86012 309.968C1.81968 309.779 1.77252 309.591 1.73208 309.395C1.64448 308.998 1.56362 308.593 1.48276 308.189C1.4558 308.061 1.42885 307.926 1.4019 307.798C1.30082 307.266 1.20648 306.734 1.12561 306.201C1.1054 306.073 1.08518 305.938 1.06497 305.81C1.00432 305.406 0.943674 305.002 0.889766 304.591C0.862811 304.402 0.842596 304.207 0.82238 304.018C0.781949 303.668 0.741518 303.317 0.707825 302.967C0.687609 302.758 0.667394 302.556 0.647178 302.347C0.613485 302.003 0.59327 301.659 0.566315 301.316C0.552838 301.114 0.539361 300.911 0.525884 300.709C0.505669 300.339 0.485453 299.975 0.471976 299.604C0.465237 299.429 0.458499 299.254 0.45176 299.079C0.397852 298.546 0.391113 298 0.391113 297.455V357.549C0.391113 358.095 0.397852 358.634 0.418067 359.18C0.418067 359.355 0.431545 359.53 0.438283 359.705C0.45176 360.076 0.471976 360.447 0.492191 360.81C0.505669 361.013 0.519146 361.215 0.532623 361.417C0.559577 361.761 0.586531 362.104 0.613485 362.448C0.633701 362.657 0.653917 362.859 0.674132 363.068C0.707825 363.418 0.748256 363.769 0.788687 364.112C0.808903 364.301 0.835857 364.496 0.856073 364.685C0.909981 365.089 0.970628 365.494 1.03128 365.898C1.05149 366.026 1.06497 366.161 1.09192 366.289C1.17952 366.821 1.26712 367.354 1.3682 367.886C1.39516 368.014 1.42211 368.149 1.44906 368.277C1.52993 368.681 1.61079 369.079 1.69839 369.483C1.73882 369.672 1.78599 369.86 1.82642 370.056C1.90729 370.399 1.98815 370.743 2.06901 371.08C2.11618 371.282 2.17009 371.484 2.224 371.686C2.3116 372.023 2.3992 372.354 2.49354 372.69C2.54745 372.886 2.60136 373.081 2.662 373.277C2.76308 373.634 2.87764 373.991 2.98545 374.348C3.03936 374.517 3.08653 374.685 3.14044 374.847C3.3089 375.366 3.47737 375.885 3.65931 376.403C3.65931 376.424 3.67278 376.437 3.67952 376.457C3.85473 376.956 4.03667 377.455 4.22535 377.953C4.28599 378.122 4.35338 378.29 4.42076 378.459C4.55553 378.809 4.69704 379.153 4.83855 379.503C4.91942 379.699 5.00028 379.887 5.08114 380.083C5.21591 380.406 5.35742 380.73 5.49893 381.053C5.58653 381.248 5.67413 381.444 5.76173 381.639C5.90998 381.969 6.06497 382.3 6.21995 382.623C6.30756 382.805 6.38842 382.98 6.47602 383.162C6.6647 383.546 6.85338 383.93 7.0488 384.314C7.10944 384.436 7.17009 384.55 7.23074 384.672C7.4868 385.17 7.75634 385.669 8.02589 386.161C8.09327 386.289 8.16739 386.417 8.24152 386.545C8.45041 386.916 8.65257 387.279 8.8682 387.65C8.96928 387.825 9.0771 388 9.17818 388.182C9.36686 388.499 9.55554 388.816 9.75095 389.132C9.86551 389.321 9.98006 389.51 10.1014 389.699C10.2968 390.009 10.4922 390.318 10.6943 390.622C10.8156 390.804 10.9302 390.986 11.0515 391.168C11.2671 391.498 11.4895 391.828 11.7186 392.151C11.8264 392.306 11.9275 392.461 12.0353 392.61C12.3655 393.088 12.7024 393.56 13.0461 394.031C13.0663 394.058 13.0865 394.092 13.1135 394.119C13.4369 394.564 13.7739 395.009 14.1108 395.447C14.2321 395.602 14.3534 395.756 14.4679 395.911C14.7105 396.228 14.9598 396.538 15.2092 396.855C15.3507 397.03 15.4922 397.205 15.6337 397.38C15.8696 397.677 16.1121 397.967 16.3615 398.256C16.5097 398.432 16.658 398.607 16.8062 398.782C17.0623 399.079 17.3183 399.375 17.5744 399.672C17.7159 399.833 17.8574 399.995 18.0057 400.157C18.3156 400.507 18.6324 400.851 18.9491 401.194C19.0434 401.296 19.1377 401.403 19.2321 401.504C19.6499 401.949 20.0677 402.394 20.4922 402.832C20.6067 402.947 20.7213 403.068 20.8359 403.182C21.1526 403.506 21.476 403.829 21.7995 404.153C21.9612 404.314 22.1229 404.469 22.2846 404.624C22.5744 404.907 22.8574 405.184 23.1539 405.46C23.3291 405.628 23.5043 405.79 23.6795 405.959C23.9693 406.228 24.2658 406.504 24.5623 406.774C24.7375 406.936 24.9127 407.097 25.0879 407.252C25.4113 407.542 25.7348 407.832 26.065 408.115C26.22 408.25 26.3682 408.385 26.5232 408.519C27.0016 408.937 27.4868 409.348 27.9855 409.759C28.0259 409.793 28.0663 409.827 28.1068 409.86C28.565 410.238 29.0232 410.615 29.4882 410.986C29.6566 411.12 29.8251 411.255 29.9935 411.383C30.3372 411.653 30.6809 411.922 31.0313 412.192C31.2267 412.34 31.4289 412.495 31.6243 412.643C31.9545 412.893 32.2846 413.142 32.6216 413.391C32.8237 413.54 33.0326 413.694 33.2348 413.843C33.5852 414.099 33.9356 414.348 34.286 414.597C34.4747 414.732 34.6701 414.874 34.8588 415.009C35.2833 415.305 35.7078 415.602 36.1391 415.898C36.2671 415.986 36.3884 416.066 36.5097 416.154C37.0623 416.531 37.6283 416.902 38.1944 417.273C38.3426 417.374 38.4976 417.468 38.6526 417.569C39.0704 417.839 39.4949 418.108 39.9194 418.378C40.1283 418.513 40.3439 418.641 40.5528 418.769C40.9302 418.998 41.3076 419.234 41.6849 419.463C41.914 419.597 42.1431 419.739 42.3722 419.874C42.7496 420.096 43.127 420.318 43.5043 420.541C43.7334 420.676 43.9558 420.804 44.1849 420.938C44.6027 421.174 45.0205 421.41 45.4383 421.646C45.6337 421.754 45.8224 421.862 46.0178 421.969C46.631 422.306 47.251 422.643 47.8709 422.973C47.9383 423.007 47.9989 423.041 48.0663 423.075C48.6256 423.371 49.1917 423.661 49.7644 423.951C49.9801 424.058 50.1957 424.166 50.4113 424.274C50.8426 424.49 51.2671 424.699 51.6984 424.914C51.941 425.035 52.1903 425.15 52.4396 425.271C52.8507 425.467 53.2685 425.669 53.6795 425.858C53.9289 425.979 54.1849 426.093 54.441 426.208C54.8722 426.403 55.3035 426.606 55.7415 426.794C55.9774 426.902 56.2132 427.01 56.4491 427.111C56.9747 427.34 57.507 427.569 58.0394 427.798C58.1876 427.859 58.3291 427.926 58.4774 427.987C59.158 428.277 59.8386 428.56 60.5259 428.836C60.7146 428.91 60.91 428.984 61.0987 429.065C61.6041 429.267 62.1094 429.469 62.6216 429.665C62.8776 429.766 63.1337 429.86 63.3898 429.961C63.8413 430.137 64.2927 430.305 64.751 430.473C65.0272 430.575 65.2968 430.676 65.5731 430.777C66.0313 430.945 66.4828 431.107 66.9477 431.269C67.2173 431.363 67.4801 431.457 67.7496 431.552C68.255 431.727 68.7604 431.895 69.2658 432.064C69.4882 432.138 69.7105 432.212 69.9396 432.286C69.9935 432.306 70.0542 432.327 70.1081 432.34C70.189 432.367 70.2631 432.387 70.3439 432.414C71.7456 432.872 73.1674 433.317 74.6027 433.742C74.6162 433.742 74.6364 433.748 74.6499 433.755C76.0919 434.18 77.5542 434.591 79.0299 434.982C79.1243 435.009 79.2186 435.035 79.313 435.056C80.7415 435.433 82.1836 435.79 83.6391 436.127C83.8008 436.168 83.9625 436.208 84.131 436.242C85.5461 436.572 86.9814 436.882 88.4235 437.178C88.5448 437.205 88.6661 437.232 88.7873 437.259C88.9154 437.286 89.0367 437.306 89.1647 437.333C89.8049 437.461 90.4518 437.583 91.0919 437.704C91.4019 437.765 91.7051 437.825 92.0151 437.879C92.9652 438.054 93.9289 438.223 94.8925 438.384C96.0178 438.573 97.1499 438.748 98.2752 438.91C98.5717 438.951 98.8682 438.998 99.1647 439.038C100.155 439.18 101.153 439.314 102.143 439.436C102.291 439.456 102.44 439.476 102.588 439.49C103.511 439.604 104.428 439.712 105.344 439.806C105.499 439.82 105.654 439.833 105.809 439.854C106.469 439.921 107.136 439.982 107.797 440.049C108.41 440.11 109.023 440.163 109.63 440.217C110.29 440.271 110.957 440.318 111.618 440.366C112.231 440.413 112.837 440.46 113.444 440.494C114.104 440.534 114.771 440.568 115.432 440.602C116.038 440.635 116.644 440.669 117.251 440.696C117.911 440.723 118.578 440.743 119.239 440.763C119.731 440.777 120.223 440.804 120.715 440.81C120.816 440.81 120.917 440.81 121.018 440.81C122.392 440.844 123.767 440.858 125.135 440.858C126.031 440.858 126.921 440.851 127.81 440.837C128.107 440.837 128.397 440.824 128.693 440.817C129.293 440.804 129.886 440.797 130.485 440.777C130.843 440.763 131.193 440.75 131.55 440.736C132.083 440.716 132.615 440.703 133.14 440.676C133.525 440.662 133.902 440.635 134.286 440.622C134.791 440.595 135.29 440.575 135.795 440.541C135.876 440.541 135.95 440.534 136.031 440.527C136.166 440.521 136.308 440.507 136.442 440.5C137.521 440.433 138.592 440.359 139.663 440.271C139.879 440.251 140.101 440.238 140.317 440.217C141.496 440.123 142.662 440.009 143.835 439.894C144.091 439.867 144.34 439.84 144.596 439.813C145.715 439.692 146.826 439.571 147.932 439.429C148.026 439.416 148.12 439.409 148.221 439.395C149.394 439.247 150.566 439.085 151.725 438.91C151.86 438.89 151.995 438.876 152.13 438.856C152.237 438.843 152.345 438.823 152.453 438.802C153.821 438.593 155.182 438.371 156.53 438.135C156.739 438.101 156.948 438.061 157.163 438.021C158.525 437.778 159.886 437.515 161.233 437.246C161.415 437.205 161.604 437.172 161.786 437.131C163.161 436.848 164.529 436.552 165.883 436.235C166.018 436.201 166.153 436.168 166.287 436.141C167.689 435.81 169.084 435.467 170.465 435.103C170.479 435.103 170.492 435.096 170.512 435.089C170.573 435.076 170.64 435.056 170.701 435.035C171.712 434.766 172.716 434.49 173.713 434.207C173.963 434.139 174.212 434.065 174.454 433.998C175.506 433.694 176.55 433.385 177.581 433.061C177.729 433.014 177.878 432.967 178.033 432.92C178.963 432.63 179.879 432.327 180.795 432.023C181.025 431.949 181.254 431.875 181.476 431.794C182.487 431.451 183.498 431.093 184.495 430.736C184.684 430.669 184.866 430.595 185.054 430.527C185.937 430.204 186.813 429.874 187.682 429.53C187.878 429.456 188.073 429.382 188.268 429.301C189.246 428.917 190.223 428.519 191.186 428.115C191.395 428.027 191.597 427.94 191.806 427.852C192.662 427.488 193.518 427.118 194.36 426.74C194.515 426.673 194.67 426.606 194.825 426.531C195.769 426.107 196.705 425.669 197.628 425.224C197.716 425.184 197.81 425.143 197.905 425.096C198.019 425.042 198.127 424.982 198.242 424.928C199.252 424.436 200.263 423.937 201.254 423.425C201.294 423.405 201.328 423.385 201.368 423.364C202.339 422.866 203.289 422.347 204.239 421.828C204.414 421.727 204.596 421.632 204.771 421.531C205.708 421.013 206.631 420.48 207.547 419.941C207.729 419.833 207.905 419.725 208.087 419.618C209.03 419.058 209.967 418.486 210.883 417.906C210.89 417.906 210.897 417.899 210.903 417.893C211.813 417.313 212.709 416.72 213.599 416.127C213.767 416.013 213.936 415.898 214.104 415.783C214.96 415.197 215.802 414.604 216.638 414.004C216.799 413.89 216.954 413.769 217.116 413.654C217.959 413.041 218.787 412.421 219.603 411.787C219.623 411.774 219.643 411.754 219.663 411.74C220.492 411.1 221.294 410.44 222.096 409.779C222.184 409.705 222.278 409.631 222.372 409.557C222.44 409.496 222.507 409.436 222.581 409.382C223.275 408.796 223.963 408.209 224.643 407.61C224.744 407.522 224.839 407.428 224.94 407.34C225.533 406.814 226.112 406.275 226.685 405.736C226.847 405.581 227.015 405.426 227.177 405.271C227.824 404.651 228.464 404.031 229.084 403.398C229.158 403.324 229.232 403.25 229.306 403.169C229.866 402.596 230.411 402.023 230.95 401.444C231.105 401.282 231.254 401.114 231.402 400.952C231.995 400.305 232.581 399.651 233.147 398.991C233.194 398.937 233.242 398.876 233.289 398.823C233.814 398.209 234.326 397.583 234.832 396.956C234.973 396.781 235.108 396.612 235.243 396.437C235.782 395.756 236.308 395.076 236.82 394.382C236.84 394.355 236.86 394.328 236.874 394.301C237.366 393.634 237.844 392.953 238.309 392.273C238.37 392.178 238.437 392.091 238.504 392.003C238.605 391.855 238.7 391.707 238.801 391.558C238.949 391.343 239.091 391.12 239.232 390.905C239.428 390.602 239.623 390.298 239.818 389.988C239.953 389.773 240.095 389.557 240.229 389.335C240.425 389.018 240.614 388.701 240.802 388.385C240.93 388.176 241.052 387.967 241.173 387.758C241.375 387.407 241.57 387.064 241.766 386.713C241.867 386.531 241.975 386.349 242.076 386.161C242.339 385.682 242.595 385.204 242.844 384.719C242.871 384.665 242.905 384.604 242.932 384.55C243.208 384.011 243.477 383.465 243.74 382.92C243.821 382.751 243.902 382.576 243.983 382.401C244.158 382.023 244.333 381.646 244.502 381.269C244.596 381.053 244.69 380.837 244.778 380.622C244.886 380.366 245 380.116 245.108 379.86C245.135 379.793 245.162 379.719 245.189 379.651C245.472 378.971 245.742 378.283 245.998 377.596C246.294 376.808 246.564 376.019 246.82 375.231C246.901 374.975 246.975 374.719 247.056 374.469C247.224 373.93 247.386 373.398 247.541 372.859C247.622 372.562 247.702 372.266 247.783 371.969C247.918 371.471 248.046 370.972 248.161 370.467C248.235 370.163 248.302 369.86 248.37 369.557C248.41 369.368 248.464 369.18 248.498 368.991C248.552 368.742 248.592 368.486 248.639 368.236C248.727 367.798 248.808 367.36 248.882 366.929C248.956 366.511 249.016 366.1 249.077 365.682C249.145 365.244 249.205 364.813 249.259 364.375C249.313 363.957 249.36 363.546 249.401 363.135C249.448 362.704 249.488 362.266 249.522 361.835C249.556 361.424 249.583 361.006 249.603 360.595C249.63 360.163 249.65 359.732 249.663 359.301C249.663 359.112 249.684 358.924 249.69 358.735C249.704 358.283 249.704 357.832 249.704 357.38V297.286C249.704 297.926 249.684 298.566 249.663 299.207L249.677 299.254Z" fill="#FF6C30"/>
<path d="M60.0611 407.287V397.76C62.5363 398.868 65.0874 399.913 67.7081 400.9C74.5005 403.521 76.0135 409.528 72.6647 410.915C70.9809 411.611 68.5184 410.718 67.5878 410.377C65.0114 409.408 62.4983 408.376 60.0611 407.281M60.0611 395.728V386.575C66.7628 389.347 70.542 391.202 71.3987 392.139C73.9688 394.95 73.513 398.115 71.3987 398.969C69.7718 399.628 67.9044 398.944 67.2903 398.716C64.8152 397.779 62.4033 396.779 60.0548 395.735M67.0878 387.347C64.1822 386.132 60.2827 384.555 57.4277 383.232V408.212C60.7005 409.763 64.1125 411.212 67.6511 412.542C77.577 416.175 78.0771 409.541 76.6022 406.294C75.583 404.046 73.4244 401.97 71.1012 401.001V400.799C76.8807 401.495 77.1529 395.931 74.2473 392.19C72.038 389.341 68.8159 388.05 67.0878 387.353" fill="white"/>
<path d="M88.0156 399.824L85.0151 399.128V417.865C86.0089 418.106 87.0091 418.34 88.0156 418.561V399.824ZM86.528 392.835C84.553 392.405 83.9452 393.658 84.5973 394.709C85.6797 396.45 88.4271 396.494 88.7056 395.152C88.9209 394.12 87.7561 393.12 86.5343 392.835" fill="white"/>
<path d="M100.493 397.646C98.5814 397.361 98.5498 397.355 97.442 397.178V401.634C97.2141 401.596 96.9862 401.558 96.7647 401.52C95.7202 401.343 94.682 401.16 93.6438 400.97V402.945C94.6757 403.135 95.7138 403.318 96.7647 403.495C96.9925 403.533 97.2204 403.571 97.442 403.609V416.099C97.5623 420.98 103.354 421.822 106.146 421.467C105.956 420.859 105.703 420.049 105.513 419.441C103.665 419.517 100.563 419.638 100.5 416.416V404.078C102.228 404.325 103.956 404.546 105.678 404.743V402.768C103.95 402.571 102.228 402.35 100.5 402.103V397.646" fill="white"/>
<path d="M121.636 403.578C109.47 403.464 108.343 414.536 113.451 419.663C118.838 425.075 129.049 423.24 131.391 417.992C130.512 417.815 129.34 417.58 128.461 417.403C126.587 421.777 117.028 422.778 114.281 416.124C111.166 408.572 118.971 403.818 124.567 406.135C125.789 406.642 127.638 407.408 128.347 409.035C129.226 408.813 130.404 408.509 131.29 408.288C130.1 405.755 125.036 403.641 121.636 403.584" fill="white"/>
<path d="M148.767 419.321C140.437 420.359 139.253 411.719 142.589 407.42C146.242 402.717 155.68 402.147 156.503 409.433C156.978 413.637 154.427 418.53 148.767 419.315M148.767 401.995C137.018 403.749 134.967 415.34 141.101 419.783C148.204 424.93 161.042 418.391 159.352 408.174C158.586 403.565 154.534 401.198 148.767 401.995Z" fill="white"/>
<path d="M169.581 397.982C168.651 398.241 167.714 398.488 166.771 398.729C166.771 400.735 166.771 403.413 166.771 405.426V417.473C167.714 417.232 168.651 416.985 169.581 416.726C169.581 414.719 169.581 412.041 169.581 410.028V397.982ZM168.195 391.702C166.252 392.253 165.562 394.089 166.669 394.747C168.075 395.583 170.581 393.93 170.202 392.417C170.056 391.848 169.309 391.405 168.195 391.696" fill="white"/>
<path d="M187.066 391.721C182.217 393.81 180.812 396.975 180.35 398.013C180.35 396.982 180.337 395.614 180.331 394.582C179.476 394.886 178.615 395.19 177.748 395.481C177.748 397.488 177.748 400.166 177.748 402.179V414.225C178.647 413.921 179.539 413.611 180.426 413.295C180.426 404.42 180.689 399.499 181.217 398.532C183.3 394.722 188.883 392.221 190.852 394.222C191.618 395 191.637 396.184 191.649 396.754V408.712C192.472 408.332 193.283 407.946 194.093 407.553C194.093 398.391 193.93 393.447 193.605 392.721C193.188 391.778 191.706 389.784 187.06 391.734" fill="white"/>
<path d="M124.96 213.971C134.946 213.971 145.074 214.779 155.202 216.471C221.995 227.61 262.642 272.879 245.991 317.569C231.86 355.48 181.025 380.804 125.142 380.804C115.155 380.804 105.014 379.995 94.8857 378.304C28.1202 367.165 -12.5334 321.902 4.12425 277.219C18.2482 239.301 69.0906 213.977 124.96 213.971Z" fill="url(#paint0_linear_4710_11527)"/>
<path d="M212.864 215.001C212.851 215.305 212.837 215.609 212.824 215.913C212.81 216.204 212.79 216.494 212.763 216.785C212.736 217.089 212.709 217.4 212.675 217.704C212.648 217.994 212.614 218.285 212.574 218.575C212.533 218.879 212.493 219.19 212.445 219.494C212.398 219.785 212.358 220.082 212.303 220.373C212.249 220.677 212.189 220.987 212.128 221.291C212.067 221.602 212.006 221.913 211.932 222.224C211.885 222.44 211.837 222.65 211.783 222.866C211.702 223.217 211.608 223.568 211.513 223.92C211.459 224.129 211.405 224.339 211.344 224.548C211.236 224.927 211.121 225.305 211.006 225.683C210.952 225.866 210.898 226.041 210.837 226.224C210.655 226.778 210.466 227.339 210.256 227.893C209.993 228.589 209.709 229.278 209.412 229.967C209.27 230.298 209.121 230.629 208.972 230.953C208.763 231.406 208.554 231.852 208.331 232.298C208.168 232.622 208 232.947 207.831 233.271C207.601 233.71 207.358 234.149 207.108 234.589C206.925 234.906 206.75 235.217 206.56 235.534C206.297 235.974 206.02 236.413 205.743 236.845C205.554 237.143 205.364 237.44 205.168 237.737C204.723 238.406 204.263 239.068 203.783 239.717C203.77 239.737 203.75 239.757 203.736 239.778C203.256 240.42 202.763 241.055 202.25 241.683C202.094 241.872 201.932 242.068 201.777 242.257C201.371 242.744 200.959 243.224 200.54 243.696C200.385 243.872 200.229 244.048 200.067 244.224C199.5 244.852 198.919 245.467 198.317 246.075C198.25 246.142 198.175 246.217 198.101 246.284C197.561 246.825 197.013 247.359 196.446 247.886C196.256 248.061 196.061 248.244 195.865 248.419C195.378 248.865 194.878 249.304 194.371 249.737C194.196 249.886 194.02 250.041 193.844 250.19C193.182 250.744 192.513 251.291 191.824 251.831C191.784 251.865 191.743 251.899 191.703 251.926C190.98 252.494 190.236 253.041 189.48 253.588C189.243 253.757 189 253.926 188.763 254.095C188.236 254.467 187.703 254.838 187.155 255.203C186.865 255.392 186.574 255.581 186.284 255.771C185.763 256.108 185.243 256.439 184.709 256.771C184.412 256.953 184.115 257.135 183.811 257.318C183.236 257.662 182.655 258 182.074 258.331C181.818 258.48 181.561 258.629 181.297 258.777C180.453 259.25 179.595 259.716 178.716 260.162C178.649 260.196 178.574 260.23 178.507 260.264C177.696 260.683 176.872 261.088 176.041 261.48C175.791 261.602 175.534 261.716 175.277 261.831C174.628 262.135 173.98 262.433 173.318 262.723C173.02 262.852 172.73 262.98 172.433 263.108C171.737 263.406 171.034 263.696 170.325 263.98C170.102 264.068 169.879 264.162 169.649 264.257C168.723 264.622 167.791 264.98 166.845 265.318C166.629 265.399 166.412 265.466 166.196 265.547C165.453 265.811 164.703 266.068 163.946 266.318C163.629 266.419 163.318 266.527 163 266.629C162.291 266.858 161.581 267.074 160.865 267.291C160.575 267.378 160.291 267.466 160 267.547C159.014 267.838 158.021 268.115 157.014 268.378C156.75 268.446 156.48 268.507 156.21 268.574C155.392 268.784 154.568 268.993 153.737 269.183C153.332 269.277 152.913 269.365 152.5 269.453C151.805 269.608 151.115 269.764 150.413 269.905C149.953 270 149.487 270.081 149.021 270.169C148.359 270.297 147.703 270.419 147.041 270.534C146.555 270.622 146.061 270.696 145.568 270.777C144.906 270.885 144.244 270.993 143.575 271.088C143.224 271.142 142.872 271.182 142.521 271.237C141.778 271.338 141.028 271.432 140.271 271.52C139.899 271.561 139.528 271.608 139.163 271.649C138.345 271.737 137.521 271.818 136.69 271.892C136.413 271.919 136.143 271.946 135.866 271.966C134.778 272.054 133.69 272.135 132.595 272.196C131.764 272.243 130.927 272.277 130.095 272.304C129.683 272.318 129.271 272.345 128.852 272.358C127.602 272.392 126.346 272.412 125.082 272.412C124.116 272.412 123.15 272.399 122.177 272.378C121.765 272.372 121.346 272.351 120.933 272.338C120.461 272.324 119.994 272.311 119.521 272.291C119.096 272.27 118.67 272.25 118.244 272.223C117.778 272.196 117.305 272.176 116.839 272.149C116.413 272.122 115.981 272.088 115.555 272.054C115.089 272.02 114.616 271.987 114.15 271.946C113.717 271.912 113.292 271.865 112.859 271.824C112.393 271.777 111.927 271.737 111.461 271.689C111.157 271.655 110.859 271.622 110.555 271.588C109.704 271.493 108.859 271.392 108.008 271.277C107.69 271.237 107.38 271.196 107.062 271.149C105.961 270.993 104.866 270.831 103.765 270.649C102.366 270.412 100.981 270.155 99.6163 269.885C99.4744 269.858 99.3393 269.831 99.2042 269.797C98.1907 269.588 97.1839 269.372 96.1839 269.142C96.0623 269.115 95.9475 269.088 95.8258 269.061C94.7988 268.818 93.7853 268.568 92.7853 268.304C92.7178 268.284 92.6502 268.27 92.5826 268.25C91.5421 267.973 90.5151 267.689 89.5016 267.392C89.4881 267.392 89.4746 267.385 89.4611 267.378C88.4476 267.081 87.4544 266.77 86.4611 266.446C86.3801 266.419 86.2922 266.392 86.2111 266.365C85.3868 266.095 84.5693 265.811 83.7652 265.527C83.6031 265.473 83.4477 265.412 83.2923 265.358C82.495 265.074 81.7112 264.777 80.9342 264.48C80.8058 264.433 80.6775 264.379 80.5423 264.325C79.7721 264.02 79.0018 263.71 78.2518 263.392C78.2045 263.372 78.1572 263.352 78.1099 263.331C77.3329 263 76.5694 262.662 75.8059 262.325C75.664 262.264 75.5221 262.196 75.3803 262.135C74.6438 261.798 73.9208 261.453 73.2046 261.102C73.0695 261.034 72.9411 260.973 72.806 260.906C72.0627 260.541 71.333 260.169 70.6101 259.784C70.5965 259.777 70.583 259.771 70.5695 259.764C69.8533 259.385 69.1574 259 68.4615 258.608C68.3398 258.541 68.2182 258.473 68.1034 258.406C67.4344 258.021 66.7723 257.635 66.1169 257.237C65.9885 257.162 65.8601 257.081 65.7385 257C65.0764 256.595 64.421 256.183 63.7791 255.764C63.725 255.73 63.671 255.69 63.6102 255.656C62.9886 255.25 62.3872 254.838 61.7859 254.419C61.6913 254.352 61.5967 254.291 61.5021 254.223C60.894 253.798 60.2994 253.365 59.7116 252.926C59.5967 252.838 59.4751 252.75 59.3603 252.663C58.7724 252.217 58.1914 251.771 57.6306 251.318C57.5562 251.257 57.4819 251.196 57.4076 251.136C56.8603 250.696 56.3265 250.25 55.7995 249.798C55.7387 249.744 55.6711 249.69 55.6103 249.636C55.0698 249.169 54.536 248.69 54.0158 248.21C53.9144 248.115 53.8131 248.021 53.705 247.926C53.1915 247.446 52.6915 246.967 52.205 246.48C52.1239 246.399 52.0496 246.318 51.9685 246.244C51.4888 245.757 51.0091 245.271 50.5496 244.778C50.5158 244.744 50.4888 244.71 50.455 244.676C49.982 244.169 49.5226 243.649 49.0699 243.136C48.9821 243.034 48.901 242.94 48.8132 242.838C48.3807 242.332 47.9551 241.818 47.5429 241.305C47.4686 241.21 47.3943 241.115 47.3199 241.021C46.8943 240.48 46.4821 239.94 46.0835 239.393C46.0835 239.393 46.0767 239.379 46.07 239.372C45.6713 238.832 45.2929 238.284 44.9213 237.73C44.8538 237.636 44.793 237.534 44.7254 237.44C44.3673 236.906 44.0295 236.366 43.6984 235.825C43.6308 235.717 43.57 235.609 43.5092 235.507C43.1781 234.953 42.847 234.393 42.543 233.832C42.516 233.784 42.4957 233.744 42.4687 233.697C42.1714 233.149 41.8876 232.602 41.6173 232.055C41.5768 231.967 41.5295 231.879 41.4822 231.791C41.2119 231.23 40.9484 230.67 40.7052 230.102C40.6579 229.987 40.6038 229.872 40.5565 229.764C40.3133 229.19 40.0768 228.616 39.8606 228.041C39.8336 227.967 39.8066 227.893 39.7795 227.818C39.5701 227.258 39.3741 226.704 39.1917 226.136C39.1714 226.062 39.1444 225.994 39.1174 225.92C38.9282 225.339 38.7593 224.751 38.5971 224.156C38.5633 224.041 38.5363 223.92 38.5025 223.805C38.3471 223.217 38.2052 222.629 38.0769 222.041C38.0566 221.947 38.0363 221.852 38.016 221.758C37.8944 221.177 37.7863 220.589 37.685 220.001C37.6782 219.954 37.6715 219.913 37.6647 219.866C37.5701 219.258 37.489 218.65 37.4215 218.042C37.4079 217.927 37.3944 217.812 37.3809 217.697C37.3201 217.102 37.2728 216.501 37.239 215.9C37.239 215.792 37.2255 215.683 37.2255 215.569C37.1985 214.94 37.1782 214.312 37.1782 213.683V263.892C37.1782 264.52 37.1985 265.149 37.2255 265.777C37.2255 265.885 37.2323 265.993 37.239 266.102C37.2728 266.703 37.3201 267.297 37.3809 267.899C37.3944 268.014 37.4079 268.128 37.4215 268.243C37.489 268.851 37.5701 269.466 37.6647 270.068C37.6715 270.115 37.6782 270.155 37.685 270.203C37.7796 270.791 37.8944 271.372 38.016 271.959C38.0363 272.054 38.0566 272.149 38.0769 272.243C38.2052 272.831 38.3471 273.419 38.5025 274.007C38.5363 274.122 38.5633 274.243 38.5971 274.358C38.7593 274.946 38.9282 275.534 39.1174 276.122C39.1376 276.196 39.1647 276.263 39.1917 276.338C39.3741 276.899 39.5701 277.459 39.7795 278.02C39.8066 278.095 39.8336 278.169 39.8606 278.243C40.0768 278.824 40.3133 279.399 40.5565 279.966C40.6038 280.081 40.6511 280.196 40.7052 280.304C40.9552 280.872 41.2119 281.432 41.4822 281.993C41.5227 282.081 41.57 282.169 41.6106 282.257C41.8808 282.811 42.1646 283.358 42.4619 283.898C42.4889 283.946 42.5092 283.986 42.5362 284.034C42.847 284.594 43.1714 285.155 43.5024 285.709C43.5632 285.817 43.6308 285.919 43.6916 286.027C44.0227 286.567 44.3673 287.108 44.7186 287.642C44.7794 287.736 44.847 287.831 44.9146 287.932C45.2862 288.486 45.6646 289.034 46.0632 289.574C46.0632 289.574 46.07 289.588 46.0767 289.588C46.4754 290.135 46.8943 290.675 47.3132 291.216C47.3875 291.311 47.4618 291.405 47.5361 291.5C47.9483 292.013 48.374 292.527 48.8064 293.033C48.8942 293.135 48.9753 293.229 49.0631 293.331C49.5158 293.851 49.9685 294.365 50.4415 294.871C50.4753 294.905 50.5023 294.939 50.5361 294.973C50.9955 295.466 51.4685 295.952 51.955 296.439C52.0361 296.52 52.1104 296.601 52.1915 296.682C52.678 297.169 53.1847 297.648 53.6914 298.128C53.7928 298.223 53.8941 298.317 54.0022 298.412C54.5225 298.891 55.0495 299.364 55.5968 299.837C55.6644 299.891 55.7252 299.945 55.7928 300.006C56.3198 300.459 56.8536 300.905 57.3941 301.344C57.4684 301.405 57.5427 301.466 57.6171 301.527C58.1846 301.979 58.7589 302.425 59.3468 302.871C59.4616 302.959 59.5832 303.047 59.6981 303.135C60.2859 303.574 60.8805 304.006 61.4954 304.432C61.59 304.499 61.6845 304.56 61.7724 304.628C62.3737 305.047 62.9818 305.459 63.6034 305.864C63.6575 305.898 63.7115 305.939 63.7723 305.972C64.4142 306.391 65.0696 306.803 65.7318 307.209C65.8601 307.29 65.9885 307.364 66.1101 307.445C66.7655 307.844 67.4277 308.229 68.0966 308.614C68.2182 308.682 68.3331 308.749 68.4547 308.817C69.1506 309.209 69.8466 309.594 70.5628 309.972C70.5763 309.979 70.5898 309.986 70.6033 309.993C71.3263 310.371 72.056 310.743 72.7992 311.114C72.9343 311.182 73.0627 311.243 73.1979 311.31C73.9141 311.662 74.637 312.006 75.3735 312.344C75.5154 312.411 75.6573 312.472 75.7992 312.533C76.5559 312.878 77.3262 313.216 78.1032 313.547C78.1505 313.567 78.191 313.58 78.2383 313.601C78.995 313.918 79.7653 314.229 80.5423 314.533C80.6707 314.58 80.7991 314.634 80.9274 314.682C81.7045 314.986 82.495 315.276 83.2923 315.567C83.4477 315.621 83.6098 315.682 83.7652 315.736C84.576 316.026 85.3936 316.303 86.2179 316.574C86.2449 316.58 86.2719 316.594 86.2922 316.601C86.3463 316.621 86.4003 316.634 86.4544 316.655C87.4409 316.979 88.4408 317.29 89.4543 317.587C89.4678 317.587 89.4813 317.594 89.4949 317.601C90.5084 317.898 91.5354 318.188 92.5759 318.459C92.6435 318.479 92.711 318.492 92.7786 318.513C93.7853 318.776 94.7988 319.026 95.8258 319.269C95.9407 319.297 96.0556 319.324 96.1772 319.351C97.1772 319.58 98.1839 319.803 99.1974 320.006C99.2852 320.026 99.3663 320.046 99.4541 320.06C99.5014 320.074 99.5555 320.08 99.6028 320.087C100.968 320.364 102.353 320.621 103.758 320.857C104.859 321.04 105.954 321.202 107.055 321.357C107.373 321.405 107.684 321.445 108.001 321.486C108.853 321.601 109.704 321.702 110.549 321.796C110.738 321.817 110.927 321.844 111.116 321.864C111.224 321.878 111.332 321.884 111.447 321.898C111.92 321.945 112.386 321.992 112.853 322.033C113.278 322.073 113.711 322.114 114.136 322.155C114.603 322.195 115.075 322.229 115.542 322.263C115.967 322.296 116.4 322.33 116.825 322.357C117.292 322.384 117.765 322.411 118.231 322.432C118.657 322.452 119.082 322.479 119.508 322.499C119.981 322.519 120.447 322.533 120.92 322.546C121.265 322.56 121.609 322.573 121.947 322.58C122.015 322.58 122.089 322.58 122.156 322.58C123.123 322.601 124.096 322.614 125.062 322.614C126.325 322.614 127.575 322.594 128.832 322.56C129.244 322.546 129.656 322.526 130.075 322.506C130.913 322.472 131.744 322.445 132.575 322.398C132.629 322.398 132.683 322.398 132.744 322.391C133.785 322.33 134.818 322.256 135.845 322.168C136.122 322.148 136.393 322.114 136.67 322.094C137.501 322.019 138.325 321.938 139.143 321.851C139.514 321.81 139.879 321.769 140.251 321.722C141.007 321.634 141.757 321.54 142.501 321.432C142.852 321.384 143.203 321.337 143.555 321.283C143.73 321.256 143.906 321.236 144.082 321.209C144.575 321.134 145.061 321.046 145.548 320.972C146.041 320.891 146.534 320.817 147.021 320.729C147.683 320.614 148.345 320.486 149.001 320.364C149.467 320.276 149.933 320.195 150.392 320.101C151.095 319.959 151.784 319.803 152.48 319.648C152.892 319.56 153.305 319.472 153.717 319.378C154.548 319.182 155.365 318.979 156.19 318.769C156.453 318.702 156.723 318.641 156.994 318.574C157.007 318.574 157.027 318.567 157.041 318.56C158.027 318.303 159.007 318.026 159.98 317.742C160.271 317.655 160.561 317.567 160.845 317.486C161.561 317.27 162.271 317.053 162.98 316.824C163.298 316.722 163.615 316.621 163.926 316.513C164.683 316.263 165.433 316.006 166.176 315.736C166.392 315.661 166.608 315.587 166.825 315.506C167.771 315.161 168.71 314.81 169.635 314.445C169.858 314.357 170.081 314.263 170.304 314.175C171.014 313.891 171.716 313.594 172.419 313.297C172.716 313.168 173.007 313.04 173.304 312.911C173.966 312.621 174.622 312.324 175.27 312.02C175.52 311.905 175.777 311.79 176.027 311.668C176.135 311.621 176.243 311.567 176.351 311.52C177.081 311.168 177.797 310.81 178.507 310.445C178.574 310.412 178.642 310.378 178.703 310.351C179.574 309.898 180.432 309.439 181.284 308.966C181.547 308.817 181.797 308.668 182.061 308.52C182.649 308.182 183.23 307.844 183.804 307.499C184.101 307.317 184.399 307.135 184.696 306.952C185.223 306.621 185.75 306.29 186.27 305.952C186.561 305.763 186.851 305.574 187.142 305.385C187.682 305.02 188.223 304.648 188.75 304.277C188.986 304.108 189.23 303.945 189.466 303.77C190.223 303.222 190.966 302.675 191.689 302.108C191.73 302.074 191.77 302.04 191.811 302.013C192.412 301.54 193.007 301.067 193.588 300.581C193.669 300.513 193.75 300.439 193.831 300.371C194.007 300.223 194.182 300.067 194.358 299.918C194.865 299.486 195.365 299.04 195.851 298.601C196.047 298.425 196.236 298.25 196.432 298.067C197 297.54 197.547 297.006 198.088 296.466C198.155 296.398 198.229 296.331 198.297 296.256C198.898 295.648 199.479 295.027 200.047 294.405C200.209 294.229 200.358 294.054 200.513 293.878C200.932 293.405 201.351 292.925 201.75 292.439C201.905 292.25 202.067 292.06 202.223 291.865C202.729 291.236 203.229 290.601 203.709 289.959C203.723 289.939 203.743 289.919 203.756 289.898C204.162 289.344 204.56 288.784 204.946 288.223C205.013 288.121 205.074 288.02 205.141 287.919C205.337 287.621 205.527 287.324 205.716 287.027C205.993 286.588 206.27 286.155 206.533 285.709C206.723 285.398 206.898 285.081 207.081 284.77C207.331 284.331 207.567 283.892 207.804 283.453C207.972 283.128 208.141 282.804 208.304 282.48C208.527 282.034 208.736 281.588 208.945 281.135C209.094 280.804 209.243 280.48 209.385 280.149C209.452 279.986 209.533 279.831 209.601 279.676C209.824 279.149 210.033 278.615 210.229 278.074C210.439 277.52 210.628 276.959 210.81 276.405C210.871 276.223 210.918 276.047 210.979 275.865C211.101 275.486 211.216 275.108 211.324 274.73C211.385 274.52 211.439 274.311 211.493 274.101C211.587 273.75 211.675 273.399 211.763 273.041C211.817 272.824 211.864 272.615 211.912 272.399C211.939 272.264 211.979 272.128 212.006 271.993C212.047 271.818 212.074 271.642 212.108 271.46C212.168 271.155 212.229 270.845 212.283 270.541C212.331 270.25 212.378 269.953 212.425 269.662C212.472 269.358 212.513 269.047 212.553 268.743C212.587 268.453 212.621 268.162 212.655 267.865C212.689 267.561 212.716 267.25 212.743 266.946C212.763 266.656 212.783 266.365 212.803 266.074C212.824 265.77 212.837 265.466 212.844 265.162C212.844 265.027 212.858 264.892 212.864 264.764C212.871 264.446 212.878 264.129 212.878 263.811V213.602C212.878 214.055 212.864 214.508 212.844 214.96L212.864 215.001Z" fill="#FFBA1A"/>
<path d="M124.989 154.914C132.022 154.914 139.164 155.482 146.299 156.671C193.359 164.522 222 196.414 210.264 227.9C200.311 254.615 164.495 272.453 125.117 272.453C118.083 272.453 110.935 271.885 103.806 270.696C56.76 262.845 28.1186 230.954 39.8549 199.468C49.8074 172.752 85.6243 154.908 124.989 154.908V154.914Z" fill="url(#paint1_linear_4710_11527)"/>
<g opacity="0.8">
<path d="M88.7721 175.509L111.86 202.272C113.569 204.251 113.569 206.616 111.86 208.589C110.15 210.562 107.089 211.751 103.677 211.751H57.4956L88.7788 175.502L88.7721 175.509Z" fill="white"/>
<path d="M156.338 173.563L133.237 200.332C131.528 202.312 128.467 203.495 125.062 203.495C121.656 203.495 118.589 202.312 116.886 200.332L93.792 173.563H156.345H156.338Z" fill="white"/>
<path d="M161.345 175.508L192.622 211.758H146.44C143.021 211.758 139.96 210.575 138.258 208.596C136.548 206.616 136.548 204.251 138.258 202.278L161.345 175.515V175.508Z" fill="white"/>
<path d="M125.049 223.886C128.461 223.886 131.521 225.068 133.224 227.048L156.325 253.811H93.7788L116.866 227.048C118.576 225.068 121.636 223.886 125.042 223.886H125.049Z" fill="white"/>
<path d="M192.622 215.623L161.345 251.872L138.258 225.109C136.548 223.129 136.548 220.771 138.258 218.785C139.967 216.805 143.028 215.623 146.44 215.623H192.622Z" fill="white"/>
<path d="M103.684 215.629C107.103 215.629 110.157 216.812 111.866 218.791C113.576 220.771 113.576 223.136 111.866 225.116L88.7788 251.879L57.4956 215.629H103.677H103.684Z" fill="white"/>
</g>
<path d="M85.6046 281.203C74.6588 277.649 75.0305 288.27 77.5912 293.392C81.7938 301.79 92.9761 303.344 94.8882 297.452C94.9423 297.277 94.9828 297.114 95.0098 297.006C94.2328 296.817 93.4558 296.621 92.6923 296.419C91.2937 301.02 83.0236 300.047 79.4628 293.54C77.1385 289.29 76.848 280.351 85.0776 282.703C88.868 283.784 91.9288 286.5 92.6923 289.452C93.4558 289.655 94.2328 289.851 95.0098 290.04C94.172 286.297 90.4829 282.824 85.6046 281.203Z" fill="white"/>
<path d="M103.305 290.554C102.522 290.419 101.745 290.277 100.968 290.135V304.189C101.738 304.337 102.522 304.479 103.305 304.608V290.554ZM102.15 285.358C100.691 285.115 100.069 286.04 100.691 286.885C100.907 287.176 101.413 287.682 102.407 287.777C102.799 287.817 103.772 287.628 103.832 287.189C103.866 286.932 103.873 286.378 103.758 286.263C103.508 285.986 102.961 285.507 102.15 285.358Z" fill="white"/>
<path d="M112.61 288.446C111.847 288.372 111.083 288.29 110.327 288.203V291.547C109.394 291.439 108.462 291.324 107.529 291.196V292.676C108.462 292.804 109.394 292.919 110.327 293.027V302.385C110.414 306.047 114.752 306.473 116.84 306.108C116.698 305.655 116.509 305.06 116.367 304.608C114.982 304.729 112.664 304.932 112.617 302.513V293.263C113.908 293.385 115.205 293.493 116.489 293.581V292.101C115.198 292.013 113.908 291.912 112.617 291.784V288.439" fill="white"/>
<path d="M128.961 292.142C125.056 292.297 124.319 293.615 123.786 294.567C123.732 294.567 123.678 294.567 123.624 294.567V292.385C122.887 292.378 122.157 292.365 121.421 292.344V306.398C122.178 306.419 122.934 306.432 123.684 306.446V297.432C123.745 294.175 127.576 293.5 130.137 293.844V292.135C129.846 292.135 129.441 292.128 128.961 292.142Z" fill="white"/>
<path d="M135.69 298.034C136.143 293.027 143.494 290.959 146.149 294.027C147.007 295.02 147.122 296.142 147.163 296.567C143.406 297.223 139.575 297.716 135.69 298.034ZM141.595 291.149C132.886 292.365 131.258 300.838 135.71 304.29C139.507 307.229 146.926 305.513 148.947 301.223C148.318 301.182 147.48 301.128 146.852 301.081C144.933 304.851 137.426 305.527 135.947 301.067C135.724 300.392 135.697 299.79 135.683 299.5C143.332 298.703 143.784 298.655 149.379 297.628V296.885C149.305 290.628 143.399 290.912 141.595 291.149Z" fill="white"/>
<path d="M159.988 300.378C156.407 301.385 155.515 299.196 156.393 297.628C156.609 297.243 157.191 296.209 160.711 294.831C161.792 294.405 164.38 293.344 165.028 292.601V294.601C164.994 296.689 163.4 299.385 159.988 300.378ZM161.042 287.027C159.177 287.601 155.839 289.007 154.454 291.973C155.062 291.986 155.88 292.007 156.488 292.02C157.893 289.115 163.913 286.736 164.88 289.372C165.015 289.75 165.021 290.122 165.028 290.304V290.628C164.967 291.655 163.873 292.094 160.636 293.399C157.691 294.588 152.765 296.574 154.15 300.439C155.164 303.27 160.19 302.675 163.062 300.175C163.346 299.925 164.332 299.013 164.907 297.804C164.954 297.79 165.001 297.77 165.055 297.757V299.986C165.717 299.763 166.373 299.527 167.021 299.29V289.743C166.974 286.02 163.744 286.209 161.049 287.027" fill="white"/>
<path d="M175.459 4.01467C175.391 4.11602 175.317 4.21737 175.242 4.31871C175.1 4.52141 174.952 4.7241 174.796 4.9268C174.709 5.04166 174.614 5.15652 174.526 5.26462C174.371 5.4538 174.215 5.63623 174.053 5.82541C173.952 5.93351 173.857 6.04837 173.749 6.15647C173.573 6.34565 173.391 6.52808 173.202 6.7105C173.101 6.81185 173.006 6.90644 172.905 7.00779C172.675 7.224 172.432 7.4402 172.182 7.65641C172.114 7.71046 172.06 7.77127 171.992 7.82532C171.655 8.10909 171.303 8.37935 170.945 8.64961C170.844 8.72393 170.736 8.79825 170.634 8.87257C170.364 9.06851 170.087 9.25769 169.803 9.44012C169.675 9.52795 169.54 9.60903 169.411 9.69011C169.121 9.87253 168.817 10.0482 168.513 10.2239C168.398 10.2914 168.283 10.359 168.168 10.4198C167.743 10.6495 167.31 10.8792 166.864 11.0887C166.756 11.1427 166.641 11.19 166.533 11.2373C166.229 11.3792 165.925 11.5211 165.608 11.6495C165.445 11.717 165.283 11.7779 165.121 11.8454C164.844 11.9535 164.574 12.0684 164.29 12.1697C164.108 12.2373 163.925 12.2981 163.736 12.3657C163.466 12.4603 163.189 12.5548 162.912 12.6427C162.716 12.7035 162.52 12.7643 162.324 12.8251C162.047 12.9062 161.763 12.9873 161.473 13.0683C161.162 13.1562 160.851 13.2373 160.527 13.3183C159.865 13.4805 159.189 13.6156 158.52 13.744C158.324 13.7778 158.128 13.8116 157.932 13.8453C157.432 13.9332 156.926 14.0007 156.426 14.0683C156.23 14.0953 156.034 14.1223 155.838 14.1426C155.162 14.2169 154.493 14.2777 153.824 14.3183C153.068 14.3656 152.318 14.3859 151.561 14.3859C151.122 14.3859 150.676 14.3723 150.237 14.3588C149.973 14.3521 149.716 14.3386 149.46 14.325C149.169 14.3115 148.879 14.2913 148.595 14.271C148.338 14.2507 148.081 14.2305 147.825 14.2034C147.548 14.1764 147.277 14.1494 147.007 14.1156C146.703 14.0818 146.406 14.0413 146.108 14.0007C145.852 13.9602 145.588 13.9264 145.331 13.8791C145.034 13.8318 144.737 13.7778 144.446 13.7237C144.21 13.6764 143.973 13.6291 143.737 13.5818C143.277 13.4872 142.825 13.3791 142.372 13.2643C142.217 13.2237 142.061 13.19 141.906 13.1494C141.311 12.994 140.724 12.8184 140.149 12.6359C139.683 12.4873 139.23 12.3251 138.778 12.1562C138.778 12.1562 138.771 12.1562 138.764 12.1562V52.3234C139.197 52.4856 139.636 52.641 140.082 52.7829C140.102 52.7896 140.129 52.7964 140.156 52.8031C140.73 52.9923 141.318 53.1612 141.913 53.3166C142.068 53.3572 142.223 53.3909 142.379 53.4315C142.832 53.5463 143.284 53.6477 143.744 53.749C143.838 53.7693 143.926 53.7963 144.021 53.8098C144.163 53.8369 144.311 53.8571 144.453 53.8842C144.75 53.9382 145.041 53.9923 145.338 54.0396C145.595 54.0801 145.852 54.1206 146.115 54.1612C146.412 54.2017 146.717 54.2423 147.014 54.2828C147.149 54.2963 147.291 54.3233 147.426 54.3368C147.561 54.3504 147.696 54.3571 147.831 54.3706C148.088 54.3977 148.345 54.4179 148.602 54.4382C148.892 54.4585 149.183 54.4787 149.473 54.4922C149.73 54.5058 149.987 54.5193 150.25 54.526C150.385 54.526 150.514 54.5395 150.649 54.5463C150.96 54.5531 151.264 54.5598 151.574 54.5598C152.324 54.5598 153.081 54.5395 153.831 54.4922C153.838 54.4922 153.845 54.4922 153.851 54.4922C154.513 54.4517 155.182 54.3909 155.851 54.3166C156.047 54.2963 156.243 54.2693 156.439 54.2423C156.703 54.2085 156.966 54.1814 157.236 54.1409C157.473 54.1071 157.709 54.0598 157.946 54.0193C158.142 53.9855 158.338 53.9517 158.534 53.9179C159.202 53.7963 159.871 53.6544 160.54 53.4923C160.743 53.445 160.946 53.3909 161.148 53.3369C161.263 53.3099 161.371 53.2693 161.486 53.2423C161.77 53.1612 162.054 53.0869 162.331 52.9991C162.527 52.9383 162.729 52.8774 162.925 52.8166C163.202 52.7288 163.479 52.6342 163.75 52.5396C163.932 52.4721 164.121 52.4113 164.304 52.3437C164.587 52.2423 164.858 52.1275 165.135 52.0194C165.297 51.9518 165.459 51.891 165.621 51.8234C165.932 51.6883 166.236 51.5532 166.54 51.4113C166.641 51.364 166.743 51.3235 166.837 51.2762C166.851 51.2762 166.864 51.2626 166.871 51.2559C167.317 51.0397 167.749 50.8167 168.175 50.587C168.297 50.5194 168.405 50.4519 168.526 50.3843C168.83 50.2086 169.128 50.033 169.425 49.8505C169.56 49.7695 169.689 49.6816 169.824 49.6006C170.107 49.4181 170.384 49.229 170.655 49.033C170.756 48.9587 170.864 48.8844 170.972 48.8101C171.337 48.5398 171.688 48.2695 172.019 47.9925C172.026 47.9858 172.04 47.979 172.047 47.9723C172.107 47.925 172.155 47.8709 172.215 47.8236C172.465 47.6142 172.702 47.398 172.938 47.1817C173.04 47.0872 173.141 46.9858 173.242 46.8845C173.432 46.702 173.614 46.5196 173.79 46.3304C173.891 46.2223 173.992 46.1075 174.094 45.9994C174.256 45.8169 174.418 45.6278 174.573 45.4386C174.668 45.3237 174.756 45.2156 174.844 45.1007C174.999 44.8981 175.148 44.6954 175.29 44.4927C175.344 44.4183 175.404 44.344 175.459 44.2629C175.479 44.2359 175.492 44.2089 175.506 44.1819C175.715 43.8711 175.911 43.5535 176.094 43.2292V3.06201C175.911 3.37957 175.715 3.69712 175.506 4.01467H175.459Z" fill="url(#paint2_linear_4710_11527)"/>
<path d="M179.039 51.8505C179.039 51.9046 179.026 51.9586 179.026 52.0194C178.985 52.5329 178.924 53.0397 178.85 53.5464C178.837 53.641 178.823 53.7356 178.81 53.8369C178.728 54.3639 178.627 54.8842 178.512 55.3977C178.485 55.5193 178.458 55.6409 178.424 55.7625C178.316 56.2287 178.195 56.6882 178.053 57.1476C178.033 57.2287 178.012 57.303 177.985 57.3841C177.823 57.8976 177.647 58.4111 177.458 58.9178C177.411 59.0394 177.364 59.161 177.316 59.2759C177.161 59.6745 176.992 60.0664 176.816 60.4583C176.749 60.6137 176.681 60.7691 176.607 60.9177C176.364 61.4312 176.107 61.9379 175.837 62.4447C175.81 62.4852 175.789 62.5325 175.762 62.5731C175.506 63.0325 175.235 63.4919 174.958 63.9379C174.864 64.0933 174.762 64.2487 174.661 64.4041C174.418 64.7757 174.168 65.1473 173.911 65.5121C173.844 65.6135 173.769 65.7148 173.702 65.8094C173.371 66.2688 173.019 66.7215 172.661 67.1675C172.587 67.2553 172.513 67.3431 172.438 67.4377C172.114 67.8296 171.776 68.2215 171.431 68.6066C171.357 68.6877 171.29 68.7687 171.215 68.8498C170.817 69.2822 170.411 69.7079 169.986 70.1335C169.891 70.2281 169.796 70.3227 169.702 70.4173C169.317 70.7957 168.918 71.1673 168.513 71.5389C168.452 71.5929 168.391 71.6537 168.323 71.7146C167.871 72.1199 167.405 72.5118 166.932 72.8969C166.797 73.005 166.661 73.1131 166.526 73.2212C166.128 73.5388 165.722 73.8496 165.31 74.1604C165.195 74.2482 165.08 74.3361 164.959 74.4239C164.445 74.8023 163.918 75.1739 163.378 75.532C163.256 75.613 163.135 75.6874 163.02 75.7684C162.574 76.059 162.128 76.3495 161.668 76.6333C161.513 76.7278 161.358 76.8292 161.195 76.9238C160.621 77.2684 160.04 77.6062 159.446 77.9373C159.425 77.944 159.412 77.9575 159.391 77.9643C158.81 78.2818 158.223 78.5926 157.621 78.8967C157.452 78.9845 157.277 79.0723 157.101 79.1534C156.756 79.3223 156.405 79.4845 156.061 79.6466C155.479 79.9169 154.892 80.1872 154.29 80.4439C154.02 80.5588 153.757 80.6804 153.48 80.7885C152.703 81.1128 151.919 81.4168 151.115 81.7141C151.027 81.7479 150.946 81.7817 150.858 81.8155C149.973 82.1398 149.068 82.4438 148.149 82.7344C147.878 82.8222 147.601 82.8965 147.331 82.9843C146.662 83.187 145.993 83.383 145.311 83.5654C144.899 83.6803 144.487 83.7884 144.068 83.8965C143.825 83.9573 143.575 84.0181 143.331 84.0789C142.723 84.2275 142.115 84.3627 141.494 84.4978C141.338 84.5316 141.19 84.5653 141.034 84.5991C140.271 84.7545 139.494 84.9032 138.71 85.0383C138.5 85.0721 138.291 85.1059 138.082 85.1397C137.467 85.241 136.852 85.3356 136.237 85.4234C136.048 85.4504 135.865 85.4775 135.676 85.4977C134.899 85.5991 134.116 85.6937 133.332 85.7748C133.251 85.7815 133.176 85.7883 133.095 85.795C132.366 85.8694 131.636 85.9302 130.899 85.9842C130.71 85.9977 130.521 86.0112 130.332 86.0247C129.731 86.0653 129.122 86.0923 128.514 86.1193C128.231 86.1329 127.947 86.1464 127.663 86.1599C126.798 86.1869 125.927 86.2072 125.048 86.2072C124.271 86.2072 123.501 86.1869 122.731 86.1666C121.866 86.1396 121.008 86.1058 120.157 86.0518C119.981 86.0383 119.799 86.0383 119.616 86.0247C118.589 85.9572 117.576 85.8694 116.569 85.7612C115.812 85.6802 115.062 85.5923 114.319 85.491C114.15 85.4707 113.988 85.4437 113.819 85.4167C113.17 85.3221 112.522 85.2275 111.88 85.1194C111.711 85.0924 111.535 85.0653 111.36 85.0315C110.61 84.9032 109.873 84.7613 109.137 84.6059C108.907 84.5586 108.677 84.5045 108.448 84.4572C107.894 84.3356 107.346 84.214 106.806 84.0856C106.529 84.0181 106.259 83.9505 105.988 83.8829C105.488 83.7546 104.988 83.6262 104.488 83.4843C104.225 83.41 103.955 83.3357 103.691 83.2614C103.157 83.106 102.624 82.9438 102.097 82.7816C101.894 82.7141 101.684 82.6533 101.482 82.5925C100.793 82.3695 100.103 82.133 99.4278 81.8898C99.2656 81.829 99.1102 81.7682 98.9481 81.7141C98.4076 81.5114 97.8738 81.3087 97.3468 81.0993C97.1644 81.025 96.9752 80.9506 96.7928 80.8763C96.1306 80.6061 95.482 80.329 94.8402 80.0385C94.8131 80.025 94.7861 80.0115 94.7591 79.998C94.1442 79.721 93.5362 79.4304 92.9416 79.1332C92.7659 79.0453 92.5903 78.9575 92.4213 78.8697C91.9281 78.6197 91.4349 78.3629 90.9552 78.0994C90.8268 78.0319 90.6917 77.9575 90.5633 77.89C89.9755 77.5657 89.3944 77.2278 88.8269 76.8832C88.6918 76.8022 88.5634 76.7211 88.435 76.64C87.9823 76.363 87.5432 76.0792 87.104 75.7887C86.9486 75.6874 86.7932 75.586 86.6446 75.4847C86.104 75.1198 85.5703 74.7482 85.05 74.3631C85.0365 74.3496 85.0163 74.3361 85.0027 74.3293C84.496 73.9577 84.0095 73.5793 83.5298 73.1942C83.3879 73.0794 83.2528 72.9713 83.1177 72.8564C82.7258 72.5321 82.3407 72.2078 81.9691 71.8767C81.8677 71.7889 81.7596 71.701 81.6583 71.6065C81.1988 71.1943 80.7529 70.7754 80.3205 70.3497C80.2192 70.2484 80.1246 70.1538 80.0232 70.0525C79.6786 69.7079 79.3476 69.3633 79.0233 69.012C78.9084 68.8903 78.7935 68.7687 78.6854 68.6404C78.2868 68.1944 77.8949 67.7485 77.5233 67.2891C77.5166 67.2823 77.5098 67.2688 77.5031 67.262C77.1382 66.8161 76.7936 66.3567 76.4558 65.8972C76.3612 65.7621 76.2666 65.6337 76.172 65.4986C75.9018 65.1202 75.645 64.7351 75.395 64.35C75.3275 64.2419 75.2532 64.1406 75.1856 64.0325C74.8816 63.5527 74.5978 63.0663 74.3275 62.5798C74.2667 62.465 74.2059 62.3568 74.1519 62.242C73.9424 61.8434 73.7397 61.4447 73.5438 61.0461C73.4762 60.9042 73.4086 60.7623 73.3411 60.6204C73.1114 60.1137 72.8884 59.6002 72.6925 59.0867V59.0732C72.4965 58.5597 72.3209 58.0462 72.1587 57.526C72.1114 57.3773 72.0709 57.2287 72.0236 57.08C71.902 56.6611 71.7871 56.2355 71.6857 55.8031C71.6587 55.6815 71.6249 55.5666 71.5979 55.445C71.4763 54.9112 71.3749 54.3775 71.2939 53.8437C71.2736 53.7221 71.2601 53.6005 71.2466 53.4788C71.1858 53.0464 71.1385 52.6073 71.0979 52.1681C71.0844 52.0127 71.0709 51.8641 71.0574 51.7087C71.0169 51.1546 70.9966 50.6006 70.9966 50.0466V90.2138C70.9966 90.7745 71.0236 91.3286 71.0574 91.8758C71.0709 92.0312 71.0844 92.1866 71.0979 92.3353C71.1385 92.7745 71.1858 93.2136 71.2466 93.646C71.2668 93.7677 71.2804 93.8893 71.2939 94.0109C71.3749 94.5514 71.4763 95.0852 71.5979 95.6122C71.6249 95.7338 71.6587 95.8487 71.6857 95.9703C71.7871 96.3959 71.902 96.8216 72.0236 97.2472C72.0641 97.3959 72.1114 97.5445 72.1587 97.6932C72.3209 98.2134 72.4965 98.7269 72.6925 99.2404V99.2539C72.8884 99.7674 73.1114 100.281 73.3411 100.788C73.4086 100.93 73.4762 101.071 73.5438 101.213C73.733 101.619 73.9356 102.017 74.1519 102.409C74.2127 102.524 74.2667 102.632 74.3275 102.747C74.5978 103.24 74.8816 103.72 75.1856 104.2C75.2532 104.308 75.3275 104.409 75.395 104.517C75.645 104.902 75.9018 105.287 76.172 105.666C76.2666 105.801 76.3612 105.929 76.4558 106.064C76.7936 106.524 77.1382 106.983 77.5031 107.429C77.5098 107.436 77.5166 107.45 77.5233 107.456C77.8949 107.916 78.2868 108.362 78.6854 108.808C78.7935 108.929 78.9084 109.058 79.0233 109.179C79.3476 109.53 79.6786 109.882 80.0232 110.22C80.1246 110.321 80.2192 110.422 80.3205 110.517C80.7529 110.943 81.1989 111.362 81.6515 111.774C81.7529 111.861 81.861 111.956 81.9623 112.044C82.3407 112.375 82.7191 112.699 83.1109 113.024C83.2461 113.138 83.3879 113.247 83.5231 113.361C84.0028 113.747 84.496 114.132 84.996 114.503C85.0095 114.517 85.023 114.524 85.0365 114.537C85.5568 114.922 86.0905 115.294 86.6311 115.659C86.7797 115.76 86.9351 115.861 87.0905 115.963C87.5297 116.253 87.9688 116.537 88.4215 116.814C88.5566 116.895 88.685 116.976 88.8134 117.057C89.3809 117.402 89.962 117.74 90.5498 118.064C90.6782 118.131 90.8065 118.206 90.9349 118.273C91.4214 118.537 91.9078 118.794 92.4078 119.044C92.5835 119.131 92.7524 119.219 92.9281 119.307C93.5294 119.604 94.1307 119.895 94.7523 120.172C94.7793 120.185 94.7996 120.192 94.8266 120.206C95.4685 120.496 96.1239 120.773 96.7793 121.044C96.9617 121.118 97.1509 121.192 97.3333 121.266C97.8603 121.476 98.3941 121.685 98.9346 121.881C99.0967 121.942 99.2521 122.003 99.4143 122.057C100.036 122.28 100.664 122.496 101.299 122.706C101.353 122.726 101.414 122.739 101.468 122.76C101.671 122.827 101.88 122.888 102.083 122.949C102.61 123.118 103.144 123.28 103.678 123.435C103.941 123.51 104.211 123.584 104.475 123.658C104.968 123.793 105.468 123.929 105.975 124.057C106.245 124.124 106.522 124.192 106.792 124.26C107.333 124.388 107.88 124.51 108.434 124.631C108.664 124.678 108.894 124.733 109.123 124.78C109.191 124.793 109.258 124.814 109.326 124.827C109.995 124.962 110.664 125.084 111.346 125.205C111.515 125.233 111.691 125.26 111.866 125.293C112.508 125.401 113.157 125.503 113.806 125.591C113.974 125.611 114.137 125.638 114.306 125.665C114.988 125.76 115.67 125.841 116.36 125.915C116.42 125.922 116.488 125.922 116.555 125.928C117.562 126.037 118.582 126.124 119.609 126.192C119.785 126.205 119.967 126.205 120.143 126.219C120.994 126.273 121.859 126.307 122.724 126.334C122.839 126.334 122.954 126.347 123.075 126.347C123.731 126.361 124.386 126.368 125.042 126.368C125.92 126.368 126.792 126.354 127.656 126.32C127.94 126.314 128.224 126.293 128.508 126.28C128.96 126.259 129.406 126.246 129.859 126.219C130.014 126.212 130.163 126.199 130.318 126.185C130.508 126.172 130.703 126.158 130.893 126.145C131.629 126.091 132.359 126.03 133.089 125.955C133.17 125.949 133.251 125.942 133.325 125.935C134.116 125.854 134.893 125.76 135.669 125.651C135.859 125.624 136.041 125.597 136.23 125.577C136.446 125.543 136.669 125.516 136.886 125.489C137.284 125.428 137.683 125.361 138.082 125.293C138.291 125.26 138.5 125.226 138.71 125.192C139.494 125.057 140.264 124.908 141.034 124.753C141.19 124.719 141.338 124.685 141.494 124.651C142.108 124.523 142.723 124.381 143.331 124.233C143.581 124.172 143.825 124.111 144.068 124.05C144.318 123.989 144.575 123.929 144.825 123.861C144.993 123.82 145.149 123.766 145.311 123.719C145.993 123.537 146.662 123.341 147.331 123.138C147.608 123.057 147.878 122.976 148.155 122.888C149.074 122.598 149.98 122.293 150.865 121.969C150.953 121.935 151.034 121.902 151.122 121.868C151.926 121.571 152.709 121.26 153.486 120.942C153.757 120.827 154.027 120.712 154.29 120.598C154.885 120.341 155.479 120.077 156.061 119.8C156.216 119.726 156.378 119.658 156.533 119.584C156.723 119.49 156.912 119.395 157.101 119.3C157.277 119.213 157.446 119.131 157.621 119.044C158.223 118.74 158.817 118.429 159.391 118.111C159.405 118.104 159.425 118.091 159.439 118.084C160.033 117.753 160.614 117.415 161.189 117.071C161.344 116.976 161.506 116.882 161.662 116.78C162.121 116.496 162.567 116.213 163.013 115.922C163.135 115.841 163.256 115.767 163.371 115.686C163.912 115.321 164.439 114.949 164.952 114.571C165.067 114.483 165.182 114.395 165.297 114.307C165.709 113.997 166.114 113.686 166.513 113.368C166.648 113.26 166.783 113.152 166.918 113.044C167.013 112.97 167.107 112.895 167.195 112.821C167.574 112.503 167.945 112.186 168.31 111.855C168.371 111.801 168.432 111.74 168.499 111.679C168.905 111.314 169.303 110.936 169.688 110.557C169.783 110.463 169.877 110.368 169.972 110.274C170.391 109.855 170.803 109.429 171.202 108.99C171.276 108.909 171.344 108.828 171.418 108.747C171.763 108.362 172.1 107.97 172.425 107.578C172.499 107.49 172.573 107.402 172.648 107.308C173.006 106.862 173.357 106.409 173.688 105.95C173.762 105.848 173.83 105.754 173.898 105.652C174.026 105.477 174.154 105.294 174.276 105.119C174.404 104.929 174.526 104.733 174.648 104.544C174.749 104.389 174.85 104.233 174.945 104.078C175.229 103.625 175.499 103.173 175.749 102.713C175.776 102.673 175.803 102.625 175.823 102.585C176.1 102.085 176.35 101.571 176.593 101.058C176.668 100.902 176.729 100.754 176.796 100.598C176.897 100.369 177.006 100.139 177.107 99.9093C177.174 99.7471 177.235 99.5782 177.303 99.4093C177.35 99.2877 177.397 99.1661 177.445 99.0512C177.634 98.5445 177.816 98.031 177.972 97.5175C177.999 97.4364 178.019 97.3621 178.039 97.281C178.174 96.8216 178.296 96.3621 178.411 95.896C178.438 95.7743 178.472 95.6527 178.499 95.5311C178.519 95.4433 178.539 95.3554 178.56 95.2743C178.647 94.8419 178.728 94.4095 178.796 93.9704C178.81 93.8758 178.823 93.7812 178.837 93.6798C178.911 93.1731 178.972 92.6664 179.012 92.1529C179.012 92.0988 179.026 92.0448 179.026 91.984C179.053 91.5786 179.08 91.1799 179.087 90.7745C179.087 90.5719 179.093 90.3692 179.093 90.1665V49.9993C179.093 50.6073 179.066 51.2154 179.026 51.8168L179.039 51.8505Z" fill="#F08215"/>
<path d="M95.0481 95.2141C88.5612 92.3897 88.8315 99.1062 90.0343 102.248C92.4128 108.465 99.0618 109.931 100.535 106.776C100.028 106.465 99.3591 106.053 98.8523 105.742C98.0347 107.749 93.4602 107.289 91.5209 102.688C90.1492 99.4441 90.6154 94.7006 94.8724 96.4845C97.4266 97.5521 98.5618 99.586 98.7848 100.282C99.2915 100.329 99.9673 100.397 100.474 100.451C99.7443 98.4643 97.5144 96.3155 95.0413 95.2209" fill="white"/>
<path d="M120.448 97.2683C119.758 97.2278 119.069 97.1805 118.38 97.1197C118.38 105.107 118.092 109.42 117.515 110.06C115.265 112.539 109.974 111.641 107.515 109.127C106.514 108.107 105.994 106.951 105.974 105.681V95.0655C105.305 94.8966 104.643 94.7209 103.987 94.5385V105.262C104.116 112.06 115.13 115.249 119.13 111.188C120.258 110.039 120.427 108.877 120.441 107.992V97.2683" fill="white"/>
<path d="M132.387 96.8492C124.968 97.5858 123.968 101.931 126.272 103.917C127.198 104.715 128.671 105.275 130.644 105.586C135.712 106.242 136.36 106.329 137.185 107.086C137.901 107.742 137.982 109.431 136.259 110.769C133.57 112.85 127.265 112.904 126.752 109.519C126.198 109.532 125.644 109.539 125.09 109.539C124.927 109.539 124.765 109.539 124.61 109.539C125.313 115.722 136.056 113.924 138.644 110.647C139.334 109.776 142.354 105.37 133.84 104.492C130.705 104.106 128.982 103.897 127.813 102.856C127.09 102.208 126.873 100.701 128.353 99.5724C130.63 97.8358 136.833 97.302 137.381 100.552C138.036 100.451 138.692 100.336 139.34 100.214C139.138 97.7344 136.536 96.4776 132.381 96.8628" fill="white"/>
<path d="M145.875 95.9979C147.28 95.606 148.659 95.1736 150.003 94.7006C160.2 91.2274 155.747 103.154 155.679 103.282C153.929 106.762 150.726 107.904 149.672 108.276C148.429 108.701 147.159 109.093 145.868 109.458V95.9979M150.118 93.2748C148.848 93.687 147.159 94.2411 145.882 94.606C145.253 94.7817 144.611 94.9506 143.969 95.1128C143.969 96.6196 143.969 98.6264 143.969 100.133V111.343L145.023 111.073C146.645 110.641 148.24 110.154 149.794 109.62C159.477 106.147 160.315 94.7884 156.098 92.8221C154.172 91.9234 151.537 92.8018 150.118 93.2748Z" fill="white"/>
<path d="M163.243 0.825684C167.77 0.825684 172.175 1.61619 176.047 3.06207C173.439 7.66323 167.966 11.5077 160.507 13.3251C157.547 14.0481 154.52 14.3927 151.541 14.3927C147.021 14.3927 142.616 13.6022 138.744 12.1495C141.352 7.54837 146.832 3.70394 154.284 1.88645C157.243 1.16351 160.27 0.825684 163.243 0.825684Z" fill="url(#paint3_linear_4710_11527)"/>
<path d="M125.055 13.8667C154.904 13.8667 179.105 30.0547 179.105 50.0329C179.105 70.0111 154.904 86.1991 125.055 86.1991C95.2063 86.1991 71.0054 70.0111 71.0054 50.0329C71.0054 30.0547 95.2063 13.8667 125.055 13.8667Z" fill="url(#paint4_linear_4710_11527)"/>
<path d="M134.486 31.751V33.2576L136.777 27.1096V25.603L134.486 31.751Z" fill="#808080"/>
<path d="M139.912 40.8514C139.912 40.7973 139.912 40.7433 139.912 40.6825C139.912 40.6622 139.912 40.6352 139.912 40.6082C139.912 40.5676 139.912 40.5203 139.898 40.473C139.898 40.4528 139.892 40.4325 139.892 40.4122C139.885 40.3514 139.878 40.2974 139.865 40.2298C139.865 40.196 139.851 40.1623 139.844 40.1285C139.831 40.0677 139.824 40.0136 139.804 39.9528C139.797 39.9123 139.784 39.8718 139.77 39.8312C139.75 39.7704 139.736 39.7164 139.716 39.6488C139.702 39.6083 139.682 39.561 139.669 39.5137C139.648 39.4529 139.621 39.3921 139.594 39.3245C139.594 39.311 139.588 39.2975 139.581 39.284C139.574 39.2637 139.561 39.2434 139.547 39.2232C139.493 39.1083 139.439 38.9935 139.371 38.8786C139.351 38.8381 139.331 38.8043 139.311 38.7638C139.223 38.6151 139.121 38.4665 139.013 38.3179C139.013 38.3179 139.007 38.3044 139 38.2976C138.986 38.2773 138.959 38.2503 138.946 38.23C138.858 38.1219 138.763 38.0071 138.662 37.899C138.622 37.8517 138.574 37.8112 138.534 37.7639C138.432 37.6625 138.331 37.5679 138.216 37.4666C138.182 37.4396 138.155 37.4058 138.122 37.3788C138.095 37.3585 138.068 37.3382 138.04 37.318C138 37.2842 137.953 37.2504 137.905 37.2099C137.811 37.1356 137.709 37.0612 137.601 36.9869C137.554 36.9531 137.507 36.9194 137.453 36.8856C137.318 36.7978 137.176 36.7032 137.027 36.6153C137 36.6018 136.98 36.5883 136.96 36.5748C136.804 36.487 136.642 36.3924 136.466 36.3046C136.453 36.2978 136.433 36.2911 136.412 36.2775C136.176 36.1559 135.926 36.0411 135.656 35.933C134.581 35.4938 133.021 35.1425 131.649 34.9128C131.129 34.825 130.629 34.7642 130.143 34.7169C130.008 34.7034 129.879 34.6966 129.751 34.6831C129.609 34.6696 129.46 34.6561 129.325 34.6493C129.001 34.6291 128.69 34.6223 128.379 34.6223C127.9 34.6223 127.44 34.6493 127.001 34.6899C126.954 34.6899 126.907 34.6966 126.859 34.7034C126.825 34.7034 126.798 34.7034 126.765 34.7101C126.339 34.7574 125.934 34.8318 125.542 34.9196C125.468 34.9398 125.393 34.9534 125.319 34.9736C125.278 34.9804 125.251 35.0007 125.218 35.0074C124.954 35.0817 124.704 35.1628 124.474 35.2506C124.454 35.2574 124.434 35.2641 124.414 35.2709C124.414 35.2709 124.407 35.2709 124.4 35.2777C124.15 35.379 123.927 35.5006 123.724 35.629C123.697 35.6425 123.67 35.656 123.65 35.6695C123.616 35.6898 123.589 35.7168 123.562 35.7371C123.474 35.7979 123.387 35.8654 123.306 35.9262C123.252 35.9735 123.191 36.0141 123.143 36.0681C123.062 36.1424 122.995 36.2167 122.92 36.2911C122.873 36.3383 122.833 36.3856 122.792 36.4397C122.725 36.5275 122.657 36.6221 122.596 36.7167C122.569 36.764 122.535 36.8045 122.508 36.8518C122.427 36.9937 122.353 37.1491 122.292 37.3045C122.191 37.5747 122.144 37.8382 122.144 38.1017V39.6083C122.144 39.3448 122.191 39.0813 122.292 38.8111C122.353 38.6489 122.421 38.5003 122.508 38.3584C122.535 38.3111 122.569 38.2706 122.596 38.2233C122.657 38.1287 122.718 38.0341 122.792 37.9463C122.833 37.8922 122.88 37.8449 122.92 37.7976C122.988 37.7233 123.062 37.6423 123.143 37.5747C123.197 37.5274 123.252 37.4801 123.306 37.4328C123.387 37.3653 123.474 37.3045 123.562 37.2437C123.616 37.2099 123.67 37.1693 123.731 37.1356C123.941 37.0072 124.164 36.8923 124.407 36.7842C124.434 36.7707 124.461 36.764 124.481 36.7572C124.711 36.6626 124.961 36.5816 125.224 36.514C125.332 36.487 125.434 36.4532 125.549 36.4262C125.967 36.3316 126.407 36.2573 126.866 36.21C126.913 36.21 126.961 36.2032 127.008 36.1965C127.454 36.1559 127.906 36.1289 128.386 36.1289C128.825 36.1289 129.291 36.1559 129.758 36.1897C129.886 36.2032 130.021 36.21 130.149 36.2235C130.643 36.2708 131.136 36.3316 131.656 36.4194C133.028 36.6491 134.588 37.0004 135.662 37.4396C135.933 37.5477 136.183 37.6693 136.419 37.7841C136.608 37.8787 136.791 37.9733 136.966 38.0746C136.993 38.0882 137.014 38.1017 137.034 38.1152C137.182 38.203 137.324 38.2908 137.459 38.3854C137.514 38.4192 137.561 38.453 137.608 38.4868C137.716 38.5611 137.811 38.6354 137.912 38.7097C137.959 38.7435 138 38.7773 138.047 38.8178C138.108 38.8651 138.162 38.9192 138.216 38.9664C138.331 39.0678 138.432 39.1624 138.534 39.2637C138.581 39.311 138.622 39.3515 138.662 39.3988C138.763 39.5069 138.858 39.6218 138.946 39.7299C138.966 39.7569 138.993 39.7839 139.013 39.8177C139.128 39.9663 139.223 40.115 139.311 40.2636C139.331 40.3041 139.351 40.3379 139.371 40.3717C139.439 40.4865 139.5 40.6082 139.547 40.7163C139.561 40.75 139.581 40.7838 139.594 40.8176C139.621 40.8784 139.642 40.9392 139.669 41C139.682 41.0473 139.702 41.0946 139.716 41.1351C139.736 41.1959 139.757 41.2567 139.77 41.3108C139.784 41.3513 139.797 41.3919 139.804 41.4324C139.817 41.4932 139.831 41.554 139.844 41.6081C139.844 41.6418 139.858 41.6756 139.865 41.7094C139.878 41.7702 139.885 41.8242 139.892 41.885C139.892 41.9121 139.898 41.9323 139.905 41.9594C139.905 42.0067 139.912 42.0404 139.919 42.081C139.919 42.108 139.919 42.1418 139.925 42.162C139.925 42.2026 139.925 42.2296 139.925 42.2634C139.925 42.2837 139.925 42.3107 139.925 42.3309V40.8244L139.912 40.8514Z" fill="#919191"/>
<path d="M140.088 41.1417V42.6483L139.898 42.6145V41.1079L140.088 41.1417Z" fill="#AFAFAF"/>
<path d="M144.865 41.9393V43.4459L147.081 37.5073V36.0007L144.865 41.9393Z" fill="#808080"/>
<path d="M140.087 41.1418V42.6484L144.864 43.4457V41.9391L140.087 41.1418Z" fill="#AFAFAF"/>
<path d="M129.656 55.1199C129.656 55.1199 129.683 55.1739 129.697 55.2009C129.764 55.3496 129.818 55.4982 129.859 55.6536C129.866 55.6874 129.872 55.7144 129.879 55.7482C129.913 55.9036 129.933 56.0589 129.933 56.2143V54.7077C129.933 54.6199 129.933 54.5321 129.92 54.4443C129.913 54.3767 129.893 54.3091 129.879 54.2416C129.879 54.2078 129.866 54.1808 129.859 54.147C129.825 54.0119 129.785 53.8835 129.731 53.7551C129.724 53.7349 129.71 53.7146 129.697 53.6943C129.683 53.6673 129.67 53.6403 129.656 53.6133C129.582 53.4714 129.494 53.3295 129.393 53.1876C129.386 53.1741 129.379 53.1674 129.373 53.1538C129.373 53.1538 129.373 53.1471 129.366 53.1403C129.244 52.985 129.102 52.8296 128.947 52.6742C128.791 52.5255 128.623 52.3769 128.447 52.2283C128.393 52.1877 128.332 52.1404 128.285 52.0999C128.19 52.0256 128.089 51.9445 127.988 51.8702C127.812 51.7351 127.629 51.6 127.44 51.4648C127.332 51.3905 127.224 51.3095 127.109 51.2351C126.9 51.0933 126.67 50.9514 126.44 50.8095C126.332 50.7419 126.231 50.6744 126.116 50.6136C125.765 50.4109 125.4 50.2015 125.008 49.9988C124.555 49.7623 124.096 49.5259 123.63 49.2894C123.603 49.2759 123.576 49.2624 123.556 49.2489C123.488 49.2151 123.407 49.1745 123.339 49.1408C122.86 48.8976 122.373 48.6543 121.873 48.4111C121.718 48.3368 121.556 48.2557 121.394 48.1814C120.799 47.8909 120.198 47.6071 119.576 47.3166C119.097 47.0937 118.63 46.864 118.171 46.6343C117.543 46.3167 116.941 45.9857 116.347 45.6479C116.205 45.5668 116.056 45.479 115.914 45.3979C115.327 45.0534 114.752 44.7088 114.198 44.344C113.948 44.1818 113.719 44.0197 113.489 43.8508C113.422 43.8035 113.361 43.7495 113.293 43.7022C113.124 43.5738 112.969 43.4454 112.813 43.3171C112.759 43.2698 112.705 43.2292 112.651 43.1819C112.374 42.9455 112.118 42.7023 111.881 42.4591C111.841 42.4185 111.8 42.378 111.766 42.3374C111.537 42.0942 111.32 41.8443 111.118 41.5875C111.084 41.5402 111.05 41.4929 111.016 41.4524C110.854 41.2295 110.692 41.0065 110.557 40.7836C110.442 40.6011 110.348 40.412 110.26 40.2228C110.172 40.0269 110.104 39.8242 110.043 39.6215C110.023 39.554 110.016 39.4796 110.003 39.4121C109.969 39.2702 109.942 39.1351 109.922 38.9932C109.895 38.804 109.881 38.6149 109.881 38.4189V39.9255C109.881 40.1012 109.888 40.2836 109.908 40.4525C109.908 40.466 109.908 40.4795 109.915 40.493C109.935 40.6349 109.962 40.77 109.996 40.9119C110.01 40.9795 110.023 41.0538 110.037 41.1214C110.091 41.324 110.165 41.5267 110.253 41.7226C110.334 41.9118 110.435 42.101 110.55 42.2834C110.692 42.5131 110.847 42.736 111.01 42.9522C111.03 42.9793 111.043 43.0063 111.064 43.0333C111.077 43.0536 111.097 43.0671 111.111 43.0874C111.307 43.3441 111.523 43.5941 111.76 43.8373C111.8 43.8778 111.834 43.9184 111.874 43.9589C112.111 44.2021 112.368 44.4453 112.645 44.6818C112.658 44.6953 112.672 44.7088 112.692 44.7223C112.732 44.7561 112.773 44.7831 112.807 44.8169C112.962 44.9453 113.124 45.0736 113.286 45.202C113.354 45.2493 113.415 45.3033 113.482 45.3506C113.712 45.5195 113.942 45.6817 114.192 45.8438C114.746 46.2019 115.32 46.5532 115.908 46.8978C116.05 46.9788 116.198 47.0667 116.34 47.1477C116.935 47.4855 117.536 47.8166 118.164 48.1341C118.164 48.1341 118.178 48.1341 118.178 48.1409C118.63 48.3706 119.097 48.5935 119.57 48.8165C120.191 49.107 120.792 49.3907 121.387 49.6812C121.549 49.7556 121.704 49.8366 121.867 49.911C122.36 50.1542 122.853 50.3974 123.326 50.6339C123.427 50.6811 123.529 50.7352 123.63 50.7825C124.096 51.0189 124.555 51.2554 125.008 51.4919C125.4 51.6945 125.765 51.904 126.116 52.1067C126.231 52.1742 126.332 52.2418 126.44 52.3026C126.67 52.4445 126.9 52.5863 127.109 52.7282C127.224 52.8025 127.332 52.8836 127.44 52.9579C127.629 53.093 127.812 53.2282 127.988 53.3633C128.089 53.4376 128.19 53.5187 128.285 53.593C128.521 53.7889 128.744 53.9781 128.947 54.174C129.109 54.3294 129.251 54.4915 129.373 54.6537C129.379 54.6672 129.386 54.674 129.393 54.6875C129.494 54.8293 129.582 54.9712 129.656 55.1131V55.1199Z" fill="#858585"/>
<path d="M109.746 59.7409C106.719 58.7208 105.253 57.9979 103.801 57.3223V58.8289C105.253 59.5112 106.719 60.2274 109.746 61.2475C112.313 62.1123 114.394 62.7136 117.306 63.2676V61.761C114.401 61.207 112.313 60.6124 109.746 59.7409Z" fill="#98989A"/>
<path d="M141.85 56.2621C141.769 56.4783 141.675 56.6945 141.573 56.8971C141.54 56.9647 141.506 57.0255 141.472 57.0863C141.398 57.2282 141.317 57.3701 141.229 57.5052C141.188 57.5727 141.141 57.6403 141.1 57.7079C141.013 57.843 140.911 57.9781 140.81 58.1065C140.769 58.1605 140.722 58.2213 140.682 58.2754C140.533 58.4578 140.378 58.6334 140.209 58.8023C140.195 58.8159 140.188 58.8226 140.175 58.8294C140.013 58.9915 139.844 59.1401 139.668 59.2955C139.607 59.3428 139.547 59.3969 139.486 59.4442C139.351 59.5523 139.209 59.6604 139.06 59.7617C138.986 59.8157 138.912 59.863 138.837 59.9103C138.682 60.0117 138.526 60.1063 138.364 60.2076C138.29 60.2481 138.222 60.2954 138.148 60.336C137.912 60.4711 137.662 60.5994 137.405 60.7211C137.148 60.8427 136.891 60.9508 136.621 61.0589C136.263 61.2075 135.898 61.3426 135.52 61.4642C135.432 61.4912 135.338 61.5183 135.25 61.552C134.946 61.6466 134.642 61.7345 134.324 61.8223C134.209 61.8561 134.094 61.8831 133.98 61.9101C133.513 62.025 133.034 62.1331 132.541 62.2209C132.48 62.2344 132.419 62.2412 132.358 62.2479C131.899 62.329 131.426 62.3966 130.946 62.4574C130.831 62.4709 130.716 62.4844 130.595 62.4979C130.142 62.5452 129.676 62.5925 129.203 62.6263C128.413 62.6803 127.615 62.7006 126.805 62.7006C126.082 62.7006 125.345 62.6735 124.602 62.6398C124.075 62.6127 123.548 62.579 123.008 62.5384V64.045C123.467 64.0856 123.927 64.1126 124.386 64.1396C124.46 64.1396 124.528 64.1396 124.602 64.1396C125.345 64.1801 126.082 64.2004 126.805 64.2004C127.615 64.2004 128.413 64.1734 129.203 64.1261C129.683 64.0923 130.142 64.0518 130.595 63.9977C130.642 63.9977 130.696 63.991 130.743 63.9842C130.811 63.9775 130.872 63.964 130.946 63.9572C131.426 63.8964 131.899 63.8288 132.358 63.7478C132.419 63.7342 132.48 63.7275 132.541 63.7207C133.034 63.6329 133.513 63.5248 133.98 63.41C134.034 63.3964 134.088 63.3897 134.135 63.3762C134.203 63.3627 134.257 63.3356 134.324 63.3221C134.642 63.2411 134.946 63.1465 135.25 63.0519C135.338 63.0249 135.432 62.9978 135.52 62.9641C135.898 62.8357 136.263 62.7006 136.621 62.5587C136.641 62.5519 136.662 62.5452 136.682 62.5384C136.925 62.4371 137.168 62.329 137.405 62.2209C137.662 62.0993 137.912 61.9709 138.148 61.8358C138.222 61.7953 138.297 61.748 138.364 61.7074C138.472 61.6466 138.58 61.5858 138.682 61.5183C138.736 61.4845 138.783 61.4439 138.837 61.4102C138.912 61.3629 138.986 61.3088 139.06 61.2615C139.209 61.1602 139.351 61.0521 139.486 60.944C139.547 60.8967 139.614 60.8494 139.668 60.7954C139.844 60.6467 140.02 60.4913 140.175 60.3292C140.188 60.3157 140.195 60.3089 140.209 60.3022C140.378 60.1333 140.533 59.9576 140.682 59.7752C140.729 59.7212 140.769 59.6604 140.81 59.6063C140.911 59.4779 141.006 59.3428 141.1 59.2077C141.148 59.1401 141.188 59.0726 141.229 59.005C141.317 58.8699 141.391 58.728 141.472 58.5861C141.506 58.5253 141.54 58.4578 141.573 58.397C141.675 58.1875 141.769 57.9781 141.85 57.7619C142.107 57.066 142.235 56.404 142.235 55.7756V54.269C142.235 54.8974 142.107 55.5594 141.85 56.2553V56.2621Z" fill="#98989A"/>
<path d="M120.738 68.6595V70.166L123.015 64.0586V62.552L120.738 68.6595Z" fill="#808080"/>
<path d="M115.083 67.7133V69.2199L120.738 70.1657V68.6591L115.083 67.7133Z" fill="#AFAFAF"/>
<path d="M131.129 24.664L136.777 25.6031L134.487 31.7578C136.48 32.2105 138.588 32.778 140.283 33.3387C143.236 34.3184 146.891 35.9195 147.08 36.0006L144.864 41.9392L140.087 41.1419L139.898 41.1082C139.919 40.946 140.277 37.8518 135.635 35.9398C134.561 35.5007 133 35.1493 131.629 34.9196C130.46 34.7237 129.372 34.6224 128.352 34.6224C127.332 34.6224 126.379 34.7237 125.508 34.9196C123.778 35.3115 122.684 36.1087 122.245 37.3045C121.88 38.2841 122.177 39.203 123.123 40.0812C124.076 40.9528 125.4 41.8243 127.082 42.6958C128.764 43.5606 130.582 44.4592 132.521 45.378C134.46 46.3036 136.236 47.2967 137.851 48.3506C139.466 49.4046 140.689 50.5734 141.52 51.8638C142.344 53.1542 142.459 54.6135 141.851 56.2484C141.141 58.1671 139.655 59.6535 137.405 60.7142C135.149 61.7749 132.419 62.4099 129.203 62.6261C128.413 62.6802 127.616 62.7004 126.805 62.7004C125.569 62.7004 124.305 62.6396 123.015 62.5315L120.738 68.6458L115.083 67.6999L117.306 61.7411C114.401 61.1871 112.313 60.5926 109.746 59.721C106.719 58.7009 105.253 57.978 103.801 57.3024L105.949 51.5462L110.901 52.3705C110.901 52.3705 110.982 52.5867 111.091 52.9177C111.739 54.8972 113.874 56.6133 116.826 57.4713C117.833 57.7618 118.833 58.0118 119.684 58.1536C120.914 58.3563 122.076 58.4577 123.177 58.4577C124.278 58.4577 125.224 58.3631 126.163 58.1739C128.068 57.7888 129.271 56.9443 129.764 55.6201C130.156 54.5527 129.893 53.5595 128.947 52.6542C128.001 51.7489 126.697 50.8504 125.015 49.9721C123.339 49.087 121.522 48.1952 119.576 47.2899C117.63 46.3846 115.84 45.3915 114.198 44.3173C112.563 43.2431 111.347 42.054 110.55 40.7501C109.76 39.4462 109.665 37.9801 110.273 36.3452C110.915 34.6156 112.239 33.2712 114.246 32.2983C116.252 31.3322 118.718 30.7377 121.657 30.5282C122.434 30.4742 123.224 30.4471 124.035 30.4471C125.575 30.4471 127.183 30.5485 128.852 30.7377L131.129 24.637V24.664Z" fill="white"/>
<defs>
<linearGradient id="paint0_linear_4710_11527" x1="125.054" y1="380.797" x2="125.054" y2="261.915" gradientUnits="userSpaceOnUse">
<stop offset="0.05" stop-color="#FF923D"/>
<stop offset="1" stop-color="#FF7B34"/>
</linearGradient>
<linearGradient id="paint1_linear_4710_11527" x1="125.056" y1="272.466" x2="125.056" y2="154.914" gradientUnits="userSpaceOnUse">
<stop offset="0.1" stop-color="#FFDA72"/>
<stop offset="0.83" stop-color="#FFD151"/>
</linearGradient>
<linearGradient id="paint2_linear_4710_11527" x1="157.429" y1="3.06201" x2="157.429" y2="54.5598" gradientUnits="userSpaceOnUse">
<stop offset="0.173077" stop-color="#E27407"/>
<stop offset="1" stop-color="#B95F06"/>
</linearGradient>
<linearGradient id="paint3_linear_4710_11527" x1="157.399" y1="14.3859" x2="157.399" y2="0.825684" gradientUnits="userSpaceOnUse">
<stop offset="0.14" stop-color="#F7931A"/>
<stop offset="1" stop-color="#FB8826"/>
</linearGradient>
<linearGradient id="paint4_linear_4710_11527" x1="125.055" y1="86.1991" x2="125.055" y2="13.8667" gradientUnits="userSpaceOnUse">
<stop offset="0.302885" stop-color="#FFA126"/>
<stop offset="0.894231" stop-color="#F78819"/>
</linearGradient>
</defs>
</svg>
