<svg width="52" height="52" viewBox="0 0 52 52" fill="none" xmlns="http://www.w3.org/2000/svg">
<g clip-path="url(#clip0_6013_1904)">
<mask id="mask0_6013_1904" style="mask-type:alpha" maskUnits="userSpaceOnUse" x="0" y="0" width="48" height="48">
<path d="M24 0C37.2548 0 48 10.7452 48 24C48 26.7682 47.5293 29.4262 46.667 31.9004C45.3109 31.3209 43.8179 31 42.25 31C36.0368 31 31 36.0368 31 42.25C31 43.8179 31.3209 45.3109 31.9004 46.667C29.4262 47.5293 26.7682 48 24 48C10.7452 48 0 37.2548 0 24C0 10.7452 10.7452 0 24 0Z" fill="#D9D9D9"/>
</mask>
<g mask="url(#mask0_6013_1904)">
<g clip-path="url(#clip1_6013_1904)">
<path d="M47.2733 29.808C44.0657 42.6645 31.0434 50.4888 18.189 47.2807C5.3346 44.0806 -2.48841 31.056 0.719182 18.1995C3.92678 5.34299 16.9491 -2.48932 29.8035 0.718806C42.6579 3.92694 50.4889 16.9515 47.2813 29.808H47.2733Z" fill="#F7911A"/>
<path d="M31.1438 27.4638C30.7758 26.6078 30.2318 25.8318 29.5118 25.1278C28.7918 24.4318 28.0078 23.7758 27.1438 23.1598C26.2798 22.5438 25.4798 21.9518 24.7278 21.3758C23.9758 20.7998 23.3918 20.2238 22.9678 19.6398C22.5438 19.0558 22.4158 18.4478 22.5758 17.7998C22.7758 17.0078 23.2558 16.4798 24.0238 16.2158C24.7918 15.9518 25.6958 15.9518 26.7438 16.2158C27.3518 16.3678 28.0478 16.5998 28.5198 16.8878C30.5838 18.1518 30.4158 20.3198 30.4158 20.3198L30.4958 20.3438L32.6158 20.8718L33.5998 16.9278C33.5998 16.9278 31.8958 15.8078 30.5838 15.1598C29.8318 14.7838 28.8958 14.4078 28.0078 14.1118L29.0238 10.0318L26.5118 9.40781L25.5038 13.4558C24.3758 13.2558 23.3118 13.2078 22.3118 13.3198C21.0078 13.4558 19.9118 13.8478 19.0158 14.4958C18.1278 15.1358 17.5358 16.0318 17.2558 17.1758C16.9838 18.2638 17.0238 19.2318 17.3758 20.0958C17.7278 20.9598 18.2718 21.7438 18.9998 22.4638C19.7278 23.1758 20.5198 23.8318 21.3838 24.4398C22.2478 25.0398 23.0478 25.6398 23.7998 26.2238C24.5438 26.8078 25.1278 27.3998 25.5438 28.0078C25.9598 28.6078 26.0798 29.2638 25.9038 29.9758C25.6878 30.8558 25.1518 31.4158 24.3038 31.6718C23.4558 31.9278 22.4958 31.9198 21.4318 31.6558C21.0558 31.5598 20.6078 31.3998 20.1598 31.1998C18.8478 30.6318 17.9038 29.4958 17.6158 28.1758C17.5678 27.9598 17.5358 27.8158 17.5358 27.8158L15.3358 27.2638L14.3838 31.0878C15.0318 31.5358 15.6798 32.0158 17.0238 32.6958C18.1598 33.2718 19.0878 33.6718 20.3838 34.0318L19.3998 37.9838L21.9118 38.6078L22.9198 34.5518C23.8638 34.6718 24.7838 34.6958 25.6638 34.6078C27.0878 34.4638 28.3038 34.0398 29.3038 33.3358C30.3038 32.6318 30.9598 31.6478 31.2798 30.3758C31.5518 29.2878 31.5038 28.3198 31.1358 27.4638H31.1438Z" fill="white"/>
</g>
</g>
<g clip-path="url(#clip2_6013_1904)">
<circle cx="42.25" cy="42.25" r="9.75" fill="#F17D00"/>
<path d="M42.2497 40.598C41.8787 40.598 41.5465 40.4066 41.361 40.086L38.8523 35.75H45.6471L43.1384 40.086C42.9529 40.4066 42.6207 40.598 42.2497 40.598Z" fill="white"/>
<path d="M44.5719 41.936C44.2009 41.936 43.8686 41.7446 43.6831 41.424C43.4976 41.1034 43.4976 40.7205 43.6831 40.3999L46.1917 36.064L49.5892 41.936H44.5718H44.5719Z" fill="white"/>
<path d="M38.8523 48.75L41.361 44.414C41.5465 44.0935 41.8787 43.902 42.2497 43.902C42.6207 43.902 42.9529 44.0935 43.1384 44.414L45.6471 48.75H38.8523Z" fill="white"/>
<path d="M43.6832 44.1002C43.4976 43.7796 43.4976 43.3967 43.6832 43.0761C43.8687 42.7555 44.2009 42.5641 44.5719 42.5641H49.5893L46.1919 48.436L43.6832 44.1002L43.6832 44.1002Z" fill="white"/>
<path d="M34.9102 41.936L38.3077 36.064L40.8163 40.3999C41.0018 40.7205 41.0018 41.1033 40.8163 41.424C40.6307 41.7446 40.2985 41.936 39.9275 41.936H34.9102Z" fill="white"/>
<path d="M34.9102 42.564H39.9275C40.2985 42.564 40.6308 42.7554 40.8163 43.076C41.0018 43.3967 41.0018 43.7795 40.8163 44.1001L38.3077 48.4359L34.9102 42.564Z" fill="white"/>
</g>
</g>
<defs>
<clipPath id="clip0_6013_1904">
<rect width="52" height="52" fill="white"/>
</clipPath>
<clipPath id="clip1_6013_1904">
<rect width="48" height="48" fill="white"/>
</clipPath>
<clipPath id="clip2_6013_1904">
<rect width="19.5" height="19.5" fill="white" transform="translate(32.5 32.5)"/>
</clipPath>
</defs>
</svg>
