<svg width="211" height="40" viewBox="0 0 211 40" fill="none" xmlns="http://www.w3.org/2000/svg">
<g clip-path="url(#clip0_4157_5720)">
<path fill-rule="evenodd" clip-rule="evenodd" d="M1.58117 -5.75567C6.80702 0.650905 12.5449 8.69952 13.4729 10.0013C13.5224 10.0707 13.5582 10.121 13.5796 10.1507C14.0743 10.8414 14.4827 11.3549 14.7929 11.7448C15.4814 12.6104 15.6857 12.8673 15.2749 13.1032C14.9435 13.2934 14.6016 13.3562 14.2605 13.3562C13.8747 13.3562 13.44 13.1685 13.1235 12.8652C12.8997 12.6509 11.3689 10.4051 9.28432 7.13811C7.68935 4.63826 6.35454 2.56453 6.31812 2.52981C6.23394 2.4495 6.23538 2.45223 9.1217 7.66863C10.934 10.9442 12.1738 13.3648 12.1738 13.5196C12.1738 13.8346 12.0887 14.0002 11.704 14.4336C11.0626 15.1564 10.7759 15.9684 10.569 17.6488C10.337 19.5326 9.6846 20.8635 7.87663 23.1408C6.81831 24.4741 6.64515 24.7184 6.3781 25.2558C6.04175 25.9325 5.94924 26.3115 5.91176 27.166C5.87214 28.0695 5.9493 28.6531 6.22256 29.5167C6.4618 30.273 6.71151 30.7724 7.34988 31.7712C7.9008 32.6329 8.21802 33.2734 8.21802 33.524C8.21802 33.7234 8.2557 33.7236 9.10939 33.529C11.1524 33.0629 12.8113 32.2435 13.7442 31.239C14.3217 30.6173 14.4572 30.274 14.4616 29.4222C14.4645 28.8649 14.4451 28.7483 14.296 28.4278C14.0532 27.9058 13.6113 27.4721 12.6373 26.7996C11.3611 25.9183 10.8161 25.209 10.6655 24.2333C10.542 23.4329 10.6853 22.868 11.3913 21.3734C12.122 19.8264 12.3031 19.1671 12.4256 17.6077C12.5047 16.6002 12.6143 16.2029 12.9009 15.8841C13.1998 15.5515 13.4688 15.4388 14.2085 15.3366C15.4143 15.1704 16.1822 14.8552 16.8133 14.2677C17.3609 13.7581 17.59 13.267 17.6251 12.5278L17.6518 11.9675L17.3459 11.6072C16.2378 10.3022 0.839119 -6.78149 0.77093 -6.78149C0.756362 -6.78149 1.12098 -6.31984 1.58117 -5.75567ZM8.84003 28.1883C9.09056 27.74 8.95745 27.164 8.53837 26.8824C8.14242 26.6166 7.52734 26.7419 7.52734 27.0884C7.52734 27.1941 7.58522 27.271 7.71572 27.339C7.93541 27.4532 7.95136 27.5815 7.7785 27.8439C7.60344 28.1098 7.61756 28.3434 7.81836 28.5021C8.14198 28.7581 8.60009 28.6174 8.84003 28.1883ZM16.3807 3.74975C15.8863 3.6723 15.8655 3.66321 16.0981 3.6271C16.5439 3.55784 17.5966 3.65222 18.322 3.82646C20.0155 4.23305 21.5565 5.27465 23.2013 7.12455L23.6383 7.616L24.2635 7.51449C26.8972 7.08698 29.5764 7.42673 31.8173 8.47237C32.4339 8.76006 33.4058 9.33268 33.5272 9.47983C33.5658 9.52672 33.637 9.82862 33.685 10.1507C33.8515 11.2652 33.7682 12.1195 33.4307 12.7575C33.2472 13.1047 33.2369 13.2147 33.3603 13.5119C33.4588 13.749 33.7336 13.9244 34.0058 13.9241C34.5626 13.9233 35.1619 13.014 35.4397 11.7488L35.55 11.2463L35.7686 11.4963C36.9672 12.8681 37.9088 14.739 38.0705 16.0706L38.1126 16.4178L37.9112 16.1022C37.5643 15.5591 37.2161 15.1893 36.7697 14.8911C35.9656 14.3536 35.115 14.1707 32.8629 14.0508C30.8288 13.9425 29.6777 13.767 28.5362 13.391C26.5938 12.7514 25.6149 11.8996 23.3077 8.84217C22.283 7.48418 21.6497 6.73283 21.0196 6.12775C19.588 4.75291 18.1813 4.03188 16.3807 3.74975ZM33.9859 6.78182C34.0371 5.87184 34.1594 5.27162 34.405 4.72349C34.5022 4.50652 34.5933 4.32893 34.6072 4.32893C34.6214 4.32893 34.5791 4.48909 34.5133 4.68479C34.3348 5.21677 34.3054 5.94437 34.4285 6.7909C34.5846 7.86503 34.6735 8.02002 35.7973 9.18029C36.3245 9.72452 36.9378 10.4109 37.16 10.7056L37.5643 11.2414L37.16 10.8585C36.6658 10.3902 35.5291 9.47693 35.278 9.34637C35.1096 9.25883 35.0845 9.26033 34.9808 9.36474C34.8851 9.46095 34.8648 9.60551 34.8515 10.2889C34.8308 11.3541 34.6872 12.0378 34.3403 12.7214C34.1526 13.0911 34.123 13.0122 34.2928 12.5949C34.4196 12.2833 34.4325 12.1463 34.4316 11.1152C34.4296 9.04336 34.186 8.54529 32.7579 7.69206C32.3964 7.47592 31.8001 7.16419 31.4333 6.99929C31.0668 6.8344 30.7754 6.69079 30.7859 6.68007C30.8264 6.6394 32.2192 7.05 32.7797 7.26777C33.6135 7.59175 33.751 7.63374 33.8523 7.59464C33.9201 7.56845 33.953 7.36878 33.9859 6.78182ZM15.8508 5.19127C15.7164 6.7908 16.3373 8.9305 17.3409 10.3261C18.1189 11.4079 19.3248 12.2485 20.2151 12.3297C20.798 12.3829 20.9732 12.1985 20.7095 11.8096C20.3434 11.2694 19.8931 10.4378 19.7739 10.0817C19.6999 9.86055 19.539 9.20718 19.4164 8.62982C18.9977 6.65867 18.5863 5.89104 17.6358 5.308C17.2895 5.09549 16.5498 4.81742 16.1209 4.7384L15.8924 4.69627L15.8508 5.19127ZM32.7688 20.7125C28.0788 18.8052 26.4269 17.1496 26.4269 14.3561C26.4269 13.945 26.4411 13.6087 26.4581 13.6087C26.4753 13.6087 26.6566 13.7443 26.8612 13.9102C27.8123 14.6806 28.8773 15.0097 31.8256 15.4441C33.5603 15.6999 34.5366 15.9063 35.4373 16.2081C38.2998 17.167 40.0709 19.1129 40.4932 21.7635C40.6159 22.5337 40.544 23.9779 40.3451 24.7391C40.1879 25.3404 39.7085 26.4239 39.5814 26.4655C39.5461 26.4771 39.5115 26.3407 39.5026 26.155C39.4544 25.1597 38.9564 24.1908 38.1202 23.4649C37.1694 22.6396 35.8919 21.9828 32.7688 20.7125ZM29.2497 20.5026C29.3155 20.7007 29.4175 21.1516 29.4761 21.5049C29.8518 23.763 28.6783 25.5875 26.3955 26.2945C26.1538 26.3692 25.2019 26.5575 24.2801 26.7124C22.4141 27.0263 21.5812 27.2486 20.7445 27.6556C20.1512 27.9444 19.4328 28.3768 19.4755 28.4197C19.4893 28.4336 19.6247 28.401 19.7764 28.3471C20.8315 27.9729 22.0057 27.7792 23.7898 27.6855C24.4978 27.6485 25.303 27.5892 25.5794 27.5541C27.1687 27.3518 28.2703 26.8641 29.127 25.9835C29.6036 25.4934 29.8878 25.0368 30.1168 24.393C30.262 23.9847 30.2816 23.833 30.2827 23.1095C30.284 22.3722 30.2663 22.2373 30.109 21.7838C29.9031 21.1893 29.6601 20.7432 29.3524 20.3943L29.1301 20.1424L29.2497 20.5026ZM31.6262 25.3615C31.0029 24.0084 30.86 22.7021 31.2013 21.4839C31.2379 21.3536 31.2965 21.247 31.332 21.247C31.3673 21.247 31.5142 21.3275 31.6587 21.4255C31.9457 21.6208 32.5217 21.9496 34.0559 22.7945C35.9706 23.8489 37.0622 24.6652 37.8045 25.5982C38.4545 26.415 38.8568 27.3453 39.0503 28.4798C39.1602 29.1225 39.0959 30.6689 38.9327 31.316C38.4179 33.3564 37.2215 34.959 35.5151 35.8944C35.2652 36.0313 35.0407 36.1437 35.0163 36.1444C34.9921 36.1448 35.0832 35.911 35.2187 35.6244C35.7928 34.4123 35.8581 33.2333 35.4243 31.9211C35.1584 31.1176 34.6166 30.1372 33.5226 28.4801C32.2508 26.5536 31.9389 26.0408 31.6262 25.3615ZM19.8887 29.7994C17.9162 30.123 15.7507 31.1774 14.0103 32.6617L13.4921 33.1036L13.9475 33.1755C16.3238 33.5501 16.9637 33.8825 18.612 35.5976C19.5605 36.5844 19.8809 36.804 20.6676 37.0069C21.8232 37.3048 22.9623 36.7574 23.353 35.7161C23.5276 35.2509 23.5043 34.4805 23.304 34.0937C22.8276 33.1725 21.4397 32.8748 20.7685 33.5495C20.2095 34.1115 20.3724 34.9582 21.0677 35.1038C21.2268 35.1373 21.2223 35.1301 21.0271 35.041C20.7228 34.902 20.5906 34.7093 20.5889 34.4027C20.5851 33.6837 21.3996 33.2801 22.1573 33.6253C22.7121 33.8783 22.9324 34.2087 22.9324 34.788C22.9324 35.68 22.1809 36.352 21.3062 36.2422C20.8387 36.1834 20.2669 35.8813 19.9603 35.5313C19.1889 34.6502 19.4894 33.2599 20.5665 32.7264C21.3864 32.3204 22.4764 32.4204 23.3216 32.9794C24.2927 33.6218 24.7057 34.2089 25.5421 36.1359C25.8145 36.7633 26.1649 37.4696 26.3208 37.7054C27.1131 38.9033 28.0624 39.4909 29.2059 39.4909C29.8366 39.4909 30.311 39.3745 30.9079 39.0735C31.3514 38.8497 31.9801 38.4245 31.9348 38.379C31.9219 38.3661 31.738 38.4239 31.526 38.5073C30.2775 38.9992 29.0082 38.9654 28.2712 38.4204C27.807 38.0774 27.4326 37.394 27.2402 36.5392C27.2069 36.3913 27.097 35.7379 26.9959 35.0872C26.7396 33.4379 26.4936 32.6965 25.9198 31.8457C25.3327 30.9753 24.204 30.2448 22.9422 29.9186C22.155 29.7151 20.7388 29.6597 19.8887 29.7994ZM17.1261 17.0478C17.2964 16.4123 17.8467 15.8063 18.4128 15.6306C18.7728 15.519 19.5169 15.5903 19.8668 15.7699C20.5447 16.1181 21.037 16.9112 20.9301 17.4837C20.7999 18.1817 19.6791 18.7402 18.3899 18.7494C17.7315 18.754 17.4883 18.6646 17.2368 18.3255C17.0812 18.1154 17.0222 17.4355 17.1261 17.0478ZM19.6936 16.0187C20.0317 16.2273 20.1187 16.5357 19.9199 16.8209C19.783 17.0175 19.359 17.2043 19.0492 17.2043C18.5838 17.2043 18.076 16.8704 18.076 16.5647C18.076 15.9503 19.0497 15.6215 19.6936 16.0187ZM120.747 17.7779C119.695 14.2796 121.429 11.3778 125.13 10.4454C126.192 10.1778 130.997 10.2986 131.821 10.6136C132.123 10.729 132.255 11.1721 132.258 12.0826C132.26 12.7997 132.338 13.6706 132.431 14.0179C132.573 14.5444 132.49 14.6479 131.935 14.6395C131.432 14.6317 131.128 14.3372 130.704 13.4463C130.026 12.0233 129.206 11.5707 127.294 11.5654C124.853 11.5584 123.067 13.2017 123.358 15.1873C123.547 16.4794 124.838 17.7508 127.736 19.4986C130.492 21.1612 132.101 22.5285 132.742 23.7534C134.456 27.0284 132.992 30.5332 129.173 32.299C127.213 33.2054 123.927 33.2991 121.617 32.5146L120.138 32.012V29.6484C120.138 27.5077 120.189 27.2843 120.677 27.2843C121.085 27.2843 121.261 27.5541 121.404 28.3992C121.761 30.5007 123.358 31.7764 125.632 31.7764C127.86 31.7764 129.418 30.5591 130.015 28.3517C130.269 27.4113 130.225 27.0646 129.721 26.0273C129.117 24.7836 128.077 23.9583 124.544 21.9202C122.584 20.7892 121.197 19.277 120.747 17.7779ZM51.4936 11.8419C51.0115 11.8419 50.8235 11.6844 50.8235 11.2804C50.8235 10.7456 51.0115 10.7189 54.7889 10.7189C58.2949 10.7189 58.7436 10.7717 58.6632 11.174C58.6128 11.4244 58.1284 11.7718 57.586 11.9461L56.5996 12.2631L56.5155 19.4228C56.4591 24.2002 56.5384 26.9561 56.7535 27.7053C57.3931 29.9336 59.3442 31.2151 62.0971 31.2151C64.0135 31.2151 65.133 30.767 66.5395 29.4363C68.0524 28.0059 68.2936 26.6466 68.2888 19.5823C68.2842 12.6141 68.1629 12.039 66.6664 11.8944C65.9853 11.8285 65.7572 11.6698 65.7572 11.2627C65.7572 10.7551 65.9818 10.7189 69.1383 10.7189C72.3316 10.7189 72.5195 10.75 72.5195 11.2804C72.5195 11.6263 72.3301 11.8436 72.0263 11.8462C70.7213 11.8577 70.6974 11.9818 70.5217 19.6226C70.3395 27.5574 70.1693 28.4968 68.5612 30.4405C68.0975 31.0013 66.9915 31.8154 66.1037 32.25C64.6568 32.958 64.1966 33.0393 61.6715 33.0347C59.3438 33.03 58.6089 32.9175 57.445 32.3877C55.746 31.6143 54.6411 30.6134 53.8265 29.1092C53.2579 28.0592 53.2093 27.4911 53.0777 20.3773C52.9269 12.2345 52.8539 11.8419 51.4936 11.8419ZM77.8598 11.8419C77.2156 11.8419 77.0277 11.715 77.0277 11.2804C77.0277 10.754 77.2077 10.7203 79.9157 10.7419L82.8039 10.7649L84.1858 12.3563C84.9453 13.2315 87.4218 15.9693 89.6884 18.4399C91.9553 20.9108 94.5578 23.785 95.4716 24.8274C96.3856 25.8699 97.2457 26.7227 97.3833 26.7227C97.5245 26.7227 97.5949 23.7781 97.5445 19.9595L97.4556 13.1964L96.665 12.5192C96.2302 12.1466 95.5649 11.8419 95.1859 11.8419C94.6818 11.8419 94.4972 11.6892 94.4972 11.2725C94.4972 10.7242 94.6411 10.706 98.3713 10.7812C101.543 10.8452 102.246 10.9337 102.246 11.2689C102.246 11.5078 101.853 11.7586 101.304 11.8706C100.786 11.9762 100.215 12.2087 100.036 12.3872C99.8044 12.6177 99.6865 15.5981 99.6292 22.6653L99.5484 32.6187H98.7318C98.0288 32.6187 97.1919 31.8276 92.7179 26.9332C89.8593 23.806 86.5226 20.0894 85.3031 18.6742C84.0833 17.2588 82.9904 16.09 82.8743 16.0771C82.5472 16.0405 82.6263 28.686 82.9608 29.8863C83.2217 30.8217 83.401 30.9827 84.5092 31.2783C85.4016 31.516 85.7625 31.7573 85.7625 32.1155C85.7625 32.5756 85.4223 32.6187 81.8178 32.6187C78.1485 32.6187 77.8731 32.5821 77.8731 32.0924C77.8731 31.7339 78.1385 31.5132 78.7055 31.4001C80.4261 31.0573 80.5403 30.5131 80.6368 22.1948C80.6909 17.536 80.6115 14.2762 80.427 13.5937C80.1027 12.3934 79.2946 11.8419 77.8598 11.8419ZM107.405 11.8419C106.801 11.8419 106.613 11.7086 106.613 11.2804C106.613 10.7439 106.801 10.7189 110.84 10.7189C114.878 10.7189 115.066 10.7439 115.066 11.2804C115.066 11.6923 114.878 11.8419 114.362 11.8419C113.974 11.8419 113.399 12.0997 113.082 12.4147C112.524 12.9709 112.51 13.2475 112.589 21.8435C112.667 30.2348 112.7 30.7204 113.218 31.0976C113.519 31.3166 114.058 31.4957 114.415 31.4957C114.878 31.4957 115.066 31.6577 115.066 32.0573C115.066 32.5939 114.878 32.6187 110.84 32.6187C106.897 32.6187 106.613 32.5834 106.613 32.0933C106.613 31.698 106.89 31.5234 107.729 31.3896C109.397 31.124 109.482 30.58 109.378 20.8737C109.295 13.1007 109.259 12.616 108.743 12.2401C108.442 12.0211 107.84 11.8419 107.405 11.8419ZM136.887 11.8419C136.501 11.8419 136.208 11.6283 136.117 11.2804C135.975 10.7374 136.108 10.7189 140.17 10.7189C144.182 10.7189 144.37 10.7439 144.37 11.2804C144.37 11.712 144.182 11.8419 143.559 11.8419C141.785 11.8419 141.825 12.1631 144.509 19.5058C145.876 23.2435 147.203 26.794 147.458 27.3957L147.921 28.4899L150.073 22.763C152.607 16.0218 152.936 14.7751 152.505 13.5457C152.206 12.6887 151.04 11.8419 150.16 11.8419C149.911 11.8419 149.723 11.6005 149.723 11.2804C149.723 10.743 149.911 10.7189 154.091 10.7189C158.27 10.7189 158.458 10.743 158.458 11.2804C158.458 11.68 158.27 11.8419 157.807 11.8419C156.623 11.8419 156.1 12.4715 156.271 13.6945C156.446 14.9534 161.292 28.4844 161.495 28.282C161.826 27.9527 167.193 13.3865 167.193 12.8187C167.193 12.1385 166.715 11.8419 165.62 11.8419C165.126 11.8419 164.938 11.6873 164.938 11.2804C164.938 10.75 165.126 10.7189 168.32 10.7189C171.188 10.7189 171.701 10.7852 171.701 11.1546C171.701 11.3944 171.35 11.7125 170.92 11.8616C169.954 12.1971 169.712 12.5801 168.5 15.6823C167.968 17.0445 166.303 21.3081 164.799 25.1562C163.296 29.0048 162.001 32.3215 161.923 32.5265C161.843 32.7318 161.377 32.8996 160.887 32.8996H159.995L157.971 27.6352C156.858 24.74 155.542 21.3098 155.049 20.0127C154.202 17.7901 154.131 17.6935 153.812 18.3279C153.626 18.6986 152.289 22.1349 150.84 25.9643L148.206 32.9271L147.223 32.8432L146.24 32.7593L142.491 22.9543C140.396 17.4762 138.47 12.8606 138.125 12.4956C137.786 12.1359 137.229 11.8419 136.887 11.8419ZM193.226 11.961C193.179 11.8544 193.179 11.4711 193.179 11.4711C193.179 11.4711 193.169 11.3328 193.227 11.2591C193.284 11.1856 193.305 11.1836 193.512 11.1639L193.514 11.1637C194.275 11.0914 195.801 10.9696 197.075 10.914C197.191 10.9089 197.321 10.903 197.462 10.8966L197.465 10.8965L197.467 10.8964L197.468 10.8964C198.87 10.8328 201.378 10.7477 203.103 10.8339C206.411 10.9992 208.764 12.5982 209.565 15.2407C210.367 17.8831 209.943 20.3636 208.85 21.9424C207.757 23.5213 205.919 24.8808 202.865 24.7923C200.343 24.7193 199.668 24.247 199.129 23.8698C199.015 23.79 198.907 23.7144 198.789 23.648V27.0178C198.815 29.316 198.835 30.4198 199.013 30.8284C199.252 31.3785 199.794 31.7174 200.85 31.9771C200.85 31.9771 201.328 32.0892 201.452 32.2086C201.575 32.328 201.575 32.5932 201.575 32.5932C201.575 32.5932 201.6 32.8412 201.501 32.9676C201.402 33.094 201.211 33.0687 201.211 33.0687L196.534 33.031L193.714 33.0236C193.714 33.0236 193.418 33.0803 193.307 32.9613C193.196 32.8421 193.207 32.5939 193.207 32.5939C193.207 32.5939 193.231 32.3265 193.361 32.2068C193.49 32.087 193.971 31.9532 193.971 31.9532C195.059 31.6479 195.53 31.3249 195.777 30.7164C195.975 30.2259 195.977 29.3162 195.975 21.893C195.973 14.8532 195.963 13.5401 195.801 13.1624C195.562 12.6034 194.964 12.4552 194.112 12.2443L194.112 12.2443C193.943 12.2024 193.764 12.1582 193.576 12.1077C193.576 12.1077 193.273 12.0677 193.226 11.961ZM206.843 17.7053C206.843 18.8596 206.823 20.6669 205.594 21.8222C204.365 22.9774 201.946 23.2936 200.303 22.9719C199.785 22.8706 199.49 22.7144 199.261 22.5938L199.238 22.5819L198.818 22.3604L198.794 18.3046C198.778 15.7633 198.805 14.1077 198.865 13.871C198.92 12.531 200.896 12.3643 201.862 12.4139C205.994 12.4139 206.723 15.8952 206.843 17.7053ZM180.252 10.8761C180.252 10.8761 180.05 10.9536 179.744 11.0696L178.641 11.6394L177.846 13.6227C177.41 14.7135 176.61 16.7159 176.07 18.0725C175.087 20.5434 174.438 22.1667 173.754 23.8611C173.553 24.3595 172.946 25.8771 172.405 27.2337C171.865 28.5901 171.324 29.8811 171.204 30.1025C171.184 30.1394 171.163 30.179 171.141 30.2209C170.839 30.7892 170.313 31.7764 169.386 31.9257C169.386 31.9257 168.876 31.9758 168.687 32.1624C168.498 32.3491 168.516 32.5017 168.516 32.5017V32.7368C168.516 32.7368 168.533 32.8508 168.64 32.9075C168.747 32.9644 168.892 32.9676 168.892 32.9676L172.286 32.9291H175.793C175.793 32.9291 176.041 32.958 176.137 32.8787C176.232 32.7994 176.259 32.6817 176.259 32.6817V32.4341C176.259 32.4341 176.21 32.1657 176.071 32.0608C175.932 31.9562 175.412 31.8845 175.412 31.8845C174.007 31.6999 173.766 30.638 173.939 29.683C174.024 29.2138 174.588 27.4782 175.224 25.7309L175.444 25.127L179.119 25.0989C181.14 25.0834 182.885 25.0939 182.997 25.1222C183.156 25.1625 183.38 25.6161 184.035 27.2313C185.029 29.6787 185.108 29.9768 184.888 30.4347C184.875 30.4625 184.861 30.4933 184.845 30.5264C184.639 30.9692 184.238 31.8296 183.228 31.9172C183.228 31.9172 182.693 31.9357 182.559 32.0959C182.426 32.2563 182.455 32.4407 182.455 32.4407V32.6856C182.455 32.6856 182.491 32.8292 182.559 32.8861C182.628 32.943 182.744 32.9286 182.744 32.9286L186.08 32.9046L190.769 32.9044C190.769 32.9044 190.953 32.924 191.003 32.8534C191.053 32.7826 191.064 32.6994 191.064 32.6994V32.374C191.064 32.374 191.043 32.201 190.953 32.1055C190.863 32.0103 190.255 31.9096 190.255 31.9096C189.478 31.7843 189.091 31.1431 188.803 30.6657C188.73 30.5438 188.663 30.4327 188.597 30.3436C188.464 30.1616 187.987 29.1644 187.613 28.2053C187.24 27.2462 186.398 25.0795 185.741 23.3908C185.085 21.7021 184.169 19.3463 183.706 18.156C183.243 16.9654 182.363 14.7003 181.75 13.1222C181.65 12.8632 181.56 12.6306 181.479 12.4223L181.479 12.4214C181.068 11.3617 180.902 10.934 180.857 10.8761C180.709 10.6882 180.252 10.8761 180.252 10.8761ZM180.033 17.3248C179.885 16.965 179.625 16.3195 179.455 15.8904C179.145 15.1104 179.028 14.9308 178.932 15.0919C178.904 15.139 178.709 15.672 178.499 16.2766C177.139 20.1905 176.523 21.9529 176.4 22.285C176.322 22.4938 176.259 22.7089 176.259 22.7632C176.259 22.8255 177.365 22.8619 179.26 22.8619C180.911 22.8619 182.261 22.8414 182.261 22.8163C182.261 22.7913 182.114 22.4178 181.934 21.9858C181.754 21.5539 181.313 20.4758 180.955 19.5899C180.596 18.704 180.182 17.6848 180.033 17.3248Z" fill="#121212"/>
</g>
<defs>
<clipPath id="clip0_4157_5720">
<rect width="210.526" height="40" fill="white" transform="translate(0.0371094)"/>
</clipPath>
</defs>
</svg>
