<svg width="339" height="71" viewBox="0 0 339 71" fill="none" xmlns="http://www.w3.org/2000/svg">
<path d="M99.4957 48.8596C99.0957 49.5296 98.5957 50.0996 97.9857 50.5696C97.3757 51.0396 96.6957 51.3996 95.9257 51.6396C95.1657 51.8896 94.3357 52.0096 93.4357 52.0096C91.8257 52.0096 90.4157 51.6196 89.1957 50.8296C87.9757 50.0496 87.0257 48.8796 86.3357 47.3396C85.6457 45.7996 85.3057 43.8996 85.3057 41.6496C85.3057 39.3996 85.6457 37.5596 86.3157 36.0096C86.9857 34.4596 87.9357 33.2796 89.1757 32.4696C90.4057 31.6596 91.8357 31.2496 93.4557 31.2496C94.3557 31.2496 95.1857 31.3696 95.9557 31.6196C96.7257 31.8696 97.4057 32.2196 98.0057 32.6896C98.5957 33.1596 99.0957 33.7296 99.4957 34.3896C99.8957 35.0596 100.166 35.8096 100.306 36.6696H106.796C106.556 34.9196 106.066 33.3596 105.306 31.9796C104.546 30.5996 103.576 29.4396 102.386 28.4796C101.196 27.5296 99.8357 26.7996 98.3057 26.3096C96.7757 25.8096 95.1157 25.5596 93.3357 25.5596C90.5957 25.5596 88.1257 26.1896 85.9257 27.4496C83.7257 28.7096 81.9957 30.5396 80.7157 32.9396C79.4457 35.3396 78.8057 38.2396 78.8057 41.6396C78.8057 45.0396 79.4357 47.9196 80.7057 50.3096C81.9757 52.6996 83.7057 54.5296 85.8957 55.7896C88.0857 57.0496 90.5657 57.6796 93.3357 57.6796C95.3057 57.6796 97.0857 57.3796 98.6657 56.7796C100.246 56.1796 101.616 55.3496 102.756 54.2996C103.906 53.2496 104.826 52.0596 105.516 50.7296C106.206 49.3996 106.636 48.0096 106.806 46.5696H100.316C100.166 47.4096 99.8857 48.1696 99.4857 48.8396L99.4957 48.8596Z" fill="white"/>
<path d="M118.196 33.7998H111.896V57.2698H118.196V33.7998Z" fill="white"/>
<path d="M115.046 24.2698C114.096 24.2698 113.286 24.5798 112.606 25.2098C111.926 25.8398 111.596 26.5998 111.596 27.4998C111.596 28.3998 111.936 29.1598 112.606 29.7898C113.276 30.4198 114.086 30.7298 115.046 30.7298C116.006 30.7298 116.816 30.4198 117.496 29.7898C118.176 29.1598 118.516 28.3998 118.516 27.4998C118.516 26.5998 118.176 25.8198 117.496 25.1998C116.816 24.5798 116.006 24.2698 115.046 24.2698Z" fill="white"/>
<path d="M135.085 52.4997C134.655 52.5597 134.315 52.5897 134.075 52.5897C133.305 52.5897 132.755 52.4097 132.425 52.0497C132.095 51.6897 131.935 51.1397 131.935 50.3997V38.5997H136.325V33.7897H131.935V28.2097H125.635V33.7897H122.405V38.5997H125.635V50.9497C125.635 53.0897 126.255 54.7397 127.505 55.8797C128.755 57.0297 130.545 57.5997 132.905 57.5997C133.535 57.5997 134.195 57.5597 134.885 57.4697C135.575 57.3897 136.275 57.2397 136.975 57.0297L136.075 52.3097C135.855 52.3697 135.525 52.4297 135.085 52.4897V52.4997Z" fill="white"/>
<path d="M153.156 33.4897C151.836 33.4897 150.676 33.8597 149.656 34.5997C148.646 35.3397 147.916 36.4397 147.486 37.8997H147.236V33.8097H141.146V57.2797H147.446V43.9297C147.446 42.9497 147.656 42.0897 148.086 41.3597C148.516 40.6297 149.106 40.0497 149.876 39.6397C150.646 39.2297 151.506 39.0197 152.456 39.0197C152.936 39.0197 153.436 39.0497 153.966 39.0997C154.496 39.1597 154.906 39.2297 155.186 39.3297V33.6997C154.896 33.6297 154.556 33.5797 154.186 33.5397C153.816 33.5097 153.466 33.4897 153.146 33.4897H153.156Z" fill="white"/>
<path d="M174.186 47.3898C174.186 48.4298 173.996 49.3098 173.606 50.0498C173.216 50.7898 172.686 51.3398 171.996 51.7298C171.306 52.1198 170.516 52.3098 169.626 52.3098C168.306 52.3098 167.276 51.8998 166.516 51.0698C165.756 50.2398 165.386 49.0998 165.386 47.6498V33.8098H159.086V48.7398C159.086 50.5698 159.416 52.1498 160.086 53.4698C160.756 54.7898 161.696 55.8098 162.906 56.5098C164.126 57.2198 165.546 57.5698 167.166 57.5698C169.116 57.5698 170.716 57.0398 171.986 55.9698C173.046 55.0798 173.866 53.8598 174.466 52.3298L174.536 57.2698H180.476V33.7998H174.176V47.3798L174.186 47.3898Z" fill="white"/>
<path d="M198.696 43.6898L194.476 42.8498C193.366 42.6298 192.586 42.3098 192.136 41.9098C191.676 41.4998 191.456 40.9998 191.456 40.3998C191.456 39.6898 191.806 39.1098 192.506 38.6798C193.206 38.2498 194.076 38.0298 195.106 38.0298C196.256 38.0298 197.166 38.2898 197.846 38.7998C198.526 39.3098 198.986 39.9698 199.226 40.7598L204.806 39.7698C204.526 38.4998 203.966 37.3898 203.126 36.4498C202.286 35.5098 201.186 34.7898 199.826 34.2798C198.466 33.7698 196.866 33.5098 195.016 33.5098C193.026 33.5098 191.296 33.7998 189.826 34.3898C188.356 34.9798 187.206 35.8098 186.386 36.8998C185.556 37.9798 185.146 39.2798 185.146 40.7898C185.146 42.5398 185.706 43.9698 186.826 45.0798C187.946 46.1898 189.636 46.9798 191.906 47.4398L195.956 48.2798C196.976 48.4898 197.736 48.7898 198.236 49.1798C198.736 49.5698 198.986 50.0798 198.986 50.6898C198.986 51.3898 198.636 51.9698 197.936 52.4198C197.236 52.8798 196.296 53.0998 195.106 53.0998C193.816 53.0998 192.786 52.8298 192.016 52.2798C191.246 51.7298 190.706 50.9198 190.396 49.8198L184.536 50.8298C184.806 52.2898 185.396 53.5298 186.326 54.5598C187.256 55.5898 188.436 56.3698 189.896 56.9098C191.356 57.4498 193.026 57.7198 194.916 57.7198C196.976 57.7198 198.786 57.3998 200.366 56.7498C201.946 56.0998 203.176 55.2098 204.076 54.0498C204.976 52.8898 205.416 51.5498 205.416 50.0098C205.416 48.3298 204.866 46.9698 203.756 45.9298C202.646 44.8898 200.966 44.1298 198.696 43.6698V43.6898Z" fill="white"/>
<path d="M236.246 27.8697C233.986 26.6197 231.286 25.9897 228.156 25.9897H217.046V57.2697H228.026C231.206 57.2697 233.936 56.6397 236.216 55.3897C238.496 54.1397 240.246 52.3397 241.466 49.9997C242.686 47.6597 243.296 44.8597 243.296 41.5997C243.296 38.3397 242.686 35.5597 241.466 33.2297C240.246 30.8997 238.506 29.1097 236.246 27.8497V27.8697ZM235.876 47.3597C235.186 48.8597 234.166 49.9597 232.796 50.6797C231.436 51.3897 229.746 51.7497 227.726 51.7497H223.446V31.5097H227.776C229.776 31.5097 231.456 31.8697 232.806 32.5797C234.156 33.2897 235.176 34.3997 235.876 35.8897C236.566 37.3797 236.916 39.2897 236.916 41.6097C236.916 43.9297 236.576 45.8697 235.886 47.3597H235.876Z" fill="white"/>
<path d="M264.916 35.0298C263.206 34.0198 261.166 33.5098 258.796 33.5098C256.426 33.5098 254.406 34.0198 252.686 35.0298C250.966 36.0498 249.636 37.4598 248.706 39.2698C247.776 41.0798 247.306 43.2098 247.306 45.6398C247.306 48.0698 247.776 50.1598 248.706 51.9698C249.636 53.7798 250.966 55.1998 252.686 56.2098C254.406 57.2298 256.446 57.7298 258.796 57.7298C261.146 57.7298 263.206 57.2198 264.916 56.2098C266.626 55.1998 267.956 53.7798 268.886 51.9698C269.816 50.1598 270.286 48.0498 270.286 45.6398C270.286 43.2298 269.816 41.0798 268.886 39.2698C267.956 37.4598 266.636 36.0398 264.916 35.0298ZM263.306 49.2898C262.926 50.3698 262.366 51.2298 261.606 51.8498C260.846 52.4698 259.916 52.7798 258.796 52.7798C257.676 52.7798 256.746 52.4698 255.996 51.8498C255.246 51.2298 254.686 50.3698 254.306 49.2898C253.926 48.2098 253.736 46.9798 253.736 45.6298C253.736 44.2798 253.926 43.0098 254.306 41.9298C254.686 40.8498 255.246 40.0098 255.996 39.3898C256.746 38.7698 257.676 38.4698 258.796 38.4698C259.916 38.4698 260.856 38.7798 261.606 39.3898C262.366 40.0098 262.926 40.8498 263.306 41.9298C263.686 43.0098 263.876 44.2398 263.876 45.6298C263.876 47.0198 263.686 48.2098 263.306 49.2898Z" fill="white"/>
<path d="M281.006 25.9897H274.706V57.2697H281.006V25.9897Z" fill="white"/>
<path d="M293.046 25.9897H286.746V57.2697H293.046V25.9897Z" fill="white"/>
<path d="M315.515 35.3598C314.575 34.7298 313.505 34.2698 312.315 33.9598C311.125 33.6598 309.895 33.5098 308.615 33.5098C306.875 33.5098 305.315 33.7598 303.925 34.2698C302.535 34.7798 301.365 35.4998 300.425 36.4498C299.485 37.3998 298.815 38.5598 298.405 39.9098L304.175 40.8798C304.355 40.3798 304.635 39.9198 305.015 39.5198C305.395 39.1098 305.885 38.7898 306.485 38.5398C307.085 38.2998 307.795 38.1698 308.605 38.1698C309.415 38.1698 310.075 38.2898 310.625 38.5398C311.175 38.7898 311.585 39.1398 311.865 39.5998C312.145 40.0598 312.285 40.6298 312.285 41.2998V41.3998C312.285 41.8998 312.095 42.2898 311.705 42.5398C311.315 42.7998 310.715 42.9898 309.875 43.1098C309.045 43.2298 307.945 43.3598 306.585 43.4998C305.425 43.6098 304.315 43.8098 303.255 44.0898C302.195 44.3698 301.255 44.7798 300.425 45.3098C299.595 45.8398 298.935 46.5498 298.455 47.4298C297.975 48.3098 297.735 49.3998 297.735 50.7098C297.735 52.2598 298.075 53.5598 298.755 54.5998C299.435 55.6398 300.365 56.4298 301.545 56.9498C302.725 57.4698 304.065 57.7398 305.545 57.7398C306.705 57.7398 307.735 57.5798 308.625 57.2598C309.515 56.9398 310.275 56.4998 310.905 55.9498C311.535 55.3998 312.035 54.7598 312.415 54.0298H312.625V57.2798H318.585V41.4698C318.585 40.0398 318.305 38.8198 317.755 37.8198C317.205 36.8098 316.455 35.9898 315.505 35.3598H315.515ZM312.335 48.8798C312.335 49.7098 312.125 50.4498 311.705 51.1298C311.285 51.8098 310.705 52.3298 309.955 52.7298C309.205 53.1198 308.335 53.3198 307.345 53.3198C306.645 53.3198 306.035 53.2198 305.505 53.0098C304.975 52.7998 304.565 52.4898 304.255 52.0798C303.945 51.6698 303.795 51.1598 303.795 50.5598C303.795 49.9198 303.955 49.3898 304.275 48.9698C304.595 48.5598 305.055 48.2198 305.635 47.9698C306.215 47.7198 306.905 47.5398 307.675 47.4198C308.025 47.3798 308.425 47.3198 308.875 47.2498C309.325 47.1798 309.775 47.0998 310.235 47.0198C310.695 46.9398 311.115 46.8398 311.495 46.7298C311.875 46.6198 312.155 46.4898 312.335 46.3498V48.8898V48.8798Z" fill="white"/>
<path d="M337.146 33.5397C336.776 33.5097 336.426 33.4897 336.106 33.4897C334.786 33.4897 333.626 33.8597 332.606 34.5997C331.586 35.3397 330.866 36.4397 330.436 37.8997H330.186V33.8097H324.096V57.2797H330.396V43.9297C330.396 42.9497 330.606 42.0897 331.036 41.3597C331.466 40.6297 332.066 40.0497 332.826 39.6397C333.596 39.2297 334.456 39.0197 335.406 39.0197C335.886 39.0197 336.386 39.0497 336.916 39.0997C337.446 39.1597 337.856 39.2297 338.136 39.3297V33.6997C337.846 33.6297 337.506 33.5797 337.136 33.5397H337.146Z" fill="white"/>
<path d="M50.0674 10.3699C54.2054 8.86287 57.2427 5.67642 58.6906 1.8573C55.1287 -0.135837 50.7515 -0.624475 46.6135 0.880025C42.4755 2.3871 39.4382 5.57354 37.9902 9.39266C41.5522 11.3858 45.9294 11.8744 50.0674 10.3699Z" fill="#F7911A"/>
<path d="M30.3906 10.8148C13.8231 10.8148 0.390625 24.2473 0.390625 40.8148C0.390625 57.3823 13.8231 70.8148 30.3906 70.8148C46.9581 70.8148 60.3906 57.3823 60.3906 40.8148C60.3906 24.2473 46.9581 10.8148 30.3906 10.8148Z" fill="#F7911A"/>
<path d="M39.3201 45.3298C38.8601 44.2598 38.1801 43.2898 37.2801 42.4098C36.3801 41.5398 35.4001 40.7198 34.3201 39.9498C33.2401 39.1798 32.2401 38.4398 31.3001 37.7198C30.3601 36.9998 29.6301 36.2798 29.1001 35.5498C28.5701 34.8198 28.4101 34.0598 28.6101 33.2498C28.8601 32.2598 29.4601 31.5998 30.4201 31.2698C31.3801 30.9398 32.5101 30.9398 33.8201 31.2698C34.5801 31.4598 35.4501 31.7498 36.0401 32.1098C38.6201 33.6898 38.4101 36.3998 38.4101 36.3998L38.5101 36.4298L41.1601 37.0898L42.3901 32.1598C42.3901 32.1598 40.2601 30.7598 38.6201 29.9498C37.6801 29.4798 36.5101 29.0098 35.4001 28.6398L36.6701 23.5398L33.5301 22.7598L32.2701 27.8198C30.8601 27.5698 29.5301 27.5098 28.2801 27.6498C26.6501 27.8198 25.2801 28.3098 24.1601 29.1198C23.0501 29.9198 22.3101 31.0398 21.9601 32.4698C21.6201 33.8298 21.6701 35.0398 22.1101 36.1198C22.5501 37.1998 23.2301 38.1798 24.1401 39.0798C25.0501 39.9698 26.0401 40.7898 27.1201 41.5498C28.2001 42.2998 29.2001 43.0498 30.1401 43.7798C31.0701 44.5098 31.8001 45.2498 32.3201 46.0098C32.8401 46.7598 32.9901 47.5798 32.7701 48.4698C32.5001 49.5698 31.8301 50.2698 30.7701 50.5898C29.7101 50.9098 28.5101 50.8998 27.1801 50.5698C26.7101 50.4498 26.1501 50.2498 25.5901 49.9998C23.9501 49.2898 22.7701 47.8698 22.4101 46.2198C22.3501 45.9498 22.3101 45.7698 22.3101 45.7698L19.5601 45.0798L18.3701 49.8598C19.1801 50.4198 19.9901 51.0198 21.6701 51.8698C23.0901 52.5898 24.2501 53.0898 25.8701 53.5398L24.6401 58.4798L27.7801 59.2598L29.0401 54.1898C30.2201 54.3398 31.3701 54.3698 32.4701 54.2598C34.2501 54.0798 35.7701 53.5498 37.0201 52.6698C38.2701 51.7898 39.0901 50.5598 39.4901 48.9698C39.8301 47.6098 39.7701 46.3998 39.3101 45.3298H39.3201Z" fill="white"/>
</svg>
