<svg width="339" height="71" viewBox="0 0 339 71" fill="none" xmlns="http://www.w3.org/2000/svg">
<path d="M99.8502 48.8596C99.4502 49.5296 98.9502 50.0996 98.3402 50.5696C97.7302 51.0396 97.0502 51.3996 96.2802 51.6396C95.5202 51.8896 94.6902 52.0096 93.7902 52.0096C92.1802 52.0096 90.7702 51.6196 89.5502 50.8296C88.3302 50.0496 87.3802 48.8796 86.6902 47.3396C86.0002 45.7996 85.6602 43.8996 85.6602 41.6496C85.6602 39.3996 86.0002 37.5596 86.6702 36.0096C87.3402 34.4596 88.2902 33.2796 89.5302 32.4696C90.7602 31.6596 92.1902 31.2496 93.8102 31.2496C94.7102 31.2496 95.5402 31.3696 96.3102 31.6196C97.0802 31.8696 97.7602 32.2196 98.3602 32.6896C98.9502 33.1596 99.4502 33.7296 99.8502 34.3896C100.25 35.0596 100.52 35.8096 100.66 36.6696H107.15C106.91 34.9196 106.42 33.3596 105.66 31.9796C104.9 30.5996 103.93 29.4396 102.74 28.4796C101.55 27.5296 100.19 26.7996 98.6602 26.3096C97.1302 25.8096 95.4702 25.5596 93.6902 25.5596C90.9502 25.5596 88.4802 26.1896 86.2802 27.4496C84.0802 28.7096 82.3502 30.5396 81.0702 32.9396C79.8002 35.3396 79.1602 38.2396 79.1602 41.6396C79.1602 45.0396 79.7902 47.9196 81.0602 50.3096C82.3302 52.6996 84.0602 54.5296 86.2502 55.7896C88.4402 57.0496 90.9202 57.6796 93.6902 57.6796C95.6602 57.6796 97.4402 57.3796 99.0202 56.7796C100.6 56.1796 101.97 55.3496 103.11 54.2996C104.26 53.2496 105.18 52.0596 105.87 50.7296C106.56 49.3996 106.99 48.0096 107.16 46.5696H100.67C100.52 47.4096 100.24 48.1696 99.8402 48.8396L99.8502 48.8596Z" fill="white"/>
<path d="M118.55 33.7998H112.25V57.2698H118.55V33.7998Z" fill="white"/>
<path d="M115.4 24.2698C114.45 24.2698 113.64 24.5798 112.96 25.2098C112.28 25.8398 111.95 26.5998 111.95 27.4998C111.95 28.3998 112.29 29.1598 112.96 29.7898C113.63 30.4198 114.44 30.7298 115.4 30.7298C116.36 30.7298 117.17 30.4198 117.85 29.7898C118.53 29.1598 118.87 28.3998 118.87 27.4998C118.87 26.5998 118.53 25.8198 117.85 25.1998C117.17 24.5798 116.36 24.2698 115.4 24.2698Z" fill="white"/>
<path d="M135.44 52.4997C135.01 52.5597 134.67 52.5897 134.43 52.5897C133.66 52.5897 133.11 52.4097 132.78 52.0497C132.45 51.6897 132.29 51.1397 132.29 50.3997V38.5997H136.68V33.7897H132.29V28.2097H125.99V33.7897H122.76V38.5997H125.99V50.9497C125.99 53.0897 126.61 54.7397 127.86 55.8797C129.11 57.0297 130.9 57.5997 133.26 57.5997C133.89 57.5997 134.55 57.5597 135.24 57.4697C135.93 57.3897 136.63 57.2397 137.33 57.0297L136.43 52.3097C136.21 52.3697 135.88 52.4297 135.44 52.4897V52.4997Z" fill="white"/>
<path d="M153.51 33.4897C152.19 33.4897 151.03 33.8597 150.01 34.5997C149 35.3397 148.27 36.4397 147.84 37.8997H147.59V33.8097H141.5V57.2797H147.8V43.9297C147.8 42.9497 148.01 42.0897 148.44 41.3597C148.87 40.6297 149.46 40.0497 150.23 39.6397C151 39.2297 151.86 39.0197 152.81 39.0197C153.29 39.0197 153.79 39.0497 154.32 39.0997C154.85 39.1597 155.26 39.2297 155.54 39.3297V33.6997C155.25 33.6297 154.91 33.5797 154.54 33.5397C154.17 33.5097 153.82 33.4897 153.5 33.4897H153.51Z" fill="white"/>
<path d="M174.54 47.3898C174.54 48.4298 174.35 49.3098 173.96 50.0498C173.57 50.7898 173.04 51.3398 172.35 51.7298C171.66 52.1198 170.87 52.3098 169.98 52.3098C168.66 52.3098 167.63 51.8998 166.87 51.0698C166.11 50.2398 165.74 49.0998 165.74 47.6498V33.8098H159.44V48.7398C159.44 50.5698 159.77 52.1498 160.44 53.4698C161.11 54.7898 162.05 55.8098 163.26 56.5098C164.48 57.2198 165.9 57.5698 167.52 57.5698C169.47 57.5698 171.07 57.0398 172.34 55.9698C173.4 55.0798 174.22 53.8598 174.82 52.3298L174.89 57.2698H180.83V33.7998H174.53V47.3798L174.54 47.3898Z" fill="white"/>
<path d="M199.051 43.6898L194.831 42.8498C193.721 42.6298 192.941 42.3098 192.491 41.9098C192.031 41.4998 191.811 40.9998 191.811 40.3998C191.811 39.6898 192.161 39.1098 192.861 38.6798C193.561 38.2498 194.431 38.0298 195.461 38.0298C196.611 38.0298 197.521 38.2898 198.201 38.7998C198.881 39.3098 199.341 39.9698 199.581 40.7598L205.161 39.7698C204.881 38.4998 204.321 37.3898 203.481 36.4498C202.641 35.5098 201.541 34.7898 200.181 34.2798C198.821 33.7698 197.221 33.5098 195.371 33.5098C193.381 33.5098 191.651 33.7998 190.181 34.3898C188.711 34.9798 187.561 35.8098 186.741 36.8998C185.911 37.9798 185.501 39.2798 185.501 40.7898C185.501 42.5398 186.061 43.9698 187.181 45.0798C188.301 46.1898 189.991 46.9798 192.261 47.4398L196.311 48.2798C197.331 48.4898 198.091 48.7898 198.591 49.1798C199.091 49.5698 199.341 50.0798 199.341 50.6898C199.341 51.3898 198.991 51.9698 198.291 52.4198C197.591 52.8798 196.651 53.0998 195.461 53.0998C194.171 53.0998 193.141 52.8298 192.371 52.2798C191.601 51.7298 191.061 50.9198 190.751 49.8198L184.891 50.8298C185.161 52.2898 185.751 53.5298 186.681 54.5598C187.611 55.5898 188.791 56.3698 190.251 56.9098C191.711 57.4498 193.381 57.7198 195.271 57.7198C197.331 57.7198 199.141 57.3998 200.721 56.7498C202.301 56.0998 203.531 55.2098 204.431 54.0498C205.331 52.8898 205.771 51.5498 205.771 50.0098C205.771 48.3298 205.221 46.9698 204.111 45.9298C203.001 44.8898 201.321 44.1298 199.051 43.6698V43.6898Z" fill="white"/>
<path d="M236.6 27.8697C234.34 26.6197 231.64 25.9897 228.51 25.9897H217.4V57.2697H228.38C231.56 57.2697 234.29 56.6397 236.57 55.3897C238.85 54.1397 240.6 52.3397 241.82 49.9997C243.04 47.6597 243.65 44.8597 243.65 41.5997C243.65 38.3397 243.04 35.5597 241.82 33.2297C240.6 30.8997 238.86 29.1097 236.6 27.8497V27.8697ZM236.23 47.3597C235.54 48.8597 234.52 49.9597 233.15 50.6797C231.79 51.3897 230.1 51.7497 228.08 51.7497H223.8V31.5097H228.13C230.13 31.5097 231.81 31.8697 233.16 32.5797C234.51 33.2897 235.53 34.3997 236.23 35.8897C236.92 37.3797 237.27 39.2897 237.27 41.6097C237.27 43.9297 236.93 45.8697 236.24 47.3597H236.23Z" fill="white"/>
<path d="M265.27 35.0298C263.56 34.0198 261.52 33.5098 259.15 33.5098C256.78 33.5098 254.76 34.0198 253.04 35.0298C251.32 36.0498 249.99 37.4598 249.06 39.2698C248.13 41.0798 247.66 43.2098 247.66 45.6398C247.66 48.0698 248.13 50.1598 249.06 51.9698C249.99 53.7798 251.32 55.1998 253.04 56.2098C254.76 57.2298 256.8 57.7298 259.15 57.7298C261.5 57.7298 263.56 57.2198 265.27 56.2098C266.98 55.1998 268.31 53.7798 269.24 51.9698C270.17 50.1598 270.64 48.0498 270.64 45.6398C270.64 43.2298 270.17 41.0798 269.24 39.2698C268.31 37.4598 266.99 36.0398 265.27 35.0298ZM263.66 49.2898C263.28 50.3698 262.72 51.2298 261.96 51.8498C261.2 52.4698 260.27 52.7798 259.15 52.7798C258.03 52.7798 257.1 52.4698 256.35 51.8498C255.6 51.2298 255.04 50.3698 254.66 49.2898C254.28 48.2098 254.09 46.9798 254.09 45.6298C254.09 44.2798 254.28 43.0098 254.66 41.9298C255.04 40.8498 255.6 40.0098 256.35 39.3898C257.1 38.7698 258.03 38.4698 259.15 38.4698C260.27 38.4698 261.21 38.7798 261.96 39.3898C262.72 40.0098 263.28 40.8498 263.66 41.9298C264.04 43.0098 264.23 44.2398 264.23 45.6298C264.23 47.0198 264.04 48.2098 263.66 49.2898Z" fill="white"/>
<path d="M281.361 25.9897H275.061V57.2697H281.361V25.9897Z" fill="white"/>
<path d="M293.401 25.9897H287.101V57.2697H293.401V25.9897Z" fill="white"/>
<path d="M315.87 35.3598C314.93 34.7298 313.86 34.2698 312.67 33.9598C311.48 33.6598 310.25 33.5098 308.97 33.5098C307.23 33.5098 305.67 33.7598 304.28 34.2698C302.89 34.7798 301.72 35.4998 300.78 36.4498C299.84 37.3998 299.17 38.5598 298.76 39.9098L304.53 40.8798C304.71 40.3798 304.99 39.9198 305.37 39.5198C305.75 39.1098 306.24 38.7898 306.84 38.5398C307.44 38.2998 308.15 38.1698 308.96 38.1698C309.77 38.1698 310.43 38.2898 310.98 38.5398C311.53 38.7898 311.94 39.1398 312.22 39.5998C312.5 40.0598 312.64 40.6298 312.64 41.2998V41.3998C312.64 41.8998 312.45 42.2898 312.06 42.5398C311.67 42.7998 311.07 42.9898 310.23 43.1098C309.4 43.2298 308.3 43.3598 306.94 43.4998C305.78 43.6098 304.67 43.8098 303.61 44.0898C302.55 44.3698 301.61 44.7798 300.78 45.3098C299.95 45.8398 299.29 46.5498 298.81 47.4298C298.33 48.3098 298.09 49.3998 298.09 50.7098C298.09 52.2598 298.43 53.5598 299.11 54.5998C299.79 55.6398 300.72 56.4298 301.9 56.9498C303.08 57.4698 304.42 57.7398 305.9 57.7398C307.06 57.7398 308.09 57.5798 308.98 57.2598C309.87 56.9398 310.63 56.4998 311.26 55.9498C311.89 55.3998 312.39 54.7598 312.77 54.0298H312.98V57.2798H318.94V41.4698C318.94 40.0398 318.66 38.8198 318.11 37.8198C317.56 36.8098 316.81 35.9898 315.86 35.3598H315.87ZM312.69 48.8798C312.69 49.7098 312.48 50.4498 312.06 51.1298C311.64 51.8098 311.06 52.3298 310.31 52.7298C309.56 53.1198 308.69 53.3198 307.7 53.3198C307 53.3198 306.39 53.2198 305.86 53.0098C305.33 52.7998 304.92 52.4898 304.61 52.0798C304.3 51.6698 304.15 51.1598 304.15 50.5598C304.15 49.9198 304.31 49.3898 304.63 48.9698C304.95 48.5598 305.41 48.2198 305.99 47.9698C306.57 47.7198 307.26 47.5398 308.03 47.4198C308.38 47.3798 308.78 47.3198 309.23 47.2498C309.68 47.1798 310.13 47.0998 310.59 47.0198C311.05 46.9398 311.47 46.8398 311.85 46.7298C312.23 46.6198 312.51 46.4898 312.69 46.3498V48.8898V48.8798Z" fill="white"/>
<path d="M337.5 33.5397C337.13 33.5097 336.78 33.4897 336.46 33.4897C335.14 33.4897 333.98 33.8597 332.96 34.5997C331.94 35.3397 331.22 36.4397 330.79 37.8997H330.54V33.8097H324.45V57.2797H330.75V43.9297C330.75 42.9497 330.96 42.0897 331.39 41.3597C331.82 40.6297 332.42 40.0497 333.18 39.6397C333.95 39.2297 334.81 39.0197 335.76 39.0197C336.24 39.0197 336.74 39.0497 337.27 39.0997C337.8 39.1597 338.21 39.2297 338.49 39.3297V33.6997C338.2 33.6297 337.86 33.5797 337.49 33.5397H337.5Z" fill="white"/>
<path d="M30.7451 10.8145C47.3125 10.8145 60.745 24.2471 60.7451 40.8145C60.7451 57.382 47.3126 70.8145 30.7451 70.8145C14.1776 70.8145 0.745117 57.382 0.745117 40.8145C0.745284 24.2471 14.1777 10.8145 30.7451 10.8145ZM32.625 27.8193C31.2151 27.5693 29.8847 27.5094 28.6348 27.6494C27.0048 27.8194 25.6346 28.3101 24.5146 29.1201C23.4047 29.9201 22.6644 31.0398 22.3145 32.4697C21.9745 33.8297 22.0248 35.0401 22.4648 36.1201C22.9048 37.1999 23.5843 38.1802 24.4941 39.0801C25.4041 39.9701 26.3946 40.7898 27.4746 41.5498C28.5544 42.2997 29.5543 43.0494 30.4941 43.7793C31.4241 44.5093 32.1548 45.2498 32.6748 46.0098C33.1947 46.7597 33.3449 47.5798 33.125 48.4697C32.855 49.5696 32.1848 50.2698 31.125 50.5898C30.065 50.9098 28.8642 50.8993 27.5342 50.5693C27.0643 50.4493 26.5041 50.2499 25.9443 50C24.3044 49.29 23.1246 47.8697 22.7646 46.2197C22.7047 45.9497 22.665 45.7695 22.665 45.7695L19.915 45.0801L18.7246 49.8594C19.5346 50.4194 20.3444 51.0201 22.0244 51.8701C23.4444 52.5901 24.6046 53.09 26.2246 53.54L24.9941 58.4795L28.1348 59.2598L29.3945 54.1895C30.5744 54.3394 31.7243 54.3697 32.8242 54.2598C34.6042 54.0798 36.125 53.5499 37.375 52.6699C38.6249 51.7899 39.4447 50.5596 39.8447 48.9697C40.1847 47.6099 40.1249 46.4 39.665 45.3301H39.6748C39.2149 44.2602 38.5346 43.2901 37.6348 42.4102C36.7349 41.5402 35.7547 40.7201 34.6748 39.9502C33.5948 39.1802 32.5943 38.4397 31.6543 37.7197C30.7145 36.9999 29.985 36.2797 29.4551 35.5498C28.9251 34.8199 28.7649 34.0599 28.9648 33.25C29.2148 32.26 29.8145 31.5995 30.7744 31.2695C31.7344 30.9395 32.8648 30.9395 34.1748 31.2695C34.9347 31.4595 35.8046 31.7495 36.3945 32.1094C38.9575 33.679 38.7673 36.3641 38.7646 36.3994L38.8643 36.4297L41.5146 37.0898L42.7441 32.1602C42.7237 32.1467 40.6067 30.7563 38.9746 29.9502C38.0347 29.4802 36.8648 29.0096 35.7549 28.6396L37.0244 23.54L33.8848 22.7598L32.625 27.8193ZM46.9678 0.879883C51.1058 -0.624605 55.483 -0.135678 59.0449 1.85742C57.597 5.67647 54.5598 8.86307 50.4219 10.3701C46.2839 11.8746 41.9066 11.3857 38.3447 9.39258C39.7926 5.57353 42.8298 2.38696 46.9678 0.879883Z" fill="white"/>
</svg>
