<svg width="338" height="71" viewBox="0 0 338 71" fill="none" xmlns="http://www.w3.org/2000/svg">
<path d="M99.105 48.8596C98.705 49.5296 98.205 50.0996 97.595 50.5696C96.985 51.0396 96.305 51.3996 95.535 51.6396C94.775 51.8896 93.945 52.0096 93.045 52.0096C91.435 52.0096 90.025 51.6196 88.805 50.8296C87.585 50.0496 86.635 48.8796 85.945 47.3396C85.255 45.7996 84.915 43.8996 84.915 41.6496C84.915 39.3996 85.255 37.5596 85.925 36.0096C86.595 34.4596 87.545 33.2796 88.785 32.4696C90.015 31.6596 91.445 31.2496 93.065 31.2496C93.965 31.2496 94.795 31.3696 95.565 31.6196C96.335 31.8696 97.015 32.2196 97.615 32.6896C98.205 33.1596 98.705 33.7296 99.105 34.3896C99.505 35.0596 99.775 35.8096 99.915 36.6696H106.405C106.165 34.9196 105.675 33.3596 104.915 31.9796C104.155 30.5996 103.185 29.4396 101.995 28.4796C100.805 27.5296 99.445 26.7996 97.915 26.3096C96.385 25.8096 94.725 25.5596 92.945 25.5596C90.205 25.5596 87.735 26.1896 85.535 27.4496C83.335 28.7096 81.605 30.5396 80.325 32.9396C79.055 35.3396 78.415 38.2396 78.415 41.6396C78.415 45.0396 79.045 47.9196 80.315 50.3096C81.585 52.6996 83.315 54.5296 85.505 55.7896C87.695 57.0496 90.175 57.6796 92.945 57.6796C94.915 57.6796 96.695 57.3796 98.275 56.7796C99.855 56.1796 101.225 55.3496 102.365 54.2996C103.515 53.2496 104.435 52.0596 105.125 50.7296C105.815 49.3996 106.245 48.0096 106.415 46.5696H99.925C99.775 47.4096 99.495 48.1696 99.095 48.8396L99.105 48.8596Z" fill="#2A2F30"/>
<path d="M117.805 33.7998H111.505V57.2698H117.805V33.7998Z" fill="#2A2F30"/>
<path d="M114.655 24.2698C113.705 24.2698 112.895 24.5798 112.215 25.2098C111.535 25.8398 111.205 26.5998 111.205 27.4998C111.205 28.3998 111.545 29.1598 112.215 29.7898C112.885 30.4198 113.695 30.7298 114.655 30.7298C115.615 30.7298 116.425 30.4198 117.105 29.7898C117.785 29.1598 118.125 28.3998 118.125 27.4998C118.125 26.5998 117.785 25.8198 117.105 25.1998C116.425 24.5798 115.615 24.2698 114.655 24.2698Z" fill="#2A2F30"/>
<path d="M134.695 52.4997C134.265 52.5597 133.925 52.5897 133.685 52.5897C132.915 52.5897 132.365 52.4097 132.035 52.0497C131.705 51.6897 131.545 51.1397 131.545 50.3997V38.5997H135.935V33.7897H131.545V28.2097H125.245V33.7897H122.015V38.5997H125.245V50.9497C125.245 53.0897 125.865 54.7397 127.115 55.8797C128.365 57.0297 130.155 57.5997 132.515 57.5997C133.145 57.5997 133.805 57.5597 134.495 57.4697C135.185 57.3897 135.885 57.2397 136.585 57.0297L135.685 52.3097C135.465 52.3697 135.135 52.4297 134.695 52.4897V52.4997Z" fill="#2A2F30"/>
<path d="M152.765 33.4897C151.445 33.4897 150.285 33.8597 149.265 34.5997C148.255 35.3397 147.525 36.4397 147.095 37.8997H146.845V33.8097H140.755V57.2797H147.055V43.9297C147.055 42.9497 147.265 42.0897 147.695 41.3597C148.125 40.6297 148.715 40.0497 149.485 39.6397C150.255 39.2297 151.115 39.0197 152.065 39.0197C152.545 39.0197 153.045 39.0497 153.575 39.0997C154.105 39.1597 154.515 39.2297 154.795 39.3297V33.6997C154.505 33.6297 154.165 33.5797 153.795 33.5397C153.425 33.5097 153.075 33.4897 152.755 33.4897H152.765Z" fill="#2A2F30"/>
<path d="M173.795 47.3898C173.795 48.4298 173.605 49.3098 173.215 50.0498C172.825 50.7898 172.295 51.3398 171.605 51.7298C170.915 52.1198 170.125 52.3098 169.235 52.3098C167.915 52.3098 166.885 51.8998 166.125 51.0698C165.365 50.2398 164.995 49.0998 164.995 47.6498V33.8098H158.695V48.7398C158.695 50.5698 159.025 52.1498 159.695 53.4698C160.365 54.7898 161.305 55.8098 162.515 56.5098C163.735 57.2198 165.155 57.5698 166.775 57.5698C168.725 57.5698 170.325 57.0398 171.595 55.9698C172.655 55.0798 173.475 53.8598 174.075 52.3298L174.145 57.2698H180.085V33.7998H173.785V47.3798L173.795 47.3898Z" fill="#2A2F30"/>
<path d="M198.306 43.6898L194.086 42.8498C192.976 42.6298 192.196 42.3098 191.746 41.9098C191.286 41.4998 191.066 40.9998 191.066 40.3998C191.066 39.6898 191.416 39.1098 192.116 38.6798C192.816 38.2498 193.686 38.0298 194.716 38.0298C195.866 38.0298 196.776 38.2898 197.456 38.7998C198.136 39.3098 198.596 39.9698 198.836 40.7598L204.416 39.7698C204.136 38.4998 203.576 37.3898 202.736 36.4498C201.896 35.5098 200.796 34.7898 199.436 34.2798C198.076 33.7698 196.476 33.5098 194.626 33.5098C192.636 33.5098 190.906 33.7998 189.436 34.3898C187.966 34.9798 186.816 35.8098 185.996 36.8998C185.166 37.9798 184.756 39.2798 184.756 40.7898C184.756 42.5398 185.316 43.9698 186.436 45.0798C187.556 46.1898 189.246 46.9798 191.516 47.4398L195.566 48.2798C196.586 48.4898 197.346 48.7898 197.846 49.1798C198.346 49.5698 198.596 50.0798 198.596 50.6898C198.596 51.3898 198.246 51.9698 197.546 52.4198C196.846 52.8798 195.906 53.0998 194.716 53.0998C193.426 53.0998 192.396 52.8298 191.626 52.2798C190.856 51.7298 190.316 50.9198 190.006 49.8198L184.146 50.8298C184.416 52.2898 185.006 53.5298 185.936 54.5598C186.866 55.5898 188.046 56.3698 189.506 56.9098C190.966 57.4498 192.636 57.7198 194.526 57.7198C196.586 57.7198 198.396 57.3998 199.976 56.7498C201.556 56.0998 202.786 55.2098 203.686 54.0498C204.586 52.8898 205.026 51.5498 205.026 50.0098C205.026 48.3298 204.476 46.9698 203.366 45.9298C202.256 44.8898 200.576 44.1298 198.306 43.6698V43.6898Z" fill="#2A2F30"/>
<path d="M235.855 27.8697C233.595 26.6197 230.895 25.9897 227.765 25.9897H216.655V57.2697H227.635C230.815 57.2697 233.545 56.6397 235.825 55.3897C238.105 54.1397 239.855 52.3397 241.075 49.9997C242.295 47.6597 242.905 44.8597 242.905 41.5997C242.905 38.3397 242.295 35.5597 241.075 33.2297C239.855 30.8997 238.115 29.1097 235.855 27.8497V27.8697ZM235.485 47.3597C234.795 48.8597 233.775 49.9597 232.405 50.6797C231.045 51.3897 229.355 51.7497 227.335 51.7497H223.055V31.5097H227.385C229.385 31.5097 231.065 31.8697 232.415 32.5797C233.765 33.2897 234.785 34.3997 235.485 35.8897C236.175 37.3797 236.525 39.2897 236.525 41.6097C236.525 43.9297 236.185 45.8697 235.495 47.3597H235.485Z" fill="#2A2F30"/>
<path d="M264.525 35.0298C262.815 34.0198 260.775 33.5098 258.405 33.5098C256.035 33.5098 254.015 34.0198 252.295 35.0298C250.575 36.0498 249.245 37.4598 248.315 39.2698C247.385 41.0798 246.915 43.2098 246.915 45.6398C246.915 48.0698 247.385 50.1598 248.315 51.9698C249.245 53.7798 250.575 55.1998 252.295 56.2098C254.015 57.2298 256.055 57.7298 258.405 57.7298C260.755 57.7298 262.815 57.2198 264.525 56.2098C266.235 55.1998 267.565 53.7798 268.495 51.9698C269.425 50.1598 269.895 48.0498 269.895 45.6398C269.895 43.2298 269.425 41.0798 268.495 39.2698C267.565 37.4598 266.245 36.0398 264.525 35.0298ZM262.915 49.2898C262.535 50.3698 261.975 51.2298 261.215 51.8498C260.455 52.4698 259.525 52.7798 258.405 52.7798C257.285 52.7798 256.355 52.4698 255.605 51.8498C254.855 51.2298 254.295 50.3698 253.915 49.2898C253.535 48.2098 253.345 46.9798 253.345 45.6298C253.345 44.2798 253.535 43.0098 253.915 41.9298C254.295 40.8498 254.855 40.0098 255.605 39.3898C256.355 38.7698 257.285 38.4698 258.405 38.4698C259.525 38.4698 260.465 38.7798 261.215 39.3898C261.975 40.0098 262.535 40.8498 262.915 41.9298C263.295 43.0098 263.485 44.2398 263.485 45.6298C263.485 47.0198 263.295 48.2098 262.915 49.2898Z" fill="#2A2F30"/>
<path d="M280.615 25.9897H274.315V57.2697H280.615V25.9897Z" fill="#2A2F30"/>
<path d="M292.655 25.9897H286.355V57.2697H292.655V25.9897Z" fill="#2A2F30"/>
<path d="M315.125 35.3598C314.185 34.7298 313.115 34.2698 311.925 33.9598C310.735 33.6598 309.505 33.5098 308.225 33.5098C306.485 33.5098 304.925 33.7598 303.535 34.2698C302.145 34.7798 300.975 35.4998 300.035 36.4498C299.095 37.3998 298.425 38.5598 298.015 39.9098L303.785 40.8798C303.965 40.3798 304.245 39.9198 304.625 39.5198C305.005 39.1098 305.495 38.7898 306.095 38.5398C306.695 38.2998 307.405 38.1698 308.215 38.1698C309.025 38.1698 309.685 38.2898 310.235 38.5398C310.785 38.7898 311.195 39.1398 311.475 39.5998C311.755 40.0598 311.895 40.6298 311.895 41.2998V41.3998C311.895 41.8998 311.705 42.2898 311.315 42.5398C310.925 42.7998 310.325 42.9898 309.485 43.1098C308.655 43.2298 307.555 43.3598 306.195 43.4998C305.035 43.6098 303.925 43.8098 302.865 44.0898C301.805 44.3698 300.865 44.7798 300.035 45.3098C299.205 45.8398 298.545 46.5498 298.065 47.4298C297.585 48.3098 297.345 49.3998 297.345 50.7098C297.345 52.2598 297.685 53.5598 298.365 54.5998C299.045 55.6398 299.975 56.4298 301.155 56.9498C302.335 57.4698 303.675 57.7398 305.155 57.7398C306.315 57.7398 307.345 57.5798 308.235 57.2598C309.125 56.9398 309.885 56.4998 310.515 55.9498C311.145 55.3998 311.645 54.7598 312.025 54.0298H312.235V57.2798H318.195V41.4698C318.195 40.0398 317.915 38.8198 317.365 37.8198C316.815 36.8098 316.065 35.9898 315.115 35.3598H315.125ZM311.945 48.8798C311.945 49.7098 311.735 50.4498 311.315 51.1298C310.895 51.8098 310.315 52.3298 309.565 52.7298C308.815 53.1198 307.945 53.3198 306.955 53.3198C306.255 53.3198 305.645 53.2198 305.115 53.0098C304.585 52.7998 304.175 52.4898 303.865 52.0798C303.555 51.6698 303.405 51.1598 303.405 50.5598C303.405 49.9198 303.565 49.3898 303.885 48.9698C304.205 48.5598 304.665 48.2198 305.245 47.9698C305.825 47.7198 306.515 47.5398 307.285 47.4198C307.635 47.3798 308.035 47.3198 308.485 47.2498C308.935 47.1798 309.385 47.0998 309.845 47.0198C310.305 46.9398 310.725 46.8398 311.105 46.7298C311.485 46.6198 311.765 46.4898 311.945 46.3498V48.8898V48.8798Z" fill="#2A2F30"/>
<path d="M336.755 33.5397C336.385 33.5097 336.035 33.4897 335.715 33.4897C334.395 33.4897 333.235 33.8597 332.215 34.5997C331.195 35.3397 330.475 36.4397 330.045 37.8997H329.795V33.8097H323.705V57.2797H330.005V43.9297C330.005 42.9497 330.215 42.0897 330.645 41.3597C331.075 40.6297 331.675 40.0497 332.435 39.6397C333.205 39.2297 334.065 39.0197 335.015 39.0197C335.495 39.0197 335.995 39.0497 336.525 39.0997C337.055 39.1597 337.465 39.2297 337.745 39.3297V33.6997C337.455 33.6297 337.115 33.5797 336.745 33.5397H336.755Z" fill="#2A2F30"/>
<path d="M49.6768 10.3699C53.8148 8.86287 56.8521 5.67642 58.3 1.8573C54.7381 -0.135837 50.3609 -0.624475 46.2228 0.880025C42.0848 2.3871 39.0475 5.57354 37.5996 9.39266C41.1615 11.3858 45.5388 11.8744 49.6768 10.3699Z" fill="#F7911A"/>
<path d="M30 10.8148C13.4325 10.8148 0 24.2473 0 40.8148C0 57.3823 13.4325 70.8148 30 70.8148C46.5675 70.8148 60 57.3823 60 40.8148C60 24.2473 46.5675 10.8148 30 10.8148Z" fill="#F7911A"/>
<path d="M38.9295 45.3298C38.4695 44.2598 37.7895 43.2898 36.8895 42.4098C35.9895 41.5398 35.0095 40.7198 33.9295 39.9498C32.8495 39.1798 31.8495 38.4398 30.9095 37.7198C29.9695 36.9998 29.2395 36.2798 28.7095 35.5498C28.1795 34.8198 28.0195 34.0598 28.2195 33.2498C28.4695 32.2598 29.0695 31.5998 30.0295 31.2698C30.9895 30.9398 32.1195 30.9398 33.4295 31.2698C34.1895 31.4598 35.0595 31.7498 35.6495 32.1098C38.2295 33.6898 38.0195 36.3998 38.0195 36.3998L38.1195 36.4298L40.7695 37.0898L41.9995 32.1598C41.9995 32.1598 39.8695 30.7598 38.2295 29.9498C37.2895 29.4798 36.1195 29.0098 35.0095 28.6398L36.2795 23.5398L33.1395 22.7598L31.8795 27.8198C30.4695 27.5698 29.1395 27.5098 27.8895 27.6498C26.2595 27.8198 24.8895 28.3098 23.7695 29.1198C22.6595 29.9198 21.9195 31.0398 21.5695 32.4698C21.2295 33.8298 21.2795 35.0398 21.7195 36.1198C22.1595 37.1998 22.8395 38.1798 23.7495 39.0798C24.6595 39.9698 25.6495 40.7898 26.7295 41.5498C27.8095 42.2998 28.8095 43.0498 29.7495 43.7798C30.6795 44.5098 31.4095 45.2498 31.9295 46.0098C32.4495 46.7598 32.5995 47.5798 32.3795 48.4698C32.1095 49.5698 31.4395 50.2698 30.3795 50.5898C29.3195 50.9098 28.1195 50.8998 26.7895 50.5698C26.3195 50.4498 25.7595 50.2498 25.1995 49.9998C23.5595 49.2898 22.3795 47.8698 22.0195 46.2198C21.9595 45.9498 21.9195 45.7698 21.9195 45.7698L19.1695 45.0798L17.9795 49.8598C18.7895 50.4198 19.5995 51.0198 21.2795 51.8698C22.6995 52.5898 23.8595 53.0898 25.4795 53.5398L24.2495 58.4798L27.3895 59.2598L28.6495 54.1898C29.8295 54.3398 30.9795 54.3698 32.0795 54.2598C33.8595 54.0798 35.3795 53.5498 36.6295 52.6698C37.8795 51.7898 38.6995 50.5598 39.0995 48.9698C39.4395 47.6098 39.3795 46.3998 38.9195 45.3298H38.9295Z" fill="white"/>
</svg>
