<svg width="474" height="100" viewBox="0 0 474 100" fill="none" xmlns="http://www.w3.org/2000/svg">
<path d="M50.0015 0C77.6142 0.000150519 100.001 22.3882 100.001 50.001C100.001 77.6136 77.6141 100.001 50.0015 100.001C22.3887 100.001 0.00065342 77.6137 0.000488281 50.001C0.000488281 22.3881 22.3886 0 50.0015 0ZM53.1353 28.3428C50.7853 27.9261 48.5682 27.8253 46.4849 28.0586C43.7682 28.3419 41.4844 29.1588 39.6177 30.5088C37.7677 31.8421 36.535 33.7095 35.9517 36.0928C35.3851 38.3594 35.4683 40.3758 36.2017 42.1758C36.935 43.9758 38.0678 45.6094 39.5845 47.1094C41.1011 48.5927 42.7513 49.959 44.5513 51.2256C46.3512 52.4755 48.0179 53.7258 49.5845 54.9424C51.1344 56.159 52.3516 57.3925 53.2183 58.6592C54.0849 59.9092 54.3349 61.2764 53.9683 62.7598C53.5182 64.5928 52.4016 65.7596 50.6353 66.293C48.8687 66.8263 46.8684 66.8097 44.6519 66.2598C43.8685 66.0598 42.9348 65.7262 42.0015 65.3096C39.2682 64.1263 37.3018 61.7596 36.7017 59.0098C36.6037 58.5688 36.5373 58.2715 36.5347 58.2598L31.9517 57.1094L29.9683 65.0762C31.3182 66.0095 32.6684 67.0092 35.4683 68.4258C37.8349 69.6258 39.7683 70.46 42.4683 71.21L40.4185 79.4434L45.6519 80.7432L47.7515 72.293C49.7181 72.543 51.6349 72.5925 53.4683 72.4092C56.4348 72.1092 58.968 71.2263 61.0513 69.7598C63.1346 68.2931 64.5018 66.2428 65.1685 63.5928C65.7351 61.3263 65.6352 59.3096 64.8687 57.5264H64.8853C64.1186 55.743 62.9849 54.1259 61.4849 52.6592C59.9849 51.2092 58.3512 49.8429 56.5513 48.5596C54.7513 47.2762 53.0847 46.0428 51.5181 44.8428C49.9514 43.6428 48.7344 42.4423 47.8511 41.2256C46.968 40.0091 46.7014 38.7424 47.0347 37.3926C47.4513 35.7427 48.4514 34.6428 50.0513 34.0928C51.6513 33.5428 53.5349 33.5428 55.7183 34.0928C56.9849 34.4094 58.4351 34.8922 59.4185 35.4922C63.7185 38.1256 63.3687 42.6426 63.3687 42.6426L63.5347 42.6924L67.9517 43.793L70.0015 35.5762C69.9968 35.5731 66.4498 33.2417 63.7183 31.8926C62.1517 31.1093 60.202 30.3256 58.3521 29.709L60.4683 21.209L55.2349 19.9092L53.1353 28.3428Z" fill="white"/>
<path d="M135.685 25.7819H147.699V60.6429C147.683 63.909 146.903 66.7649 145.36 69.2104C143.817 71.6395 141.684 73.527 138.959 74.8729C136.251 76.2187 133.116 76.8916 129.555 76.8916C126.403 76.8916 123.539 76.3418 120.962 75.2421C118.402 74.1425 116.359 72.4355 114.832 70.1213C113.322 67.8071 112.575 64.8446 112.592 61.2337H124.729C124.778 62.5304 125.025 63.6382 125.468 64.5574C125.927 65.4601 126.559 66.1412 127.363 66.6008C128.168 67.0603 129.128 67.2901 130.244 67.2901C131.409 67.2901 132.394 67.0439 133.198 66.5515C134.002 66.0427 134.61 65.2959 135.02 64.3112C135.447 63.3264 135.668 62.1036 135.685 60.6429V25.7819Z" fill="white"/>
<path d="M176.281 59.8797V38.387H188.295V76.2023H176.822V69.1612H176.429C175.591 71.4754 174.164 73.3136 172.145 74.6759C170.142 76.0218 167.721 76.6947 164.882 76.6947C162.305 76.6947 160.04 76.1038 158.087 74.9221C156.134 73.7404 154.616 72.0909 153.533 69.9736C152.449 67.8399 151.899 65.3452 151.883 62.4893V38.387H163.922V60.1259C163.938 62.1775 164.48 63.7942 165.547 64.9759C166.614 66.1576 168.066 66.7485 169.904 66.7485C171.103 66.7485 172.178 66.4859 173.13 65.9607C174.098 65.419 174.861 64.6394 175.419 63.6218C175.994 62.5878 176.281 61.3404 176.281 59.8797Z" fill="white"/>
<path d="M192.491 76.2023V38.387H204.53V76.2023H192.491ZM198.523 33.9801C196.833 33.9801 195.38 33.4221 194.166 32.306C192.951 31.1735 192.344 29.8113 192.344 28.2192C192.344 26.6436 192.951 25.2977 194.166 24.1816C195.38 23.0492 196.833 22.4829 198.523 22.4829C200.23 22.4829 201.683 23.0492 202.881 24.1816C204.095 25.2977 204.703 26.6436 204.703 28.2192C204.703 29.8113 204.095 31.1735 202.881 32.306C201.683 33.4221 200.23 33.9801 198.523 33.9801Z" fill="white"/>
<path d="M226.379 76.9163C222.39 76.9163 218.968 76.0956 216.112 74.4543C213.273 72.813 211.09 70.5317 209.564 67.6102C208.037 64.6722 207.274 61.2748 207.274 57.4177C207.274 53.5443 208.037 50.1468 209.564 47.2253C211.106 44.2874 213.298 41.9978 216.137 40.3565C218.993 38.7153 222.399 37.8946 226.354 37.8946C229.85 37.8946 232.895 38.5265 235.488 39.7903C238.097 41.0541 240.133 42.8431 241.593 45.1573C243.071 47.4551 243.85 50.155 243.932 53.2571H232.681C232.451 51.3204 231.795 49.8022 230.712 48.7025C229.645 47.6028 228.25 47.053 226.526 47.053C225.131 47.053 223.909 47.4469 222.858 48.2347C221.808 49.0061 220.987 50.155 220.396 51.6814C219.822 53.1914 219.535 55.0625 219.535 57.2947C219.535 59.5268 219.822 61.4143 220.396 62.9571C220.987 64.4835 221.808 65.6406 222.858 66.4284C223.909 67.1998 225.131 67.5855 226.526 67.5855C227.642 67.5855 228.627 67.3475 229.481 66.8716C230.351 66.3956 231.065 65.6981 231.623 64.7789C232.181 63.8434 232.534 62.7109 232.681 61.3815H243.932C243.817 64.4999 243.038 67.2244 241.593 69.5551C240.166 71.8857 238.155 73.6993 235.562 74.996C232.985 76.2762 229.924 76.9163 226.379 76.9163Z" fill="white"/>
<path d="M264.304 76.9163C260.348 76.9163 256.934 76.1366 254.062 74.5774C251.206 73.0018 249.007 70.7614 247.464 67.8563C245.938 64.9349 245.174 61.4635 245.174 57.4424C245.174 53.5361 245.946 50.1222 247.489 47.2007C249.031 44.2628 251.206 41.9814 254.013 40.3565C256.819 38.7153 260.126 37.8946 263.934 37.8946C266.626 37.8946 269.088 38.3131 271.32 39.1502C273.552 39.9873 275.481 41.2264 277.106 42.8677C278.73 44.509 279.994 46.536 280.897 48.9487C281.8 51.345 282.251 54.0941 282.251 57.1962V60.1997H249.384V53.2078H271.049C271.033 51.9276 270.729 50.7869 270.138 49.7858C269.547 48.7846 268.735 48.005 267.701 47.4469C266.683 46.8725 265.51 46.5852 264.18 46.5852C262.835 46.5852 261.628 46.8889 260.561 47.4962C259.495 48.087 258.649 48.8995 258.026 49.9335C257.402 50.9511 257.074 52.1082 257.041 53.4048V60.5198C257.041 62.0626 257.344 63.4167 257.952 64.582C258.559 65.7309 259.421 66.6254 260.537 67.2655C261.653 67.9056 262.982 68.2256 264.525 68.2256C265.592 68.2256 266.56 68.0779 267.43 67.7825C268.3 67.4871 269.047 67.0521 269.671 66.4777C270.294 65.9032 270.762 65.1975 271.074 64.3604L282.128 64.6805C281.668 67.1588 280.659 69.3171 279.1 71.1553C277.557 72.9772 275.53 74.3969 273.019 75.4145C270.508 76.4157 267.603 76.9163 264.304 76.9163Z" fill="white"/>
<path d="M310.138 76.2023H291.501V25.7819H310.114C315.251 25.7819 319.674 26.7913 323.384 28.8101C327.109 30.8125 329.981 33.7011 332 37.4761C334.019 41.2346 335.028 45.7318 335.028 50.9675C335.028 56.2196 334.019 60.7332 332 64.5081C329.998 68.2831 327.134 71.18 323.408 73.1987C319.682 75.2011 315.259 76.2023 310.138 76.2023ZM303.688 65.8129H309.671C312.494 65.8129 314.882 65.337 316.835 64.385C318.804 63.4167 320.29 61.8492 321.291 59.6827C322.308 57.4998 322.817 54.5947 322.817 50.9675C322.817 47.3402 322.308 44.4516 321.291 42.3015C320.273 40.135 318.771 38.5758 316.786 37.6238C314.816 36.6554 312.387 36.1713 309.498 36.1713H303.688V65.8129Z" fill="white"/>
<path d="M356.329 76.9163C352.357 76.9163 348.943 76.1038 346.087 74.4789C343.248 72.8377 341.057 70.5563 339.514 67.6348C337.988 64.6969 337.225 61.2912 337.225 57.4177C337.225 53.5279 337.988 50.1222 339.514 47.2007C341.057 44.2628 343.248 41.9814 346.087 40.3565C348.943 38.7153 352.357 37.8946 356.329 37.8946C360.301 37.8946 363.707 38.7153 366.546 40.3565C369.402 41.9814 371.593 44.2628 373.12 47.2007C374.662 50.1222 375.434 53.5279 375.434 57.4177C375.434 61.2912 374.662 64.6969 373.12 67.6348C371.593 70.5563 369.402 72.8377 366.546 74.4789C363.707 76.1038 360.301 76.9163 356.329 76.9163ZM356.403 67.8317C357.847 67.8317 359.07 67.3886 360.071 66.5023C361.072 65.616 361.836 64.385 362.361 62.8094C362.902 61.2337 363.173 59.4119 363.173 57.3439C363.173 55.243 362.902 53.4048 362.361 51.8292C361.836 50.2535 361.072 49.0226 360.071 48.1363C359.07 47.25 357.847 46.8068 356.403 46.8068C354.909 46.8068 353.646 47.25 352.612 48.1363C351.594 49.0226 350.814 50.2535 350.273 51.8292C349.748 53.4048 349.485 55.243 349.485 57.3439C349.485 59.4119 349.748 61.2337 350.273 62.8094C350.814 64.385 351.594 65.616 352.612 66.5023C353.646 67.3886 354.909 67.8317 356.403 67.8317Z" fill="white"/>
<path d="M390.173 25.7819V76.2023H378.134V25.7819H390.173Z" fill="white"/>
<path d="M406.409 25.7819V76.2023H394.37V25.7819H406.409Z" fill="white"/>
<path d="M421.265 76.8424C418.852 76.8424 416.711 76.4403 414.839 75.6361C412.985 74.8154 411.516 73.5844 410.433 71.9432C409.366 70.2855 408.832 68.2092 408.832 65.7145C408.832 63.6136 409.202 61.841 409.94 60.3967C410.679 58.9524 411.696 57.7788 412.993 56.8761C414.29 55.9734 415.783 55.2923 417.474 54.8327C419.164 54.3567 420.97 54.0367 422.89 53.8726C425.04 53.6756 426.772 53.4704 428.085 53.2571C429.398 53.0273 430.35 52.7072 430.94 52.2969C431.548 51.8702 431.851 51.2711 431.851 50.4997V50.3766C431.851 49.1128 431.416 48.1363 430.547 47.4469C429.677 46.7576 428.503 46.4129 427.026 46.4129C425.434 46.4129 424.154 46.7576 423.185 47.4469C422.217 48.1363 421.602 49.0882 421.339 50.3028L410.236 49.9088C410.564 47.611 411.409 45.5594 412.771 43.754C414.15 41.9322 416.038 40.5043 418.434 39.4703C420.847 38.4198 423.743 37.8946 427.124 37.8946C429.537 37.8946 431.761 38.1818 433.796 38.7563C435.832 39.3143 437.604 40.135 439.114 41.2182C440.624 42.2851 441.789 43.5981 442.61 45.1573C443.447 46.7165 443.866 48.4973 443.866 50.4997V76.2023H432.541V70.9338H432.245C431.572 72.214 430.711 73.2972 429.66 74.1835C428.626 75.0698 427.404 75.7345 425.992 76.1777C424.597 76.6208 423.021 76.8424 421.265 76.8424ZM424.983 68.9642C426.279 68.9642 427.445 68.7016 428.479 68.1764C429.529 67.6512 430.366 66.929 430.99 66.0099C431.613 65.0744 431.925 63.9911 431.925 62.7601V59.1657C431.581 59.3463 431.162 59.5104 430.67 59.6581C430.194 59.8058 429.668 59.9453 429.094 60.0766C428.52 60.2079 427.929 60.3228 427.321 60.4213C426.714 60.5198 426.132 60.6101 425.573 60.6921C424.441 60.8727 423.473 61.1517 422.668 61.5292C421.881 61.9067 421.273 62.3991 420.847 63.0063C420.436 63.5972 420.231 64.303 420.231 65.1236C420.231 66.371 420.674 67.3229 421.56 67.9794C422.463 68.636 423.604 68.9642 424.983 68.9642Z" fill="white"/>
<path d="M447.76 76.2023V38.387H459.455V45.2804H459.849C460.538 42.7857 461.662 40.931 463.221 39.7164C464.781 38.4855 466.594 37.87 468.662 37.87C469.22 37.87 469.795 37.911 470.386 37.9931C470.976 38.0587 471.526 38.1654 472.035 38.3131V48.7764C471.461 48.5794 470.706 48.4235 469.77 48.3086C468.851 48.1937 468.03 48.1363 467.308 48.1363C465.88 48.1363 464.592 48.4563 463.443 49.0964C462.31 49.7201 461.416 50.5982 460.759 51.7307C460.119 52.8468 459.799 54.1598 459.799 55.6698V76.2023H447.76Z" fill="white"/>
</svg>
