<svg width="474" height="100" viewBox="0 0 474 100" fill="none" xmlns="http://www.w3.org/2000/svg">
<path d="M50 0C22.3875 0 0 22.3875 0 50C0 77.6125 22.3875 100 50 100C77.6125 100 100 77.6125 100 50C100 22.3875 77.6125 0 50 0Z" fill="url(#paint0_linear_6285_16599)"/>
<path d="M64.8844 57.5249C64.1178 55.7415 62.9844 54.1249 61.4844 52.6582C59.9844 51.2082 58.3511 49.8415 56.5511 48.5582C54.7511 47.2749 53.0844 46.0415 51.5178 44.8415C49.9511 43.6415 48.7344 42.4415 47.8511 41.2249C46.9678 40.0082 46.7011 38.7415 47.0344 37.3915C47.4511 35.7415 48.4511 34.6415 50.0511 34.0915C51.6511 33.5415 53.5344 33.5415 55.7178 34.0915C56.9844 34.4082 58.4345 34.8915 59.4178 35.4915C63.7178 38.1249 63.3678 42.6415 63.3678 42.6415L63.5344 42.6915L67.9511 43.7915L70.0011 35.5749C70.0011 35.5749 66.4511 33.2415 63.7178 31.8915C62.1511 31.1082 60.2011 30.3249 58.3511 29.7082L60.4678 21.2082L55.2344 19.9082L53.1344 28.3415C50.7844 27.9249 48.5678 27.8249 46.4844 28.0582C43.7678 28.3415 41.4844 29.1582 39.6178 30.5082C37.7678 31.8415 36.5344 33.7082 35.9511 36.0915C35.3844 38.3582 35.4678 40.3749 36.2011 42.1749C36.9344 43.9749 38.0678 45.6082 39.5844 47.1082C41.1011 48.5915 42.7511 49.9582 44.5511 51.2249C46.3511 52.4749 48.0178 53.7249 49.5844 54.9416C51.1344 56.1582 52.3511 57.3915 53.2178 58.6582C54.0844 59.9082 54.3344 61.2749 53.9678 62.7582C53.5178 64.5915 52.4011 65.7582 50.6344 66.2916C48.8678 66.8249 46.8678 66.8082 44.6511 66.2582C43.8678 66.0582 42.9344 65.7249 42.0011 65.3082C39.2678 64.1249 37.3011 61.7582 36.7011 59.0082C36.6011 58.5582 36.5344 58.2582 36.5344 58.2582L31.9511 57.1082L29.9678 65.0749C31.3178 66.0082 32.6678 67.0082 35.4678 68.4249C37.8344 69.6249 39.7678 70.4582 42.4678 71.2082L40.4178 79.4416L45.6511 80.7416L47.7511 72.2915C49.7178 72.5415 51.6344 72.5915 53.4678 72.4082C56.4345 72.1082 58.9678 71.2249 61.0511 69.7582C63.1345 68.2916 64.5011 66.2415 65.1678 63.5915C65.7344 61.3249 65.6344 59.3082 64.8678 57.5249H64.8844Z" fill="white"/>
<path d="M135.685 25.7819H147.699V60.6429C147.682 63.909 146.903 66.7649 145.36 69.2104C143.817 71.6395 141.683 73.527 138.959 74.8729C136.251 76.2187 133.116 76.8916 129.554 76.8916C126.403 76.8916 123.539 76.3418 120.962 75.2421C118.402 74.1425 116.358 72.4355 114.832 70.1213C113.322 67.8071 112.575 64.8446 112.592 61.2337H124.729C124.778 62.5304 125.024 63.6382 125.467 64.5574C125.927 65.4601 126.559 66.1412 127.363 66.6008C128.167 67.0603 129.128 67.2901 130.244 67.2901C131.409 67.2901 132.394 67.0439 133.198 66.5515C134.002 66.0427 134.609 65.2959 135.02 64.3112C135.447 63.3264 135.668 62.1036 135.685 60.6429V25.7819Z" fill="#F57F00"/>
<path d="M176.281 59.8797V38.387H188.295V76.2023H176.822V69.1612H176.428C175.591 71.4754 174.163 73.3136 172.145 74.6759C170.142 76.0218 167.721 76.6947 164.882 76.6947C162.305 76.6947 160.04 76.1038 158.087 74.9221C156.134 73.7404 154.616 72.0909 153.532 69.9736C152.449 67.8399 151.899 65.3452 151.883 62.4893V38.387H163.922V60.1259C163.938 62.1775 164.48 63.7942 165.547 64.9759C166.613 66.1576 168.066 66.7485 169.904 66.7485C171.102 66.7485 172.177 66.4859 173.129 65.9607C174.098 65.419 174.861 64.6394 175.419 63.6218C175.993 62.5878 176.281 61.3404 176.281 59.8797Z" fill="#F57F00"/>
<path d="M192.491 76.2023V38.387H204.53V76.2023H192.491ZM198.523 33.9801C196.832 33.9801 195.38 33.4221 194.165 32.306C192.951 31.1735 192.343 29.8113 192.343 28.2192C192.343 26.6436 192.951 25.2977 194.165 24.1816C195.38 23.0492 196.832 22.4829 198.523 22.4829C200.23 22.4829 201.682 23.0492 202.881 24.1816C204.095 25.2977 204.702 26.6436 204.702 28.2192C204.702 29.8113 204.095 31.1735 202.881 32.306C201.682 33.4221 200.23 33.9801 198.523 33.9801Z" fill="#F57F00"/>
<path d="M226.378 76.9163C222.39 76.9163 218.968 76.0956 216.112 74.4543C213.273 72.813 211.09 70.5317 209.563 67.6102C208.037 64.6722 207.274 61.2748 207.274 57.4177C207.274 53.5443 208.037 50.1468 209.563 47.2253C211.106 44.2874 213.297 41.9978 216.137 40.3565C218.993 38.7153 222.398 37.8946 226.354 37.8946C229.85 37.8946 232.894 38.5265 235.488 39.7903C238.097 41.0541 240.132 42.8431 241.593 45.1573C243.07 47.4551 243.85 50.155 243.932 53.2571H232.681C232.451 51.3204 231.795 49.8022 230.711 48.7025C229.645 47.6028 228.25 47.053 226.526 47.053C225.131 47.053 223.908 47.4469 222.858 48.2347C221.807 49.0061 220.987 50.155 220.396 51.6814C219.821 53.1914 219.534 55.0625 219.534 57.2947C219.534 59.5268 219.821 61.4143 220.396 62.9571C220.987 64.4835 221.807 65.6406 222.858 66.4284C223.908 67.1998 225.131 67.5855 226.526 67.5855C227.642 67.5855 228.627 67.3475 229.48 66.8716C230.35 66.3956 231.064 65.6981 231.622 64.7789C232.18 63.8434 232.533 62.7109 232.681 61.3815H243.932C243.817 64.4999 243.038 67.2244 241.593 69.5551C240.165 71.8857 238.155 73.6993 235.561 74.996C232.985 76.2762 229.924 76.9163 226.378 76.9163Z" fill="#F57F00"/>
<path d="M264.303 76.9163C260.348 76.9163 256.934 76.1366 254.062 74.5774C251.206 73.0018 249.006 70.7614 247.464 67.8563C245.937 64.9349 245.174 61.4635 245.174 57.4424C245.174 53.5361 245.945 50.1222 247.488 47.2007C249.031 44.2628 251.206 41.9814 254.012 40.3565C256.819 38.7153 260.126 37.8946 263.934 37.8946C266.626 37.8946 269.088 38.3131 271.32 39.1502C273.552 39.9873 275.48 41.2264 277.105 42.8677C278.73 44.509 279.994 46.536 280.897 48.9487C281.799 51.345 282.251 54.0941 282.251 57.1962V60.1997H249.384V53.2078H271.049C271.033 51.9276 270.729 50.7869 270.138 49.7858C269.547 48.7846 268.735 48.005 267.701 47.4469C266.683 46.8725 265.51 46.5852 264.18 46.5852C262.834 46.5852 261.628 46.8889 260.561 47.4962C259.494 48.087 258.649 48.8995 258.025 49.9335C257.402 50.9511 257.073 52.1082 257.041 53.4048V60.5198C257.041 62.0626 257.344 63.4167 257.952 64.582C258.559 65.7309 259.42 66.6254 260.537 67.2655C261.653 67.9056 262.982 68.2256 264.525 68.2256C265.592 68.2256 266.56 68.0779 267.43 67.7825C268.3 67.4871 269.047 67.0521 269.67 66.4777C270.294 65.9032 270.762 65.1975 271.074 64.3604L282.128 64.6805C281.668 67.1588 280.659 69.3171 279.1 71.1553C277.557 72.9772 275.53 74.3969 273.019 75.4145C270.507 76.4157 267.602 76.9163 264.303 76.9163Z" fill="#F57F00"/>
<path d="M310.138 76.2023H291.501V25.7819H310.113C315.251 25.7819 319.674 26.7913 323.383 28.8101C327.109 30.8125 329.981 33.7011 332 37.4761C334.019 41.2346 335.028 45.7318 335.028 50.9675C335.028 56.2196 334.019 60.7332 332 64.5081C329.998 68.2831 327.134 71.18 323.408 73.1987C319.682 75.2011 315.259 76.2023 310.138 76.2023ZM303.688 65.8129H309.67C312.493 65.8129 314.881 65.337 316.835 64.385C318.804 63.4167 320.289 61.8492 321.291 59.6827C322.308 57.4998 322.817 54.5947 322.817 50.9675C322.817 47.3402 322.308 44.4516 321.291 42.3015C320.273 40.135 318.771 38.5758 316.785 37.6238C314.816 36.6554 312.387 36.1713 309.498 36.1713H303.688V65.8129Z" fill="#F57F00"/>
<path d="M356.329 76.9163C352.357 76.9163 348.943 76.1038 346.087 74.4789C343.248 72.8377 341.057 70.5563 339.514 67.6348C337.987 64.6969 337.224 61.2912 337.224 57.4177C337.224 53.5279 337.987 50.1222 339.514 47.2007C341.057 44.2628 343.248 41.9814 346.087 40.3565C348.943 38.7153 352.357 37.8946 356.329 37.8946C360.301 37.8946 363.706 38.7153 366.546 40.3565C369.402 41.9814 371.593 44.2628 373.119 47.2007C374.662 50.1222 375.434 53.5279 375.434 57.4177C375.434 61.2912 374.662 64.6969 373.119 67.6348C371.593 70.5563 369.402 72.8377 366.546 74.4789C363.706 76.1038 360.301 76.9163 356.329 76.9163ZM356.403 67.8317C357.847 67.8317 359.07 67.3886 360.071 66.5023C361.072 65.616 361.835 64.385 362.361 62.8094C362.902 61.2337 363.173 59.4119 363.173 57.3439C363.173 55.243 362.902 53.4048 362.361 51.8292C361.835 50.2535 361.072 49.0226 360.071 48.1363C359.07 47.25 357.847 46.8068 356.403 46.8068C354.909 46.8068 353.645 47.25 352.611 48.1363C351.594 49.0226 350.814 50.2535 350.273 51.8292C349.747 53.4048 349.485 55.243 349.485 57.3439C349.485 59.4119 349.747 61.2337 350.273 62.8094C350.814 64.385 351.594 65.616 352.611 66.5023C353.645 67.3886 354.909 67.8317 356.403 67.8317Z" fill="#F57F00"/>
<path d="M390.173 25.7819V76.2023H378.134V25.7819H390.173Z" fill="#F57F00"/>
<path d="M406.408 25.7819V76.2023H394.369V25.7819H406.408Z" fill="#F57F00"/>
<path d="M421.265 76.8424C418.852 76.8424 416.71 76.4403 414.839 75.6361C412.985 74.8154 411.516 73.5844 410.432 71.9432C409.365 70.2855 408.832 68.2092 408.832 65.7145C408.832 63.6136 409.201 61.841 409.94 60.3967C410.678 58.9524 411.696 57.7788 412.993 56.8761C414.289 55.9734 415.783 55.2923 417.473 54.8327C419.164 54.3567 420.969 54.0367 422.89 53.8726C425.04 53.6756 426.771 53.4704 428.084 53.2571C429.397 53.0273 430.349 52.7072 430.94 52.2969C431.548 51.8702 431.851 51.2711 431.851 50.4997V50.3766C431.851 49.1128 431.416 48.1363 430.546 47.4469C429.676 46.7576 428.503 46.4129 427.026 46.4129C425.434 46.4129 424.153 46.7576 423.185 47.4469C422.217 48.1363 421.601 49.0882 421.339 50.3028L410.235 49.9088C410.564 47.611 411.409 45.5594 412.771 43.754C414.15 41.9322 416.037 40.5043 418.434 39.4703C420.846 38.4198 423.743 37.8946 427.124 37.8946C429.537 37.8946 431.761 38.1818 433.796 38.7563C435.831 39.3143 437.604 40.135 439.114 41.2182C440.624 42.2851 441.789 43.5981 442.61 45.1573C443.447 46.7165 443.865 48.4973 443.865 50.4997V76.2023H432.54V70.9338H432.245C431.572 72.214 430.71 73.2972 429.66 74.1835C428.626 75.0698 427.403 75.7345 425.992 76.1777C424.597 76.6208 423.021 76.8424 421.265 76.8424ZM424.982 68.9642C426.279 68.9642 427.444 68.7016 428.478 68.1764C429.529 67.6512 430.366 66.929 430.989 66.0099C431.613 65.0744 431.925 63.9911 431.925 62.7601V59.1657C431.58 59.3463 431.162 59.5104 430.669 59.6581C430.193 59.8058 429.668 59.9453 429.094 60.0766C428.519 60.2079 427.928 60.3228 427.321 60.4213C426.714 60.5198 426.131 60.6101 425.573 60.6921C424.441 60.8727 423.472 61.1517 422.668 61.5292C421.88 61.9067 421.273 62.3991 420.846 63.0063C420.436 63.5972 420.231 64.303 420.231 65.1236C420.231 66.371 420.674 67.3229 421.56 67.9794C422.463 68.636 423.604 68.9642 424.982 68.9642Z" fill="#F57F00"/>
<path d="M447.76 76.2023V38.387H459.454V45.2804H459.848C460.538 42.7857 461.662 40.931 463.221 39.7164C464.78 38.4855 466.594 37.87 468.662 37.87C469.22 37.87 469.794 37.911 470.385 37.9931C470.976 38.0587 471.526 38.1654 472.035 38.3131V48.7764C471.46 48.5794 470.705 48.4235 469.77 48.3086C468.851 48.1937 468.03 48.1363 467.308 48.1363C465.88 48.1363 464.592 48.4563 463.443 49.0964C462.31 49.7201 461.416 50.5982 460.759 51.7307C460.119 52.8468 459.799 54.1598 459.799 55.6698V76.2023H447.76Z" fill="#F57F00"/>
<defs>
<linearGradient id="paint0_linear_6285_16599" x1="50" y1="0" x2="50" y2="100" gradientUnits="userSpaceOnUse">
<stop stop-color="#F7911A"/>
<stop offset="1" stop-color="#F57F00"/>
</linearGradient>
</defs>
</svg>
