<svg width="645" height="200" viewBox="0 0 645 200" fill="none" xmlns="http://www.w3.org/2000/svg">
<path d="M100 0C44.775 0 0 44.7749 0 100C0 155.225 44.775 200 100 200C155.225 200 200 155.225 200 100C200 44.7749 155.225 0 100 0Z" fill="url(#paint0_linear_9055_3463)"/>
<path d="M139.234 60.0849C147.314 57.1449 153.254 50.9149 156.079 43.4599C149.119 39.5649 140.569 38.6099 132.484 41.5499C124.404 44.4899 118.464 50.7199 115.639 58.1749C122.599 62.0699 131.149 63.0249 139.234 60.0849Z" fill="white"/>
<path d="M100.794 68.5349C129.799 68.5349 153.399 92.1349 153.399 121.14C153.399 150.145 129.799 173.745 100.794 173.745C71.7887 173.745 48.1888 150.145 48.1888 121.14C48.1888 92.1349 71.7887 68.5349 100.794 68.5349ZM100.794 62.5349C68.4287 62.5349 42.1888 88.7749 42.1888 121.14C42.1888 153.505 68.4287 179.745 100.794 179.745C133.159 179.745 159.399 153.505 159.399 121.14C159.399 88.7749 133.159 62.5349 100.794 62.5349Z" fill="white"/>
<path d="M101.409 130.17L69.0937 60.8749C67.2937 57.0099 64.0937 54.0799 60.0837 52.6199L33.9688 43.1149L36.3638 36.5349L62.4787 46.0399C68.2437 48.1399 72.8437 52.3549 75.4387 57.9149L107.754 127.21L101.409 130.17Z" fill="white"/>
<path d="M52.8187 118.21C52.7587 119.18 52.7287 120.155 52.7287 121.135C52.7287 147.68 74.2487 169.2 100.794 169.2C127.339 169.2 148.859 147.68 148.859 121.135C148.859 120.1 148.824 119.075 148.759 118.06C116.779 92.5049 84.7987 143.785 52.8187 118.21Z" fill="white"/>
<path d="M286.947 46.0914H305.616V119.143C305.582 125.84 304.162 131.606 301.355 136.442C298.547 141.245 294.624 144.948 289.585 147.552C284.58 150.123 278.746 151.408 272.083 151.408C265.995 151.408 260.516 150.326 255.646 148.161C250.81 145.963 246.971 142.716 244.131 138.421C241.29 134.126 239.869 128.782 239.869 122.39H258.589C258.623 125.197 259.231 127.615 260.415 129.645C261.633 131.674 263.307 133.229 265.437 134.312C267.568 135.394 270.02 135.935 272.793 135.935C275.803 135.935 278.357 135.309 280.454 134.058C282.55 132.773 284.14 130.879 285.222 128.376C286.338 125.874 286.913 122.796 286.947 119.143V46.0914Z" fill="#F57F00"/>
<path d="M391.528 46.0914H410.349V113.969C410.349 121.409 408.59 127.954 405.073 133.602C401.59 139.25 396.686 143.663 390.361 146.842C384.037 149.987 376.647 151.56 368.192 151.56C359.703 151.56 352.296 149.987 345.972 146.842C339.648 143.663 334.744 139.25 331.26 133.602C327.777 127.954 326.035 121.409 326.035 113.969V46.0914H344.856V112.396C344.856 116.725 345.803 120.581 347.697 123.963C349.625 127.345 352.33 130 355.814 131.927C359.297 133.821 363.423 134.768 368.192 134.768C372.961 134.768 377.087 133.821 380.57 131.927C384.088 130 386.793 127.345 388.687 123.963C390.581 120.581 391.528 116.725 391.528 112.396V46.0914Z" fill="#F57F00"/>
<path d="M449.627 46.0914V149.987H430.806V46.0914H449.627Z" fill="#F57F00"/>
<path d="M558.939 81.1461H539.966C539.424 78.0347 538.427 75.2783 536.972 72.8771C535.518 70.442 533.709 68.379 531.544 66.6879C529.38 64.9969 526.911 63.7287 524.138 62.8832C521.398 62.0038 518.439 61.5642 515.26 61.5642C509.612 61.5642 504.606 62.9846 500.244 65.8255C495.881 68.6326 492.465 72.7587 489.996 78.2038C487.527 83.615 486.293 90.2269 486.293 98.0394C486.293 105.987 487.527 112.684 489.996 118.129C492.499 123.54 495.915 127.632 500.244 130.405C504.606 133.145 509.595 134.515 515.209 134.515C518.321 134.515 521.229 134.109 523.935 133.297C526.674 132.452 529.126 131.217 531.291 129.594C533.489 127.97 535.332 125.975 536.82 123.608C538.342 121.24 539.391 118.535 539.966 115.491L558.939 115.592C558.229 120.53 556.69 125.163 554.322 129.492C551.989 133.821 548.928 137.643 545.14 140.957C541.352 144.238 536.922 146.808 531.849 148.668C526.776 150.495 521.144 151.408 514.955 151.408C505.824 151.408 497.673 149.294 490.503 145.067C483.333 140.839 477.685 134.734 473.559 126.753C469.433 118.771 467.37 109.2 467.37 98.0394C467.37 86.8449 469.45 77.2737 473.61 69.3259C477.77 61.3443 483.435 55.2398 490.605 51.0122C497.775 46.7847 505.892 44.6709 514.955 44.6709C520.739 44.6709 526.116 45.4826 531.088 47.106C536.059 48.7293 540.49 51.1137 544.379 54.259C548.268 57.3704 551.464 61.1921 553.967 65.7241C556.504 70.2222 558.161 75.3629 558.939 81.1461Z" fill="#F57F00"/>
<path d="M576.174 149.987V46.0914H643.747V61.8685H594.995V90.0747H640.247V105.852H594.995V134.21H644.153V149.987H576.174Z" fill="#F57F00"/>
<defs>
<linearGradient id="paint0_linear_9055_3463" x1="100" y1="0" x2="100" y2="200" gradientUnits="userSpaceOnUse">
<stop stop-color="#F7911A"/>
<stop offset="1" stop-color="#F57F00"/>
</linearGradient>
</defs>
</svg>
