<svg width="512" height="512" viewBox="0 0 512 512" fill="none" xmlns="http://www.w3.org/2000/svg">
<g clip-path="url(#clip0_4344_3924)">
<circle cx="256" cy="256" r="256" fill="#F7911A"/>
<path d="M190.968 137.962C218.931 136.539 315.744 144.682 331.686 147.89C339.472 149.457 355.857 154.748 354.425 177.798C353.903 186.106 346.249 215.199 335.146 229.587C325.682 241.861 311.62 243.784 296.064 234.973C285.622 229.063 211.314 173.177 197.118 161.2C195.316 159.673 189.95 154.283 185.238 149.776C177.137 142.024 183.53 138.344 190.968 137.962Z" fill="white"/>
<path d="M183.304 165.869C220.079 194.559 251.331 219.792 285.231 251.992C295.57 261.811 301.412 275.552 293.635 285.68C285.154 296.723 273.03 306.253 261.332 312.249C253.81 316.102 239.942 314.241 234.398 302.946C222.248 278.23 204.749 237.812 193.541 211.573C190.818 205.188 175.523 168.189 174.708 165.819C171.625 156.801 182.089 164.906 183.315 165.867L183.304 165.869Z" fill="white"/>
<path d="M138.515 328.591C137.677 290.686 144.985 204.468 150.114 172.113C151.864 161.068 159.838 165.193 162.683 171.418C167.906 182.825 212.126 283.224 219.674 314.661C223.071 328.811 220.723 333.442 205.736 340.526C199.922 343.272 169.758 352.471 160.283 352.886C141.532 353.706 138.673 335.289 138.526 328.589L138.515 328.591Z" fill="white"/>
<path d="M147.92 394.786C145.786 394.518 143.817 393.459 142.417 391.835C139.082 387.957 136.039 383.151 134.132 379.402C133.22 377.619 134.458 375.501 136.451 375.366C290.497 365.124 376.987 259.91 388.086 164.723C388.437 161.672 392.124 160.311 394.369 162.411C414.164 180.871 427.817 203.303 432.498 211.582C433.689 213.683 434.025 216.155 433.472 218.516C407.834 327.7 267.322 409.978 147.935 394.805L147.92 394.786Z" fill="white"/>
</g>
<defs>
<clipPath id="clip0_4344_3924">
<rect width="512" height="512" fill="white"/>
</clipPath>
</defs>
</svg>
