<svg width="512" height="512" viewBox="0 0 512 512" fill="none" xmlns="http://www.w3.org/2000/svg">
<g clip-path="url(#clip0_4344_3932)">
<path d="M504.249 317.952C470.034 455.088 331.129 538.547 194.016 504.327C56.9024 470.193 -26.5431 331.264 7.67127 194.128C41.8856 56.9919 180.791 -26.5528 317.904 7.66726C455.018 41.8873 538.548 180.816 504.334 317.952H504.249Z" fill="#F7911A"/>
<path d="M332.198 292.947C328.273 283.817 322.47 275.539 314.79 268.03C307.11 260.606 298.748 253.609 289.532 247.038C280.316 240.467 271.782 234.153 263.761 228.009C255.74 221.865 249.51 215.721 244.988 209.491C240.465 203.262 239.1 196.777 240.806 189.865C242.94 181.417 248.06 175.785 256.252 172.969C264.444 170.153 274.086 170.153 285.265 172.969C291.75 174.59 299.174 177.065 304.209 180.137C326.225 193.619 324.433 216.745 324.433 216.745L325.286 217.001L347.9 222.633L358.396 180.563C358.396 180.563 340.22 168.617 326.225 161.705C318.204 157.694 308.22 153.683 298.748 150.526L309.585 107.006L282.79 100.35L272.038 143.529C260.006 141.395 248.657 140.883 237.99 142.078C224.081 143.529 212.39 147.71 202.833 154.622C193.361 161.449 187.046 171.006 184.06 183.209C181.158 194.814 181.585 205.139 185.34 214.355C189.094 223.571 194.897 231.934 202.662 239.614C210.428 247.209 218.876 254.206 228.092 260.691C237.308 267.091 245.841 273.491 253.862 279.721C261.798 285.95 268.028 292.265 272.465 298.75C276.902 305.15 278.182 312.147 276.305 319.742C274.001 329.129 268.284 335.102 259.238 337.833C250.193 340.563 239.953 340.478 228.604 337.662C224.593 336.638 219.814 334.931 215.036 332.798C201.041 326.739 190.972 314.622 187.9 300.542C187.388 298.238 187.046 296.702 187.046 296.702L163.58 290.814L153.425 331.603C160.337 336.382 167.249 341.502 181.585 348.755C193.702 354.899 203.601 359.166 217.425 363.006L206.929 405.161L233.724 411.817L244.476 368.553C254.545 369.833 264.358 370.089 273.745 369.15C288.934 367.614 301.905 363.091 312.572 355.582C323.238 348.073 330.236 337.577 333.649 324.009C336.55 312.403 336.038 302.078 332.113 292.947H332.198Z" fill="white"/>
</g>
<defs>
<clipPath id="clip0_4344_3932">
<rect width="512" height="512" fill="white"/>
</clipPath>
</defs>
</svg>
