<svg width="200" height="200" viewBox="0 0 200 200" fill="none" xmlns="http://www.w3.org/2000/svg">
<path d="M100 0C44.775 0 0 44.7749 0 100C0 155.225 44.775 200 100 200C155.225 200 200 155.225 200 100C200 44.7749 155.225 0 100 0Z" fill="url(#paint0_linear_9055_3424)"/>
<path d="M139.234 60.0849C147.314 57.1449 153.254 50.9149 156.079 43.4599C149.119 39.5649 140.569 38.6099 132.484 41.5499C124.404 44.4899 118.464 50.7199 115.639 58.1749C122.599 62.0699 131.149 63.0249 139.234 60.0849Z" fill="white"/>
<path d="M100.794 68.5349C129.799 68.5349 153.399 92.1349 153.399 121.14C153.399 150.145 129.799 173.745 100.794 173.745C71.7887 173.745 48.1888 150.145 48.1888 121.14C48.1888 92.1349 71.7887 68.5349 100.794 68.5349ZM100.794 62.5349C68.4287 62.5349 42.1888 88.7749 42.1888 121.14C42.1888 153.505 68.4287 179.745 100.794 179.745C133.159 179.745 159.399 153.505 159.399 121.14C159.399 88.7749 133.159 62.5349 100.794 62.5349Z" fill="white"/>
<path d="M101.409 130.17L69.0937 60.8749C67.2937 57.0099 64.0937 54.0799 60.0837 52.6199L33.9688 43.1149L36.3638 36.5349L62.4787 46.0399C68.2437 48.1399 72.8437 52.3549 75.4387 57.9149L107.754 127.21L101.409 130.17Z" fill="white"/>
<path d="M52.8187 118.21C52.7587 119.18 52.7287 120.155 52.7287 121.135C52.7287 147.68 74.2487 169.2 100.794 169.2C127.339 169.2 148.859 147.68 148.859 121.135C148.859 120.1 148.824 119.075 148.759 118.06C116.779 92.5049 84.7987 143.785 52.8187 118.21Z" fill="white"/>
<defs>
<linearGradient id="paint0_linear_9055_3424" x1="100" y1="0" x2="100" y2="200" gradientUnits="userSpaceOnUse">
<stop stop-color="#F7911A"/>
<stop offset="1" stop-color="#F57F00"/>
</linearGradient>
</defs>
</svg>
